<?xml version="1.0" encoding="utf-8"?>
<!-- Generator: Adobe Illustrator 16.0.0, SVG Export Plug-In . SVG Version: 6.00 Build 0)  -->
<!DOCTYPE svg PUBLIC "-//W3C//DTD SVG 1.1//EN" "http://www.w3.org/Graphics/SVG/1.1/DTD/svg11.dtd">
<svg version="1.1" id="Capa_1" xmlns="http://www.w3.org/2000/svg" xmlns:xlink="http://www.w3.org/1999/xlink" x="0px" y="0px"
	 width="250px" height="250px" viewBox="0 0 250 250" enable-background="new 0 0 250 250" xml:space="preserve">
<pattern  x="0.5" y="250.5" width="72" height="72" patternUnits="userSpaceOnUse" id="_x36__lpp_50_x25_" viewBox="24 -72 72 72" overflow="visible">
	<g>
		<polygon fill="none" points="24,0 24,-72 96,-72 96,0 		"/>
		<line fill="none" stroke="#1D1D1B" stroke-width="6" x1="23.75" y1="-6" x2="96.25" y2="-6"/>
		<line fill="none" stroke="#1D1D1B" stroke-width="6" x1="23.75" y1="-30" x2="96.25" y2="-30"/>
		<line fill="none" stroke="#1D1D1B" stroke-width="6" x1="23.75" y1="-54" x2="96.25" y2="-54"/>
		<line fill="none" stroke="#1D1D1B" stroke-width="6" x1="0" y1="-54" x2="16.5" y2="-54"/>
		<line fill="none" stroke="#1D1D1B" stroke-width="6" x1="23.75" y1="-18" x2="96.25" y2="-18"/>
		<line fill="none" stroke="#1D1D1B" stroke-width="6" x1="23.75" y1="-42" x2="96.25" y2="-42"/>
		<line fill="none" stroke="#1D1D1B" stroke-width="6" x1="23.75" y1="-66" x2="96.25" y2="-66"/>
		<line fill="none" stroke="#1D1D1B" stroke-width="6" x1="0" y1="-66" x2="16.5" y2="-66"/>
	</g>
</pattern>
<g>
	<g>
		<path fill="#2A4460" d="M87.096,45.341c7.587,0.57,79.165,0,84.085,0c4.929,0,5.013,5.371,5.013,23.729
			c0,18.357,6.488,100.187,0,106.675c-6.493,6.493-43.879,29.999-53.732,29.101c-9.849-0.894-51.488-23.571-51.488-39.396
			c0-21.495,0-116.08,0-116.08S69.185,43.998,87.096,45.341z"/>
		<pattern  id="SVGID_1_" xlink:href="#_x36__lpp_50_x25_" patternTransform="matrix(1.26 0 0 1.26 2518.1846 2026.7637)">
		</pattern>
		<path opacity="0.3" fill="url(#SVGID_1_)" d="M87.486,45.341c7.592,0.57,79.165,0,84.09,0s5.009,5.371,5.009,23.729
			c0,18.357,6.488,100.187,0,106.675c-6.493,6.493-43.879,29.999-53.729,29.101c-9.849-0.894-51.488-23.571-51.488-39.396
			c0-21.495,0-116.08,0-116.08S69.576,43.998,87.486,45.341z"/>
		<path fill="#FFFFFF" d="M123.043,205.981c-0.242,0-0.466-0.01-0.68-0.028c-10.51-0.959-52.499-23.831-52.499-40.504V49.493
			c-0.079-0.431-0.145-1.385,0.587-2.402c1.861-2.581,7.535-3.547,16.724-2.855c2.216,0.165,10.175,0.249,23.673,0.249
			c17.06,0,38.936-0.133,50.688-0.207c4.44-0.025,8.755-0.044,9.645-0.044c6.358,0,6.121,7.321,6.121,24.837
			c0,4.95,0.483,19.374,1.042,30.238c2.029,39.47,3.328,72.526-1.368,77.223C170.18,183.327,133.93,205.981,123.043,205.981z
			 M81.827,46.234c-7.08,0-9.017,1.457-9.523,2.083c-0.326,0.41-0.271,0.717-0.266,0.752c0.042,0.111,0.042,0.182,0.042,0.3v116.08
			c0,15.183,41.584,37.488,50.483,38.293c9.542,0.824,46.257-22.197,52.844-28.779c4.384-4.385,2.09-48.926,0.721-75.54
			c-0.559-10.896-1.042-25.347-1.042-30.353c0-19.235-0.405-22.622-3.905-22.622c-0.89,0-5.199,0.021-9.631,0.047
			c-11.757,0.072-33.639,0.207-50.702,0.207c-13.549,0-21.569-0.086-23.836-0.256C85.132,46.307,83.386,46.234,81.827,46.234z"/>
	</g>
	
		<path fill="#7C8083" stroke="#FFFFFF" stroke-width="1.26" stroke-linecap="round" stroke-linejoin="round" stroke-miterlimit="10" d="
		M96.093,104.493c0,0-7.982-7.887-9.397-5.862c-1.415,2.022,3.64,8.995,3.64,8.995s-8.085,11.725-5.055,13.343
		c3.035,1.615,12.535-12.027,12.535-12.027s14.857,7.58,35.072,8.085s28.802,0.907,28.904-9.197
		c0.103-10.107-13.54-16.775-35.272-14.857C104.788,94.892,96.093,104.493,96.093,104.493z"/>
	<path fill="#505254" d="M153.195,96.337c0.735,1.894,0.922,3.77,0.177,5.886c-0.754,2.136-1.615,4.195-3.621,5.443
		c-2.127,1.326-4.688,1.796-7.141,2.127c-3.732,0.505-7.456,0.882-11.166,1.56c-3.379,0.616-6.781,1.037-10.222,1.089
		c-3.5,0.049-6.995-0.188-10.496-0.142c-1.568,0.021-3.132,0.053-4.691-0.101c6.293,2.076,15.569,4.368,26.382,4.641
		c20.215,0.505,28.803,0.907,28.905-9.2C161.368,102.967,158.469,99.031,153.195,96.337z"/>
	<path fill="#FFFFFF" d="M155.527,102.857c-3.23-1.442-6.363,3.394-6.163,6.121c0.177,2.514,3.389,5.776,5.981,4.114
		C158.543,111.047,159.507,104.633,155.527,102.857z M156.328,109.125c-0.205,0.446-0.494,0.726-0.866,0.419
		c-0.349-0.289-0.4-0.766-0.298-1.233c-0.121-0.459-0.069-0.942,0.321-1.312c0.488-0.464,1.168-0.291,1.22,0.431
		c0.004,0.076-0.005,0.216-0.028,0.389C156.747,108.292,156.663,108.765,156.328,109.125z"/>
	
		<path fill="none" stroke="#FFFFFF" stroke-width="1.26" stroke-linecap="round" stroke-linejoin="round" stroke-miterlimit="10" d="
		M145.319,97.419c-0.963-2.8-4.31,2.918-1.084,2.229c-2.337-1.408-3.426,3.426-0.759,3.523c-1.536,0.473-3.226,3.239-0.829,3.852
		c-1.554,0.028-2.215,2.395-0.693,3.058c-2.765,0.065-1.452,4.48,0.735,3.912"/>
	
		<path fill="none" stroke="#FFFFFF" stroke-width="1.26" stroke-linecap="round" stroke-linejoin="round" stroke-miterlimit="10" d="
		M135.615,95.193c-1.085-1.521-5.562,3.256-1.546,4.045c-3.83-0.549-5.031,5.404-1.117,5.561c-1.321-0.18-3.384,1.34-3.463,2.771
		c-0.079,1.334,1.21,1.974,2.309,2.492c-2.844-0.384-2.713,4.052-0.525,3.729"/>
	
		<path fill="none" stroke="#FFFFFF" stroke-width="1.26" stroke-linecap="round" stroke-linejoin="round" stroke-miterlimit="10" d="
		M123.085,97.821c-2.667-1.673-5.981,5.62-0.81,5.739c-1.531-0.601-3.799,1.601-3.305,3.23c0.237,0.786,1.042,1.026,1.801,1.445
		c0.089,0.002,0.084-0.003-0.005-0.008c-2.22-0.034-2.257,2.907-0.088,3.347c-2.467-0.118-1.108,3.324,0.182,2.521"/>
	
		<path fill="none" stroke="#FFFFFF" stroke-width="1.26" stroke-linecap="round" stroke-linejoin="round" stroke-miterlimit="10" d="
		M111.663,98.429c-2.426-0.838-3.915,4.896,0.302,4.829c-0.823-0.219-1.922,0.587-2.211,1.38c-0.562,1.548,0.875,2.006,2.281,2.181
		c-2.542-0.272-2.127,3.442,0.242,3.303c-0.028-0.175-0.136-0.301-0.312-0.37"/>
	
		<path fill="none" stroke="#FFFFFF" stroke-width="1.26" stroke-linecap="round" stroke-linejoin="round" stroke-miterlimit="10" d="
		M103.275,101.764c0.256,0.235-0.735,0.281-1.233,0.91c-0.856,1.07-0.345,2.427,1.117,2.406c0.037-0.051,0.041-0.107,0.014-0.165
		c-4.543-0.761,0.014,4.962,0.404,3.014"/>
	
		<path fill="none" stroke="#0280A2" stroke-width="1.26" stroke-linecap="round" stroke-linejoin="round" stroke-miterlimit="10" d="
		M83.852,131.74c1.341,1.913,5.073,1.979,7.107,1.765c3.966-0.419,7.042-2.448,10.683-3.747c2.97-1.057,6.902-3.448,10.109-2.64
		c-2.97,1.606-2.662,6.005,0.424,7.499c3.109,1.499,9.104-0.451,11.925-1.918c4.314-2.243,10.025-7.644,15.477-6.111
		c-0.638,0.852-1.625,1.35-2.234,2.234c-1.489,2.15-0.685,4.757,0.88,6.642c3.271,3.942,5.585,1.773,9.179,0.219
		c5.236-2.267,9.993-5.669,16.007-4.691c-2.188,1.159-4.612,2.364-3.579,5.288c0.735,2.08,3.84,3.384,5.474,2.275"/>
	
		<path fill="none" stroke="#0280A2" stroke-width="1.26" stroke-linecap="round" stroke-linejoin="round" stroke-miterlimit="10" d="
		M82.642,146.533c0.894,2.043,4.333,3.268,6.335,3.234c2.704-0.046,5.688-2.435,8.052-3.579c3.277-1.583,6.229-5.507,10.096-5.497
		c-2.765,1.55-5.315,3.7-2.401,6.628c3.57,3.589,9.155,2.509,13.521,1.378c5.66-1.476,11.692-6.19,17.743-5.465
		c-3.989,0.694-3.17,4.558,0.014,5.879c3.114,1.285,7.225,1.76,10.427,1.136c3.858-0.754,5.413-2.681,8.252-3.845
		c2.603-1.07,5.372-1.001,8.081-1.629c-1.555,0.312-4.315,2.616-3.631,4.496c0.349,0.936,1.727,1.787,2.546,1.331"/>
	<g>
		
			<path fill="none" stroke="#FFFFFF" stroke-width="1.26" stroke-linecap="round" stroke-linejoin="round" stroke-miterlimit="10" d="
			M92.765,161.618c-2.071-3.244-6.083-2.313-8.252,0.479c-2.253,2.9-0.438,7.299,3.519,6.884c1.937-0.209,3.333-1.811,4.501-3.216
			c-1.312-0.377-2.537-1.033-4.38-1.727"/>
	</g>
	
		<path fill="none" stroke="#FFFFFF" stroke-width="1.26" stroke-linecap="round" stroke-linejoin="round" stroke-miterlimit="10" d="
		M94.901,174.675c2.179-0.643,4.869-3.696,6.67-5.083c1.112-0.852,2.076-1.425,3.193-2.229c-0.405,3.574-0.777,5.539-1.471,8.191
		c-0.21,0.815-0.601,2.816-0.978,4.604"/>
	
		<path fill="none" stroke="#FFFFFF" stroke-width="1.26" stroke-linecap="round" stroke-linejoin="round" stroke-miterlimit="10" d="
		M113.534,174.391c-1.434,3.51-2.188,5.669-3.942,8.881c2.602,1.494,4.202,2.15,6.688,3.207"/>
	
		<path fill="none" stroke="#FFFFFF" stroke-width="1.26" stroke-linecap="round" stroke-linejoin="round" stroke-miterlimit="10" d="
		M138.654,176.43c-1.168-2.719-8.593,3.998-5.837,8.225c1.736,2.662,6.912,2.448,7.703-0.969"/>
	
		<path fill="none" stroke="#FFFFFF" stroke-width="1.26" stroke-linecap="round" stroke-linejoin="round" stroke-miterlimit="10" d="
		M146.968,171.621c0.498,2.42,1.326,5.884,1.316,7.471"/>
	
		<path fill="none" stroke="#FFFFFF" stroke-width="1.26" stroke-linecap="round" stroke-linejoin="round" stroke-miterlimit="10" d="
		M124.449,181.098c-0.028,2.63-0.121,5.832-0.121,7.587"/>
	
		<path fill="none" stroke="#FFFFFF" stroke-width="1.26" stroke-linecap="round" stroke-linejoin="round" stroke-miterlimit="10" d="
		M98.97,171.924c0.94,1.405,2.485,2.909,3.85,3.849"/>
	<g>
		
			<path fill="none" stroke="#FFFFFF" stroke-width="1.26" stroke-linecap="round" stroke-linejoin="round" stroke-miterlimit="10" d="
			M156.407,173.013c0.358-3.31,0.069-6.638,0.884-9.919c1.647,1.918,4.092,3.892,6.824,6.525"/>
		
			<path fill="none" stroke="#FFFFFF" stroke-width="1.26" stroke-linecap="round" stroke-linejoin="round" stroke-miterlimit="10" d="
			M156.845,170.812c1.713-0.545,3.448-2.271,4.947-3.296"/>
	</g>
	
		<path fill="none" stroke="#FFFFFF" stroke-width="1.26" stroke-linecap="round" stroke-linejoin="round" stroke-miterlimit="10" d="
		M124.472,175.55c0,0.037,0,0.074,0,0.111"/>
	
		<path fill="none" stroke="#FFFFFF" stroke-width="1.26" stroke-linecap="round" stroke-linejoin="round" stroke-miterlimit="10" d="
		M145.817,167.209c0,0.037,0,0.074,0,0.111"/>
	
		<path fill="none" stroke="#FFFFFF" stroke-width="1.26" stroke-linecap="round" stroke-linejoin="round" stroke-miterlimit="10" d="
		M106.105,56.782c0,0-4.366-0.407-4.501,14.457c0,0-0.68,10.226,4.636,10.363"/>
	
		<path fill="none" stroke="#FFFFFF" stroke-width="1.26" stroke-linecap="round" stroke-linejoin="round" stroke-miterlimit="10" d="
		M111.384,57.45c-3.296-0.883-6.819,19.53-0.582,23.515"/>
	
		<path fill="none" stroke="#FFFFFF" stroke-width="1.26" stroke-linecap="round" stroke-linejoin="round" stroke-miterlimit="10" d="
		M113.985,56.919c0,0,5.339,1.711,4.501,14.455c0,0,0.609,7.208-4.636,10.365"/>
	
		<path fill="none" stroke="#FFFFFF" stroke-width="1.26" stroke-linecap="round" stroke-linejoin="round" stroke-miterlimit="10" d="
		M123.802,56.917c0,0,4.562-0.757,4.696,6.758c0,0,0.488,5.721-4.831,5.791"/>
	
		<line fill="none" stroke="#FFFFFF" stroke-width="1.26" stroke-linecap="round" stroke-linejoin="round" stroke-miterlimit="10" x1="122.196" y1="56.919" x2="122.061" y2="82.284"/>
	
		<line fill="none" stroke="#FFFFFF" stroke-width="1.26" stroke-linecap="round" stroke-linejoin="round" stroke-miterlimit="10" x1="144.971" y1="56.919" x2="144.836" y2="82.284"/>
	
		<line fill="none" stroke="#FFFFFF" stroke-width="1.26" stroke-linecap="round" stroke-linejoin="round" stroke-miterlimit="10" x1="152.064" y1="56.919" x2="152.357" y2="82.338"/>
	
		<path fill="none" stroke="#FFFFFF" stroke-width="1.26" stroke-linecap="round" stroke-linejoin="round" stroke-miterlimit="10" d="
		M124.658,71.251c1.922,3.702,3.845,7.405,5.771,11.105"/>
	
		<line fill="none" stroke="#FFFFFF" stroke-width="1.26" stroke-linecap="round" stroke-linejoin="round" stroke-miterlimit="10" x1="91.378" y1="57.145" x2="86.603" y2="82.059"/>
	
		<line fill="none" stroke="#FFFFFF" stroke-width="1.26" stroke-linecap="round" stroke-linejoin="round" stroke-miterlimit="10" x1="92.723" y1="57.131" x2="97.052" y2="82.149"/>
	
		<line fill="none" stroke="#FFFFFF" stroke-width="1.26" stroke-linecap="round" stroke-linejoin="round" stroke-miterlimit="10" x1="159.293" y1="57.145" x2="154.513" y2="82.059"/>
	
		<line fill="none" stroke="#FFFFFF" stroke-width="1.26" stroke-linecap="round" stroke-linejoin="round" stroke-miterlimit="10" x1="160.819" y1="57.131" x2="164.124" y2="82.143"/>
	
		<line fill="none" stroke="#FFFFFF" stroke-width="1.26" stroke-linecap="round" stroke-linejoin="round" stroke-miterlimit="10" x1="147.093" y1="57.062" x2="150.896" y2="82.143"/>
	<g>
		
			<path fill="none" stroke="#FFFFFF" stroke-width="1.26" stroke-linecap="round" stroke-linejoin="round" stroke-miterlimit="10" d="
			M132.967,57.191c-0.592,6.789-2.998,18.083,1.675,23.79"/>
		
			<path fill="none" stroke="#FFFFFF" stroke-width="1.26" stroke-linecap="round" stroke-linejoin="round" stroke-miterlimit="10" d="
			M140.312,57.191c0,0,1.563,17.319-0.103,21.139c-1.662,3.817-3.23,3.682-3.23,3.682"/>
	</g>
	
		<path fill="none" stroke="#FFFFFF" stroke-width="1.26" stroke-linecap="round" stroke-linejoin="round" stroke-miterlimit="10" d="
		M91.346,75.603c0.409,0,3.714,0,3.714,0"/>
	
		<path fill="none" stroke="#FFFFFF" stroke-width="1.26" stroke-linecap="round" stroke-linejoin="round" stroke-miterlimit="10" d="
		M90.149,75.603c0.409,0,6.954,0,6.954,0"/>
	
		<path fill="none" stroke="#FFFFFF" stroke-width="1.26" stroke-linecap="round" stroke-linejoin="round" stroke-miterlimit="10" d="
		M158.199,75.603c0.409,0,6.954,0,6.954,0"/>
	
		<line fill="none" stroke="#FFFFFF" stroke-width="1.26" stroke-linecap="round" stroke-linejoin="round" stroke-miterlimit="10" x1="145.092" y1="53.454" x2="152.925" y2="53.81"/>
	
		<path fill="none" stroke="#FFFFFF" stroke-width="1.26" stroke-linecap="round" stroke-linejoin="round" stroke-miterlimit="10" d="
		M96.093,104.493c0,0-7.982-7.887-9.397-5.862c-1.415,2.022,3.64,8.995,3.64,8.995s-8.085,11.725-5.055,13.343
		c3.035,1.615,12.535-12.027,12.535-12.027s14.857,7.58,35.072,8.085s28.802,0.907,28.904-9.197
		c0.103-10.107-13.54-16.775-35.272-14.857C104.788,94.892,96.093,104.493,96.093,104.493z"/>
</g>
</svg>
