<?xml version="1.0" encoding="utf-8"?>
<!-- Generator: Adobe Illustrator 16.0.0, SVG Export Plug-In . SVG Version: 6.00 Build 0)  -->
<!DOCTYPE svg PUBLIC "-//W3C//DTD SVG 1.1//EN" "http://www.w3.org/Graphics/SVG/1.1/DTD/svg11.dtd">
<svg version="1.1" id="Capa_1" xmlns="http://www.w3.org/2000/svg" xmlns:xlink="http://www.w3.org/1999/xlink" x="0px" y="0px"
	 width="250px" height="250px" viewBox="0 0 250 250" enable-background="new 0 0 250 250" xml:space="preserve">
<g>
	<path fill="#3C343F" stroke="#3C343F" stroke-width="2.4944" stroke-miterlimit="10" d="M176.62,75.218
		c-0.527-0.717-1.407-1.165-2.298-1.165c-0.18,0-0.329,0.013-0.509,0.047c-0.092,0.014-0.604,0.062-1.453,0.062
		c-3.243,0-5.436-0.677-6.101-1.308c-1.698-1.62-6.337-5.385-12.625-5.385c-0.535,0-1.074,0.029-1.599,0.084
		c-0.814,0.084-1.572,0.186-2.271,0.3c-0.035-0.163-0.081-0.323-0.146-0.478l-0.257-0.631c-0.512-5.063-5.76-7.917-8.123-8.957
		c-0.019-0.008-0.034-0.015-0.054-0.025c-0.382-0.899-1.158-2.385-2.359-4.53c-0.107-0.197-0.241-0.376-0.391-0.537
		c-3.028-5.362-7.511-12.736-7.557-12.812c-0.237-0.39-0.562-0.715-0.953-0.949c-1.637-0.981-3.529-1.476-5.628-1.476
		c-3.22,0-6.314,1.191-8.007,2.398c-0.74,0.313-3.237,0.608-5.029,0.807c0.025-0.509,0.056-1.077,0.038-1.673
		c-0.003-0.071-0.013-0.128-0.017-0.195c0.088-0.453,0.105-0.921,0.029-1.434c-0.18-1.195-1.102-2.144-2.293-2.354
		c-1.191-0.205-2.379,0.367-2.951,1.432c-0.304,0.555-0.422,1.071-0.461,1.507c-0.019,0.048-0.042,0.099-0.067,0.155
		c-0.245,0.624-0.51,1.229-0.78,1.834c-0.306,0.692-0.617,1.401-0.906,2.149c-0.193,0.105-0.367,0.224-0.532,0.354
		c-0.727,0.585-2.21,1.769-3.161,12.568c-2.027,0.755-5.014,1.998-6.368,4.421c-0.92,1.635-0.803,3.746,0.317,6.179
		c-4.583,6.465-7.187,13.208-8.586,17.869c-0.012,0.03-0.018,0.063-0.029,0.093c-0.52,1.987-12.554,49.141,6.684,92.915
		c11.751,26.741,25.577,32.352,35.104,32.352c0.685,0,1.373-0.026,2.058-0.088c-0.378,2.972,0.107,4.189,0.734,5.005
		c0.639,0.816,1.595,1.285,2.624,1.285c0.05,0,0.126,0,0.172-0.004c2.02-0.102,3.189-1.404,3.97-2.269
		c0.226-0.246,0.597-0.663,0.75-0.723c2.306-0.188,6.654-2.126,6.728-5.169c0.03-1.205-0.628-2.505-2.119-3.109
		c1.507-1.157,2.772-2.435,3.664-3.73c5.538-7.996,6.957-12.134-2.742-39.07c-5.003-13.912-8.2-26.975-9.148-37.286
		c0.268,0.02,0.524,0.027,0.784,0.027c5.129,0,8.207-3.742,10.54-7.402c1.125-1.765,2.486-4.035,3.32-6.36
		c1.843-1.824,2.597-4.534,1.878-7.014c-0.616-2.121-2.203-3.708-4.314-4.416l0.94-7.739c1.458-0.715,3.596-1.532,5.439-1.532
		c0.795,0,1.445,0.161,1.924,0.475c0.91,0.589,1.847,1.375,2.841,2.207c2.678,2.241,5.714,4.787,9.745,4.787
		c1.041,0,2.093-0.18,3.129-0.528c0.818-0.277,1.465-0.918,1.748-1.736c0,0,0.875-2.501,1.896-5.567
		c0.023-0.065,0.038-0.13,0.058-0.193c0.022-0.06,0.05-0.123,0.068-0.184c0.643-1.941,1.205-3.658,1.652-5.11
		c0.023-0.063,0.038-0.122,0.054-0.184c0.023-0.065,0.05-0.128,0.069-0.195C177.354,77.799,177.611,76.556,176.62,75.218z
		 M134.649,109.928c0.321-0.922,0.769-2.081,1.297-3.41C135.499,108.054,135.093,109.172,134.649,109.928z M138.834,99.261
		c0.118-0.302,0.236-0.608,0.355-0.914l-0.111,0.899C138.998,99.25,138.918,99.255,138.834,99.261z M111.188,38.065
		c0-0.004,0-0.007-0.003-0.011l0.003-0.002C111.188,38.056,111.188,38.062,111.188,38.065z"/>
	<path fill="#AF6641" d="M88.524,84.28c0,0-12.529,47.695,6.537,91.073c19.062,43.377,43.865,30.226,48.811,23.082
		c4.941-7.143,6.299-10.469-3.075-36.523c-9.374-26.053-11.146-45.264-8.494-52.878c2.65-7.615,12.965-29.027,10.196-40.101
		c-2.77-11.076-11.555-20.733-26.381-16.392C101.289,56.881,92.391,71.414,88.524,84.28z"/>
	<path fill="#502B18" d="M96.552,60.797c1.314-2.35,6.014-3.385,6.577-3.853c0,0,0.845-11.187,2.256-12.315
		c1.411-1.128,11.001-1.128,12.786-2.444c1.788-1.315,6.861-3.1,10.624-0.845c0,0,10.055,16.545,10.246,18.142
		c0.008,0.096-0.076,0.203-0.244,0.323c0.673,0.17,1.204,0.344,1.56,0.522c0.265,0.134,8.927,3.574,5.921,9.777
		c-3.006,6.204-21.902,5.171-29.611,3.947c-7.71-1.22-13.438-3.006-15.415-4.23C99.277,68.599,95.234,63.147,96.552,60.797z"/>
	<path fill="#80532D" d="M103.631,63.862c0.497,0.675,1.549,0.824,2.319,0.964c4.008,0.723,7.994,0.677,12.028,0.222
		c4.526-0.512,9.09-0.874,13.443-2.304c1.285-0.422,2.57-0.904,3.812-1.442c1.255-0.539,2.766-1.172,3.649-2.258
		c0.03-0.031,0.046-0.065,0.072-0.096c-0.355-0.849-1.201-2.442-2.265-4.343c-0.134,0.084-0.26,0.176-0.394,0.254
		c-0.803,0.465-1.629,0.887-2.479,1.258c-3.84,1.681-7.996,2.696-12.058,3.683c-5.299,1.291-14.966,3.285-18.517-2.039
		c0.128,1.163,0.186,2.333,0.195,3.501C103.448,61.956,103.191,63.26,103.631,63.862z"/>
	<g>
		<path fill="#EF7E45" d="M108.848,37.771c0.055,0.388-0.004,0.585-0.109,0.793C108.697,38.312,108.672,38.094,108.848,37.771z"/>
		<path fill="#EF7E45" d="M105.421,54.89c0.044-3.337-0.147-6.749,0.748-9.984c0.566-2.052,1.526-3.83,2.295-5.773
			c0.097-0.25,0.199-0.411,0.275-0.568c0.029,0.147,0.06,0.306,0.067,0.503c0.026,0.921-0.081,1.801-0.084,2.706
			c0,2.063,0.807,4.825,1.534,6.775c1.086,2.924,1.981,6.045,1.377,9.194c-0.249,1.291-0.784,2.461-1.342,3.639
			c-0.369,0.784-0.635,2.226-1.142,2.893l0.09,0.094C106.351,62.912,105.383,57.979,105.421,54.89z"/>
	</g>
	<path fill="none" stroke="#AF6641" stroke-width="0.3529" stroke-miterlimit="10" d="M109.427,65.874
		c-0.793-2.044-1.044-4.696-0.942-6.865c0.044-0.921,0.069-3.765,0.47-4.041"/>
	
		<path fill="#3C343F" stroke="#3C343F" stroke-width="0.6236" stroke-linecap="round" stroke-linejoin="round" stroke-miterlimit="10" d="
		M118.446,82.798c-0.572,1.685-1.721,6.672-0.195,7.978c3.28,2.804,4.783-5.628,4.248-7.553
		C121.821,80.763,119.467,79.797,118.446,82.798z"/>
	
		<path fill="#3C343F" stroke="#3C343F" stroke-width="0.6236" stroke-linecap="round" stroke-linejoin="round" stroke-miterlimit="10" d="
		M131.402,82.631c-0.573,1.687-1.725,6.67-0.195,7.978c3.282,2.804,4.781-5.627,4.25-7.553
		C134.771,80.599,132.424,79.631,131.402,82.631z"/>
	
		<path fill="#3C343F" stroke="#3C343F" stroke-width="0.6236" stroke-linecap="round" stroke-linejoin="round" stroke-miterlimit="10" d="
		M113.632,92.862c-2.472-1.478-6.968-6.779-6.587-0.692c0.598,9.605,16.153,14.08,22.931,8.036c1.063-0.953,2.211-2.788,0.834-3.953
		c-1.254-1.06-3.125,0.275-4.429,0.457C122.091,97.309,117.224,95.014,113.632,92.862z"/>
	<path fill="#AF6641" d="M133.384,204.602c0,0-2.149,7.716-0.345,7.626c1.81-0.09,2.326-2.796,4.636-2.985
		c2.311-0.189,5.737-2.679,3.327-2.992C138.597,205.935,137.621,200.91,133.384,204.602z"/>
	<path opacity="0.2" fill="#80532D" d="M86.627,105.499c-0.51,0.513,0.254,46.058,9.466,64.224
		c9.212,18.167,20.984,33.263,29.937,33.009c8.957-0.257,13.306-6.143,14.843-8.447c1.534-2.302-4.861,7.678-14.074,2.305
		c-9.21-5.374-19.191-6.396-26.865-31.217c-7.674-24.819-8.443-61.663-10.749-61.153C86.881,104.73,86.627,105.499,86.627,105.499z"
		/>
	<path fill="#AF6641" d="M128.932,112.81c8.422,3.985,9.29-3.025,11.042-9.213c-2.957-0.958-1.656-2.19-0.712-1.896
		c1.312,0.281,2.398,0.75,2.861,1.865c-0.05,0.189-0.05,0.189-0.004,0.004c2.517-4.676,5.075-0.423,4.776,2.884
		c-0.252,2.788-2.195,6.058-3.652,8.337c-4.846,7.596-8.311,7.089-15.952,3.941"/>
	<g>
		<g>
			
				<path fill="#3C343F" stroke="#3C343F" stroke-width="0.6236" stroke-linecap="round" stroke-linejoin="round" stroke-miterlimit="10" d="
				M154.182,75.565c1.626,0.121,3.259,0.406,4.7,1.209c1.365,0.761,2.448,1.874,3.698,2.792c2.062,1.511,4.434,1.88,6.889,2.259
				c1.212,0.184,2.451,0.365,3.679,0.355c0.065,0,0.146,0,0.226,0.002c0.926-2.991,1.572-5.387,1.247-5.32
				c-0.856,0.168-7.423,0.459-9.979-1.976c-2.562-2.434-6.972-5.071-12.001-4.543c-5.033,0.526-6.119,1.515-6.119,1.515
				s-0.383,2.472-0.815,5.545C148.3,76.036,151.222,75.355,154.182,75.565z"/>
			<path fill="#D51020" stroke="#D51020" stroke-width="0.6236" stroke-miterlimit="10" d="M148.579,81.83
				c1.515-0.503,3.193-0.864,4.792-0.885c2.7-0.036,5.488,1.151,7.652,2.696c1.978,1.41,3.859,3.263,6.276,3.882
				c1.098,0.285,2.181,0.275,3.301,0.197c0.088-0.008,0.531-0.048,1.018-0.111c0.551-1.643,1.128-3.423,1.641-5.058
				c-0.88-0.008-1.763-0.146-2.199-0.197c-1.117-0.128-2.226-0.31-3.331-0.508c-1.063-0.189-2.138-0.337-3.14-0.759
				c-1.519-0.639-2.746-1.694-3.993-2.744c-1.373-1.151-2.934-1.968-4.708-2.268c-3.55-0.595-7.122,0.017-10.231,1.706
				c-0.286,2.013-0.585,4.247-0.818,6.197C146.077,83.24,147.187,82.291,148.579,81.83z"/>
			<path fill="#FBC009" stroke="#FBC009" stroke-width="0.6236" stroke-miterlimit="10" d="M169.381,88.103
				c-2.49-0.023-4.517-1.176-6.452-2.643c-2.513-1.905-4.999-3.653-8.216-4.098c-1.881-0.26-3.938,0.071-5.736,0.664
				c-1.564,0.518-2.78,1.541-4.181,2.337c-0.329,2.84-0.489,4.983-0.198,4.783c0.818-0.561,7.638-4.454,11.733-1.784
				c4.093,2.669,7.829,8.001,13.279,6.157c0,0,0.868-2.484,1.886-5.532C170.585,88.089,169.629,88.104,169.381,88.103z"/>
		</g>
		<path fill="#502B18" d="M140.126,116.95c0.035-1.863,5.638-45.457,5.771-48.934l0.658-1.5l0.772,1.911l-5.901,48.44l-1.403,1.696
			L140.126,116.95z"/>
	</g>
	
		<path fill="#3C343F" stroke="#3C343F" stroke-width="0.6236" stroke-linecap="round" stroke-linejoin="round" stroke-miterlimit="10" d="
		M144.598,109.208c4.888-1.125,4.976-7.857-0.207-8.282C138.926,100.477,138,110.721,144.598,109.208z"/>
	<path fill="#AF6641" d="M145.187,108.22c4.892-1.123,4.979-7.855-0.207-8.28C139.519,99.492,138.593,109.734,145.187,108.22z"/>
	
		<path fill="none" stroke="#3C343F" stroke-width="3.8721" stroke-linecap="round" stroke-linejoin="round" stroke-miterlimit="10" d="
		M98.889,110.291c0.53,3.276,1.759,13.264,4.991,15.067c-0.14-0.081,7.766-0.683,2.193,2.146c5.936,3.214,1.625,10.075-3.689,7.125
		c-4.128-2.295-8.68-15.941-8.358-19.477"/>
	<g>
		<path fill="#3C343F" d="M172.857,165.212c-0.979-1.972-3.163-2.95-5.198-2.519c-0.004-0.392-0.015-0.782-0.034-1.157
			c0-0.059,0-0.116-0.004-0.176c-0.004-0.034-0.004-0.072-0.008-0.106c-0.11-2.091-1.583-3.812-3.533-4.309
			c-2.054-0.858-4.364-0.771-6.571,0.288c-0.152-1.453-0.986-2.721-2.191-3.473c0.016-0.042,0.046-0.082,0.062-0.124
			c0.371-0.717,0.562-1.543,0.517-2.405c-0.142-2.596-2.36-4.59-4.953-4.446c-2.391,0.128-4.762,2.14-4.598,5.283
			c0.016,0.18,0.054,0.349,0.085,0.519c-1.454-0.461-3.416-0.515-5.867,0.746c-0.818-0.482-1.76-0.725-2.808-0.631
			c-1.144,0.101-2.157,0.604-2.91,1.359c-0.233-0.086-0.475-0.155-0.719-0.203c-2.023-1.317-4.406-1.786-6.812-1.254
			c-1.651,0.361-3.136,1.164-4.369,2.298c-3.555-2.483-6.473-1.319-7.573-0.685c-0.199,0.113-0.392,0.237-0.574,0.371
			c-1.176-0.455-2.472-0.529-3.715-0.206c-0.176,0.046-0.346,0.094-0.511,0.147c-0.786-0.283-1.652-0.358-2.536-0.181
			c-0.818,0.169-1.526,0.553-2.117,1.063c-2.188-1.279-5.01-0.979-7.42,0.874c-0.149,0.115-0.296,0.237-0.443,0.365
			c-0.618-3.978-2.096-7.716-4.137-9.949c-1.184-1.295-2.987-1.826-4.673-1.381c-1.698,0.445-3.004,1.794-3.395,3.503
			c-0.388,1.718-0.518,3.517-0.426,5.33c-4.251-0.83-8.539,0.727-11.112,3.491c-3.161,3.396-4.293,9.12,0.304,14.247
			c2.771,3.092,5.438,3.79,7.458,3.681c1.28-0.068,2.303-0.462,2.924-0.771c0.954-0.479,1.788-1.146,2.507-1.95
			c0.033,0.016,0.061,0.028,0.096,0.044c1.679,0.74,3.926,0.83,5.991-0.531c2.235,1.763,4.337,1.94,5.825,1.717
			c0.878-0.132,1.664-0.413,2.377-0.805c1.125,0.288,2.312,0.401,3.542,0.304c0.964-0.074,1.865-0.281,2.696-0.585
			c0.717,0.365,1.526,0.563,2.387,0.521c0.038-0.004,0.08-0.006,0.119-0.009c1.167-0.092,2.207-0.604,2.972-1.381
			c0.786,0.443,1.69,0.667,2.683,0.589c1.343-0.107,2.509-0.771,3.292-1.742c0.917,1.006,2.264,1.608,3.73,1.528
			c0.521-0.031,1.006-0.159,1.463-0.341c0.06,0.03,0.117,0.072,0.178,0.102c2.29,1.028,4.784,0.996,7.029-0.008
			c0.772,0.447,1.637,0.744,2.566,0.87c1.162,0.144,2.275,0.028,3.296-0.321c0.646,0.166,1.339,0.195,2.035,0.066
			c1.231-0.229,2.268-0.923,2.952-1.87c0.551,1.227,1.45,2.293,2.896,2.963c1.339,0.623,3.301,0.94,5.714-0.44
			c0.275,0.079,0.555,0.136,0.846,0.165c0.799,0.086,1.583-0.039,2.295-0.335c0.045,0.026,0.091,0.054,0.141,0.084
			c3.526,2.008,6.242,1.505,7.863,0.765c0.678,0.44,1.45,0.776,2.33,0.97c0.565,0.122,1.136,0.165,1.701,0.134
			c1.989-0.104,3.905-1.124,5.259-2.864C173.538,170.193,173.947,167.423,172.857,165.212z"/>
	</g>
	<g>
		<g>
			<path fill="#FBFBFB" d="M81.38,171.131c-1.128,0-2.54-0.562-4.173-2.385c-2.589-2.888-2.729-6.406-0.354-8.955
				c2.006-2.153,5.574-3.198,8.877-1.913c0.136-0.103,0.304-0.162,0.482-0.162c0.003,0,0.005,0,0.009,0
				c0.371,0.002,0.688,0.264,0.761,0.631c0.011,0.054,0.021,0.109,0.032,0.161c0.297,0.182,0.593,0.384,0.884,0.607
				c0.342,0.266,0.405,0.758,0.14,1.1c-0.216,0.277-0.576,0.369-0.887,0.257c-0.008,0.541-0.042,1.114-0.105,1.699
				c0.43,2.396,1.486,4.753,2.437,5.171c0.449,0.199,0.985-0.13,1.581-0.971c0.469-0.634,0.821-1.429,1.062-2.333
				c-2.364-4.356-3.867-10.096-2.777-14.87c0.063-0.283,0.279-0.507,0.566-0.583c0.279-0.075,0.579,0.015,0.778,0.229
				c2.694,2.958,4.17,10.011,3.1,15c0.608,1.048,1.264,1.996,1.945,2.809c0.958,1.1,1.813,1.606,2.53,1.501
				c0.45-0.066,0.884-0.355,1.306-0.805c-0.329-0.354-0.612-0.761-0.828-1.228c-1.306-3.029-0.025-5.806,1.82-7.227
				c1.197-0.924,2.444-1.105,3.251-0.475c0.685,0.537,1.229,1.794-0.063,4.726c-0.614,1.394-1.264,2.78-2,3.916
				c0.87,0.453,1.903,0.624,2.823,0.547c1.344-0.106,2.367-0.705,2.608-1.525c0.123-0.415,0.559-0.654,0.976-0.532
				c0.415,0.123,0.652,0.559,0.532,0.976c-0.434,1.475-1.964,2.486-3.991,2.646c-1.264,0.1-2.7-0.159-3.897-0.853
				c-0.679,0.747-1.437,1.254-2.303,1.384c-1.302,0.193-2.599-0.468-3.958-2.036c-0.466-0.555-0.925-1.176-1.365-1.844
				c-0.233,0.551-0.516,1.054-0.845,1.498c-1.419,1.998-2.79,1.789-3.482,1.485c-1.023-0.451-1.868-1.694-2.476-3.221
				c-0.507,1.704-1.555,4.253-3.456,5.206C82.491,170.974,81.979,171.131,81.38,171.131z M82.722,158.884
				c-1.858,0-3.595,0.77-4.719,1.976c-1.838,1.974-1.698,4.53,0.371,6.841c1.471,1.641,2.765,2.198,3.842,1.659
				c1.708-0.854,2.89-4.207,3.253-7.197c-0.151-0.979-0.207-1.934-0.159-2.76C84.455,159.047,83.577,158.884,82.722,158.884z
				 M102.685,159.59c-0.229,0-0.652,0.122-1.163,0.519c-1.016,0.781-2.446,2.79-1.348,5.337c0.102,0.212,0.224,0.409,0.355,0.587
				c0.624-0.998,1.216-2.257,1.79-3.549c0.872-1.987,0.669-2.75,0.53-2.857C102.822,159.604,102.765,159.59,102.685,159.59z
				 M90.591,151.422c-0.25,3.261,0.587,6.823,1.947,9.922C92.737,157.941,91.951,153.97,90.591,151.422z"/>
		</g>
		<g>
			<path fill="#FBFBFB" d="M109.836,169.071c-0.399,0-0.738-0.301-0.78-0.702c-0.086-0.828-0.165-1.666-0.241-2.511
				c-0.216-2.417-0.447-4.917-0.929-7.271c-0.086-0.423,0.186-0.838,0.612-0.928c0.426-0.088,0.837,0.188,0.926,0.612
				c0.092,0.453,0.174,0.906,0.252,1.363c0.427-1.036,1.083-1.758,2.054-1.983c0.629-0.176,1.273-0.061,1.83,0.339
				c0.643,0.461,1.136,1.302,1.512,2.331c0.35-1.435,0.943-2.67,1.924-3.233c0.688-0.398,1.849-0.616,3.473,0.563
				c2.459,1.532,2.938,9.497,2.941,9.575c0.025,0.434-0.304,0.805-0.736,0.83c-0.426,0.021-0.803-0.307-0.828-0.74
				c-0.155-2.465-0.988-7.611-2.21-8.338c-0.025-0.013-0.046-0.028-0.067-0.042c-0.769-0.565-1.369-0.729-1.788-0.489
				c-1.249,0.717-1.727,4.515-1.612,7.592c0.042,0.505,0.078,0.984,0.101,1.413c0.021,0.425-0.296,0.79-0.723,0.826
				c-0.423,0.034-0.795-0.277-0.841-0.7c-0.004-0.019-0.042-0.423-0.073-1.064c-0.294-3.783-1.052-6.579-1.985-7.246
				c-0.17-0.124-0.329-0.153-0.53-0.098c-0.928,0.218-1.909,1.901-1.517,8.737l0.021,0.339c0.021,0.424-0.3,0.789-0.723,0.822
				C109.875,169.071,109.858,169.071,109.836,169.071z"/>
		</g>
		<g>
			<path fill="#FBFBFB" d="M165.851,170.866c-0.176,0-0.355-0.019-0.535-0.057c-1.423-0.314-2.287-1.504-2.808-2.957
				c-0.383,0.878-0.91,1.62-1.645,2.075c-1.231,0.761-2.792,0.617-4.632-0.429c-1.07-0.611-1.637-1.692-1.591-3.038
				c0.004-0.086,0.004-0.173,0.012-0.259c-0.608,0.861-1.155,1.766-1.61,2.64c-0.146,0.284-0.451,0.455-0.776,0.418
				c-0.321-0.034-0.589-0.258-0.673-0.569c-0.104-0.371-0.18-0.8-0.233-1.271c-0.233,0.394-0.505,0.751-0.826,1.062
				c-0.944,0.883-2.333,1.98-3.584,1.397c-1.521-0.71-1.515-3.371-1.377-6.035c0-0.239,0.004-0.549,0.012-0.888
				c0.038-1.753,0.111-5.014-1.01-5.612c-0.531-0.285-1.537,0.052-2.822,0.95c-2.321,1.62-3.014,4.322-2.383,9.324
				c0.05,0.413-0.226,0.796-0.635,0.87c-0.409,0.073-0.807-0.18-0.902-0.583c-0.046-0.182-0.088-0.363-0.127-0.547
				c-0.122,0.172-0.256,0.327-0.394,0.467c-0.708,0.705-1.641,1.012-2.708,0.88c-0.88-0.119-1.606-0.591-2.122-1.373
				c-0.161-0.241-0.299-0.511-0.413-0.802c-0.1,0.117-0.199,0.231-0.311,0.341c-1.633,1.656-3.736,2.134-5.626,1.287
				c-2.079-0.938-3.42-3.282-3.259-5.703c0.279-3.335,2.274-5.96,4.954-6.55c1.68-0.37,3.316,0.127,4.647,1.354
				c0.142-0.078,0.302-0.117,0.474-0.1c0.379,0.042,0.678,0.355,0.696,0.738c0.016,0.264,0.03,0.537,0.042,0.818
				c0.096,0.14,0.184,0.289,0.271,0.441c0.203,0.354,0.096,0.796-0.229,1.027c0.012,1.441-0.096,2.97-0.565,4.331
				c0.11,0.776,0.306,1.463,0.627,1.949c0.271,0.409,0.593,0.625,1.018,0.683c0.581,0.072,1.024-0.063,1.392-0.431
				c0.371-0.371,0.838-1.166,1.063-2.86c-0.076-1.237-0.096-2.492-0.111-3.722c-0.019-1.074-0.034-2.184-0.088-3.231
				c-0.026-0.423,0.291-0.788,0.712-0.826c0.425-0.048,0.795,0.266,0.849,0.685c0.1,0.82,0.18,1.601,0.237,2.333
				c0.489-0.784,1.136-1.488,1.993-2.087c1.87-1.312,3.331-1.653,4.463-1.048c1.97,1.052,1.894,4.504,1.836,7.03
				c-0.004,0.326-0.012,0.629-0.012,0.895c-0.195,3.702,0.21,4.45,0.471,4.572c0.008,0.002,0.451,0.184,1.836-1.115
				c1.399-1.346,1.652-4.331,1.874-6.964c0.103-1.229,0.202-2.391,0.413-3.337c0.088-0.4,0.466-0.668,0.872-0.608
				c0.409,0.056,0.703,0.413,0.677,0.82c-0.035,0.612-0.088,1.349-0.153,2.153c-0.16,2.069-0.367,4.678-0.294,6.693
				c1.166-1.808,3.06-4.246,5.331-5.454c0.229-0.153,0.471-0.287,0.707-0.401c1.293-0.626,2.578-0.635,3.684-0.052
				c0.016,0,0.03,0,0.042,0c0.409,0.01,0.742,0.334,0.765,0.743c0.004,0.043,0.004,0.085,0.008,0.127
				c0,0.03,0.004,0.056,0.004,0.082c0.03,0.713,0.046,1.692-0.026,2.742c0.172,2.431,0.822,5.062,2.302,5.389
				c0.704,0.155,1.305-0.529,1.465-0.74c0.486-0.619,0.57-1.244,0.482-1.421c-0.191-0.388-0.031-0.858,0.355-1.052
				c0.39-0.19,0.86-0.03,1.052,0.356c0.475,0.952,0.012,2.233-0.65,3.08C167.671,170.381,166.765,170.866,165.851,170.866z
				 M158.947,162.011c-1.469,1.014-2.688,2.956-2.738,4.502c-0.027,0.771,0.237,1.302,0.803,1.623
				c1.301,0.74,2.318,0.894,3.029,0.457c1.078-0.667,1.583-2.683,1.74-4.821c-0.05-0.862-0.042-1.617-0.023-2.138
				c-0.615-0.206-1.262-0.2-1.962,0.018C159.517,161.739,159.234,161.861,158.947,162.011z M128.909,157.354
				c-0.249,0-0.497,0.026-0.75,0.08c-1.667,0.367-3.466,2.1-3.722,5.137c-0.115,1.767,0.845,3.482,2.337,4.153
				c1.305,0.587,2.678,0.25,3.867-0.95c0.397-0.413,0.7-0.903,0.922-1.442c-0.203-1.94,0.05-4.092,0.294-5.457
				C131.013,157.882,129.991,157.354,128.909,157.354z"/>
		</g>
		<g>
			<path fill="#FBFBFB" d="M150.904,151.738c0.321-0.018,0.543-0.283,0.585-0.492l-1.557,0.083c-0.05-1.054,0.73-1.149,0.888-1.157
				c0.436-0.03,0.803,0.31,0.826,0.74C151.669,151.346,151.34,151.715,150.904,151.738z"/>
		</g>
	</g>
</g>
</svg>
