<?xml version="1.0" encoding="utf-8"?>
<!-- Generator: Adobe Illustrator 16.0.0, SVG Export Plug-In . SVG Version: 6.00 Build 0)  -->
<!DOCTYPE svg PUBLIC "-//W3C//DTD SVG 1.1//EN" "http://www.w3.org/Graphics/SVG/1.1/DTD/svg11.dtd">
<svg version="1.1" id="Capa_1" xmlns="http://www.w3.org/2000/svg" xmlns:xlink="http://www.w3.org/1999/xlink" x="0px" y="0px"
	 width="250px" height="250px" viewBox="0 0 250 250" enable-background="new 0 0 250 250" xml:space="preserve">
<g>
	<g>
		<g>
			<path fill="#E9BB43" d="M125,202.211c-34.496,0-62.567-28.064-62.567-62.564V68.372c0-11.35,9.236-20.583,20.588-20.583h83.963
				c11.353,0,20.584,9.233,20.584,20.583v71.274C187.567,174.146,159.501,202.211,125,202.211z"/>
			<path fill="#FFFFFF" d="M124.65,196.83c31.649,0,57.3-25.655,57.3-57.3v-20.442v-14.962v-35.87
				c0-8.457-6.856-15.316-15.32-15.316H82.671c-8.459,0-15.316,6.859-15.316,15.316v35.87v14.962v20.442
				C67.354,171.175,93.006,196.83,124.65,196.83z"/>
		</g>
		<g>
			<path fill="#1C699C" d="M86.453,91.29c0,0-0.677,63.307,1.181,66.006s22.454,3.715,33.934,3.715
				c11.479,0,31.063,0.338,34.777-0.845c3.715-1.181,4.895-69.217,1.349-70.566c-3.542-1.351-32.585-1.519-46.929-1.18
				C96.411,88.756,86.453,85.716,86.453,91.29z"/>
			<path fill="none" stroke="#2A2B20" stroke-width="0.9702" stroke-miterlimit="10" d="M97.765,86.56
				c-0.509,0.17,1.181,75.125,1.181,75.125"/>
			
				<polygon fill="#2A2B20" stroke="#2A2B20" stroke-width="0.7109" stroke-linecap="round" stroke-linejoin="round" stroke-miterlimit="10" points="
				99.958,86.901 95.566,87.069 97.256,86.224 			"/>
			<path fill="none" stroke="#2A2B20" stroke-width="0.9702" stroke-miterlimit="10" d="M110.765,86.56
				c-0.514,0.17,1.181,75.125,1.181,75.125"/>
			
				<polygon fill="#2A2B20" stroke="#2A2B20" stroke-width="0.7109" stroke-linecap="round" stroke-linejoin="round" stroke-miterlimit="10" points="
				112.958,86.901 108.566,87.069 110.256,86.224 			"/>
			<path fill="none" stroke="#2A2B20" stroke-width="0.9702" stroke-miterlimit="10" d="M123.424,86.56
				c-0.508,0.17,1.181,75.125,1.181,75.125"/>
			
				<polygon fill="#2A2B20" stroke="#2A2B20" stroke-width="0.7109" stroke-linecap="round" stroke-linejoin="round" stroke-miterlimit="10" points="
				125.617,86.901 121.23,87.069 122.916,86.224 			"/>
			<path fill="none" stroke="#2A2B20" stroke-width="0.9702" stroke-miterlimit="10" d="M136.761,86.56
				c-0.509,0.17,1.181,75.125,1.181,75.125"/>
			
				<polygon fill="#2A2B20" stroke="#2A2B20" stroke-width="0.7109" stroke-linecap="round" stroke-linejoin="round" stroke-miterlimit="10" points="
				138.954,86.901 134.567,87.069 136.252,86.224 			"/>
			<path fill="none" stroke="#2A2B20" stroke-width="0.9702" stroke-miterlimit="10" d="M148.748,86.56
				c-0.509,0.17,1.181,75.125,1.181,75.125"/>
			
				<polygon fill="#2A2B20" stroke="#2A2B20" stroke-width="0.7109" stroke-linecap="round" stroke-linejoin="round" stroke-miterlimit="10" points="
				150.941,86.901 146.551,87.069 148.239,86.224 			"/>
			<path fill="none" stroke="#2A2B20" stroke-width="0.9702" stroke-miterlimit="10" d="M85.06,113.398
				c0.086-0.252-1.172-2.684-0.082-2.768s75.758,2.432,75.922,4.279c0.172,1.844-0.164,3.02-0.164,3.02"/>
			<path fill="none" stroke="#2A2B20" stroke-width="0.9702" stroke-miterlimit="10" d="M85.06,127.829
				c0.086-0.252-1.172-2.684-0.082-2.768s75.758,2.432,75.922,4.279c0.172,1.844-0.164,3.018-0.164,3.018"/>
		</g>
		<path opacity="0.4" fill="none" stroke="#2A2B20" stroke-width="0.9702" stroke-miterlimit="10" d="M93.188,93.544
			c0,0-0.84,26.336,2.025,27.011c2.874,0.677,16.546,1.351,17.559-0.507c1.013-1.856,1.689-27.349-0.336-27.687
			C110.691,92.07,93.246,93.194,93.188,93.544z"/>
		<path opacity="0.4" fill="none" stroke="#2A2B20" stroke-width="0.9702" stroke-miterlimit="10" d="M92.684,129.334
			c0,0-0.677,20.597,1.353,21.948c2.025,1.351,16.374,0.672,18.231-0.845c0-0.003,3.546-21.741,0.168-22.116
			C110.914,128.151,92.007,125.449,92.684,129.334z"/>
		<path opacity="0.4" fill="none" stroke="#2A2B20" stroke-width="0.9702" stroke-miterlimit="10" d="M130.417,128.408
			c-0.104,1.673-1.249,21.827,0.336,22.622c1.689,0.844,18.74,1.519,19.753,0.844c1.012-0.676-0.677-26-2.87-26.338
			C145.442,125.197,130.244,124.02,130.417,128.408z"/>
		<polygon fill="#2A2B20" points="93.741,155.611 98.128,155.445 96.443,156.29 		"/>
		<polygon fill="#2A2B20" points="106.741,155.611 111.128,155.445 109.443,156.29 		"/>
		<polygon fill="#2A2B20" points="119.401,155.611 123.787,155.445 122.103,156.29 		"/>
		<polygon fill="#2A2B20" points="132.737,155.611 137.128,155.445 135.439,156.29 		"/>
		<polygon fill="#2A2B20" points="144.725,155.611 149.111,155.445 147.422,156.29 		"/>
		<g>
			<path fill="#EA5A49" d="M93.01,107.679c0,0,0.077,16.558,2.039,18.14c1.962,1.585,10.521,3.172,13.613-0.451
				c3.092-3.622,2.679-17.5,2.679-17.5S96.144,106.926,93.01,107.679z"/>
			<path fill="#DB473A" d="M111.945,107.793c0,0,0.227,5.469-0.413,5.58c-0.646,0.116-12.601,2.682-18.821,0.041
				c0,0-0.831-5.169,0-5.923c0.83-0.756,0.83-0.756,0.83-0.756L111.945,107.793z"/>
			<path fill="none" stroke="#2A2B20" stroke-width="0.9702" stroke-miterlimit="10" d="M111.078,118.466
				c0.149-0.038,1.167,1.66-0.191,2c-1.357,0.339-20.215,2.94-17.727-1.585"/>
			<g>
				
					<path fill="#39AE72" stroke="#39AE72" stroke-width="0.9702" stroke-linecap="round" stroke-linejoin="round" stroke-miterlimit="10" d="
					M93.995,109.394c0.005,0.022,0.005,0.045,0.01,0.066l0.022-0.043c-0.009-0.016-0.019-0.029-0.027-0.045
					C93.995,109.373,93.995,109.384,93.995,109.394z"/>
				
					<path fill="#39AE72" stroke="#39AE72" stroke-width="0.9702" stroke-linecap="round" stroke-linejoin="round" stroke-miterlimit="10" d="
					M115.669,108.067c-0.219-0.52,0.168-0.847-0.473-1.212c-0.354-0.202-0.963-0.172-1.357-0.163
					c0.276-0.064,0.481-0.37,0.422-0.654c-0.091-0.457-1.398-0.72-1.83-0.708c1.149-0.361,0.622-1.197-0.077-1.499
					c0.646-0.152,1.072-0.486,1.086-1.049c0.004-0.329-0.109-0.47,0-0.888c0.104-0.404,0.408-0.879,0.05-1.253
					c-0.305-0.318-0.69-0.061-1.021-0.184c-0.327-0.123-0.219-0.211-0.445-0.411c-0.563-0.493-0.968-0.322-1.775-0.338
					c0.195-0.567-1.571-1.049-2.089-1.115c0.118,0.068,0.163,0.146,0.245,0.216c-0.677,0.043-1.018-0.654-1.693-0.536
					c-0.514,0.091-0.899,0.518-1.062,0.983c0.014-0.738-1.381-0.692-1.844-0.595c-1.004,0.214-1.698,0.579-1.862,1.571
					c-0.141,0.897-0.662,0.835-1.23,0.027c0.255,0.956-1.221,0.111-1.484-0.029c-0.281-0.155-0.15-0.341-0.477-0.312
					c-0.396,0.034-0.836,0.908-0.963,1.204c-0.086-0.359-0.05-0.892-0.44-1.11c-0.581-0.327-1.58,0.447-2.021,0.743
					c-1.117,0.745-1.371,1.31-1.78,2.486c-0.613-0.947-1.026,0.041-1.476,0.373c-0.554,0.415-0.754-0.184-1.304,0.358
					c-0.172,0.168-0.285,0.545-0.49,0.656c-0.223,0.118-0.449-0.032-0.535,0c-0.932,0.332-1.321,1.478-1.29,2.375
					c-0.259-0.014-0.281,0.19-0.413,0.424c-0.386,0.688-0.436,1.335-0.963,1.937c-0.463,0.524-0.758,0.956-0.454,1.699
					c0.096,0.233,0.396,0.391,0.454,0.615c0.118,0.451-0.399,0.586-0.586,1.064c-0.259,0.684,0.055,1.203,0.646,1.614
					c-0.736,0.708-1.263,1.616,0.027,2.191c-0.005-0.068,0.009-0.146,0.004-0.221c0.087,0.84,1.317,0.84,1.062,0.103
					c0.877,0.054,1.335-1.069,0.581-1.617c0.264-0.41,0.699-0.808,0.627-1.359c-0.041-0.318-0.309-0.404-0.404-0.72
					c-0.146-0.475,0.191-0.425,0.25-0.795c0.036-0.206-0.173-0.436-0.123-0.663c0.091-0.367,0.437-0.32,0.563-0.562
					c0.19-0.364-0.209-0.779,0.127-1.108c-0.613-0.054,1.035-2.813,2.121-2.625c0.74,0.127,0.077,0.25,0.004,0.322
					c-0.391,0.418-1.943,4.055-0.317,3.51c-0.173,0.257-0.313,0.502-0.423,0.795c-0.345,0.955,0.087,1.039,0.404,1.779
					c0.281,0.659,0.164,1.333,0.759,1.914c-0.514,0.286-0.618,1.308,0.05,1.476c-0.187,0.43-1.108,2.053-0.05,2.104
					c-0.895,0.148-0.291,2.364,0.663,1.686c-0.35,0.434-1.227,1.396-0.45,1.736c0.69,0.302,0.735-0.425,0.45-0.874
					c0.713,0.631,1.244,0.677,1.611-0.274c0.141-0.356,0.255-0.838,0.264-1.215c0.005-0.245-0.141-0.43-0.077-0.677
					c0.082-0.32,0.44-0.516,0.481-0.881c0.059-0.502-0.296-0.497-0.399-0.815c-0.06-0.175,0.077-0.259,0.072-0.487
					c-0.005-0.531-0.286-1.249-0.286-1.581c0-0.165,0.159-0.429,0.149-0.669c-0.009-0.15-0.19-0.339-0.163-0.478
					c0.118-0.679,0.759-0.61,0.022-1.321c-0.331-0.317-0.581-0.274-0.449-0.73c0.109-0.382,0.6-0.44,0.581-0.947
					c-0.022-0.684-0.69-1.18-0.862-1.893l-0.01,0.029c0.01-0.043,0-0.073,0-0.095c-0.014-0.07-0.026-0.143-0.031-0.22
					c-0.027-0.981,0.377-1.687,1.198-2.211l-1.135,2.454c0.2,0.336,0.399,0.661,0.672,0.123c0.526,0.47,0.89,0.52,1.181-0.063
					c0.132,0.227,0.622,0.397,0.836,0.434c0.54,0.089,1.021-0.068,1.308-0.49c-0.055,0.545,0.549,1.24,0.885,1.029
					c-0.072,0.422,0.051,0.842,0.459,1.126c0.781,0.542,0.89-0.062,1.376-0.468c0.082,0.213,0.113,0.896,0.449,0.917
					c0.359,0.019,0.522-0.815,0.94-0.872c-0.027,1.233,0.98-0.312,0.994-0.874c0.826,0.872,1.448-0.164,1.662-0.897
					c0.213-0.722,0.163-1.476,0.963-1.814c-0.486,0.309-0.4,2.445,0.231,2.724c0.014,0.461-0.046,0.867,0.209,1.273
					c0.026-0.033,0.095-0.095,0.131-0.143c-0.299,0.59-0.558,2.795,0.6,2.649c0.014,0.259,0.645,2.329,1.099,2.003
					c-0.585,0.604,0.209,2.002,0.918,2.029c0.059-0.268,0.091-0.547,0.172-0.804c0.296,0.436,1.254,1.726,1.775,1.616
					c0.363-0.074,0.432-0.521,0.245-0.797c0.522,0,0.804,0.193,1.213,0.438c0.386-0.725,1.018-1.912,0.886-2.772
					c-0.06-0.363-0.31-0.715-0.387-1.128c-0.054-0.274-0.054-0.593-0.218-0.831c-0.068-0.096-0.254,0.041-0.276,0.012
					c-0.132-0.195-0.091-0.356-0.173-0.586c-0.228-0.638-0.654-0.475-0.89-0.931c-0.259-0.491,0.145-0.979-0.337-1.494
					c-0.309-0.332-0.857-0.563-1.312-0.568c1.525-0.933-1.021-1.832-1.517-2.343c-0.478-0.486-0.236-0.89-0.432-1.396
					c0.163,0.016,0.331,0.039,0.445,0.139c0.24,0.213,0.095,0.649,0.276,0.888c0.137,0.184,0.286,0.109,0.409,0.234
					c0.317,0.325,0.677,0.91,1.071,1.124c0.531,0.286,0.518-0.011,1.008-0.333c0.522,0.418,0.908,1.528,1.599,1.689
					c0.268,0.064,0.74-0.098,0.477-0.381c0.977,0.266,3.129,1.991,3.229-0.223c-0.022,0.012-0.036,0.032-0.041,0.055
					C116.913,108.604,115.995,108.878,115.669,108.067z"/>
			</g>
		</g>
		
			<path fill="#39AE72" stroke="#39AE72" stroke-width="0.9702" stroke-linecap="round" stroke-linejoin="round" stroke-miterlimit="10" d="
			M150.092,116.231c-0.753,0.012-1.812-0.3-1.779-1.155c0.022-0.581,0.49-1.521,0.999-1.841c0.735-0.466,2.12-0.677,1.92-1.819
			c0.169,0.975,0.795,1.859,0.822,2.863C152.081,115.285,151.114,116.216,150.092,116.231z"/>
		<path opacity="0.4" fill="none" stroke="#2A2B20" stroke-width="0.9702" stroke-miterlimit="10" d="M129.06,96.768
			c0.059,0.842-1.689,24.311,0.336,24.817c2.025,0.507,16.883,0.507,17.896-0.338c1.012-0.845,2.533-24.985,0.168-25.83
			C144.971,94.527,129.014,96.175,129.06,96.768z"/>
		<path fill="#EA5A49" d="M148.834,119.211c0,0-1.521,12.489-4.223,12.661c-2.701,0.171-10.803,0.509-11.143-3.546
			c-0.336-4.053-1.689-10.803-1.689-10.803S147.481,119.717,148.834,119.211z"/>
		<path fill="none" d="M147.44,109.507c0.195-0.715-1.335-0.899-1.78-0.856c-0.976,0.096-1.812,1.067-1.848,2.048
			c-0.019,0.492,0.849,1.894,1.439,1.26"/>
		<path fill="#E9BB43" d="M145.783,104.662c-0.763-0.679-2.584-1.367-3.528-0.679c-0.113,0.079-0.281,0.317-0.391,0.57
			c-0.631-1.294-2.579-1.387-3.851-0.792c-1.253,0.585-2.811,2.454-2.783,3.887c0.022,1.299,1.671,1.278,2.524,0.758
			c-0.636,0.511-0.854,1.462-0.363,2.114c0.5,0.661,3.097,2.229,3.328,0.742c0.164,1.104,2.075,0.772,2.815,0.325
			c0.459-0.279,0.917-0.817,1.176-1.285c0.128-0.232,0.241-0.72,0.159-1.083c0.722,0.325,1.681,0.118,2.257-0.418
			C148.431,107.593,146.769,105.541,145.783,104.662z"/>
		<g>
			<path fill="none" stroke="#2A2B20" stroke-width="0.9702" stroke-miterlimit="10" d="M131.788,120.822
				c-0.468,0.039-0.857,0.25-1.021,0.709c-0.35,0.96,0.654,1.555,1.398,1.861c3.033,1.263,6.557,1.451,9.785,1.405
				c1.59-0.021,3.188-0.091,4.75-0.406c0.699-0.144,1.603-0.271,2.171-0.747c0.431-0.365,0.681-1.642-0.223-1.426"/>
		</g>
		<path fill="#E9BB43" d="M145.588,113.148c0.363-0.225,0.363-1.001,0.322-1.437c-0.146-1.531-0.949-2.43-2.116-2.482
			c-0.817-0.036-1.648,0.529-1.889,1.567c-0.85-1.474-2.647,0.379-3.006,1.527c-0.322,1.035,0.454,2.13,1.185,1.256
			c-0.363,0.583-0.626,0.597-0.449,1.433c0.163,0.765,0.228,1.273,0.809,1.646c0.908,0.586,2.252,0.084,2.397-1.414
			c0.649,1.426,1.916,1.304,2.738,0.106C145.847,114.96,145.924,113.646,145.588,113.148z"/>
		
			<path fill="#39AE72" stroke="#39AE72" stroke-width="0.9702" stroke-linecap="round" stroke-linejoin="round" stroke-miterlimit="10" d="
			M142.949,100.791c0.437,0.597-0.944,1.605-1.248,1.914c-0.504,0.515-0.927,1.916,0.127,1.945c0.449,0.012,2.352-0.544,2.497-1.051
			C144.529,102.894,143.381,101.386,142.949,100.791z"/>
		
			<path fill="#39AE72" stroke="#39AE72" stroke-width="0.9702" stroke-linecap="round" stroke-linejoin="round" stroke-miterlimit="10" d="
			M148.68,108.104c-0.749,0.011-1.807-0.3-1.771-1.153c0.019-0.583,0.49-1.523,0.994-1.844c0.735-0.465,2.121-0.679,1.921-1.818
			c0.173,0.974,0.795,1.859,0.822,2.86C150.669,107.157,149.706,108.09,148.68,108.104z"/>
		
			<path fill="#39AE72" stroke="#39AE72" stroke-width="0.9702" stroke-linecap="round" stroke-linejoin="round" stroke-miterlimit="10" d="
			M137.628,102.031c0.581,0.797,0.59,1.836-0.113,2.529c-0.445,0.436-1.489,1.09-2.13,0.711c-0.922-0.547-0.903-2.836-0.286-3.592
			c0.354-0.44,1.013-1.06,0.54-1.589C135.889,100.841,137.142,101.365,137.628,102.031z"/>
		
			<path fill="#39AE72" stroke="#39AE72" stroke-width="0.9702" stroke-linecap="round" stroke-linejoin="round" stroke-miterlimit="10" d="
			M152.962,114.459c-0.354-0.774-0.749-1.335-1.64-1.319c-0.985,0.019-2.715,1.162-1.308,2.159c1.321,0.933,3.393,0.781,4.659-0.103
			C153.915,115.726,153.271,115.135,152.962,114.459z"/>
		<path fill="#DB473A" d="M131.443,111.614c0.54,0.403,5.571,2.531,10.299,2.531c4.727,0,4.727,0,4.727,0l3.714-1.349
			c0,0,1.181,6.584-0.172,7.258c-1.349,0.677-11.307,1.218-18.74-1.688C130.218,117.953,130.09,110.599,131.443,111.614z"/>
		<path fill="#E9BB43" d="M150.224,115.455c-0.463-1.119-1.512-1.51-2.643-1.201c0.082-0.561-1.371-0.494-2.497-0.259
			c-0.25-0.227-0.604-0.329-0.972-0.399c-1.535-0.286-2.425,0.983-2.884,2.354c-0.459,1.36,0.159,2.171,1.566,2.411
			c0.958,0.164,1.871-0.115,2.339-0.956c0.136,1.072,1.067,1.424,2.057,1.554c0.641,0.084,1.271,0.108,1.526-0.562
			c0.113-0.309,0.141-0.987-0.055-1.194c0.295,0.346,0.972,0.144,1.299-0.067C150.633,116.704,150.496,116.096,150.224,115.455z"/>
		<path fill="#E9BB43" d="M151.908,111.486c0.464-0.227,0.464-1.003,0.409-1.439c-0.182-1.533-1.222-2.429-2.72-2.481
			c-1.054-0.037-2.116,0.529-2.435,1.569c-1.085-1.474-3.405,0.379-3.864,1.527c-0.413,1.033,0.586,2.13,1.526,1.252
			c-0.464,0.585-0.804,0.599-0.577,1.437c0.209,0.763,0.291,1.273,1.035,1.646c1.177,0.583,2.902,0.081,3.093-1.417
			c0.835,1.428,2.456,1.306,3.515,0.106C152.24,113.294,152.331,111.981,151.908,111.486z"/>
		<path fill="#E62B4A" d="M148.249,111.991c0.753,0.05,2.307-0.445,1.28-1.302c-0.718-0.601-2.248-0.967-2.856,0.007
			C145.979,111.798,147.572,111.945,148.249,111.991z"/>
		<path fill="#E62B4A" d="M141.129,107.575c0.672,0.043,2.389,0.096,1.676-1.078c-0.563-0.915-2.616-1.026-3.302-0.241
			C138.735,107.125,140.516,107.536,141.129,107.575z"/>
		<path fill="#E9BB43" d="M137.337,108.233c0.636-0.377,0.786-1.317,0.445-2.002c-0.382-0.781-1.189-0.931-1.993-0.922l0.186-0.011
			c-1.63-2.03-6.034-1.04-6.639,1.455c-0.285,1.163,0.932,2.239,2.053,2.184c-0.89,0.559-1.703,1.742-1.162,2.58
			c0.694,1.08,2.002,0.149,2.574-0.507c-0.509,0.543-0.399,1.506,0.245,1.862c0.786,0.438,2.466-0.226,2.666-1.201
			c0.077,0.735,0.78,0.908,1.575,0.665c0.98-0.3,1.435-0.809,1.508-1.758C138.845,109.943,138.5,107.548,137.337,108.233z"/>
		<path fill="#E62B4A" d="M135.734,107.205c-0.663-0.588-2.152,0.064-2.334,0.815c-0.277,1.135,1.585,1.017,2.216,0.699
			C136.725,108.158,136.452,107.42,135.734,107.205z"/>
		<path fill="#E62B4A" d="M142.745,113.655c0.586,0.048,1.794-0.445,0.994-1.301c-0.554-0.603-1.743-0.968-2.22,0.007
			C140.983,113.46,142.223,113.609,142.745,113.655z"/>
		
			<path fill="#39AE72" stroke="#39AE72" stroke-width="0.9702" stroke-linecap="round" stroke-linejoin="round" stroke-miterlimit="10" d="
			M129.068,113.258c0.572-0.463,1.653,0.865,1.976,1.153c0.545,0.475,1.966,0.824,1.935-0.229c-0.01-0.449-0.663-2.322-1.177-2.44
			C131.085,111.575,129.636,112.799,129.068,113.258z"/>
		<path fill="#E9BB43" d="M139.467,112.854c0.463-0.227,0.463-1.001,0.408-1.438c-0.181-1.532-1.221-2.429-2.72-2.483
			c-1.053-0.036-2.115,0.531-2.434,1.568c-1.085-1.473-3.401,0.38-3.864,1.53c-0.413,1.033,0.586,2.128,1.525,1.251
			c-0.463,0.584-0.804,0.598-0.576,1.436c0.209,0.765,0.291,1.273,1.04,1.646c1.171,0.584,2.896,0.084,3.088-1.414
			c0.835,1.428,2.456,1.303,3.519,0.104C139.798,114.663,139.889,113.351,139.467,112.854z"/>
		<path fill="#E62B4A" d="M135.807,113.357c0.754,0.05,2.307-0.442,1.281-1.301c-0.713-0.6-2.248-0.965-2.856,0.009
			C133.536,113.167,135.131,113.314,135.807,113.357z"/>
		<g>
			<path fill="#EA5A49" d="M126.244,148.044c0,0,2.938,12.628,4.764,13.262c1.825,0.636,11.751-0.241,11.751-0.241
				c0.396-11.254,0.309-11.263,0.718-13.021C143.953,145.98,137.201,150.108,126.244,148.044z"/>
			<path fill="#DB473A" d="M124.705,144.15c0,0.252,0.59,4.445,1.262,5.036c0.668,0.586,6.121,1.258,9.731,0.922
				c3.605-0.336,7.715-1.844,7.715-1.844l0.254-4.363c0,0-4.114,1.257-9.146,0.921C129.486,144.486,124.705,144.15,124.705,144.15z"
				/>
			<path fill="#B53733" d="M143.499,144.321c0,0-4.868-1.849-11.91-1.429c-7.053,0.42-6.884,1.258-6.884,1.258
				S135.53,147.173,143.499,144.321z"/>
			<g>
				<path fill="none" stroke="#2A2B20" stroke-width="0.9702" stroke-miterlimit="10" d="M126.721,151.341
					c-0.468,0.041-0.858,0.25-1.026,0.708c-0.35,0.961,0.659,1.556,1.403,1.862c3.033,1.262,6.557,1.45,9.785,1.41
					c1.59-0.023,3.188-0.096,4.75-0.411c0.699-0.139,1.603-0.271,2.166-0.745c0.436-0.363,0.686-1.642-0.223-1.428"/>
			</g>
			
				<path fill="#39AE72" stroke="#39AE72" stroke-width="0.9702" stroke-linecap="round" stroke-linejoin="round" stroke-miterlimit="10" d="
				M156.794,157.239c-0.127-1.467-0.326-3.717-2.206-3.857c-0.481-3.203,0.713-7.898-3.429-8.793
				c0.113-1.921,0.036-4.305-2.552-3.546c-0.228-1.311-1.021-2.525-2.452-2.099c0.3-1.43-4.75-1.023-4.79,0.271
				c-0.522-1.239-3.134,1.099-3.533,1.986c-1.644-1.23-2.961-2.079-5.208-2.104c-0.931-0.012-1.653,0.271-2.325,0.617
				c-0.281-0.018-0.559-0.026-0.845-0.018c-1.453,0.052-4.586,0.881-5.667,1.925c-0.976,0.94-1.248,3.365-0.281,4.385
				c-1.88,0.204-1.607,3.478-1.757,4.731c-0.15,1.308-0.704,2.483-0.572,3.794c0.104,1.073,0.172,1.107-0.118,1.904
				c-0.281,0.77-0.595,1.301-0.591,2.207c0.005,0.915,0.649,1.564,0.736,2.277c0.122,1.046-1.018,3.687,1.039,4.281
				c-1.185-0.583-0.458,3.574,0.74,4.2c0.522-1.362,2.466-6.686-0.508-5.948c1.412-0.324,1.14-1.512,1.044-2.552
				c-0.027-0.32-0.245-1.282-0.228-1.4c0.219-1.281,1.24-1.967-0.499-3.136c1.566-0.615,2.147-2.225,0.454-3.176
				c1.058-0.404,1.107-1.561,0.327-2.323c0.771-0.629,0.477-1.351,0.939-1.95c1.095-1.438,2.421-0.987,1.412-3.566
				c1.59-0.411,0.973-1.637,1.871-2.32c0.727-0.548,2.834-0.893,3.705-1.097c0.005,0,0.005,0,0.005,0l1.054,0.307
				c-0.427,0.19-0.863,0.497-1.136,0.742c-1.575,1.419-2.279,4.432-1.153,6.221c-1.121,0.682-1.167,1.978-0.218,2.84
				c-2.084,1.517-1.04,2.807-0.617,4.822c0.431,2.078-1.844,3.233-1.395,5.785c0.209,1.145,0.373,1.349,0.35,2.377
				c-0.018,1.186-0.204,2.649,1.172,3.211c-1.076-0.147-0.022,2.504-0.055,3.03c-0.077,1.192-0.972,1.696-0.345,3.031
				c0.086,0.184,0.613,0.62,0.754,0.826c0.403,0.604,0.131,1.314,1.13,1.51c1.1,0.214,2.389-1.573,1.181-2.009
				c0.25-0.901,0.813-2.269-0.504-2.391c1.086-0.111,1.998-5.393,0.504-5.773c0.232-0.384,0.932-0.922,0.949-1.401
				c0.027-0.781-0.967-1.191-0.958-1.877c0.014-0.97,0.999-1.76,0.85-3.022c-0.087-0.781-0.277-1.721-0.663-2.396
				c1.621-1.087,0.663-1.577,0.854-2.999c0.118-0.903,0.713-1.616,0.795-2.613c0.072-0.833-0.005-1.688,0.408-2.44
				c-1.652-1.889,2.92-5.712,0.944-6.323c2.915-0.672,3.81,8.201,3.787,10.158c0.072-0.139,0.06-0.19,0.159-0.339
				c0.713,0.822,0.218,3.272,0.381,4.394c0.205,1.367,0.649,2.692,0.219,4.071c1.176-0.416,1.398,2.509,1.412,3.346
				c0.009,1.163-0.468,1.742-1.081,2.697c0.822,1.045-0.872,3.669,0.89,3.969c3.324,0.567,3.074-7.887,1.722-7.227
				c1.716-0.29,1.421-4.881,0.149-5.224c1.539-1.412,0.386-2.729,0.2-4.269c-0.168-1.385,0.463-2.867-0.586-4.101
				c1.685-1.178,0.055-2.211-1.186-2.749c0.327-0.749,0.713-1.594-0.036-2.284c0.89-0.974,0.972-2.704-0.55-3.031
				c1.412-0.065,3.256,1.408,3.951,2.565c1.467,2.432-1.244,6.772,2.497,7.643c-1.417,1.282-0.545,2.643-0.518,4.264
				c0.014,0.636-0.24,1.138-0.1,1.771c0.122,0.552,0.681,0.768,0.689,1.247c0.027,0.86-0.826,1.514-0.794,2.533
				c0.054,1.642,1.253,1.578,1.721,2.738c0.445,1.108-0.35,3.347-0.209,4.693c0.109,1.069-0.113,2.088-0.136,3.246
				c-0.01,0.514,0.317,1.369,0.249,1.798c-0.127,0.807-0.903,1.571-0.98,2.536c-0.104,1.362,0.05,5.703,1.889,5.422
				c-0.104,0.675-1.14,1.26-1.112,1.853c0-0.05,1.476,2.062,1.498,2.073c1.672,0.865,2.094-1.739,1.576-2.784
				c1.104-0.172,0.368-1.426,0.268-2.022c-0.281-1.741,0.032-4.336-0.862-6.099c-0.005,0.007-0.168,0.232-0.173,0.232
				c0.812-2.107,0.554-4.469,0.89-6.669c0.169-1.094,0.718-3.482-0.79-3.978c-0.036-1.419-0.499-3.568-0.263-4.899
				c0.227-1.319,2.583-4.12-0.164-4.831c2.397-1.215,0.164-6.103-0.59-7.881c-0.518-1.23-1.131-1.462-1.962-2.284
				c-0.454-0.449,0.309-1.368-1.035-1.062c0.522-2.293-4.191-3.478-3.642-4.815c0.608-1.479,4.082,0.003,4.723,0.611
				c1.321,1.248,1.126,3.333,2.406,4.522c0-0.016,0.005-0.029,0.009-0.046c-0.141,0.884,0.173,1.444,0.731,2.232
				c0.641,0.905,1.076,1.294,1.39,2.595c0.182,0.768,0.286,3.835,1.648,2.545c0,0.867-1.013,4.827,0.926,4.718
				c-1.117,0.282-1.026,2.827,0.241,3.247c-0.491,1.28,1.14,2.384,1.889,1.312C157.316,161.018,156.871,158.129,156.794,157.239z"/>
		</g>
		
			<path fill="#39AE72" stroke="#39AE72" stroke-width="1.0404" stroke-linecap="round" stroke-linejoin="round" stroke-miterlimit="10" d="
			M113.162,153.455c1.289,2.106,0.295,4.036,0,6.134c1.457-0.386,2.896-3.728,2.874-5.061c-0.041-1.914-1.861-3.033-2.356-4.725
			c-0.404-1.383,1.058-2.396,0.972-3.751c-0.146-2.236-2.511,0.652-2.716,1.521C111.396,149.812,112.018,151.579,113.162,153.455z"
			/>
		
			<path fill="#39AE72" stroke="#39AE72" stroke-width="1.0404" stroke-linecap="round" stroke-linejoin="round" stroke-miterlimit="10" d="
			M92.434,156.643c-0.436-2.039,1.203-3.438,1.23-5.35c0.027-1.553-1.648-3.767-0.159-5.104c0.895,1.396,1.381,3.424,1.712,5.054
			c0.295,1.441,0.231,2.666-0.413,3.996c-0.886,1.805-0.617,2.812,0.468,4.522c0.305,0.479,0.672,0.96,0.858,1.467
			C94.559,160.847,92.761,158.159,92.434,156.643z"/>
		
			<path fill="#39AE72" stroke="#39AE72" stroke-width="1.0404" stroke-linecap="round" stroke-linejoin="round" stroke-miterlimit="10" d="
			M87.353,143.753c1.585-0.483,2.896-1.287,4.209-2.25c0.54-0.396,1.657-0.84,1.489-1.721c-0.19-0.98-1.707-0.885-2.375-0.531
			C89.06,140.121,88.974,142.841,87.353,143.753z"/>
		<path fill="#EA5A49" d="M111.741,147.247c0,0-1.312,13.435-2.802,13.836c-1.485,0.397-9.604,1.024-10.689-0.744
			c-1.08-1.771-4.168-13.718-4.567-16.408c0,0,12.282,3.09,18.517,0.345L111.741,147.247z"/>
		<path fill="#DB473A" d="M93.11,141.744c0,0-0.173,4.804,1.198,5.201c1.371,0.402,11.262,2.856,18.004,0.229l0.514-4.972
			c0,0-5.141,1.884-12.919,0.629C92.139,141.574,93.11,141.744,93.11,141.744z"/>
		<g>
			<path fill="none" stroke="#2A2B20" stroke-width="0.6892" stroke-miterlimit="10" d="M95.395,151.663
				c0,0-1.386,1.653,0.163,2.023c1.544,0.377,15.293,0.694,15.884-0.478c0.585-1.174-1.122-1.866-1.067-1.707"/>
		</g>
		<g>
			<path fill="#CF2B86" d="M113.321,142.784c-0.841-0.134-1.612,0.42-1.844,1.203l0.086,0.377c-0.195-0.822-0.908-0.947-1.517-0.427
				c-0.549,0.475-0.608,1.232-0.472,1.907c0.118,0.574,0.145,0.778,0.785,0.854c0.382,0.041,0.908-0.068,1.021-0.434
				c-0.562,1.68,2.003,1.58,1.803,0.054c-0.072,1.746,3.151-0.278,1.271-1.044C115.596,144.861,114.079,142.906,113.321,142.784z"/>
			<path fill="#CF2B86" d="M101.061,144.514c1.321-1.215-0.604-2.163-1.349-1.062c-0.531-0.463-1.407-0.694-1.984-0.485
				c-1.87,0.674-1.466,3.001,0.596,2.556c-2.053,1.09,1.466,3.184,1.671,1.338c0.663,1.564,3.256-0.073,3.074-1.398
				C102.954,144.659,101.715,143.662,101.061,144.514z"/>
			<path fill="#CF2B86" d="M95.085,144.825c1.222-0.938-1.757-1.9-2.283-2.116c-1.222-0.506-2.893-0.436-3.021,1.28
				c-0.117,1.612,2.443,1.013,2.298,1.097c-1.435,1.587,0.891,3.088,1.59,1.587c0.213,0.845,1.308,0.49,1.757,0.057
				C95.984,146.205,95.889,144.21,95.085,144.825z"/>
			<path fill="#CF2B86" d="M95.989,140.848c0.427-0.38-0.027-0.893-0.44-1.102c-0.396-0.2-0.632-0.154-0.968-0.079
				c-0.395-0.023-2.643,0.266-2.547,2.404c0.063,1.392,0.699,1.675,1.825,1.13c-0.658,1.04,2.348,1.072,2.225-0.619
				C97.061,143.165,97.741,140.495,95.989,140.848z"/>
			<path fill="#CF2B86" d="M111.6,142.219c0.005,0.987-0.631,1.796-1.702,1.607c-1.04-0.185-1.222-2.082-0.3-2.457
				c-1.304-0.036-0.858-1.387-0.15-1.894c0.999-0.715,3.247-0.147,4.069,0.668c0.494,0.488,0.567,1.355,0.168,1.938
				C113.162,142.841,112.304,142.618,111.6,142.219z"/>
			<path fill="#CF2B86" d="M105.665,142.171c-0.404-0.456-1.03-0.302-1.553-0.106c0.74-0.951-0.608-1.732-1.58-1.39
				c-0.831,0.29-2.152,2.677-0.735,2.396c-0.85,0.038-1.163,1.308-0.387,1.688c0.486,0.238,1.059-0.088,1.508-0.268
				c-1.448,0.838,0.708,1.762,1.644,1.27c0.581-0.303,1.657-1.683,0.686-1.994C105.924,143.816,106.056,142.618,105.665,142.171z"/>
			<path fill="#CF2B86" d="M100.484,140.652c0.812-1.004-1.926-2.191-1.853-0.793c-0.032-1.196-1.907-0.424-2.198,0.325
				c-0.122,0.32-0.108,1.189,0.277,1.265c-2.039,0.461,0.758,4.168,1.48,1.191c0.562,1.458,3.205,0.514,2.389-0.42
				C101.801,143.134,101.293,140.073,100.484,140.652z"/>
			<path fill="#CF2B86" d="M98.363,137.162c0.101-0.513-0.521-0.888-0.935-0.626c-0.137-0.089-0.3-0.175-0.45-0.248
				c-0.009-0.016-0.027-0.031-0.041-0.055c-0.026,0.005-0.031,0.012-0.045,0.019c-0.132-0.062-0.241-0.103-0.295-0.118
				c-0.85-0.259-1.617-0.209-2.152,0.577c-0.041,0.059,0.268,1.752,0.381,1.759c-1.467,0.475-0.962,2.606,0.522,1.857
				c-0.177,1.042,1.235,0.697,1.316-0.159c0.568,1.038,1.712-0.396,1.439-1.198C98.981,139.11,98.995,137.491,98.363,137.162z"/>
			<g>
				<path fill="#CF2B86" d="M101.91,136.631c0.509-0.701-1.099-1.191-1.644-0.854c-0.068-0.495-0.373-0.985-0.831-1.174
					c-0.699-0.286-1.458,0.262-1.976,0.725c-0.653,0.583-1.217,2.005,0.096,2.202c-1.403,0.763,0.063,1.628,1.126,1.362
					c0.713-0.175,1.676-0.271,1.925-1.062c0.168,0.869,1.163,0.574,1.599,0.113C102.582,137.542,102.745,136.154,101.91,136.631z"/>
				<path fill="#CF2B86" d="M109.298,138.608c1.371-0.708-0.694-2.358-1.925-1.342c0.081-0.425,0.417-0.646,0.271-1.094
					c-0.149-0.454-1.226-0.915-1.688-0.858c-1.734,0.199-1.549,2.463-1.035,3.571l-0.132-0.209
					c-1.294,0.684,0.245,1.868,0.576,1.167c-1.544,2.147,4.496,1.748,3.215,0.139C109.779,140.142,110.628,138.643,109.298,138.608z
					"/>
				<path fill="#CF2B86" d="M105.079,138.216c0.286-2.029-3.646-2.404-3.042-0.152c-1.226-1.839-3.674,2.169-1.743,2.269
					c-0.817,0.159-1.059,1.328-0.373,1.813c0.795,0.568,1.853-0.108,1.998-0.924c0.586,1.052,2.234-0.32,2.058-1.164
					c0.794,0.674,1.879-0.354,1.421-1.233c0.022,0.005,0.122,0.084,0.141,0.098c0.608-0.893-0.927-1.796-1.621-1.242"/>
			</g>
			<path fill="#CF2B86" d="M109.38,140.109c-0.187-0.442-0.854-0.483-1.263-0.236c-1.131-0.095-2.456,0.897-2.87,1.876
				c-0.403,0.969,0.195,1.906,1.271,1.482c-1.907,1.039,1.227,3.421,1.34,1.133c0.077,0.458,0.699,0.374,1.049,0.084
				c0.531-0.438,0.55-1.526,0.195-2.077C110.523,143.268,110.646,140.08,109.38,140.109z"/>
			<path fill="#2A2B20" d="M103.223,137.469c-0.591-0.374-1.153,0.656-0.627,1.011C103.186,138.877,103.808,137.844,103.223,137.469
				z"/>
			<path fill="#2A2B20" d="M107.214,136.867c-0.591-0.379-1.153,0.651-0.622,1.011C107.178,138.271,107.8,137.242,107.214,136.867z"
				/>
			<path fill="#2A2B20" d="M103.513,142.543c-0.595-0.374-1.153,0.656-0.622,1.011C103.477,143.948,104.099,142.918,103.513,142.543
				z"/>
			<path fill="#2A2B20" d="M100.603,144.169c-0.591-0.377-1.149,0.651-0.622,1.01C100.57,145.572,101.192,144.543,100.603,144.169z"
				/>
			<path fill="#2A2B20" d="M94.331,143.681c-0.59-0.377-1.148,0.654-0.622,1.011C94.3,145.086,94.927,144.053,94.331,143.681z"/>
			<path fill="#2A2B20" d="M95.417,140.692c-0.591-0.374-1.153,0.654-0.622,1.009C95.381,142.096,96.007,141.065,95.417,140.692z"/>
			<path fill="#2A2B20" d="M99.163,140.94c-0.591-0.375-1.149,0.651-0.622,1.01C99.127,142.346,99.753,141.314,99.163,140.94z"/>
			<path fill="#2A2B20" d="M97.338,137.347c-0.591-0.375-1.153,0.653-0.627,1.013C97.301,138.752,97.928,137.721,97.338,137.347z"/>
			<path fill="#2A2B20" d="M99.645,134.926c-0.591-0.377-1.149,0.652-0.622,1.011C99.612,136.329,100.234,135.301,99.645,134.926z"
				/>
			<path fill="#2A2B20" d="M112.727,144.539c-0.591-0.375-1.153,0.656-0.627,1.01C112.689,145.944,113.312,144.913,112.727,144.539z
				"/>
			<path fill="#2A2B20" d="M110.533,140.579c-0.595-0.374-0.822,0.524-0.291,0.881C110.833,141.855,111.123,140.954,110.533,140.579
				z"/>
			<path fill="#2A2B20" d="M106.724,139.896c-0.591-0.374-0.813,0.522-0.286,0.882C107.027,141.17,107.313,140.271,106.724,139.896z
				"/>
		</g>
		<g>
			<g>
				<path fill="#EA5A49" d="M88.4,79.56c1.546-2.367,2.745-4.939,4.104-7.415c1.327-2.417,2.294-5.313,4.675-6.924
					c-0.561-0.076-1.122-0.152-1.683-0.228c-0.022,4.526-0.985,8.894,0.861,13.201c0.988,2.305,3.138,4.558,5.776,3.792
					c1.233-0.358,0.941-1.483-0.301-1.122c-2.458,0.713-4.16-5.165-4.417-6.416c-0.641-3.111,0.133-6.538,0.148-9.689
					c0.004-0.793-1.287-0.496-1.683-0.228c-4.72,3.193-6.401,10.332-9.41,14.939C85.918,80.314,88.004,80.166,88.4,79.56L88.4,79.56
					z"/>
			</g>
		</g>
		<g>
			<g>
				<path fill="#EA5A49" d="M99.519,73.109c0.312-0.648,0.806-1.113,1.479-1.396c-0.5-0.125-0.999-0.251-1.499-0.377
					c0.479,2.329-0.354,4.627-0.198,6.971c0.067,1.021,1.401,0.819,1.918,0.271c1.481-1.569,1.946-5.407,4.149-6.039
					c-0.411-0.159-0.821-0.318-1.232-0.477c0.652,1.85-0.64,4.622,1.175,6.046c1.422,1.115,3.199,0.724,3.848-0.997
					c0.433-1.146-1.637-1.2-1.982-0.283c-0.454-0.028-0.689-0.292-0.705-0.793c-0.169-0.544-0.058-1.269-0.026-1.831
					c0.053-0.933,0.064-1.806-0.249-2.693c-0.175-0.495-0.774-0.608-1.232-0.477c-3.362,0.964-3.389,4.646-5.488,6.87
					c0.639,0.09,1.279,0.181,1.918,0.271c-0.166-2.496,0.676-4.903,0.165-7.391c-0.134-0.651-1.063-0.566-1.499-0.377
					c-1.176,0.512-1.869,1.339-2.525,2.418C96.92,73.839,99.021,73.928,99.519,73.109L99.519,73.109z"/>
			</g>
		</g>
		<g>
			<g>
				<path fill="#EA5A49" d="M114.833,72.329c-1.718-3.702-8.659,4.243-4.222,5.267c2.087,0.482,3.631-1.226,4.282-2.951
					c0.804-2.131,0.777-4.422,1.381-6.588c-0.682,0.153-1.363,0.307-2.045,0.46c-0.173,2.699-1.709,6.522,0.799,8.585
					c1.32,1.085,4.354,1.248,4.884-0.77c0.109-0.417-1.897-0.137-2.03,0.369c-0.217,0.374-0.143,0.477,0.221,0.311
					c-0.408-0.092-0.793-0.371-1.132-0.605c-0.837-0.58-1.104-1.604-1.243-2.548c-0.287-1.941,0.438-3.962,0.562-5.894
					c0.021-0.32-1.922,0.02-2.045,0.46c-0.687,2.464-0.631,5.051-1.728,7.419c-0.114,0.245-0.259,0.471-0.409,0.694
					c-0.457,0.68-0.494,0.111-0.032,0.217c-0.693-0.16-0.767-0.913-0.732-1.486c0.043-0.723,0.439-1.449,0.804-2.054
					c0.174-0.288,0.387-0.543,0.616-0.787c0.333-0.255,0.229-0.269-0.308-0.041c0.147,0.139,0.252,0.303,0.317,0.493
					C113.001,73.373,114.988,72.664,114.833,72.329L114.833,72.329z"/>
			</g>
		</g>
		<g>
			<g>
				<path fill="#EA5A49" d="M125.948,71.298c-1.513-1.541-3.687-0.402-4.991,0.842c-0.957,0.914-3.009,3.843-1.583,5.149
					c2.301,2.109,6.78-4.552,7.462-6.001c0.282-0.599-1.751-0.375-2.057,0.269c-1.095,2.308-1.246,8.008,2.845,5.886
					c1.549-0.803,2.112-2.885,2.583-4.418c0.622-2.025,1.122-4.246,1.175-6.372c0.023-0.904-1.82-0.277-2.057,0.268
					c-1.087,2.505-2.408,10.069,1.308,11.052c0.632,0.167,2.424-0.787,1.268-1.093c-1.669-0.441-1.513-3.774-1.479-5.024
					c0.046-1.72,0.271-3.611,0.961-5.202c-0.686,0.089-1.371,0.179-2.057,0.268c-0.069,2.749-0.809,5.664-1.812,8.209
					c-0.222,0.562-0.508,1.152-0.93,1.596c-0.023,0.025-0.46-1.491-0.477-1.666c-0.114-1.22,0.207-2.668,0.729-3.771
					c-0.686,0.09-1.371,0.179-2.057,0.269c-0.744,1.581-2.073,3.051-3.329,4.235c-0.256,0.242-0.529,0.457-0.827,0.646
					c0.476,0.099,0.633-0.005,0.471-0.312c-0.039-0.3-0.032-0.6,0.021-0.897c0.078-0.743,1.75-4.321,2.917-3.132
					C124.526,72.597,126.477,71.836,125.948,71.298L125.948,71.298z"/>
			</g>
		</g>
		<g>
			<g>
				<path fill="#EA5A49" d="M132.681,71.981c-0.657,2.334-1.758,6.355,1.935,6.388c3.526,0.031,4.396-4.079,5.321-6.685
					c0.295-0.83-1.793-0.565-2.074,0.206c-0.97,2.664-1.021,7.561,3.021,6.693c1.28-0.274,0.929-1.498-0.328-1.228
					c-1.862,0.399-0.918-4.851-0.619-5.671c-0.691,0.069-1.383,0.137-2.074,0.206c-0.4,1.127-1.184,5.151-2.768,5.137
					c-2.08-0.018-0.63-4.221-0.34-5.252C135,70.904,132.905,71.182,132.681,71.981L132.681,71.981z"/>
			</g>
		</g>
		<g>
			<g>
				<path fill="#EA5A49" d="M148.059,71.897c-3.098-1.978-7.578,2.583-6.506,5.734c0.61,1.795,3.27,0.979,4.438,0.455
					c1.981-0.889,3.853-3.038,4.651-5.032c-0.676,0.125-1.352,0.251-2.027,0.377c-0.302,1.413-0.174,4.369,1.753,4.704
					c1.727,0.3,3.182-0.558,4.188-1.9c0.11-0.146-1.669-0.102-2.027,0.377c-1.558,2.076-2.086-2.623-1.887-3.558
					c0.093-0.434-1.852-0.063-2.027,0.377c-0.528,1.317-3.709,6.069-5.003,3.648c-0.681-1.275,1.01-5.446,2.501-4.494
					C146.596,72.893,148.296,72.049,148.059,71.897L148.059,71.897z"/>
			</g>
		</g>
		<g>
			<g>
				<path fill="#EA5A49" d="M151.186,70.076c0.61-0.207,1.201-0.457,1.779-0.742c0.204-0.1,0.688-0.474,0.232-0.613
					c-0.457-0.139-1.036,0.042-1.445,0.243c-0.426,0.209-0.859,0.381-1.309,0.534c-0.14,0.047-0.918,0.404-0.596,0.655
					C150.185,70.416,150.842,70.192,151.186,70.076L151.186,70.076z"/>
			</g>
		</g>
		<g>
			<g>
				<path fill="#EA5A49" d="M160.692,71.772c-1.813-0.41-3.612,0.627-4.957,1.758c-1.008,0.849-2.801,2.796-1.786,4.238
					c2.477,3.52,8.231-2.177,8.18-5.077c-0.018-0.992-1.697-0.627-2.016,0.008c-0.741,1.478-2.516,4.818-0.35,6.003
					c1.818,0.994,4.106,0.36,5.214-1.373c0.588-0.919-1.511-0.866-1.953-0.174c-0.599,0.937-1.713,0.715-2.103-0.222
					c-0.188-0.452-0.036-1.024,0.057-1.476c0.185-0.904,0.678-1.767,1.088-2.584c-0.672,0.002-1.344,0.005-2.016,0.008
					c0.021,1.235-2.683,5.589-4.068,4.21c-1.217-1.212,2.285-4.291,3.497-4.017C160.289,73.256,161.923,72.05,160.692,71.772
					L160.692,71.772z"/>
			</g>
		</g>
		<g>
			<g>
				<path fill="#EA5A49" d="M96.983,75.484c-1.793,0.115-3.583,0.063-5.378,0.067c-1.874,0.004-3.837,0.651-5.67,0.084
					c-0.888-0.274-2.432,1.008-1.188,1.393c1.503,0.465,2.937,0.37,4.483,0.188c2.514-0.295,5.049-0.057,7.572-0.219
					C97.966,76.923,98.389,75.395,96.983,75.484L96.983,75.484z"/>
			</g>
		</g>
	</g>
	<g opacity="0.2">
		<g>
			<path fill="#39AF72" d="M137.52,140.6c-3.639-0.097-5.263,2.183-6.254,5.506c-1.417,4.755-3.12,12.664-0.966,17.312
				c0.464-0.166,0.928-0.332,1.392-0.499c-0.215-0.191-0.388-0.232-0.676-0.327c-0.376-0.125-1.075,0.073-1.158,0.519
				c-0.518,2.748-0.89,7.161,0.481,9.724c0.27,0.503,1.666,0.012,1.334-0.609c-1.311-2.449-0.856-6.592-0.356-9.255
				c-0.386,0.173-0.772,0.346-1.158,0.519c0.066,0.014,0.133,0.026,0.199,0.04c0.321,0.287,1.666,0.094,1.392-0.499
				c-1.649-3.557-0.899-21.637,5.243-21.473C137.627,141.573,138.502,140.626,137.52,140.6L137.52,140.6z"/>
		</g>
	</g>
	<g opacity="0.2">
		<g>
			<path fill="#39AF72" d="M141.008,142.133c6.132,2.792,5.869,9.99,6.254,15.76c0.623,9.323,2.432,18.382,2.575,27.733
				c0.004,0.248,1.455,0.027,1.449-0.389c-0.149-9.688-2-19.108-2.645-28.773c-0.375-5.612-0.417-12.162-6.269-14.827
				C141.982,141.459,140.843,142.058,141.008,142.133L141.008,142.133z"/>
		</g>
	</g>
	<g opacity="0.2">
		<g>
			<path fill="#39AF72" d="M137.594,142.984c4.594,8.056,4.815,18.06,3.37,27.005c-0.1,0.615,1.367,0.373,1.453-0.162
				c1.474-9.119,1.19-19.234-3.483-27.429C138.676,141.946,137.271,142.418,137.594,142.984L137.594,142.984z"/>
		</g>
	</g>
	<g opacity="0.2">
		<g>
			<path fill="#39AF72" d="M131.921,139.926c-3.462,0.715-7.267,1.935-8.827,5.451c-1.261,2.844-1.697,5.954-2.143,9.01
				c-0.692,4.752,1.354,8.829,1.268,13.432c-0.011,0.579,1.418,0.272,1.446-0.189c0.016-0.252,0.007-0.479,0.001-0.737
				c-0.01-0.435-1.461-0.157-1.449,0.389c0,0.18,0.001,0.358,0.001,0.538c0.482-0.063,0.964-0.126,1.446-0.189
				c0.042-2.23-0.636-4.094-1.162-6.257c-0.801-3.296-0.199-6.954,0.379-10.242c1.028-5.847,2.932-9.211,9.225-10.511
				C132.993,140.437,132.788,139.746,131.921,139.926L131.921,139.926z"/>
		</g>
	</g>
	<g opacity="0.2">
		<g>
			<path fill="#39AF72" d="M142.513,138.762c4.656,1.323,5.564,3.792,7.582,7.878c2.52,5.101,5.205,8.426,5.12,14.37
				c0.438-0.166,0.876-0.332,1.313-0.498c-0.313-0.061-0.628-0.121-0.942-0.182c-0.369-0.071-1.643,0.518-1.178,0.607
				c0.313,0.061,0.628,0.121,0.942,0.182c0.318,0.062,1.307-0.028,1.313-0.498c0.091-6.369-3.082-10.244-5.786-15.719
				c-1.885-3.816-2.942-5.542-7.188-6.748C143.325,138.051,142.029,138.624,142.513,138.762L142.513,138.762z"/>
		</g>
	</g>
	<g opacity="0.2">
		<g>
			<path fill="#39AF72" d="M112.82,147.519c-1.275,1.227-1.361,2.446-0.706,4.07c0.346,0.856,0.854,1.648,1.231,2.493
				c0.569,1.275,0.204,2.666-0.112,3.95c0.466-0.125,0.932-0.25,1.397-0.375c-0.052-0.141-0.104-0.281-0.156-0.422
				c-0.124-0.507-1.575-0.128-1.449,0.389c0.071,0.29,0.108,0.346,0.26,0.602c0.236,0.396,1.305,0.001,1.397-0.375
				c0.432-1.758,0.588-3.089-0.166-4.779c-0.779-1.745-2.337-3.579-0.535-5.312C114.593,147.171,113.163,147.189,112.82,147.519
				L112.82,147.519z"/>
		</g>
	</g>
	<g opacity="0.2">
		<g>
			<path fill="#39AF72" d="M93.691,148.824c-1.468,2.762-0.743,5.446-0.697,8.421c0.022,1.434,0.06,2.659,1.702,1.882
				c0.86-0.406-0.508-0.278-0.819-0.131c-0.053,0.024-0.105,0.05-0.158,0.074c0.365-0.058,0.729-0.114,1.094-0.172
				c-0.699-0.338-0.367-2.773-0.405-3.432c-0.147-2.534-0.554-4.545,0.706-6.916C95.192,148.407,93.876,148.476,93.691,148.824
				L93.691,148.824z"/>
		</g>
	</g>
	<g opacity="0.2">
		<g>
			<path fill="#39AF72" d="M93.439,139.761c-1.022-0.979-2.314-0.551-3.237,0.34c-0.522,0.504-0.93,1.144-1.337,1.739
				c-0.26,0.381-0.62,1.153-1.059,1.355c-0.909,0.419-0.088,1.049,0.607,0.729c0.829-0.383,1.326-1.26,1.819-1.984
				c0.326-0.477,0.653-0.949,1.039-1.38c0.39-0.435,0.449-0.562,0.832-0.195C92.524,140.768,93.896,140.198,93.439,139.761
				L93.439,139.761z"/>
		</g>
	</g>
	<g opacity="0.2">
		<g>
			<path fill="#39AF72" d="M136.454,105.058c0.038,0.109,0.096,0.217,0.087,0.313c0.466-0.125,0.932-0.25,1.396-0.375
				c-0.88-0.905-1.571-3.115-1.229-4.351c0.229-0.826-1.211-0.837-1.391-0.188c-0.428,1.541,0.17,4.03,1.297,5.19
				c0.375,0.386,1.337,0.255,1.396-0.375c0.024-0.252-0.029-0.371-0.108-0.604C137.667,103.982,136.223,104.382,136.454,105.058
				L136.454,105.058z"/>
		</g>
	</g>
	<g opacity="0.2">
		<g>
			<path fill="#39AF72" d="M143.382,104.32c-0.305-1.085,1.889-2.335,0.538-3.323c-0.343-0.25-1.612,0.324-1.361,0.508
				c1.132,0.827-0.911,2.187-0.626,3.204C142.035,105.074,143.482,104.679,143.382,104.32L143.382,104.32z"/>
		</g>
	</g>
	<g opacity="0.2">
		<g>
			<path fill="#39AF72" d="M148.976,107.467c-0.064-1.364,1.547-1.595,2.28-2.475c0.228-0.273-0.192-0.412-0.391-0.416
				c-0.346-0.006-0.73,0.122-0.957,0.393c-0.387,0.464-1.044,0.673-1.519,1.039c-0.616,0.475-0.9,1.07-0.863,1.848
				C147.548,108.31,149.002,108.018,148.976,107.467L148.976,107.467z"/>
		</g>
	</g>
	<g opacity="0.2">
		<g>
			<path fill="#39AF72" d="M152.05,115.689c0.287-0.132,0.68,0.129,0.918,0.379c0.256,0.269,1.239-0.105,1.396-0.375
				c0.102-0.173,0.086-0.338,0.09-0.535c0.005-0.241-1.44-0.041-1.449,0.389c-0.003,0.153,0.009,0.263-0.07,0.397
				c0.466-0.125,0.932-0.25,1.396-0.375c-0.812-0.854-2.177-0.519-3.119-0.086c-0.123,0.057-0.498,0.309-0.175,0.387
				C151.361,115.951,151.758,115.824,152.05,115.689L152.05,115.689z"/>
		</g>
	</g>
	<g opacity="0.2">
		<g>
			<path fill="#39AF72" d="M101.482,103.746c-1.298-1.12-2.532-1.825-4.257-1.459c-1.449,0.308-1.987,1.516-1.287,2.722
				c0.262,0.452,1.539,0.055,1.392-0.497c-0.706-2.653-5.427-0.26-4.067,2.33c0.241,0.458,1.612,0.02,1.392-0.497
				c-0.958-2.246-3.164-0.708-3.237,1.213c0.466-0.125,0.931-0.25,1.397-0.374c-1.225-1.213-3.468-0.247-2.75,1.604
				c0.229,0.589,1.666,0.169,1.449-0.389c-0.05-0.129-0.258-0.831-0.035-0.61c0.317,0.314,1.376,0.178,1.397-0.374
				c0.017-0.43-0.069-1.617,0.329-0.682c0.464-0.166,0.928-0.332,1.392-0.497c-0.677-1.291,1.107-1.998,1.283-1.336
				c0.464-0.166,0.928-0.332,1.392-0.497c0.545-0.322,1.09-0.643,1.635-0.964c0.447,0.257,0.86,0.562,1.239,0.913
				C100.591,104.734,101.954,104.152,101.482,103.746L101.482,103.746z"/>
		</g>
	</g>
	<g opacity="0.2">
		<g>
			<path fill="#39AF72" d="M103.717,103.184c0.741-1.72,1.725,0.406,1.848,1.256c0.08,0.548,1.113,0.283,1.325-0.002
				c0.504-0.677,1.029-0.32,1.146,0.408c0.088,0.543,1.111,0.291,1.325-0.002c0.462-0.632,1.007-0.847,0.839,0.269
				c-0.101,0.669,1.087,0.438,1.333,0.129c0.138-0.348,0.391-0.459,0.76-0.335c0.231,0.436,1.027,0.113,1.266-0.119
				c0.076-0.073,0.151-0.146,0.227-0.219c0.175-0.169,0.184-0.463-0.038-0.595c-0.239-0.143-0.477-0.115-0.74-0.077
				c-0.774,0.11-1.133,1.143-0.145,1.002c-0.08-0.04-0.16-0.08-0.24-0.119c-0.013-0.198-0.025-0.397-0.038-0.595
				c-0.076,0.073-0.151,0.146-0.227,0.219c0.422-0.04,0.844-0.079,1.266-0.119c-0.797-1.505-2.54-0.376-3.292,0.573
				c0.444,0.043,0.888,0.086,1.333,0.129c0.404-2.688-2.399-2.038-3.504-0.527c0.442,0,0.883-0.001,1.325-0.002
				c-0.383-2.37-2.609-2.001-3.797-0.404c0.442,0,0.883-0.001,1.325-0.002c-0.405-2.793-3.438-3.873-4.674-1.003
				C102.02,103.791,103.479,103.737,103.717,103.184L103.717,103.184z"/>
		</g>
	</g>
	<g opacity="0.2">
		<g>
			<path fill="#39AF72" d="M103.011,106.787c1.298-0.81,1.52,0.672,1.64,1.528c0.063,0.446,1.232-0.076,1.388-0.223
				c0.214-0.006,0.254,0.149,0.122,0.464c0.019,0.354,1.027,0.014,1.154-0.054c0.621-0.333,1.444,0.009,2.109,0.008
				c0.495-0.001,0.973-0.234,1.392-0.469c-0.37,0.04-0.739,0.08-1.108,0.12c0.383,0.484,0.628,0.863,0.756,1.442
				c0.085,0.387,1.54,0.025,1.449-0.389c-0.136-0.619-0.461-1.088-0.848-1.575c-0.196-0.248-0.908,0.007-1.108,0.12
				c-0.314,0.177-1.461-0.15-1.885-0.112c-0.59,0.052-1.103,0.299-1.616,0.574c0.385-0.018,0.77-0.036,1.154-0.054
				c-0.094-1.828-2.104-0.77-2.897-0.019c0.463-0.074,0.925-0.148,1.388-0.223c-0.369-2.622-2.351-2.42-4.218-1.255
				C101.242,107.07,102.71,106.975,103.011,106.787L103.011,106.787z"/>
		</g>
	</g>
	<g opacity="0.2">
		<g>
			<path fill="#39AF72" d="M100.001,106.646c-1.593-0.586-4.125,1.745-2.718,3.22c0.378-0.203,0.756-0.406,1.135-0.609
				c-0.639-0.077-1.574,0.028-1.942,0.644c-0.321,0.536-0.143,1.408,0.543,1.491c0.313,0.038,0.937-0.063,1.122-0.364
				c0.031-0.051,0.065-0.228,0.075-0.24c0.36-0.419-1.069-0.264-1.33,0.04c-0.052,0.06-0.147,0.357-0.075,0.24
				c0.374-0.122,0.748-0.243,1.122-0.364c-0.08-0.01-0.134-0.462-0.144-0.523c0.003-0.081,0.006-0.161,0.01-0.242
				c0.113-0.229,0.015-0.227-0.294,0.006c0.192,0.023,1.493-0.234,1.135-0.609c-0.32-0.335-0.373-0.698-0.249-1.135
				c0.064-0.227,0.2-0.426,0.342-0.611c0.072-0.09,0.151-0.173,0.237-0.25c0.198-0.121,0.151-0.142-0.14-0.064
				C99.205,107.416,100.524,106.839,100.001,106.646L100.001,106.646z"/>
		</g>
	</g>
	<g opacity="0.2">
		<g>
			<path fill="#39AF72" d="M106.64,112.061c0.735,0.184,1.491,0.38,2.15,0.769c1.096,0.646,0.266,1.447-0.482,1.966
				c-0.467,0.324,0.194,0.465,0.456,0.421c1.284-0.213,1.378,1.756,1.338,2.566c0.435-0.143,0.87-0.285,1.305-0.427
				c-0.198-0.14-0.356-0.313-0.475-0.522c-0.239-0.344-1.643,0.12-1.354,0.536c0.212,0.306,0.343,0.447,0.66,0.628
				c0.253,0.145,1.286-0.05,1.305-0.427c0.088-1.786-0.509-3.38-2.55-3.042c0.152,0.141,0.304,0.281,0.456,0.421
				c0.614-0.426,1.914-1.397,1.145-2.263c-0.682-0.768-1.829-1.029-2.784-1.268C107.416,111.321,106.121,111.931,106.64,112.061
				L106.64,112.061z"/>
		</g>
	</g>
	<g opacity="0.2">
		<g>
			<path fill="#39AF72" d="M109.432,107.16c0.074-0.102,0.148-0.203,0.223-0.305c-0.192-0.109-0.211-0.105-0.057,0.013
				c0.154,0.154,0.269,0.353,0.383,0.536c0.212,0.337,0.395,0.689,0.631,1.01c0.269,0.365,1.035,0.237,1.269-0.107
				c0.256-0.375,0.159-0.427,0.479-0.053c0.106,0.124,0.176,0.266,0.231,0.417c0.168,0.468-0.224,0.191,0.41,0.095
				c-0.317,0.048-0.752,0.206-0.799,0.583c-0.042,0.349,0.385,0.513,0.668,0.47c1.25-0.189,1.524-1.242,0.817-2.202
				c-0.811-1.102-2.325-0.749-3.018,0.267c0.423-0.036,0.846-0.071,1.269-0.107c-0.458-0.623-0.784-1.676-1.575-1.965
				c-1.028-0.375-1.796,0.397-2.317,1.185c-0.206,0.311,0.178,0.573,0.441,0.604C108.87,107.647,109.224,107.474,109.432,107.16
				L109.432,107.16z"/>
		</g>
	</g>
	<g opacity="0.2">
		<g>
			<path fill="#39AF72" d="M106.894,101.565c0.729-1.037,2.171-0.946,2.18,0.506c0.004,0.66,1.044,0.5,1.334,0.137
				c0.249-0.311,0.688-0.463,1.024-0.665c-0.38,0-0.76,0.001-1.14,0.001c0.118,0.2,0.232,0.4,0.342,0.605
				c0.091,0.175,0.169,0.355,0.237,0.54c0.031,0.338,0.237,0.349,0.618,0.033c-0.773,0.127-1.124,1.18-0.14,1.019
				c1.725-0.283,0.868-1.819,0.271-2.823c-0.224-0.377-0.868-0.162-1.14,0.001c-0.495,0.297-0.906,0.427-1.277,0.892
				c0.445,0.046,0.89,0.091,1.334,0.137c-0.018-2.764-3.565-2.609-4.849-0.781C105.164,101.918,106.529,102.085,106.894,101.565
				L106.894,101.565z"/>
		</g>
	</g>
	<g opacity="0.2">
		<g>
			<path fill="#39AF72" d="M103.403,109.682c-0.668-1.499-3.734-0.843-3.59,0.839c0.441-0.156,0.881-0.312,1.322-0.467
				c-0.172-0.033-0.341-0.063-0.516-0.083c-0.285-0.033-1.202,0.049-1.311,0.405c-0.082,0.269-0.063,0.469-0.036,0.744
				c0.025,0.252,1.486-0.02,1.449-0.389c-0.023-0.233-0.062-0.374,0.013-0.619c-0.437,0.135-0.874,0.27-1.311,0.405
				c0.174,0.02,0.343,0.05,0.516,0.083c0.238,0.046,1.354-0.092,1.322-0.467c-0.018-0.202-0.007-0.377,0.068-0.566
				c0.034-0.084,0.088-0.154,0.151-0.216c0.185-0.183-0.616,0.059-0.334,0.09c0.37,0.041,0.66,0.301,0.806,0.631
				C102.104,110.407,103.507,109.916,103.403,109.682L103.403,109.682z"/>
		</g>
	</g>
	<g opacity="0.2">
		<g>
			<path fill="#39AF72" d="M98.15,107.045c-2.278-0.384-6.42,1.354-4.52,4.168c0.47-0.145,0.939-0.289,1.409-0.434
				c-2.631-1.072-4.345,1.626-2.402,3.751c0.335-0.169,0.67-0.337,1.005-0.506c-1.49,0.11-3.246,1.196-1.475,2.771
				c0.305,0.271-0.59,0.785-0.684,1.457c-0.125,0.896-0.133,2.131,0.817,2.567c0.267,0.123,1.296-0.044,1.397-0.375
				c0.045-0.149,0.091-0.299,0.137-0.448c0.073-0.238-1.32-0.074-1.425,0.271c-0.045,0.149-0.091,0.299-0.137,0.448
				c0.466-0.125,0.931-0.25,1.397-0.375c-1.018-0.468-1.222-2.941-0.062-3.408c0.083-0.033,0.418-0.182,0.274-0.31
				c0.057,0.05-1.596-2.012-0.88-2.065c0.134-0.01,1.23-0.259,1.005-0.506c-0.12-0.13-1.567-3.296-0.336-2.794
				c0.201,0.082,1.562-0.207,1.409-0.434c-0.934-1.382-0.27-3.608,1.873-3.248C97.278,107.633,98.508,107.105,98.15,107.045
				L98.15,107.045z"/>
		</g>
	</g>
	<g opacity="0.2">
		<g>
			<path fill="#39AF72" d="M101.539,102.222c-1.284-2.089-5.487-2.629-5.403,0.594c0.483-0.129,0.966-0.259,1.449-0.389
				c-0.646-3.011-4.361-0.173-4.734,1.623c0.465-0.125,0.931-0.25,1.397-0.375c-1.834-1.221-3.291,0.73-3.235,2.519
				c0.468-0.151,0.936-0.303,1.404-0.454c-2.23-1.959-3.438,1.745-3.532,3.378c0.343-0.176,0.685-0.352,1.027-0.527
				c-0.911-0.013-2.285,0.208-2.671,1.217c-0.339,0.885-0.297,1.621,0.042,2.509c0.017,0.044-0.178,1.197-0.187,1.278
				c-0.038,0.373,0.208,1.129,0.289,1.487c0.087,0.383,1.542,0.017,1.449-0.389c-0.264-0.719-0.23-1.444,0.1-2.176
				c0.049-0.045,0.07-0.1,0.062-0.164c-0.375-0.602-1.265-3.12,0.311-3.096c0.288,0.004,1.006-0.155,1.027-0.527
				c0.011-0.189,0.445-2.715,0.724-2.47c0.275,0.242,1.417-0.029,1.404-0.454c0.006,0.187,0.085-1.839,0.427-1.61
				c0.284,0.189,1.314,0.023,1.397-0.375c0.177-0.849,1.489-2.688,1.85-1.005c0.083,0.386,1.46,0.029,1.449-0.389
				c-0.054-2.074,1.907-0.789,2.505,0.184C100.338,103.014,101.697,102.479,101.539,102.222L101.539,102.222z"/>
		</g>
	</g>
	<g opacity="0.2">
		<g>
			<path fill="#39AF72" d="M101.953,105.745c-0.908-1.38-4.836-1.183-3.694,0.801c0.241,0.419,1.425-0.009,1.397-0.479
				c-0.129-2.149-3.001-0.938-3.407,0.482c0.466-0.125,0.932-0.25,1.397-0.374c-0.861-1.18-2.526-0.883-2.722,0.625
				c0.274-0.165,0.548-0.329,0.823-0.494c-1.018,0.128-1.777,0.601-2.183,1.56c-0.196,0.463,1.248,0.296,1.449-0.18
				c0.179-0.191,0.358-0.382,0.538-0.573c0.245-0.031,0.782-0.181,0.823-0.494c0.086-0.667-0.436-0.375-0.072,0.123
				c0.278,0.381,1.285,0.019,1.397-0.374c0.221-0.772,0.47-0.564,0.509,0.086c0.466-0.16,0.932-0.319,1.397-0.479
				c-0.485-0.843,0.813,0.045,1.005,0.336C100.876,106.722,102.283,106.246,101.953,105.745L101.953,105.745z"/>
		</g>
	</g>
	<g opacity="0.2">
		<g>
			<path fill="#39AF72" d="M103.174,102.222c-0.01-0.541,0.197-1.008,0.489-1.453c0.106-0.161,0.243-0.328,0.396-0.447
				c0.297-0.233-0.525-0.208-0.424,0.003c0.057,0.118,0.063,0.281,0.064,0.407c0.008,0.663,1.419,0.387,1.456-0.156
				c0.031-0.465,0.178-0.458,0.457-0.798c-0.42,0.048-0.84,0.095-1.26,0.143c0.32,0.358,0.603,0.71,0.749,1.175
				c0.178,0.567,1.623,0.165,1.449-0.389c-0.167-0.534-0.49-0.966-0.859-1.379c-0.281-0.314-1.02-0.15-1.26,0.143
				c-0.371,0.453-0.689,0.616-0.732,1.261c0.485-0.052,0.971-0.104,1.456-0.156c-0.005-0.406-0.029-0.838-0.43-1.049
				c-0.478-0.251-1.074-0.019-1.5,0.222c-0.841,0.476-1.525,1.672-1.508,2.63C101.73,103.046,103.184,102.756,103.174,102.222
				L103.174,102.222z"/>
		</g>
	</g>
	<g opacity="0.2">
		<g>
			<path fill="#39AF72" d="M103.243,105.6c0.287-0.36,0.683-0.641,1.126-0.768c0.615-0.176,0.725,0.746,0.721,1.132
				c-0.005,0.708,1.164,0.258,1.408-0.043c-0.301-0.062-0.344,0.035-0.13,0.29c0.099,0.254,0.125,0.563,0.13,0.831
				c0.013,0.661,1.465,0.366,1.455-0.159c-0.012-0.627-0.091-1.684-0.841-1.895c-0.828-0.232-1.48,0.25-1.974,0.86
				c0.469-0.014,0.938-0.029,1.408-0.043c0.023-2.979-3.453-1.795-4.663-0.278c-0.227,0.285,0.191,0.472,0.408,0.484
				C102.655,106.03,103.016,105.884,103.243,105.6L103.243,105.6z"/>
		</g>
	</g>
	<g opacity="0.2">
		<g>
			<path fill="#39AF72" d="M100.449,108.196c0.569,0.101,1.146,0.102,1.72,0.165c0.798,0.087,0.862,0.577,0.727,1.299
				c-0.116,0.618,0.939,0.543,1.218,0.287c0.266-0.245,0.616-0.364,0.923-0.555c-0.382-0.006-0.764-0.012-1.146-0.018
				c0.167,0.297,0.552,0.745,0.463,1.103c0.328-0.196,0.656-0.392,0.983-0.588c-0.016-0.001-0.031-0.002-0.046-0.003
				c0.138,0.071,0.276,0.142,0.414,0.213c-0.034-0.076-0.083-0.141-0.148-0.195c-0.461-0.485-1.833,0.109-1.325,0.644
				c0.196,0.207,0.288,0.388,0.608,0.412c0.417,0.031,0.875-0.151,0.983-0.588c0.142-0.571-0.338-1.164-0.607-1.641
				c-0.223-0.396-0.866-0.191-1.146-0.018c-0.318,0.198-0.64,0.294-0.923,0.555c0.406,0.096,0.812,0.191,1.218,0.287
				c0.449-2.392-1.779-2.138-3.419-2.429C100.221,106.997,99.48,108.025,100.449,108.196L100.449,108.196z"/>
		</g>
	</g>
	<g opacity="0.2">
		<g>
			<path fill="#39AF72" d="M113.839,107.386c-0.081,0.03-0.093-0.044-0.028,0.019c0.071,0.068,0.094,0.141,0.122,0.232
				c0.07,0.231-0.044,0.469-0.226,0.607c-0.479,0.367-0.155,0.946,0.415,0.855c0.306-0.048,0.61-0.043,0.915-0.111
				c-0.286-0.1-0.571-0.2-0.857-0.299c0.047,0.21,0.062,0.392,0.041,0.606c-0.007,0.086-0.03,0.167-0.07,0.243
				c-0.014,0.024-0.029,0.048-0.043,0.071c0.306-0.038,0.334-0.088,0.086-0.15c-0.332-0.175-0.734-0.139-1.039,0.088
				c-0.216,0.162-0.408,0.572-0.079,0.745c1.514,0.794,2.922-0.352,2.553-1.992c-0.082-0.361-0.584-0.36-0.857-0.299
				c-0.166,0.037-0.351,0.017-0.521,0.043c0.138,0.285,0.277,0.57,0.415,0.855c0.56-0.43,0.949-1.144,0.644-1.844
				c-0.373-0.857-1.376-0.794-2.112-0.519c-0.27,0.101-0.552,0.465-0.343,0.743C113.086,107.587,113.537,107.499,113.839,107.386
				L113.839,107.386z"/>
		</g>
	</g>
	<g opacity="0.2">
		<g>
			<path fill="#39AF72" d="M108.997,111.237c1.161-0.153,1.266,1.167,0.675,1.797c-0.136,0.145-0.235,0.398,0.014,0.504
				c0.58,0.246,0.589,0.486,0.677,1.059c0.02,0.127,0.182,0.193,0.287,0.219c0.478,0.12,0.789,0.284,1.293,0.286
				c-0.149-0.081-0.299-0.161-0.449-0.241c0.05,0.351-0.035,0.972,0.199,1.231c0.204,0.145,0.381,0.321,0.53,0.527
				c-0.084,0.388,0.066,0.488,0.451,0.302c-0.494-0.115-1.714,0.632-0.876,0.827c0.643,0.15,1.59-0.027,1.839-0.746
				c0.121-0.348,0.134-0.802-0.134-1.1c-0.409-0.453-0.472-0.81-0.56-1.43c-0.025-0.18-0.31-0.241-0.449-0.241
				c-0.74-0.002-0.674-0.204-0.812-0.74c-0.098-0.377-0.537-0.55-0.85-0.682c0.004,0.168,0.009,0.336,0.014,0.504
				c1.408-1.502,0.234-3.184-1.665-2.933C108.459,110.475,107.998,111.369,108.997,111.237L108.997,111.237z"/>
		</g>
	</g>
	<g opacity="0.2">
		<g>
			<path fill="#39AF72" d="M95.761,114.58c-0.973,0.098-1.81,0.506-2.416,1.286c-0.552,0.71-0.807,1.802,0.133,2.287
				c0.424-0.181,0.849-0.362,1.274-0.542c-0.653-0.206-1.697-0.017-2.089,0.607c-0.322,0.513-0.423,1.522,0.243,1.818
				c0.289,0.128,0.653,0.036,0.937-0.069c0.042-0.015,0.681-0.322,0.426-0.435c-0.257-0.114-0.33-0.315-0.384-0.579
				c-0.039-0.186-0.012-0.385,0.024-0.568c0.104-0.522,0.248-0.009-0.342-0.194c0.289,0.091,1.539-0.406,1.274-0.542
				c-0.513-0.265-0.626-0.675-0.491-1.22c0.064-0.257,0.521-1.205,0.793-1.232c0.322-0.032,0.728-0.114,0.968-0.353
				C96.346,114.609,95.906,114.565,95.761,114.58L95.761,114.58z"/>
		</g>
	</g>
</g>
</svg>
