<?xml version="1.0" encoding="utf-8"?>
<!-- Generator: Adobe Illustrator 16.0.0, SVG Export Plug-In . SVG Version: 6.00 Build 0)  -->
<!DOCTYPE svg PUBLIC "-//W3C//DTD SVG 1.1//EN" "http://www.w3.org/Graphics/SVG/1.1/DTD/svg11.dtd">
<svg version="1.1" id="Capa_1" xmlns="http://www.w3.org/2000/svg" xmlns:xlink="http://www.w3.org/1999/xlink" x="0px" y="0px"
	 width="250px" height="250px" viewBox="0 0 250 250" enable-background="new 0 0 250 250" xml:space="preserve">
<pattern  x="0.5" y="250.5" width="72" height="74.8" patternUnits="userSpaceOnUse" id="USGS_8_Tratam._aguas_residuales" viewBox="21.65 -74.8 72 74.8" overflow="visible">
	<g>
		<polygon fill="none" points="21.65,0 21.65,-74.8 93.65,-74.8 93.65,0 		"/>
		<line fill="none" stroke="#1D1D1B" stroke-width="0.3" stroke-linecap="square" x1="21.65" y1="-0.85" x2="93.65" y2="-0.85"/>
		<line fill="none" stroke="#1D1D1B" stroke-width="0.3" stroke-linecap="square" x1="21.65" y1="-2.55" x2="93.65" y2="-2.55"/>
		<line fill="none" stroke="#1D1D1B" stroke-width="0.3" stroke-linecap="square" x1="21.65" y1="-4.25" x2="93.65" y2="-4.25"/>
		<line fill="none" stroke="#1D1D1B" stroke-width="0.3" stroke-linecap="square" x1="21.65" y1="-5.95" x2="93.65" y2="-5.95"/>
		<line fill="none" stroke="#1D1D1B" stroke-width="0.3" stroke-linecap="square" x1="21.65" y1="-7.65" x2="93.65" y2="-7.65"/>
		<line fill="none" stroke="#1D1D1B" stroke-width="0.3" stroke-linecap="square" x1="21.65" y1="-9.35" x2="93.65" y2="-9.35"/>
		<line fill="none" stroke="#1D1D1B" stroke-width="0.3" stroke-linecap="square" x1="21.65" y1="-11.05" x2="93.65" y2="-11.05"/>
		<line fill="none" stroke="#1D1D1B" stroke-width="0.3" stroke-linecap="square" x1="21.65" y1="-12.75" x2="93.65" y2="-12.75"/>
		<line fill="none" stroke="#1D1D1B" stroke-width="0.3" stroke-linecap="square" x1="21.65" y1="-14.45" x2="93.65" y2="-14.45"/>
		<line fill="none" stroke="#1D1D1B" stroke-width="0.3" stroke-linecap="square" x1="21.65" y1="-16.15" x2="93.65" y2="-16.15"/>
		<line fill="none" stroke="#1D1D1B" stroke-width="0.3" stroke-linecap="square" x1="21.65" y1="-17.85" x2="93.65" y2="-17.85"/>
		<line fill="none" stroke="#1D1D1B" stroke-width="0.3" stroke-linecap="square" x1="21.65" y1="-19.55" x2="93.65" y2="-19.55"/>
		<line fill="none" stroke="#1D1D1B" stroke-width="0.3" stroke-linecap="square" x1="21.65" y1="-21.25" x2="93.65" y2="-21.25"/>
		
			<line fill="none" stroke="#1D1D1B" stroke-width="0.3" stroke-linecap="square" x1="21.65" y1="-22.949" x2="93.65" y2="-22.949"/>
		
			<line fill="none" stroke="#1D1D1B" stroke-width="0.3" stroke-linecap="square" x1="21.65" y1="-24.649" x2="93.65" y2="-24.649"/>
		
			<line fill="none" stroke="#1D1D1B" stroke-width="0.3" stroke-linecap="square" x1="21.65" y1="-26.349" x2="93.65" y2="-26.349"/>
		
			<line fill="none" stroke="#1D1D1B" stroke-width="0.3" stroke-linecap="square" x1="21.65" y1="-28.049" x2="93.65" y2="-28.049"/>
		
			<line fill="none" stroke="#1D1D1B" stroke-width="0.3" stroke-linecap="square" x1="21.65" y1="-29.749" x2="93.65" y2="-29.749"/>
		
			<line fill="none" stroke="#1D1D1B" stroke-width="0.3" stroke-linecap="square" x1="21.65" y1="-31.449" x2="93.65" y2="-31.449"/>
		
			<line fill="none" stroke="#1D1D1B" stroke-width="0.3" stroke-linecap="square" x1="21.65" y1="-33.149" x2="93.65" y2="-33.149"/>
		
			<line fill="none" stroke="#1D1D1B" stroke-width="0.3" stroke-linecap="square" x1="21.65" y1="-34.849" x2="93.65" y2="-34.849"/>
		
			<line fill="none" stroke="#1D1D1B" stroke-width="0.3" stroke-linecap="square" x1="21.65" y1="-36.549" x2="93.65" y2="-36.549"/>
		
			<line fill="none" stroke="#1D1D1B" stroke-width="0.3" stroke-linecap="square" x1="21.65" y1="-38.249" x2="93.65" y2="-38.249"/>
		
			<line fill="none" stroke="#1D1D1B" stroke-width="0.3" stroke-linecap="square" x1="21.65" y1="-39.949" x2="93.65" y2="-39.949"/>
		
			<line fill="none" stroke="#1D1D1B" stroke-width="0.3" stroke-linecap="square" x1="21.65" y1="-41.649" x2="93.65" y2="-41.649"/>
		
			<line fill="none" stroke="#1D1D1B" stroke-width="0.3" stroke-linecap="square" x1="21.65" y1="-43.349" x2="93.65" y2="-43.349"/>
		
			<line fill="none" stroke="#1D1D1B" stroke-width="0.3" stroke-linecap="square" x1="21.65" y1="-45.049" x2="93.65" y2="-45.049"/>
		
			<line fill="none" stroke="#1D1D1B" stroke-width="0.3" stroke-linecap="square" x1="21.65" y1="-46.749" x2="93.65" y2="-46.749"/>
		
			<line fill="none" stroke="#1D1D1B" stroke-width="0.3" stroke-linecap="square" x1="21.65" y1="-48.449" x2="93.65" y2="-48.449"/>
		
			<line fill="none" stroke="#1D1D1B" stroke-width="0.3" stroke-linecap="square" x1="21.65" y1="-50.149" x2="93.65" y2="-50.149"/>
		
			<line fill="none" stroke="#1D1D1B" stroke-width="0.3" stroke-linecap="square" x1="21.65" y1="-51.849" x2="93.65" y2="-51.849"/>
		
			<line fill="none" stroke="#1D1D1B" stroke-width="0.3" stroke-linecap="square" x1="21.65" y1="-53.549" x2="93.65" y2="-53.549"/>
		
			<line fill="none" stroke="#1D1D1B" stroke-width="0.3" stroke-linecap="square" x1="21.65" y1="-55.249" x2="93.65" y2="-55.249"/>
		
			<line fill="none" stroke="#1D1D1B" stroke-width="0.3" stroke-linecap="square" x1="21.65" y1="-56.949" x2="93.65" y2="-56.949"/>
		
			<line fill="none" stroke="#1D1D1B" stroke-width="0.3" stroke-linecap="square" x1="21.65" y1="-58.649" x2="93.65" y2="-58.649"/>
		
			<line fill="none" stroke="#1D1D1B" stroke-width="0.3" stroke-linecap="square" x1="21.65" y1="-60.349" x2="93.65" y2="-60.349"/>
		
			<line fill="none" stroke="#1D1D1B" stroke-width="0.3" stroke-linecap="square" x1="21.65" y1="-62.049" x2="93.65" y2="-62.049"/>
		
			<line fill="none" stroke="#1D1D1B" stroke-width="0.3" stroke-linecap="square" x1="21.65" y1="-63.749" x2="93.65" y2="-63.749"/>
		
			<line fill="none" stroke="#1D1D1B" stroke-width="0.3" stroke-linecap="square" x1="21.65" y1="-65.449" x2="93.65" y2="-65.449"/>
		
			<line fill="none" stroke="#1D1D1B" stroke-width="0.3" stroke-linecap="square" x1="21.65" y1="-67.149" x2="93.65" y2="-67.149"/>
		
			<line fill="none" stroke="#1D1D1B" stroke-width="0.3" stroke-linecap="square" x1="21.65" y1="-68.849" x2="93.65" y2="-68.849"/>
		
			<line fill="none" stroke="#1D1D1B" stroke-width="0.3" stroke-linecap="square" x1="21.65" y1="-70.549" x2="93.65" y2="-70.549"/>
		
			<line fill="none" stroke="#1D1D1B" stroke-width="0.3" stroke-linecap="square" x1="21.65" y1="-72.249" x2="93.65" y2="-72.249"/>
		
			<line fill="none" stroke="#1D1D1B" stroke-width="0.3" stroke-linecap="square" x1="21.65" y1="-73.949" x2="93.65" y2="-73.949"/>
		<line fill="none" stroke="#1D1D1B" stroke-width="0.3" stroke-linecap="square" x1="0.15" y1="-67.149" x2="11.4" y2="-67.149"/>
	</g>
</pattern>
<g>
	<polygon fill="#46C0ED" points="125.004,58.635 152.971,125.869 180.94,193.101 125.004,193.101 69.063,193.101 97.033,125.869 	
		"/>
	<path fill="#46C0ED" d="M180.945,199.698c-0.005,0-0.005,0-0.005,0H69.059c-2.604,0-5.012-1.929-6.31-5.058
		c-1.301-3.128-1.301-6.981,0-10.115l55.937-129.167c1.302-3.128,3.711-5.056,6.314-5.056c2.603,0,5.008,1.928,6.31,5.056
		l55.78,128.786c0.725,1.568,1.141,3.436,1.141,5.438C188.23,195.169,184.973,199.698,180.945,199.698z M81.682,181.394h86.632
		L125,77.269L81.682,181.394z"/>
	<g opacity="0.2">
		<g>
			
				<pattern  id="SVGID_1_" xlink:href="#USGS_8_Tratam._aguas_residuales" patternTransform="matrix(1.2008 0 0 1.2008 1677.7583 1606.2178)">
			</pattern>
			<path fill="url(#SVGID_1_)" d="M180.945,203.9H69.055c-4.322,0-8.223-2.929-10.189-7.646c-1.734-4.177-1.734-9.164,0-13.338
				l55.964-129.228c1.935-4.661,5.84-7.589,10.171-7.589c4.326,0,8.228,2.928,10.188,7.645l55.755,128.729
				c0.963,2.077,1.493,4.569,1.493,7.109C192.436,197.61,187.39,203.9,180.945,203.9z"/>
		</g>
	</g>
	<g>
		<g>
			<g>
				<path fill="#3C343F" d="M94.591,185.031c-0.731-3.091,0.764-7.013,1.63-9.939c1.323-4.471,3.135-8.809,5.401-12.882
					c0.877-1.577,1.89-3.069,3.104-4.405c1.361-1.498,4.258-2.028,2.89,1.143c-1.752,4.062-6.49,7.528-10.103,9.838
					c0.807,1.047,1.614,2.093,2.421,3.139c1.375-1.479,3.345-2.43,5.18-3.203c1.035-0.436,6.509-2.349,5.105,0.59
					c-0.842,1.762-12.26,8.928-13.233,6.131c-0.842-2.417-4.703-1.378-3.854,1.062c2.94,8.445,18.437-0.781,20.813-5.754
					c1.746-3.654-0.621-6.795-4.305-7.11c-4.081-0.351-9.811,2.529-12.532,5.458c-1.504,1.619,0.447,4.4,2.421,3.139
					c4.583-2.931,11.639-7.988,12.379-13.853c0.638-5.06-4.854-7.417-8.621-4.629c-4.706,3.485-7.177,10.094-9.225,15.338
					c-1.907,4.881-4.591,11.648-3.326,17.001C91.331,188.601,95.184,187.537,94.591,185.031L94.591,185.031z"/>
			</g>
		</g>
		<g>
			<g>
				<path fill="#3C343F" d="M130.087,163.657c-5.288-1.884-17.049,3.432-15.11,10.184c2.216,7.719,13.787-3.53,15.507-6.318
					c1.173-1.903-1.673-4.19-3.139-2.422c-1.729,2.089-3.71,5.108-2.451,7.928c1.197,2.682,3.698,4.198,6.636,3.952
					c5.85-0.491,9.135-8.252,12.011-12.388c-1.218-0.514-2.435-1.026-3.652-1.54c-0.837,3.222-2.953,10.009,1.817,11.321
					c6.487,1.784,8.241-6.861,11.511-10.176c1.81-1.836-1.015-4.663-2.826-2.826c-1.892,1.919-2.954,4.379-4.3,6.679
					c-0.89,1.522-3.528,3.8-3.346,0.532c0.083-1.494,0.622-3.025,0.997-4.468c0.593-2.281-2.389-3.356-3.652-1.54
					c-1.252,1.802-2.359,3.7-3.587,5.52c-0.926,1.372-1.99,2.598-3.188,3.734c-3.067,2.911-5.408-1.169-3.144-3.902
					c-1.046-0.808-2.092-1.614-3.139-2.422c-1.693,2.748-4.989,5.619-8.013,6.716c-0.185-0.648,0.065-1.151,0.75-1.51
					c0.809-0.858,1.927-1.429,2.945-1.989c1.758-0.969,4.334-1.915,6.31-1.211C131.458,168.378,132.496,164.516,130.087,163.657
					L130.087,163.657z"/>
			</g>
		</g>
		<g>
			<g>
				<path fill="#3C343F" d="M145.147,164.194c0.711,1.583,1.582,4.033,2.586,5.846c1.116,2.015,2.985,4.136,5.53,3.464
					c2.489-0.658,1.432-4.513-1.062-3.854c0.421-0.111-0.072-0.243-0.383-0.607c-0.563-0.663-0.944-1.571-1.321-2.347
					c-0.716-1.472-1.229-3.028-1.898-4.52C147.544,159.83,144.102,161.863,145.147,164.194L145.147,164.194z"/>
			</g>
		</g>
		<g>
			<g>
				<path fill="#3C343F" d="M141.08,155.729c-0.67,0.258-1.418,0.739-1.526,1.532c-0.147,1.078,0.242,2.141,1.396,2.458
					c0.943,0.26,2.31-0.314,2.458-1.396c-0.055,0.125-0.108,0.251-0.163,0.376c-0.397,0.306-0.796,0.612-1.193,0.918
					c0.03-0.012,0.061-0.023,0.092-0.035c1.016-0.391,1.706-1.329,1.396-2.458C143.271,156.153,142.098,155.338,141.08,155.729
					L141.08,155.729z"/>
			</g>
		</g>
		
			<path fill="none" stroke="#3C343F" stroke-width="0.3866" stroke-linecap="round" stroke-linejoin="round" stroke-miterlimit="10" d="
			M152.779,181.331c0.485-0.469,2.773-0.008,3.584-0.022c0.387-0.006,0.769-0.02,1.151-0.043c0.025,0,0.025,0,0.003,0
			c-0.064-0.034-0.134-0.048-0.203-0.065"/>
		
			<path fill="none" stroke="#3C343F" stroke-width="0.3866" stroke-linecap="round" stroke-linejoin="round" stroke-miterlimit="10" d="
			M106.063,181.033c0.057,2.077-0.226,4.205-0.194,6.294c0.997,0.094,1.956,0.153,2.968,0.133c0.374-0.011,0.786,0.068,1.145-0.062
			c-0.042,0-0.095,0.006-0.133,0"/>
		
			<path fill="none" stroke="#3C343F" stroke-width="0.3866" stroke-linecap="round" stroke-linejoin="round" stroke-miterlimit="10" d="
			M111.314,181.033c-0.095,2.577-0.333,4.358-0.333,6.291c1.158,0,2.708,0,3.805,0.147"/>
		
			<path fill="none" stroke="#3C343F" stroke-width="0.3866" stroke-linecap="round" stroke-linejoin="round" stroke-miterlimit="10" d="
			M135.521,181.033c0.062,2.077-0.225,4.205-0.19,6.294c0.999,0.094,1.954,0.153,2.964,0.133c0.374-0.011,0.786,0.068,1.146-0.062
			c-0.039,0-0.096,0.006-0.134,0"/>
		
			<path fill="none" stroke="#3C343F" stroke-width="0.3866" stroke-linecap="round" stroke-linejoin="round" stroke-miterlimit="10" d="
			M116.004,183.118c-0.573,1.223-0.55,2.674,0.578,3.447c1.145,0.781,3.137,0.741,4.191-0.182c0.834-0.733,0.786-1.921,0.486-2.898
			c-0.382-1.253-1.093-2.418-2.552-2.418C117.575,181.067,116.534,181.99,116.004,183.118z"/>
		
			<path fill="none" stroke="#3C343F" stroke-width="0.3866" stroke-linecap="round" stroke-linejoin="round" stroke-miterlimit="10" d="
			M123.386,187.397c0.178-1.167-0.065-2.534-0.065-3.722c0-0.699,0.173-1.384,0.165-2.08c1.059-0.222,4.348-0.679,3.696,1.483
			c-0.45,1.491-2.325,0.818-3.409,1.088c1.067,0.046,2.39-0.509,3.293,0.25c0.528,0.435,0.877,1.242,0.572,1.898
			c-0.338,0.756-1.31,0.915-2.048,0.96c-0.721,0.052-1.445-0.008-2.17,0.023"/>
		
			<path fill="none" stroke="#3C343F" stroke-width="0.3866" stroke-linecap="round" stroke-linejoin="round" stroke-miterlimit="10" d="
			M129.486,187.525c0.144-0.571,0.044-1.295,0.062-1.875c0.021-0.688,0.116-1.364,0.135-2.049c0.017-0.619,0.021-1.324-0.152-1.915
			c1.067,0.02,2.27-0.424,3.311-0.147c1.002,0.261,1.453,1.478,0.755,2.293c-0.873,1.012-2.694,0.889-3.913,0.921"/>
		
			<path fill="none" stroke="#3C343F" stroke-width="0.3866" stroke-linecap="round" stroke-linejoin="round" stroke-miterlimit="10" d="
			M146.058,181.883c-0.972-0.716-2.018-1.276-3.219-0.733c-1.198,0.537-2.179,1.901-2.223,3.226
			c-0.06,1.951,3.021,3.824,4.708,2.597c0.756-0.546,0.725-1.784,0.786-2.611c-0.443,0.216-2.187-0.205-2.269,0"/>
		
			<path fill="none" stroke="#3C343F" stroke-width="0.3866" stroke-linecap="round" stroke-linejoin="round" stroke-miterlimit="10" d="
			M147.725,185.798c0.929-0.091,1.822-0.253,2.755-0.228c0.404,0.015,1.028,0.071,1.354-0.099"/>
		
			<path fill="none" stroke="#3C343F" stroke-width="0.3866" stroke-linecap="round" stroke-linejoin="round" stroke-miterlimit="10" d="
			M155.031,181.328c-0.096,1.543-0.005,3.089-0.039,4.632c-0.008,0.424,0.127,0.994-0.126,1.37"/>
		
			<line fill="none" stroke="#3C343F" stroke-width="0.3866" stroke-linecap="round" stroke-linejoin="round" stroke-miterlimit="10" x1="139.311" y1="184.264" x2="135.521" y2="184.167"/>
		
			<line fill="none" stroke="#3C343F" stroke-width="0.3866" stroke-linecap="round" stroke-linejoin="round" stroke-miterlimit="10" x1="139.311" y1="181.172" x2="135.521" y2="181.073"/>
		
			<path fill="none" stroke="#3C343F" stroke-width="0.3866" stroke-linecap="round" stroke-linejoin="round" stroke-miterlimit="10" d="
			M147.365,187.168l2.643-5.937c0,0,2.676,5.871,2.741,6.002"/>
		
			<line fill="none" stroke="#3C343F" stroke-width="0.3866" stroke-linecap="round" stroke-linejoin="round" stroke-miterlimit="10" x1="131.834" y1="184.688" x2="133.99" y2="187.33"/>
	</g>
	<path fill="#805B7F" stroke="#805B7F" stroke-width="0.7069" stroke-miterlimit="10" d="M119.168,110.392
		c0.04-1.813-0.026-2.981-0.286-3.058c-1.094-0.311-1.918,1.943-2.118,2.555C117.584,110.03,118.386,110.2,119.168,110.392z"/>
	<path fill="#AF1917" stroke="#AF1917" stroke-width="0.7069" stroke-miterlimit="10" d="M116.604,110.186
		c-0.742,1.028-3.099,5.488-5.545,10.219c2.512,0.139,5.025,0.261,7.537,0.101c0.243-3.719,0.495-7.324,0.564-9.818
		C118.317,110.485,117.463,110.317,116.604,110.186z"/>
	<path fill="#EA6021" stroke="#EA6021" stroke-width="0.7069" stroke-miterlimit="10" d="M110.915,120.677
		c-1.983,3.831-4.005,7.792-5.268,10.215c4.136-0.27,8.28-0.485,12.427-0.511c0.061-2.773,0.279-6.219,0.5-9.594
		C116.022,120.95,113.471,120.821,110.915,120.677z"/>
	<path fill="#E3DE41" stroke="#E3DE41" stroke-width="0.7069" stroke-miterlimit="10" d="M118.517,135.99
		c-0.399-0.576-0.503-2.603-0.452-5.327c-4.195,0.025-8.384,0.253-12.571,0.525c-0.503,0.963-0.872,1.648-1.033,1.921
		c-1.084,1.807-2.165,3.788-0.72,5.769c1.44,1.985,13.877,2.162,15.318,1.982C120.5,140.682,120.144,138.338,118.517,135.99z"/>
	<path fill="#747B91" stroke="#747B91" stroke-width="0.7069" stroke-miterlimit="10" d="M123.764,90.714
		c2.256-0.041,4.547-0.185,6.834-0.297c-2.001-7.108-3.676-12.41-4.326-12.279c-1.806,0.359-0.908,1.621-0.908,1.621
		S124.552,84.517,123.764,90.714z"/>
	<path fill="#747B91" stroke="#747B91" stroke-width="0.7069" stroke-miterlimit="10" d="M123.724,90.997
		c-0.33,2.62-0.651,5.482-0.911,8.348c3.331-0.661,6.682-0.804,10.044-0.69c-0.745-2.765-1.482-5.467-2.182-7.959
		C128.35,90.81,126.024,90.958,123.724,90.997z"/>
	<path fill="#805B7F" stroke="#805B7F" stroke-width="0.7069" stroke-miterlimit="10" d="M123.073,109.549
		c-0.074-0.086-0.048-0.243,0.087-0.233c4.214,0.414,8.431,0.466,12.657,0.392c-0.933-3.462-1.914-7.165-2.886-10.775
		c-3.396-0.116-6.782,0.029-10.141,0.704c-0.308,3.498-0.507,6.976-0.49,10.001C122.562,109.619,122.813,109.586,123.073,109.549z"
		/>
	<path fill="#AF1917" stroke="#AF1917" stroke-width="0.7069" stroke-miterlimit="10" d="M135.891,109.989
		c-4.065,0.072-8.126,0.021-12.175-0.347c-0.008,0.044-0.03,0.085-0.091,0.097c-0.435,0.089-0.876,0.148-1.32,0.181
		c0,0.101,0,0.202,0,0.299c0.053,3.275,0.07,6.823,0.105,10.256c5.501,0.017,10.999,0.203,16.497,0.405
		C138.064,118.035,137.02,114.2,135.891,109.989z"/>
	<path fill="#EA6021" stroke="#EA6021" stroke-width="0.7069" stroke-miterlimit="10" d="M138.994,121.167
		c-5.524-0.203-11.052-0.392-16.584-0.408c0.03,3.387,0.069,6.649,0.156,9.411c0.754-0.003,1.51-0.008,2.269-0.003
		c5.841,0.023,11.682,0.214,17.521,0.196c-0.447-1.426-1.145-3.103-2.025-5.183C140,124.398,139.541,123,138.994,121.167z"/>
	<path fill="#E3DE41" stroke="#E3DE41" stroke-width="0.7069" stroke-miterlimit="10" d="M122.57,130.455
		c0.134,4.066,0.364,6.993,0.815,7.524c1.08,1.259,1.978,1.44,7.03,0.898c5.046-0.54,8.834,0.36,11.172-2.345
		c1.464-1.685,1.593-3.37,0.868-5.845C135.826,130.686,129.178,130.401,122.57,130.455z"/>
	<path fill="#CEE0E3" d="M143.394,144.467c0.539-0.18,4.145-3.427,2.161-3.606c-1.983-0.179-16.58,2.342-24.873,1.983
		c-8.288-0.36-22.893-2.344-22.351-0.903c0.542,1.443,2.343,7.391,5.046,7.032c2.704-0.363,7.571-2.344,13.703-1.261
		c6.128,1.079,7.389,2.881,13.877,0.719C137.445,146.268,143.394,144.467,143.394,144.467z"/>
	<g>
		
			<path fill="none" stroke="#3C343F" stroke-width="0.1619" stroke-linecap="round" stroke-linejoin="round" stroke-miterlimit="10" d="
			M128.845,133.797c-1.236-2.68-5.047-1.421-4.878,1.443c0.161,2.632,4.01,3.549,4.86,0.906"/>
		
			<path fill="none" stroke="#3C343F" stroke-width="0.1619" stroke-linecap="round" stroke-linejoin="round" stroke-miterlimit="10" d="
			M129.673,137.536c0.057-0.196,2.886-5.154,2.886-5.154s2.184,4.848,2.196,5.041"/>
		
			<line fill="none" stroke="#3C343F" stroke-width="0.1619" stroke-linecap="round" stroke-linejoin="round" stroke-miterlimit="10" x1="134.833" y1="132.337" x2="139.463" y2="132.376"/>
		
			<line fill="none" stroke="#3C343F" stroke-width="0.1619" stroke-linecap="round" stroke-linejoin="round" stroke-miterlimit="10" x1="130.207" y1="136.402" x2="134.837" y2="136.442"/>
		
			<line fill="none" stroke="#3C343F" stroke-width="0.1619" stroke-linecap="round" stroke-linejoin="round" stroke-miterlimit="10" x1="137.245" y1="137.076" x2="137.28" y2="132.45"/>
	</g>
	<g>
		<g>
			<path fill="#FFFFFF" d="M180.945,203.9H69.055c-4.322,0-8.223-2.929-10.189-7.646c-1.734-4.177-1.734-9.164,0-13.338
				l55.964-129.228c1.935-4.661,5.84-7.589,10.171-7.589c4.326,0,8.228,2.928,10.188,7.645l55.755,128.729
				c0.963,2.077,1.493,4.569,1.493,7.109C192.436,197.61,187.39,203.9,180.945,203.9z M125,54.504c-0.676,0-1.732,0.771-2.434,2.469
				L66.603,186.196c-0.841,2.034-0.841,4.739,0.026,6.83c0.703,1.696,1.753,2.47,2.426,2.47h111.891
				c1.229,0,3.085-2.355,3.085-5.913c0-1.333-0.264-2.603-0.758-3.677l-55.82-128.877C126.722,55.276,125.672,54.504,125,54.504z"/>
		</g>
	</g>
</g>
</svg>
