<?xml version="1.0" encoding="utf-8"?>
<!-- Generator: Adobe Illustrator 16.0.0, SVG Export Plug-In . SVG Version: 6.00 Build 0)  -->
<!DOCTYPE svg PUBLIC "-//W3C//DTD SVG 1.1//EN" "http://www.w3.org/Graphics/SVG/1.1/DTD/svg11.dtd">
<svg version="1.1" id="Capa_1" xmlns="http://www.w3.org/2000/svg" xmlns:xlink="http://www.w3.org/1999/xlink" x="0px" y="0px"
	 width="250px" height="250px" viewBox="0 0 250 250" enable-background="new 0 0 250 250" xml:space="preserve">
<pattern  x="0.5" y="250.5" width="72" height="74.8" patternUnits="userSpaceOnUse" id="USGS_8_Tratam._aguas_residuales" viewBox="21.65 -74.8 72 74.8" overflow="visible">
	<g>
		<polygon fill="none" points="21.65,0 21.65,-74.8 93.65,-74.8 93.65,0 		"/>
		<line fill="none" stroke="#1D1D1B" stroke-width="0.3" stroke-linecap="square" x1="21.65" y1="-0.85" x2="93.65" y2="-0.85"/>
		<line fill="none" stroke="#1D1D1B" stroke-width="0.3" stroke-linecap="square" x1="21.65" y1="-2.55" x2="93.65" y2="-2.55"/>
		<line fill="none" stroke="#1D1D1B" stroke-width="0.3" stroke-linecap="square" x1="21.65" y1="-4.25" x2="93.65" y2="-4.25"/>
		<line fill="none" stroke="#1D1D1B" stroke-width="0.3" stroke-linecap="square" x1="21.65" y1="-5.95" x2="93.65" y2="-5.95"/>
		<line fill="none" stroke="#1D1D1B" stroke-width="0.3" stroke-linecap="square" x1="21.65" y1="-7.65" x2="93.65" y2="-7.65"/>
		<line fill="none" stroke="#1D1D1B" stroke-width="0.3" stroke-linecap="square" x1="21.65" y1="-9.35" x2="93.65" y2="-9.35"/>
		<line fill="none" stroke="#1D1D1B" stroke-width="0.3" stroke-linecap="square" x1="21.65" y1="-11.05" x2="93.65" y2="-11.05"/>
		<line fill="none" stroke="#1D1D1B" stroke-width="0.3" stroke-linecap="square" x1="21.65" y1="-12.75" x2="93.65" y2="-12.75"/>
		<line fill="none" stroke="#1D1D1B" stroke-width="0.3" stroke-linecap="square" x1="21.65" y1="-14.45" x2="93.65" y2="-14.45"/>
		<line fill="none" stroke="#1D1D1B" stroke-width="0.3" stroke-linecap="square" x1="21.65" y1="-16.15" x2="93.65" y2="-16.15"/>
		<line fill="none" stroke="#1D1D1B" stroke-width="0.3" stroke-linecap="square" x1="21.65" y1="-17.85" x2="93.65" y2="-17.85"/>
		<line fill="none" stroke="#1D1D1B" stroke-width="0.3" stroke-linecap="square" x1="21.65" y1="-19.55" x2="93.65" y2="-19.55"/>
		<line fill="none" stroke="#1D1D1B" stroke-width="0.3" stroke-linecap="square" x1="21.65" y1="-21.25" x2="93.65" y2="-21.25"/>
		
			<line fill="none" stroke="#1D1D1B" stroke-width="0.3" stroke-linecap="square" x1="21.65" y1="-22.949" x2="93.65" y2="-22.949"/>
		
			<line fill="none" stroke="#1D1D1B" stroke-width="0.3" stroke-linecap="square" x1="21.65" y1="-24.649" x2="93.65" y2="-24.649"/>
		
			<line fill="none" stroke="#1D1D1B" stroke-width="0.3" stroke-linecap="square" x1="21.65" y1="-26.349" x2="93.65" y2="-26.349"/>
		
			<line fill="none" stroke="#1D1D1B" stroke-width="0.3" stroke-linecap="square" x1="21.65" y1="-28.049" x2="93.65" y2="-28.049"/>
		
			<line fill="none" stroke="#1D1D1B" stroke-width="0.3" stroke-linecap="square" x1="21.65" y1="-29.749" x2="93.65" y2="-29.749"/>
		
			<line fill="none" stroke="#1D1D1B" stroke-width="0.3" stroke-linecap="square" x1="21.65" y1="-31.449" x2="93.65" y2="-31.449"/>
		
			<line fill="none" stroke="#1D1D1B" stroke-width="0.3" stroke-linecap="square" x1="21.65" y1="-33.149" x2="93.65" y2="-33.149"/>
		
			<line fill="none" stroke="#1D1D1B" stroke-width="0.3" stroke-linecap="square" x1="21.65" y1="-34.849" x2="93.65" y2="-34.849"/>
		
			<line fill="none" stroke="#1D1D1B" stroke-width="0.3" stroke-linecap="square" x1="21.65" y1="-36.549" x2="93.65" y2="-36.549"/>
		
			<line fill="none" stroke="#1D1D1B" stroke-width="0.3" stroke-linecap="square" x1="21.65" y1="-38.249" x2="93.65" y2="-38.249"/>
		
			<line fill="none" stroke="#1D1D1B" stroke-width="0.3" stroke-linecap="square" x1="21.65" y1="-39.949" x2="93.65" y2="-39.949"/>
		
			<line fill="none" stroke="#1D1D1B" stroke-width="0.3" stroke-linecap="square" x1="21.65" y1="-41.649" x2="93.65" y2="-41.649"/>
		
			<line fill="none" stroke="#1D1D1B" stroke-width="0.3" stroke-linecap="square" x1="21.65" y1="-43.349" x2="93.65" y2="-43.349"/>
		
			<line fill="none" stroke="#1D1D1B" stroke-width="0.3" stroke-linecap="square" x1="21.65" y1="-45.049" x2="93.65" y2="-45.049"/>
		
			<line fill="none" stroke="#1D1D1B" stroke-width="0.3" stroke-linecap="square" x1="21.65" y1="-46.749" x2="93.65" y2="-46.749"/>
		
			<line fill="none" stroke="#1D1D1B" stroke-width="0.3" stroke-linecap="square" x1="21.65" y1="-48.449" x2="93.65" y2="-48.449"/>
		
			<line fill="none" stroke="#1D1D1B" stroke-width="0.3" stroke-linecap="square" x1="21.65" y1="-50.149" x2="93.65" y2="-50.149"/>
		
			<line fill="none" stroke="#1D1D1B" stroke-width="0.3" stroke-linecap="square" x1="21.65" y1="-51.849" x2="93.65" y2="-51.849"/>
		
			<line fill="none" stroke="#1D1D1B" stroke-width="0.3" stroke-linecap="square" x1="21.65" y1="-53.549" x2="93.65" y2="-53.549"/>
		
			<line fill="none" stroke="#1D1D1B" stroke-width="0.3" stroke-linecap="square" x1="21.65" y1="-55.249" x2="93.65" y2="-55.249"/>
		
			<line fill="none" stroke="#1D1D1B" stroke-width="0.3" stroke-linecap="square" x1="21.65" y1="-56.949" x2="93.65" y2="-56.949"/>
		
			<line fill="none" stroke="#1D1D1B" stroke-width="0.3" stroke-linecap="square" x1="21.65" y1="-58.649" x2="93.65" y2="-58.649"/>
		
			<line fill="none" stroke="#1D1D1B" stroke-width="0.3" stroke-linecap="square" x1="21.65" y1="-60.349" x2="93.65" y2="-60.349"/>
		
			<line fill="none" stroke="#1D1D1B" stroke-width="0.3" stroke-linecap="square" x1="21.65" y1="-62.049" x2="93.65" y2="-62.049"/>
		
			<line fill="none" stroke="#1D1D1B" stroke-width="0.3" stroke-linecap="square" x1="21.65" y1="-63.749" x2="93.65" y2="-63.749"/>
		
			<line fill="none" stroke="#1D1D1B" stroke-width="0.3" stroke-linecap="square" x1="21.65" y1="-65.449" x2="93.65" y2="-65.449"/>
		
			<line fill="none" stroke="#1D1D1B" stroke-width="0.3" stroke-linecap="square" x1="21.65" y1="-67.149" x2="93.65" y2="-67.149"/>
		
			<line fill="none" stroke="#1D1D1B" stroke-width="0.3" stroke-linecap="square" x1="21.65" y1="-68.849" x2="93.65" y2="-68.849"/>
		
			<line fill="none" stroke="#1D1D1B" stroke-width="0.3" stroke-linecap="square" x1="21.65" y1="-70.549" x2="93.65" y2="-70.549"/>
		
			<line fill="none" stroke="#1D1D1B" stroke-width="0.3" stroke-linecap="square" x1="21.65" y1="-72.249" x2="93.65" y2="-72.249"/>
		
			<line fill="none" stroke="#1D1D1B" stroke-width="0.3" stroke-linecap="square" x1="21.65" y1="-73.949" x2="93.65" y2="-73.949"/>
		<line fill="none" stroke="#1D1D1B" stroke-width="0.3" stroke-linecap="square" x1="0.15" y1="-67.149" x2="11.4" y2="-67.149"/>
	</g>
</pattern>
<g>
	<g>
		<path fill="#2A2B20" d="M180.823,66.073c-28.971,0-56.176-23.675-56.176-23.675S97.436,65.732,68.465,65.732
			c-9.412,0-15.898-1.765-15.898-1.765v46.297c0,18.373,5.641,36.411,16.609,51.934c10.976,15.185,28.975,35.698,54.077,45.921
			l1.425,0.344l1.428-0.715c24.728-9.887,43.102-30.4,54.074-45.922c10.971-15.187,16.608-33.22,16.608-51.938v-45.58
			C196.72,64.309,188.806,66.073,180.823,66.073z"/>
		
			<pattern  id="SVGID_1_" xlink:href="#USGS_8_Tratam._aguas_residuales" patternTransform="matrix(0.5711 -0.5711 0.5711 0.5711 1676.0532 -8343.2227)">
		</pattern>
		<path opacity="0.2" fill="url(#SVGID_1_)" stroke="#182425" stroke-width="3.1156" stroke-miterlimit="10" d="M183.33,67.263
			c-28.969,0-56.18-23.675-56.18-23.675S99.946,66.922,70.971,66.922c-9.408,0-15.897-1.763-15.897-1.763v46.295
			c0,18.374,5.64,36.409,16.612,51.935c10.972,15.183,28.971,35.701,54.073,45.924l1.429,0.343l1.426-0.717
			c24.726-9.886,43.102-30.401,54.072-45.923c10.971-15.183,16.614-33.22,16.614-51.935V65.499"/>
		<path fill="#E7462B" d="M124.677,211.157c-0.21,0-0.421-0.025-0.628-0.074l-1.424-0.341c-0.132-0.033-0.264-0.074-0.391-0.125
			c-20.117-8.196-38.702-23.954-55.239-46.842c-11.208-15.858-17.12-34.352-17.12-53.511V63.967c0-0.839,0.392-1.626,1.057-2.138
			c0.663-0.509,1.527-0.679,2.339-0.46c0.061,0.014,6.306,1.668,15.195,1.668c27.654,0,54.16-22.461,54.427-22.686
			c1.011-0.867,2.512-0.865,3.524,0.011c0.267,0.231,26.808,23.015,54.407,23.015c6.354,0,12.779-1.171,15.25-1.676
			c0.447-0.091,0.696-0.075,0.715-0.089c1.488,0,2.696,1.205,2.696,2.695v45.58c0,19.509-5.919,38.012-17.121,53.513
			c-11.104,15.71-29.696,36.592-55.15,46.803l-1.325,0.665C125.508,211.059,125.094,211.157,124.677,211.157z M124.08,205.548
			l0.27,0.066l0.549-0.277c0.068-0.033,0.136-0.062,0.207-0.095c24.29-9.707,42.157-29.814,52.875-44.973
			c10.55-14.6,16.115-32.015,16.115-50.381V67.546c-3.403,0.572-8.34,1.22-13.272,1.22c-25.73,0-49.596-17.589-56.191-22.882
			c-6.606,5.225-30.46,22.542-56.167,22.542c-5.656,0-10.281-0.611-13.202-1.133v42.971c0,18.041,5.569,35.461,16.115,50.377
			C87.246,182.603,104.986,197.72,124.08,205.548z"/>
		<g>
			<g>
				<g>
					<g>
						<path fill="none" stroke="#F6F1EA" stroke-width="1.5162" stroke-linecap="round" stroke-linejoin="round" d="M126.301,44.761
							c-1.521-1.19-2.35-1.911-2.35-1.911s-0.833,0.714-2.363,1.894"/>
						
							<path fill="none" stroke="#F6F1EA" stroke-width="1.5162" stroke-linecap="round" stroke-linejoin="round" stroke-dasharray="6.5351,6.5351" d="
							M116.298,48.577c-10.101,6.909-28.91,17.607-48.53,17.607c-3.782,0-7.093-0.285-9.7-0.626"/>
						<path fill="none" stroke="#F6F1EA" stroke-width="1.5162" stroke-linecap="round" stroke-linejoin="round" d="M54.833,65.055
							c-1.896-0.345-2.962-0.635-2.962-0.635v3.032"/>
						
							<path fill="none" stroke="#F6F1EA" stroke-width="1.5162" stroke-linecap="round" stroke-linejoin="round" stroke-dasharray="6.0254,6.0254" d="
							M51.871,73.477v37.24c0,18.372,5.641,36.411,16.608,51.934c10.976,15.183,28.975,35.699,54.078,45.922l1.429,0.345
							l1.425-0.719c24.725-9.886,43.102-30.397,54.074-45.919c10.973-15.185,16.611-33.22,16.611-51.939V70.807"/>
						<path fill="none" stroke="#F6F1EA" stroke-width="1.5162" stroke-linecap="round" stroke-linejoin="round" d="M196.096,67.794
							v-3.032c-0.026,0-1.156,0.248-2.978,0.558"/>
						
							<path fill="none" stroke="#F6F1EA" stroke-width="1.5162" stroke-linecap="round" stroke-linejoin="round" stroke-dasharray="6.5542,6.5542" d="
							M186.624,66.19c-2.048,0.198-4.27,0.335-6.497,0.335c-21.521,0-42.067-13.065-51.211-19.784"/>
					</g>
				</g>
			</g>
		</g>
	</g>
	
		<path fill="none" stroke="#F6F1EA" stroke-width="0.584" stroke-linecap="round" stroke-linejoin="round" stroke-miterlimit="10" d="
		M132.276,84.141c0.875-0.39,1.409-1.195,1.89-2.066c0.296-0.525,0.555-1.08,0.931-1.557c0.402-0.509,1.104-0.803,1.451-1.327
		c0.395-0.61,0.029-1.378,0.251-2.07c0.354-1.093,2.054-1.097,1.778-2.322c-0.168-0.741-0.77-0.665-0.534-1.321
		c0.303-0.857,1.456-0.771,0.918-2.063c-0.318-0.76-0.932-0.799-0.987-1.625c-0.062-0.95,0.607-1.419-0.304-2.283
		c-0.489-0.464-1.031-0.563-1.479-1.086c-0.567-0.66-0.67-1.391-1.633-1.631c-0.938-0.235-1.296-0.023-2.282-0.661
		c-0.533-0.344-2.177-1.774-2.425-0.468c-0.294-1.632-1.945-0.182-2.534-0.068c-1.037,0.205-3.201-0.844-3.407,1.256
		c-2.12,0.255-2.351,2.544-2.869,4.219c-0.398,1.301-2.199,4.181-1.271,5.461c0.287,0.389,0.891,0.335,1.181,0.74
		c0.274,0.391,0.113,1.031,0.267,1.473c0.222,0.639,0.696,1.41,1.437,1.46c-0.793,4.481,5.54,6.742,8.976,6.131
		C131.866,84.294,132.075,84.226,132.276,84.141z"/>
	
		<path fill="none" stroke="#F6F1EA" stroke-width="0.584" stroke-linecap="round" stroke-linejoin="round" stroke-miterlimit="10" d="
		M115.917,113.694c-0.301,4.603,1.455,10.985,2.125,13.678c0.722,2.884,1.308,5.837,2.647,8.519
		c1.048,2.093-1.742,2.557-0.542,4.567c-1.2,0.236-1.883,0.935-1.933,2.164c2.099,0.555,4.11-1.002,6.324-0.704
		c2.377,0.318,3.164-0.415,2.309-2.61c-1.06-2.721-0.611-6.21-0.464-9.079c0.049-0.976,0.08-1.766-0.35-2.672
		c-0.453-0.963-1.562-1.628-1.942-2.57c-0.572-1.403,1.094-4.39,2.068-5.475c0.503,2.273,1.369,4.488,1.452,6.817
		c0.065,1.86,0.181,3.709,0.472,5.553c0.212,1.339,0.702,2.735,0.728,4.095c0.021,1.422-1.279,3.608-0.439,4.934
		c0.686,1.101,2.273,0.458,3.285,0.162c1.132-0.329,2.214-0.943,3.301-0.183c0.215-0.683,0.185-1.471,0.135-2.173
		c-0.047-0.69-0.146-0.719-0.293-1.372c-0.275-1.244,0.464-2.296,0.809-3.497c0.387-1.35,1.102-2.828,1.132-4.237
		c0.031-1.285-0.815-2.339-0.972-3.557c-0.078-0.603-0.082-1.411-0.103-2.024c-0.045-1.156,0.448-1.636,0.888-2.649
		c0.436-1.015,0.562-2.224,0.574-3.313c0.025-2.353,0.042-4.132-0.952-6.281c-0.875-1.882-0.594-3.651-0.774-5.58
		c-0.183-1.976-0.224-3.968-0.294-5.961c-0.049-1.408,0.398-3.177,0.197-4.459"/>
	
		<path fill="none" stroke="#F6F1EA" stroke-width="0.584" stroke-linecap="round" stroke-linejoin="round" stroke-miterlimit="10" d="
		M123.254,81.008c-0.417,1.229,0.412,3.492-0.615,4.329c-0.526,0.43-2.105,0.039-2.793,0.201c-0.719,0.17-1.332,0.448-1.787,1.042
		c-4.103-1.903-6.32,3.794-8.291,6.106c-1.486,1.747-3.658,2.654-4.523,4.958c-0.948,2.532,0.582,4.804,2.621,6.225
		c1.627,1.136,3.418,1.6,5.365,1.775c-1.756,1.38-0.53,6.001,1.801,6.017c1.44,0.011,1.866-1.596,1.64-2.758
		c-0.237-1.203-0.484-1.933-0.887-2.97c-0.568-1.454,0.172,0.892,0.98,0.56c1.61-0.658,0.76-0.968,0.068-1.649
		c-1.068-1.053-3.771-4.376-4.861-5.406c0.831-0.704,2.519-1.285,3.335-2.085c0.657-0.65,1.256-1.537,1.969-2.096
		c0.373,2.166,1.696,3.758,1.061,5.888c-0.455,1.523-0.389,3.207-0.72,4.745"/>
	
		<path fill="none" stroke="#F6F1EA" stroke-width="0.584" stroke-linecap="round" stroke-linejoin="round" stroke-miterlimit="10" d="
		M133.626,83.009c-1.91,3.661,1.466,2.633,3.921,3.781c3.799,1.776,2.735,7.604,3.396,10.996c0.702,3.577,1.715,5.835-2.037,7.968
		c-2.469,1.401-5.457,1.639-7.738,3.337c-2.303,1.71-7.138,4.27-7.382,2.338c0.602-0.439,1.38-0.179,2.066-0.41
		c-0.679,0.249-1.551,0.022-2.018-0.382c-0.312-0.272,0.433-0.478,0.797-0.469c-0.586-0.1-0.718-1.009,0.718-1.047
		c0.544-0.466,1.004-0.942,1.557-1.399c0.489-0.404,0.339-0.897,0.639-1.442c-0.54,0.445-2.153,1.978-2.928,1.212
		c-0.835-0.829,0.816-2.324,1.375-2.735c2.294-1.688,5.446-1.806,7.911-3.259c1.106-0.649,2.119-1.411,2.998-2.345
		c-1.188-0.509-0.879-2.327-1.458-3.017"/>
	
		<path fill="none" stroke="#F6F1EA" stroke-width="0.584" stroke-linecap="round" stroke-linejoin="round" stroke-miterlimit="10" d="
		M122.383,76.866c0.685-0.253,1.733-1.196,1.88-1.995c0.256-1.36-1.184-1.208-0.872-2.271c0.089-0.29,0.65-0.736,0.808-0.99
		c0.41-0.681,0.688-1.579,0.831-2.354c-0.041,0-0.086-0.002-0.127-0.009c0.319-0.783,0.88-0.761,1.467-1.235
		c0.711-0.571,0.698-1.082,0.962-1.885c1.316-0.104,0.954,0.401,1.79,0.955c0.604,0.405,1.522,0.282,2.05-0.316
		c-0.129,0.579-0.212,1.518,0.559,1.618c0.702,0.088,0.534-0.769,1.203-0.421c0.506,0.265,0.271,1.049,0.741,1.337
		c0.43,0.265,1.136-0.275,1.608,0.148c0.475,0.429,0.125,1.104,0.32,1.719c0.185,0.588,0.801,1.003,0.892,1.639
		c0.078,0.579-0.214,1.154-0.195,1.692c0.022,0.654,0.384,1.042,0.127,1.801c3.193-0.549,0.812-4.631,0.253-6.209
		c-0.365-1.024-0.32-1.9-1.101-2.725c-0.438-0.459-1.283-1.214-1.606-0.214c-1.33-0.479-1.536-2.004-2.618-2.634
		c-1.308-0.764-0.439,1-0.33,1.87c-1.236-0.792-1.471-1.835-3.096-1.514c-1.552,0.302-3.722-0.093-3.955,1.844
		c-0.161,1.318-0.093,1.679-0.951,2.768c-0.798,1.009-0.937,1.671-1.143,2.905c-0.208,1.245-1.02,2.726,0.571,3.419
		c-0.147,0.019-0.27-0.021-0.414-0.057"/>
	
		<path fill="none" stroke="#F6F1EA" stroke-width="0.584" stroke-linecap="round" stroke-linejoin="round" stroke-miterlimit="10" d="
		M131.324,75.89c0.181,0.668,0.365,1.564-0.559,1.534"/>
	
		<path fill="none" stroke="#F6F1EA" stroke-width="0.584" stroke-linecap="round" stroke-linejoin="round" stroke-miterlimit="10" d="
		M126.366,73.793c0.69,1.871,2.978-0.005,2.51-0.208"/>
	
		<path fill="none" stroke="#F6F1EA" stroke-width="0.584" stroke-linecap="round" stroke-linejoin="round" stroke-miterlimit="10" d="
		M132.437,74.771c0.37,1.269,2.411,1.585,2.655,0.28"/>
	
		<path fill="none" stroke="#F6F1EA" stroke-width="0.584" stroke-linecap="round" stroke-linejoin="round" stroke-miterlimit="10" d="
		M126.945,76.083c-2.325-1.042-4.584,2.826-1.599,3.433C127.336,79.923,129.131,77.063,126.945,76.083z"/>
	
		<path fill="none" stroke="#F6F1EA" stroke-width="0.584" stroke-linecap="round" stroke-linejoin="round" stroke-miterlimit="10" d="
		M134.622,80.105c1.745-1.018,0.505-3.294-1.27-3.025C130.909,77.452,132.174,81.532,134.622,80.105z"/>
	
		<path fill="none" stroke="#F6F1EA" stroke-width="0.584" stroke-linecap="round" stroke-linejoin="round" stroke-miterlimit="10" d="
		M128.526,80.009c0.793,0.03,1.729,0.273,2.379,0.208"/>
	
		<path fill="none" stroke="#F6F1EA" stroke-width="0.584" stroke-linecap="round" stroke-linejoin="round" stroke-miterlimit="10" d="
		M125.466,104.086c-0.534-0.335-1.271,0.458-0.764,0.808c0.846,0.579,1.527-1.269,0.204-0.88"/>
	
		<path fill="none" stroke="#F6F1EA" stroke-width="0.584" stroke-linecap="round" stroke-linejoin="round" stroke-miterlimit="10" d="
		M134.427,141.709c0,0,1.571,3.998,0.733,4.557s-23.177,2.653-23.666,2.444c-0.493-0.21-1.223-4.904-0.523-4.975
		C111.667,143.666,134.01,140.523,134.427,141.709z"/>
	
		<path fill="none" stroke="#F6F1EA" stroke-width="0.584" stroke-linecap="round" stroke-linejoin="round" stroke-miterlimit="10" d="
		M146.336,148.5l-11.809-7.091c0,0,0.903,2.809,0.698,4.602c-0.168,1.559,9.706,5.603,9.706,5.603S146.476,148.221,146.336,148.5z"
		/>
	
		<path fill="none" stroke="#F6F1EA" stroke-width="0.584" stroke-linecap="round" stroke-linejoin="round" stroke-miterlimit="10" d="
		M125.894,108.578"/>
	
		<path fill="none" stroke="#F6F1EA" stroke-width="0.584" stroke-linecap="round" stroke-linejoin="round" stroke-miterlimit="10" d="
		M124.064,109.793c0.296-2.721-3.629-1.204-5.268-0.337c-2.063,1.093-3.925,3.636-5.61,5.238c-4.508,4.284-6.873,9.985-9.125,15.685
		c-1.695,4.298-3.173,6.74-5.561,10.716c-1.929,3.222-3.718,3.7-7.155,4.467c-0.929,0.207-5.88,1.454-4.622,3.238
		c0.888,1.261,4.28-0.842,5.622,0.298c1.681,1.423-0.147,5.035,1.794,6.266c1.786,1.134,4.15-1.651,6.071-1.456
		c2.633,0.265,4.11,3.487,7.145,2.302c4.106-1.602,0.162-3.931-2.106-4.523c0.245-2.812,3.565-0.495,5.035-0.799
		c2.504-0.52,1.655-2.415-0.297-3.342c-2.166-1.024-4.684-0.46-5.79-3.037c-1.993-4.655,1.444-11.932,2.369-16.261
		c2.636-4.253,4.911-8.896,7.806-12.95C115.292,114,122.474,105.735,124.064,109.793"/>
	
		<path fill="none" stroke="#F6F1EA" stroke-width="0.584" stroke-linecap="round" stroke-linejoin="round" stroke-miterlimit="10" d="
		M128.593,111.4c0.942,2.586-1.976,4.609-3.938,2.638c-1.835,2.878-3.756-1.192-1.466-2.931"/>
	
		<path fill="none" stroke="#E5A74C" stroke-width="0.379" stroke-linecap="round" stroke-linejoin="round" stroke-miterlimit="10" d="
		M89.269,168.425c0.556-0.596,1.15-1.158,1.741-1.717c-0.606,0.782-1.14,1.628-1.741,2.415c0.598-0.649,1.286-1.188,1.91-1.806
		c-0.741,1.179-1.542,2.323-2.328,3.473c0.681-0.922,1.493-1.733,2.414-2.4c-0.557,1.166-1.358,2.191-2.204,3.169
		c0.658-0.772,1.364-1.4,2.102-2.091c-0.749,1.15-1.579,2.257-2.572,3.212c0.767-1.002,1.64-1.922,2.595-2.746
		c-0.835,1.197-1.768,2.327-2.806,3.35c0.805-1.074,1.738-2.049,2.783-2.887c-0.864,1.19-1.786,2.341-2.808,3.4
		c0.869-1.244,1.79-2.434,2.966-3.405c-0.834,1.294-1.929,2.376-2.876,3.582c0.598-1.175,1.507-2.148,2.512-2.994
		c-0.704,1.162-1.534,2.249-2.459,3.253c0.729-1.022,1.594-1.943,2.56-2.737c-0.612,1.071-1.334,2.08-2.15,3.006
		c0.478-0.602,0.989-1.123,1.507-1.682c-0.503,0.853-0.932,1.602-1.582,2.368c0.369-0.52,0.755-1.027,1.154-1.522
		c-0.511,0.735-1.038,1.266-1.643,1.914c0.233-0.492,0.514-0.957,0.838-1.396c-0.252,0.567-0.613,1.048-1.086,1.45
		c0.181-0.417,0.421-0.793,0.718-1.136c-0.248,0.52-0.579,0.976-1,1.374c1.099-1.193,2.267-2.69,3.561-3.819
		c-0.692,1.125-1.421,2.229-2.233,3.269c0.373-0.6,0.755-1.149,1.165-1.725c-0.372,0.645-0.699,1.294-1.093,1.931
		c0.514-0.884,1.191-1.666,1.992-2.309c-0.446,0.745-0.872,1.491-1.394,2.191c0.169-0.29,0.364-0.555,0.59-0.797
		c-0.147,0.499-0.376,0.955-0.685,1.374c0.204-0.361,0.433-0.702,0.692-1.025c-0.116,0.444-0.305,0.861-0.561,1.243
		c0.437-0.577,0.982-1.054,1.418-1.61c-0.342,0.645-0.572,1.343-0.944,1.988c0.281-0.424,0.616-0.802,0.996-1.143
		c-0.071,0.329-0.169,0.646-0.301,0.955c0.542-0.717,0.628-0.655,0.267,0.188c0.459-0.46,0.941-0.896,1.441-1.309
		c-0.049,1.567-0.534,0.195,0.571,0.08c-0.052,0.232-0.104,0.462-0.161,0.69c0.233-0.366,0.516-0.687,0.849-0.957
		c0.282,0.417,0.959-0.227,1.941-1.266c-0.241,0.485-0.519,0.945-0.831,1.385c0.647-0.7,1.312-1.378,1.914-2.12
		c-0.692,0.797-1.312,1.662-1.857,2.569c0.74-0.715,1.398-1.505,1.974-2.359c-0.583,0.731-1.086,1.445-1.598,2.226
		c1.019-1.244,2.03-2.495,3.132-3.669c-0.568,0.942-1.184,1.862-1.839,2.749c0.568-0.693,1.192-1.339,1.749-2.045
		c-0.417,0.657-0.79,1.339-1.226,1.987c0.681-0.874,1.339-1.766,1.981-2.669c-0.519,0.868-1.057,1.674-1.661,2.488
		c0.466-0.73,0.883-1.49,1.365-2.216c-0.67,0.853-1.373,1.674-2.106,2.471c0.699-1.103,1.387-2.214,2.054-3.339
		c-0.602,0.961-1.301,1.862-2.083,2.686c0.794-0.954,1.482-1.991,2.053-3.093c-0.815,0.813-1.586,1.674-2.301,2.578
		c0.463-0.7,0.798-1.458,1.211-2.177c-0.56,0.63-1.053,1.209-1.515,1.92c0.835-0.758,1.519-1.659,2.023-2.662
		c-0.527,0.694-1.125,1.342-1.651,2.037c0.636-0.952,1.242-1.922,1.816-2.907c-0.563,0.751-1.222,1.436-1.801,2.175
		c0.421-0.758,0.782-1.555,1.226-2.298c-0.361,0.57-0.742,1.125-1.144,1.667c0.366-0.639,0.64-1.285,0.967-1.935
		c-0.407,0.643-0.922,1.227-1.343,1.86c0.143-0.472,0.298-0.94,0.463-1.408c-0.208-0.173-0.309,0.291-0.099-0.769
		c-0.29,0.259-0.548,0.542-0.781,0.853c0.154-0.396,0.315-0.786,0.484-1.175c-0.218,0.277-0.428,0.564-0.627,0.856
		c0.203-0.378,0.395-0.76,0.575-1.152c-1.256,1.284-0.794,0.154-0.519,0.15c-0.929,0.484-0.445,0.564-0.004-0.508
		c-1.072,1.214-0.053-0.19-1.08,0.951c0.195-0.369,0.369-0.745,0.527-1.13c-1.715,1.573-0.41,0.676-0.527,0.309
		c-0.658-0.054-0.631,0.793-0.805-0.409c-0.248,0.232-0.48,0.475-0.707,0.731c0.729-0.14-1.053,0.199-1.459,0.283
		c1.109-0.7,1.767-1.175,2.692-1.948c0.004,0.069,0.012,0.135,0.027,0.205c0.511-0.402,0.989-0.842,1.424-1.322
		c-0.515,0.737-1.048,1.458-1.616,2.154c0.639-1.029,1.376-2.003,2.195-2.902c-0.781,1.089-1.616,2.132-2.338,3.266
		c1.135-1.245,2.203-2.547,3.346-3.779c-1.086,1.064-2.012,2.271-2.93,3.483c0.854-0.99,1.73-1.959,2.629-2.904
		c-0.579,0.986-1.256,1.914-2.016,2.774c0.853-1.041,1.688-2.097,2.651-3.041c-0.61,0.752-1.159,1.555-1.779,2.3
		c0.774-0.764,1.583-1.486,2.433-2.164c-0.609,0.715-1.151,1.491-1.76,2.197c0.561-0.612,1.166-1.183,1.733-1.791
		c-0.647,0.801-1.309,1.586-1.985,2.357c0.812-0.751,1.552-1.577,2.218-2.468c-0.673,0.723-1.414,1.382-2.102,2.09
		c0.628-0.825,1.242-1.663,1.839-2.509c-0.418,0.308-0.797,0.65-1.143,1.034c0.455-0.581,0.824-1.207,1.256-1.79
		c-0.907,0.965-1.771,1.967-2.692,2.916c0.876-0.869,1.62-1.867,2.199-2.949c-0.493,0.639-1.026,1.244-1.522,1.883
		c0.613-0.803,1.151-1.652,1.729-2.479c-0.79,0.804-1.557,1.631-2.293,2.485c0.59-0.748,1.094-1.516,1.639-2.292
		c-0.68,0.776-1.361,1.555-2.042,2.333c0.751-1.011,1.428-2.074,2.034-3.175c-0.685,0.807-1.354,1.635-1.993,2.479
		c0.654-0.892,1.253-1.821,1.783-2.787c-0.579,0.746-1.226,1.43-1.812,2.163c0.669-0.858,1.267-1.772,1.786-2.731
		c-0.466,0.609-0.989,1.168-1.448,1.784c0.361-0.591,0.644-1.228,0.99-1.823c-0.448,0.587-0.945,1.134-1.38,1.733
		c0.387-0.612,0.699-1.282,1.082-1.902c-0.448,0.555-1,1.039-1.459,1.598c0.136-0.419,0.298-0.821,0.486-1.218
		c-1.054,0.623-0.455,0.59-0.271-0.285c-0.485,0.598-0.815,0.398-1.019-0.304c-0.703,0.214,0.308-0.099-0.658,0.351
		c-0.026-0.406,0.083-0.207-0.108-0.513c-0.516,0.347-1.557,0.433-2.885,0.544"/>
	
		<path fill="none" stroke="#E5A74C" stroke-width="0.379" stroke-linecap="round" stroke-linejoin="round" stroke-miterlimit="10" d="
		M88.987,168.142c0.553-0.596,1.147-1.161,1.741-1.718c-0.609,0.783-1.139,1.629-1.738,2.416c0.595-0.649,1.283-1.188,1.903-1.808
		c-0.74,1.179-1.537,2.32-2.324,3.471c0.678-0.918,1.493-1.729,2.414-2.398c-0.56,1.166-1.36,2.19-2.204,3.169
		c0.655-0.771,1.362-1.401,2.099-2.093c-0.745,1.153-1.58,2.259-2.572,3.212c0.767-0.998,1.64-1.921,2.595-2.742
		c-0.835,1.195-1.767,2.323-2.805,3.35c0.805-1.076,1.737-2.05,2.783-2.888c-0.862,1.191-1.787,2.34-2.81,3.401
		c0.869-1.245,1.794-2.434,2.968-3.405c-0.835,1.294-1.925,2.374-2.873,3.582c0.593-1.179,1.507-2.15,2.511-2.999
		c-0.706,1.167-1.538,2.253-2.459,3.256c0.726-1.021,1.59-1.945,2.557-2.736c-0.613,1.07-1.331,2.081-2.147,3.005
		c0.474-0.6,0.986-1.123,1.508-1.684c-0.504,0.856-0.937,1.605-1.587,2.371c0.373-0.52,0.756-1.026,1.155-1.521
		c-0.508,0.733-1.034,1.266-1.644,1.91c0.237-0.489,0.516-0.955,0.839-1.393c-0.251,0.562-0.613,1.048-1.083,1.45
		c0.176-0.419,0.417-0.797,0.714-1.136c-0.249,0.52-0.579,0.976-1,1.372c1.098-1.193,2.271-2.69,3.564-3.82
		c-0.695,1.128-1.421,2.229-2.236,3.271c0.372-0.6,0.756-1.154,1.166-1.725c-0.373,0.645-0.696,1.291-1.095,1.93
		c0.516-0.883,1.192-1.667,1.993-2.308c-0.444,0.745-0.872,1.491-1.392,2.191c0.166-0.29,0.362-0.555,0.591-0.799
		c-0.15,0.496-0.376,0.957-0.684,1.376c0.199-0.362,0.432-0.703,0.688-1.025c-0.117,0.443-0.301,0.86-0.557,1.24
		c0.433-0.577,0.978-1.053,1.417-1.607c-0.342,0.645-0.571,1.341-0.948,1.985c0.287-0.421,0.617-0.803,1.001-1.14
		c-0.072,0.329-0.174,0.645-0.305,0.953c0.541-0.715,0.627-0.653,0.267,0.187c0.459-0.46,0.939-0.894,1.439-1.306
		c-0.048,1.562-0.534,0.19,0.572,0.08c-0.049,0.229-0.105,0.46-0.158,0.689c0.23-0.365,0.511-0.686,0.85-0.957
		c0.281,0.415,0.955-0.226,1.937-1.265c-0.237,0.484-0.516,0.944-0.828,1.382c0.647-0.7,1.308-1.378,1.91-2.117
		c-0.692,0.797-1.312,1.659-1.853,2.567c0.737-0.713,1.398-1.508,1.97-2.357c-0.579,0.73-1.087,1.443-1.595,2.226
		c1.016-1.244,2.031-2.497,3.132-3.67c-0.571,0.943-1.184,1.863-1.842,2.75c0.568-0.694,1.196-1.339,1.752-2.047
		c-0.418,0.659-0.793,1.341-1.23,1.989c0.681-0.879,1.342-1.768,1.986-2.67c-0.52,0.867-1.061,1.672-1.667,2.489
		c0.466-0.73,0.888-1.493,1.369-2.218c-0.672,0.851-1.376,1.676-2.109,2.473c0.703-1.103,1.387-2.214,2.057-3.339
		c-0.602,0.961-1.305,1.862-2.086,2.686c0.792-0.957,1.485-1.992,2.057-3.095c-0.816,0.815-1.587,1.674-2.305,2.579
		c0.466-0.7,0.797-1.46,1.215-2.177c-0.564,0.631-1.053,1.21-1.516,1.921c0.831-0.761,1.519-1.662,2.023-2.662
		c-0.53,0.694-1.127,1.341-1.65,2.037c0.631-0.953,1.236-1.922,1.812-2.912c-0.565,0.756-1.223,1.438-1.798,2.177
		c0.417-0.755,0.778-1.552,1.226-2.296c-0.361,0.569-0.744,1.126-1.147,1.668c0.365-0.641,0.64-1.288,0.971-1.937
		c-0.407,0.645-0.921,1.228-1.346,1.862c0.147-0.472,0.301-0.944,0.462-1.408c-0.207-0.173-0.304,0.291-0.098-0.771
		c-0.285,0.261-0.548,0.544-0.778,0.853c0.151-0.395,0.312-0.787,0.482-1.175c-0.219,0.279-0.425,0.564-0.628,0.856
		c0.207-0.376,0.399-0.758,0.576-1.15c-1.252,1.281-0.79,0.154-0.52,0.15c-0.925,0.48-0.439,0.564-0.003-0.508
		c-1.072,1.214-0.053-0.19-1.076,0.949c0.192-0.368,0.365-0.746,0.527-1.13c-1.719,1.575-0.414,0.676-0.53,0.311
		c-0.658-0.054-0.633,0.792-0.801-0.411c-0.252,0.232-0.485,0.477-0.71,0.731c0.733-0.138-1.049,0.199-1.459,0.285
		c1.109-0.7,1.767-1.177,2.692-1.949c0.007,0.07,0.014,0.136,0.025,0.206c0.512-0.403,0.989-0.845,1.43-1.323
		c-0.52,0.735-1.049,1.458-1.617,2.154c0.64-1.03,1.376-2.002,2.192-2.901c-0.782,1.088-1.616,2.132-2.335,3.266
		c1.132-1.245,2.2-2.547,3.347-3.779c-1.086,1.063-2.016,2.268-2.929,3.483c0.854-0.99,1.729-1.959,2.628-2.904
		c-0.583,0.983-1.26,1.914-2.016,2.772c0.854-1.039,1.685-2.095,2.647-3.039c-0.609,0.751-1.154,1.553-1.778,2.296
		c0.775-0.76,1.587-1.482,2.432-2.16c-0.604,0.712-1.15,1.49-1.759,2.197c0.56-0.614,1.166-1.184,1.733-1.791
		c-0.647,0.799-1.305,1.585-1.986,2.357c0.816-0.752,1.557-1.579,2.219-2.469c-0.673,0.724-1.414,1.383-2.098,2.089
		c0.627-0.825,1.236-1.661,1.835-2.51c-0.414,0.307-0.794,0.651-1.14,1.037c0.452-0.583,0.819-1.207,1.256-1.79
		c-0.906,0.965-1.771,1.967-2.696,2.916c0.876-0.869,1.625-1.869,2.203-2.949c-0.496,0.637-1.03,1.244-1.522,1.881
		c0.613-0.801,1.146-1.653,1.73-2.477c-0.794,0.803-1.561,1.631-2.298,2.485c0.594-0.75,1.099-1.516,1.64-2.296
		c-0.681,0.78-1.357,1.557-2.038,2.337c0.749-1.013,1.425-2.074,2.031-3.18c-0.685,0.81-1.35,1.639-1.993,2.481
		c0.658-0.89,1.252-1.82,1.786-2.787c-0.582,0.745-1.225,1.432-1.815,2.164c0.668-0.86,1.267-1.776,1.786-2.73
		c-0.466,0.609-0.984,1.168-1.443,1.784c0.36-0.592,0.643-1.229,0.989-1.823c-0.452,0.587-0.948,1.133-1.384,1.732
		c0.387-0.613,0.704-1.283,1.087-1.901c-0.448,0.553-1.004,1.039-1.459,1.598c0.131-0.419,0.292-0.823,0.484-1.218
		c-1.056,0.62-0.455,0.59-0.274-0.285c-0.485,0.598-0.816,0.398-1.019-0.304c-0.7,0.213,0.308-0.099-0.655,0.349
		c-0.03-0.404,0.083-0.207-0.113-0.511c-0.515,0.347-1.557,0.433-2.883,0.544"/>
	
		<path fill="none" stroke="#E5A74C" stroke-width="0.379" stroke-linecap="round" stroke-linejoin="round" stroke-miterlimit="10" d="
		M88.772,168.507c0.733-0.808,1.545-1.547,2.421-2.197c-0.545,0.751-1.158,1.427-1.815,2.082"/>
	
		<path fill="none" stroke="#E5A74C" stroke-width="0.379" stroke-linecap="round" stroke-linejoin="round" stroke-miterlimit="10" d="
		M89.043,166.738c0.767-0.797,1.582-1.551,2.433-2.261c-0.842,1.093-1.767,2.119-2.745,3.093c0.76-0.849,1.563-1.653,2.41-2.413
		c-0.489,0.938-1.136,1.789-1.903,2.51c0.564-0.651,1.143-1.23,1.768-1.826c-0.688,0.908-1.41,1.787-2.166,2.642"/>
	
		<path fill="none" stroke="#E5A74C" stroke-width="0.379" stroke-linecap="round" stroke-linejoin="round" stroke-miterlimit="10" d="
		M87.768,161.446c0.132-0.115,0.264-0.23,0.399-0.345c-0.011,0.209-0.099,0.398-0.264,0.561c0.23-0.29,0.466-0.573,0.71-0.849
		c-1.116,1.719,0.41-0.641-0.503,0.849c0.368-0.393,0.36-0.302-0.022,0.271c0.436-0.468,0.451-0.373,1.053-1.049
		c-0.418,0.739-0.538,0.938-0.357,0.6c-0.421-0.477-0.158,2.292,0.079,0.119c-0.538,1.283,0.255,0.092-0.136,0.386
		c-0.011,0.021,1.613-1.709-0.36,0.432c1.913-1.516-0.771,0.762,0.992-0.731c-0.184,0.242-1.037,1.199,0.061,0.047
		c-0.237,0.266-0.481,0.524-0.733,0.776c1.65-1.021-0.019-0.654,0.406-0.08c0.323-0.363,0.666-0.706,1.027-1.032
		c-0.331,0.363-0.677,0.719-1.034,1.062c0.293-0.327,0.598-0.639,0.914-0.94c-0.478,0.505-0.937,1.026-1.414,1.531
		c0.53-0.49,1.086-0.866,1.643-1.313c-0.428,0.435-0.82,0.895-1.177,1.388c0.556-0.546,1.146-1.026,1.722-1.553
		c-0.62,0.603-1.237,1.212-1.872,1.795c0.673-0.665,1.369-1.252,2.087-1.868c-0.783,0.819-1.557,1.643-2.328,2.473
		c0.857-0.772,1.722-1.532,2.599-2.282c-0.854,0.815-1.692,1.641-2.52,2.483c0.674-0.856,1.455-1.627,2.324-2.284
		c-0.808,0.935-1.643,1.843-2.504,2.728c0.85-1.078,1.824-2.058,2.889-2.925c-0.854,0.953-1.737,1.882-2.647,2.779
		c0.586-0.688,1.184-1.301,1.827-1.937c-0.665,0.812-1.338,1.618-2.019,2.415c0.854-0.941,1.783-1.813,2.774-2.604
		c-0.921,0.974-1.824,1.963-2.793,2.888c0.639-0.801,1.387-1.518,2.215-2.128c-0.621,0.821-1.282,1.618-1.979,2.383
		c0.708-0.81,1.493-1.547,2.343-2.202c-0.644,0.845-1.351,1.639-2.11,2.378c0.674-0.776,1.411-1.495,2.201-2.154
		c-0.745,0.888-1.513,1.761-2.294,2.619c0.74-0.838,1.564-1.603,2.451-2.282c-0.741,0.968-1.523,1.904-2.342,2.806"/>
	
		<path fill="none" stroke="#E5A74C" stroke-width="0.379" stroke-linecap="round" stroke-linejoin="round" stroke-miterlimit="10" d="
		M111.633,174.456c-0.237,0.166-0.481,0.329-0.71,0.503c0.172-0.226,0.384-0.431,0.557-0.652c-0.199,0.201-0.425,0.386-0.631,0.583
		c0.172-0.21,0.38-0.411,0.563-0.616c-0.29,0.232-0.579,0.484-0.853,0.731c0.24-0.165,0.436-0.393,0.602-0.621
		c-0.241,0.243-0.557,0.46-0.741,0.728c0.185-0.14,0.373-0.312,0.497-0.514c-0.237,0.23-0.47,0.497-0.676,0.756
		c0.229-0.214,0.435-0.475,0.571-0.743c-0.222,0.172-0.428,0.404-0.62,0.6c0.184-0.271,0.443-0.482,0.627-0.748
		c-0.481,0.382-1.116,1.193-1.711,1.245c0.316-0.407,0.798-0.715,1.219-1.002c-0.511,0.377-1.004,0.846-1.595,1.096
		c0.242-0.356,0.767-0.624,1.125-0.901c-0.459,0.329-0.914,0.717-1.384,1.013c0.486-0.542,1.117-0.901,1.659-1.38
		c-0.729,0.357-1.293,0.961-1.971,1.38c0.361-0.352,0.778-0.682,1.196-0.967c-0.579,0.302-1.098,0.975-1.708,1.123
		c0.391-0.629,1.095-0.972,1.681-1.376c-0.695,0.429-1.342,0.933-2.026,1.372c0.485-0.344,0.962-0.69,1.458-1.015
		c-0.579,0.374-1.166,0.868-1.823,1.084c0.489-0.452,1.249-0.71,1.651-1.214c-0.707,0.208-1.493,0.849-2.075,1.3
		c0.68-0.449,1.379-0.899,2.007-1.421c-0.767,0.318-1.586,0.867-2.283,1.329c0.504-0.312,1.042-0.618,1.504-0.992
		c-0.552,0.091-1.057,0.604-1.561,0.842c0.481-0.361,1.293-0.665,1.636-1.138c-0.695,0.177-1.376,0.666-1.933,1.101
		c0.598-0.306,1.226-0.751,1.753-1.155c-0.764,0.146-1.414,0.814-2.068,1.197c0.398-0.411,0.955-0.662,1.395-1.031
		c-0.432-0.026-1.184,0.641-1.598,0.862c0.493-0.518,1.365-0.735,1.77-1.298c-0.699,0.226-1.375,0.67-1.943,1.134
		c0.41-0.275,0.854-0.523,1.233-0.826c-0.484,0.204-0.947,0.586-1.39,0.875c0.503-0.511,1.191-0.788,1.725-1.257
		c-0.654,0.15-1.184,0.744-1.774,1.048c0.5-0.398,1.095-0.684,1.575-1.103c-0.669,0.244-1.263,0.725-1.869,1.106
		c0.587-0.458,1.219-0.851,1.798-1.311c-0.669,0.268-1.264,0.769-1.843,1.189c0.545-0.434,1.215-0.799,1.696-1.309
		c-0.586,0.253-1.233,0.67-1.742,1.083c0.489-0.424,1.031-0.771,1.531-1.173c-0.583,0.361-1.204,0.71-1.733,1.147
		c0.406-0.359,0.992-0.684,1.315-1.092c-0.605,0.295-1.256,0.725-1.756,1.183c0.527-0.45,1.109-0.836,1.62-1.296
		c-0.634,0.218-1.18,0.768-1.722,1.158c0.52-0.602,1.26-0.961,1.801-1.508c-0.718,0.321-1.383,0.795-2.057,1.204
		c0.47-0.456,1.027-0.823,1.5-1.277c-0.533,0.308-1.143,0.719-1.575,1.138c0.602-0.48,1.226-0.927,1.82-1.413
		c-0.538,0.104-1.226,0.6-1.667,0.965c0.448-0.441,1.087-0.833,1.613-1.252c-0.831,0.146-1.647,0.885-2.271,1.436
		c0.545-0.518,1.122-0.996,1.712-1.456c-0.579,0.205-1.065,0.739-1.583,1.067c0.561-0.575,1.267-1.074,1.914-1.549
		c-0.786,0.259-1.812,1.152-2.346,1.746c0.639-0.538,1.312-1.043,1.948-1.583c-0.771,0.326-1.658,0.932-2.237,1.542
		c0.737-0.51,1.598-1.087,2.245-1.696c-0.636,0.201-1.55,0.836-2.004,1.335c0.583-0.411,1.305-0.875,1.76-1.434
		c-0.47,0.144-1.203,0.534-1.47,0.97c0.651-0.161,1.643-1.048,2.106-1.528c-0.831,0.209-1.907,1.074-2.478,1.709
		c0.752-0.268,1.474-1.342,2.071-1.89c-0.718,0.246-1.722,1.129-2.203,1.709c0.819-0.518,1.883-1.362,2.474-2.148
		c-0.925,0.32-2.027,1.125-2.677,1.853c0.751-0.487,1.673-1.186,2.286-1.849c-0.677,0.326-1.76,0.959-2.158,1.569
		c1.004-0.62,2.121-1.541,2.971-2.357c-0.872,0.41-2.448,1.285-2.915,2.181c0.621-0.415,1.407-1.022,1.88-1.602
		c-0.661,0.055-1.594,1.053-2.057,1.566c0.85-0.557,1.658-1.341,2.433-2.011c-0.861,0.514-1.903,1.068-2.591,1.808
		c0.918-0.711,1.756-1.536,2.689-2.23c-0.823,0.551-2.26,1.142-2.764,2.027c0.812-0.557,1.76-1.243,2.421-1.986
		c-0.865,0.268-1.925,1.002-2.568,1.676c0.884-0.509,1.613-1.335,2.481-1.89c-0.774,0.621-1.718,1.074-2.395,1.812
		c0.849-0.645,1.756-1.376,2.508-2.121c-0.396,0.218-2.263,1.205-2.192,1.581c0.59-0.367,1.301-0.87,1.708-1.429
		c-0.64,0.272-1.282,0.805-1.791,1.279c0.73-0.575,1.621-1.21,2.234-1.902c-0.688,0.23-1.824,0.822-2.227,1.442
		c0.749-0.534,1.474-1.117,2.207-1.676c-0.88,0.533-1.681,1.162-2.497,1.782c0.704-0.924,1.79-1.557,2.711-2.238
		c-1.049,0.521-2.079,1.195-2.982,1.94c0.745-0.782,1.764-1.331,2.498-2.093c-0.719,0.374-1.606,0.854-2.106,1.508
		c1.023-0.795,2.102-1.512,3.132-2.292c-0.913,0.333-2.274,1.072-2.869,1.815c0.775-0.391,1.719-1.072,2.316-1.724
		c-0.681,0.266-1.462,0.8-1.982,1.305c0.903-0.503,1.708-1.314,2.516-1.949c-0.771,0.441-1.944,0.916-2.497,1.608
		c0.79-0.188,1.793-1.323,2.489-1.853c-0.82,0.571-1.711,1.035-2.512,1.626c1.007-0.661,1.91-1.475,2.903-2.162
		c-0.956,0.553-2.215,1.097-2.997,1.901c1.102-0.361,1.921-1.525,2.975-2.056c-0.963,0.409-2.52,1.068-3.133,1.972
		c0.85-0.259,1.538-1.074,2.256-1.587c0.41-0.298,0.835-0.573,1.264-0.845c-0.914,0.312-2.095,0.97-2.768,1.659
		c1.042-0.505,2.32-1.33,3.159-2.086c-0.914,0.431-2.009,0.858-2.783,1.527c0.733-0.242,2.12-0.978,2.625-1.52
		c-0.631,0.206-1.647,0.549-2.11,1.035c0.873-0.267,2.088-0.745,2.769-1.374c-0.809,0.224-1.715,0.641-2.434,1.099
		c0.632,0.091,1.771-0.73,2.343-1.035c-0.249,0.145-0.493,0.292-0.73,0.452c0.459-0.033,0.898-0.324,1.361-0.308
		c-0.229,0.166-0.507,0.265-0.751,0.414c0.315-0.063,0.627-0.199,0.936-0.289c-0.236,0.127-0.492,0.207-0.748,0.302
		c0.405-0.056,0.808-0.3,1.21-0.363c-0.339,0.154-0.708,0.283-1.061,0.404c0.429-0.156,0.846-0.322,1.286-0.443
		c-0.263,0.147-0.557,0.226-0.831,0.341c0.407-0.088,0.794-0.281,1.215-0.345c-0.417,0.188-0.85,0.353-1.278,0.507
		c0.507-0.129,0.989-0.382,1.5-0.475c-0.375,0.27-0.85,0.45-1.282,0.612c0.463-0.183,0.932-0.354,1.396-0.518
		c-0.448,0.201-0.887,0.452-1.365,0.587c0.62-0.233,1.233-0.564,1.88-0.714c-0.456,0.274-0.997,0.433-1.493,0.628
		c0.391-0.164,0.815-0.312,1.233-0.402c-0.432,0.308-0.997,0.562-1.516,0.686c0.455-0.146,0.921-0.449,1.373-0.525
		c-0.489,0.328-1.045,0.54-1.583,0.78c0.609-0.226,1.218-0.479,1.854-0.614c-0.451,0.193-0.921,0.385-1.354,0.627
		c0.482-0.173,0.959-0.35,1.444-0.518c-0.485,0.259-1.003,0.464-1.492,0.698c0.488-0.188,0.969-0.37,1.466-0.544
		c-0.429,0.211-0.876,0.396-1.282,0.634c0.507-0.155,1.019-0.39,1.504-0.605c-0.534,0.294-1.11,0.523-1.651,0.797
		c0.631-0.24,1.23-0.564,1.854-0.832c-0.586,0.181-1.109,0.551-1.666,0.797c0.534-0.316,1.196-0.661,1.821-0.764
		c-0.587,0.365-1.249,0.612-1.858,0.928c0.62-0.24,1.214-0.556,1.861-0.723c-0.636,0.275-1.308,0.61-1.944,0.937
		c0.609-0.402,1.331-0.696,2.023-0.916c-0.654,0.407-1.387,0.746-2.095,1.052c0.673-0.32,1.369-0.594,2.072-0.836
		c-0.643,0.271-1.271,0.598-1.891,0.922c0.609-0.382,1.335-0.609,1.982-0.928c-0.662,0.267-1.407,0.611-2,1.01
		c0.606-0.283,1.26-0.62,1.917-0.747c-0.56,0.316-1.15,0.585-1.68,0.957c0.643-0.181,1.281-0.579,1.887-0.867
		c-0.64,0.387-1.425,0.635-2.008,1.109c0.673-0.228,1.357-0.551,1.99-0.879c-0.561,0.308-1.125,0.607-1.674,0.928
		c0.643-0.144,1.384-0.542,1.937-0.95c-0.7,0.203-1.5,0.819-2.136,1.188c0.854-0.468,1.741-0.918,2.625-1.324
		c-1.121,0.343-2.505,1.169-3.489,1.854c1.184-0.51,2.455-0.994,3.586-1.567c-0.729,0.38-2.125,0.754-2.553,1.426
		c0.729-0.302,1.471-0.672,2.173-1.033c-0.969,0.271-1.948,0.871-2.824,1.363c1.102-0.427,2.242-0.881,3.317-1.38
		c-0.805,0.309-1.688,0.67-2.392,1.163c0.786-0.124,1.575-0.592,2.319-0.865c-0.978,0.393-1.969,0.812-2.895,1.32
		c0.838-0.406,1.726-0.737,2.587-1.092c-0.793,0.185-1.616,0.706-2.331,1.101c0.857-0.23,1.695-0.604,2.538-0.896
		c-0.76,0.333-1.557,0.682-2.275,1.103c0.79-0.339,1.658-0.598,2.414-1.013c-1.151,0.202-2.35,0.897-3.369,1.442
		c0.785-0.222,2.09-0.614,2.741-1.117c-0.873,0.334-1.782,0.747-2.572,1.252c1.03-0.377,2.222-0.846,3.132-1.466
		c-0.959,0.253-1.921,0.894-2.797,1.355c1.075-0.436,2.132-0.931,3.2-1.376c-0.839,0.304-1.625,0.723-2.421,1.123
		c-0.52,0.263-1.215,0.506-1.651,0.877c1.185-0.507,2.41-0.981,3.568-1.536c-1.011,0.423-2.027,0.966-2.974,1.516
		c1.045-0.503,2.263-0.881,3.222-1.536c-0.978,0.162-2.308,1.033-3.154,1.598c0.928-0.419,1.838-0.891,2.767-1.31
		c-0.981,0.447-1.91,0.998-2.88,1.466c1.214-0.477,2.387-1.067,3.632-1.475c-0.917,0.48-2.106,0.83-2.907,1.485
		c0.798-0.277,1.689-0.61,2.418-1.017c-0.704,0.233-1.466,0.583-2.098,0.981c0.824-0.329,1.681-0.62,2.493-0.97
		c-0.522,0.197-1.099,0.439-1.542,0.778c0.538-0.151,1.034-0.445,1.565-0.618c-0.501,0.22-1.02,0.448-1.482,0.737
		c0.398-0.136,0.751-0.38,1.158-0.49c-0.233,0.086-0.459,0.194-0.699,0.267c0.267-0.185,0.594-0.279,0.879-0.427
		c-0.432,0.16-0.86,0.341-1.267,0.559c0.102-0.058,0.208-0.148,0.305-0.21c-0.489,0.033-0.974,0.316-1.471,0.214
		c-0.007-0.247,0.249-0.4,0.44-0.536c-0.561,0.203-1.158,0.631-1.764,0.651c0.255-0.21,0.605-0.374,0.925-0.456
		c-0.428,0.304-1.116,0.564-1.636,0.6c0.297-0.185,0.613-0.352,0.937-0.477c-0.395,0.125-0.785,0.333-1.203,0.343
		c0.151-0.08,0.301-0.156,0.455-0.228c-0.248,0.069-0.473,0.205-0.726,0.254c0.185-0.106,0.388-0.194,0.572-0.3
		c-0.169,0.078-0.342,0.156-0.523,0.212c0.117-0.076,0.226-0.171,0.342-0.244c-0.203,0.127-0.428,0.255-0.643,0.328
		c0.166-0.136,0.346-0.25,0.531-0.361c-0.185,0.07-0.354,0.181-0.531,0.242c0.086-0.069,0.219-0.183,0.331-0.25
		c-0.188,0.129-0.379,0.254-0.59,0.337c0.144-0.145,0.316-0.253,0.486-0.366c-0.185,0.093-0.369,0.189-0.552,0.286
		c0.104-0.101,0.244-0.204,0.383-0.284c-0.222,0.138-0.462,0.284-0.71,0.339c0.127-0.088,0.251-0.192,0.391-0.267
		c-0.143,0.091-0.297,0.156-0.459,0.199c0.041-0.033,0.098-0.076,0.143-0.113c-0.09,0.037-0.202,0.05-0.297,0.089
		c0.049-0.05,0.102-0.13,0.166-0.188c-0.124,0.078-0.406,0.247-0.598,0.333c0.105-0.08,0.218-0.205,0.327-0.296
		c-0.089,0.063-0.259,0.125-0.354,0.177c-0.003-0.013,0.09-0.095,0.095-0.103c-0.061,0.041-0.125,0.082-0.196,0.113
		c0.087,0.014,0.128-0.058,0.154-0.068"/>
	
		<path fill="none" stroke="#E5A74C" stroke-width="0.379" stroke-linecap="round" stroke-linejoin="round" stroke-miterlimit="10" d="
		M108.058,161.182c-0.113,0.106-0.222,0.207-0.305,0.343c0.098-0.104,0.294-0.368,0.433-0.518c-0.131,0.173-0.281,0.341-0.444,0.484
		c0.128-0.151,0.271-0.312,0.41-0.451c-0.127,0.271-0.383,0.538-0.635,0.714c0.154-0.248,0.35-0.521,0.576-0.702
		c-0.249,0.343-0.587,0.616-0.899,0.912c0.388-0.179,0.599-0.624,0.959-0.813c-0.12,0.309-0.402,0.557-0.624,0.81
		c0.267-0.275,0.504-0.575,0.76-0.853c-0.301,0.534-0.828,0.901-1.143,1.419c0.383-0.406,0.666-0.896,1.05-1.302
		c-0.357,0.657-1.083,1.026-1.498,1.635c0.407-0.462,0.737-1.138,1.294-1.43c-0.334,0.663-1.042,1.08-1.312,1.776
		c0.613-0.536,0.948-1.349,1.575-1.854c-0.293,0.655-0.984,1.08-1.448,1.612c0.636-0.425,1.05-1.23,1.663-1.721
		c-0.249,0.856-1.433,1.279-1.71,2.052c0.631-0.419,1.093-1.21,1.661-1.722c-0.402,0.646-1.109,1.07-1.549,1.696
		c0.624-0.369,0.896-1.183,1.535-1.49c-0.038,0.425-0.554,0.899-0.835,1.211c0.322-0.353,0.616-0.801,0.98-1.097
		c-0.236,0.316-0.537,0.625-0.827,0.892c0.191-0.246,0.439-0.466,0.609-0.719c-0.255,0.287-0.47,0.598-0.703,0.899
		c0.072-0.097,0.147-0.188,0.219-0.287c-0.054,0.114-0.113,0.205-0.185,0.308c0.095-0.028,0.038-0.074,0.053-0.127"/>
	
		<path fill="none" stroke="#E5A74C" stroke-width="0.379" stroke-linecap="round" stroke-linejoin="round" stroke-miterlimit="10" d="
		M112.566,160.124c0.263,0.144,0.816-0.201,1.079-0.346c-0.263,0.165-0.602,0.284-0.819,0.497c0.267-0.06,0.537-0.183,0.823-0.218
		c-0.244,0.076-0.531,0.186-0.703,0.341c0.339-0.073,0.751-0.293,1.027-0.455c-0.305,0.086-0.633,0.226-0.839,0.464
		c0.346-0.08,0.651-0.32,0.952-0.505c-0.29,0.146-0.564,0.336-0.857,0.46c0.259-0.104,0.534-0.325,0.673-0.545
		c-0.349,0.009-0.767,0.175-1.023,0.434c0.169-0.106,0.346-0.214,0.534-0.292c-0.181,0.115-0.365,0.225-0.527,0.366
		c0.388-0.152,0.764-0.333,1.144-0.493c-0.23,0.181-0.508,0.32-0.715,0.505c0.38-0.047,0.71-0.357,1.061-0.518
		c-0.237,0.202-0.531,0.364-0.733,0.586c0.277-0.101,0.548-0.281,0.789-0.467c-0.188,0.186-0.421,0.341-0.589,0.526
		c0.458-0.138,0.89-0.506,1.297-0.748c-0.392,0.156-0.749,0.395-1.075,0.653c0.24-0.125,0.48-0.347,0.745-0.462
		c-0.11,0.149-0.256,0.265-0.407,0.371c0.334-0.166,0.643-0.388,0.97-0.572c-0.376,0.211-0.816,0.462-1.125,0.766
		c0.376-0.117,0.636-0.419,0.996-0.559c-0.255,0.255-0.598,0.428-0.879,0.643c0.511-0.22,0.944-0.605,1.439-0.86
		c-0.421,0.309-0.928,0.514-1.316,0.862c0.486-0.057,0.941-0.525,1.373-0.741c-0.493,0.421-1.204,0.618-1.669,1.104
		c0.696-0.145,1.252-0.847,1.91-1.126c-0.417,0.374-0.947,0.596-1.372,0.961c0.556-0.209,0.962-0.637,1.462-0.932
		c-0.466,0.462-1.425,0.622-1.749,1.16c0.764-0.296,1.343-0.899,2.083-1.242c-0.534,0.361-1.493,0.665-1.839,1.164
		c0.685-0.212,1.167-0.856,1.821-1.115c-0.71,0.499-1.595,0.817-2.237,1.393c0.869-0.167,1.47-1.022,2.237-1.393
		c-0.631,0.493-1.666,0.838-2.106,1.487c0.887-0.303,1.688-1.138,2.512-1.586c-0.632,0.579-1.749,0.944-2.26,1.614
		c0.866-0.322,1.561-1.148,2.418-1.551c-0.688,0.696-1.812,0.942-2.444,1.709c0.933-0.166,1.684-1.279,2.557-1.661
		c-0.598,0.602-1.975,0.944-2.316,1.661c0.921-0.283,1.823-1.13,2.595-1.685c-0.801,0.61-2.253,1.23-2.812,2.072
		c0.842-0.201,1.715-1.084,2.414-1.591c-0.809,0.52-1.846,1.073-2.475,1.803c0.943-0.339,1.764-1.104,2.595-1.649
		c-0.774,0.625-1.654,1.16-2.376,1.853c0.946-0.371,1.707-1.236,2.548-1.812c-0.902,0.52-1.827,1.266-2.583,1.97
		c0.939-0.347,1.876-1.37,2.695-1.929c-0.857,0.528-1.853,1.255-2.493,2.025c0.437-0.054,0.956-0.645,1.287-0.892
		c0.398-0.298,0.812-0.579,1.226-0.862c-0.85,0.555-1.617,1.259-2.354,1.942c0.892-0.466,1.625-1.287,2.441-1.877
		c-0.617,0.398-1.174,0.918-1.749,1.38c-0.387,0.316-0.895,0.614-1.17,1.027c0.971-0.62,1.681-1.59,2.722-2.119
		c-0.748,0.71-1.605,1.33-2.312,2.078c0.876-0.521,1.486-1.448,2.389-1.922c-0.979,1.036-2.283,1.758-3.208,2.85
		c0.617,0.033,1.756-1.419,2.181-1.803c0.271-0.242,0.545-0.525,0.883-0.67c-0.736,0.834-1.872,1.422-2.526,2.312
		c0.969-0.624,1.598-1.727,2.628-2.296c-0.849,0.981-2.309,1.614-2.933,2.765c0.703-0.115,1.391-1.249,1.873-1.709
		c0.319-0.312,0.725-0.723,1.143-0.881c-0.865,0.846-1.948,1.641-2.688,2.59c1.09-0.456,1.681-2.247,2.815-2.506
		c-0.774,1.227-2.218,2.001-3.125,3.139c1.211-0.465,1.787-2.374,3.049-2.674c-0.402,0.969-1.684,1.626-2.339,2.443
		c0.846-0.657,1.516-1.767,2.49-2.251c-0.21,0.387-0.681,0.726-1,1.027c-0.678,0.634-1.357,1.265-2.049,1.883
		c0.951-0.827,1.876-2.039,3.03-2.588c-0.699,0.996-1.88,1.625-2.65,2.56c0.925-0.662,1.62-1.612,2.579-2.241
		c-0.823,1.156-2.226,1.912-3.151,2.994c1-0.784,1.876-1.946,3.05-2.482c-0.71,1.004-1.948,1.612-2.753,2.53
		c1.004-0.43,1.542-1.713,2.576-2.14c-0.864,1.099-2.252,1.85-3.102,2.935c1.037-0.785,1.865-1.849,2.989-2.526
		c-0.681,0.842-1.59,1.503-2.335,2.286c0.62-0.156,1.335-1.048,1.808-1.528c-0.525,0.471-1.007,0.992-1.53,1.469
		c-0.26,0.238-0.658,0.492-0.737,0.833c0.989-0.887,1.873-2.008,3.072-2.633c-0.782,1.109-2.312,1.752-2.941,2.958
		c1.128-0.651,1.918-1.836,3.012-2.56c-0.947,0.802-1.939,1.647-2.741,2.596c0.955-0.375,1.722-1.604,2.598-2.188
		c-0.812,1.063-1.985,1.885-2.827,2.94c0.947-0.674,1.602-1.688,2.549-2.348c-0.725,0.906-1.831,1.604-2.437,2.597
		c0.888-0.469,1.587-1.432,2.38-2.02c-0.842,1.027-1.865,1.91-2.74,2.908c1.127-0.749,1.955-1.938,3.131-2.647
		c-1.004,1.029-2.12,2.027-3.034,3.137c0.892-0.646,1.621-1.493,2.52-2.124c-0.711,0.698-1.678,1.499-2.174,2.352
		c0.695-0.559,1.267-1.275,2.007-1.772c-0.545,0.731-1.478,1.405-1.849,2.227c0.707-0.726,1.327-1.532,2.143-2.148
		c-0.767,0.99-1.959,1.828-2.568,2.869c0.918-0.69,1.64-1.604,2.539-2.318c-0.778,1.199-2.068,2.024-2.892,3.179
		c0.939-0.704,1.681-1.723,2.534-2.53c-0.733,0.912-1.549,1.778-2.222,2.744c0.955-0.512,1.425-1.86,2.372-2.403
		c-0.763,1-1.662,1.884-2.471,2.843c0.557-0.526,1.045-1.245,1.701-1.651c-0.448,0.844-1.335,1.426-1.839,2.247
		c0.907-0.592,1.512-1.603,2.452-2.154c-0.429,0.735-1.099,1.31-1.565,2.021c0.541-0.503,1.079-1.033,1.599-1.562
		c-0.787,0.776-1.757,1.594-2.31,2.559c0.801-0.477,1.466-1.38,2.14-2.046c-0.452,0.398-2.377,2.033-2.343,2.53
		c0.801-0.717,1.5-1.725,2.411-2.292c-0.508,0.785-1.173,1.526-1.839,2.171c0.391-0.402,0.782-0.815,1.158-1.234
		c-0.466,0.649-1.057,1.273-1.636,1.819c0.316-0.328,0.647-0.675,1-0.965c-0.339,0.419-0.703,0.914-1.128,1.249
		c0.199-0.333,0.557-0.584,0.832-0.854c-0.324,0.255-0.583,0.566-0.884,0.838c0.094-0.119,0.185-0.242,0.287-0.357
		c-0.147,0.14-0.283,0.296-0.425,0.438c0.116-0.229,0.297-0.439,0.447-0.659c-0.207,0.193-0.376,0.423-0.564,0.628
		c0.075-0.121,0.147-0.246,0.233-0.365c-0.127,0.14-0.267,0.263-0.428,0.349c0.014-0.055,0.03-0.106,0.048-0.16
		c-0.071,0.132-0.207,0.247-0.293,0.329c0.041-0.158,0.125-0.318,0.222-0.456c-0.083,0.121-0.192,0.214-0.286,0.304
		c0.044-0.094,0.067-0.211,0.112-0.308c-0.147,0.106-0.281,0.273-0.424,0.402c0.375-0.222,0.827-0.568,1.301-0.653
		c-0.027,0.206-0.117,0.389-0.181,0.592c0.439-0.279,0.767-0.769,1.184-1.095c-0.136,0.232-0.354,0.441-0.485,0.688
		c0.76-0.633,1.316-1.522,2.192-2.015c-0.162,0.624-0.876,1.49-1.298,1.916c0.332-0.653,1.128-1.271,1.282-1.992
		c-0.722,0.497-1.075,1.369-1.695,1.959c0.311-0.6,0.756-1.109,1.105-1.68c-0.47,0.628-1.038,1.188-1.613,1.721
		c0.362-0.436,0.764-0.91,1.219-1.249c-0.237,0.588-0.888,1.212-1.354,1.635c0.456-0.488,0.907-1.263,1.511-1.577
		c-0.082,0.46-0.634,0.994-0.898,1.424c0.283-0.327,0.534-0.696,0.866-0.972c-0.09,0.285-0.275,0.564-0.366,0.836
		c0.357-0.384,0.742-0.947,1.242-1.15c-0.192,0.555-0.708,0.953-0.854,1.543c0.308-0.243,0.485-0.601,0.782-0.851
		c-0.192,0.357-0.414,0.752-0.673,1.067c0.199-0.349,0.553-0.755,0.883-0.959c-0.12,0.344-0.398,0.75-0.639,1.029
		c0.12-0.193,0.29-0.352,0.443-0.514c-0.052,0.142-0.094,0.296-0.158,0.432c0.181-0.197,0.346-0.407,0.553-0.569
		c-0.037,0.097-0.045,0.232-0.098,0.333c0.09-0.108,0.24-0.175,0.316-0.232c-0.054,0.189-0.163,0.366-0.267,0.543
		c0.127-0.16,0.263-0.316,0.424-0.432c-0.019,0.056-0.041,0.123-0.055,0.183c0.06-0.069,0.146-0.121,0.206-0.187
		c-0.026,0.082-0.026,0.197-0.052,0.281c0.075-0.101,0.202-0.162,0.274-0.23c-0.038,0.109-0.041,0.253-0.09,0.364
		c0.052-0.054,0.162-0.117,0.21-0.167c0.011,0.029-0.004,0.117,0.038,0.134c0.146-0.056,0.222-0.164,0.247-0.218"/>
	
		<path fill="none" stroke="#E5A74C" stroke-width="0.379" stroke-linecap="round" stroke-linejoin="round" stroke-miterlimit="10" d="
		M121.489,166.187c-0.053,0.155,0.38-0.381,0.496-0.491c-0.229,0.265-0.481,0.516-0.707,0.786c0.327-0.363,0.627-0.751,0.978-1.095
		c-0.375,0.372-0.997,0.838-1.169,1.346c0.462-0.382,0.672-1.035,1.218-1.335c-0.256,0.45-0.774,0.772-1.09,1.189
		c0.323-0.29,0.594-0.696,0.902-1.017c-0.334,0.337-0.677,0.665-0.98,1.022c0.338-0.378,0.661-0.871,1.105-1.128
		c-0.354,0.471-0.872,0.806-1.215,1.296c0.527-0.598,1.083-1.226,1.749-1.665c-0.563,0.548-1.294,1.08-1.737,1.715
		c0.666-0.521,1.117-1.382,1.922-1.721c-0.396,0.702-1.226,1.114-1.723,1.745c0.579-0.551,1.049-1.294,1.775-1.678
		c-0.522,0.717-1.312,1.249-1.888,1.929c0.877-0.756,1.617-1.635,2.591-2.284c-0.755,0.903-1.749,1.625-2.546,2.493
		c0.271-0.127,0.448-0.419,0.655-0.645c0.462-0.506,0.996-1.039,1.609-1.359c-0.507,0.885-1.692,1.47-2.297,2.339
		c0.898-0.598,1.759-1.668,2.542-2.473c-0.704,0.918-1.779,1.575-2.396,2.553c0.873-0.821,1.655-1.737,2.557-2.538
		c-0.643,0.973-1.921,1.671-2.44,2.721c0.906-0.651,1.421-1.784,2.399-2.393c-0.681,0.97-1.704,1.702-2.399,2.674
		c0.906-0.73,1.489-1.879,2.482-2.53c-0.798,1.029-1.952,1.856-2.572,3.02c1.053-0.493,1.545-1.824,2.519-2.399
		c-0.421,1.081-1.496,1.865-2.132,2.822c0.613-0.484,1.03-1.203,1.59-1.746c-0.504,0.748-1.147,1.393-1.677,2.124
		c0.579-0.624,1.136-1.266,1.797-1.804c-0.132,0.765-1.315,1.853-1.861,2.354c0.515-0.65,1.233-1.47,1.944-1.914
		c-0.376,0.715-0.993,1.331-1.5,1.96c0.369-0.398,0.835-1.033,1.335-1.262c-0.226,0.555-0.726,0.966-0.959,1.519
		c0.324-0.253,0.552-0.596,0.854-0.873c-0.222,0.339-0.451,0.686-0.677,1.024c0.353-0.257,0.658-0.626,0.939-0.955
		c-0.161,0.4-0.451,0.733-0.65,1.115c0.293-0.226,0.561-0.54,0.786-0.836c-0.218,0.37-0.433,0.754-0.621,1.134
		c0.245-0.234,0.493-0.497,0.674-0.784c-0.136,0.341-0.399,0.628-0.52,0.971c0.256-0.289,0.493-0.605,0.726-0.905
		c-0.29,0.432-0.609,0.846-0.876,1.29c0.199-0.224,0.387-0.46,0.568-0.698c-0.143,0.304-0.357,0.589-0.523,0.891
		c0.338-0.371,0.662-0.825,1.034-1.138c-0.226,0.424-0.568,0.785-0.752,1.229c0.241-0.169,0.421-0.479,0.621-0.704
		c-0.125,0.231-0.278,0.445-0.399,0.68c0.237-0.197,0.418-0.448,0.647-0.653c-0.131,0.322-0.439,0.618-0.496,0.951
		c0.15-0.14,0.286-0.294,0.428-0.439c-0.136,0.244-0.301,0.479-0.41,0.737c0.251-0.197,0.466-0.448,0.685-0.683
		c-0.154,0.206-0.334,0.37-0.429,0.606c0.169-0.175,0.339-0.352,0.508-0.53c-0.144,0.216-0.332,0.425-0.444,0.67
		c0.219-0.156,0.414-0.368,0.606-0.559c-0.072,0.103-0.113,0.22-0.177,0.322c0.116-0.086,0.285-0.16,0.394-0.259
		c-0.116,0.183-0.292,0.33-0.39,0.516c0.173-0.104,0.342-0.277,0.496-0.405c-0.041,0.05-0.098,0.134-0.151,0.195
		c0.192-0.117,0.365-0.261,0.564-0.363c-0.031,0.074-0.049,0.21-0.098,0.292c0.121-0.105,0.271-0.23,0.429-0.298
		c0,0,0.015,0.045,0.039,0.051c0.16-0.135,0.333-0.296,0.518-0.369c-0.123,0.179-0.271,0.339-0.39,0.52
		c0.146-0.115,0.283-0.24,0.427-0.361c-0.021,0.06-0.037,0.146-0.06,0.211c0.142-0.101,0.298-0.236,0.439-0.287
		c-0.078,0.11-0.132,0.263-0.19,0.374c0.209-0.181,0.416-0.37,0.661-0.501c-0.009,0.041,0.004,0.127-0.009,0.188
		c0.193-0.156,0.395-0.363,0.604-0.53c-0.065,0.111-0.121,0.271-0.209,0.389c0.493-0.312,1.011-1.14,1.622-1.21
		c-0.021,0.076-0.012,0.173-0.03,0.247c0.434-0.23,0.782-0.674,1.14-1.015c-0.271,0.279-0.557,0.57-0.782,0.887
		c0.257-0.263,0.529-0.534,0.706-0.85c-0.294,0.248-0.507,0.583-0.771,0.862c0.335-0.409,0.748-0.815,1.001-1.281
		c-0.504,0.453-0.972,1.024-1.385,1.562c0.434-0.731,1.054-1.432,1.567-2.111c-0.752,0.953-1.557,2.214-2.575,2.897
		c0.795-0.993,1.817-1.971,2.443-3.08c-0.946,0.661-1.614,1.821-2.499,2.592c0.643-1.142,1.764-1.99,2.538-3.035
		c-0.95,0.706-1.747,1.836-2.534,2.711c0.877-0.962,1.395-2.2,2.273-3.154c-0.727,0.94-1.441,1.911-2.242,2.788
		c0.228-0.394,0.669-0.932,0.937-1.324c0.404-0.594,0.788-1.411,1.351-1.869c-0.682,0.986-1.47,2.015-2.382,2.795
		c0.678-0.961,1.173-2.551,2.132-3.253c-0.551,0.976-1.316,1.908-2.046,2.756c0.806-1.049,1.222-2.557,2.177-3.456
		c-0.579,1.033-1.458,1.959-2.267,2.819c0.78-0.903,1.113-2.09,1.815-3.041c-0.493,1.004-1.417,1.741-1.978,2.7
		c0.872-1.028,1.229-2.48,2.244-3.393c-0.521,1.089-1.499,1.97-2.29,2.854c0.59-0.891,1.212-2.008,2.081-2.637
		c-0.642,0.575-1.43,1.101-1.968,1.767c0.929-0.583,1.583-1.586,2.565-2.099c-0.312,0.427-0.783,0.807-1.182,1.133
		c0.341-0.378,0.76-0.784,1.184-1.071c-0.124,0.153-0.263,0.291-0.403,0.431c0.321-0.201,0.577-0.472,0.892-0.673
		c-0.11,0.14-0.222,0.291-0.318,0.441c0.203-0.105,0.393-0.253,0.54-0.432c-0.101,0.054-0.224,0.125-0.313,0.226
		c0.041-0.034,0.09-0.08,0.121-0.104c-0.222,0.14-0.434,0.311-0.683,0.395c0.095-0.144,0.21-0.279,0.325-0.415
		c-0.407,0.238-0.76,0.608-1.184,0.832c0.145-0.183,0.316-0.352,0.479-0.516c-0.511,0.3-1.041,0.897-1.507,1.304
		c0.54-0.431,0.981-0.976,1.447-1.484c-0.637,0.661-1.306,1.285-1.93,1.951c0.613-0.631,1.047-1.411,1.54-2.128
		c-0.534,0.766-1.329,1.415-1.988,2.085c0.311-0.812,1.188-1.777,1.856-2.303c-0.542,0.649-1.283,1.22-1.93,1.765
		c0.293-0.311,1.384-1.249,1.308-1.687c-0.512,0.406-0.938,0.908-1.376,1.391c0.294-0.331,0.647-0.834,0.76-1.268
		c-0.322,0.224-0.589,0.577-0.887,0.853c0.121-0.306,0.353-0.59,0.479-0.91c-0.177,0.101-0.302,0.292-0.438,0.432
		c0.049-0.104,0.08-0.267,0.117-0.365c-0.107,0.104-0.249,0.197-0.344,0.306c0.14-0.142,0.271-0.337,0.282-0.53
		c-0.227,0.085-0.405,0.264-0.579,0.43c0.103-0.156,0.215-0.304,0.308-0.464c-0.173,0.127-0.329,0.283-0.501,0.408
		c0.074-0.127,0.146-0.283,0.242-0.404c-0.218,0.156-0.408,0.359-0.62,0.529c0.14-0.267,0.39-0.492,0.566-0.739
		c-0.209,0.171-0.386,0.395-0.62,0.521c0.045-0.101,0.054-0.233,0.121-0.341c-0.257,0.173-0.499,0.395-0.781,0.538
		c0.019-0.131,0.045-0.274,0.18-0.406c-0.233,0.255-0.48,0.48-0.774,0.665c0.151-0.218,0.339-0.41,0.493-0.626
		c-0.41,0.281-0.764,0.639-1.181,0.912c0.206-0.257,0.462-0.483,0.684-0.735c-0.326,0.201-0.589,0.516-0.849,0.795
		c0.286-0.247,0.579-0.514,0.819-0.812c-0.462,0.343-0.846,0.84-1.199,1.292c0.331-0.405,0.674-0.797,0.896-1.271
		c-0.486,0.333-0.742,0.955-1.122,1.382c0.366-0.458,0.647-0.965,1.004-1.427c-0.369,0.429-0.715,0.889-1.011,1.372
		c0.203-0.405,0.515-0.771,0.643-1.206c-0.391,0.404-0.654,0.924-1.075,1.298c0.29-0.456,0.695-0.883,1.08-1.251
		c-0.241,0.422-0.647,0.726-0.91,1.132c0.542-0.514,0.955-1.138,1.553-1.598c-0.357,0.378-0.737,0.728-1.083,1.115
		c0.429-0.408,0.866-0.803,1.305-1.197c-0.116,0.106-0.26,0.263-0.327,0.391c0.236-0.107,0.451-0.262,0.695-0.354
		c-0.12,0.214-0.334,0.365-0.511,0.536c0.41-0.193,0.793-0.545,1.251-0.614c-0.045,0.292-0.402,0.499-0.613,0.723
		c0.516-0.209,1.001-0.559,1.545-0.674c-0.132,0.156-0.277,0.309-0.404,0.473c0.353-0.09,0.661-0.349,1.019-0.462
		c-0.126,0.224-0.339,0.393-0.53,0.561c0.177-0.136,0.363-0.265,0.538-0.404c-0.197,0.17-0.351,0.373-0.559,0.529
		c0.189-0.222,0.425-0.425,0.661-0.616c-0.218,0.218-0.503,0.553-0.756,0.808c0.307-0.304,0.659-0.665,1.062-0.836
		c-0.227,0.421-0.598,0.771-0.84,1.189c0.613-0.3,1.062-0.904,1.758-1.074c-0.173,0.63-0.968,1.008-1.113,1.633
		c0.674-0.152,1.117-0.81,1.646-1.193c-0.185,0.639-0.922,1.045-1.252,1.624c0.451-0.265,0.916-1.013,1.484-1.06
		c0.076,0.723-0.877,1.696-1.251,2.263c0.419-0.287,0.717-0.747,1.175-0.981c-0.024,0.197-0.142,0.329-0.332,0.37"/>
	
		<path fill="none" stroke="#E5A74C" stroke-width="0.379" stroke-linecap="round" stroke-linejoin="round" stroke-miterlimit="10" d="
		M120.335,179.169c0.586-0.511,1.202-0.989,1.819-1.462c-0.598,0.566-1.158,1.154-1.778,1.696c0.568-0.432,1.172-0.81,1.749-1.23
		c-0.489,0.434-0.963,0.877-1.437,1.331c0.537-0.408,1.071-0.713,1.62-1.078c-0.493,0.443-0.936,0.933-1.421,1.376
		c0.56-0.438,1.131-0.791,1.707-1.195c-0.372,0.345-0.751,0.686-1.139,1.015c0.387-0.367,0.831-0.649,1.327-0.846
		c-0.383,0.419-0.793,0.809-1.229,1.172c0.364-0.328,0.778-0.572,1.244-0.73c-0.244,0.357-0.53,0.68-0.857,0.963
		c0.398-0.398,0.862-0.69,1.396-0.877c-0.267,0.326-0.568,0.618-0.902,0.877c0.36-0.326,0.749-0.616,1.161-0.867
		c-0.308,0.364-0.65,0.687-1.03,0.97c0.373-0.308,0.778-0.557,1.222-0.743c-0.263,0.38-0.586,0.702-0.971,0.961
		c0.369-0.324,0.771-0.592,1.219-0.795c-0.165,0.259-0.357,0.495-0.579,0.704c0.278-0.205,0.579-0.377,0.898-0.513
		c-0.244,0.231-0.481,0.47-0.71,0.715c0.286-0.191,0.586-0.362,0.898-0.508c-0.203,0.226-0.425,0.434-0.661,0.624
		c0.654-0.339,0.666-0.73,0.575-0.084c0.387-0.361,0.831-0.624,1.332-0.788c-0.505,0.373-0.975,0.751-1.501,1.11
		c0.793-0.433,2.019-1.875,0.755-0.257c0.324-0.304,0.697-0.529,1.118-0.677c-1.054,0.952,0.076,0.287,0.462,0.077
		c-1.229,0.074-0.199,0.223,0.477-0.021c-0.279,0.307-0.608,0.555-0.978,0.752c0.46-0.298,0.94-0.555,1.445-0.772
		c-0.369,0.201-0.73,0.415-1.084,0.639c1.271-0.63,1.507-0.166,0.646-0.207c0.32-0.296,0.68-0.538,1.072-0.731
		c0.072,0.054-0.516,0.436,0.475-0.213c-0.062,0.151-0.892,0.812,0.287,0.032c-0.969,0.918-0.147,0.103,0.066,0.35
		c0.496-0.247,1.376-1.261,0.466-0.111c1.251-0.529,1.049-0.396,2.056-1.214c-0.078,0.6-0.62,0.836,0.162-0.371
		c-0.443,0.211-0.836,0.497-1.173,0.85c0.402-0.324,0.785-0.673,1.146-1.043c-0.555,0.477-1.128,0.933-1.68,1.426
		c0.511-0.514,0.995-1.044,1.492-1.567c-0.557,0.512-1.121,1.004-1.665,1.538c0.643-0.62,1.183-1.326,1.771-1.988
		c-0.847,0.596-1.631,1.284-2.342,2.046c0.698-0.727,1.346-1.45,2.107-2.128c-0.862,0.707-1.709,1.45-2.522,2.227
		c0.765-0.769,1.521-1.547,2.26-2.337c-0.83,0.739-1.647,1.499-2.444,2.275c0.869-1.107,1.906-2.06,2.884-3.058
		c-1.07,0.77-1.966,1.751-2.815,2.758c0.643-0.83,1.328-1.627,2.049-2.391c-0.696,0.715-1.443,1.384-2.154,2.091
		c0.602-0.867,1.303-1.657,2.083-2.357c-0.562,0.62-1.146,1.149-1.767,1.704c0.503-0.631,0.937-1.324,1.444-1.955
		c-0.467,0.521-0.968,1.011-1.434,1.532c0.447-0.586,0.86-1.189,1.312-1.769c-0.375,0.417-0.76,0.828-1.149,1.234
		c0.38-0.443,0.729-0.907,1.056-1.389c-0.443,0.487-0.937,0.904-1.396,1.368c0.304-0.518,0.62-1.026,0.946-1.532
		c-0.279,0.43-0.624,0.801-1.026,1.117c0.248-0.417,0.516-0.821,0.801-1.212c-0.268,0.398-0.602,0.735-1,1.007
		c0.209-0.415,0.472-0.797,0.784-1.142c-0.296,0.402-0.657,0.743-1.078,1.017c0.228-0.333,0.466-0.659,0.711-0.984
		c-0.385,0.339-0.774,0.666-1.177,0.982c0.369-0.374,0.719-0.765,1.051-1.167c-0.472,0.365-0.938,0.735-1.4,1.117
		c0.372-0.354,0.733-0.717,1.089-1.084c-0.354,0.254-0.707,0.513-1.06,0.766c0.248-0.257,0.523-0.482,0.821-0.678
		c-0.298,0.224-0.592,0.441-0.892,0.659c1.608-1.739-0.711,0.743,0.698-0.903c-0.324,0.267-0.648,0.523-0.985,0.772
		c0.261-0.236,0.488-0.493,0.7-0.772c-0.557,0.131-1.339,1.421-0.125-0.132c-0.3,0.271-0.616,0.526-0.943,0.76
		c0.286-0.293,0.586-0.562,0.91-0.817c-0.271,0.227-0.557,0.424-0.86,0.6c1.752-0.645-0.275,0.033-0.655,0.197
		c0.162-0.274,0.369-0.509,0.62-0.702c-0.267,0.218-0.538,0.432-0.81,0.639c0.197-0.296,0.438-0.548,0.728-0.758
		c-0.304,0.345-0.665,0.62-1.082,0.819c0.093-0.281,0.252-0.52,0.48-0.712c-0.305,0.244-0.627,0.464-0.962,0.663
		c0.229-0.374,0.519-0.69,0.872-0.947c-0.304,0.32-0.654,0.573-1.057,0.76c0.29-0.302,0.583-0.604,0.87-0.907
		c-0.463,0.337-0.93,0.661-1.396,0.981c0.36-0.39,0.744-0.76,1.147-1.104c-0.479,0.378-0.99,0.71-1.531,0.996
		c0.387-0.391,0.801-0.752,1.242-1.078c-0.475,0.322-0.933,0.665-1.377,1.022c0.357-0.335,0.681-0.702,0.978-1.093
		c-0.428,0.311-0.854,0.629-1.271,0.957c0.395-0.443,0.745-0.933,1.15-1.367c-0.448,0.339-0.876,0.702-1.278,1.092
		c0.301-0.39,0.631-0.753,0.997-1.088c-0.436,0.398-0.91,0.751-1.35,1.142c0.29-0.343,0.583-0.682,0.884-1.011
		c-0.411,0.361-0.839,0.707-1.278,1.033c0.349-0.423,0.717-0.832,1.098-1.226c-0.444,0.4-0.921,0.743-1.373,1.125
		c0.226-0.388,0.508-0.733,0.843-1.031c-0.437,0.348-0.903,0.659-1.335,1.023c0.364-0.475,0.774-0.904,1.225-1.292
		c-0.446,0.363-0.894,0.727-1.346,1.091c0.411-0.432,0.79-0.896,1.21-1.325c-0.478,0.372-0.996,0.704-1.466,1.087
		c0.316-0.452,0.692-0.853,1.117-1.199c-0.474,0.388-0.955,0.77-1.441,1.144c0.696-0.643,1.294-1.186,2.091-1.739
		c-0.643,0.456-1.251,0.913-1.879,1.392c0.699-0.517,1.312-1.127,1.944-1.708c-0.749,0.525-1.459,0.946-2.136,1.594
		c0.691-0.922,1.632-1.633,2.711-2.056c-0.819,0.739-1.74,1.369-2.726,1.873c0.681-0.508,1.324-1.054,2.023-1.541
		c-0.842,0.565-1.65,1.097-2.459,1.724c0.745-0.579,1.433-1.097,2.219-1.618c-0.572,0.365-1.147,0.73-1.719,1.094
		c0.253-0.215,0.504-0.425,0.167,0.023"/>
	
		<path fill="none" stroke="#E5A74C" stroke-width="0.379" stroke-linecap="round" stroke-linejoin="round" stroke-miterlimit="10" d="
		M123.85,175.793c-0.365,0.156-0.736,0.29-1.048,0.573c0.342-0.393,0.729-0.729,1.161-1.009c-0.448,0.339-0.932,0.637-1.38,0.992
		c0.455-0.363,0.854-0.758,1.29-1.132c-0.545,0.391-1.045,0.715-1.568,1.154c0.373-0.322,0.737-0.655,1.09-0.998
		c-0.496,0.365-1,0.729-1.493,1.093c0.599-0.393,1.167-0.81,1.746-1.229c-1.095,0.508-2.147,1.132-3.125,1.849
		c0.736-0.493,1.485-0.937,2.252-1.376c-0.79,0.571-1.561,1.162-2.373,1.704c0.658-0.439,1.204-0.92,1.81-1.421
		c-1.027,0.512-1.975,1.173-2.81,1.959c0.534-0.443,1.049-0.907,1.579-1.351c-0.718,0.488-1.414,0.92-2.098,1.47
		c0.733-0.628,1.362-0.978,2.196-1.436c-0.572,0.441-1.11,0.943-1.689,1.372c0.959-0.598,1.884-1.255,2.768-1.961
		c-1.151,0.581-2.271,1.251-3.099,2.238c0.918-0.737,1.891-1.417,2.896-2.021c-0.91,0.743-1.812,1.52-2.681,2.306
		c0.906-0.76,1.88-1.443,2.895-2.035c-0.864,0.649-1.702,1.327-2.511,2.037c0.839-0.641,1.681-1.285,2.524-1.926
		c-0.783,0.743-1.599,1.456-2.441,2.136c0.79-0.624,1.625-1.197,2.414-1.812c-0.774,0.684-1.575,1.343-2.396,1.972
		c1.057-0.748,2.031-1.59,3.14-2.263c-0.997,0.788-1.998,1.572-3.005,2.357c0.76-0.728,1.602-1.362,2.504-1.886
		c-0.681,0.756-1.443,1.444-2.271,2.042"/>
	
		<path fill="none" stroke="#E5A74C" stroke-width="0.379" stroke-linecap="round" stroke-linejoin="round" stroke-miterlimit="10" d="
		M135.177,172.473c0.589-0.662,1.214-1.301,1.844-1.921c-0.747,0.916-1.475,1.851-2.16,2.808c0.76-0.856,1.521-1.713,2.288-2.564
		c-0.88,1.006-1.774,2.008-2.35,3.224c0.928-0.961,1.858-1.926,2.776-2.896c-1.125,0.768-2.05,1.791-2.711,2.981
		c0.698-0.811,1.428-1.593,2.188-2.347c-0.927,0.992-1.769,2.06-2.467,3.222c0.851-0.729,1.672-1.499,2.456-2.302
		c-0.881,0.648-1.587,1.501-2.054,2.475c0.67-0.626,1.35-1.21,1.938-1.924c-0.891,0.84-1.691,1.771-2.382,2.778
		c0.684-0.562,1.314-1.121,1.924-1.767c-0.675,0.661-1.281,1.29-1.875,2.035c0.635-0.688,1.331-1.312,1.984-1.981
		c-0.432,0.534-0.81,1.121-1.236,1.659c0.628-0.562,1.285-1.08,1.881-1.682c-0.546,0.544-1.026,1.152-1.546,1.721
		c0.525-0.386,1.041-0.704,1.546-1.127c-0.438,0.402-0.866,0.814-1.279,1.238c0.471-0.4,0.972-0.746,1.448-1.128
		c-0.309,0.393-0.633,0.766-0.978,1.126c0.291-0.264,0.604-0.497,0.937-0.713c-0.167,0.272-0.348,0.538-0.547,0.79
		c0.279-0.306,0.606-0.546,0.974-0.727c-0.624,1.15,0.127,0.475,0.655,0.147c0.774,0.318-0.462,0.177,0.585,0.107
		c-2.006,0.875-2.329-0.298-3.48,0.172c0.244-0.254,0.458-0.533,0.635-0.838c-0.728,0.51-0.812,0.387-1.545,0.927
		c0.185-0.312,0.395-0.598,0.643-0.862c-1.099,0.682-0.218-0.054-0.922,0.689c0.197-0.269,0.415-0.52,0.649-0.754
		c-0.238,0.243-0.469,0.489-0.696,0.735c-0.162-0.374-0.534-0.138-0.968,0.14"/>
	
		<path fill="none" stroke="#E5A74C" stroke-width="0.379" stroke-linecap="round" stroke-linejoin="round" stroke-miterlimit="10" d="
		M135.058,171.669c0.764-0.858,1.536-1.712,2.311-2.562c-0.996,0.94-1.878,2.015-2.517,3.23c0.74-0.801,1.463-1.616,2.173-2.446
		c-0.747,0.789-1.425,1.635-2.028,2.534"/>
	
		<path fill="none" stroke="#E5A74C" stroke-width="0.379" stroke-linecap="round" stroke-linejoin="round" stroke-miterlimit="10" d="
		M134.909,171.115c0.767-1.052,1.649-2.015,2.631-2.871c-0.856,1.275-2,2.308-2.7,3.688c0.937-1.171,1.84-2.37,2.769-3.554
		c-0.851,0.998-1.681,2.009-2.493,3.04"/>
	
		<path fill="none" stroke="#E5A74C" stroke-width="0.379" stroke-linecap="round" stroke-linejoin="round" stroke-miterlimit="10" d="
		M135.279,170.164c0.715-0.828,1.456-1.631,2.23-2.4c-0.801,0.891-1.603,1.782-2.403,2.674"/>
	
		<path fill="none" stroke="#E5A74C" stroke-width="0.379" stroke-linecap="round" stroke-linejoin="round" stroke-miterlimit="10" d="
		M135.232,169.291c0.835-1.052,1.702-2.086,2.729-2.959c-0.932,1.214-2.058,2.191-2.864,3.495c1.037-0.981,1.933-2.082,2.933-3.099
		c-1.027,1.134-2.081,2.246-3.046,3.438"/>
	
		<path fill="none" stroke="#E5A74C" stroke-width="0.379" stroke-linecap="round" stroke-linejoin="round" stroke-miterlimit="10" d="
		M133.205,165.472c-0.501,0.438-0.391,0.345,0.339-0.279c-0.532,0.607-0.438,0.589,0.289-0.06c-0.616,1.092-0.188,0.187,0.368-0.101
		c-0.259,0.242-0.534,0.472-0.812,0.693c0.395-0.328,0.834-0.589,1.309-0.784c-0.309,0.263-0.631,0.508-0.972,0.735
		c0.438-0.242,0.875-0.484,1.307-0.727c-0.344,0.222-0.678,0.455-1.005,0.704c0.335-0.236,0.68-0.462,1.029-0.674
		c-0.368,0.296-0.756,0.562-1.16,0.805c0.439-0.181,0.848-0.416,1.229-0.704c-0.347,0.271-0.694,0.534-1.043,0.795
		c0.501-0.281,0.998-0.569,1.486-0.869c-0.353,0.296-0.723,0.569-1.117,0.813c0.469-0.289,0.937-0.587,1.399-0.891
		c-0.452,0.279-0.873,0.604-1.255,0.969c0.579-0.308,1.138-0.646,1.68-1.019c-0.602,0.423-1.13,0.851-1.696,1.311
		c0.633-0.413,1.277-0.78,1.897-1.214c-0.616,0.443-1.21,0.905-1.819,1.359c0.682-0.458,1.38-0.887,2.065-1.341
		c-0.76,0.555-1.479,1.154-2.222,1.725c0.92-0.583,1.799-1.22,2.646-1.899c-0.769,0.622-1.514,1.275-2.27,1.922
		c0.801-0.587,1.624-1.142,2.425-1.723c-0.948,0.723-1.873,1.482-2.768,2.271c0.963-0.678,1.909-1.374,2.85-2.087
		c-0.872,0.819-1.756,1.635-2.641,2.436c0.83-0.684,1.627-1.404,2.4-2.151c-0.967,0.796-1.903,1.63-2.809,2.497
		c1.162-1.085,2.372-2.113,3.61-3.113c-0.865,1.076-1.929,1.928-2.861,2.94c0.834-0.807,1.676-1.605,2.526-2.398
		c-1.05,0.853-1.992,1.836-2.793,2.927c1.115-0.8,2.015-1.884,2.974-2.882c-0.899,1.128-1.959,2.097-2.957,3.138
		c0.948-0.897,1.889-1.799,2.829-2.706c-1.047,0.952-2.16,1.946-2.829,3.171c1.133-0.899,2.136-1.955,3.013-3.109
		c-1.058,1.054-2.091,2.136-2.938,3.361c0.976-0.905,1.806-1.94,2.713-2.914c-0.71,1.08-1.659,1.951-2.612,2.817"/>
	
		<path fill="none" stroke="#E5A74C" stroke-width="0.379" stroke-linecap="round" stroke-linejoin="round" stroke-miterlimit="10" d="
		M134.355,161.15c0.151-0.173,0.369-0.398,0.583-0.555c-0.337,0.197-0.67,0.485-0.937,0.776c0.488-0.181,0.909-0.764,1.281-1.11
		c-0.308,0.33-0.67,0.622-0.978,0.944c0.324-0.171,0.528-0.503,0.832-0.709c-0.359,0.419-0.988,0.75-1.238,1.204
		c0.708-0.423,1.228-1.186,1.983-1.522c-0.579,0.737-1.684,1.177-2.14,1.982c0.846-0.387,1.436-1.348,2.21-1.856
		c-0.608,0.751-1.703,1.19-2.152,2.049c0.944-0.455,1.581-1.458,2.48-2.012c-0.657,0.579-1.479,1.172-2,1.868
		c0.766-0.181,1.339-1.236,2.05-1.602c-0.674,0.661-1.99,1.398-2.379,2.292c1.009-0.46,1.804-1.705,2.711-2.378
		c-0.788,0.525-1.706,1.433-2.214,2.229c0.793-0.427,1.352-1.339,2.128-1.817c-0.819,0.598-1.602,1.372-2.296,2.097
		c0.287-0.09,0.776-0.682,0.996-0.883c0.589-0.55,1.199-1.088,1.858-1.564c-0.764,0.641-1.501,1.339-2.14,2.101
		c0.544-0.631,1.164-1.324,1.938-1.678c-0.661,0.784-1.491,1.423-2.156,2.201c0.825-0.768,1.618-1.486,2.53-2.146
		c-0.83,0.632-1.614,1.529-2.243,2.365c0.711-0.527,1.32-1.218,2.005-1.782c-0.703,0.686-1.364,1.4-2.037,2.115
		c0.579-0.573,1.179-1.123,1.758-1.69c-0.395,0.456-0.817,0.886-1.156,1.389c0.52-0.372,0.979-0.916,1.421-1.374
		c-0.281,0.343-0.618,0.676-0.847,1.062c0.303-0.296,0.614-0.604,0.877-0.928c-0.246,0.324-0.52,0.676-0.734,1.002
		c0.242-0.197,0.429-0.445,0.678-0.637c-0.064,0.099-0.193,0.197-0.271,0.275c0.008-0.091-0.045-0.063-0.07-0.091"/>
	
		<path fill="none" stroke="#E5A74C" stroke-width="0.379" stroke-linecap="round" stroke-linejoin="round" stroke-miterlimit="10" d="
		M149.682,167.646c0,0-0.263,0.138-0.368,0.216c0.146-0.277,0.376-0.477,0.465-0.785c-0.255,0.185-0.456,0.46-0.653,0.715
		c0.252-0.374,0.637-0.776,0.737-1.199c-0.222,0.205-0.438,0.473-0.565,0.743c0.325-0.505,0.596-1.004,0.863-1.54
		c-0.37,0.32-0.651,0.836-0.961,1.234c0.351-0.549,0.496-1.165,0.79-1.737c-0.211,0.277-0.429,0.555-0.655,0.811
		c0.039-0.192,0.085-0.382,0.156-0.562c-0.035,0.119-0.058,0.27-0.099,0.398c0.234-0.31,0.512-0.604,0.641-0.969
		c-0.32,0.16-0.591,0.595-0.825,0.877c0.181-0.193,0.354-0.43,0.415-0.683c-0.197,0.175-0.357,0.393-0.506,0.61
		c0.167-0.222,0.348-0.432,0.403-0.706c-0.236,0.176-0.444,0.406-0.631,0.632c0.15-0.197,0.304-0.425,0.343-0.657
		c-0.185,0.142-0.341,0.329-0.488,0.514c0.142-0.168,0.242-0.374,0.283-0.587c-0.183,0.104-0.35,0.261-0.499,0.412
		c0.063-0.097,0.104-0.216,0.158-0.31c-0.099,0.088-0.244,0.201-0.335,0.324c0.091-0.106,0.146-0.232,0.222-0.341
		c-0.09,0.078-0.263,0.19-0.363,0.3c0.074-0.082,0.136-0.201,0.197-0.283c-0.188,0.14-0.361,0.3-0.562,0.427
		c0.049-0.095,0.055-0.226,0.094-0.308c-0.086,0.08-0.283,0.147-0.369,0.209c0.004-0.06-0.004-0.119-0.004-0.179
		c-0.227,0.126-0.436,0.302-0.685,0.376c0.056-0.125,0.095-0.296,0.188-0.406c-0.132,0.099-0.277,0.216-0.402,0.326
		c0.118-0.113,0.215-0.232,0.3-0.372c-0.136,0.117-0.271,0.236-0.415,0.348c0.119-0.111,0.205-0.253,0.271-0.396
		c-0.308,0.234-0.579,0.618-0.922,0.791c0.188-0.352,0.538-0.594,0.711-0.953c-0.553,0.408-0.925,1.058-1.428,1.525
		c0.128-0.402,0.493-0.729,0.76-1.051c-0.559,0.468-0.994,1.104-1.589,1.525c0.431-0.598,0.952-1.144,1.511-1.62
		c-0.589,0.719-1.269,1.532-1.996,2.095c0.309-0.76,1.039-1.368,1.536-2.009c-0.575,0.823-1.396,1.75-2.17,2.395
		c0.388-0.704,0.84-1.497,1.443-2.033c-0.473,0.769-1.259,1.733-1.972,2.282c0.464-0.815,1.035-1.625,1.687-2.303
		c-0.696,0.824-1.325,1.713-2.072,2.489c0.46-0.737,0.877-1.499,1.392-2.203c-0.624,0.827-1.248,1.663-1.895,2.475
		c0.302-0.627,0.63-1.277,0.973-1.89c-0.466,0.676-1.095,1.355-1.349,2.148c0.57-0.649,0.932-1.479,1.499-2.145
		c-0.387,0.83-1.105,1.602-1.273,2.493c0.631-0.684,0.998-1.602,1.544-2.35c-0.548,1.249-1.474,2.316-1.955,3.61
		c0.325-0.994,0.982-2.637,1.937-3.164c-0.361,1.285-1.611,2.232-1.963,3.551c1.095-1.216,1.398-3.212,3.009-4.018
		c0.078,0.456-0.651,1.212-0.899,1.565c-0.489,0.689-1.002,1.361-1.463,2.074c-0.209,0.316-0.591,0.78-0.646,1.166
		c0.786-1.296,1.67-3.69,3.253-4.23c-0.125,0.966-1.304,1.976-1.879,2.776c-0.396,0.555-1.103,1.262-1.199,1.937
		c0.756-1.271,1.404-3.657,2.888-4.246c-0.035,0.408-0.588,1.078-0.746,1.328c-0.672,1.06-1.402,2.095-2.004,3.195
		c0.316-0.809,0.725-1.637,1.172-2.382c0.253-0.415,0.601-1.169,1.061-1.391c-0.058,0.434-0.415,0.856-0.637,1.222
		c-0.292,0.477-0.569,0.96-0.854,1.438c-0.106,0.186-0.538,1.139-0.707,1.229c0.316-0.674,0.657-1.359,1.052-1.979
		c0.279-0.432,0.707-1.341,1.24-1.43c-0.373,1.38-1.521,2.491-2.111,3.783c0.676-1.148,1.048-2.756,2.161-3.582
		c0,0.842-0.988,1.933-1.413,2.674c-0.343,0.592-0.756,1.214-0.858,1.902c1.022-0.783,1.158-2.516,2.23-3.311
		c-0.05,0.566-0.557,1.24-0.824,1.745c-0.297,0.569-0.639,1.117-0.918,1.696c0.551-0.883,0.802-1.931,1.381-2.813
		c-0.383,1.154-1.426,2.145-1.664,3.34c0.721-1.031,1.08-2.286,1.957-3.225c-0.082,1.056-1.234,2.058-1.562,3.085
		c0.152-0.69,0.665-1.82,1.24-2.247c0.065,0.985-0.963,1.903-1.162,2.854c0.628-0.525,0.823-1.523,1.343-2.154
		c-0.279,0.663-0.616,1.288-0.87,1.968c0.336-0.483,0.55-1.204,0.978-1.61c-0.197,0.62-0.616,1.179-0.812,1.808
		c0.306-0.629,0.663-1.703,1.287-2.031c-0.201,0.776-0.73,1.581-1.034,2.335c0.226-0.512,0.472-1.05,0.778-1.522
		c-0.191,0.477-0.463,0.933-0.603,1.426c0.251-0.473,0.467-0.953,0.769-1.4c-0.039,0.427-0.352,0.858-0.473,1.273
		c0.253-0.395,0.434-0.843,0.739-1.2c-0.207,0.551-0.546,1.085-0.641,1.664c0.3-0.407,0.557-0.854,0.824-1.281
		c-0.154,0.414-0.403,0.784-0.549,1.201c0.271-0.376,0.514-0.901,0.92-1.136c-0.09,0.516-0.514,0.989-0.686,1.497
		c0.359-0.441,0.676-1.05,1.164-1.363c-0.09,0.306-0.271,0.593-0.413,0.885c0.186-0.21,0.413-0.505,0.635-0.729
		c-0.095,0.348-0.402,0.726-0.557,1.089c0.234-0.29,0.467-0.581,0.711-0.864c-0.103,0.3-0.294,0.559-0.391,0.86
		c0.23-0.259,0.395-0.573,0.639-0.819c-0.142,0.318-0.371,0.579-0.533,0.889c0.211-0.238,0.384-0.523,0.646-0.7
		c-0.058,0.109-0.076,0.281-0.121,0.386c0.199-0.215,0.402-0.492,0.651-0.613c-0.186,0.306-0.452,0.593-0.612,0.893
		c0.097-0.106,0.251-0.172,0.361-0.259c0.006,0.025,0.011,0.05,0.006,0.078c0.229-0.142,0.376-0.447,0.59-0.626
		c-0.101,0.251-0.259,0.486-0.402,0.717c0.207-0.228,0.388-0.505,0.682-0.62c-0.127,0.25-0.316,0.468-0.46,0.71
		c0.238-0.336,0.55-0.686,0.903-0.891c-0.158,0.367-0.501,0.639-0.692,0.985c0.227-0.345,0.614-0.669,0.992-0.825
		c-0.086,0.205-0.24,0.365-0.408,0.529c0.117-0.226,0.326-0.394,0.536-0.54c-0.011,0.212-0.193,0.417-0.305,0.606
		c0.186-0.3,0.415-0.641,0.735-0.797c-0.039,0.14-0.03,0.298-0.119,0.438c0.132-0.142,0.292-0.311,0.487-0.376
		c-0.005,0.201-0.105,0.402-0.216,0.587c0.156-0.271,0.374-0.521,0.564-0.764c-0.086,0.229-0.214,0.458-0.335,0.674
		c0.14-0.171,0.271-0.357,0.456-0.482c0.004,0.047,0,0.096,0.004,0.144c0.078-0.113,0.229-0.212,0.309-0.311
		c-0.035,0.095-0.027,0.24-0.058,0.337c0.177-0.08,0.304-0.216,0.308-0.395"/>
	
		<path fill="none" stroke="#E5A74C" stroke-width="0.379" stroke-linecap="round" stroke-linejoin="round" stroke-miterlimit="10" d="
		M152.698,167.026c-0.062,0.125-0.121,0.231-0.246,0.31c0.127-0.308,0.373-0.607,0.595-0.864c-0.172,0.257-0.377,0.493-0.595,0.708
		c0.207-0.3,0.447-0.579,0.673-0.862c-0.153,0.214-0.32,0.425-0.492,0.629c0.229-0.405,0.574-0.758,0.918-1.072
		c-0.177,0.324-0.448,0.587-0.655,0.892c0.306-0.354,0.674-0.804,1.099-0.98c-0.302,0.323-0.643,0.598-0.906,0.949
		c0.426-0.363,0.838-0.706,1.312-1.013c-0.367,0.261-0.754,0.614-1.012,0.986c0.468-0.372,0.911-0.776,1.388-1.143
		c-0.32,0.245-0.674,0.46-0.944,0.761c0.415-0.202,0.809-0.534,1.188-0.813c-0.263,0.205-0.589,0.425-0.755,0.698
		c0.421-0.186,0.751-0.536,1.153-0.76c-0.293,0.269-0.62,0.497-0.938,0.739c0.329-0.169,0.666-0.395,0.933-0.647
		c-0.156,0.142-0.312,0.284-0.441,0.45c0.298-0.205,0.594-0.411,0.889-0.62c-0.31,0.218-0.6,0.46-0.881,0.71
		c0.298-0.196,0.598-0.396,0.884-0.607c-0.146,0.127-0.286,0.261-0.409,0.402c0.382-0.205,0.715-0.525,1.109-0.713
		c-0.242,0.195-0.501,0.389-0.735,0.586c0.279-0.14,0.518-0.343,0.78-0.51c-0.222,0.224-0.479,0.411-0.704,0.631
		c0.441-0.218,0.85-0.608,1.324-0.776c-0.212,0.248-0.501,0.408-0.706,0.655c0.271-0.136,0.525-0.316,0.755-0.514
		c-0.181,0.115-0.365,0.242-0.523,0.395c0.261-0.117,0.503-0.3,0.705-0.506c-0.234,0.197-0.469,0.407-0.655,0.649
		c0.313-0.132,0.667-0.447,0.918-0.698c-0.419,0.304-0.795,0.663-1.184,1.006c0.532-0.361,1.056-0.76,1.521-1.192
		c-0.424,0.281-0.92,0.758-1.221,1.14c0.51-0.318,1.011-0.682,1.454-1.085c-0.394,0.255-0.842,0.62-1.099,1.007
		c0.448-0.23,0.869-0.6,1.259-0.92c-0.322,0.229-0.71,0.501-0.924,0.829c0.434-0.201,0.805-0.562,1.175-0.866
		c-0.402,0.324-0.867,0.661-1.188,1.067c0.465-0.238,0.941-0.648,1.344-0.998c-0.407,0.337-0.91,0.694-1.195,1.134
		c0.534-0.25,0.948-0.768,1.421-1.117c-0.349,0.43-0.871,0.762-1.166,1.199c0.447-0.213,0.846-0.62,1.162-1.002
		c-0.354,0.32-0.729,0.624-1.063,0.965c0.439-0.226,0.695-0.732,1.144-0.954c-0.398,0.593-1.113,0.942-1.471,1.559
		c0.704-0.284,1.372-1.156,1.91-1.676c-0.538,0.419-1.05,0.948-1.501,1.46c0.509-0.407,0.973-0.856,1.495-1.255
		c-0.588,0.645-1.28,1.185-1.849,1.844c0.682-0.201,1.134-1.071,1.729-1.479c-0.277,0.477-0.698,0.888-0.994,1.359
		c0.509-0.254,0.866-0.973,1.331-1.316c-0.521,0.562-1.02,1.141-1.557,1.685c0.406-0.469,1.002-1.227,1.589-1.452
		c-0.421,0.771-1.158,1.311-1.624,2.041c0.795-0.315,1.168-1.542,1.907-2.004c-0.406,0.901-1.408,1.549-1.907,2.391
		c0.86-0.612,1.374-1.685,2.326-2.177c-0.398,0.702-1.019,1.272-1.477,1.937c0.458-0.372,0.955-0.927,1.316-1.411
		c-0.768,0.704-1.531,1.561-2.147,2.407c0.838-0.698,1.493-1.614,2.275-2.376c-0.584,1.062-1.557,1.879-2.253,2.86
		c0.598-0.67,1.156-1.384,1.834-1.976c-0.48,0.78-1.273,1.404-1.705,2.214c0.495-0.337,0.949-0.959,1.364-1.413
		c-0.432,0.505-0.86,1.015-1.282,1.523c0.436-0.505,0.937-1.156,1.512-1.499c-0.525,0.678-1.195,1.261-1.674,1.972
		c0.808-0.871,1.603-1.766,2.393-2.651c-0.862,0.815-1.745,1.694-2.475,2.631c0.879-0.674,1.518-1.643,2.4-2.32
		c-0.645,0.829-1.708,1.7-2.024,2.678c0.951-0.661,1.758-1.894,2.471-2.789c-0.674,0.641-1.29,1.368-1.899,2.066
		c-0.251,0.285-0.644,0.652-0.748,1.004c0.469-0.19,0.955-0.885,1.298-1.222c0.387-0.378,0.756-0.797,1.191-1.126
		c-0.776,0.731-1.579,1.539-2.189,2.415c0.737-0.714,1.376-1.538,2.107-2.263c-0.769,0.772-1.536,1.567-2.182,2.45
		c0.771-0.676,1.504-1.419,2.251-2.121c-0.698,0.905-1.52,1.778-2.271,2.645c0.822-0.778,1.582-1.629,2.393-2.419
		c-0.572,0.702-1.154,1.396-1.727,2.097c-0.259,0.312-0.646,0.684-0.756,1.056c0.907-0.808,1.678-1.746,2.61-2.532
		c-0.865,0.768-1.715,1.754-2.327,2.731c0.793-0.739,1.503-1.598,2.218-2.415c-0.829,0.881-1.76,1.858-2.372,2.879
		c0.824-0.713,1.534-1.523,2.446-2.142c-0.464,1.271-2.002,2.108-2.391,3.419c0.7-0.788,1.791-1.471,2.271-2.402
		c-0.959,0.378-1.918,1.974-2.35,2.86c0.735-0.819,1.475-1.723,2.366-2.372c-0.69,0.871-1.495,1.703-2.013,2.69
		c0.743-1.084,1.797-1.873,2.608-2.892c-1.085,1.126-2.074,2.279-2.999,3.545c0.711-0.89,1.709-1.647,2.309-2.592
		c-0.48,0.441-0.981,0.969-1.281,1.551c0.445-0.495,0.928-1.04,1.479-1.428c-0.682,0.67-1.337,1.512-1.815,2.346
		c0.776-0.565,1.581-1.337,2.261-2.021c-0.602,0.608-1.106,1.29-1.637,1.955c0.385-0.404,0.826-0.846,1.126-1.318
		c-0.374,0.452-0.847,1.035-1.05,1.594c0.413-0.484,0.929-1.104,1.526-1.359c-0.243,0.473-0.612,0.957-0.957,1.363
		c0.137-0.144,0.269-0.3,0.386-0.462c-0.086,0.104-0.158,0.203-0.23,0.318c0.212-0.277,0.411-0.579,0.674-0.809
		c-0.108,0.22-0.294,0.435-0.402,0.65c0.082-0.069,0.162-0.119,0.244-0.203c-0.108,0.168-0.231,0.324-0.367,0.477
		c0.185-0.189,0.361-0.393,0.538-0.588c-0.16,0.234-0.337,0.46-0.506,0.688c0.271-0.226,0.502-0.514,0.779-0.745
		c-0.158,0.271-0.376,0.503-0.565,0.751c0.226-0.218,0.419-0.48,0.69-0.632c-0.082,0.137-0.181,0.274-0.283,0.404
		c0.112-0.136,0.252-0.271,0.398-0.343c-0.066,0.218-0.236,0.373-0.398,0.556c0.135-0.183,0.312-0.338,0.523-0.429
		c-0.045,0.063-0.095,0.152-0.146,0.214c0.102-0.13,0.223-0.238,0.342-0.346c-0.091,0.212-0.264,0.398-0.417,0.584
		c0.166-0.189,0.359-0.37,0.598-0.456c-0.076,0.099-0.152,0.218-0.243,0.306c0.085-0.104,0.152-0.142,0.247-0.226
		c-0.031,0.049-0.065,0.125-0.091,0.17c0.064-0.041,0.16-0.135,0.201-0.183c-0.209,0.111-0.762,0.318-1.067,0.333
		c0.008-0.08-0.033-0.188-0.017-0.271c-0.177,0.082-0.347,0.216-0.523,0.307c0.045-0.095,0.063-0.261,0.117-0.357
		c-0.169,0.071-0.3,0.188-0.434,0.32c0.054-0.199,0.166-0.366,0.271-0.547c-0.132,0.103-0.268,0.236-0.393,0.333
		c0.084-0.185,0.209-0.384,0.242-0.592c-0.199,0.087-0.38,0.234-0.557,0.378c0.002-0.067-0.045-0.218-0.039-0.306
		c-0.164,0.123-0.316,0.289-0.454,0.436c0.117-0.27,0.24-0.53,0.277-0.819c-0.201,0.073-0.349,0.255-0.488,0.431
		c0-0.026,0.017-0.078,0.012-0.103c-0.116,0.156-0.217,0.329-0.293,0.506c-0.007-0.136-0.019-0.284-0.007-0.424"/>
	
		<path fill="none" stroke="#E5A74C" stroke-width="0.379" stroke-linecap="round" stroke-linejoin="round" stroke-miterlimit="10" d="
		M151.778,171.395c0.468-0.526,0.972-1.003,1.423-1.543c-0.451,0.614-0.86,1.238-1.298,1.858c0.482-0.773,0.968-1.52,1.475-2.277
		c-0.486,0.746-1.026,1.456-1.551,2.175c0.497-0.858,0.961-1.544,1.586-2.308c-0.731,0.809-1.294,1.756-1.647,2.772
		c0.767-1.076,1.528-2.161,2.495-3.066c-0.635,1.294-1.421,2.51-2.376,3.588c0.561-1.029,1.257-1.984,2.062-2.836
		c-0.434,1.187-1.089,2.234-1.869,3.226c0.784-1.218,1.523-2.464,2.454-3.581c-1.027,1.257-1.92,2.612-2.696,4.037
		c0.764-1.24,1.594-2.448,2.53-3.569c-0.674,1.302-1.368,2.592-2.227,3.779c0.76-1.389,1.655-2.687,2.452-4.05
		c-1.121,1.244-1.741,2.807-2.444,4.312c0.612-1.329,1.249-2.649,2.169-3.789c-0.454,1.46-1.265,2.745-2.07,4.07
		c0.698-1.439,1.504-2.824,2.436-4.12c-1.179,1.314-2.024,2.927-2.553,4.61c0.856-1.406,1.286-3.002,2.452-4.193
		c-0.613,1.323-1.294,2.61-1.772,3.99c0.471-1.012,1.031-1.978,1.683-2.89c-0.711,1.184-1.309,2.424-1.923,3.66
		c0.307-1.208,0.767-2.376,1.374-3.469c-0.382,0.931-0.739,1.869-1.125,2.795c0.308-0.978,0.782-1.894,1.396-2.707
		c-0.316,1.191-0.7,2.368-1.148,3.519c0.229-1.074,0.655-2.105,1.251-3.027c-0.518,1.082-0.92,2.216-1.191,3.383
		c0.475-0.966,0.834-1.984,1.076-3.031c-0.525,0.938-0.715,1.805-0.948,2.836c0.415-0.639,0.827-1.177,1.162-1.892
		c-0.322,0.633-0.594,1.263-0.879,1.91c0.277-0.411,0.538-0.834,0.784-1.266c-0.291,0.46-0.544,0.94-0.751,1.446
		c0.365-0.464,0.714-0.938,1.045-1.43c-0.263,0.415-0.484,0.851-0.665,1.309c0.277-0.266,0.538-0.551,0.773-0.856
		c-0.274,0.472-0.499,0.978-0.788,1.454c0.331-0.37,0.646-0.746,0.955-1.13c-0.195,0.391-0.417,0.769-0.666,1.134
		c0.309-0.281,0.582-0.596,0.819-0.94c-1.14,1.889,1.188-1.518-0.386,0.704c0.201-0.477,0.48-0.905,0.834-1.287
		c-0.162,0.443-0.38,0.855-0.655,1.24c0.249-0.339,0.512-0.661,0.791-0.974c-0.203,0.361-0.402,0.725-0.596,1.093
		c0.382-0.438,0.756-0.879,1.134-1.323c-0.309,0.53-0.646,1.046-0.994,1.549c0.162-0.378,0.384-0.711,0.661-1.013
		c-0.16,0.294-0.345,0.573-0.548,0.842c0.207-0.404,0.474-0.766,0.805-1.078c-0.132,0.312-0.29,0.61-0.475,0.892
		c0.189-0.341,0.436-0.633,0.741-0.879c-0.142,0.341-0.318,0.67-0.527,0.978c0.265-0.432,0.55-0.846,0.854-1.249
		c-0.268,0.38-0.501,0.778-0.694,1.2c0.454-0.534,0.901-1.072,1.339-1.616c-0.271,0.437-0.538,0.876-0.801,1.315
		c0.39-0.429,0.766-0.874,1.129-1.334c-0.222,0.328-0.462,0.639-0.725,0.932c0.352-0.55,0.737-1.074,1.164-1.568
		c-0.279,0.308-0.509,0.648-0.682,1.028c0.48-0.682,0.938-1.365,1.383-2.072c-0.359,0.458-0.701,0.933-1.015,1.417
		c0.343-0.443,0.646-0.911,0.823-1.277"/>
	
		<path fill="none" stroke="#E5A74C" stroke-width="0.379" stroke-linecap="round" stroke-linejoin="round" stroke-miterlimit="10" d="
		M158.1,169.678c-0.188-0.169-0.284-0.107-0.59-0.048c-0.125-0.113-0.493-0.63-0.557-0.676c-1.263,0.142-0.014,0.156-0.415-0.09
		c-0.263,0.037-0.49,0.378-0.073-0.152c-0.022,0.575-0.439-0.012,0.349,0.224c0.095,0.111-0.229-0.117-0.255,0.236
		c0.376,0.099,0.685,0.189,1.02,0.407c-0.403-0.177-1.13-0.604-1.493-0.806c0.194,0.14,0.094,0.292-0.309,0.46
		c1.029-1.318-0.095-0.197-0.398,0.119c1.3-0.842-0.014-0.008-0.248,0.177c0.255-0.267,0.488-0.55,0.698-0.858
		c-0.432,0.384-0.847,0.731-1.261,1.15c0.267-0.387,0.579-0.726,0.938-1.019c-0.458,0.474-0.947,0.907-1.413,1.367
		c0.259-0.564,0.602-1.072,1.024-1.525c-0.488,0.659-0.938,1.304-1.4,1.978c0.333-0.608,0.51-1.208,0.784-1.821
		c-0.435,0.527-0.932,0.971-1.343,1.546c0.271-0.536,0.486-1.052,0.799-1.583c-0.429,0.622-0.959,1.177-1.415,1.774
		c0.132-0.454,0.298-0.897,0.497-1.327c-0.361,0.471-0.739,0.922-1.056,1.423c0.164-0.447,0.419-0.838,0.767-1.166
		c-0.286,0.423-0.549,0.862-0.791,1.314c0.637-0.789,1.253-1.322,1.979-1.988c-0.866,0.908-1.61,1.918-2.222,3.013"/>
	
		<path fill="none" stroke="#E5A74C" stroke-width="0.379" stroke-linecap="round" stroke-linejoin="round" stroke-miterlimit="10" d="
		M90.355,161.253c-0.286,0.087-0.605,0.637-0.823,0.986c0.259-0.305,0.522-0.604,0.838-0.845c-0.267,0.277-0.557,0.524-0.745,0.856
		c0.41-0.345,0.843-0.756,0.963-1.281c-0.44-0.084-0.914,0.398-1.113,0.772c0.136-0.173,0.192-0.32,0.27-0.489
		c-0.188,0.146-0.289,0.283-0.39,0.477c0.458-0.214,0.849-0.604,1.181-0.981c-0.365,0.255-0.644,0.62-0.85,1.022
		c0.511-0.062,0.982-0.518,1.32-0.916c-0.342,0.284-0.692,0.604-0.887,1.003c0.597-0.136,1.342-0.772,1.688-1.303
		c-0.297,0.29-0.625,0.612-0.778,0.974c0.38-0.119,0.647-0.423,0.997-0.635c-0.177,0.173-0.29,0.426-0.399,0.59
		c0.534-0.195,0.888-0.649,1.346-0.976c-0.127,0.158-0.218,0.354-0.338,0.518c0.251-0.132,0.519-0.318,0.744-0.528
		c-0.199,0.271-0.425,0.569-0.534,0.871c0.346-0.188,0.643-0.488,0.925-0.774c-0.147,0.167-0.267,0.432-0.392,0.606
		c0.184-0.124,0.421-0.22,0.602-0.383c-0.169,0.23-0.384,0.493-0.493,0.769c0.433-0.164,0.797-0.546,1.143-0.823
		c-0.202,0.183-0.383,0.394-0.564,0.585c0.274-0.212,0.561-0.441,0.797-0.674c-0.184,0.206-0.342,0.436-0.507,0.657
		c0.199-0.151,0.474-0.296,0.681-0.47c-0.151,0.17-0.256,0.438-0.396,0.607c0.244-0.08,0.522-0.226,0.71-0.443
		c-0.131,0.158-0.259,0.393-0.369,0.532c0.253-0.152,0.493-0.321,0.663-0.563c-0.195,0.225-0.403,0.448-0.613,0.661
		c0.328-0.187,0.625-0.443,0.937-0.654c-0.222,0.222-0.448,0.499-0.538,0.749c0.29-0.188,0.557-0.421,0.816-0.655
		c-0.192,0.208-0.323,0.475-0.493,0.696c0.188-0.11,0.538-0.222,0.755-0.378c-0.004,0.666-0.357,1.27-0.451,1.927
		c-0.057,0.423,0.052,0.948-0.064,1.359c-0.293,1.037-1.466,1.547-1.951,2.307c0.474-0.348,0.898-0.754,1.305-1.175
		c-0.534,0.499-1.155,0.93-1.64,1.48c0.278-0.111,0.545-0.285,0.76-0.493c-0.549,0.53-1.242,0.929-1.884,1.327
		c0.448-0.419,0.932-0.821,1.455-1.136c-0.647,0.339-1.203,0.838-1.858,1.164c0.083-0.086,0.199-0.267,0.267-0.341
		c-0.853,0.322-1.605,0.733-2.312,1.283c0.177-0.194,0.346-0.437,0.523-0.648c-0.233,0.181-0.444,0.393-0.631,0.622
		c0.255-0.296,0.477-0.622,0.597-0.992c-0.285,0.048-0.563,0.403-0.796,0.627c0.395-0.485,0.842-1.002,1.045-1.598
		c-0.315,0.119-0.609,0.427-0.839,0.719c0.208-0.234,0.343-0.534,0.357-0.817c-0.248,0.104-0.5,0.283-0.65,0.536
		c0.282-0.428,0.639-0.886,0.582-1.415c-0.281,0.14-0.511,0.402-0.639,0.678c0.229-0.487,0.448-1.113,0.331-1.614
		c-0.127,0.063-0.222,0.16-0.319,0.275"/>
</g>
</svg>
