<?xml version="1.0" encoding="utf-8"?>
<!-- Generator: Adobe Illustrator 16.0.0, SVG Export Plug-In . SVG Version: 6.00 Build 0)  -->
<!DOCTYPE svg PUBLIC "-//W3C//DTD SVG 1.1//EN" "http://www.w3.org/Graphics/SVG/1.1/DTD/svg11.dtd">
<svg version="1.1" id="Capa_1" xmlns="http://www.w3.org/2000/svg" xmlns:xlink="http://www.w3.org/1999/xlink" x="0px" y="0px"
	 width="250px" height="250px" viewBox="0 0 250 250" enable-background="new 0 0 250 250" xml:space="preserve">
<g>
	<path fill="#4A5B66" stroke="#141F29" stroke-width="1.6533" stroke-miterlimit="10" d="M219.189,95.886
		c-0.047-0.019-0.087-0.045-0.138-0.058c-0.349-0.097-36.299-9.5-94.065-9.518c-57.593,0.021-92.01,9.265-92.35,9.356
		c-1.172,0.32-1.569,1.222-1.691,1.945c-0.057,0.235-0.136,0.625-0.136,1.102v34.516c0,8.959,9.549,16.404,28.387,22.141
		c17.635,5.364,41.015,8.319,65.848,8.319c24.832,0,48.218-2.955,65.85-8.319c0.595-0.183,1.185-0.366,1.764-0.552
		c15.153-4.779,25.512-11.501,26.531-20.032V95.886z"/>
	<g>
		<g>
			<path fill="none" stroke="#DDEEF0" stroke-width="1.4352" stroke-linecap="round" stroke-linejoin="round" d="M217.248,98.628
				v-0.957c-0.044-0.017-0.087-0.041-0.135-0.056c-0.027-0.007-0.292-0.074-0.784-0.189"/>
			
				<path fill="none" stroke="#DDEEF0" stroke-width="1.4352" stroke-linecap="round" stroke-linejoin="round" stroke-dasharray="1.9099,2.8648" d="
				M213.538,96.802c-10.288-2.201-42.197-8.106-88.352-8.12c-56.292,0.021-89.923,8.698-90.253,8.785
				c-1.149,0.299-1.537,1.146-1.655,1.826c-0.052,0.22-0.132,0.586-0.132,1.034v32.402c0,8.411,9.335,15.401,27.745,20.784
				c17.234,5.033,40.084,7.81,64.353,7.81c24.266,0,47.12-2.776,64.35-7.81c0.585-0.171,1.16-0.344,1.725-0.518
				c14.81-4.486,24.936-10.796,25.931-18.806v-34.121"/>
		</g>
	</g>
	
		<path fill="none" stroke="#FFFFFF" stroke-width="1.8329" stroke-linecap="round" stroke-linejoin="round" stroke-miterlimit="10" d="
		M67.045,135.022c0.339,0.711,0.265,1.992,0.429,2.833c-0.403-1.073-0.77-2.575-2.138-2.646c-1.205-0.066-2.544,0.741-3.056,1.816
		c-1.043,2.209-0.755,7.597,2.865,7.021c1.047-0.167,1.873-1.093,2.285-2.015"/>
	
		<path fill="none" stroke="#FFFFFF" stroke-width="1.8329" stroke-linecap="round" stroke-linejoin="round" stroke-miterlimit="10" d="
		M80.574,144.155c0.846,0.192,2.07,0.211,2.878-0.087c-0.757,0.067-1.167,0.416-1.577-0.297c-0.461-0.795-0.776-1.922-1.063-2.806
		c-0.584-1.826-1.033-3.704-1.65-5.515c-0.746,0.174-0.942,1.819-1.134,2.413c-0.349,1.11-0.514,2.263-0.824,3.385
		c-0.185,0.662-0.341,1.897-0.753,2.453c-0.334,0.446-0.673,0.232-1.167,0.457c0.886,0.071,1.757-0.156,2.661-0.047
		c0.078,0.076-0.039,0.02-0.089,0.043"/>
	
		<path fill="none" stroke="#FFFFFF" stroke-width="1.8329" stroke-linecap="round" stroke-linejoin="round" stroke-miterlimit="10" d="
		M91.431,135.276c0.697,0.002,1.63-0.144,2.41-0.08c-0.227,0.198-0.534,0.232-0.835,0.211c-0.468,2.884,0.051,5.842-0.047,8.743
		c-0.371,0.02-0.729-0.009-1.094-0.038c0.76,0.004,1.762-0.251,2.455-0.027c-0.071,0.047-0.091-0.02-0.167-0.013"/>
	
		<path fill="none" stroke="#FFFFFF" stroke-width="1.8329" stroke-linecap="round" stroke-linejoin="round" stroke-miterlimit="10" d="
		M99.039,135.233c-0.82,0.17-1.746-0.177-2.533,0.076c0.374-0.182,0.956-0.211,1.381-0.196c0.089,1.952,0.1,3.983-0.078,5.929
		c-0.091,1.005-0.301,2.094-0.256,3.103c-1.033-1.578-1.699-3.466-2.383-5.212c-0.301-0.768-0.726-1.475-1.042-2.229
		c-0.2-0.49-0.254-1.017-0.454-1.507c-0.091,0.051-0.08,0.113-0.116,0.207"/>
	
		<path fill="none" stroke="#FFFFFF" stroke-width="1.8329" stroke-linecap="round" stroke-linejoin="round" stroke-miterlimit="10" d="
		M77.298,140.672c0.773,0.003,2.671,0.199,3.147-0.169"/>
	
		<path fill="none" stroke="#FFFFFF" stroke-width="1.8329" stroke-linecap="round" stroke-linejoin="round" stroke-miterlimit="10" d="
		M107.549,137.207c0.499,0.033,0.33-2.054,0.261-2.457c1.296,0.053,2.528,0.167,3.826-0.055c0.544-0.092,1.047-0.163,1.6-0.076
		c0.127,0.883,0.133,1.841,0.133,2.715"/>
	
		<path fill="none" stroke="#FFFFFF" stroke-width="1.8329" stroke-linecap="round" stroke-linejoin="round" stroke-miterlimit="10" d="
		M136.842,135.276c1.533,0.171,3.956-0.406,4.99,1.053c1.06,1.497,0.167,3.14-1.538,3.205c-0.719,0.026-1.41-0.01-2.127,0.108
		c1.637-0.167,3.76-0.611,3.948,1.562c0.186,2.102-1.223,2.979-3.153,3.034c-0.672,0.019-1.354-0.04-2.027-0.04
		c-0.015-0.055-0.015-0.112-0.009-0.167"/>
	
		<path fill="none" stroke="#FFFFFF" stroke-width="1.8329" stroke-linecap="round" stroke-linejoin="round" stroke-miterlimit="10" d="
		M149.38,135.149c1.597-0.017,4.591-0.417,5.217,1.516c0.911,2.802-1.878,2.863-3.814,2.896c1.376-0.083,3.067-0.489,3.597,1.218
		c0.354,1.146,0.396,2.37,0.873,3.501c0.321-0.086,0.641-0.218,1-0.156c0-0.004,0.058,0.072,0.053,0.069
		c-0.084,0.03-0.104-0.04-0.169-0.037"/>
	
		<path fill="none" stroke="#FFFFFF" stroke-width="1.8329" stroke-linecap="round" stroke-linejoin="round" stroke-miterlimit="10" d="
		M178.014,143.985c-0.944-0.002-1.928-0.279-2.842-0.203c-0.011-0.015-0.011,0.125,0,0.11c0.798,0.18,1.237,0.14,1.54-0.579
		c0.443-1.043,0.576-2.319,0.896-3.408c0.393-1.324,0.61-3.362,1.509-4.469c0.334,0.385,0.41,0.78,0.544,1.257
		c0.225,0.812,0.624,1.568,0.842,2.378c0.266,1.011,0.573,1.92,0.922,2.903c0.164,0.44,0.213,0.846,0.461,1.254
		c0.205,0.332,0.539,0.575,0.623,0.965c-0.587,0.101-1.359,0.151-1.879,0.05c0.689-0.002,1.51,0.112,2.188-0.048
		c0.016,0.015,0.083,0.116,0.077,0.113c-0.045-0.004-0.13-0.065-0.168-0.065"/>
	
		<path fill="none" stroke="#FFFFFF" stroke-width="1.8329" stroke-linecap="round" stroke-linejoin="round" stroke-miterlimit="10" d="
		M129.228,143.772c-0.864,0.26-1.911,0.23-2.827,0.213c0.632,0.04,1.43-0.279,1.941-0.251c-0.592-0.448-0.977-1.718-1.321-2.366
		c-0.436-0.806-0.671-1.644-0.893-2.525c-0.345-1.369-0.689-2.636-1.145-3.956c-0.604,0.935-0.854,2.204-1.269,3.235
		c-0.424,1.066-0.679,2.117-0.824,3.25c-0.076,0.611-0.114,1.567-0.377,2.129c-0.337,0.717-0.497,0.1-1.042,0.497
		c0.854,0.146,1.728-0.167,2.566-0.129c-0.074,0.043-0.12,0.015-0.207,0.032"/>
	
		<path fill="none" stroke="#FFFFFF" stroke-width="1.8329" stroke-linecap="round" stroke-linejoin="round" stroke-miterlimit="10" d="
		M164.3,134.979c0.459,0.414,1.9,0.156,2.512,0.178c-0.778,0.323-1.047-0.31-1.357,0.549c-0.325,0.912-0.281,2.174-0.25,3.126
		c0.058,1.777,0.333,3.539,0.281,5.319c-0.45,0.034-0.9,0.049-1.354,0.049c0.763,0.131,2.091-0.402,2.713,0.029
		c-0.068-0.099-0.146-0.12-0.248-0.156"/>
	
		<path fill="none" stroke="#FFFFFF" stroke-width="1.8329" stroke-linecap="round" stroke-linejoin="round" stroke-miterlimit="10" d="
		M149.38,144.199c1.121-0.102,2.281-0.184,3.39-0.172c-0.611,0.172-1.436-0.013-2.058-0.08c0.379-0.604,0.07-1.814,0.07-2.518
		c-0.005-0.702-0.043-1.4-0.045-2.104c-0.01-1.211,0.129-2.761,0-3.835"/>
	
		<path fill="none" stroke="#FFFFFF" stroke-width="1.8329" stroke-linecap="round" stroke-linejoin="round" stroke-miterlimit="10" d="
		M138.413,135.403c0.152,1.023-0.281,2.167-0.275,3.214c0.004,1.105,0.127,2.22,0.152,3.332c0.017,0.733,0.194,1.522,0.042,2.25"/>
	
		<path fill="none" stroke="#FFFFFF" stroke-width="1.8329" stroke-linecap="round" stroke-linejoin="round" stroke-miterlimit="10" d="
		M110.42,135.149c0.276,2.094,0.091,4.347,0.127,6.46c0.025,1.52-0.149,2.146-1.637,2.592c0.414,0.017,2.9-0.564,2.953-0.169"/>
	
		<path fill="none" stroke="#FFFFFF" stroke-width="1.8329" stroke-linecap="round" stroke-linejoin="round" stroke-miterlimit="10" d="
		M123.192,140.951c1.136,0.526,2.508-0.044,3.727,0.218"/>
	
		<path fill="none" stroke="#FFFFFF" stroke-width="1.8329" stroke-linecap="round" stroke-linejoin="round" stroke-miterlimit="10" d="
		M177.022,140.729c1.053,0.188,3.806,0.309,4.281,0"/>
	
		<polyline fill="none" stroke="#FFFFFF" stroke-width="1.4352" stroke-linecap="round" stroke-linejoin="round" stroke-miterlimit="10" points="
		33.668,117.902 35.715,119.763 37.947,117.345 39.619,119.949 43.155,116.972 45.574,122.182 47.621,121.252 48.55,121.996 
		52.83,120.135 54.13,118.089 55.807,113.809 60.829,109.344 62.875,111.577 65.667,113.252 67.154,111.392 69.945,110.089 
		74.04,111.577 75.34,113.065 76.458,110.646 78.318,111.019 79.803,113.252 82.226,111.763 82.039,109.344 94.318,101.903 
		102.689,110.089 104.737,109.902 105.666,111.577 108.084,112.507 109.573,111.019 111.246,111.577 111.805,113.809 
		114.779,113.065 117.385,112.879 119.432,111.577 126.688,110.462 128.549,107.67 130.596,105.624 134.129,106.926 
		136.735,104.694 138.41,105.438 143.244,103.764 146.409,102.088 148.269,104.88 150.875,104.88 152.918,106.554 155.337,106.183 
		159.058,105.624 161.663,105.251 163.898,106.926 165.572,108.6 167.431,109.158 168.92,111.019 172.081,109.529 174.688,110.833 
		176.547,109.529 179.712,106.554 181.196,107.484 183.801,106.183 186.034,106.554 189.013,109.529 193.103,113.437 
		195.151,114.367 198.314,112.136 202.224,114.739 206.127,117.158 208.733,116.6 209.848,121.252 213.941,120.879 	"/>
	
		<path fill="none" stroke="#FFFFFF" stroke-width="1.4352" stroke-linecap="round" stroke-linejoin="round" stroke-miterlimit="10" d="
		M102.689,110.089c0,0,3.953,5.27,3.8,5.729c-0.154,0.46,1.84,3.223,1.84,3.223s1.379,1.689,0.613,2.61
		c-0.768,0.92-0.307,1.535,0.309,1.687c0.613,0.153,3.684,0.922,4.452,1.229"/>
	
		<path fill="none" stroke="#FFFFFF" stroke-width="1.4352" stroke-linecap="round" stroke-linejoin="round" stroke-miterlimit="10" d="
		M148.269,104.88c0.883,0.197,2.419,6.489,3.336,7.256c0.924,0.767-2.913,0.767-2.913,0.767s2.102,2.993,2.61,3.223
		c1.686,0.769,4.143,2.149,4.445,3.223c0.311,1.075-0.455,2.304,0.156,2.764"/>
	
		<path fill="none" stroke="#FFFFFF" stroke-width="1.4352" stroke-linecap="round" stroke-linejoin="round" stroke-miterlimit="10" d="
		M195.151,114.367c1.02,1.128,4.694,3.804,2.188,5.287c4.918,3.433,8.919,8.262,14.732,10.283"/>
	
		<path fill="none" stroke="#FFFFFF" stroke-width="1.4352" stroke-linecap="round" stroke-linejoin="round" stroke-miterlimit="10" d="
		M65.667,113.252l-1.993,2.72l0.766,2.303c0,0-1.229,1.38-1.842,1.994c-0.613,0.615-2.76,5.219-2.76,5.219l-0.614,1.227"/>
</g>
</svg>
