<?xml version="1.0" encoding="utf-8"?>
<!-- Generator: Adobe Illustrator 16.0.0, SVG Export Plug-In . SVG Version: 6.00 Build 0)  -->
<!DOCTYPE svg PUBLIC "-//W3C//DTD SVG 1.1//EN" "http://www.w3.org/Graphics/SVG/1.1/DTD/svg11.dtd">
<svg version="1.1" id="Capa_1" xmlns="http://www.w3.org/2000/svg" xmlns:xlink="http://www.w3.org/1999/xlink" x="0px" y="0px"
	 width="250px" height="250px" viewBox="0 0 250 250" enable-background="new 0 0 250 250" xml:space="preserve">
<pattern  width="72" height="72" patternUnits="userSpaceOnUse" id="USGS_22_Playa_pedregosa" viewBox="11.65 -72 72 72" overflow="visible">
	<g>
		<polygon fill="none" points="11.65,0 11.65,-72 83.65,-72 83.65,0 		"/>
		<line fill="none" stroke="#1E1E1C" stroke-width="0.7" stroke-linecap="round" x1="32.65" y1="-69.25" x2="32.65" y2="-69.25"/>
		<line fill="none" stroke="#1E1E1C" stroke-width="0.7" stroke-linecap="round" x1="31.65" y1="-64" x2="31.65" y2="-64"/>
		<line fill="none" stroke="#1E1E1C" stroke-width="0.7" stroke-linecap="round" x1="31.9" y1="-61.75" x2="31.9" y2="-61.75"/>
		<line fill="none" stroke="#1E1E1C" stroke-width="0.7" stroke-linecap="round" x1="26.9" y1="-61.75" x2="26.9" y2="-61.75"/>
		<line fill="none" stroke="#1E1E1C" stroke-width="0.7" stroke-linecap="round" x1="34.4" y1="-52.25" x2="34.4" y2="-52.25"/>
		<line fill="none" stroke="#1E1E1C" stroke-width="0.7" stroke-linecap="round" x1="26.9" y1="-49.25" x2="26.9" y2="-49.25"/>
		<line fill="none" stroke="#1E1E1C" stroke-width="0.7" stroke-linecap="round" x1="25.65" y1="-48.25" x2="25.65" y2="-48.25"/>
		<line fill="none" stroke="#1E1E1C" stroke-width="0.7" stroke-linecap="round" x1="35.65" y1="-45.25" x2="35.65" y2="-45.25"/>
		<line fill="none" stroke="#1E1E1C" stroke-width="0.7" stroke-linecap="round" x1="42.4" y1="-46.5" x2="42.4" y2="-46.5"/>
		<line fill="none" stroke="#1E1E1C" stroke-width="0.7" stroke-linecap="round" x1="42.9" y1="-49" x2="42.9" y2="-49"/>
		<line fill="none" stroke="#1E1E1C" stroke-width="0.7" stroke-linecap="round" x1="40.9" y1="-54" x2="40.9" y2="-54"/>
		<line fill="none" stroke="#1E1E1C" stroke-width="0.7" stroke-linecap="round" x1="45.65" y1="-52.5" x2="45.65" y2="-52.5"/>
		<line fill="none" stroke="#1E1E1C" stroke-width="0.7" stroke-linecap="round" x1="43.15" y1="-57.5" x2="43.15" y2="-57.5"/>
		<line fill="none" stroke="#1E1E1C" stroke-width="0.7" stroke-linecap="round" x1="43.4" y1="-60.5" x2="43.4" y2="-60.5"/>
		<line fill="none" stroke="#1E1E1C" stroke-width="0.7" stroke-linecap="round" x1="43.9" y1="-65.25" x2="43.9" y2="-65.25"/>
		<line fill="none" stroke="#1E1E1C" stroke-width="0.7" stroke-linecap="round" x1="43.65" y1="-69.25" x2="43.65" y2="-69.25"/>
		<line fill="none" stroke="#1E1E1C" stroke-width="0.7" stroke-linecap="round" x1="45.65" y1="-71" x2="45.65" y2="-71"/>
		<line fill="none" stroke="#1E1E1C" stroke-width="0.7" stroke-linecap="round" x1="53.15" y1="-65.25" x2="53.15" y2="-65.25"/>
		<line fill="none" stroke="#1E1E1C" stroke-width="0.7" stroke-linecap="round" x1="57.15" y1="-65.5" x2="57.15" y2="-65.5"/>
		<line fill="none" stroke="#1E1E1C" stroke-width="0.7" stroke-linecap="round" x1="54.15" y1="-58.75" x2="54.15" y2="-58.75"/>
		<line fill="none" stroke="#1E1E1C" stroke-width="0.7" stroke-linecap="round" x1="58.65" y1="-58" x2="58.65" y2="-58"/>
		<line fill="none" stroke="#1E1E1C" stroke-width="0.7" stroke-linecap="round" x1="58.65" y1="-56" x2="58.65" y2="-56"/>
		<line fill="none" stroke="#1E1E1C" stroke-width="0.7" stroke-linecap="round" x1="50.65" y1="-51.5" x2="50.65" y2="-51.5"/>
		<line fill="none" stroke="#1E1E1C" stroke-width="0.7" stroke-linecap="round" x1="61.9" y1="-58.75" x2="61.9" y2="-58.75"/>
		<line fill="none" stroke="#1E1E1C" stroke-width="0.7" stroke-linecap="round" x1="63.9" y1="-60.25" x2="63.9" y2="-60.25"/>
		<line fill="none" stroke="#1E1E1C" stroke-width="0.7" stroke-linecap="round" x1="66.4" y1="-61.25" x2="66.4" y2="-61.25"/>
		<line fill="none" stroke="#1E1E1C" stroke-width="0.7" stroke-linecap="round" x1="68.15" y1="-71.5" x2="68.15" y2="-71.5"/>
		<line fill="none" stroke="#1E1E1C" stroke-width="0.7" stroke-linecap="round" x1="79.65" y1="-69.25" x2="79.65" y2="-69.25"/>
		<line fill="none" stroke="#1E1E1C" stroke-width="0.7" stroke-linecap="round" x1="79.65" y1="-62" x2="79.65" y2="-62"/>
		<line fill="none" stroke="#1E1E1C" stroke-width="0.7" stroke-linecap="round" x1="75.9" y1="-60" x2="75.9" y2="-60"/>
		<line fill="none" stroke="#1E1E1C" stroke-width="0.7" stroke-linecap="round" x1="76.9" y1="-56.5" x2="76.9" y2="-56.5"/>
		<line fill="none" stroke="#1E1E1C" stroke-width="0.7" stroke-linecap="round" x1="75.65" y1="-52.5" x2="75.65" y2="-52.5"/>
		<line fill="none" stroke="#1E1E1C" stroke-width="0.7" stroke-linecap="round" x1="77.9" y1="-52.5" x2="77.9" y2="-52.5"/>
		<line fill="none" stroke="#1E1E1C" stroke-width="0.7" stroke-linecap="round" x1="79.65" y1="-51" x2="79.65" y2="-51"/>
		<line fill="none" stroke="#1E1E1C" stroke-width="0.7" stroke-linecap="round" x1="18.65" y1="-20" x2="18.65" y2="-20"/>
		<line fill="none" stroke="#1E1E1C" stroke-width="0.7" stroke-linecap="round" x1="18.9" y1="-17.75" x2="18.9" y2="-17.75"/>
		<line fill="none" stroke="#1E1E1C" stroke-width="0.7" stroke-linecap="round" x1="13.9" y1="-17.75" x2="13.9" y2="-17.75"/>
		<line fill="none" stroke="#1E1E1C" stroke-width="0.7" stroke-linecap="round" x1="21.4" y1="-8.25" x2="21.4" y2="-8.25"/>
		<line fill="none" stroke="#1E1E1C" stroke-width="0.7" stroke-linecap="round" x1="12.65" y1="-4.25" x2="12.65" y2="-4.25"/>
		<line fill="none" stroke="#1E1E1C" stroke-width="0.7" stroke-linecap="round" x1="22.65" y1="-1.25" x2="22.65" y2="-1.25"/>
		<line fill="none" stroke="#1E1E1C" stroke-width="0.7" stroke-linecap="round" x1="29.9" y1="-5" x2="29.9" y2="-5"/>
		<line fill="none" stroke="#1E1E1C" stroke-width="0.7" stroke-linecap="round" x1="27.9" y1="-10" x2="27.9" y2="-10"/>
		<line fill="none" stroke="#1E1E1C" stroke-width="0.7" stroke-linecap="round" x1="31.15" y1="-14.5" x2="31.15" y2="-14.5"/>
		<line fill="none" stroke="#1E1E1C" stroke-width="0.7" stroke-linecap="round" x1="30.4" y1="-16.5" x2="30.4" y2="-16.5"/>
		<line fill="none" stroke="#1E1E1C" stroke-width="0.7" stroke-linecap="round" x1="27.9" y1="-17.5" x2="27.9" y2="-17.5"/>
		<line fill="none" stroke="#1E1E1C" stroke-width="0.7" stroke-linecap="round" x1="30.9" y1="-21.25" x2="30.9" y2="-21.25"/>
		<line fill="none" stroke="#1E1E1C" stroke-width="0.7" stroke-linecap="round" x1="30.65" y1="-25.25" x2="30.65" y2="-25.25"/>
		<line fill="none" stroke="#1E1E1C" stroke-width="0.7" stroke-linecap="round" x1="27.9" y1="-25" x2="27.9" y2="-25"/>
		<line fill="none" stroke="#1E1E1C" stroke-width="0.7" stroke-linecap="round" x1="44.15" y1="-21.5" x2="44.15" y2="-21.5"/>
		<line fill="none" stroke="#1E1E1C" stroke-width="0.7" stroke-linecap="round" x1="38.9" y1="-18" x2="38.9" y2="-18"/>
		<line fill="none" stroke="#1E1E1C" stroke-width="0.7" stroke-linecap="round" x1="43.65" y1="-16.5" x2="43.65" y2="-16.5"/>
		<line fill="none" stroke="#1E1E1C" stroke-width="0.7" stroke-linecap="round" x1="43.65" y1="-14.75" x2="43.65" y2="-14.75"/>
		<line fill="none" stroke="#1E1E1C" stroke-width="0.7" stroke-linecap="round" x1="45.65" y1="-14" x2="45.65" y2="-14"/>
		<line fill="none" stroke="#1E1E1C" stroke-width="0.7" stroke-linecap="round" x1="37.65" y1="-7.5" x2="37.65" y2="-7.5"/>
		<line fill="none" stroke="#1E1E1C" stroke-width="0.7" stroke-linecap="round" x1="47.65" y1="-16" x2="47.65" y2="-16"/>
		<line fill="none" stroke="#1E1E1C" stroke-width="0.7" stroke-linecap="round" x1="50.9" y1="-16.25" x2="50.9" y2="-16.25"/>
		<line fill="none" stroke="#1E1E1C" stroke-width="0.7" stroke-linecap="round" x1="53.4" y1="-21.5" x2="53.4" y2="-21.5"/>
		<line fill="none" stroke="#1E1E1C" stroke-width="0.7" stroke-linecap="round" x1="55.15" y1="-27.5" x2="55.15" y2="-27.5"/>
		<line fill="none" stroke="#1E1E1C" stroke-width="0.7" stroke-linecap="round" x1="62.65" y1="-21.75" x2="62.65" y2="-21.75"/>
		<line fill="none" stroke="#1E1E1C" stroke-width="0.7" stroke-linecap="round" x1="63.65" y1="-25.75" x2="63.65" y2="-25.75"/>
		<line fill="none" stroke="#1E1E1C" stroke-width="0.7" stroke-linecap="round" x1="66.65" y1="-25.25" x2="66.65" y2="-25.25"/>
		<line fill="none" stroke="#1E1E1C" stroke-width="0.7" stroke-linecap="round" x1="66.65" y1="-18" x2="66.65" y2="-18"/>
		<line fill="none" stroke="#1E1E1C" stroke-width="0.7" stroke-linecap="round" x1="62.9" y1="-16" x2="62.9" y2="-16"/>
		<line fill="none" stroke="#1E1E1C" stroke-width="0.7" stroke-linecap="round" x1="62.65" y1="-8.5" x2="62.65" y2="-8.5"/>
		<line fill="none" stroke="#1E1E1C" stroke-width="0.7" stroke-linecap="round" x1="64.9" y1="-8.5" x2="64.9" y2="-8.5"/>
		<line fill="none" stroke="#1E1E1C" stroke-width="0.7" stroke-linecap="round" x1="67.65" y1="-9.25" x2="67.65" y2="-9.25"/>
		<line fill="none" stroke="#1E1E1C" stroke-width="0.7" stroke-linecap="round" x1="69.9" y1="-10.75" x2="69.9" y2="-10.75"/>
		<line fill="none" stroke="#1E1E1C" stroke-width="0.7" stroke-linecap="round" x1="32.65" y1="-45.25" x2="32.65" y2="-45.25"/>
		<line fill="none" stroke="#1E1E1C" stroke-width="0.7" stroke-linecap="round" x1="34.4" y1="-48.25" x2="34.4" y2="-48.25"/>
		<line fill="none" stroke="#1E1E1C" stroke-width="0.7" stroke-linecap="round" x1="50.65" y1="-47.5" x2="50.65" y2="-47.5"/>
		<line fill="none" stroke="#1E1E1C" stroke-width="0.7" stroke-linecap="round" x1="57.9" y1="-43.25" x2="57.9" y2="-43.25"/>
		<line fill="none" stroke="#1E1E1C" stroke-width="0.7" stroke-linecap="round" x1="66.9" y1="-44.25" x2="66.9" y2="-44.25"/>
		<line fill="none" stroke="#1E1E1C" stroke-width="0.7" stroke-linecap="round" x1="62.9" y1="-47" x2="62.9" y2="-47"/>
		<line fill="none" stroke="#1E1E1C" stroke-width="0.7" stroke-linecap="round" x1="63.65" y1="-42.75" x2="63.65" y2="-42.75"/>
		<line fill="none" stroke="#1E1E1C" stroke-width="0.7" stroke-linecap="round" x1="74.15" y1="-36.75" x2="74.15" y2="-36.75"/>
		<line fill="none" stroke="#1E1E1C" stroke-width="0.7" stroke-linecap="round" x1="68.4" y1="-33.25" x2="68.4" y2="-33.25"/>
		<line fill="none" stroke="#1E1E1C" stroke-width="0.7" stroke-linecap="round" x1="59.9" y1="-35" x2="59.9" y2="-35"/>
		<line fill="none" stroke="#1E1E1C" stroke-width="0.7" stroke-linecap="round" x1="59.65" y1="-31" x2="59.65" y2="-31"/>
		<line fill="none" stroke="#1E1E1C" stroke-width="0.7" stroke-linecap="round" x1="65.15" y1="-27.25" x2="65.15" y2="-27.25"/>
		<line fill="none" stroke="#1E1E1C" stroke-width="0.7" stroke-linecap="round" x1="73.9" y1="-24.25" x2="73.9" y2="-24.25"/>
		<line fill="none" stroke="#1E1E1C" stroke-width="0.7" stroke-linecap="round" x1="76.65" y1="-20.5" x2="76.65" y2="-20.5"/>
		<line fill="none" stroke="#1E1E1C" stroke-width="0.7" stroke-linecap="round" x1="81.15" y1="-27.25" x2="81.15" y2="-27.25"/>
		<line fill="none" stroke="#1E1E1C" stroke-width="0.7" stroke-linecap="round" x1="71.65" y1="-33.25" x2="71.65" y2="-33.25"/>
		<line fill="none" stroke="#1E1E1C" stroke-width="0.7" stroke-linecap="round" x1="44.15" y1="-25.25" x2="44.15" y2="-25.25"/>
		<line fill="none" stroke="#1E1E1C" stroke-width="0.7" stroke-linecap="round" x1="37.9" y1="-34.5" x2="37.9" y2="-34.5"/>
		<line fill="none" stroke="#1E1E1C" stroke-width="0.7" stroke-linecap="round" x1="41.4" y1="-36.75" x2="41.4" y2="-36.75"/>
		<line fill="none" stroke="#1E1E1C" stroke-width="0.7" stroke-linecap="round" x1="22.15" y1="-42.75" x2="22.15" y2="-42.75"/>
		<line fill="none" stroke="#1E1E1C" stroke-width="0.7" stroke-linecap="round" x1="17.65" y1="-40.75" x2="17.65" y2="-40.75"/>
		<line fill="none" stroke="#1E1E1C" stroke-width="0.7" stroke-linecap="round" x1="14.15" y1="-37" x2="14.15" y2="-37"/>
		<line fill="none" stroke="#1E1E1C" stroke-width="0.7" stroke-linecap="round" x1="28.65" y1="-30.25" x2="28.65" y2="-30.25"/>
		<line fill="none" stroke="#1E1E1C" stroke-width="0.7" stroke-linecap="round" x1="24.4" y1="-36.25" x2="24.4" y2="-36.25"/>
		<line fill="none" stroke="#1E1E1C" stroke-width="0.7" stroke-linecap="round" x1="38.15" y1="-42" x2="38.15" y2="-42"/>
		<line fill="none" stroke="#1E1E1C" stroke-width="0.7" stroke-linecap="round" x1="50.9" y1="-41.5" x2="50.9" y2="-41.5"/>
		<line fill="none" stroke="#1E1E1C" stroke-width="0.7" stroke-linecap="round" x1="49.9" y1="-39.5" x2="49.9" y2="-39.5"/>
		<line fill="none" stroke="#1E1E1C" stroke-width="0.7" stroke-linecap="round" x1="39.65" y1="-30.25" x2="39.65" y2="-30.25"/>
		<line fill="none" stroke="#1E1E1C" stroke-width="0.7" stroke-linecap="round" x1="18.15" y1="-51.75" x2="18.15" y2="-51.75"/>
		<line fill="none" stroke="#1E1E1C" stroke-width="0.7" stroke-linecap="round" x1="21.4" y1="-53.5" x2="21.4" y2="-53.5"/>
		<line fill="none" stroke="#1E1E1C" stroke-width="0.7" stroke-linecap="round" x1="23.4" y1="-48.75" x2="23.4" y2="-48.75"/>
		<line fill="none" stroke="#1E1E1C" stroke-width="0.7" stroke-linecap="round" x1="14.65" y1="-46.5" x2="14.65" y2="-46.5"/>
		<line fill="none" stroke="#1E1E1C" stroke-width="0.7" stroke-linecap="round" x1="75.9" y1="-42.75" x2="75.9" y2="-42.75"/>
		<line fill="none" stroke="#1E1E1C" stroke-width="0.7" stroke-linecap="round" x1="81.15" y1="-42.5" x2="81.15" y2="-42.5"/>
		<line fill="none" stroke="#1E1E1C" stroke-width="0.7" stroke-linecap="round" x1="13.15" y1="-63.25" x2="13.15" y2="-63.25"/>
		<line fill="none" stroke="#1E1E1C" stroke-width="0.7" stroke-linecap="round" x1="28.15" y1="-66.25" x2="28.15" y2="-66.25"/>
		<line fill="none" stroke="#1E1E1C" stroke-width="0.7" stroke-linecap="round" x1="15.4" y1="-66.25" x2="15.4" y2="-66.25"/>
		<line fill="none" stroke="#1E1E1C" stroke-width="0.7" stroke-linecap="round" x1="24.4" y1="-58" x2="24.4" y2="-58"/>
		<line fill="none" stroke="#1E1E1C" stroke-width="0.7" stroke-linecap="round" x1="30.15" y1="-53" x2="30.15" y2="-53"/>
		<line fill="none" stroke="#1E1E1C" stroke-width="0.7" stroke-linecap="round" x1="32.9" y1="-35.25" x2="32.9" y2="-35.25"/>
		<line fill="none" stroke="#1E1E1C" stroke-width="0.7" stroke-linecap="round" x1="12.4" y1="-28" x2="12.4" y2="-28"/>
		<line fill="none" stroke="#1E1E1C" stroke-width="0.7" stroke-linecap="round" x1="79.65" y1="-6.25" x2="79.65" y2="-6.25"/>
		<line fill="none" stroke="#1E1E1C" stroke-width="0.7" stroke-linecap="round" x1="71.4" y1="-2.5" x2="71.4" y2="-2.5"/>
		<line fill="none" stroke="#1E1E1C" stroke-width="0.7" stroke-linecap="round" x1="52.15" y1="-4.25" x2="52.15" y2="-4.25"/>
		<line fill="none" stroke="#1E1E1C" stroke-width="0.7" stroke-linecap="round" x1="16.15" y1="-12.25" x2="16.15" y2="-12.25"/>
		<line fill="none" stroke="#1E1E1C" stroke-width="0.7" stroke-linecap="round" x1="38.15" y1="-12.75" x2="38.15" y2="-12.75"/>
		<line fill="none" stroke="#1E1E1C" stroke-width="0.7" stroke-linecap="round" x1="48.9" y1="-23.75" x2="48.9" y2="-23.75"/>
		<line fill="none" stroke="#1E1E1C" stroke-width="0.7" stroke-linecap="round" x1="20.4" y1="-32" x2="20.4" y2="-32"/>
		<line fill="none" stroke="#1E1E1C" stroke-width="0.7" stroke-linecap="round" x1="63.9" y1="-34.25" x2="63.9" y2="-34.25"/>
		<line fill="none" stroke="#1E1E1C" stroke-width="0.7" stroke-linecap="round" x1="72.4" y1="-26.25" x2="72.4" y2="-26.25"/>
		<line fill="none" stroke="#1E1E1C" stroke-width="0.7" stroke-linecap="round" x1="62.9" y1="-6" x2="62.9" y2="-6"/>
		<line fill="none" stroke="#1E1E1C" stroke-width="0.7" stroke-linecap="round" x1="51.65" y1="-34.5" x2="51.65" y2="-34.5"/>
		<line fill="none" stroke="#1E1E1C" stroke-width="0.7" stroke-linecap="round" x1="39.15" y1="-58.75" x2="39.15" y2="-58.75"/>
		<line fill="none" stroke="#1E1E1C" stroke-width="0.7" stroke-linecap="round" x1="31.4" y1="-45.75" x2="31.4" y2="-45.75"/>
		<line fill="none" stroke="#1E1E1C" stroke-width="0.7" stroke-linecap="round" x1="23.4" y1="-70.5" x2="23.4" y2="-70.5"/>
		<line fill="none" stroke="#1E1E1C" stroke-width="0.7" stroke-linecap="round" x1="66.9" y1="-68.5" x2="66.9" y2="-68.5"/>
		<line fill="none" stroke="#1E1E1C" stroke-width="0.7" stroke-linecap="round" x1="58.9" y1="-2.5" x2="58.9" y2="-2.5"/>
		<line fill="none" stroke="#1E1E1C" stroke-width="0.7" stroke-linecap="round" x1="16.4" y1="-32" x2="16.4" y2="-32"/>
		<line fill="none" stroke="#1E1E1C" stroke-width="0.7" stroke-linecap="round" x1="80.4" y1="-59" x2="80.4" y2="-59"/>
		<line fill="none" stroke="#1E1E1C" stroke-width="0.7" stroke-linecap="round" x1="34.9" y1="-58.25" x2="34.9" y2="-58.25"/>
		<line fill="none" stroke="#1E1E1C" stroke-width="0.7" stroke-linecap="round" x1="32.15" y1="-55" x2="32.15" y2="-55"/>
		<line fill="none" stroke="#1E1E1C" stroke-width="0.7" stroke-linecap="round" x1="26.4" y1="-55" x2="26.4" y2="-55"/>
		<line fill="none" stroke="#1E1E1C" stroke-width="0.7" stroke-linecap="round" x1="17.65" y1="-60.5" x2="17.65" y2="-60.5"/>
		<line fill="none" stroke="#1E1E1C" stroke-width="0.7" stroke-linecap="round" x1="18.65" y1="-69.5" x2="18.65" y2="-69.5"/>
		<line fill="none" stroke="#1E1E1C" stroke-width="0.7" stroke-linecap="round" x1="21.65" y1="-64" x2="21.65" y2="-64"/>
		<line fill="none" stroke="#1E1E1C" stroke-width="0.7" stroke-linecap="round" x1="25.9" y1="-64" x2="25.9" y2="-64"/>
		<line fill="none" stroke="#1E1E1C" stroke-width="0.7" stroke-linecap="round" x1="37.4" y1="-65.25" x2="37.4" y2="-65.25"/>
		<line fill="none" stroke="#1E1E1C" stroke-width="0.7" stroke-linecap="round" x1="48.65" y1="-64.75" x2="48.65" y2="-64.75"/>
		<line fill="none" stroke="#1E1E1C" stroke-width="0.7" stroke-linecap="round" x1="49.15" y1="-68" x2="49.15" y2="-68"/>
		<line fill="none" stroke="#1E1E1C" stroke-width="0.7" stroke-linecap="round" x1="54.9" y1="-70" x2="54.9" y2="-70"/>
		<line fill="none" stroke="#1E1E1C" stroke-width="0.7" stroke-linecap="round" x1="61.15" y1="-64" x2="61.15" y2="-64"/>
		<line fill="none" stroke="#1E1E1C" stroke-width="0.7" stroke-linecap="round" x1="57.65" y1="-63" x2="57.65" y2="-63"/>
		<line fill="none" stroke="#1E1E1C" stroke-width="0.7" stroke-linecap="round" x1="47.4" y1="-61.25" x2="47.4" y2="-61.25"/>
		<line fill="none" stroke="#1E1E1C" stroke-width="0.7" stroke-linecap="round" x1="50.9" y1="-57.25" x2="50.9" y2="-57.25"/>
		<line fill="none" stroke="#1E1E1C" stroke-width="0.7" stroke-linecap="round" x1="36.4" y1="-54.25" x2="36.4" y2="-54.25"/>
		<line fill="none" stroke="#1E1E1C" stroke-width="0.7" stroke-linecap="round" x1="19.9" y1="-45" x2="19.9" y2="-45"/>
		<line fill="none" stroke="#1E1E1C" stroke-width="0.7" stroke-linecap="round" x1="27.65" y1="-40.5" x2="27.65" y2="-40.5"/>
		<line fill="none" stroke="#1E1E1C" stroke-width="0.7" stroke-linecap="round" x1="22.15" y1="-38.75" x2="22.15" y2="-38.75"/>
		<line fill="none" stroke="#1E1E1C" stroke-width="0.7" stroke-linecap="round" x1="16.9" y1="-35.25" x2="16.9" y2="-35.25"/>
		<line fill="none" stroke="#1E1E1C" stroke-width="0.7" stroke-linecap="round" x1="14.9" y1="-51.75" x2="14.9" y2="-51.75"/>
		<line fill="none" stroke="#1E1E1C" stroke-width="0.7" stroke-linecap="round" x1="32.15" y1="-41.5" x2="32.15" y2="-41.5"/>
		<line fill="none" stroke="#1E1E1C" stroke-width="0.7" stroke-linecap="round" x1="29.15" y1="-36.75" x2="29.15" y2="-36.75"/>
		<line fill="none" stroke="#1E1E1C" stroke-width="0.7" stroke-linecap="round" x1="27.65" y1="-33.25" x2="27.65" y2="-33.25"/>
		<line fill="none" stroke="#1E1E1C" stroke-width="0.7" stroke-linecap="round" x1="24.4" y1="-31" x2="24.4" y2="-31"/>
		<line fill="none" stroke="#1E1E1C" stroke-width="0.7" stroke-linecap="round" x1="24.4" y1="-25.75" x2="24.4" y2="-25.75"/>
		<line fill="none" stroke="#1E1E1C" stroke-width="0.7" stroke-linecap="round" x1="17.4" y1="-23.75" x2="17.4" y2="-23.75"/>
		<line fill="none" stroke="#1E1E1C" stroke-width="0.7" stroke-linecap="round" x1="22.65" y1="-17.75" x2="22.65" y2="-17.75"/>
		<line fill="none" stroke="#1E1E1C" stroke-width="0.7" stroke-linecap="round" x1="27.15" y1="-13.75" x2="27.15" y2="-13.75"/>
		<line fill="none" stroke="#1E1E1C" stroke-width="0.7" stroke-linecap="round" x1="17.65" y1="-8.75" x2="17.65" y2="-8.75"/>
		<line fill="none" stroke="#1E1E1C" stroke-width="0.7" stroke-linecap="round" x1="13.9" y1="-10.25" x2="13.9" y2="-10.25"/>
		<line fill="none" stroke="#1E1E1C" stroke-width="0.7" stroke-linecap="round" x1="20.65" y1="-4.25" x2="20.65" y2="-4.25"/>
		<line fill="none" stroke="#1E1E1C" stroke-width="0.7" stroke-linecap="round" x1="25.15" y1="-2.75" x2="25.15" y2="-2.75"/>
		<line fill="none" stroke="#1E1E1C" stroke-width="0.7" stroke-linecap="round" x1="33.15" y1="-3.75" x2="33.15" y2="-3.75"/>
		<line fill="none" stroke="#1E1E1C" stroke-width="0.7" stroke-linecap="round" x1="34.65" y1="-6.5" x2="34.65" y2="-6.5"/>
		<line fill="none" stroke="#1E1E1C" stroke-width="0.7" stroke-linecap="round" x1="33.9" y1="-12.25" x2="33.9" y2="-12.25"/>
		<line fill="none" stroke="#1E1E1C" stroke-width="0.7" stroke-linecap="round" x1="35.9" y1="-14.75" x2="35.9" y2="-14.75"/>
		<line fill="none" stroke="#1E1E1C" stroke-width="0.7" stroke-linecap="round" x1="37.9" y1="-24.5" x2="37.9" y2="-24.5"/>
		<line fill="none" stroke="#1E1E1C" stroke-width="0.7" stroke-linecap="round" x1="37.4" y1="-28.75" x2="37.4" y2="-28.75"/>
		<line fill="none" stroke="#1E1E1C" stroke-width="0.7" stroke-linecap="round" x1="43.9" y1="-41.25" x2="43.9" y2="-41.25"/>
		<line fill="none" stroke="#1E1E1C" stroke-width="0.7" stroke-linecap="round" x1="45.9" y1="-44.5" x2="45.9" y2="-44.5"/>
		<line fill="none" stroke="#1E1E1C" stroke-width="0.7" stroke-linecap="round" x1="53.4" y1="-46.5" x2="53.4" y2="-46.5"/>
		<line fill="none" stroke="#1E1E1C" stroke-width="0.7" stroke-linecap="round" x1="54.65" y1="-51.5" x2="54.65" y2="-51.5"/>
		<line fill="none" stroke="#1E1E1C" stroke-width="0.7" stroke-linecap="round" x1="48.15" y1="-53" x2="48.15" y2="-53"/>
		<line fill="none" stroke="#1E1E1C" stroke-width="0.7" stroke-linecap="round" x1="39.4" y1="-50" x2="39.4" y2="-50"/>
		<line fill="none" stroke="#1E1E1C" stroke-width="0.7" stroke-linecap="round" x1="63.65" y1="-50.25" x2="63.65" y2="-50.25"/>
		<line fill="none" stroke="#1E1E1C" stroke-width="0.7" stroke-linecap="round" x1="54.9" y1="-54.5" x2="54.9" y2="-54.5"/>
		<line fill="none" stroke="#1E1E1C" stroke-width="0.7" stroke-linecap="round" x1="62.15" y1="-54.25" x2="62.15" y2="-54.25"/>
		<line fill="none" stroke="#1E1E1C" stroke-width="0.7" stroke-linecap="round" x1="71.15" y1="-55" x2="71.15" y2="-55"/>
		<line fill="none" stroke="#1E1E1C" stroke-width="0.7" stroke-linecap="round" x1="69.9" y1="-58.25" x2="69.9" y2="-58.25"/>
		<line fill="none" stroke="#1E1E1C" stroke-width="0.7" stroke-linecap="round" x1="73.15" y1="-61.25" x2="73.15" y2="-61.25"/>
		<line fill="none" stroke="#1E1E1C" stroke-width="0.7" stroke-linecap="round" x1="70.4" y1="-64.75" x2="70.4" y2="-64.75"/>
		<line fill="none" stroke="#1E1E1C" stroke-width="0.7" stroke-linecap="round" x1="71.65" y1="-67.5" x2="71.65" y2="-67.5"/>
		<line fill="none" stroke="#1E1E1C" stroke-width="0.7" stroke-linecap="round" x1="79.15" y1="-66.25" x2="79.15" y2="-66.25"/>
		<line fill="none" stroke="#1E1E1C" stroke-width="0.7" stroke-linecap="round" x1="82.4" y1="-63.75" x2="82.4" y2="-63.75"/>
		<line fill="none" stroke="#1E1E1C" stroke-width="0.7" stroke-linecap="round" x1="77.4" y1="-62.5" x2="77.4" y2="-62.5"/>
		<line fill="none" stroke="#1E1E1C" stroke-width="0.7" stroke-linecap="round" x1="71.9" y1="-48.5" x2="71.9" y2="-48.5"/>
		<line fill="none" stroke="#1E1E1C" stroke-width="0.7" stroke-linecap="round" x1="67.15" y1="-48.5" x2="67.15" y2="-48.5"/>
		<line fill="none" stroke="#1E1E1C" stroke-width="0.7" stroke-linecap="round" x1="67.15" y1="-53.5" x2="67.15" y2="-53.5"/>
		<line fill="none" stroke="#1E1E1C" stroke-width="0.7" stroke-linecap="round" x1="76.65" y1="-46.5" x2="76.65" y2="-46.5"/>
		<line fill="none" stroke="#1E1E1C" stroke-width="0.7" stroke-linecap="round" x1="69.4" y1="-41.5" x2="69.4" y2="-41.5"/>
		<line fill="none" stroke="#1E1E1C" stroke-width="0.7" stroke-linecap="round" x1="64.4" y1="-39.5" x2="64.4" y2="-39.5"/>
		<line fill="none" stroke="#1E1E1C" stroke-width="0.7" stroke-linecap="round" x1="59.15" y1="-38.5" x2="59.15" y2="-38.5"/>
		<line fill="none" stroke="#1E1E1C" stroke-width="0.7" stroke-linecap="round" x1="55.9" y1="-33" x2="55.9" y2="-33"/>
		<line fill="none" stroke="#1E1E1C" stroke-width="0.7" stroke-linecap="round" x1="45.65" y1="-30.75" x2="45.65" y2="-30.75"/>
		<line fill="none" stroke="#1E1E1C" stroke-width="0.7" stroke-linecap="round" x1="52.4" y1="-24.25" x2="52.4" y2="-24.25"/>
		<line fill="none" stroke="#1E1E1C" stroke-width="0.7" stroke-linecap="round" x1="57.4" y1="-20" x2="57.4" y2="-20"/>
		<line fill="none" stroke="#1E1E1C" stroke-width="0.7" stroke-linecap="round" x1="58.15" y1="-15.5" x2="58.15" y2="-15.5"/>
		<line fill="none" stroke="#1E1E1C" stroke-width="0.7" stroke-linecap="round" x1="53.65" y1="-12.75" x2="53.65" y2="-12.75"/>
		<line fill="none" stroke="#1E1E1C" stroke-width="0.7" stroke-linecap="round" x1="51.65" y1="-9.5" x2="51.65" y2="-9.5"/>
		<line fill="none" stroke="#1E1E1C" stroke-width="0.7" stroke-linecap="round" x1="47.65" y1="-9.5" x2="47.65" y2="-9.5"/>
		<line fill="none" stroke="#1E1E1C" stroke-width="0.7" stroke-linecap="round" x1="48.15" y1="-19.5" x2="48.15" y2="-19.5"/>
		<line fill="none" stroke="#1E1E1C" stroke-width="0.7" stroke-linecap="round" x1="41.65" y1="-8.75" x2="41.65" y2="-8.75"/>
		<line fill="none" stroke="#1E1E1C" stroke-width="0.7" stroke-linecap="round" x1="43.15" y1="-3.75" x2="43.15" y2="-3.75"/>
		<line fill="none" stroke="#1E1E1C" stroke-width="0.7" stroke-linecap="round" x1="48.65" y1="-1.25" x2="48.65" y2="-1.25"/>
		<line fill="none" stroke="#1E1E1C" stroke-width="0.7" stroke-linecap="round" x1="74.65" y1="-15.25" x2="74.65" y2="-15.25"/>
		<line fill="none" stroke="#1E1E1C" stroke-width="0.7" stroke-linecap="round" x1="71.65" y1="-21.5" x2="71.65" y2="-21.5"/>
		<line fill="none" stroke="#1E1E1C" stroke-width="0.7" stroke-linecap="round" x1="66.15" y1="-21.75" x2="66.15" y2="-21.75"/>
		<line fill="none" stroke="#1E1E1C" stroke-width="0.7" stroke-linecap="round" x1="66.4" y1="-30.5" x2="66.4" y2="-30.5"/>
		<line fill="none" stroke="#1E1E1C" stroke-width="0.7" stroke-linecap="round" x1="74.15" y1="-30" x2="74.15" y2="-30"/>
		<line fill="none" stroke="#1E1E1C" stroke-width="0.7" stroke-linecap="round" x1="78.65" y1="-24.75" x2="78.65" y2="-24.75"/>
		<line fill="none" stroke="#1E1E1C" stroke-width="0.7" stroke-linecap="round" x1="81.15" y1="-18" x2="81.15" y2="-18"/>
		<line fill="none" stroke="#1E1E1C" stroke-width="0.7" stroke-linecap="round" x1="75.15" y1="-10.5" x2="75.15" y2="-10.5"/>
		<line fill="none" stroke="#1E1E1C" stroke-width="0.7" stroke-linecap="round" x1="81.9" y1="-11.25" x2="81.9" y2="-11.25"/>
		<line fill="none" stroke="#1E1E1C" stroke-width="0.7" stroke-linecap="round" x1="76.4" y1="-6.75" x2="76.4" y2="-6.75"/>
		<line fill="none" stroke="#1E1E1C" stroke-width="0.7" stroke-linecap="round" x1="77.4" y1="-4" x2="77.4" y2="-4"/>
		<line fill="none" stroke="#1E1E1C" stroke-width="0.7" stroke-linecap="round" x1="74.15" y1="-2" x2="74.15" y2="-2"/>
		<line fill="none" stroke="#1E1E1C" stroke-width="0.7" stroke-linecap="round" x1="64.4" y1="-2.5" x2="64.4" y2="-2.5"/>
		<line fill="none" stroke="#1E1E1C" stroke-width="0.7" stroke-linecap="round" x1="56.4" y1="-5.75" x2="56.4" y2="-5.75"/>
		<line fill="none" stroke="#1E1E1C" stroke-width="0.7" stroke-linecap="round" x1="40.15" y1="-1" x2="40.15" y2="-1"/>
		<line fill="none" stroke="#1E1E1C" stroke-width="0.7" stroke-linecap="round" x1="14.65" y1="-42.75" x2="14.65" y2="-42.75"/>
		<line fill="none" stroke="#1E1E1C" stroke-width="0.7" stroke-linecap="round" x1="24.9" y1="-67.25" x2="24.9" y2="-67.25"/>
		<line fill="none" stroke="#1E1E1C" stroke-width="0.7" stroke-linecap="round" x1="81.9" y1="-37.75" x2="81.9" y2="-37.75"/>
		<line fill="none" stroke="#1E1E1C" stroke-width="0.7" stroke-linecap="round" x1="82.9" y1="-31" x2="82.9" y2="-31"/>
		<line fill="none" stroke="#1E1E1C" stroke-width="0.7" stroke-linecap="round" x1="12.65" y1="-20.5" x2="12.65" y2="-20.5"/>
		<line fill="none" stroke="#1E1E1C" stroke-width="0.7" stroke-linecap="round" x1="11.65" y1="-48.75" x2="11.65" y2="-48.75"/>
		<line fill="none" stroke="#1E1E1C" stroke-width="0.7" stroke-linecap="round" x1="83.65" y1="-48.75" x2="83.65" y2="-48.75"/>
		<line fill="none" stroke="#1E1E1C" stroke-width="0.7" stroke-linecap="round" x1="80.65" y1="-45.75" x2="80.65" y2="-45.75"/>
		<line fill="none" stroke="#1E1E1C" stroke-width="0.7" stroke-linecap="round" x1="80.15" y1="-12" x2="80.15" y2="-12"/>
		<line fill="none" stroke="#1E1E1C" stroke-width="0.7" stroke-linecap="round" x1="83.15" y1="-4" x2="83.15" y2="-4"/>
		<line fill="none" stroke="#1E1E1C" stroke-width="0.7" stroke-linecap="round" x1="12.15" y1="-14.5" x2="12.15" y2="-14.5"/>
		<line fill="none" stroke="#1E1E1C" stroke-width="0.7" stroke-linecap="round" x1="14.4" y1="-1" x2="14.4" y2="-1"/>
		<line fill="none" stroke="#1E1E1C" stroke-width="0.7" stroke-linecap="round" x1="81.9" y1="-48.25" x2="81.9" y2="-48.25"/>
		<line fill="none" stroke="#1E1E1C" stroke-width="0.7" stroke-linecap="round" x1="12.9" y1="-55.5" x2="12.9" y2="-55.5"/>
		<path fill="none" stroke="#1E1E1C" stroke-width="0.7" stroke-linecap="round" d="M1.65-61.625c0.207,0,0.375-0.167,0.375-0.375
			c0-0.207-0.168-0.375-0.375-0.375c-0.208,0-0.375,0.168-0.375,0.375C1.275-61.792,1.442-61.625,1.65-61.625z"/>
		<line fill="none" stroke="#1E1E1C" stroke-width="1.3" stroke-linecap="round" x1="29.65" y1="-59.5" x2="29.65" y2="-59.5"/>
		<line fill="none" stroke="#1E1E1C" stroke-width="1.3" stroke-linecap="round" x1="40.9" y1="-61.5" x2="40.9" y2="-61.5"/>
		<line fill="none" stroke="#1E1E1C" stroke-width="1.3" stroke-linecap="round" x1="40.9" y1="-69" x2="40.9" y2="-69"/>
		<line fill="none" stroke="#1E1E1C" stroke-width="1.3" stroke-linecap="round" x1="51.9" y1="-62" x2="51.9" y2="-62"/>
		<line fill="none" stroke="#1E1E1C" stroke-width="1.3" stroke-linecap="round" x1="56.65" y1="-60.5" x2="56.65" y2="-60.5"/>
		<line fill="none" stroke="#1E1E1C" stroke-width="1.3" stroke-linecap="round" x1="58.9" y1="-49.5" x2="58.9" y2="-49.5"/>
		<line fill="none" stroke="#1E1E1C" stroke-width="1.3" stroke-linecap="round" x1="66.4" y1="-65.5" x2="66.4" y2="-65.5"/>
		<line fill="none" stroke="#1E1E1C" stroke-width="1.3" stroke-linecap="round" x1="75.65" y1="-65.75" x2="75.65" y2="-65.75"/>
		<line fill="none" stroke="#1E1E1C" stroke-width="1.3" stroke-linecap="round" x1="76.65" y1="-69.75" x2="76.65" y2="-69.75"/>
		<line fill="none" stroke="#1E1E1C" stroke-width="1.3" stroke-linecap="round" x1="81.15" y1="-54.25" x2="81.15" y2="-54.25"/>
		<line fill="none" stroke="#1E1E1C" stroke-width="1.3" stroke-linecap="round" x1="19.65" y1="-25.25" x2="19.65" y2="-25.25"/>
		<line fill="none" stroke="#1E1E1C" stroke-width="1.3" stroke-linecap="round" x1="16.65" y1="-15.5" x2="16.65" y2="-15.5"/>
		<line fill="none" stroke="#1E1E1C" stroke-width="1.3" stroke-linecap="round" x1="13.9" y1="-5.25" x2="13.9" y2="-5.25"/>
		<line fill="none" stroke="#1E1E1C" stroke-width="1.3" stroke-linecap="round" x1="29.4" y1="-2.5" x2="29.4" y2="-2.5"/>
		<line fill="none" stroke="#1E1E1C" stroke-width="1.3" stroke-linecap="round" x1="30.9" y1="-10" x2="30.9" y2="-10"/>
		<line fill="none" stroke="#1E1E1C" stroke-width="1.3" stroke-linecap="round" x1="32.65" y1="-27" x2="32.65" y2="-27"/>
		<line fill="none" stroke="#1E1E1C" stroke-width="1.3" stroke-linecap="round" x1="40.15" y1="-21.25" x2="40.15" y2="-21.25"/>
		<line fill="none" stroke="#1E1E1C" stroke-width="1.3" stroke-linecap="round" x1="45.65" y1="-12" x2="45.65" y2="-12"/>
		<line fill="none" stroke="#1E1E1C" stroke-width="1.3" stroke-linecap="round" x1="45.9" y1="-5.5" x2="45.9" y2="-5.5"/>
		<line fill="none" stroke="#1E1E1C" stroke-width="1.3" stroke-linecap="round" x1="53.4" y1="-17.25" x2="53.4" y2="-17.25"/>
		<line fill="none" stroke="#1E1E1C" stroke-width="1.3" stroke-linecap="round" x1="63.9" y1="-12.5" x2="63.9" y2="-12.5"/>
		<line fill="none" stroke="#1E1E1C" stroke-width="1.3" stroke-linecap="round" x1="66.65" y1="-7" x2="66.65" y2="-7"/>
		<line fill="none" stroke="#1E1E1C" stroke-width="1.3" stroke-linecap="round" x1="36.9" y1="-47.75" x2="36.9" y2="-47.75"/>
		<line fill="none" stroke="#1E1E1C" stroke-width="1.3" stroke-linecap="round" x1="46.9" y1="-49" x2="46.9" y2="-49"/>
		<line fill="none" stroke="#1E1E1C" stroke-width="1.3" stroke-linecap="round" x1="56.65" y1="-42.75" x2="56.65" y2="-42.75"/>
		<line fill="none" stroke="#1E1E1C" stroke-width="1.3" stroke-linecap="round" x1="63.65" y1="-29.25" x2="63.65" y2="-29.25"/>
		<line fill="none" stroke="#1E1E1C" stroke-width="1.3" stroke-linecap="round" x1="78.65" y1="-20.5" x2="78.65" y2="-20.5"/>
		<line fill="none" stroke="#1E1E1C" stroke-width="1.3" stroke-linecap="round" x1="58.9" y1="-24.5" x2="58.9" y2="-24.5"/>
		<line fill="none" stroke="#1E1E1C" stroke-width="1.3" stroke-linecap="round" x1="48.65" y1="-27.75" x2="48.65" y2="-27.75"/>
		<line fill="none" stroke="#1E1E1C" stroke-width="1.3" stroke-linecap="round" x1="28.65" y1="-43.75" x2="28.65" y2="-43.75"/>
		<line fill="none" stroke="#1E1E1C" stroke-width="1.3" stroke-linecap="round" x1="22.9" y1="-35.5" x2="22.9" y2="-35.5"/>
		<line fill="none" stroke="#1E1E1C" stroke-width="1.3" stroke-linecap="round" x1="79.15" y1="-41.5" x2="79.15" y2="-41.5"/>
		<line fill="none" stroke="#1E1E1C" stroke-width="1.3" stroke-linecap="round" x1="18.9" y1="-56.5" x2="18.9" y2="-56.5"/>
		<line fill="none" stroke="#1E1E1C" stroke-width="1.3" stroke-linecap="round" x1="20.15" y1="-67" x2="20.15" y2="-67"/>
		<line fill="none" stroke="#1E1E1C" stroke-width="1.3" stroke-linecap="round" x1="15.15" y1="-69.75" x2="15.15" y2="-69.75"/>
		<line fill="none" stroke="#1E1E1C" stroke-width="1.3" stroke-linecap="round" x1="78.15" y1="-35" x2="78.15" y2="-35"/>
		<line fill="none" stroke="#1E1E1C" stroke-width="1.3" stroke-linecap="round" x1="55.65" y1="-9.25" x2="55.65" y2="-9.25"/>
		<line fill="none" stroke="#1E1E1C" stroke-width="1.3" stroke-linecap="round" x1="37.4" y1="-2.25" x2="37.4" y2="-2.25"/>
		<line fill="none" stroke="#1E1E1C" stroke-width="1.3" stroke-linecap="round" x1="33.65" y1="-30.5" x2="33.65" y2="-30.5"/>
		<line fill="none" stroke="#1E1E1C" stroke-width="1.3" stroke-linecap="round" x1="35.65" y1="-43.25" x2="35.65" y2="-43.25"/>
		<line fill="none" stroke="#1E1E1C" stroke-width="1.3" stroke-linecap="round" x1="53.15" y1="-37.75" x2="53.15" y2="-37.75"/>
		<line fill="none" stroke="#1E1E1C" stroke-width="1.3" stroke-linecap="round" x1="79.15" y1="-28.5" x2="79.15" y2="-28.5"/>
		<line fill="none" stroke="#1E1E1C" stroke-width="1.3" stroke-linecap="round" x1="64.9" y1="-57.25" x2="64.9" y2="-57.25"/>
		<line fill="none" stroke="#1E1E1C" stroke-width="1.3" stroke-linecap="round" x1="45.65" y1="-56.25" x2="45.65" y2="-56.25"/>
		<line fill="none" stroke="#1E1E1C" stroke-width="1.3" stroke-linecap="round" x1="24.4" y1="-53" x2="24.4" y2="-53"/>
		<line fill="none" stroke="#1E1E1C" stroke-width="1.3" stroke-linecap="round" x1="61.15" y1="-67.75" x2="61.15" y2="-67.75"/>
		<line fill="none" stroke="#1E1E1C" stroke-width="1.3" stroke-linecap="round" x1="70.65" y1="-51.5" x2="70.65" y2="-51.5"/>
		<line fill="none" stroke="#1E1E1C" stroke-width="1.3" stroke-linecap="round" x1="79.15" y1="-15" x2="79.15" y2="-15"/>
		<line fill="none" stroke="#1E1E1C" stroke-width="1.3" stroke-linecap="round" x1="16.9" y1="-2.5" x2="16.9" y2="-2.5"/>
		<line fill="none" stroke="#1E1E1C" stroke-width="1.3" stroke-linecap="round" x1="14.4" y1="-59" x2="14.4" y2="-59"/>
		<line fill="none" stroke="#1E1E1C" stroke-width="1.3" stroke-linecap="round" x1="28.15" y1="-69" x2="28.15" y2="-69"/>
		<line fill="none" stroke="#1E1E1C" stroke-width="1.3" stroke-linecap="round" x1="52.15" y1="-67.75" x2="52.15" y2="-67.75"/>
		<line fill="none" stroke="#1E1E1C" stroke-width="1.3" stroke-linecap="round" x1="14.4" y1="-40.25" x2="14.4" y2="-40.25"/>
		<line fill="none" stroke="#1E1E1C" stroke-width="1.3" stroke-linecap="round" x1="19.15" y1="-47.25" x2="19.15" y2="-47.25"/>
		<line fill="none" stroke="#1E1E1C" stroke-width="1.3" stroke-linecap="round" x1="15.65" y1="-25.5" x2="15.65" y2="-25.5"/>
		<line fill="none" stroke="#1E1E1C" stroke-width="1.3" stroke-linecap="round" x1="22.65" y1="-21.75" x2="22.65" y2="-21.75"/>
		<line fill="none" stroke="#1E1E1C" stroke-width="1.3" stroke-linecap="round" x1="21.65" y1="-12.5" x2="21.65" y2="-12.5"/>
		<line fill="none" stroke="#1E1E1C" stroke-width="1.3" stroke-linecap="round" x1="25.15" y1="-6.5" x2="25.15" y2="-6.5"/>
		<line fill="none" stroke="#1E1E1C" stroke-width="1.3" stroke-linecap="round" x1="33.65" y1="-19" x2="33.65" y2="-19"/>
		<line fill="none" stroke="#1E1E1C" stroke-width="1.3" stroke-linecap="round" x1="42.9" y1="-34.75" x2="42.9" y2="-34.75"/>
		<line fill="none" stroke="#1E1E1C" stroke-width="1.3" stroke-linecap="round" x1="37.65" y1="-38.25" x2="37.65" y2="-38.25"/>
		<line fill="none" stroke="#1E1E1C" stroke-width="1.3" stroke-linecap="round" x1="48.9" y1="-43.75" x2="48.9" y2="-43.75"/>
		<line fill="none" stroke="#1E1E1C" stroke-width="1.3" stroke-linecap="round" x1="73.4" y1="-55.75" x2="73.4" y2="-55.75"/>
		<line fill="none" stroke="#1E1E1C" stroke-width="1.3" stroke-linecap="round" x1="72.9" y1="-45.25" x2="72.9" y2="-45.25"/>
		<line fill="none" stroke="#1E1E1C" stroke-width="1.3" stroke-linecap="round" x1="70.4" y1="-15.25" x2="70.4" y2="-15.25"/>
		<line fill="none" stroke="#1E1E1C" stroke-width="1.3" stroke-linecap="round" x1="70.9" y1="-28" x2="70.9" y2="-28"/>
		<line fill="none" stroke="#1E1E1C" stroke-width="1.3" stroke-linecap="round" x1="67.4" y1="-36.75" x2="67.4" y2="-36.75"/>
		<line fill="none" stroke="#1E1E1C" stroke-width="1.3" stroke-linecap="round" x1="80.9" y1="-1.75" x2="80.9" y2="-1.75"/>
		<line fill="none" stroke="#1E1E1C" stroke-width="1.3" stroke-linecap="round" x1="72.4" y1="-6.5" x2="72.4" y2="-6.5"/>
		<line fill="none" stroke="#1E1E1C" stroke-width="1.3" stroke-linecap="round" x1="56.15" y1="-1" x2="56.15" y2="-1"/>
		<line fill="none" stroke="#1E1E1C" stroke-width="1.3" stroke-linecap="round" x1="36.15" y1="-71.25" x2="36.15" y2="-71.25"/>
		<path fill="none" stroke="#1E1E1C" stroke-width="1.3" stroke-linecap="round" d="M1.65-58c0.552,0,1-0.447,1-1
			c0-0.552-0.448-1-1-1c-0.553,0-1,0.448-1,1C0.65-58.447,1.097-58,1.65-58z"/>
	</g>
</pattern>
<g>
	<path fill="#CA3931" d="M214.079,125.002c0,49.085-39.794,88.879-88.883,88.879s-88.882-39.794-88.882-88.879
		c0-49.089,39.793-88.883,88.882-88.883S214.079,75.913,214.079,125.002L214.079,125.002z M214.079,125.002"/>
	<pattern  id="SVGID_1_" xlink:href="#USGS_22_Playa_pedregosa" patternTransform="matrix(1.2775 0 0 1.2775 2347.5269 1836.4497)">
	</pattern>
	<path opacity="0.8" fill="url(#SVGID_1_)" d="M213.681,125.002c0,49.085-39.793,88.879-88.882,88.879
		c-49.088,0-88.877-39.794-88.877-88.879c0-49.089,39.789-88.883,88.877-88.883C173.888,36.119,213.681,75.913,213.681,125.002
		L213.681,125.002z M213.681,125.002"/>
	<g>
		<g>
			
				<path fill="none" stroke="#D3DFDC" stroke-width="0.8419" stroke-linecap="round" stroke-linejoin="round" stroke-dasharray="2.5324,2.5324" d="
				M209.026,125.002c0,46.295-37.531,83.826-83.83,83.826s-83.83-37.531-83.83-83.826c0-46.299,37.531-83.832,83.83-83.832
				S209.026,78.703,209.026,125.002z"/>
		</g>
	</g>
	<path fill="#D3DFDC" d="M158.864,112.136c-0.881-2.917-4.98-6.04-7.896-5.157l-28.53,9.239c-2.916,0.884-3.041,4.782-2.155,7.693
		c0.881,2.913,3.957,4.558,6.872,3.677l28.035-8.58C158.104,118.123,159.745,115.045,158.864,112.136L158.864,112.136z
		 M158.864,112.136"/>
	<path fill="#C5CAC8" d="M158.864,112.136l-38.582,11.775c0.881,2.913,3.957,4.558,6.872,3.677l28.035-8.582
		C158.104,118.123,159.745,115.045,158.864,112.136L158.864,112.136z M158.864,112.136"/>
	<path fill="#121F29" stroke="#121F29" stroke-width="0.4209" stroke-miterlimit="10" d="M119.607,128.465l-15.269,2.475
		c0,0-17.281-29.506-10.109-27.442l6.192-2.063C100.422,101.437,117.663,129.193,119.607,128.465L119.607,128.465z M119.607,128.465
		"/>
	<path fill="#121F29" stroke="#121F29" stroke-width="0.4209" stroke-miterlimit="10" d="M102.072,99.786
		c-0.402-2.215-27.113-23.342-23.125-16.007c-0.326,0.265-0.724,0.425-1.118,0.244c-0.555-0.26-0.648-0.612-0.613-1.051
		c-0.738,0.565-1.833,0.53-2.352-0.229c1.261,2.556,7.614,14.512,19.365,20.756C94.229,103.5,102.483,102.056,102.072,99.786z"/>
	<path fill="#121F29" d="M81.316,114.671c-1.936-0.733-3.881,0.345-6.152,3.025c-1.837,2.175-6.42,7.967-21.868,19.416
		c0.264,0.429-0.197,1.032-0.756,1.214c-0.067,0.066-0.134,0.136-0.206,0.201c0.041,0.427-0.179,0.9-0.51,1.229
		c4.096-0.43,19.409-2.913,27.225-16.421l3.3-4.951C82.35,118.385,84.308,115.805,81.316,114.671z"/>
	<path fill="#121F29" d="M82.35,118.385"/>
	<path fill="#121F29" d="M175.854,127.657c-4.677,2.942-10.847,1.536-13.789-3.141c-2.938-4.672-1.538-10.845,3.139-13.787
		c4.673-2.939,13.66-3.709,16.396,2.755C185.123,121.816,180.527,124.716,175.854,127.657L175.854,127.657z"/>
	<path fill="#D3DFDC" d="M178.962,125.021c0,1.786-1.198,3.233-2.683,3.233c-1.479,0-2.678-1.447-2.678-3.233
		c0-1.783,1.198-3.23,2.678-3.23C177.764,121.791,178.962,123.238,178.962,125.021L178.962,125.021z M178.962,125.021"/>
	<path fill="#D3DFDC" d="M185.119,122.1c0,0.673-0.546,1.217-1.217,1.217c-0.675,0-1.22-0.544-1.22-1.217s0.545-1.218,1.22-1.218
		C184.573,120.882,185.119,121.427,185.119,122.1L185.119,122.1z M185.119,122.1"/>
	<path fill="#D3DFDC" d="M183.438,109.051c0,0.671-0.55,1.216-1.221,1.216c-0.67,0-1.221-0.545-1.221-1.216
		c0-0.673,0.551-1.218,1.221-1.218C182.888,107.833,183.438,108.378,183.438,109.051L183.438,109.051z M183.438,109.051"/>
	<g>
		<path fill="#121F29" d="M194.213,144.1c-0.429-0.953-2.038-1.293-3.648-1.382c0.201-0.771,0.099-1.771-1.296-2.47
			c-1.744-0.871-1.704,0.991-1.588,2.505c-0.532,0.041-0.881,0.085-0.881,0.085c-4.869,2.312-15.394-1.487-15.394-1.487
			c0-8.478-7.852-21.348-7.852-21.348c-2.481-8.665-14.03-1.649-14.03-1.649c-29.3,10.314-41.676,11.14-41.676,11.14
			c-28.884-17.357-25.589-11.552-25.589-11.552l-3.295,4.952c8.982,20.709,35.42,13.778,35.42,13.778
			c19.838,9.122,40.598-5.732,40.598-5.732c7.427,12.789,13.932,16.299,13.932,16.299c11.559,2.749,21.462,2.061,21.462,2.061
			C195.881,147.788,194.213,144.1,194.213,144.1z"/>
	</g>
	<path fill="#C5CAC8" d="M153.097,115.071c0,0,7.757,7.771,13.646,10.588c5.889,2.814,8.961-0.257,8.961-0.257
		s1.278,0.512-6.398-1.024c-7.682-1.536-9.475-7.422-12.287-9.981"/>
	<g>
		<g>
			<g>
				<path fill="#D3DFDC" d="M67.652,149.793c-5.43,0.145-9.24,4.031-8.634,9.529c0.639,5.797,6.21,6.107,10.184,3.103
					c1.103-0.834-1.608-0.456-2.084-0.096c-1.365,1.032-2.341,1.309-3.685,0.116c-1.063-0.943-1.499-2.499-1.699-3.85
					c-0.476-3.2,1.011-7.59,4.748-7.689C67.214,150.887,69.454,149.745,67.652,149.793L67.652,149.793z"/>
			</g>
		</g>
		<g>
			<g>
				<path fill="#D3DFDC" d="M73.639,161.787c1.88-4.067,4.023-7.961,6.553-11.661c-0.9,0.195-1.801,0.392-2.701,0.587
					c1.069,5.406,1.069,10.922,1.458,16.398c0.042,0.586,2.772,0.084,2.715-0.727c-0.388-5.479-0.388-10.993-1.458-16.398
					c-0.161-0.816-2.43,0.191-2.701,0.587c-2.529,3.701-4.672,7.595-6.553,11.661C70.709,162.762,73.302,162.516,73.639,161.787
					L73.639,161.787z"/>
			</g>
		</g>
		<g>
			<g>
				<path fill="#D3DFDC" d="M75.454,160.111c2.41-0.028,4.802-0.455,6.919-1.654c1.604-0.907,0.148-2.409-1.213-1.639
					c-1.711,0.968-3.531,1.244-5.476,1.266C74.121,158.103,73.61,160.132,75.454,160.111L75.454,160.111z"/>
			</g>
		</g>
		<g>
			<g>
				<path fill="#D3DFDC" d="M87.686,151.594c-0.326,4.976-0.361,9.954-0.362,14.938c0,1.234,2.708,0.702,2.727-0.297
					c0.101-5.463,1.395-10.724,2.553-16.034c-0.509,0.326-1.019,0.652-1.527,0.979c2.155-0.184,4.852,0.274,3.509,2.957
					c-1.223,2.445-4.306,3.561-6.83,3.765c-0.697,0.056-2.429,1.269-0.98,1.625c3.326,0.819,6.448,2.193,9.583,3.549
					c0.89,0.385,3.349-0.873,2.139-1.396c-3.298-1.426-6.59-2.881-10.09-3.742c-0.327,0.542-0.653,1.083-0.98,1.625
					c3.829-0.31,8.111-2.094,9.92-5.708c2-3.998-3.34-4.557-5.943-4.334c-0.545,0.046-1.394,0.365-1.527,0.979
					c-1.158,5.311-2.452,10.571-2.553,16.034c0.909-0.099,1.818-0.198,2.727-0.297c0.001-4.985,0.036-9.963,0.362-14.938
					C90.493,150.079,87.752,150.583,87.686,151.594L87.686,151.594z"/>
			</g>
		</g>
		<g>
			<g>
				<path fill="#D3DFDC" d="M101.234,154.301c3.644-0.361,7.287-0.674,10.951-0.701c0.595-0.005,2.891-1.199,1.396-1.373
					c-2.558-0.297-5.036,0.27-7.587,0.345c-0.358,0.011-2.187,0.356-1.905,1.06c1.161,2.91,0.964,6.348,1.157,9.426
					c0.128,2.032,0.853,3.648,3.097,2.031c1.208-0.87-1.529-0.769-2.145-0.324c0.361-0.142,0.723-0.283,1.084-0.424
					c0.353,0.053,0.706,0.106,1.059,0.16c-0.766-0.514-0.475-3.858-0.517-4.662c-0.12-2.294-0.159-4.773-1.021-6.934
					c-0.635,0.353-1.27,0.706-1.905,1.06c2.327-0.069,4.662-0.654,6.988-0.384c0.465-0.458,0.931-0.915,1.396-1.373
					c-3.89,0.029-7.763,0.372-11.632,0.756C100.392,153.088,99.34,154.488,101.234,154.301L101.234,154.301z"/>
			</g>
		</g>
		<g>
			<g>
				<path fill="#D3DFDC" d="M116.644,167.115c0.737-4.447,1.418-9.046,4.352-12.641c-0.898,0.204-1.796,0.408-2.694,0.611
					c1.119,5.182,1.222,10.619,2.911,15.668c0.198,0.591,2.887-0.215,2.715-0.729c-1.688-5.048-1.791-10.485-2.911-15.666
					c-0.146-0.677-2.431,0.289-2.694,0.611c-2.981,3.652-3.646,8.358-4.394,12.871C113.888,168.088,116.511,167.917,116.644,167.115
					L116.644,167.115z"/>
			</g>
		</g>
		<g>
			<g>
				<path fill="#D3DFDC" d="M115.048,164.698c3.199-0.407,6.278-1.416,9.474-1.82c0.64-0.081,2.967-1.226,1.2-1.002
					c-3.2,0.405-6.278,1.414-9.474,1.82C115.609,163.778,113.282,164.923,115.048,164.698L115.048,164.698z"/>
			</g>
		</g>
		<g>
			<g>
				<path fill="#D3DFDC" d="M138.685,156.101c-3.362-0.698-7.084-0.136-9.265,2.758c-1.703,2.261-2.034,5.356-1.449,8.064
					c0.489,2.269,1.94,4.565,4.474,4.681c3.937,0.181,6.559-3.971,8.165-6.963c0.296-0.551-0.25-0.94-0.772-0.936
					c-1.033,0.008-2.065,0.062-3.098,0.103c-0.625,0.025-1.251,0.049-1.877,0.058c-0.239,0.004-0.479,0.001-0.717-0.005
					c-0.411-0.01-0.336-0.174-0.008,0.063c0.1,0.188,0.199,0.376,0.298,0.563c0.003-0.011,0.006-0.021,0.008-0.032
					c-0.166,0.211-0.332,0.423-0.499,0.634c0.019-0.013,0.037-0.025,0.056-0.038c1.531-1.03-0.773-1.623-1.73-0.979
					c-0.269,0.181-0.482,0.38-0.563,0.702c-0.063,0.257,0.113,0.431,0.298,0.564c0.661,0.476,2.035,0.241,2.776,0.221
					c1.349-0.036,2.697-0.131,4.047-0.142c-0.258-0.312-0.516-0.624-0.772-0.936c-0.859,1.6-1.807,3.171-3.109,4.45
					c-0.343,0.337-0.734,0.647-1.162,0.851c-0.311,0.146-0.244,0.122-0.588,0.089c-1.364-0.129-2.265-2.541-2.547-3.848
					c-0.447-2.075-0.217-4.407,0.832-6.27c1.199-2.131,3.322-2.506,5.579-2.037c0.657,0.137,1.434-0.03,1.92-0.515
					C139.384,156.801,139.28,156.225,138.685,156.101L138.685,156.101z"/>
			</g>
		</g>
		<g>
			<g>
				<path fill="#D3DFDC" d="M146.87,159.021c2.424-0.35,4.833-0.702,7.286-0.727c1.567-0.016,2.071-2.056,0.229-2.037
					c-2.453,0.024-4.863,0.378-7.286,0.727c-0.607,0.088-1.412,0.398-1.491,1.115C145.534,158.759,146.318,159.1,146.87,159.021
					L146.87,159.021z"/>
			</g>
		</g>
		<g>
			<g>
				<path fill="#D3DFDC" d="M144.896,157.639c-0.345,3.757-0.361,7.525-0.361,11.295c0,0.41,1.324,0.109,1.474,0.069
					c2.802-0.76,5.659-1.21,8.314-2.429c1.633-0.749-0.919-0.681-1.57-0.381c-2.195,1.008-4.658,1.314-6.977,1.942
					c0.491,0.023,0.982,0.047,1.474,0.069c0.001-3.769,0.018-7.537,0.361-11.293C147.646,156.522,144.971,156.811,144.896,157.639
					L144.896,157.639z"/>
			</g>
		</g>
		<g>
			<g>
				<path fill="#D3DFDC" d="M146.105,163.943c2.581-0.001,5.148-0.033,7.635-0.811c0.426-0.133,1.318-0.509,1.154-1.119
					c-0.157-0.588-1.135-0.526-1.561-0.393c-2.027,0.633-4.102,0.647-6.209,0.648c-0.628,0.001-1.43,0.188-1.784,0.77
					C145.008,163.583,145.621,163.943,146.105,163.943L146.105,163.943z"/>
			</g>
		</g>
		<g>
			<g>
				<path fill="#D3DFDC" d="M162.564,168.82c0.345-3.391,0.362-6.794,0.362-10.2c-0.91,0.158-1.82,0.316-2.73,0.476
					c1.612,3.483,3.834,6.42,6.867,8.786c0.691,0.54,2.312,0.049,2.423-0.881c0.354-2.931,0.203-6.476,1.378-9.222
					c0.605-1.415-2.129-1.357-2.588-0.283c-1.263,2.949-1.158,6.585-1.536,9.728c0.808-0.294,1.615-0.588,2.423-0.881
					c-2.734-2.135-4.797-4.833-6.252-7.976c-0.457-0.986-2.73-0.7-2.73,0.476c-0.001,3.405-0.019,6.809-0.362,10.2
					C159.679,170.412,162.443,170.014,162.564,168.82L162.564,168.82z"/>
			</g>
		</g>
		<g>
			<g>
				<path fill="#D3DFDC" d="M174.937,169.866c1.045-4.266,1.831-8.596,3.282-12.752c-0.906,0.175-1.812,0.351-2.718,0.524
					c1.99,4.016,3.561,8.391,5.93,12.201c0.499,0.803,3.135-0.086,2.516-1.082c-2.293-3.689-3.802-7.957-5.73-11.846
					c-0.475-0.958-2.425-0.315-2.718,0.524c-1.45,4.155-2.236,8.485-3.282,12.752C171.958,171.243,174.7,170.829,174.937,169.866
					L174.937,169.866z"/>
			</g>
		</g>
		<g>
			<g>
				<path fill="#D3DFDC" d="M173.827,167.687c2.432-0.539,4.868-1.058,7.29-1.64c1.259-0.303,3.2-0.502,3.966-1.69
					c0.818-1.27-1.954-1.317-2.598-0.318c0.563-0.876,0.181-0.4-0.611-0.186c-0.899,0.243-1.809,0.45-2.716,0.661
					c-1.939,0.45-3.889,0.865-5.833,1.296C171.618,166.188,172.145,168.059,173.827,167.687L173.827,167.687z"/>
			</g>
		</g>
	</g>
	<circle fill="#D3DFDC" stroke="#D3DFDC" stroke-width="0.8419" stroke-miterlimit="10" cx="192.107" cy="114.101" r="6.104"/>
</g>
</svg>
