<?xml version="1.0" encoding="utf-8"?>
<!-- Generator: Adobe Illustrator 16.0.0, SVG Export Plug-In . SVG Version: 6.00 Build 0)  -->
<!DOCTYPE svg PUBLIC "-//W3C//DTD SVG 1.1//EN" "http://www.w3.org/Graphics/SVG/1.1/DTD/svg11.dtd">
<svg version="1.1" id="Capa_1" xmlns="http://www.w3.org/2000/svg" xmlns:xlink="http://www.w3.org/1999/xlink" x="0px" y="0px"
	 width="250px" height="250px" viewBox="0 0 250 250" enable-background="new 0 0 250 250" xml:space="preserve">
<g>
	<path fill="#CA3931" d="M214.079,125.002c0,49.085-39.794,88.879-88.883,88.879c-49.089,0-88.882-39.794-88.882-88.879
		c0-49.089,39.793-88.883,88.882-88.883C174.285,36.119,214.079,75.913,214.079,125.002L214.079,125.002z"/>
	<g>
		<g>
			
				<path fill="none" stroke="#D3DFDC" stroke-width="0.8419" stroke-linecap="round" stroke-linejoin="round" stroke-dasharray="2.5324,2.5324" d="
				M209.025,125.002c0,46.295-37.53,83.826-83.83,83.826c-46.299,0-83.83-37.531-83.83-83.826c0-46.299,37.531-83.832,83.83-83.832
				C171.495,41.17,209.025,78.703,209.025,125.002z"/>
		</g>
	</g>
	<path fill="#D3DFDC" d="M158.864,112.136c-0.882-2.917-4.98-6.04-7.896-5.157l-28.53,9.239c-2.916,0.884-3.041,4.782-2.155,7.693
		c0.881,2.913,3.957,4.558,6.871,3.677l28.035-8.58C158.104,118.123,159.745,115.045,158.864,112.136L158.864,112.136z"/>
	<path fill="#C5CAC8" d="M158.864,112.136l-38.582,11.775c0.881,2.913,3.957,4.558,6.872,3.677l28.035-8.582
		C158.104,118.123,159.745,115.045,158.864,112.136L158.864,112.136z"/>
	<path fill="#121F29" stroke="#121F29" stroke-width="0.4209" stroke-miterlimit="10" d="M119.607,128.465l-15.269,2.475
		c0,0-17.281-29.505-10.109-27.441l6.192-2.063C100.422,101.437,117.663,129.193,119.607,128.465L119.607,128.465z"/>
	<path fill="#121F29" stroke="#121F29" stroke-width="0.4209" stroke-miterlimit="10" d="M102.072,99.786
		c-0.402-2.215-27.113-23.342-23.125-16.007c-0.326,0.265-0.724,0.425-1.118,0.244c-0.555-0.26-0.648-0.612-0.613-1.051
		c-0.738,0.565-1.833,0.53-2.352-0.229c1.261,2.556,7.614,14.512,19.365,20.756C94.229,103.5,102.483,102.056,102.072,99.786z"/>
	<path fill="#121F29" d="M81.316,114.671c-1.936-0.733-3.881,0.345-6.152,3.025c-1.837,2.175-6.42,7.967-21.868,19.416
		c0.264,0.43-0.197,1.033-0.756,1.215c-0.067,0.066-0.134,0.136-0.206,0.201c0.041,0.427-0.179,0.899-0.51,1.229
		c4.096-0.43,19.409-2.913,27.225-16.421l3.3-4.951C82.35,118.385,84.308,115.805,81.316,114.671z"/>
	<path fill="#121F29" d="M82.35,118.385"/>
	<path fill="#121F29" d="M175.854,127.657c-4.677,2.942-10.847,1.536-13.789-3.141c-2.938-4.672-1.537-10.845,3.14-13.787
		c4.673-2.939,13.66-3.709,16.396,2.755C185.123,121.816,180.527,124.716,175.854,127.657L175.854,127.657z"/>
	<path fill="#D3DFDC" d="M178.962,125.021c0,1.786-1.198,3.233-2.683,3.233c-1.479,0-2.678-1.447-2.678-3.233
		c0-1.783,1.197-3.23,2.678-3.23C177.764,121.791,178.962,123.238,178.962,125.021L178.962,125.021z"/>
	<path fill="#D3DFDC" d="M185.119,122.1c0,0.673-0.546,1.217-1.217,1.217c-0.676,0-1.221-0.544-1.221-1.217
		c0-0.673,0.545-1.218,1.221-1.218C184.573,120.882,185.119,121.427,185.119,122.1L185.119,122.1z"/>
	<path fill="#D3DFDC" d="M183.438,109.051c0,0.671-0.549,1.216-1.221,1.216c-0.67,0-1.221-0.545-1.221-1.216
		c0-0.673,0.551-1.218,1.221-1.218C182.889,107.833,183.438,108.378,183.438,109.051L183.438,109.051z"/>
	<g>
		<path fill="#121F29" d="M194.213,144.1c-0.429-0.953-2.038-1.293-3.648-1.382c0.201-0.771,0.1-1.771-1.295-2.47
			c-1.744-0.871-1.705,0.991-1.588,2.505c-0.533,0.041-0.882,0.085-0.882,0.085c-4.868,2.312-15.394-1.486-15.394-1.486
			c0-8.479-7.852-21.349-7.852-21.349c-2.481-8.665-14.031-1.649-14.031-1.649c-29.299,10.314-41.675,11.14-41.675,11.14
			c-28.884-17.357-25.589-11.552-25.589-11.552l-3.295,4.952c8.982,20.709,35.42,13.778,35.42,13.778
			c19.839,9.122,40.599-5.732,40.599-5.732c7.427,12.789,13.932,16.3,13.932,16.3c11.559,2.749,21.462,2.061,21.462,2.061
			C195.881,147.788,194.213,144.1,194.213,144.1z"/>
	</g>
	<path fill="#C5CAC8" d="M153.098,115.071c0,0,7.756,7.771,13.646,10.588c5.889,2.813,8.961-0.257,8.961-0.257
		s1.278,0.512-6.397-1.024c-7.683-1.536-9.476-7.422-12.287-9.981"/>
	<g>
		<g>
			<g>
				<path fill="#D3DFDC" d="M67.652,149.793c-5.43,0.145-9.24,4.031-8.634,9.529c0.639,5.797,6.21,6.107,10.184,3.103
					c1.103-0.834-1.608-0.456-2.084-0.096c-1.365,1.032-2.341,1.31-3.685,0.116c-1.063-0.943-1.499-2.499-1.699-3.851
					c-0.476-3.2,1.011-7.59,4.748-7.688C67.214,150.887,69.454,149.745,67.652,149.793L67.652,149.793z"/>
			</g>
		</g>
		<g>
			<g>
				<path fill="#D3DFDC" d="M73.639,161.787c1.88-4.067,4.023-7.961,6.553-11.661c-0.9,0.195-1.801,0.392-2.701,0.587
					c1.069,5.406,1.069,10.922,1.458,16.398c0.042,0.586,2.772,0.084,2.715-0.728c-0.388-5.479-0.388-10.993-1.458-16.397
					c-0.161-0.816-2.43,0.19-2.701,0.587c-2.529,3.7-4.672,7.595-6.553,11.661C70.709,162.762,73.302,162.516,73.639,161.787
					L73.639,161.787z"/>
			</g>
		</g>
		<g>
			<g>
				<path fill="#D3DFDC" d="M75.454,160.111c2.41-0.028,4.802-0.455,6.919-1.654c1.604-0.907,0.148-2.409-1.213-1.639
					c-1.711,0.968-3.531,1.244-5.476,1.266C74.121,158.104,73.61,160.132,75.454,160.111L75.454,160.111z"/>
			</g>
		</g>
		<g>
			<g>
				<path fill="#D3DFDC" d="M87.686,151.594c-0.326,4.977-0.361,9.954-0.362,14.938c0,1.233,2.708,0.702,2.727-0.298
					c0.101-5.463,1.395-10.724,2.553-16.033c-0.509,0.326-1.019,0.652-1.527,0.979c2.155-0.184,4.852,0.274,3.509,2.957
					c-1.223,2.445-4.306,3.562-6.83,3.766c-0.697,0.056-2.429,1.269-0.98,1.625c3.326,0.818,6.448,2.192,9.583,3.549
					c0.89,0.385,3.349-0.873,2.139-1.396c-3.298-1.426-6.59-2.881-10.09-3.742c-0.327,0.543-0.653,1.084-0.98,1.625
					c3.829-0.31,8.111-2.094,9.92-5.707c2-3.998-3.34-4.558-5.943-4.334c-0.545,0.045-1.394,0.364-1.527,0.979
					c-1.158,5.311-2.452,10.571-2.553,16.034c0.909-0.099,1.818-0.198,2.727-0.298c0.001-4.984,0.036-9.963,0.362-14.938
					C90.493,150.079,87.752,150.583,87.686,151.594L87.686,151.594z"/>
			</g>
		</g>
		<g>
			<g>
				<path fill="#D3DFDC" d="M101.234,154.301c3.644-0.361,7.287-0.674,10.951-0.701c0.595-0.005,2.891-1.199,1.396-1.373
					c-2.558-0.297-5.036,0.271-7.587,0.346c-0.358,0.011-2.187,0.355-1.905,1.06c1.161,2.91,0.964,6.349,1.157,9.427
					c0.128,2.031,0.853,3.647,3.097,2.03c1.208-0.87-1.529-0.769-2.145-0.323c0.361-0.143,0.723-0.283,1.084-0.425
					c0.353,0.054,0.706,0.106,1.059,0.16c-0.766-0.515-0.475-3.858-0.517-4.662c-0.12-2.294-0.159-4.772-1.021-6.935
					c-0.635,0.354-1.27,0.707-1.905,1.061c2.327-0.068,4.662-0.654,6.988-0.384c0.465-0.458,0.931-0.915,1.396-1.373
					c-3.89,0.028-7.763,0.372-11.632,0.756C100.392,153.088,99.34,154.488,101.234,154.301L101.234,154.301z"/>
			</g>
		</g>
		<g>
			<g>
				<path fill="#D3DFDC" d="M116.644,167.115c0.737-4.447,1.418-9.047,4.352-12.641c-0.898,0.203-1.796,0.407-2.694,0.61
					c1.119,5.183,1.222,10.619,2.911,15.668c0.198,0.591,2.887-0.215,2.715-0.729c-1.688-5.047-1.791-10.484-2.911-15.666
					c-0.146-0.676-2.431,0.289-2.694,0.611c-2.981,3.652-3.646,8.358-4.394,12.871C113.888,168.088,116.511,167.917,116.644,167.115
					L116.644,167.115z"/>
			</g>
		</g>
		<g>
			<g>
				<path fill="#D3DFDC" d="M115.048,164.698c3.199-0.407,6.278-1.416,9.474-1.82c0.64-0.081,2.967-1.226,1.201-1.002
					c-3.201,0.405-6.279,1.414-9.475,1.819C115.609,163.777,113.282,164.923,115.048,164.698L115.048,164.698z"/>
			</g>
		</g>
		<g>
			<g>
				<path fill="#D3DFDC" d="M138.686,156.102c-3.362-0.699-7.084-0.137-9.266,2.758c-1.703,2.261-2.034,5.355-1.449,8.063
					c0.489,2.269,1.94,4.565,4.475,4.681c3.937,0.182,6.559-3.971,8.164-6.963c0.297-0.551-0.25-0.939-0.771-0.936
					c-1.033,0.008-2.064,0.062-3.098,0.104c-0.625,0.024-1.252,0.049-1.877,0.058c-0.239,0.004-0.479,0.001-0.717-0.005
					c-0.412-0.01-0.336-0.174-0.008,0.062c0.1,0.188,0.198,0.376,0.297,0.562c0.004-0.01,0.006-0.021,0.008-0.031
					c-0.166,0.211-0.332,0.423-0.498,0.634c0.019-0.013,0.037-0.024,0.056-0.038c1.531-1.029-0.772-1.623-1.729-0.979
					c-0.27,0.181-0.482,0.38-0.563,0.701c-0.063,0.258,0.112,0.432,0.298,0.564c0.661,0.477,2.035,0.241,2.776,0.221
					c1.349-0.035,2.696-0.131,4.047-0.142c-0.259-0.312-0.517-0.624-0.772-0.937c-0.858,1.601-1.807,3.172-3.108,4.451
					c-0.343,0.336-0.734,0.646-1.162,0.851c-0.312,0.146-0.244,0.122-0.588,0.089c-1.364-0.129-2.265-2.541-2.548-3.848
					c-0.446-2.075-0.217-4.407,0.832-6.271c1.199-2.131,3.322-2.506,5.58-2.037c0.656,0.138,1.434-0.03,1.92-0.515
					C139.384,156.801,139.279,156.225,138.686,156.102L138.686,156.102z"/>
			</g>
		</g>
		<g>
			<g>
				<path fill="#D3DFDC" d="M146.87,159.021c2.424-0.351,4.833-0.703,7.286-0.728c1.566-0.017,2.07-2.056,0.229-2.037
					c-2.453,0.024-4.863,0.378-7.285,0.728c-0.607,0.088-1.412,0.397-1.492,1.115C145.534,158.759,146.318,159.1,146.87,159.021
					L146.87,159.021z"/>
			</g>
		</g>
		<g>
			<g>
				<path fill="#D3DFDC" d="M144.896,157.639c-0.346,3.758-0.361,7.525-0.361,11.295c0,0.41,1.324,0.109,1.474,0.069
					c2.802-0.76,5.659-1.21,8.314-2.429c1.633-0.749-0.919-0.682-1.57-0.381c-2.194,1.008-4.658,1.313-6.978,1.941
					c0.492,0.023,0.982,0.047,1.475,0.069c0.001-3.769,0.018-7.537,0.361-11.293C147.646,156.521,144.971,156.811,144.896,157.639
					L144.896,157.639z"/>
			</g>
		</g>
		<g>
			<g>
				<path fill="#D3DFDC" d="M146.105,163.943c2.58-0.002,5.147-0.033,7.635-0.812c0.426-0.133,1.318-0.509,1.154-1.118
					c-0.158-0.589-1.136-0.527-1.562-0.394c-2.026,0.633-4.103,0.647-6.209,0.647c-0.628,0.002-1.431,0.188-1.784,0.771
					C145.008,163.583,145.621,163.943,146.105,163.943L146.105,163.943z"/>
			</g>
		</g>
		<g>
			<g>
				<path fill="#D3DFDC" d="M162.564,168.82c0.345-3.391,0.361-6.795,0.361-10.2c-0.91,0.157-1.82,0.315-2.73,0.476
					c1.613,3.483,3.834,6.42,6.867,8.786c0.691,0.54,2.312,0.05,2.424-0.881c0.354-2.931,0.203-6.476,1.378-9.222
					c0.604-1.415-2.13-1.357-2.589-0.283c-1.262,2.949-1.157,6.585-1.535,9.729c0.808-0.295,1.615-0.589,2.423-0.882
					c-2.733-2.135-4.797-4.833-6.252-7.976c-0.457-0.986-2.729-0.7-2.729,0.476c-0.002,3.405-0.02,6.81-0.363,10.2
					C159.68,170.412,162.443,170.014,162.564,168.82L162.564,168.82z"/>
			</g>
		</g>
		<g>
			<g>
				<path fill="#D3DFDC" d="M174.938,169.866c1.045-4.267,1.83-8.597,3.281-12.752c-0.906,0.175-1.812,0.351-2.718,0.524
					c1.99,4.016,3.562,8.391,5.931,12.2c0.498,0.804,3.135-0.086,2.516-1.082c-2.293-3.688-3.803-7.957-5.73-11.846
					c-0.475-0.958-2.425-0.315-2.718,0.524c-1.45,4.154-2.235,8.484-3.282,12.752C171.958,171.243,174.7,170.829,174.938,169.866
					L174.938,169.866z"/>
			</g>
		</g>
		<g>
			<g>
				<path fill="#D3DFDC" d="M173.827,167.688c2.432-0.539,4.868-1.059,7.29-1.641c1.259-0.303,3.199-0.502,3.966-1.689
					c0.817-1.271-1.954-1.317-2.599-0.318c0.563-0.876,0.182-0.4-0.61-0.186c-0.899,0.242-1.81,0.449-2.716,0.66
					c-1.939,0.45-3.889,0.865-5.833,1.297C171.618,166.188,172.145,168.059,173.827,167.688L173.827,167.688z"/>
			</g>
		</g>
	</g>
	<circle fill="#D3DFDC" stroke="#D3DFDC" stroke-width="0.8419" stroke-miterlimit="10" cx="192.107" cy="114.101" r="6.104"/>
</g>
</svg>
