<?xml version="1.0" encoding="utf-8"?>
<!-- Generator: Adobe Illustrator 16.0.0, SVG Export Plug-In . SVG Version: 6.00 Build 0)  -->
<!DOCTYPE svg PUBLIC "-//W3C//DTD SVG 1.1//EN" "http://www.w3.org/Graphics/SVG/1.1/DTD/svg11.dtd">
<svg version="1.1" id="Capa_1" xmlns="http://www.w3.org/2000/svg" xmlns:xlink="http://www.w3.org/1999/xlink" x="0px" y="0px"
	 width="250px" height="250px" viewBox="0 0 250 250" enable-background="new 0 0 250 250" xml:space="preserve">
<g>
	<path fill="#FFFFFF" d="M216.056,155.979c-0.029-0.783-0.262-1.524-0.653-2.157c-1.054-10.563-10.11-22.668-16.364-28.582
		c-5.63-5.321-11.983-9.464-18.13-13.472c-3.41-2.226-6.94-4.528-10.222-6.962c-6.296-4.667-14.595-9.279-32.329-11.634
		c-1.403-5.906-3.876-12.998-8.939-17.347c-2.735-2.344-6.129-4.012-10.114-4.97c-0.633-0.329-1.359-0.508-2.111-0.489
		c-0.106-0.002-0.212-0.002-0.321,0.004c-0.396-0.062-0.802-0.119-1.216-0.171c-1-0.755-2.009-3.662-2.767-5.833
		c-1.771-5.109-4.203-12.111-11.873-13.214c-0.61-0.088-1.212-0.131-1.792-0.131h-0.061c-0.062-0.002-0.125-0.002-0.202-0.002
		c-4.345,0.021-6.006,2.529-6.516,3.608c-0.512,1.074-1.401,3.939,1.343,7.334c1.02,1.264,2.469,2.386,4.141,3.688
		c1.251,0.972,4.324,3.358,5.067,4.74c-0.356,0.138-0.887,0.312-1.685,0.523c-6.002,1.211-11.692,3.406-16.039,6.191
		c-2.68,1.718-5.146,3.727-7.352,5.99c-3.566,0.14-7.158,0.627-10.718,1.458c-0.15,0.033-0.302,0.066-0.452,0.102l-0.05,0.01
		c-0.318,0.073-0.633,0.15-0.956,0.229l-0.093,0.023c-0.165,0.04-0.331,0.081-0.492,0.123c-0.346,0.087-0.689,0.183-1.033,0.277
		l-0.142,0.04c-0.121,0.033-0.237,0.064-0.352,0.098c-0.502,0.144-1.003,0.296-1.497,0.452l-0.181,0.059
		c-0.441,0.144-0.883,0.289-1.326,0.445l-0.496,0.179c-0.333,0.121-0.662,0.241-0.987,0.366c-0.185,0.071-0.371,0.144-0.554,0.217
		c-0.316,0.123-0.625,0.25-0.931,0.379c-0.185,0.077-0.368,0.154-0.547,0.231c-0.325,0.14-0.647,0.283-0.96,0.429l-0.125,0.056
		c-0.123,0.057-0.243,0.11-0.36,0.163c-0.408,0.194-0.81,0.392-1.235,0.606l-0.175,0.087c-0.473,0.237-0.935,0.485-1.382,0.735
		c-0.096,0.052-0.191,0.106-0.285,0.16l-0.096,0.054c-0.333,0.189-0.664,0.379-0.987,0.573c-0.125,0.075-0.252,0.152-0.375,0.231
		l-0.1,0.061c-0.29,0.179-0.577,0.362-0.86,0.543c-0.163,0.106-0.325,0.214-0.485,0.322c-0.287,0.192-0.57,0.387-0.843,0.579
		l-0.079,0.056c-0.119,0.085-0.244,0.17-0.373,0.264c-0.314,0.231-0.626,0.469-0.937,0.706l-0.071,0.054
		c-0.077,0.06-0.158,0.119-0.229,0.177c-0.412,0.327-0.82,0.662-1.209,0.995c-0.061,0.052-0.123,0.108-0.202,0.181
		c-0.323,0.281-0.637,0.566-0.953,0.858c-0.09,0.087-0.179,0.175-0.273,0.262l-0.094,0.092c-0.252,0.244-0.5,0.491-0.743,0.737
		c-0.129,0.135-0.258,0.271-0.387,0.41c-0.233,0.248-0.462,0.498-0.685,0.751c-0.004,0.002-0.033,0.034-0.033,0.036
		c-0.112,0.127-0.225,0.254-0.331,0.381c-0.244,0.281-0.475,0.566-0.697,0.85l-0.071,0.087c-0.073,0.089-0.146,0.181-0.219,0.277
		c-0.348,0.45-0.652,0.862-0.91,1.234c-0.029,0.042-0.057,0.083-0.083,0.123c-0.271,0.397-0.542,0.816-0.82,1.27
		c-0.069,0.114-0.135,0.227-0.202,0.339l-0.052,0.089c-0.206,0.348-0.404,0.7-0.591,1.054l-0.042,0.073
		c-0.059,0.108-0.119,0.219-0.175,0.329c-0.496,0.964-0.943,1.965-1.322,2.971l-0.098,0.269c-0.171,0.454-0.323,0.912-0.462,1.354
		l-0.062,0.206c-0.32,1.045-0.583,2.122-0.779,3.2c-0.358,0.61-0.564,1.306-0.593,2.03l-0.88,21.038
		c-0.044,1.049,0.292,2.064,0.924,2.877c-0.279,1.365,0.112,2.735,0.972,3.735c1.195,5.013,3.535,9.822,6.856,14.061
		c3.254,4.156,7.42,7.907,12.394,11.164c0.154,0.237,0.312,0.462,0.477,0.675c0.852,1.119,2.153,1.724,3.485,1.724h0.006
		c7.362,4.118,16.399,7.466,27.502,10.201c10.449,2.623,21.365,4.352,30.998,5.88c5.126,0.808,9.973,1.578,14.332,2.406
		c1.437,0.275,3.314,0.671,5.488,1.133c10.58,2.236,28.289,5.975,43.945,5.975c8.924,0,15.96-1.187,21.353-3.618
		c1.499,0.3,3.09-0.204,4.151-1.403c0.824-0.94,1.495-1.773,2.069-2.577c2.72-2.448,4.598-5.463,5.588-8.965
		C215.748,176.365,216.585,171.386,216.056,155.979z"/>
	
		<path fill="none" stroke="#3C343F" stroke-width="3.0679" stroke-linecap="round" stroke-linejoin="round" stroke-miterlimit="10" d="
		M210.297,170.44c0.425-1.333,1.271-3.581,1.554-4.659"/>
	
		<path fill="none" stroke="#3C343F" stroke-width="3.0679" stroke-linecap="round" stroke-linejoin="round" stroke-miterlimit="10" d="
		M162.446,183.49c1.428,1.499,3.155,3.431,1.553,4.663"/>
	
		<path fill="none" stroke="#3C343F" stroke-width="3.0679" stroke-linecap="round" stroke-linejoin="round" stroke-miterlimit="10" d="
		M180.467,184.114c-1.507,0.583-1.969,1.953-1.569,3.769c0.562,0.649,0.07-0.462,0.329-0.662"/>
	
		<path fill="#3C343F" stroke="#3C343F" stroke-width="4.3828" stroke-linecap="round" stroke-linejoin="round" stroke-miterlimit="10" d="
		M210.813,155.912l-0.699-0.166c-0.575-9.349-8.799-22.011-14.732-27.565c-8.428-7.896-18.717-13.115-27.952-19.9
		c-9.977-7.329-20.911-9.668-32.753-11.005c-1.345-6.654-3.56-13.787-8.115-17.694c-2.981-2.559-6.848-3.98-11.06-4.551
		c0.529-0.119,1.054-0.221,1.589-0.281c-10.231,1.166-6.621-17.778-16.897-19.258c-3.473-0.5-5.086,1.131-2.996,3.714
		c2.411,2.985,11.711,7.505,10.176,12.894c-0.649,2.29-4.763,2.954-6.672,3.5c0.202,0.108,0.422,0.175,0.647,0.212
		c-5.236,1.151-10.131,3.117-13.709,5.411c-2.913,1.868-5.395,4.016-7.526,6.375c-13.329-0.204-28.87,5.153-36.176,15.71
		c-2.375,3.437-3.721,7.201-4.189,11.042l-0.302-0.075l-0.876,21.039c0,0,0.408,0.304,1.056,0.812
		c0.443,6.046,2.881,12.017,6.766,16.976c17.813,22.739,59.687,25.275,85.708,30.234c14.978,2.853,71.822,17.713,77.728-6.995
		C211.467,174.854,210.813,155.912,210.813,155.912z M105.392,75.021c-0.023,0.027-0.045,0.059-0.066,0.087
		c-0.165,0.023-0.335,0.048-0.504,0.071C105.018,75.122,105.207,75.067,105.392,75.021z"/>
	<path fill="#82492F" d="M211.676,156.129l-8.037-1.953c-2.419-3.71-5.084-6.958-7.395-9.123
		c-8.437-7.898-18.721-13.12-27.956-19.902c-11.293-8.299-23.817-10.202-37.496-11.493c-8.711-0.822-17.863,0.82-26.407-1.674
		c-4.364-1.272-7.982-3.866-12.078-5.548c-1.334-0.55-2.719-1.001-4.195-1.278c-12.842-2.415-30.315,1.468-40.101,11.205
		l-7.705-1.872l-0.876,21.035c0,0,0.404,0.308,1.055,0.812c0.441,6.05,2.882,12.021,6.767,16.98
		c17.813,22.734,59.689,25.274,85.705,30.229c14.978,2.853,71.823,17.718,77.728-6.991
		C212.325,175.07,211.676,156.129,211.676,156.129z"/>
	<path fill="#82492F" d="M91.452,89.566c-1.339-0.547-2.723-0.999-4.202-1.278c-14.398-2.707-34.649,2.5-43.312,15.02
		c-7.151,10.341-5.009,23.611,2.455,33.139c17.813,22.739,59.687,25.279,85.708,30.234c14.978,2.852,71.822,17.713,77.728-6.996
		c2.231-9.335-7.62-25.116-14.445-31.504c-8.428-7.896-18.717-13.115-27.952-19.9c-11.296-8.296-23.821-10.2-37.495-11.492
		c-8.713-0.823-17.863,0.82-26.408-1.674C99.161,93.842,95.542,91.25,91.452,89.566z"/>
	
		<path fill="#3C343F" stroke="#3C343F" stroke-width="0.4137" stroke-linecap="round" stroke-linejoin="round" stroke-miterlimit="10" d="
		M91.452,92.198c-1.339-0.55-2.723-1.001-4.202-1.278c-14.398-2.708-34.649,2.498-43.312,15.017
		c-7.151,10.341-5.009,23.61,2.455,33.137c17.582,22.439,61.673,25.658,85.708,30.234c14.978,2.856,71.822,17.718,77.728-6.991
		c2.231-9.34-7.62-25.121-14.445-31.508c-8.428-7.892-18.717-13.113-27.952-19.898c-11.296-8.296-23.821-10.199-37.495-11.492
		c-8.713-0.822-17.863,0.82-26.408-1.674C99.161,96.472,95.542,93.88,91.452,92.198z"/>
	<path fill="#F3E2C5" d="M92.093,89.427c-1.336-0.556-2.719-1.012-4.197-1.293c-14.403-2.734-34.65,2.525-43.312,15.169
		c-5.157,7.533-6.1,22.441,2.452,33.469c17.813,22.968,60.027,23.913,86.047,28.918c14.978,2.881,71.823,17.892,77.728-7.062
		c2.231-9.431-7.962-23.75-14.782-30.204c-8.432-7.971-18.717-13.245-27.952-20.096c-11.297-8.38-23.817-10.304-37.495-11.607
		c-8.715-0.831-17.866,0.829-26.412-1.69C99.804,93.745,96.186,91.125,92.093,89.427z"/>
	<path opacity="0.3" fill="#EEA12D" d="M71.552,111.054c1.451,1.174,3.327,1.787,5.088,2.317c1.872,0.564,3.768,1.078,5.654,1.595
		c2.994,0.818,5.986,1.645,9.017,2.317c6.148,1.363,12.79,2.325,18.989,0.689c2.957-0.781,5.726-1.876,8.33-3.5
		c2.394-1.493,4.734-3.214,6.835-5.104c0.137-0.125,0.279-0.254,0.425-0.388c-5.39-1.347-10.847-2.544-16.739-2.783
		c-13.341-0.542-25.743,1.039-38.897,2.721C70.38,109.715,70.807,110.448,71.552,111.054z"/>
	<path opacity="0.3" fill="#EEA12D" d="M182.549,150.995c-1.354-5.563-9.431-2.702-13.249-2.174
		c-8.424,1.17-16.26,1.52-24.646-0.191c-10.181-2.665,24.205-11.709,27.895-17.968c2.469-4.184-3.19-8.382-6.809-10.589
		c-1.69,0.542-3.318,1.27-4.942,1.982c-1.932,0.856-3.843,1.77-5.829,2.5c-2.012,0.739-4.302,1.535-6.479,1.328
		c-1.819-0.17-3.493-1.465-3.769-3.348c-0.212-1.514,0.279-3.029,0.929-4.435c0.092-0.847,0.167-1.732,0.108-2.58
		c-0.612-1.222-1.607-2.226-2.985-2.773c-0.646-0.092-1.282-0.191-1.915-0.298c-1.316,1.535-2.128,3.558-3.031,5.303
		c-1.041,2.003-2.257,3.841-4.098,5.192c-1.399,1.029-3.015,1.891-4.722,2.263c-1.396,0.304-3.015,0.308-4.168-0.654
		c-0.608-0.508-1.032-1.201-1.278-1.951c-0.246-0.751-0.483-1.682-0.345-2.479c0.204-1.199,1.099-2.236,1.907-3.094
		c2.19-2.334,4.86-4.162,7.099-6.444c-2.027-0.504-4.043-1.033-6.066-1.541c-0.333,0.304-0.666,0.604-1.003,0.889
		c-2.182,1.863-4.53,3.631-7.003,5.088c-5.218,3.067-11.17,4.299-17.183,3.933c-6.265-0.381-12.354-2.036-18.381-3.685
		c-1.926-0.527-3.854-1.049-5.767-1.62c-1.72-0.512-3.543-1.08-5.018-2.138c-0.905-0.652-1.607-1.507-1.786-2.565
		c-0.431,0.054-0.866,0.11-1.297,0.167c-7.378,0.941-20.682,5.02-8.79,13.208c7.195,4.954,16.443-0.218,24.421,1.433
		c-6.593,2.198-27.583,7.894-8.931,10.305c9.764,1.262,19.81-2.157,29.865-1.054c-2.294,3.877,2.992,5.896,6.325,6.887
		c7.445,2.22,12.225-1.523,18.683-4.442c4.776-2.157,10.173-1.179,15.96-1.745c5.667-0.558,3.348,1.524-0.712,4.272
		c-4.418,2.989-20.399,6.167-20.902,13.225c-0.429,6.071,8.623,3.144,12.966,3.035C143.305,154.097,185.709,163.932,182.549,150.995
		z"/>
	<path fill="none" stroke="#3C313D" stroke-width="3.9445" stroke-miterlimit="10" d="M67.499,119.221
		c2.053-13.966,6.331-29.147,20.141-38c9.729-6.235,29.118-10.056,38.922-1.641c6.829,5.861,8.402,18.975,9.66,26.845
		c0.587,3.679-1.624,10.083,0.225,13.243c2.395,4.099,12.759,6.541,9.939,9.357c-5.625,0.429-9.719-7.896-15.568-5.962
		c-5.389,1.782,0.324,3.069,0.849,6.516c1.679,11.088-15.697-2.82-20.802-4.284c-0.973,4.679,0.147,13.477-8.182,11.329
		c-6.117-1.573-5.765-9.285-7.539-13.608c-2.523,3.002,0.227,9.574-5.694,9.565c-4.818-0.004-6.208-5.931-5.723-9.072
		c-0.931,9.38-14.799,7.927-11.442-2.115c-1.63,2.679-4.283,4.537-7.787,4.226c-2.888-0.325-0.414-2.586-0.135-3.687
		c-1.68-0.029-5.113,1.859-4.685-1.102c2.576-0.972,5.372-1.093,8.261-1.232"/>
	<path fill="#CA3931" d="M67.499,118.791c2.053-13.966,6.331-29.147,20.141-37.998c9.729-6.236,29.116-10.056,38.922-1.641
		c6.829,5.858,8.402,18.975,9.66,26.844c0.587,3.679-1.624,10.083,0.225,13.244c2.395,4.097,12.975,5.469,9.939,9.357
		c-1.903,3.193-9.719-7.896-15.568-5.962c-5.389,1.782,0.324,3.069,0.845,6.516c1.683,11.088-15.693-2.82-20.798-4.286
		c-0.973,4.682,0.147,13.479-8.182,11.331c-6.117-1.574-5.765-9.284-7.539-13.608c-1.537-1.172,0.223,9.569-5.694,9.565
		c-4.818-0.004-6.208-5.931-5.723-9.072c-0.931,9.38-14.799,7.923-11.442-2.115c-1.63,2.68-4.283,4.537-7.787,4.227
		c-2.888-0.325-0.414-2.586-0.135-3.687c-1.68-0.029-5.113,1.859-4.685-1.102c2.576-0.972,5.367-1.095,8.261-1.232"/>
	
		<path fill="none" stroke="#3C313D" stroke-width="3.9445" stroke-linecap="round" stroke-linejoin="round" stroke-miterlimit="10" d="
		M100.194,55.491c-3.473-0.5-5.084,1.131-2.996,3.714c2.411,2.985,11.711,7.505,10.176,12.894c-0.649,2.29-4.763,2.954-6.672,3.5
		c1.268,0.683,3.175-0.189,4.69-0.577c-1.049,1.378-2.144,2.996-3.033,4.645c2.021-0.01,3.462-2.303,4.861-3.635
		c-0.017,1.895-0.191,3.793-0.127,5.717c1.122-0.947,1.526-3.314,2.021-4.855c0.352,1.691,1.089,3.683,2.832,4.239
		c0.177-1.622-0.514-3.038-0.746-4.48c1.72,0.962,3.294,2.354,5.055,3.244c0.114-1.828-1.57-3.314-2.998-4.291
		c1.272-0.35,2.544-0.708,3.833-0.855C106.86,75.915,110.47,56.971,100.194,55.491z"/>
	
		<path fill="#3AAF73" stroke="#3AAF73" stroke-width="0.8755" stroke-linecap="round" stroke-linejoin="round" stroke-miterlimit="10" d="
		M100.389,55.491c-3.473-0.5-5.084,1.131-2.996,3.714c2.411,2.985,11.711,7.505,10.176,12.894c-0.649,2.29-4.759,2.954-6.668,3.5
		c1.264,0.683,3.173-0.189,4.687-0.577c-1.049,1.378-2.14,2.996-3.033,4.645c2.021-0.01,3.462-2.303,4.861-3.635
		c-0.015,1.895-0.188,3.793-0.127,5.717c1.122-0.947,1.526-3.314,2.021-4.855c0.356,1.691,1.093,3.683,2.832,4.239
		c0.181-1.622-0.51-3.038-0.744-4.48c1.718,0.962,3.292,2.354,5.053,3.244c0.114-1.828-1.57-3.314-2.994-4.291
		c1.268-0.35,2.54-0.708,3.831-0.855C107.06,75.915,110.668,56.971,100.389,55.491z"/>
	
		<path fill="#3C343F" stroke="#3C343F" stroke-width="0.5544" stroke-linecap="round" stroke-linejoin="round" stroke-miterlimit="10" d="
		M111.101,95.662c-0.508,1.499-1.535,5.931-0.177,7.093c2.917,2.49,4.251-5.003,3.779-6.714
		C114.099,93.855,112.006,92.995,111.101,95.662z"/>
	
		<path fill="#3C343F" stroke="#3C343F" stroke-width="0.5544" stroke-linecap="round" stroke-linejoin="round" stroke-miterlimit="10" d="
		M122.618,95.514c-0.508,1.499-1.534,5.932-0.175,7.093c2.915,2.492,4.251-5.003,3.776-6.714
		C125.616,93.707,123.526,92.849,122.618,95.514z"/>
	
		<path opacity="0.1" fill="#3C343F" stroke="#3C343F" stroke-width="0.4137" stroke-linecap="round" stroke-linejoin="round" stroke-miterlimit="10" d="
		M84.592,86.07c-0.771,0.431-13.152,17.849-14.38,27.476c-1.289,10.091,7.083,1.289,8.157-5.365s16.528-23.397,14.166-25.114
		C90.173,81.349,86.523,84.998,84.592,86.07z"/>
	
		<path fill="none" stroke="#3C343F" stroke-width="3.0679" stroke-linecap="round" stroke-linejoin="round" stroke-miterlimit="10" d="
		M57.12,158.769c0.269,2.174,0.973,4.643,2.174,6.213"/>
	
		<path fill="none" stroke="#3C343F" stroke-width="3.0679" stroke-linecap="round" stroke-linejoin="round" stroke-miterlimit="10" d="
		M207.512,176.482c0.94,4.413-0.92,7.37-3.727,10.563"/>
	
		<path fill="none" stroke="#3C343F" stroke-width="3.0679" stroke-linecap="round" stroke-linejoin="round" stroke-miterlimit="10" d="
		M158.415,172.131c2.915,2.044,3.614,6.404,6.837,8.078"/>
	
		<path fill="none" stroke="#3C343F" stroke-width="3.0679" stroke-linecap="round" stroke-linejoin="round" stroke-miterlimit="10" d="
		M109.009,164.053c-1.547,2.719-0.833,5.738,2.178,6.833"/>
	
		<path fill="none" stroke="#3C343F" stroke-width="3.0679" stroke-linecap="round" stroke-linejoin="round" stroke-miterlimit="10" d="
		M48.11,140.123c-1.197,1.641-1.227,3.594-0.623,5.596"/>
	
		<path fill="none" stroke="#3C343F" stroke-width="3.0679" stroke-linecap="round" stroke-linejoin="round" stroke-miterlimit="10" d="
		M39.407,138.878c0.375-1.72,1.32-3.364,2.486-4.659"/>
	
		<path fill="none" stroke="#3C343F" stroke-width="3.0679" stroke-linecap="round" stroke-linejoin="round" stroke-miterlimit="10" d="
		M89.432,170.266c1.986,0.874,2.394,3.885,2.8,4.351"/>
	
		<path fill="none" stroke="#3C343F" stroke-width="3.0679" stroke-linecap="round" stroke-linejoin="round" stroke-miterlimit="10" d="
		M136.043,176.79c1.262,2.498,6.199,9.702,8.39,8.391"/>
	
		<path fill="none" stroke="#3C343F" stroke-width="3.0679" stroke-linecap="round" stroke-linejoin="round" stroke-miterlimit="10" d="
		M68.927,159.081c0.094,2.428,4.133,8.194,5.902,6.833"/>
	
		<path fill="none" stroke="#3C343F" stroke-width="3.0679" stroke-linecap="round" stroke-linejoin="round" stroke-miterlimit="10" d="
		M189.178,180.829c0.787,2.003,1.216,4.643,0.312,5.597"/>
	
		<path fill="none" stroke="#3C343F" stroke-width="3.0679" stroke-linecap="round" stroke-linejoin="round" stroke-miterlimit="10" d="
		M91.297,162.808c-0.008,2.757,1.484,5.438,3.731,4.352"/>
	
		<path fill="none" stroke="#3C343F" stroke-width="2.1914" stroke-linecap="round" stroke-linejoin="round" stroke-miterlimit="10" d="
		M90.365,82.64c0,0-14.291,5.902-18.952,35.11"/>
	
		<path fill="#3C343F" stroke="#3C343F" stroke-width="0.3279" stroke-linecap="round" stroke-linejoin="round" stroke-miterlimit="10" d="
		M121.377,107.242c0,0-9.65-0.772-10.227,1.433c-0.579,2.205,3.044,5.33,5.734,4.168
		C119.57,111.681,123.842,107.744,121.377,107.242z"/>
	
		<path fill="none" stroke="#CCC7B2" stroke-width="1.025" stroke-linecap="round" stroke-linejoin="round" stroke-miterlimit="10" d="
		M95.765,62.305l-4.068-0.468l1.876-5.003l-3.283-0.627l3.595-1.72l0.627-4.064l3.285,2.344l1.407-3.283l3.596,3.596l4.532-1.405
		l-0.625,3.281l5.003,0.626l-3.596,2.971l5.94,1.093l-2.812,4.69l5.157-0.312l-2.656,5.942l4.844-2.502l-0.312,4.066l5.315-1.72
		l0.943,4.22l4.53-0.937l1.254,4.847l3.127-1.407l-1.253,4.534l4.222,0.625l-1.72,5.159l3.752,0.937l-1.562,3.91l4.534-0.156
		l1.407,2.814l3.281-1.722l3.285,3.283l3.752-1.875l2.187,4.066l5.317-0.939l-0.158,3.91l5.945-1.407l0.625,4.378
		c0,0,5.783-0.314,5.312-0.314c-0.466,0,0.159,4.535,0.159,4.535l4.222-1.72l1.403,4.534l4.38-1.563l-0.158,4.847l5.626-1.407
		l-0.154,4.534l4.847-0.47l0.783,4.534l5.005-1.249l-0.941,5.471l5.472-0.783l-1.874,4.223l5.942,2.499l-1.72,3.597l4.688,1.096
		l-1.878,3.439l6.1,0.624l-3.439,4.693l5.313,2.502l-3.594,2.815l4.223,1.562c0,0-3.598,2.656-3.127,2.814
		c0.466,0.158,4.063,1.249,4.063,1.249l-3.127,4.068l3.91,0.624c0,0-4.847,4.535-4.223,4.688c0.625,0.158,2.815,4.381,2.815,4.381
		l-3.598,1.72c0,0,2.189,6.879,2.189,7.345c0,0.471-3.751-0.312-3.751-0.312l0.782,8.133c0,0-3.285-1.72-3.439-1.254
		c-0.158,0.471,0.312,5.005,0.312,5.005l-5.163-2.344l0.158,5.625l-4.38-3.281l-0.312,5.472l-4.064-4.534l-1.095,5.005l-4.847-4.381
		c0,0-1.72,5.472-1.72,5.63s-4.847-4.847-5.001-4.376c-0.158,0.466-1.878,5.312-1.878,5.312l-2.498-6.254l-2.036,8.132l-4.218-7.19
		c0,0-3.286,4.376-3.286,4.847c0,0.466-3.439-6.725-3.439-6.254c0,0.466-3.127,5.941-3.127,5.941s-4.222-6.254-4.063-5.788
		c0.154,0.471-2.19,5.472-2.19,5.472l-6.1-7.191l-0.934,6.255l-3.909-7.816c0,0-4.219,3.594-4.381,4.064
		c-0.154,0.471-2.032-5.159-2.032-5.159l-2.814,4.064l-0.937-5.472l-4.223,4.376l-1.403-4.847l-3.443,4.068l-1.562-4.692
		l-3.598,3.597l-2.658-4.847l-3.279,3.281l-1.722-4.218l-4.847,3.752l-2.032-3.598c0,0-2.192,3.285-2.346,3.751
		c-0.158,0.471-2.812-5.471-2.812-5.471l-5.632,2.502l-0.781-5.005l-8.911,2.974l-1.251-5.317l-5.942,3.285l-1.251-5.63
		l-7.191,3.285l-1.564-4.851l-4.064,3.127c0,0,0.312-5.938-0.156-5.625c-0.473,0.312-5.005,4.376-5.005,4.376l-0.783-7.037
		l-3.437,5.472l-1.095-8.286l-6.721,0.471l1.25-6.408l-5.003,1.561l1.878-6.254l-7.352,1.096l3.285-6.566h-5.471l4.378-4.848
		l-5.476-0.624l4.38-4.851l-6.1-2.032l4.849-5.001l-6.725-3.598l7.82-3.909l-6.881-5.159l7.037-2.344l-6.725-3.91l7.347-0.937
		l-6.406-2.659l7.191-2.5c0,0-4.38-6.098-3.908-5.942c0.469,0.156,6.252,2.502,6.252,2.502l-2.656-6.254l6.408,3.283l-2.969-9.069
		l6.564,5.63l-1.719-7.505l6.566,4.847l-2.186-6.566l5.467,4.534l-1.249-7.505l6.096,5.003l1.878-5.784l2.658,3.596l1.095-5.315
		l5.003,4.064l0.471-5.159l6.096,3.127l-1.405-6.41l5.94,2.188c0,0-2.661-4.847-2.188-4.847c0.468,0,5.784,2.188,6.408,2.346
		c0.625,0.156,1.251-5.629,1.251-5.629l5.471,3.127l-2.658-5.315l8.442,2.344l-3.751-3.439l3.439-2.032l-6.879,1.251L95.765,62.305z
		"/>
	<g>
		<g>
			<g>
				<path fill="#3C343F" d="M121.655,145.032c0.033,0.533,0.064,1.065,0.096,1.599c0.039,0.647,0.512,1.189,1.19,1.189
					c0.62,0,1.229-0.541,1.19-1.189c-0.032-0.533-0.063-1.065-0.096-1.599c-0.04-0.647-0.511-1.189-1.19-1.189
					C122.227,143.843,121.616,144.384,121.655,145.032L121.655,145.032z"/>
			</g>
		</g>
		<g>
			<g>
				<g>
					<g>
						<g>
							<path fill="#3C343F" d="M104.958,147.469c1.656-2.768,0.244-5.495-2.636-6.524c-3.223-1.153-6.479,0.669-7.706,3.695
								c-1.498,3.693-0.208,9.419,3.283,11.566c3.16,1.944,6.487-0.28,7.706-3.309c0.573-1.425-1.729-2.037-2.295-0.633
								c-0.768,1.907-2.612,2.87-4.45,1.739c-2.407-1.48-2.689-5.638-2.155-8.064c0.44-2,2.251-3.2,4.259-2.885
								c1.75,0.274,2.945,1.53,1.938,3.213C102.113,147.588,104.171,148.783,104.958,147.469L104.958,147.469z"/>
						</g>
					</g>
					<g>
						<g>
							<path fill="#3C343F" d="M111.223,154.305c0.159-3.245,1.321-6.904,2.68-9.83c0.187-0.403,0.439-1.053,0.804-1.335
								c-0.589,0.455-0.766-0.616-0.408,0.371c0.296,0.815,0.441,1.707,0.622,2.554c0.652,3.058,0.948,6.21,1.039,9.332
								c0.045,1.531,2.424,1.535,2.38,0c-0.122-4.17-0.558-8.508-1.746-12.519c-0.453-1.529-2.039-2.905-3.479-1.49
								c-1.567,1.539-2.223,4.089-2.843,6.12c-0.665,2.176-1.316,4.511-1.428,6.797
								C108.768,155.839,111.147,155.832,111.223,154.305L111.223,154.305z"/>
						</g>
					</g>
					<g>
						<g>
							<path fill="#3C343F" d="M123.299,146.575c2.723,0.19,5.357,0.225,8.063-0.158c1.514-0.215,0.867-2.507-0.633-2.295
								c-2.478,0.351-4.942,0.248-7.431,0.074C121.767,144.089,121.777,146.469,123.299,146.575L123.299,146.575z"/>
						</g>
					</g>
					<g>
						<g>
							<path fill="#3C343F" d="M149.471,158.234c1.684-0.047,3.34-0.091,5.022-0.046c1.535,0.042,1.531-2.338,0-2.379
								c-1.683-0.046-3.339-0.002-5.022,0.046C147.939,155.898,147.936,158.277,149.471,158.234L149.471,158.234z"/>
						</g>
					</g>
					<g>
						<g>
							<path fill="#3C343F" d="M126.014,145.803c0.021,3.211-0.344,6.422-0.147,9.631c0.094,1.524,2.474,1.533,2.379,0
								c-0.197-3.209,0.168-6.42,0.146-9.631C128.383,144.269,126.003,144.268,126.014,145.803L126.014,145.803z"/>
						</g>
					</g>
					<g>
						<g>
							<path fill="#3C343F" d="M148.636,144.582c0.019,4.062-0.575,8.133-0.337,12.192c0.089,1.524,2.469,1.533,2.379,0
								c-0.237-4.06,0.356-8.131,0.337-12.192C151.008,143.048,148.628,143.047,148.636,144.582L148.636,144.582z"/>
						</g>
					</g>
					<g>
						<g>
							<path fill="#3C343F" d="M136.262,155.104c0.532-3.014,1.234-6.159,2.455-8.973c0.168-0.388,0.404-1.058,0.769-1.312
								c-0.594,0.416-0.777-0.408-0.464,0.338c0.318,0.757,0.52,1.566,0.728,2.357c0.736,2.802,0.678,5.722,1,8.581
								c0.169,1.507,2.551,1.523,2.379,0c-0.203-1.81-0.603-16.306-4.993-13.227c-1.488,1.044-2.059,3.405-2.571,5.029
								c-0.676,2.145-1.205,4.359-1.597,6.573C133.702,155.972,135.995,156.613,136.262,155.104L136.262,155.104z"/>
						</g>
					</g>
					<g>
						<g>
							<path fill="#3C343F" d="M161.244,146.936c-0.584,3.66-1.469,11.12,2.881,12.857c2.47,0.986,4.997-1.504,5.812-3.535
								c1.222-3.045,0.238-7.122-0.643-10.131c-0.431-1.47-2.727-0.844-2.295,0.633c0.638,2.178,1.054,4.396,1.022,6.672
								c-0.02,1.388-1.652,5.699-3.652,3.775c-1.975-1.9-1.216-7.225-0.83-9.639C163.778,146.067,161.485,145.424,161.244,146.936
								L161.244,146.936z"/>
						</g>
					</g>
					<g>
						<g>
							<path fill="#3C343F" d="M177.742,159.585c0.622-3.066,0.325-6.15,0.271-9.256c-0.738,0.2-1.478,0.4-2.217,0.601
								c2.177,3.062,4.396,6.095,6.391,9.281c0.606,0.968,2.257,0.624,2.217-0.601c-0.109-3.388,0.118-6.778,0.458-10.147
								c0.154-1.526-2.227-1.512-2.379,0c-0.341,3.369-0.567,6.76-0.458,10.147c0.738-0.2,1.478-0.4,2.217-0.601
								c-1.995-3.187-4.214-6.218-6.391-9.281c-0.648-0.912-2.239-0.666-2.217,0.601c0.049,2.867,0.388,5.79-0.188,8.623
								C175.144,160.45,177.438,161.088,177.742,159.585L177.742,159.585z"/>
						</g>
					</g>
					<g>
						<g>
							<path fill="#3C343F" d="M193.91,159.256c0.568-3.078,1.804-6.279,3.312-9.009c0.253-0.457,0.529-0.892,0.91-1.251
								c-0.221,0.208-0.919-0.344-0.742-0.048c0.239,0.401,0.276,1.226,0.346,1.631c0.536,3.131,0.819,6.229,0.82,9.405
								c0,1.534,2.38,1.534,2.379,0c0-1.783,0.042-16.17-4.34-12.783c-1.538,1.188-2.294,3.511-3.001,5.236
								c-0.811,1.979-1.59,4.075-1.979,6.186C191.339,160.123,193.632,160.764,193.91,159.256L193.91,159.256z"/>
						</g>
					</g>
					<g>
						<g>
							<path fill="#3C343F" d="M192.492,157.647c2.647,0.444,5.328,0.558,7.991,0.87c1.522,0.18,1.505-2.202,0-2.379
								c-2.45-0.288-4.923-0.377-7.358-0.786C191.624,155.101,190.981,157.394,192.492,157.647L192.492,157.647z"/>
						</g>
					</g>
					<g>
						<g>
							<path fill="#3C343F" d="M137.191,153.413c1.351,0.101,2.652,0.341,3.989,0.541c0.641,0.096,1.276-0.15,1.464-0.831
								c0.156-0.567-0.188-1.367-0.831-1.464c-1.545-0.23-3.061-0.509-4.622-0.625C135.66,150.92,135.671,153.3,137.191,153.413
								L137.191,153.413z"/>
						</g>
					</g>
					<g>
						<g>
							<path fill="#3C343F" d="M110.878,151.859c2.082-0.455,4.201-0.543,6.304-0.18c1.5,0.259,2.143-2.034,0.633-2.295
								c-2.542-0.438-5.05-0.37-7.57,0.18C108.746,149.892,109.382,152.186,110.878,151.859L110.878,151.859z"/>
						</g>
					</g>
					<g>
						<g>
							<path fill="#3C343F" d="M177.645,146.484c1.085-0.828,2.597-0.431,3.869-0.443c1.438-0.014,2.514-0.632,3.045-1.979
								c0.563-1.43-1.739-2.043-2.295-0.633c-0.206,0.524-2.06,0.195-2.491,0.179c-1.162-0.044-2.381,0.1-3.329,0.822
								C175.24,145.347,176.424,147.415,177.645,146.484L177.645,146.484z"/>
						</g>
					</g>
				</g>
				<g>
					<g>
						<path fill="#3C343F" d="M131.043,144.92c0.017,0.29,0.032,0.579,0.042,0.869c0.004,0.141,0.003,0.28,0,0.42
							c-0.001,0.057-0.066,0.425-0.004,0.114c-0.128,0.635,0.174,1.283,0.831,1.464c0.593,0.163,1.335-0.195,1.464-0.831
							c0.136-0.674,0.086-1.355,0.046-2.036c-0.037-0.647-0.513-1.189-1.189-1.189C131.612,143.73,131.005,144.271,131.043,144.92
							L131.043,144.92z"/>
					</g>
				</g>
				<g>
					<g>
						<path fill="#3C343F" d="M126.278,157.909c0.916-0.159,1.828-0.31,2.757-0.374c0.646-0.044,1.189-0.507,1.189-1.189
							c0-0.615-0.542-1.234-1.189-1.189c-1.139,0.078-2.266,0.263-3.39,0.458c-0.64,0.111-0.99,0.885-0.831,1.464
							C124.999,157.748,125.64,158.021,126.278,157.909L126.278,157.909z"/>
					</g>
				</g>
				<g>
					<g>
						<path fill="#3C343F" d="M103.385,143.785c-1.371,0.315-2.138,1.587-1.913,2.938c0.111,0.671,0.654,1.117,1.244,1.356
							c0.621,0.252,1.413-0.06,1.917-0.422c0.525-0.378,0.778-1.028,0.427-1.628c-0.304-0.52-1.101-0.807-1.628-0.427
							c-0.049,0.035-0.46,0.26-0.197,0.154c-0.289,0.116-0.017,0.014,0.176,0.045c-0.121-0.036-0.084-0.02,0.109,0.049
							c0.108,0.062,0.192,0.147,0.25,0.258c-0.062-0.106-0.051-0.068,0.032,0.112c-0.036-0.089-0.046-0.304-0.012,0.047
							c-0.031-0.324-0.051,0.145-0.006-0.055c0.04-0.182-0.129,0.202,0.037-0.082c-0.181,0.31,0.192-0.141-0.07,0.055
							c0.051-0.036,0.105-0.067,0.161-0.096c-0.233,0.127,0.044,0.003,0.105-0.011c0.632-0.146,0.997-0.859,0.831-1.464
							C104.671,143.972,104.017,143.64,103.385,143.785L103.385,143.785z"/>
					</g>
				</g>
				<g>
					<g>
						<path fill="#3C343F" d="M103.075,152.809c0.466-0.012,0.88,0.14,1.307,0.316c0.601,0.248,1.308-0.264,1.464-0.831
							c0.188-0.684-0.232-1.216-0.831-1.464c-0.619-0.256-1.266-0.418-1.94-0.4C101.543,150.469,101.54,152.849,103.075,152.809
							L103.075,152.809z"/>
					</g>
				</g>
				<g>
					<g>
						<path fill="#3C343F" d="M108.892,156.561c0.84-0.158,1.674-0.307,2.527-0.366c0.647-0.044,1.19-0.507,1.19-1.189
							c0-0.615-0.542-1.234-1.19-1.189c-1.064,0.073-2.113,0.253-3.16,0.45c-0.638,0.12-0.992,0.878-0.831,1.464
							C107.611,156.393,108.255,156.681,108.892,156.561L108.892,156.561z"/>
					</g>
				</g>
				<g>
					<g>
						<path fill="#3C343F" d="M115.19,157.914c1.268-0.101,2.467-0.486,3.714-0.704c0.639-0.112,0.99-0.884,0.831-1.464
							c-0.184-0.669-0.826-0.942-1.464-0.831c-1.03,0.181-2.036,0.537-3.081,0.62C113.671,155.655,113.659,158.036,115.19,157.914
							L115.19,157.914z"/>
					</g>
				</g>
				<g>
					<g>
						<path fill="#3C343F" d="M112.182,142.72c1.354-0.288,2.75-0.264,4.126-0.342c1.525-0.086,1.534-2.466,0-2.379
							c-1.592,0.09-3.192,0.093-4.759,0.426C110.048,140.744,110.685,143.037,112.182,142.72L112.182,142.72z"/>
					</g>
				</g>
				<g>
					<g>
						<path fill="#3C343F" d="M147.914,146.167c1.136-0.4,2.317-0.596,3.502-0.787c0.641-0.104,0.988-0.891,0.831-1.464
							c-0.186-0.675-0.824-0.935-1.464-0.831c-1.185,0.191-2.366,0.387-3.502,0.787
							C145.845,144.379,146.463,146.679,147.914,146.167L147.914,146.167z"/>
					</g>
				</g>
				<g>
					<g>
						<path fill="#3C343F" d="M153.37,155.571c0.124,0.57,0.163,1.149,0.2,1.731c0.041,0.646,0.51,1.189,1.189,1.189
							c0.617,0,1.231-0.542,1.189-1.189c-0.05-0.791-0.115-1.588-0.284-2.364c-0.138-0.634-0.864-0.996-1.464-0.831
							C153.551,154.286,153.232,154.938,153.37,155.571L153.37,155.571z"/>
					</g>
				</g>
				<g>
					<g>
						<path fill="#3C343F" d="M149.821,155.955c-1.021,0.061-2.039,0.142-3.048,0.321c-0.639,0.114-0.991,0.883-0.831,1.464
							c0.184,0.668,0.826,0.944,1.464,0.831c0.798-0.143,1.606-0.188,2.415-0.237c0.647-0.038,1.189-0.512,1.189-1.189
							C151.011,156.525,150.47,155.916,149.821,155.955L149.821,155.955z"/>
					</g>
				</g>
				<g>
					<g>
						<path fill="#3C343F" d="M136.812,144.548c1.333-0.197,2.656-0.466,4.002-0.562c1.521-0.109,1.532-2.489,0-2.379
							c-1.558,0.111-3.092,0.418-4.635,0.646c-0.643,0.096-0.986,0.896-0.831,1.464
							C135.536,144.398,136.172,144.643,136.812,144.548L136.812,144.548z"/>
					</g>
				</g>
				<g>
					<g>
						<path fill="#3C343F" d="M141.182,158.847c0.741-0.568,1.615-0.792,2.519-0.967c0.637-0.124,0.992-0.876,0.831-1.464
							c-0.182-0.661-0.828-0.954-1.464-0.831c-1.079,0.209-2.202,0.529-3.087,1.207c-0.514,0.394-0.785,1.016-0.427,1.628
							C139.851,158.927,140.665,159.242,141.182,158.847L141.182,158.847z"/>
					</g>
				</g>
				<g>
					<g>
						<path fill="#3C343F" d="M133.678,156.677c0.762-0.045,1.524-0.089,2.286-0.137c0.647-0.04,1.189-0.511,1.189-1.189
							c0-0.618-0.542-1.229-1.189-1.189c-0.762,0.047-1.524,0.091-2.286,0.137c-0.647,0.038-1.189,0.512-1.189,1.189
							C132.488,156.106,133.029,156.716,133.678,156.677L133.678,156.677z"/>
					</g>
				</g>
				<g>
					<g>
						<path fill="#3C343F" d="M161.406,148.454c0.156-0.081-0.328,0.128-0.084,0.036c0.086-0.033,0.175-0.062,0.262-0.092
							c0.278-0.094,0.559-0.18,0.839-0.265c0.501-0.151,1.004-0.299,1.514-0.418c1.493-0.351,0.86-2.645-0.633-2.295
							c-1.02,0.239-2.163,0.494-3.099,0.979C158.842,147.104,160.046,149.158,161.406,148.454L161.406,148.454z"/>
					</g>
				</g>
				<g>
					<g>
						<path fill="#3C343F" d="M166.764,147.083c1.006-0.287,2.017-0.558,3.044-0.758c0.637-0.124,0.993-0.875,0.831-1.464
							c-0.182-0.66-0.828-0.955-1.464-0.831c-1.026,0.2-2.038,0.471-3.044,0.758C164.658,145.209,165.285,147.505,166.764,147.083
							L166.764,147.083z"/>
					</g>
				</g>
				<g>
					<g>
						<path fill="#3C343F" d="M174.521,161.303c1.261,0.037,2.501-0.059,3.747-0.25c0.642-0.099,0.987-0.895,0.831-1.464
							c-0.187-0.679-0.823-0.929-1.464-0.831c-1.03,0.158-2.073,0.196-3.114,0.166C172.986,158.879,172.99,161.259,174.521,161.303
							L174.521,161.303z"/>
					</g>
				</g>
				<g>
					<g>
						<path fill="#3C343F" d="M175.343,151.502c0.889-0.546,1.831-0.814,2.854-0.987c0.64-0.108,0.989-0.887,0.831-1.464
							c-0.186-0.672-0.825-0.938-1.464-0.831c-1.214,0.205-2.369,0.58-3.423,1.228C172.837,150.249,174.031,152.308,175.343,151.502
							L175.343,151.502z"/>
					</g>
				</g>
				<g>
					<g>
						<path fill="#3C343F" d="M182.545,149.928c1.354-0.071,2.646-0.107,3.89-0.704c0.585-0.28,0.734-1.104,0.427-1.628
							c-0.348-0.593-1.043-0.707-1.628-0.427c-0.821,0.394-1.802,0.333-2.688,0.38C181.019,147.629,181.011,150.009,182.545,149.928
							L182.545,149.928z"/>
					</g>
				</g>
				<g>
					<g>
						<path fill="#3C343F" d="M182.354,162.294c0.866-0.175,1.736-0.328,2.603-0.5c0.637-0.126,0.993-0.874,0.831-1.464
							c-0.182-0.659-0.828-0.957-1.464-0.831c-0.866,0.172-1.736,0.325-2.603,0.5c-0.636,0.129-0.994,0.872-0.831,1.464
							C181.07,162.12,181.719,162.422,182.354,162.294L182.354,162.294z"/>
					</g>
				</g>
				<g>
					<g>
						<path fill="#3C343F" d="M195.615,148.221c1.224,0.037,2.445,0.069,3.669,0.004c1.526-0.081,1.534-2.461,0-2.379
							c-1.224,0.065-2.445,0.032-3.669-0.004C194.08,145.796,194.084,148.176,195.615,148.221L195.615,148.221z"/>
					</g>
				</g>
				<g>
					<g>
						<path fill="#3C343F" d="M189.994,160.762c1.525,0.283,3.052,0.549,4.597,0.7c1.527,0.149,1.513-2.231,0-2.379
							c-1.333-0.131-2.647-0.371-3.964-0.616C189.127,158.188,188.487,160.481,189.994,160.762L189.994,160.762z"/>
					</g>
				</g>
			</g>
			<g>
				<g>
					<path fill="#3C343F" d="M198.963,162.202c0.913-0.148,1.838-0.201,2.761-0.258c1.524-0.093,1.533-2.473,0-2.379
						c-1.137,0.069-2.268,0.159-3.394,0.342c-0.641,0.104-0.988,0.89-0.831,1.464C197.685,162.046,198.323,162.306,198.963,162.202
						L198.963,162.202z"/>
				</g>
			</g>
		</g>
	</g>
	<g>
		<g>
			<path fill="#3C343F" d="M120.364,127.025c2.089,3.209,6.166,5.235,9.981,4.719c1.396-0.188,0.799-2.3-0.582-2.113
				c-2.779,0.376-6.016-1.422-7.507-3.711C121.489,124.74,119.591,125.837,120.364,127.025L120.364,127.025z"/>
		</g>
	</g>
	<g>
		<g>
			<path fill="#3C343F" d="M97.607,126.392c-0.465,3.305,1.398,7.39,5.058,7.707c1.409,0.122,1.396-2.07,0-2.191
				c-2.079-0.181-3.198-3.136-2.945-4.934C99.915,125.592,97.804,124.997,97.607,126.392L97.607,126.392z"/>
		</g>
	</g>
	<g>
		<g>
			<path fill="#3C343F" d="M71.98,120.583c-0.463,3.306,1.397,7.389,5.058,7.707c1.409,0.122,1.396-2.07,0-2.191
				c-2.08-0.181-3.197-3.135-2.945-4.933C74.287,119.784,72.175,119.188,71.98,120.583L71.98,120.583z"/>
		</g>
	</g>
</g>
</svg>
