<?xml version="1.0" encoding="utf-8"?>
<!-- Generator: Adobe Illustrator 16.0.0, SVG Export Plug-In . SVG Version: 6.00 Build 0)  -->
<!DOCTYPE svg PUBLIC "-//W3C//DTD SVG 1.1//EN" "http://www.w3.org/Graphics/SVG/1.1/DTD/svg11.dtd">
<svg version="1.1" id="Capa_1" xmlns="http://www.w3.org/2000/svg" xmlns:xlink="http://www.w3.org/1999/xlink" x="0px" y="0px"
	 width="250px" height="250px" viewBox="0 0 250 250" enable-background="new 0 0 250 250" xml:space="preserve">
<pattern  x="0.5" y="250.5" width="65.25" height="65.25" patternUnits="userSpaceOnUse" id="Patas_de_pájaro" viewBox="18.5 -71.004 65.25 65.25" overflow="visible">
	<g>
		<polygon fill="none" points="18.5,-5.754 18.5,-71.004 83.75,-71.004 83.75,-5.754 		"/>
		<line fill="#FFFFFF" x1="0" y1="-11.754" x2="6" y2="-5.754"/>
		<line fill="#FFFFFF" x1="0" y1="-5.754" x2="6" y2="-11.754"/>
		
			<line fill="none" stroke="#1D1D1B" stroke-width="0.3" stroke-linecap="square" x1="40.986" y1="-47.96" x2="37.75" y2="-41.754"/>
		
			<line fill="none" stroke="#1D1D1B" stroke-width="0.3" stroke-linecap="square" x1="54.924" y1="-27.556" x2="62.5" y2="-25.504"/>
		<line fill="none" stroke="#1D1D1B" stroke-width="0.3" stroke-linecap="square" x1="56" y1="-30.504" x2="63.75" y2="-29.254"/>
		<line fill="none" stroke="#1D1D1B" stroke-width="0.3" stroke-linecap="square" x1="48.5" y1="-10.254" x2="51.25" y2="-15.504"/>
		<line fill="none" stroke="#1D1D1B" stroke-width="0.3" stroke-linecap="square" x1="45" y1="-10.754" x2="48.022" y2="-16.54"/>
		<line fill="none" stroke="#1D1D1B" stroke-width="0.3" stroke-linecap="square" x1="64.5" y1="-15.504" x2="59.75" y2="-12.004"/>
		<line fill="none" stroke="#1D1D1B" stroke-width="0.3" stroke-linecap="square" x1="65.75" y1="-13.004" x2="62" y2="-9.004"/>
		
			<line fill="none" stroke="#1D1D1B" stroke-width="0.3" stroke-linecap="square" x1="68.38" y1="-24.699" x2="69.281" y2="-17.754"/>
		
			<line fill="none" stroke="#1D1D1B" stroke-width="0.3" stroke-linecap="square" x1="64.482" y1="-23.799" x2="66.031" y2="-17.254"/>
		<line fill="none" stroke="#1D1D1B" stroke-width="0.3" stroke-linecap="square" x1="32.722" y1="-8.331" x2="37" y2="-2.504"/>
		
			<line fill="none" stroke="#1D1D1B" stroke-width="0.3" stroke-linecap="square" x1="35.55" y1="-11.159" x2="39.829" y2="-5.331"/>
		
			<line fill="none" stroke="#1D1D1B" stroke-width="0.3" stroke-linecap="square" x1="39.027" y1="-22.363" x2="42.463" y2="-16.264"/>
		
			<line fill="none" stroke="#1D1D1B" stroke-width="0.3" stroke-linecap="square" x1="42.731" y1="-23.873" x2="45.375" y2="-17.392"/>
		<line fill="none" stroke="#1D1D1B" stroke-width="0.3" stroke-linecap="square" x1="51.5" y1="-26.504" x2="46.25" y2="-23.504"/>
		<line fill="none" stroke="#1D1D1B" stroke-width="0.3" stroke-linecap="square" x1="54" y1="-23.254" x2="48.25" y2="-21.254"/>
		<line fill="none" stroke="#1D1D1B" stroke-width="0.3" stroke-linecap="square" x1="65.689" y1="-8.478" x2="62" y2="-3.004"/>
		<line fill="none" stroke="#1D1D1B" stroke-width="0.3" stroke-linecap="square" x1="68.431" y1="-5.564" x2="63.33" y2="-0.77"/>
		<line fill="none" stroke="#1D1D1B" stroke-width="0.3" stroke-linecap="square" x1="71.632" y1="-6.532" x2="74" y2="-0.754"/>
		<line fill="none" stroke="#1D1D1B" stroke-width="0.3" stroke-linecap="square" x1="46.5" y1="-7.254" x2="40.807" y2="-2.871"/>
		<line fill="none" stroke="#1D1D1B" stroke-width="0.3" stroke-linecap="square" x1="50.5" y1="-6.254" x2="43.796" y2="-0.212"/>
		<line fill="none" stroke="#1D1D1B" stroke-width="0.3" stroke-linecap="square" x1="40" y1="-12.754" x2="40.5" y2="-11.504"/>
		<line fill="none" stroke="#1D1D1B" stroke-width="0.3" stroke-linecap="square" x1="56.25" y1="-10.754" x2="57.25" y2="-9.754"/>
		<line fill="none" stroke="#1D1D1B" stroke-width="0.3" stroke-linecap="square" x1="57.25" y1="-8.254" x2="57.75" y2="-1.754"/>
		<line fill="none" stroke="#1D1D1B" stroke-width="0.3" stroke-linecap="square" x1="54.5" y1="-9.004" x2="53" y2="-2.254"/>
		
			<line fill="none" stroke="#1D1D1B" stroke-width="0.3" stroke-linecap="square" x1="71.781" y1="-21.004" x2="73.031" y2="-21.504"/>
		<line fill="none" stroke="#1D1D1B" stroke-width="0.3" stroke-linecap="square" x1="51" y1="-20.504" x2="51.25" y2="-19.004"/>
		<line fill="none" stroke="#1D1D1B" stroke-width="0.3" stroke-linecap="square" x1="69" y1="-9.004" x2="70.25" y2="-9.004"/>
		<line fill="none" stroke="#1D1D1B" stroke-width="0.3" stroke-linecap="square" x1="52.25" y1="-11.004" x2="51.25" y2="-9.254"/>
		<line fill="none" stroke="#1D1D1B" stroke-width="0.3" stroke-linecap="square" x1="56.5" y1="-23.754" x2="57.75" y2="-24.254"/>
		
			<line fill="none" stroke="#1D1D1B" stroke-width="0.3" stroke-linecap="square" x1="58.735" y1="-15.535" x2="54.312" y2="-18.254"/>
		
			<line fill="none" stroke="#1D1D1B" stroke-width="0.3" stroke-linecap="square" x1="61.474" y1="-17.933" x2="55.117" y2="-20.863"/>
		<line fill="none" stroke="#1D1D1B" stroke-width="0.3" stroke-linecap="square" x1="54" y1="-15.254" x2="55.25" y2="-15.004"/>
		
			<line fill="none" stroke="#1D1D1B" stroke-width="0.3" stroke-linecap="square" x1="60.781" y1="-22.004" x2="62.031" y2="-21.754"/>
		
			<line fill="none" stroke="#1D1D1B" stroke-width="0.3" stroke-linecap="square" x1="37.125" y1="-16.754" x2="38.75" y2="-17.254"/>
		
			<line fill="none" stroke="#1D1D1B" stroke-width="0.3" stroke-linecap="square" x1="45.492" y1="-62.552" x2="45.625" y2="-55.553"/>
		
			<line fill="none" stroke="#1D1D1B" stroke-width="0.3" stroke-linecap="square" x1="49.491" y1="-62.627" x2="48.75" y2="-56.004"/>
		
			<line fill="none" stroke="#1D1D1B" stroke-width="0.3" stroke-linecap="square" x1="62.143" y1="-43.271" x2="68.625" y2="-40.629"/>
		
			<line fill="none" stroke="#1D1D1B" stroke-width="0.3" stroke-linecap="square" x1="63.651" y1="-46.975" x2="70.134" y2="-44.333"/>
		
			<line fill="none" stroke="#1D1D1B" stroke-width="0.3" stroke-linecap="square" x1="45.622" y1="-47.422" x2="50.394" y2="-51.064"/>
		
			<line fill="none" stroke="#1D1D1B" stroke-width="0.3" stroke-linecap="square" x1="42.588" y1="-49.433" x2="48.496" y2="-53.185"/>
		
			<line fill="none" stroke="#1D1D1B" stroke-width="0.3" stroke-linecap="square" x1="36.996" y1="-29.626" x2="30.22" y2="-27.869"/>
		
			<line fill="none" stroke="#1D1D1B" stroke-width="0.3" stroke-linecap="square" x1="37.75" y1="-26.004" x2="30.974" y2="-24.247"/>
		
			<line fill="none" stroke="#1D1D1B" stroke-width="0.3" stroke-linecap="square" x1="38.19" y1="-49.811" x2="34.953" y2="-43.604"/>
		
			<line fill="none" stroke="#1D1D1B" stroke-width="0.3" stroke-linecap="square" x1="27.235" y1="-61.11" x2="28.573" y2="-54.239"/>
		
			<line fill="none" stroke="#1D1D1B" stroke-width="0.3" stroke-linecap="square" x1="31.162" y1="-61.875" x2="32.5" y2="-55.004"/>
		
			<line fill="none" stroke="#1D1D1B" stroke-width="0.3" stroke-linecap="square" x1="17.192" y1="-60.502" x2="22.25" y2="-57.754"/>
		
			<line fill="none" stroke="#1D1D1B" stroke-width="0.3" stroke-linecap="square" x1="19.065" y1="-64.035" x2="25.25" y2="-60.754"/>
		<line fill="none" stroke="#1D1D1B" stroke-width="0.3" stroke-linecap="square" x1="22" y1="-54.504" x2="20.822" y2="-48.51"/>
		
			<line fill="none" stroke="#1D1D1B" stroke-width="0.3" stroke-linecap="square" x1="26.071" y1="-54.628" x2="24.75" y2="-47.754"/>
		
			<line fill="none" stroke="#1D1D1B" stroke-width="0.3" stroke-linecap="square" x1="74.865" y1="-26.803" x2="77.281" y2="-19.254"/>
		
			<line fill="none" stroke="#1D1D1B" stroke-width="0.3" stroke-linecap="square" x1="79.031" y1="-26.754" x2="79.774" y2="-20.258"/>
		
			<line fill="none" stroke="#1D1D1B" stroke-width="0.3" stroke-linecap="square" x1="71.527" y1="-34.544" x2="67.523" y2="-28.803"/>
		
			<line fill="none" stroke="#1D1D1B" stroke-width="0.3" stroke-linecap="square" x1="74.273" y1="-33.212" x2="72.531" y2="-27.754"/>
		
			<line fill="none" stroke="#1D1D1B" stroke-width="0.3" stroke-linecap="square" x1="45.447" y1="-43.207" x2="46.25" y2="-36.254"/>
		
			<line fill="none" stroke="#1D1D1B" stroke-width="0.3" stroke-linecap="square" x1="48.432" y1="-44.016" x2="50.13" y2="-37.225"/>
		
			<line fill="none" stroke="#1D1D1B" stroke-width="0.3" stroke-linecap="square" x1="71.308" y1="-66.128" x2="64.965" y2="-63.168"/>
		
			<line fill="none" stroke="#1D1D1B" stroke-width="0.3" stroke-linecap="square" x1="72.75" y1="-63.254" x2="66.657" y2="-59.544"/>
		
			<line fill="none" stroke="#1D1D1B" stroke-width="0.3" stroke-linecap="square" x1="36.147" y1="-58.528" x2="37.75" y2="-52.004"/>
		
			<line fill="none" stroke="#1D1D1B" stroke-width="0.3" stroke-linecap="square" x1="38.232" y1="-60.801" x2="41.334" y2="-54.526"/>
		<line fill="none" stroke="#1D1D1B" stroke-width="0.3" stroke-linecap="square" x1="56" y1="-56.754" x2="52.5" y2="-50.504"/>
		
			<line fill="none" stroke="#1D1D1B" stroke-width="0.3" stroke-linecap="square" x1="58.635" y1="-55.583" x2="54.686" y2="-49.805"/>
		<line fill="none" stroke="#1D1D1B" stroke-width="0.3" stroke-linecap="square" x1="68.5" y1="-55.254" x2="62.25" y2="-52.754"/>
		<line fill="none" stroke="#1D1D1B" stroke-width="0.3" stroke-linecap="square" x1="69" y1="-50.754" x2="62.75" y2="-50.504"/>
		
			<line fill="none" stroke="#1D1D1B" stroke-width="0.3" stroke-linecap="square" x1="74.723" y1="-53.581" x2="73.031" y2="-47.254"/>
		
			<line fill="none" stroke="#1D1D1B" stroke-width="0.3" stroke-linecap="square" x1="77.444" y1="-51.098" x2="73.973" y2="-45.02"/>
		
			<line fill="none" stroke="#1D1D1B" stroke-width="0.3" stroke-linecap="square" x1="75.64" y1="-17.847" x2="69.302" y2="-14.875"/>
		<line fill="none" stroke="#1D1D1B" stroke-width="0.3" stroke-linecap="square" x1="77.338" y1="-14.226" x2="71" y2="-11.254"/>
		<line fill="none" stroke="#1D1D1B" stroke-width="0.3" stroke-linecap="square" x1="65.75" y1="-34.004" x2="61.5" y2="-38.754"/>
		<line fill="none" stroke="#1D1D1B" stroke-width="0.3" stroke-linecap="square" x1="63" y1="-33.254" x2="58.183" y2="-37.661"/>
		<line fill="none" stroke="#1D1D1B" stroke-width="0.3" stroke-linecap="square" x1="49.031" y1="-31.754" x2="53" y2="-36.754"/>
		
			<line fill="none" stroke="#1D1D1B" stroke-width="0.3" stroke-linecap="square" x1="51.432" y1="-28.555" x2="55.75" y2="-34.504"/>
		
			<line fill="none" stroke="#1D1D1B" stroke-width="0.3" stroke-linecap="square" x1="40.926" y1="-39.481" x2="33.966" y2="-40.227"/>
		<line fill="none" stroke="#1D1D1B" stroke-width="0.3" stroke-linecap="square" x1="40" y1="-36.254" x2="33.155" y2="-37.721"/>
		
			<line fill="none" stroke="#1D1D1B" stroke-width="0.3" stroke-linecap="square" x1="25.251" y1="-34.255" x2="30.851" y2="-30.056"/>
		
			<line fill="none" stroke="#1D1D1B" stroke-width="0.3" stroke-linecap="square" x1="27.651" y1="-37.454" x2="33.25" y2="-33.254"/>
		
			<line fill="none" stroke="#1D1D1B" stroke-width="0.3" stroke-linecap="square" x1="32.491" y1="-21.516" x2="31.921" y2="-14.538"/>
		
			<line fill="none" stroke="#1D1D1B" stroke-width="0.3" stroke-linecap="square" x1="36.25" y1="-21.004" x2="35.306" y2="-13.583"/>
		
			<line fill="none" stroke="#1D1D1B" stroke-width="0.3" stroke-linecap="square" x1="38.671" y1="-30.676" x2="43.621" y2="-25.726"/>
		
			<line fill="none" stroke="#1D1D1B" stroke-width="0.3" stroke-linecap="square" x1="41.5" y1="-33.504" x2="46.449" y2="-28.555"/>
		
			<line fill="none" stroke="#1D1D1B" stroke-width="0.3" stroke-linecap="square" x1="16.819" y1="-17.546" x2="20.75" y2="-11.754"/>
		<line fill="none" stroke="#1D1D1B" stroke-width="0.3" stroke-linecap="square" x1="27" y1="-24.754" x2="22.431" y2="-20.549"/>
		
			<line fill="none" stroke="#1D1D1B" stroke-width="0.3" stroke-linecap="square" x1="29.274" y1="-22.302" x2="23.75" y2="-18.004"/>
		
			<line fill="none" stroke="#1D1D1B" stroke-width="0.3" stroke-linecap="square" x1="74.621" y1="-56.414" x2="81.595" y2="-57.019"/>
		
			<line fill="none" stroke="#1D1D1B" stroke-width="0.3" stroke-linecap="square" x1="74.75" y1="-59.754" x2="81.25" y2="-61.004"/>
		<line fill="none" stroke="#1D1D1B" stroke-width="0.3" stroke-linecap="square" x1="54.75" y1="-47.754" x2="55.5" y2="-40.754"/>
		
			<line fill="none" stroke="#1D1D1B" stroke-width="0.3" stroke-linecap="square" x1="58.75" y1="-47.754" x2="58.25" y2="-42.254"/>
		
			<line fill="none" stroke="#1D1D1B" stroke-width="0.3" stroke-linecap="square" x1="30.463" y1="-69.895" x2="27.598" y2="-64.924"/>
		
			<line fill="none" stroke="#1D1D1B" stroke-width="0.3" stroke-linecap="square" x1="24.961" y1="-38.777" x2="30.714" y2="-42.767"/>
		
			<line fill="none" stroke="#1D1D1B" stroke-width="0.3" stroke-linecap="square" x1="22.682" y1="-42.065" x2="28.436" y2="-46.054"/>
		<line fill="none" stroke="#1D1D1B" stroke-width="0.3" stroke-linecap="square" x1="22.636" y1="-12.77" x2="27" y2="-8.504"/>
		<line fill="none" stroke="#1D1D1B" stroke-width="0.3" stroke-linecap="square" x1="25.065" y1="-14.442" x2="29" y2="-11.004"/>
		
			<line fill="none" stroke="#1D1D1B" stroke-width="0.3" stroke-linecap="square" x1="79.25" y1="-48.754" x2="83.568" y2="-43.244"/>
		
			<line fill="none" stroke="#1D1D1B" stroke-width="0.3" stroke-linecap="square" x1="81.897" y1="-50.972" x2="86.216" y2="-45.462"/>
		
			<line fill="none" stroke="#1D1D1B" stroke-width="0.3" stroke-linecap="square" x1="76.996" y1="-42.376" x2="70.22" y2="-40.619"/>
		<line fill="none" stroke="#1D1D1B" stroke-width="0.3" stroke-linecap="square" x1="78" y1="-38.504" x2="71.224" y2="-36.747"/>
		
			<line fill="none" stroke="#1D1D1B" stroke-width="0.3" stroke-linecap="square" x1="20.978" y1="-31.52" x2="15.75" y2="-29.004"/>
		
			<line fill="none" stroke="#1D1D1B" stroke-width="0.3" stroke-linecap="square" x1="23.812" y1="-28.927" x2="17.702" y2="-25.513"/>
		
			<line fill="none" stroke="#1D1D1B" stroke-width="0.3" stroke-linecap="square" x1="34.25" y1="-51.504" x2="27.341" y2="-51.934"/>
		
			<line fill="none" stroke="#1D1D1B" stroke-width="0.3" stroke-linecap="square" x1="34.75" y1="-48.754" x2="27.795" y2="-47.959"/>
		
			<line fill="none" stroke="#1D1D1B" stroke-width="0.3" stroke-linecap="square" x1="20.794" y1="-9.411" x2="15.269" y2="-5.114"/>
		
			<line fill="none" stroke="#1D1D1B" stroke-width="0.3" stroke-linecap="square" x1="78.759" y1="-15.301" x2="82.689" y2="-9.508"/>
		<line fill="none" stroke="#1D1D1B" stroke-width="0.3" stroke-linecap="square" x1="82.068" y1="-17.546" x2="86" y2="-11.754"/>
		
			<line fill="none" stroke="#1D1D1B" stroke-width="0.3" stroke-linecap="square" x1="82.25" y1="-40.254" x2="78.539" y2="-35.914"/>
		
			<line fill="none" stroke="#1D1D1B" stroke-width="0.3" stroke-linecap="square" x1="85.632" y1="-39.748" x2="81.937" y2="-33.804"/>
		
			<line fill="none" stroke="#1D1D1B" stroke-width="0.3" stroke-linecap="square" x1="86.044" y1="-9.411" x2="80.519" y2="-5.114"/>
		<line fill="none" stroke="#1D1D1B" stroke-width="0.3" stroke-linecap="square" x1="74.75" y1="-7.754" x2="77.5" y2="-1.004"/>
		
			<line fill="none" stroke="#1D1D1B" stroke-width="0.3" stroke-linecap="square" x1="82.442" y1="-60.502" x2="88.624" y2="-57.221"/>
		
			<line fill="none" stroke="#1D1D1B" stroke-width="0.3" stroke-linecap="square" x1="35.077" y1="-61.535" x2="39.5" y2="-64.254"/>
		
			<line fill="none" stroke="#1D1D1B" stroke-width="0.3" stroke-linecap="square" x1="32.338" y1="-63.933" x2="38.694" y2="-66.863"/>
		
			<line fill="none" stroke="#1D1D1B" stroke-width="0.3" stroke-linecap="square" x1="54.625" y1="-62.879" x2="59.375" y2="-58.129"/>
		
			<line fill="none" stroke="#1D1D1B" stroke-width="0.3" stroke-linecap="square" x1="57.772" y1="-65.347" x2="62.091" y2="-59.837"/>
		
			<line fill="none" stroke="#1D1D1B" stroke-width="0.3" stroke-linecap="square" x1="20.382" y1="-39.748" x2="16.688" y2="-33.804"/>
		<line fill="none" stroke="#1D1D1B" stroke-width="0.3" stroke-linecap="square" x1="14" y1="-48.754" x2="18.318" y2="-43.244"/>
		
			<line fill="none" stroke="#1D1D1B" stroke-width="0.3" stroke-linecap="square" x1="16.647" y1="-50.972" x2="20.966" y2="-45.462"/>
		<line fill="none" stroke="#1D1D1B" stroke-width="0.3" stroke-linecap="square" x1="86.228" y1="-31.52" x2="81" y2="-29.004"/>
		
			<line fill="none" stroke="#1D1D1B" stroke-width="0.3" stroke-linecap="square" x1="89.062" y1="-28.927" x2="82.951" y2="-25.513"/>
		<line fill="none" stroke="#1D1D1B" stroke-width="0.3" stroke-linecap="square" x1="48.5" y1="-67.254" x2="49.75" y2="-67.004"/>
		<line fill="none" stroke="#1D1D1B" stroke-width="0.3" stroke-linecap="square" x1="47.75" y1="-64.254" x2="47.5" y2="-65.004"/>
		<line fill="none" stroke="#1D1D1B" stroke-width="0.3" stroke-linecap="square" x1="52.5" y1="-58.754" x2="53.25" y2="-59.254"/>
		<line fill="none" stroke="#1D1D1B" stroke-width="0.3" stroke-linecap="square" x1="63.5" y1="-61.004" x2="64.75" y2="-61.004"/>
		<line fill="none" stroke="#1D1D1B" stroke-width="0.3" stroke-linecap="square" x1="70.25" y1="-56.504" x2="71" y2="-55.754"/>
		<line fill="none" stroke="#1D1D1B" stroke-width="0.3" stroke-linecap="square" x1="79.25" y1="-53.004" x2="80" y2="-53.754"/>
		
			<line fill="none" stroke="#1D1D1B" stroke-width="0.3" stroke-linecap="square" x1="80.75" y1="-65.254" x2="80.25" y2="-64.254"/>
		<line fill="none" stroke="#1D1D1B" stroke-width="0.3" stroke-linecap="square" x1="24.5" y1="-57.504" x2="25.25" y2="-57.004"/>
		
			<line fill="none" stroke="#1D1D1B" stroke-width="0.3" stroke-linecap="square" x1="30.75" y1="-40.254" x2="30.75" y2="-39.504"/>
		<line fill="none" stroke="#1D1D1B" stroke-width="0.3" stroke-linecap="square" x1="24" y1="-36.254" x2="22.5" y2="-36.254"/>
		<line fill="none" stroke="#1D1D1B" stroke-width="0.3" stroke-linecap="square" x1="17.75" y1="-23.004" x2="19" y2="-22.254"/>
		
			<line fill="none" stroke="#1D1D1B" stroke-width="0.3" stroke-linecap="square" x1="28.25" y1="-16.504" x2="28.75" y2="-17.754"/>
		<line fill="none" stroke="#1D1D1B" stroke-width="0.3" stroke-linecap="square" x1="36.75" y1="-33.254" x2="36" y2="-34.254"/>
		<line fill="none" stroke="#1D1D1B" stroke-width="0.3" stroke-linecap="square" x1="67.75" y1="-36.754" x2="68.5" y2="-37.504"/>
		
			<line fill="none" stroke="#1D1D1B" stroke-width="0.3" stroke-linecap="square" x1="57.781" y1="-34.004" x2="58.281" y2="-33.004"/>
		<line fill="none" stroke="#1D1D1B" stroke-width="0.3" stroke-linecap="square" x1="44" y1="-52.254" x2="44.75" y2="-53.004"/>
		<line fill="none" stroke="#1D1D1B" stroke-width="0.3" stroke-linecap="square" x1="41.75" y1="-43.254" x2="43" y2="-42.504"/>
		<line fill="none" stroke="#1D1D1B" stroke-width="0.3" stroke-linecap="square" x1="27.75" y1="-6.504" x2="27.5" y2="-5.004"/>
		
			<line fill="none" stroke="#1D1D1B" stroke-width="0.3" stroke-linecap="square" x1="56.75" y1="-37.254" x2="56.25" y2="-38.504"/>
		
			<line fill="none" stroke="#1D1D1B" stroke-width="0.3" stroke-linecap="square" x1="86.044" y1="-74.661" x2="80.519" y2="-70.364"/>
		
			<line fill="none" stroke="#1D1D1B" stroke-width="0.3" stroke-linecap="square" x1="88.5" y1="-71.504" x2="82.974" y2="-67.207"/>
		<line fill="none" stroke="#1D1D1B" stroke-width="0.3" stroke-linecap="square" x1="65.689" y1="-73.728" x2="62" y2="-68.254"/>
		
			<line fill="none" stroke="#1D1D1B" stroke-width="0.3" stroke-linecap="square" x1="68.431" y1="-70.814" x2="63.33" y2="-66.02"/>
		<line fill="none" stroke="#1D1D1B" stroke-width="0.3" stroke-linecap="square" x1="71.632" y1="-71.782" x2="74" y2="-66.004"/>
		<line fill="none" stroke="#1D1D1B" stroke-width="0.3" stroke-linecap="square" x1="74.75" y1="-73.004" x2="77.5" y2="-66.254"/>
		
			<line fill="none" stroke="#1D1D1B" stroke-width="0.3" stroke-linecap="square" x1="46.5" y1="-72.504" x2="40.807" y2="-68.121"/>
		
			<line fill="none" stroke="#1D1D1B" stroke-width="0.3" stroke-linecap="square" x1="50.5" y1="-71.504" x2="43.796" y2="-65.462"/>
		<line fill="none" stroke="#1D1D1B" stroke-width="0.3" stroke-linecap="square" x1="27.75" y1="-71.754" x2="27.5" y2="-70.254"/>
		<line fill="none" stroke="#1D1D1B" stroke-width="0.3" stroke-linecap="square" x1="32.722" y1="-73.581" x2="37" y2="-67.754"/>
		
			<line fill="none" stroke="#1D1D1B" stroke-width="0.3" stroke-linecap="square" x1="35.55" y1="-76.409" x2="39.829" y2="-70.581"/>
		
			<line fill="none" stroke="#1D1D1B" stroke-width="0.3" stroke-linecap="square" x1="77.031" y1="-11.504" x2="77.531" y2="-10.254"/>
		
			<line fill="none" stroke="#1D1D1B" stroke-width="0.3" stroke-linecap="square" x1="57.25" y1="-73.504" x2="57.75" y2="-67.004"/>
		<line fill="none" stroke="#1D1D1B" stroke-width="0.3" stroke-linecap="square" x1="54.5" y1="-74.254" x2="53" y2="-67.504"/>
		<line fill="none" stroke="#1D1D1B" stroke-width="0.3" stroke-linecap="square" x1="64.25" y1="-57.254" x2="65" y2="-56.504"/>
		<line fill="none" stroke="#1D1D1B" stroke-width="0.3" stroke-linecap="square" x1="51.25" y1="-45.504" x2="52.5" y2="-45.254"/>
		<line fill="none" stroke="#1D1D1B" stroke-width="0.3" stroke-linecap="square" x1="82" y1="-20.004" x2="82.75" y2="-20.754"/>
		
			<line fill="none" stroke="#1D1D1B" stroke-width="0.3" stroke-linecap="square" x1="26.75" y1="-69.254" x2="23.348" y2="-64.924"/>
		<line fill="none" stroke="#1D1D1B" stroke-width="0.3" stroke-linecap="square" x1="80" y1="-32.754" x2="81.25" y2="-32.504"/>
		
			<line fill="none" stroke="#1D1D1B" stroke-width="0.3" stroke-linecap="square" x1="41.75" y1="-61.004" x2="42.75" y2="-60.254"/>
		<line fill="none" stroke="#1D1D1B" stroke-width="0.3" stroke-linecap="square" x1="54.75" y1="-66.504" x2="55" y2="-65.254"/>
		<line fill="none" stroke="#1D1D1B" stroke-width="0.3" stroke-linecap="square" x1="29.5" y1="-62.504" x2="30" y2="-64.004"/>
		<line fill="none" stroke="#1D1D1B" stroke-width="0.3" stroke-linecap="square" x1="23.25" y1="-6.254" x2="17.724" y2="-1.957"/>
		
			<line fill="none" stroke="#1D1D1B" stroke-width="0.3" stroke-linecap="square" x1="23.25" y1="-71.504" x2="17.724" y2="-67.207"/>
		<line fill="none" stroke="#1D1D1B" stroke-width="0.3" stroke-linecap="square" x1="8.5" y1="-64.129" x2="3.5" y2="-59.879"/>
		
			<line fill="none" stroke="#1D1D1B" stroke-width="0.75" stroke-linecap="round" x1="21.75" y1="-67.254" x2="21.75" y2="-67.254"/>
		
			<line fill="none" stroke="#1D1D1B" stroke-width="0.75" stroke-linecap="round" x1="24.75" y1="-64.004" x2="24.75" y2="-64.004"/>
		<line fill="none" stroke="#1D1D1B" stroke-width="0.75" stroke-linecap="round" x1="31.5" y1="-69.504" x2="31.5" y2="-69.504"/>
		
			<line fill="none" stroke="#1D1D1B" stroke-width="0.75" stroke-linecap="round" x1="41.75" y1="-62.504" x2="41.75" y2="-62.504"/>
		<line fill="none" stroke="#1D1D1B" stroke-width="0.75" stroke-linecap="round" x1="35.5" y1="-55.754" x2="35.5" y2="-55.754"/>
		<line fill="none" stroke="#1D1D1B" stroke-width="0.75" stroke-linecap="round" x1="33" y1="-46.004" x2="33" y2="-46.004"/>
		
			<line fill="none" stroke="#1D1D1B" stroke-width="0.75" stroke-linecap="round" x1="22.25" y1="-47.004" x2="22.25" y2="-47.004"/>
		<line fill="none" stroke="#1D1D1B" stroke-width="0.75" stroke-linecap="round" x1="39" y1="-35.004" x2="39" y2="-35.004"/>
		
			<line fill="none" stroke="#1D1D1B" stroke-width="0.75" stroke-linecap="round" x1="44.25" y1="-39.254" x2="44.25" y2="-39.254"/>
		<line fill="none" stroke="#1D1D1B" stroke-width="0.75" stroke-linecap="round" x1="52" y1="-47.754" x2="52" y2="-47.754"/>
		<line fill="none" stroke="#1D1D1B" stroke-width="0.75" stroke-linecap="round" x1="46.5" y1="-30.754" x2="46.5" y2="-30.754"/>
		
			<line fill="none" stroke="#1D1D1B" stroke-width="0.75" stroke-linecap="round" x1="51.25" y1="-28.004" x2="51.25" y2="-28.004"/>
		
			<line fill="none" stroke="#1D1D1B" stroke-width="0.75" stroke-linecap="round" x1="37.25" y1="-23.754" x2="37.25" y2="-23.754"/>
		<line fill="none" stroke="#1D1D1B" stroke-width="0.75" stroke-linecap="round" x1="60.5" y1="-46.254" x2="60.5" y2="-46.254"/>
		
			<line fill="none" stroke="#1D1D1B" stroke-width="0.75" stroke-linecap="round" x1="60.25" y1="-54.754" x2="60.25" y2="-54.754"/>
		
			<line fill="none" stroke="#1D1D1B" stroke-width="0.75" stroke-linecap="round" x1="76.75" y1="-63.504" x2="76.75" y2="-63.504"/>
		
			<line fill="none" stroke="#1D1D1B" stroke-width="0.75" stroke-linecap="round" x1="68.75" y1="-67.004" x2="68.75" y2="-67.004"/>
		<line fill="none" stroke="#1D1D1B" stroke-width="0.75" stroke-linecap="round" x1="79.5" y1="-43.754" x2="79.5" y2="-43.754"/>
		<line fill="none" stroke="#1D1D1B" stroke-width="0.75" stroke-linecap="round" x1="78" y1="-32.754" x2="78" y2="-32.754"/>
		<line fill="none" stroke="#1D1D1B" stroke-width="0.75" stroke-linecap="round" x1="72.5" y1="-26.004" x2="72.5" y2="-26.004"/>
		<line fill="none" stroke="#1D1D1B" stroke-width="0.75" stroke-linecap="round" x1="76" y1="-16.004" x2="76" y2="-16.004"/>
		<line fill="none" stroke="#1D1D1B" stroke-width="0.75" stroke-linecap="round" x1="68.5" y1="-11.254" x2="68.5" y2="-11.254"/>
		<line fill="none" stroke="#1D1D1B" stroke-width="0.75" stroke-linecap="round" x1="47" y1="-10.004" x2="47" y2="-10.004"/>
		<line fill="none" stroke="#1D1D1B" stroke-width="0.75" stroke-linecap="round" x1="58" y1="-7.504" x2="58" y2="-7.504"/>
		
			<line fill="none" stroke="#1D1D1B" stroke-width="0.75" stroke-linecap="round" x1="43.75" y1="-55.254" x2="43.75" y2="-55.254"/>
		<line fill="none" stroke="#1D1D1B" stroke-width="0.75" stroke-linecap="round" x1="29.25" y1="-8.254" x2="29.25" y2="-8.254"/>
		
			<line fill="none" stroke="#1D1D1B" stroke-width="0.75" stroke-linecap="round" x1="19.25" y1="-19.504" x2="19.25" y2="-19.504"/>
		
			<line fill="none" stroke="#1D1D1B" stroke-width="0.75" stroke-linecap="round" x1="22.25" y1="-26.754" x2="22.25" y2="-26.754"/>
		<line fill="none" stroke="#1D1D1B" stroke-width="0.75" stroke-linecap="round" x1="27.5" y1="-30.504" x2="27.5" y2="-30.504"/>
		
			<line fill="none" stroke="#1D1D1B" stroke-width="0.75" stroke-linecap="round" x1="28.25" y1="-26.754" x2="28.25" y2="-26.754"/>
		
			<line fill="none" stroke="#1D1D1B" stroke-width="0.75" stroke-linecap="round" x1="69.25" y1="-48.504" x2="69.25" y2="-48.504"/>
		<line fill="none" stroke="#1D1D1B" stroke-width="0.75" stroke-linecap="round" x1="66.5" y1="-38.754" x2="66.5" y2="-38.754"/>
		
			<line fill="none" stroke="#1D1D1B" stroke-width="0.75" stroke-linecap="round" x1="64.75" y1="-30.504" x2="64.75" y2="-30.504"/>
		
			<line fill="none" stroke="#1D1D1B" stroke-width="0.75" stroke-linecap="round" x1="46.25" y1="-46.254" x2="46.25" y2="-46.254"/>
		
			<line fill="none" stroke="#1D1D1B" stroke-width="0.75" stroke-linecap="round" x1="42.75" y1="-15.504" x2="42.75" y2="-15.504"/>
		<line fill="none" stroke="#1D1D1B" stroke-width="0.75" stroke-linecap="round" x1="42.75" y1="-7.504" x2="42.75" y2="-7.504"/>
		
			<line fill="none" stroke="#1D1D1B" stroke-width="0.75" stroke-linecap="round" x1="37.375" y1="-11.504" x2="37.375" y2="-11.504"/>
		
			<line fill="none" stroke="#1D1D1B" stroke-width="0.75" stroke-linecap="round" x1="45.125" y1="-34.004" x2="45.125" y2="-34.004"/>
		<line fill="none" stroke="#1D1D1B" stroke-width="0.75" stroke-linecap="round" x1="79.5" y1="-9.004" x2="79.5" y2="-9.004"/>
		<line fill="none" stroke="#1D1D1B" stroke-width="0.75" stroke-linecap="round" x1="23" y1="-15.004" x2="23" y2="-15.004"/>
		
			<line fill="none" stroke="#1D1D1B" stroke-width="0.75" stroke-linecap="round" x1="52.25" y1="-41.254" x2="52.25" y2="-41.254"/>
		
			<line fill="none" stroke="#1D1D1B" stroke-width="0.75" stroke-linecap="round" x1="51.75" y1="-56.254" x2="51.75" y2="-56.254"/>
		<line fill="none" stroke="#1D1D1B" stroke-width="0.75" stroke-linecap="round" x1="53" y1="-63.004" x2="53" y2="-63.004"/>
		
			<line fill="none" stroke="#1D1D1B" stroke-width="0.75" stroke-linecap="round" x1="68.25" y1="-15.254" x2="68.25" y2="-15.254"/>
		<line fill="none" stroke="#1D1D1B" stroke-width="0.75" stroke-linecap="round" x1="67.5" y1="-26.254" x2="67.5" y2="-26.254"/>
		
			<line fill="none" stroke="#1D1D1B" stroke-width="0.75" stroke-linecap="round" x1="81.25" y1="-23.754" x2="81.25" y2="-23.754"/>
		
			<line fill="none" stroke="#1D1D1B" stroke-width="0.75" stroke-linecap="round" x1="70.75" y1="-53.504" x2="70.75" y2="-53.504"/>
		<line fill="none" stroke="#1D1D1B" stroke-width="0.75" stroke-linecap="round" x1="71.5" y1="-51.754" x2="71.5" y2="-51.754"/>
		
			<line fill="none" stroke="#1D1D1B" stroke-width="0.75" stroke-linecap="round" x1="71.75" y1="-60.504" x2="71.75" y2="-60.504"/>
		<line fill="none" stroke="#1D1D1B" stroke-width="0.75" stroke-linecap="round" x1="58.5" y1="-51.254" x2="58.5" y2="-51.254"/>
		<line fill="none" stroke="#1D1D1B" stroke-width="0.75" stroke-linecap="round" x1="67.5" y1="-43.754" x2="67.5" y2="-43.754"/>
		<line fill="none" stroke="#1D1D1B" stroke-width="0.75" stroke-linecap="round" x1="78" y1="-47.004" x2="78" y2="-47.004"/>
		<line fill="none" stroke="#1D1D1B" stroke-width="0.75" stroke-linecap="round" x1="79.5" y1="-39.754" x2="79.5" y2="-39.754"/>
		<line fill="none" stroke="#1D1D1B" stroke-width="0.75" stroke-linecap="round" x1="19.5" y1="-54.754" x2="19.5" y2="-54.754"/>
		
			<line fill="none" stroke="#1D1D1B" stroke-width="0.75" stroke-linecap="round" x1="84.75" y1="-54.754" x2="84.75" y2="-54.754"/>
		<path fill="none" stroke="#1D1D1B" stroke-width="0.75" stroke-linecap="round" d="M8.5-60.629c0.208,0,0.375-0.167,0.375-0.375
			c0-0.207-0.167-0.375-0.375-0.375c-0.207,0-0.375,0.168-0.375,0.375C8.125-60.796,8.293-60.629,8.5-60.629z"/>
	</g>
</pattern>
<g>
	<path opacity="0.05" fill="#21191A" d="M208.443,126.379c-1.362-2.044-4.12-2.856-8.661-2.514
		c-0.077-32.164-21.339-59.521-53.243-68.303c-6.925-1.905-14.06-2.87-21.207-2.87c-24.959,0-48.597,12.12-61.949,31.698
		c-1.748-0.94-4.461-2.082-7.311-2.082c-2.572,0-7.194,0.995-9.252,7.659c-6.592,21.362-5.591,25.482-4.132,27.668
		c1.362,2.042,4.127,2.862,8.661,2.514c-0.997,16.189,3.437,32.483,12.544,46.012c9.887,14.69,24.75,25.373,41.852,30.082
		c6.455,1.778,13.095,2.679,19.73,2.679c26.769,0,51.403-14.389,64.538-37.622c1.282,0.557,3.159,1.17,5.258,1.17
		c2.042,0,7.018-0.706,9.035-7.239C211.703,131.262,209.251,127.589,208.443,126.379z M195.996,152.996
		c-0.226,0.283-0.651,0.762-1.001,0.762c-0.133,0-0.435-0.049-0.957-0.37c-0.08-0.052-0.16-0.101-0.241-0.146
		c1.516-3.647,2.597-6.626,3.216-8.868c0.739-2.693,1.696-7.876,2.323-12.576c0.229-0.041,0.446-0.074,0.639-0.091
		C200.232,134.928,199.352,148.697,195.996,152.996z M60.008,90.569c-2.584,4.938-4.634,10.138-6.105,15.47
		c-0.478,1.752-0.912,3.595-1.314,5.617c-1.375,0.114-2.621,0.13-3.368,0.08c1.901-8.935,6.169-20.888,8.022-22.429
		C58.167,89.665,59.091,90.087,60.008,90.569z"/>
	<path fill="#FFFFFF" d="M207.346,124.765c-1.362-2.043-4.123-2.854-8.665-2.512c-0.072-32.166-21.338-59.523-53.239-68.303
		c-6.929-1.907-14.063-2.872-21.21-2.872c-24.959,0-48.592,12.12-61.944,31.7c-1.752-0.94-4.465-2.084-7.311-2.084
		c-2.576,0-7.198,0.995-9.252,7.661c-6.595,21.36-5.59,25.482-4.136,27.668c1.363,2.04,4.132,2.86,8.662,2.512
		c-0.993,16.191,3.44,32.483,12.544,46.015c9.892,14.689,24.75,25.373,41.853,30.079c6.455,1.777,13.095,2.678,19.734,2.678
		c26.77,0,51.403-14.388,64.538-37.62c1.278,0.559,3.155,1.171,5.253,1.171c2.046,0,7.021-0.705,9.035-7.24
		C210.605,129.65,208.154,125.975,207.346,124.765z M194.895,151.382c-0.221,0.286-0.647,0.76-0.997,0.76
		c-0.133,0-0.438-0.046-0.956-0.369c-0.081-0.049-0.165-0.099-0.245-0.145c1.519-3.646,2.596-6.626,3.215-8.871
		c0.744-2.69,1.696-7.873,2.323-12.572c0.229-0.042,0.45-0.074,0.644-0.092C199.135,133.315,198.255,147.086,194.895,151.382z
		 M58.911,88.956c-2.588,4.938-4.638,10.138-6.105,15.47c-0.482,1.752-0.917,3.598-1.314,5.617c-1.375,0.117-2.625,0.13-3.373,0.083
		c1.901-8.935,6.174-20.89,8.026-22.432C57.065,88.051,57.994,88.473,58.911,88.956z"/>
	<path fill="#21191A" d="M204.782,126.266c-1.263-1.891-6.062-1.457-9.181-0.948c1.282-31.691-18.737-59.826-51.192-68.759
		c-31.701-8.724-65.246,3.625-81.648,29.965l-0.611-0.486c0,0-10.832-7.653-14.156,3.115c-3.324,10.766-6.375,22.508-4.465,25.37
		c1.29,1.935,6.282,1.439,9.385,0.914c-3.709,34.266,17.83,67.142,52.134,76.584c33.167,9.128,67.303-6.668,82.492-36.052
		c2.521,1.961,10.285,4.907,12.77-3.149C203.632,142.052,206.691,129.13,204.782,126.266z M44.823,111.252
		c0.51-2.777,6.479-28.094,11.499-26.266c2.399,0.876,4.425,2.01,5.904,2.958C59.212,93.26,56.792,99,55.1,105.147
		c-0.675,2.45-1.198,4.91-1.636,7.369C50.84,112.856,44.413,113.471,44.823,111.252z M191.205,154.075
		c-0.776-0.479-1.64-0.695-2.344-1.079c1.339-3.083,3.212-7.623,4.128-10.959c0.824-2.988,1.934-9.318,2.492-14.146
		c2.134-0.323,4.751-1.37,5.606,0.917C201.872,130.927,200.634,159.911,191.205,154.075z"/>
	<path fill="#FABA13" d="M67.91,120.205c2.07,21.239,13.207,39.638,28.492,54.135c7.102,6.736,14.843,12.766,22.99,18.186
		c31.942,2.031,62.018-18.488,70.844-50.566c10.108-36.74-10.129-72.35-46.868-82.46c-22.457-6.182-45.869-1.393-62.999,11.646
		C71.599,86.001,66.209,102.739,67.91,120.205z"/>
	<path fill="#EDA02D" d="M190.236,141.565c-10.112,36.742-48.095,58.329-84.835,48.217c-36.744-10.112-58.331-48.095-48.223-84.836
		c10.112-36.742,49.445-55.956,86.19-45.843C180.107,69.215,200.345,104.823,190.236,141.565z"/>
	<pattern  id="SVGID_1_" xlink:href="#Patas_de_p√°jaro" patternTransform="matrix(0.6709 0 0 0.6709 -2566.1255 -2688.1445)">
	</pattern>
	<path fill="url(#SVGID_1_)" d="M190.911,141.903c-10.112,36.741-48.098,58.329-84.839,48.217
		c-36.74-10.112-58.327-48.095-48.219-84.836c10.112-36.742,49.445-55.956,86.189-45.844
		C180.783,69.553,201.02,105.161,190.911,141.903z"/>
	<path fill="#E7462B" d="M136.013,87.153c0.201-0.398-8.473,13.143-3.577,18.583c4.896,5.438,0.925-1.025,0.925-1.025
		S130.301,98.626,136.013,87.153z"/>
	<path fill="#E7462B" d="M89.248,145.086c0,0,13.69-3.201,16.142,0.589c0,0,0.989-0.084,0.418-1.342
		c-0.567-1.255-11.009-2.623-17.026-0.005C82.765,146.945,89.248,145.086,89.248,145.086z"/>
	<path fill="#E7462B" d="M164.947,167.881c0,0-3.799-16.395-12.576-18.424c0,0-0.889,0.906-0.121,1.375
		C153.018,151.298,156.33,149.013,164.947,167.881z"/>
	<path fill="#E7462B" d="M86.293,167.881c0,0-3.802-16.395-12.576-18.424c0,0-0.888,0.906-0.125,1.375
		C74.36,151.298,77.676,149.013,86.293,167.881z"/>
	<path fill="#E7462B" d="M97.117,95.72c0,0-3.802-16.393-12.576-18.424c0,0-0.888,0.909-0.125,1.375
		C85.188,79.134,88.5,76.852,97.117,95.72z"/>
	<path fill="#39AE72" d="M109.75,88.011c-0.197,0.722,0.225,1.467,0.948,1.666c0.724,0.199,1.471-0.225,1.668-0.948
		c0.197-0.722-0.161-1.707-0.88-1.903C110.763,86.625,109.951,87.288,109.75,88.011z"/>
	<path opacity="0.1" fill="#5E5E5E" d="M110.879,87.695c-0.104,0.37,0.116,0.752,0.482,0.852c0.37,0.103,0.752-0.114,0.856-0.484
		c0.101-0.368-0.084-0.872-0.454-0.973C111.398,86.988,110.98,87.328,110.879,87.695z"/>
	<path fill="#39AE72" d="M111.048,67.898c-0.197,0.724,0.229,1.469,0.949,1.668c0.724,0.199,1.471-0.225,1.668-0.948
		c0.201-0.722-0.161-1.706-0.88-1.905C112.061,66.514,111.249,67.177,111.048,67.898z"/>
	<path opacity="0.1" fill="#5E5E5E" d="M112.178,67.587c-0.105,0.368,0.112,0.75,0.482,0.85c0.37,0.103,0.752-0.114,0.856-0.482
		c0.1-0.372-0.084-0.875-0.455-0.975C112.696,66.878,112.278,67.215,112.178,67.587z"/>
	<path fill="#39AE72" d="M124.022,85.74c-0.197,0.721,0.229,1.467,0.953,1.666c0.72,0.199,1.464-0.225,1.665-0.947
		c0.197-0.724-0.156-1.708-0.881-1.905C125.035,84.354,124.223,85.017,124.022,85.74z"/>
	<path opacity="0.1" fill="#5E5E5E" d="M125.151,85.425c-0.1,0.37,0.117,0.751,0.482,0.854c0.37,0.1,0.753-0.117,0.857-0.486
		c0.101-0.368-0.085-0.873-0.454-0.973C125.666,84.717,125.252,85.057,125.151,85.425z"/>
	<path fill="#39AE72" d="M182.085,110.716c-0.201,0.721,0.226,1.467,0.948,1.666c0.72,0.199,1.468-0.228,1.664-0.947
		c0.197-0.724-0.156-1.708-0.88-1.907C183.094,109.329,182.282,109.992,182.085,110.716z"/>
	<path opacity="0.1" fill="#5E5E5E" d="M183.211,110.4c-0.101,0.37,0.116,0.752,0.481,0.852c0.37,0.103,0.752-0.114,0.856-0.484
		c0.101-0.368-0.084-0.873-0.454-0.975C183.729,109.693,183.311,110.032,183.211,110.4z"/>
	<path fill="#39AE72" d="M173.327,86.387c-0.201,0.724,0.226,1.469,0.948,1.668c0.72,0.199,1.468-0.225,1.668-0.947
		c0.197-0.723-0.16-1.71-0.884-1.905C174.336,85.002,173.524,85.666,173.327,86.387z"/>
	<path opacity="0.1" fill="#5E5E5E" d="M174.452,86.074c-0.1,0.37,0.117,0.751,0.486,0.852c0.37,0.103,0.748-0.115,0.853-0.484
		c0.104-0.368-0.08-0.872-0.45-0.975C174.971,85.366,174.557,85.704,174.452,86.074z"/>
	<path fill="#39AE72" d="M164.71,154.256c-0.201,0.722,0.225,1.467,0.948,1.668c0.72,0.197,1.468-0.227,1.664-0.948
		c0.197-0.724-0.156-1.708-0.88-1.905C165.719,152.871,164.907,153.532,164.71,154.256z"/>
	<path opacity="0.1" fill="#5E5E5E" d="M165.835,153.942c-0.104,0.368,0.113,0.752,0.482,0.853c0.37,0.103,0.752-0.117,0.856-0.486
		c0.101-0.368-0.084-0.872-0.454-0.973S165.936,153.573,165.835,153.942z"/>
	<path fill="#39AE72" d="M110.389,173.528c-0.197,0.724,0.225,1.469,0.949,1.67c0.724,0.199,1.467-0.227,1.668-0.95
		c0.197-0.72-0.161-1.704-0.88-1.905C111.402,172.146,110.59,172.807,110.389,173.528z"/>
	<path opacity="0.1" fill="#5E5E5E" d="M111.514,173.217c-0.096,0.368,0.121,0.75,0.486,0.853c0.37,0.103,0.752-0.115,0.856-0.484
		c0.1-0.37-0.084-0.872-0.455-0.975C112.033,172.508,111.619,172.847,111.514,173.217z"/>
	<path fill="#39AE72" d="M76.479,119.538c-0.293,1.075,0.338,2.188,1.415,2.484c1.073,0.295,2.187-0.338,2.479-1.411
		c0.298-1.077-0.237-2.544-1.314-2.839C77.982,117.474,76.776,118.461,76.479,119.538z"/>
	<path opacity="0.1" fill="#5E5E5E" d="M78.159,119.072c-0.153,0.55,0.173,1.117,0.719,1.268c0.551,0.15,1.118-0.169,1.27-0.722
		c0.153-0.548-0.121-1.3-0.671-1.451C78.93,118.017,78.307,118.521,78.159,119.072z"/>
	<path fill="#39AE72" d="M139.269,149.638c-0.197,0.722,0.225,1.468,0.948,1.666c0.724,0.199,1.467-0.225,1.668-0.946
		c0.197-0.724-0.161-1.708-0.88-1.905C140.281,148.251,139.469,148.914,139.269,149.638z"/>
	<path opacity="0.1" fill="#5E5E5E" d="M140.394,149.322c-0.097,0.372,0.116,0.754,0.486,0.854s0.752-0.117,0.856-0.486
		c0.101-0.368-0.085-0.872-0.454-0.973C140.912,148.617,140.498,148.955,140.394,149.322z"/>
	<path fill="#39AE72" d="M129.461,180.289c-0.196,0.723,0.229,1.467,0.953,1.668c0.719,0.196,1.463-0.228,1.664-0.949
		c0.196-0.723-0.157-1.708-0.881-1.905C130.474,178.904,129.658,179.565,129.461,180.289z"/>
	<path opacity="0.1" fill="#5E5E5E" d="M130.591,179.976c-0.104,0.369,0.112,0.751,0.482,0.852c0.369,0.101,0.751-0.116,0.852-0.484
		c0.104-0.369-0.08-0.872-0.45-0.975C131.105,179.268,130.691,179.605,130.591,179.976z"/>
	<path fill="#39AE72" d="M116.562,105.199c-0.197,0.724,0.229,1.469,0.953,1.67c0.719,0.197,1.463-0.227,1.664-0.948
		c0.197-0.724-0.157-1.708-0.88-1.907C117.575,103.816,116.759,104.478,116.562,105.199z"/>
	<path opacity="0.1" fill="#5E5E5E" d="M117.688,104.888c-0.101,0.368,0.116,0.75,0.486,0.852c0.37,0.101,0.751-0.117,0.852-0.484
		c0.104-0.37-0.081-0.874-0.45-0.975C118.207,104.178,117.792,104.518,117.688,104.888z"/>
	<path fill="#39AE72" d="M116.888,141.529c-0.197,0.722,0.225,1.467,0.948,1.666c0.72,0.201,1.467-0.226,1.668-0.949
		c0.197-0.719-0.161-1.704-0.884-1.904C117.897,140.145,117.089,140.806,116.888,141.529z"/>
	<path opacity="0.1" fill="#5E5E5E" d="M118.014,141.214c-0.101,0.369,0.116,0.753,0.486,0.854c0.37,0.103,0.748-0.116,0.852-0.484
		c0.104-0.369-0.081-0.872-0.45-0.973C118.532,140.506,118.118,140.846,118.014,141.214z"/>
	<path fill="#39AE72" d="M95.481,68.548c-0.201,0.721,0.225,1.467,0.949,1.666c0.723,0.201,1.467-0.223,1.668-0.947
		c0.197-0.721-0.161-1.706-0.884-1.905C96.495,67.163,95.679,67.824,95.481,68.548z"/>
	<path opacity="0.1" fill="#5E5E5E" d="M96.611,68.234c-0.104,0.37,0.113,0.751,0.479,0.854c0.37,0.101,0.755-0.117,0.856-0.486
		c0.101-0.368-0.084-0.872-0.45-0.973C97.125,67.527,96.708,67.864,96.611,68.234z"/>
	<path fill="#39AE72" d="M170.144,159.111c-0.2,0.724,0.226,1.469,0.949,1.668s1.467-0.225,1.664-0.946
		c0.2-0.724-0.157-1.706-0.881-1.907C171.152,157.729,170.345,158.392,170.144,159.111z"/>
	<path opacity="0.1" fill="#5E5E5E" d="M171.27,158.798c-0.101,0.37,0.116,0.752,0.486,0.854c0.369,0.102,0.751-0.115,0.852-0.484
		c0.101-0.37-0.084-0.875-0.45-0.978C171.788,158.091,171.37,158.43,171.27,158.798z"/>
	<path fill="#39AE72" d="M100.112,162.664c-0.201,0.724,0.225,1.467,0.944,1.668c0.724,0.197,1.471-0.225,1.668-0.948
		c0.197-0.724-0.161-1.708-0.884-1.905C101.121,161.279,100.309,161.942,100.112,162.664z"/>
	<path opacity="0.1" fill="#5E5E5E" d="M101.237,162.351c-0.104,0.37,0.116,0.752,0.482,0.853c0.37,0.101,0.752-0.117,0.856-0.484
		c0.1-0.37-0.084-0.874-0.455-0.975C101.755,161.644,101.337,161.981,101.237,162.351z"/>
	<path fill="#39AE72" d="M69.605,90.199c-0.201,0.724,0.225,1.469,0.949,1.668c0.724,0.197,1.467-0.225,1.668-0.948
		c0.197-0.724-0.161-1.706-0.884-1.903C70.615,88.815,69.803,89.478,69.605,90.199z"/>
	<path opacity="0.1" fill="#5E5E5E" d="M70.731,89.886c-0.101,0.37,0.113,0.752,0.482,0.852c0.37,0.104,0.755-0.114,0.852-0.484
		c0.104-0.368-0.081-0.873-0.45-0.975C71.246,89.177,70.832,89.516,70.731,89.886z"/>
	<path fill="#39AE72" d="M69.883,99.122c-0.293,1.075,0.338,2.187,1.415,2.482c1.073,0.295,2.187-0.333,2.484-1.411
		c0.293-1.075-0.237-2.542-1.318-2.838C71.39,97.058,70.181,98.045,69.883,99.122z"/>
	<path opacity="0.1" fill="#5E5E5E" d="M71.563,98.654c-0.153,0.551,0.173,1.12,0.72,1.272c0.55,0.151,1.117-0.173,1.274-0.723
		c0.148-0.549-0.125-1.298-0.675-1.451S71.712,98.105,71.563,98.654z"/>
	<path fill="#39AE72" d="M175.185,92.018c-0.201,0.724,0.221,1.469,0.948,1.668c0.72,0.199,1.463-0.225,1.664-0.949
		c0.196-0.721-0.161-1.706-0.881-1.905C176.193,90.633,175.381,91.294,175.185,92.018z"/>
	<path opacity="0.1" fill="#5E5E5E" d="M176.31,91.705c-0.104,0.368,0.112,0.751,0.482,0.854c0.369,0.101,0.756-0.116,0.852-0.486
		c0.104-0.368-0.08-0.872-0.45-0.975C176.824,90.997,176.41,91.335,176.31,91.705z"/>
	<path fill="#F18F82" d="M142.311,74.108"/>
	<g>
		
			<path fill="#F18F82" stroke="#21191A" stroke-width="2.1648" stroke-linecap="round" stroke-linejoin="round" stroke-miterlimit="10" d="
			M168.733,96.242c-4.265-3.372-12.46-6.083-19.518-6.616c6.475-0.379,12.958-0.625,19.65-0.693c0.048,0.1,0.145-1.58,0.068-1.467
			c-7.384-2.641-26.303-5.042-32.202-0.139c0.08-13.78-41.303-9.837-49.924-6.356c-19.968,8.051-29.791,34.162-18.698,53.068
			c5.527,9.413,16.792,12.91,27.259,11.294c9.256-1.427,25.651-12.126,25.626-23.179c-4.067,0.315-6.35,5.277-7.375,9.05
			c-0.539-6.968-1.729-15.565-11.572-12.03c-0.016,7.009,12.979,10.417,5.378,18.172c-0.535-6.249-7.07-5.536-10.912-2.736
			c1.7-7.986-8.228-9.15-13.987-8.688c2.191-5.175-1.274-11.771-7.166-11.716c6.905-5.673,13.938-7.838,15.036-17.95
			c7.383,1.967,28.942,10.918,31.306-1.833c4.494,2.07,9.771,3.8,14.988,4.104c0.877-0.004,2.995-2.84,2.223-4.438
			C149.047,96.132,158.372,98.326,168.733,96.242z"/>
		
			<path fill="#F18F82" stroke="#21191A" stroke-width="2.1648" stroke-linecap="round" stroke-linejoin="round" stroke-miterlimit="10" d="
			M90.321,94.309c1.636-2.361-0.499-8.482-3.239-9.473c-1.166-0.42-2.725-0.527-2.83,0.693"/>
		
			<path fill="#F18F82" stroke="#21191A" stroke-width="2.1648" stroke-linecap="round" stroke-linejoin="round" stroke-miterlimit="10" d="
			M68.271,106.367c-0.157,0.392-0.153,0.856-0.322,1.258c0.49-2.548,4.574-2.11,6.057-0.711c1.286,1.206,1.668,4.029,1.612,5.751"/>
		
			<path fill="#F18F82" stroke="#21191A" stroke-width="2.1648" stroke-linecap="round" stroke-linejoin="round" stroke-miterlimit="10" d="
			M82.154,127.392c-4.964-1.178-11.427,11.237-6.628,14.119"/>
		
			<path fill="#F18F82" stroke="#21191A" stroke-width="2.1648" stroke-linecap="round" stroke-linejoin="round" stroke-miterlimit="10" d="
			M97.238,134.815c-3.722,0.928-5.775,10.422-0.764,9.485"/>
		
			<path opacity="0.4" fill="none" stroke="#8D615B" stroke-width="1.4217" stroke-linecap="round" stroke-linejoin="round" stroke-miterlimit="10" d="
			M141.117,88.769c3.106-0.864,20.474-2.665,20.354-0.06"/>
		
			<path opacity="0.4" fill="none" stroke="#8D615B" stroke-width="1.4217" stroke-linecap="round" stroke-linejoin="round" stroke-miterlimit="10" d="
			M143.842,92.864c3.927,0.189,18.879,7.621,20.9,3.131"/>
		
			<path fill="#F18F82" stroke="#21191A" stroke-width="2.1648" stroke-linecap="round" stroke-linejoin="round" stroke-miterlimit="10" d="
			M111.675,80.62c3.163,3.386,4.57,7.271,3.123,11.983c-0.579,1.809-2.934,7.574-5.663,6.537"/>
		
			<path fill="#F18F82" stroke="#21191A" stroke-width="2.1648" stroke-linecap="round" stroke-linejoin="round" stroke-miterlimit="10" d="
			M127.942,93.718c1.507,0.83,3.384,1.153,4.69-0.064"/>
	</g>
	<path fill="#21191A" d="M140.735,84.138c0,0-4.808-0.993-8.444-0.239c0,0-0.013,0.175-0.024,0.456
		c-0.57-0.008-1.157-0.034-1.676-0.076c-0.013-0.374-0.032-0.613-0.032-0.613s-4.816-0.989-8.445-0.239c0,0-0.764,8.38,4.213,8.157
		c2.998-0.135,3.919-2.984,4.176-5.227c0.579,0.09,1.214,0.187,1.825,0.271c0.225,2.421,1.105,5.564,4.184,5.426
		C141.482,91.831,140.735,84.138,140.735,84.138z"/>
	<g>
		<path opacity="0.4" fill="#F3B1AB" d="M103.307,81.363c-0.209-5.464,4.907-2.968,6.346-0.034c1.282,2.612,1.909,6.949,0.824,9.749
			c-0.756,1.949-3.063,8.422-5.82,8.448c-3.638,0.034-2.086-5.014-1.584-6.989C104.159,88.286,103.468,85.571,103.307,81.363z"/>
		<path opacity="0.4" fill="#F3B1AB" d="M79.642,88.051c-3.066,2.045-0.434,4.111,1.282,5.991c2.179,2.389,1.941,3.695,3.042,6.503
			c0.933,2.381,2.215,2.494,3.513,0.332C89.951,96.745,86.072,83.754,79.642,88.051z"/>
		<path opacity="0.4" fill="#F3B1AB" d="M66.374,126.97c1.986,3.219,3.509,1.581,5.567,0.099c2.227-1.596,1.873-1.257,4.783-1.542
			c6.439-0.637,1.52-6.682-2.291-7.365C69.698,117.311,63.083,121.632,66.374,126.97z"/>
		<path opacity="0.4" fill="#F3B1AB" d="M78.468,134.214c1.254-2.54,6.189-5.635,9.156-5.023c3.147,0.643,2.367,3.534-0.253,4.788
			c-3.179,1.525-3.155,1.882-3.818,4.994c-0.418,1.96-0.394,4.544-3.38,3.736C76.828,141.801,77.347,136.509,78.468,134.214z"/>
	</g>
	
		<path fill="#F18F82" stroke="#21191A" stroke-width="2.1648" stroke-linecap="round" stroke-linejoin="round" stroke-miterlimit="10" d="
		M156.64,69.753c-2.355-3.657-7.665-4.68-9.658-4.096c-4.896,1.431-5.944,3.4-6.295,4.679c-0.481,0.53-0.711,0.944-0.506,1.087
		c0.04,0.03,0.133,0.073,0.253,0.121c-0.201,0.223-0.321,0.37-0.321,0.37s17.318,4.972,17.918,5.052c0,0,0.016-0.072,0.036-0.19
		c0.032,0.01,0.064,0.018,0.092,0.028C158.158,76.803,158.999,73.411,156.64,69.753z"/>
	<g>
		<path fill="#FFCF09" d="M156.981,75.766c0,0,0.707-2.87-1.291-5.964c-1.993-3.095-6.482-3.961-8.171-3.464
			c-5.551,1.622-5.253,4.063-5.53,4.817C141.712,71.912,151.097,74.004,156.981,75.766z"/>
		<path fill="#F7F3DD" d="M156.868,75.905c0,0,0.647-2.494-1.351-5.586c-1.989-3.095-6.431-3.746-8.171-3.467
			s-6.237,3.905-5.578,4.363C142.25,71.552,148.722,73.465,156.868,75.905z"/>
		<path fill="#FBDC5B" d="M141.712,71.628c0,0,14.65,4.208,15.156,4.276c0,0-0.092-6.244-5.373-8.075
			C146.222,65.998,141.712,71.628,141.712,71.628z"/>
		<path fill="#F7F3DD" d="M147.154,71.735c0.177,0.418,0.494,0.669,0.852,0.927c0.836,0.603,0.209-0.902,0.085-1.246
			c-0.104-0.297-0.358-0.623-0.72-0.583C146.889,70.885,147.025,71.426,147.154,71.735z"/>
		<path fill="#F7F3DD" d="M149.505,70.909c-0.145,0.386-0.096,0.755-0.023,1.149c0.177,0.928,0.715-0.464,0.848-0.77
			c0.12-0.264,0.152-0.641-0.108-0.842C149.863,70.176,149.613,70.62,149.505,70.909z"/>
		<path fill="#F7F3DD" d="M151.977,72.782c-0.449-0.006-0.812,0.183-1.186,0.406c-0.888,0.533,0.744,0.559,1.105,0.581
			c0.317,0.022,0.716-0.084,0.824-0.43C152.865,72.875,152.311,72.784,151.977,72.782z"/>
	</g>
	
		<path fill="#F18F82" stroke="#21191A" stroke-width="2.1648" stroke-linecap="round" stroke-linejoin="round" stroke-miterlimit="10" d="
		M131.125,180.984c4.14,1.344,8.898-1.216,10.076-2.935c2.886-4.2,2.452-6.387,1.917-7.604c0.036-0.711-0.044-1.178-0.293-1.157
		c-0.052,0.004-0.148,0.028-0.273,0.064c0.017-0.302,0.017-0.486,0.017-0.486s-16.564,7.09-17.079,7.405
		c0,0,0.028,0.066,0.093,0.171c-0.032,0.014-0.064,0.028-0.093,0.038C125.489,176.48,126.985,179.64,131.125,180.984z"/>
	<g>
		<path fill="#FFCF09" d="M127.062,176.539c0,0,1.263,2.673,4.767,3.81c3.501,1.138,7.528-1.028,8.521-2.481
			c3.275-4.763,1.503-6.469,1.246-7.229C141.33,169.877,132.732,174.184,127.062,176.539z"/>
		<path fill="#F7F3DD" d="M127.062,176.362c0,0,1.073,2.339,4.574,3.477c3.501,1.139,7.355-1.164,8.524-2.48
			c1.174-1.314,2.363-6.969,1.567-6.909C141.142,170.496,134.911,173.103,127.062,176.362z"/>
		<path fill="#FBDC5B" d="M141.511,170.094c0,0-14.019,6.001-14.449,6.269c0,0,4.016,4.778,9.265,2.861
			C141.571,177.311,141.511,170.094,141.511,170.094z"/>
		<path fill="#F7F3DD" d="M137.223,173.454c-0.398-0.215-0.804-0.207-1.246-0.183c-1.029,0.063,0.406,0.836,0.724,1.021
			c0.269,0.165,0.671,0.253,0.924-0.004C137.97,173.942,137.52,173.608,137.223,173.454z"/>
		<path fill="#F7F3DD" d="M135.924,175.578c-0.132-0.39-0.401-0.643-0.711-0.904c-0.724-0.609-0.258,0.812-0.169,1.134
			c0.076,0.277,0.285,0.591,0.619,0.582C136.109,176.374,136.024,175.871,135.924,175.578z"/>
		<path fill="#F7F3DD" d="M132.821,175.69c0.357-0.281,0.515-0.655,0.667-1.064c0.35-0.973-0.933,0.036-1.226,0.249
			c-0.262,0.181-0.503,0.515-0.366,0.854C132.082,176.177,132.564,175.901,132.821,175.69z"/>
	</g>
	
		<path fill="none" stroke="#21191A" stroke-width="2.1648" stroke-linecap="round" stroke-linejoin="round" stroke-miterlimit="10" d="
		M139.634,90.983c10.378-1.415,10.611,12.787,11.801,19.22"/>
	
		<path fill="none" stroke="#21191A" stroke-width="2.1648" stroke-linecap="round" stroke-linejoin="round" stroke-miterlimit="10" d="
		M143.34,86.598c3.686-2.124,14.493-0.024,12.817-6.742"/>
	<g>
		<g>
			<g>
				<path fill="#21191A" d="M85.581,174.907c1.49,2.168,3.455,3.838,5.812,5.001c0.542,0.268,1.424,0.088,1.533-0.624
					c0.384-2.496,0.278-4.992,0.279-7.508c0-1.347-2.087-1.347-2.088,0c0,2.315,0.15,4.654-0.204,6.953
					c0.511-0.208,1.022-0.416,1.533-0.624c-2.03-1.001-3.775-2.376-5.063-4.251C86.626,172.752,84.816,173.795,85.581,174.907
					L85.581,174.907z"/>
			</g>
		</g>
		<g>
			<g>
				<path fill="#21191A" d="M99.957,176.804c0.573-2.729,0.326-5.736,1.796-8.199c-0.546,0.071-1.093,0.142-1.64,0.212
					c1.471,1.768,2.933,3.56,4.614,5.135c0.981,0.919,2.461-0.555,1.477-1.477c-1.682-1.574-3.144-3.366-4.614-5.135
					c-0.44-0.528-1.319-0.326-1.64,0.212c-1.592,2.668-1.387,5.752-2.006,8.697C97.668,177.562,99.68,178.121,99.957,176.804
					L99.957,176.804z"/>
			</g>
		</g>
		<g>
			<g>
				<path fill="#21191A" d="M109.117,164.71c0.678,2.916,2.085,5.595,3.498,8.211c0.259,0.48,0.966,0.682,1.428,0.375
					c1.41-0.936,2.952-1.625,4.485-2.331c1.222-0.562,0.16-2.361-1.054-1.803c-1.533,0.706-3.075,1.396-4.485,2.331
					c0.476,0.125,0.952,0.25,1.428,0.375c-1.332-2.468-2.648-4.965-3.288-7.713C110.825,162.844,108.812,163.4,109.117,164.71
					L109.117,164.71z"/>
			</g>
		</g>
		<g>
			<g>
				<path fill="#21191A" d="M123.407,157.434c-1.934,0.807-4.104,1.936-3.977,4.344c0.12,2.266,1.944,4.362,2.613,6.488
					c0.153,0.488,0.745,0.956,1.284,0.729c1.73-0.729,3.331-1.653,4.941-2.612c1.156-0.688,0.106-2.493-1.053-1.803
					c-1.448,0.861-2.887,1.747-4.443,2.401c0.428,0.243,0.856,0.486,1.284,0.729c-0.508-1.617-1.306-3.084-2.052-4.598
					c-0.997-2.022,0.029-2.862,1.958-3.666C125.186,158.937,124.649,156.916,123.407,157.434L123.407,157.434z"/>
			</g>
		</g>
		<g>
			<g>
				<path fill="#21191A" d="M134.522,161.883c-0.932-1.789-1.637-3.674-2.439-5.521c-0.393,0.511-0.786,1.021-1.179,1.533
					c2.999,1.041,6.145,1.367,9.288,1.659c0.54,0.05,1.08-0.514,1.044-1.044c-0.159-2.312-1.19-4.273-2.373-6.224
					c-0.697-1.149-2.503-0.102-1.803,1.053c0.974,1.605,1.957,3.255,2.088,5.171c0.348-0.348,0.696-0.696,1.044-1.044
					c-2.965-0.275-5.906-0.603-8.733-1.585c-0.965-0.335-1.506,0.781-1.179,1.533c0.804,1.849,1.508,3.73,2.439,5.521
					C133.342,164.131,135.144,163.075,134.522,161.883L134.522,161.883z"/>
			</g>
		</g>
		<g>
			<g>
				<path fill="#21191A" d="M135.402,144.232c-0.933-1.789-1.639-3.673-2.439-5.521c-0.393,0.511-0.786,1.021-1.179,1.533
					c2.997,1.043,6.143,1.361,9.284,1.659c0.541,0.051,1.079-0.515,1.044-1.044c-0.154-2.313-1.188-4.274-2.373-6.224
					c-0.698-1.148-2.504-0.101-1.803,1.053c0.977,1.605,1.96,3.253,2.088,5.171c0.348-0.348,0.696-0.696,1.044-1.044
					c-2.963-0.28-5.904-0.601-8.729-1.585c-0.966-0.336-1.505,0.781-1.179,1.533c0.802,1.85,1.506,3.731,2.439,5.521
					C134.223,146.479,136.023,145.424,135.402,144.232L135.402,144.232z"/>
			</g>
		</g>
		<g>
			<g>
				<path fill="#21191A" d="M172.074,138.537c-0.93-1.791-1.636-3.676-2.439-5.522c-0.393,0.511-0.786,1.021-1.179,1.533
					c2.997,1.041,6.142,1.365,9.284,1.659c0.54,0.051,1.08-0.514,1.044-1.044c-0.159-2.312-1.187-4.273-2.369-6.224
					c-0.697-1.149-2.503-0.102-1.803,1.053c0.974,1.605,1.952,3.255,2.084,5.171c0.348-0.348,0.696-0.696,1.044-1.044
					c-2.964-0.277-5.903-0.604-8.729-1.585c-0.965-0.335-1.506,0.781-1.179,1.533c0.805,1.849,1.51,3.731,2.439,5.522
					C170.892,140.785,172.693,139.729,172.074,138.537L172.074,138.537z"/>
			</g>
		</g>
		<g>
			<g>
				<path fill="#21191A" d="M146.189,145.778c-2.613,1.49-3.722,4.288-2.51,7.083c1.186,2.732,4.45,3.149,6.669,1.477
					c1.062-0.8,0.022-2.613-1.053-1.803c-1.352,1.019-2.807,1.045-3.709-0.519c-1-1.735,0.112-3.556,1.655-4.436
					C148.411,146.914,147.36,145.11,146.189,145.778L146.189,145.778z"/>
			</g>
		</g>
		<g>
			<g>
				<path fill="#21191A" d="M89.682,156.603c-2.612,1.49-3.721,4.289-2.509,7.084c1.185,2.733,4.449,3.152,6.669,1.48
					c1.062-0.799,0.023-2.613-1.054-1.803c-1.353,1.019-2.807,1.041-3.708-0.522c-1-1.735,0.111-3.556,1.655-4.437
					C91.904,157.738,90.853,155.935,89.682,156.603L89.682,156.603z"/>
			</g>
		</g>
		<g>
			<g>
				<path fill="#21191A" d="M151.928,144.047c1.03,2.316,2.382,4.466,3.702,6.622c0.701,1.146,2.508,0.099,1.803-1.053
					c-1.321-2.157-2.673-4.307-3.702-6.622C153.185,141.766,151.386,142.829,151.928,144.047L151.928,144.047z"/>
			</g>
		</g>
		<g>
			<g>
				<path fill="#21191A" d="M141.43,132.379c1.033,2.314,2.381,4.466,3.705,6.62c0.703,1.145,2.51,0.097,1.803-1.053
					c-1.324-2.155-2.673-4.307-3.705-6.62C142.685,130.099,140.886,131.161,141.43,132.379L141.43,132.379z"/>
			</g>
		</g>
		<g>
			<g>
				<path fill="#21191A" d="M161.968,146.837c0.164-2.788-0.73-5.786,0.444-8.437c-0.547,0.071-1.093,0.142-1.64,0.212
					c1.59,1.576,3.575,2.609,5.293,4.021c1.031,0.847,2.518-0.621,1.477-1.477c-1.716-1.409-3.709-2.449-5.293-4.021
					c-0.438-0.434-1.361-0.417-1.64,0.212c-1.38,3.111-0.537,6.222-0.729,9.489C159.801,148.183,161.889,148.175,161.968,146.837
					L161.968,146.837z"/>
			</g>
		</g>
		<g>
			<g>
				<path fill="#21191A" d="M161.317,144.786c1.414-1.012,2.837-2.007,4.167-3.128c1.03-0.869-0.454-2.338-1.477-1.477
					c-0.372,0.314-0.856,0.711-1.069,0.871c-0.878,0.661-1.78,1.291-2.674,1.931C159.18,143.76,160.221,145.571,161.317,144.786
					L161.317,144.786z"/>
			</g>
		</g>
		<g>
			<g>
				<path fill="#21191A" d="M121.515,165.756c1.413-1.014,2.834-2.01,4.166-3.129c1.031-0.867-0.453-2.337-1.477-1.477
					c-0.372,0.313-0.856,0.709-1.069,0.869c-0.878,0.661-1.78,1.293-2.674,1.934C119.377,164.73,120.418,166.542,121.515,165.756
					L121.515,165.756z"/>
			</g>
		</g>
		<g>
			<g>
				<path fill="#21191A" d="M100.257,175.146c1.415-1.012,2.837-2.005,4.167-3.128c1.029-0.87-0.455-2.339-1.477-1.477
					c-1.178,0.995-2.352,1.807-3.744,2.802C98.119,174.118,99.159,175.931,100.257,175.146L100.257,175.146z"/>
			</g>
		</g>
		<g>
			<g>
				<path fill="#21191A" d="M159.797,128.772c0.573-2.728,0.328-5.734,1.795-8.197c-0.547,0.07-1.093,0.141-1.64,0.211
					c1.469,1.769,2.932,3.559,4.614,5.132c0.982,0.918,2.462-0.555,1.477-1.477c-1.683-1.573-3.146-3.363-4.614-5.132
					c-0.439-0.528-1.319-0.326-1.64,0.211c-1.589,2.669-1.387,5.752-2.006,8.696C157.508,129.531,159.52,130.09,159.797,128.772
					L159.797,128.772z"/>
			</g>
		</g>
		<g>
			<g>
				<path fill="#21191A" d="M160.096,127.117c1.415-1.014,2.837-2.01,4.171-3.127c1.033-0.866-0.452-2.335-1.477-1.477
					c-0.417,0.35-0.804,0.667-1.073,0.869c-0.879,0.661-1.78,1.292-2.674,1.932C157.959,126.091,158.999,127.903,160.096,127.117
					L160.096,127.117z"/>
			</g>
		</g>
		<g>
			<g>
				<path fill="#21191A" d="M181.368,132.301c0.572-2.729,0.325-5.735,1.795-8.199c-0.547,0.07-1.093,0.141-1.64,0.211
					c1.471,1.77,2.932,3.562,4.614,5.137c0.982,0.918,2.461-0.555,1.477-1.477c-1.684-1.574-3.144-3.367-4.614-5.137
					c-0.439-0.528-1.319-0.326-1.64,0.211c-1.592,2.669-1.388,5.752-2.006,8.698C179.079,133.06,181.092,133.618,181.368,132.301
					L181.368,132.301z"/>
			</g>
		</g>
		<g>
			<g>
				<path fill="#21191A" d="M181.667,130.646c1.415-1.013,2.838-2.008,4.171-3.128c1.031-0.867-0.453-2.336-1.477-1.477
					c-0.417,0.351-0.804,0.668-1.073,0.871c-0.878,0.661-1.78,1.291-2.674,1.931C179.529,129.62,180.57,131.432,181.667,130.646
					L181.667,130.646z"/>
			</g>
		</g>
		<g>
			<g>
				<path fill="#21191A" d="M99.111,152.419c-2.818,1.043-3.955,3.771-3.311,6.618c0.541,2.393,2.859,4.491,5.358,3.317
					c2.996-1.407,3.764-4.87,2.077-7.584c-1.701-2.739-5.145-3.112-6.858-0.219c-0.688,1.16,1.118,2.21,1.803,1.053
					c1.011-1.706,2.502-0.988,3.391,0.441c1.005,1.618,0.422,3.78-1.428,4.48c-1.376,0.521-2.146-1.23-2.381-2.271
					c-0.359-1.586,0.344-3.247,1.904-3.823C100.917,153.97,100.376,151.951,99.111,152.419L99.111,152.419z"/>
			</g>
		</g>
		<g>
			<g>
				<path fill="#21191A" d="M109.23,157.945c-0.279-2.547-1.295-4.841-2.047-7.269c-0.511,0.393-1.022,0.786-1.533,1.179
					c2.479,1.362,5.022,2.596,7.568,3.828c0.87,0.421,1.682-0.259,1.533-1.179c-0.421-2.613-0.289-5.201,0.042-7.815
					c-0.594,0.246-1.188,0.492-1.782,0.738c1.875,1.775,3.638,3.871,4.781,6.201c0.593,1.209,2.393,0.15,1.803-1.053
					c-1.208-2.463-3.125-4.748-5.107-6.625c-0.719-0.68-1.672-0.137-1.782,0.738c-0.355,2.816-0.419,5.562,0.034,8.37
					c0.511-0.393,1.022-0.786,1.533-1.179c-2.546-1.231-5.089-2.465-7.568-3.828c-0.775-0.426-1.813,0.274-1.533,1.179
					c0.688,2.224,1.716,4.38,1.972,6.714C107.288,159.269,109.377,159.282,109.23,157.945L109.23,157.945z"/>
			</g>
		</g>
		<g>
			<g>
				<path fill="#21191A" d="M120.126,145.108c0.619,1.885,1.625,3.893,3.515,4.771c1.372,0.637,2.97,0.481,4.193-0.411
					c3.335-2.438,2.035-6.895-0.612-9.265c-1-0.895-2.481,0.577-1.477,1.477c1.669,1.493,3.011,4.105,1.056,5.955
					c-2.137,2.021-4.114-1.414-4.662-3.082C121.721,143.281,119.704,143.826,120.126,145.108L120.126,145.108z"/>
			</g>
		</g>
		<g>
			<g>
				<path fill="#21191A" d="M146.154,129.549c1.453,1.77,2.438,3.897,4.13,5.478c1.626,1.52,3.579,1.115,4.426-0.956
					c0.946-2.315,1.359-5.742-1.045-7.35c-2.291-1.531-5.116-0.597-7.101,0.974c-1.055,0.836,0.433,2.303,1.477,1.477
					c1.183-0.937,3.21-1.731,4.561-0.649c1.432,1.147,0.715,3.909-0.059,5.231c-0.397,0.679-1.933-1.474-2.24-1.895
					c-0.912-1.246-1.69-2.59-2.672-3.786C146.775,127.031,145.308,128.518,146.154,129.549L146.154,129.549z"/>
			</g>
		</g>
		<g>
			<g>
				<path fill="#21191A" d="M163.465,116.938c1.454,1.769,2.439,3.897,4.131,5.478c1.626,1.519,3.578,1.114,4.425-0.957
					c0.946-2.316,1.356-5.743-1.048-7.35c-2.292-1.531-5.117-0.598-7.102,0.973c-1.055,0.835,0.433,2.302,1.477,1.477
					c1.184-0.938,3.21-1.73,4.562-0.648c1.433,1.147,0.719,3.907-0.056,5.23c-0.396,0.679-1.932-1.473-2.239-1.894
					c-0.913-1.247-1.69-2.59-2.673-3.786C164.086,114.421,162.618,115.907,163.465,116.938L163.465,116.938z"/>
			</g>
		</g>
	</g>
</g>
</svg>
