<?xml version="1.0" encoding="utf-8"?>
<!-- Generator: Adobe Illustrator 16.0.0, SVG Export Plug-In . SVG Version: 6.00 Build 0)  -->
<!DOCTYPE svg PUBLIC "-//W3C//DTD SVG 1.1//EN" "http://www.w3.org/Graphics/SVG/1.1/DTD/svg11.dtd">
<svg version="1.1" id="Capa_1" xmlns="http://www.w3.org/2000/svg" xmlns:xlink="http://www.w3.org/1999/xlink" x="0px" y="0px"
	 width="250px" height="250px" viewBox="0 0 250 250" enable-background="new 0 0 250 250" xml:space="preserve">
<g>
	<g>
		
			<path fill="none" stroke="#3067AF" stroke-width="5.0683" stroke-linecap="round" stroke-linejoin="round" stroke-miterlimit="10" d="
			M157.363,48.997c0-0.944-0.757-1.699-1.7-1.699H94.896c-0.943,0-1.699,0.755-1.699,1.699v11.511c0,0.096,0.011,0.191,0.026,0.281
			c-0.016,0.095-0.026,0.188-0.026,0.284l11.136,121.643c0,0.945,0.753,1.698,1.698,1.698h2.86
			c-0.927,0.689-1.538,1.784-1.538,3.022v13.587c0,2.074,1.698,3.773,3.773,3.773h28.308c2.075,0,3.775-1.699,3.775-3.773h0.187
			v-13.587c0-1.238-0.611-2.333-1.537-3.022h2.671c0.944,0,1.697-0.753,1.697-1.698l11.136-121.643c0-0.096-0.012-0.189-0.028-0.281
			c0.017-0.093,0.028-0.188,0.028-0.284V48.997z"/>
	</g>
	<g>
		<path fill="#3067AF" d="M143.899,201.023c0,2.074-1.699,3.773-3.776,3.773h-28.309c-2.074,0-3.773-1.699-3.773-3.773v-13.587
			c0-2.079,1.699-3.775,3.773-3.775h28.497c2.076,0,3.775,1.696,3.775,3.775v13.587H143.899z M143.899,201.023"/>
		<path fill="#3884C6" d="M143.899,201.023c0,2.074-1.699,3.773-3.776,3.773h-28.309c-2.074,0-3.773-1.699-3.773-3.773"/>
		<path fill="#EE771B" d="M146.918,182.716c0,0.945-0.755,1.698-1.7,1.698h-38.499c-0.943,0-1.696-0.753-1.696-1.698L93.887,61.073
			c0-0.942,0.756-1.696,1.698-1.696h60.768c0.942,0,1.7,0.754,1.7,1.696L146.918,182.716z M146.918,182.716"/>
		<path fill="#F18E1B" d="M156.354,47.298H95.585c-0.942,0-1.698,0.755-1.698,1.699v11.511c0,0.096,0.011,0.191,0.025,0.281
			c-0.015,0.095-0.025,0.188-0.025,0.284l11.136,121.643c0,0.945,0.753,1.698,1.696,1.698h38.499c0.945,0,1.7-0.753,1.7-1.698
			L96.764,62.206h59.59c0.942,0,1.7-0.755,1.7-1.698V48.997C158.054,48.053,157.296,47.298,156.354,47.298z"/>
		<path fill="#F7EDD7" d="M121.628,100.706"/>
	</g>
	<g>
		<path fill-rule="evenodd" clip-rule="evenodd" fill="#FABA13" d="M112.548,95.149c0-0.973-0.792-1.755-1.757-1.755h-3.519
			c-0.966,0-1.757,0.783-1.757,1.755c0,0.973,0.791,1.755,1.757,1.755h3.519C111.757,96.905,112.548,96.123,112.548,95.149
			L112.548,95.149z M114.303,105.11c-0.485,0-0.926,0.195-1.239,0.516l-2.347,2.34c-0.314,0.321-0.516,0.761-0.516,1.247
			c0,0.967,0.791,1.758,1.755,1.758c0.487,0,0.929-0.201,1.243-0.515l2.345-2.346c0.32-0.314,0.516-0.756,0.516-1.241
			C116.06,105.894,115.277,105.11,114.303,105.11L114.303,105.11z M126.021,81.675c0.973,0,1.756-0.789,1.756-1.754v-3.52
			c0-0.968-0.783-1.757-1.756-1.757c-0.973,0-1.757,0.79-1.757,1.757v3.52C124.265,80.886,125.048,81.675,126.021,81.675
			L126.021,81.675z M137.738,85.189c0.485,0,0.926-0.195,1.241-0.516l2.347-2.341c0.314-0.32,0.515-0.759,0.515-1.246
			c0-0.968-0.789-1.757-1.757-1.757c-0.484,0-0.927,0.201-1.247,0.516l-2.342,2.346c-0.317,0.313-0.514,0.755-0.514,1.241
			C135.981,84.405,136.768,85.189,137.738,85.189L137.738,85.189z M113.063,84.673c0.313,0.32,0.754,0.516,1.239,0.516
			c0.974,0,1.757-0.784,1.757-1.757c0-0.486-0.196-0.927-0.516-1.241l-2.338-2.346c-0.321-0.314-0.763-0.516-1.25-0.516
			c-0.964,0-1.755,0.789-1.755,1.757c0,0.487,0.201,0.926,0.516,1.243L113.063,84.673z M144.77,93.394h-3.52
			c-0.965,0-1.755,0.783-1.755,1.755c0,0.973,0.79,1.755,1.755,1.755h3.52c0.968,0,1.757-0.782,1.757-1.755
			C146.526,94.177,145.737,93.394,144.77,93.394L144.77,93.394z M138.979,105.625c-0.315-0.32-0.756-0.516-1.241-0.516
			c-0.971,0-1.757,0.784-1.757,1.757c0,0.485,0.196,0.927,0.514,1.241l2.342,2.346c0.32,0.314,0.763,0.515,1.247,0.515
			c0.968,0,1.757-0.791,1.757-1.758c0-0.485-0.2-0.926-0.515-1.247L138.979,105.625z M126.021,108.624
			c-0.973,0-1.757,0.789-1.757,1.756v3.518c0,0.967,0.784,1.756,1.757,1.756c0.973,0,1.756-0.789,1.756-1.756v-3.518
			C127.777,109.413,126.994,108.624,126.021,108.624L126.021,108.624z M126.021,82.848c-6.785,0-12.301,5.516-12.301,12.301
			s5.516,12.3,12.301,12.3c6.787,0,12.3-5.515,12.3-12.3S132.809,82.848,126.021,82.848L126.021,82.848z M126.021,103.936"/>
	</g>
	<path fill-rule="evenodd" clip-rule="evenodd" fill="#FFFFFF" d="M132.796,96.088c0,0-15.487-1.524-15.029,0.459
		c0.326,1.413,2.063,7.858,8.202,7.706C132.11,104.099,135.617,95.785,132.796,96.088z"/>
	<path fill-rule="evenodd" clip-rule="evenodd" fill="#1D1D1B" d="M120.164,94.096c2.914,0.641,1.503-6.862-0.602-4.377
		C118.893,90.51,119.016,93.844,120.164,94.096z"/>
	<path fill-rule="evenodd" clip-rule="evenodd" fill="#1D1D1B" d="M132.251,94.096c-2.913,0.641-1.503-6.862,0.603-4.377
		C133.522,90.51,133.397,93.844,132.251,94.096z"/>
	<g>
		<path fill="#FFFFFF" stroke="#FFFFFF" stroke-width="0.2112" stroke-miterlimit="10" d="M116.431,147.129
			c0.071,0,0.14-0.027,0.192-0.083c0.103-0.106,0.1-0.274-0.007-0.377c-3.505-3.4-4.951-11.27-0.728-19.156
			c0.069-0.132,0.02-0.294-0.11-0.361c-0.129-0.07-0.292-0.023-0.362,0.107c-1.614,3.015-2.567,6.708-2.62,10.138
			c-0.043,2.837,0.519,6.815,3.45,9.655C116.299,147.103,116.364,147.129,116.431,147.129z"/>
		<path fill="#FFFFFF" stroke="#FFFFFF" stroke-width="0.2112" stroke-miterlimit="10" d="M118.294,138.219
			c0.214,0.057,0.426,0.085,0.629,0.085l0,0c1.225,0,1.902-0.981,2.014-1.892c0.118-0.975-0.344-2.104-1.65-2.429
			c-0.167-0.043-0.337-0.063-0.502-0.063c-1.164,0-1.9,1.005-2.025,2C116.617,137.041,117.219,137.942,118.294,138.219z
			 M117.29,135.985c0.096-0.761,0.644-1.531,1.496-1.531c0.122,0,0.246,0.015,0.375,0.049c0.989,0.244,1.338,1.104,1.247,1.845
			c-0.087,0.708-0.579,1.42-1.483,1.42l0,0c-0.158,0-0.325-0.02-0.496-0.065C117.459,137.453,117.205,136.651,117.29,135.985z"/>
		<path fill="#FFFFFF" stroke="#FFFFFF" stroke-width="0.2112" stroke-miterlimit="10" d="M117.449,151.188
			c-0.169-0.043-0.337-0.063-0.503-0.063c-1.165,0-1.9,1.005-2.027,1.997c-0.14,1.123,0.461,2.027,1.537,2.304
			c0.214,0.054,0.427,0.084,0.629,0.084h0.001c1.223,0,1.901-0.981,2.013-1.892C119.218,152.642,118.753,151.512,117.449,151.188z
			 M118.566,153.553c-0.086,0.706-0.579,1.42-1.481,1.42h-0.001c-0.157,0-0.325-0.021-0.496-0.066
			c-0.967-0.248-1.222-1.05-1.137-1.717c0.097-0.76,0.641-1.531,1.495-1.531c0.123,0,0.247,0.017,0.373,0.047
			C118.306,151.952,118.657,152.81,118.566,153.553z"/>
		<path fill="#FFFFFF" stroke="#FFFFFF" stroke-width="0.2112" stroke-miterlimit="10" d="M122.261,146.146
			c-0.079,0.127-0.042,0.293,0.083,0.37c0.045,0.026,0.095,0.04,0.144,0.04c0.089,0,0.175-0.044,0.226-0.124
			c1.644-2.614,1.243-5.624,0.566-8.489c-0.812-3.439-1.415-7.078,0.856-10.406c0.083-0.121,0.052-0.287-0.069-0.371
			c-0.124-0.082-0.29-0.05-0.373,0.071c-2.395,3.506-1.773,7.273-0.936,10.83C123.409,140.816,123.799,143.699,122.261,146.146z"/>
		<path fill="#FFFFFF" stroke="#FFFFFF" stroke-width="0.2112" stroke-miterlimit="10" d="M129.147,145.302
			c0,0.148,0.119,0.27,0.267,0.27c0.149,0,0.268-0.121,0.268-0.27v-13.365h2.72c0.147,0,0.269-0.117,0.269-0.267
			c0-0.148-0.121-0.267-0.269-0.267h-2.72v-1.94c0-0.146-0.118-0.268-0.268-0.268c-0.147,0-0.267,0.121-0.267,0.268v1.94h-2.719
			c-0.147,0-0.268,0.118-0.268,0.267c0,0.149,0.12,0.267,0.268,0.267h2.719V145.302z"/>
		<path fill="#FFFFFF" stroke="#FFFFFF" stroke-width="0.2112" stroke-miterlimit="10" d="M121.432,153.132
			c0.191,0.118,0.402,0.217,0.657,0.28c0.167,0.042,0.337,0.064,0.5,0.064l0,0c1.167,0,1.901-1.005,2.027-2
			c0.142-1.122-0.459-2.025-1.533-2.302c-0.217-0.056-0.43-0.083-0.63-0.083c-0.662,0-1.157,0.288-1.496,0.695v-0.429
			c0-0.148-0.121-0.267-0.269-0.267c-0.146,0-0.268,0.118-0.268,0.267v1.781c0,0-0.006,0-0.009,0.001
			c-0.138,0.052-0.209,0.204-0.158,0.345l0.167,0.455v13.259c0,0.148,0.122,0.266,0.268,0.266c0.148,0,0.269-0.117,0.269-0.266
			v-11.811l4.784,12.953c0.041,0.108,0.145,0.175,0.252,0.175c0.032,0,0.062-0.005,0.093-0.016c0.141-0.051,0.209-0.206,0.157-0.346
			L121.432,153.132z M120.969,151.049c0.086-0.709,0.579-1.424,1.483-1.424c0.155,0,0.325,0.023,0.497,0.067
			c0.966,0.25,1.222,1.05,1.135,1.718c-0.096,0.761-0.64,1.529-1.496,1.529l0,0c-0.122,0-0.246-0.015-0.375-0.047
			C121.229,152.646,120.877,151.789,120.969,151.049z"/>
		<path fill="#FFFFFF" stroke="#FFFFFF" stroke-width="0.2112" stroke-miterlimit="10" d="M113.061,148.021
			c-0.147,0-0.27,0.12-0.27,0.269v12.446c-0.265-0.3-0.638-0.539-1.129-0.66c-0.171-0.044-0.338-0.064-0.503-0.064
			c-1.165,0-1.9,1.005-2.027,1.998c-0.142,1.121,0.46,2.025,1.535,2.302c0.217,0.057,0.429,0.084,0.631,0.084h0.001
			c0.66,0,1.157-0.29,1.493-0.696v0.431c0,0.146,0.123,0.266,0.27,0.266c0.148,0,0.268-0.119,0.268-0.266v-15.84
			C113.329,148.142,113.209,148.021,113.061,148.021z M112.779,162.439c-0.085,0.709-0.578,1.42-1.48,1.42h-0.001
			c-0.157,0-0.326-0.021-0.497-0.065c-0.968-0.248-1.221-1.05-1.137-1.716c0.096-0.761,0.64-1.53,1.496-1.53
			c0.121,0,0.247,0.015,0.373,0.048C112.52,160.839,112.871,161.698,112.779,162.439z"/>
		<path fill="#FFFFFF" stroke="#FFFFFF" stroke-width="0.2112" stroke-miterlimit="10" d="M136.08,148.021
			c-0.146,0-0.266,0.12-0.266,0.269v12.446c-0.27-0.3-0.639-0.539-1.134-0.66c-0.168-0.044-0.336-0.064-0.502-0.064
			c-1.164,0-1.901,1.005-2.025,1.998c-0.142,1.121,0.459,2.025,1.534,2.302c0.215,0.057,0.427,0.084,0.631,0.084l0,0
			c0.661,0,1.157-0.29,1.496-0.696v0.431c0,0.146,0.119,0.266,0.266,0.266c0.148,0,0.269-0.119,0.269-0.266v-15.84
			C136.349,148.142,136.229,148.021,136.08,148.021z M135.799,162.439c-0.086,0.709-0.576,1.42-1.48,1.42l0,0
			c-0.158,0-0.326-0.021-0.497-0.065c-0.967-0.248-1.221-1.05-1.139-1.716c0.098-0.761,0.642-1.53,1.496-1.53
			c0.122,0,0.247,0.015,0.374,0.048C135.539,160.839,135.891,161.698,135.799,162.439z"/>
		<path fill="#FFFFFF" stroke="#FFFFFF" stroke-width="0.2112" stroke-miterlimit="10" d="M134.618,129.203
			c-0.14-0.033-0.284,0.053-0.32,0.194c-0.037,0.143,0.048,0.286,0.189,0.324c0.039,0.012,3.634,1.103,3.516,11.11
			c-0.27-0.323-0.649-0.583-1.168-0.711c-0.17-0.042-0.338-0.063-0.502-0.063c-1.164,0-1.899,1.007-2.027,2
			c-0.141,1.122,0.462,2.024,1.535,2.301c0.214,0.057,0.427,0.083,0.631,0.083l0,0c1.224,0,1.9-0.979,2.013-1.89
			c0.011-0.091,0.013-0.182,0.013-0.275c0.001-0.003,0.004-0.01,0.004-0.013C139.014,130.43,134.799,129.248,134.618,129.203z
			 M136.472,143.909L136.472,143.909c-0.159,0-0.325-0.024-0.498-0.068c-0.966-0.249-1.221-1.05-1.136-1.716
			c0.097-0.763,0.641-1.531,1.495-1.531c0.119,0,0.247,0.016,0.373,0.047c0.987,0.246,1.339,1.104,1.249,1.846
			C137.866,143.193,137.374,143.909,136.472,143.909z"/>
		<path fill="#FFFFFF" stroke="#FFFFFF" stroke-width="0.2112" stroke-miterlimit="10" d="M139.09,148.593
			c-0.141-0.033-0.285,0.051-0.321,0.194c-0.036,0.142,0.048,0.286,0.191,0.325c0.037,0.01,3.633,1.103,3.515,11.108
			c-0.27-0.323-0.649-0.58-1.169-0.71c-0.168-0.042-0.337-0.062-0.502-0.062c-1.164,0-1.898,1.006-2.025,1.998
			c-0.142,1.121,0.461,2.026,1.534,2.303c0.216,0.055,0.427,0.084,0.631,0.084l0,0c1.223,0,1.899-0.981,2.012-1.893
			c0.014-0.091,0.014-0.182,0.014-0.273c0-0.007,0.003-0.01,0.003-0.016C143.484,149.817,139.271,148.637,139.09,148.593z
			 M140.943,163.297L140.943,163.297c-0.158,0-0.324-0.021-0.497-0.067c-0.968-0.248-1.221-1.05-1.137-1.718
			c0.097-0.758,0.642-1.53,1.494-1.53c0.121,0,0.248,0.017,0.374,0.05c0.988,0.244,1.338,1.104,1.247,1.846
			C142.338,162.584,141.846,163.297,140.943,163.297z"/>
		<path fill="#FFFFFF" stroke="#FFFFFF" stroke-width="0.2112" stroke-miterlimit="10" d="M127.044,148.593
			c-0.14-0.033-0.284,0.051-0.321,0.194c-0.036,0.142,0.049,0.286,0.19,0.325c0.039,0.01,3.634,1.103,3.516,11.108
			c-0.271-0.323-0.649-0.58-1.168-0.71c-0.17-0.042-0.338-0.062-0.504-0.062c-1.163,0-1.897,1.006-2.024,1.998
			c-0.143,1.121,0.461,2.026,1.534,2.303c0.214,0.055,0.427,0.084,0.63,0.084l0,0c1.225,0,1.901-0.981,2.014-1.893
			c0.011-0.091,0.013-0.182,0.013-0.273c0-0.007,0.003-0.01,0.003-0.016C131.438,149.817,127.224,148.637,127.044,148.593z
			 M128.896,163.297L128.896,163.297c-0.158,0-0.324-0.021-0.497-0.067c-0.966-0.248-1.221-1.05-1.137-1.718
			c0.097-0.758,0.642-1.53,1.494-1.53c0.121,0,0.249,0.017,0.375,0.05c0.987,0.244,1.339,1.104,1.249,1.846
			C130.292,162.584,129.8,163.297,128.896,163.297z"/>
	</g>
	<path opacity="0.1" fill="#5E5E5E" d="M100.221,59.64c0,0.169,0.138,0.308,0.309,0.308l0,0c0.17,0,0.306-0.138,0.306-0.308V49.594
		c0-0.17-0.136-0.307-0.306-0.307l0,0c-0.171,0-0.309,0.137-0.309,0.307V59.64z"/>
	<path opacity="0.1" fill="#5E5E5E" d="M103.706,59.64c0,0.169,0.138,0.308,0.309,0.308l0,0c0.168,0,0.306-0.138,0.306-0.308V49.594
		c0-0.17-0.137-0.307-0.306-0.307l0,0c-0.171,0-0.309,0.137-0.309,0.307V59.64z"/>
	<path opacity="0.1" fill="#5E5E5E" d="M107.428,59.64c0,0.169,0.137,0.308,0.306,0.308l0,0c0.171,0,0.308-0.138,0.308-0.308V49.594
		c0-0.17-0.137-0.307-0.308-0.307l0,0c-0.169,0-0.306,0.137-0.306,0.307V59.64z"/>
	<path opacity="0.1" fill="#5E5E5E" d="M110.912,59.64c0,0.169,0.137,0.308,0.308,0.308l0,0c0.17,0,0.309-0.138,0.309-0.308V49.594
		c0-0.17-0.139-0.307-0.309-0.307l0,0c-0.171,0-0.308,0.137-0.308,0.307V59.64z"/>
	<path opacity="0.1" fill="#5E5E5E" d="M114.398,59.64c0,0.169,0.136,0.308,0.307,0.308l0,0c0.17,0,0.307-0.138,0.307-0.308V49.594
		c0-0.17-0.137-0.307-0.307-0.307l0,0c-0.17,0-0.307,0.137-0.307,0.307V59.64z"/>
	<path opacity="0.1" fill="#5E5E5E" d="M118.003,59.64c0,0.169,0.137,0.308,0.307,0.308l0,0c0.17,0,0.307-0.138,0.307-0.308V49.594
		c0-0.17-0.137-0.307-0.307-0.307l0,0c-0.17,0-0.307,0.137-0.307,0.307V59.64z"/>
	<path opacity="0.1" fill="#5E5E5E" d="M121.487,59.64c0,0.169,0.138,0.308,0.308,0.308l0,0c0.171,0,0.309-0.138,0.309-0.308V49.594
		c0-0.17-0.138-0.307-0.309-0.307l0,0c-0.17,0-0.308,0.137-0.308,0.307V59.64z"/>
	<path opacity="0.1" fill="#5E5E5E" d="M124.973,59.64c0,0.169,0.137,0.308,0.308,0.308l0,0c0.169,0,0.307-0.138,0.307-0.308V49.594
		c0-0.17-0.138-0.307-0.307-0.307l0,0c-0.171,0-0.308,0.137-0.308,0.307V59.64z"/>
	<path opacity="0.1" fill="#5E5E5E" d="M128.693,59.64c0,0.169,0.139,0.308,0.308,0.308l0,0c0.169,0,0.308-0.138,0.308-0.308V49.594
		c0-0.17-0.139-0.307-0.308-0.307l0,0c-0.169,0-0.308,0.137-0.308,0.307V59.64z"/>
	<path opacity="0.1" fill="#5E5E5E" d="M132.18,59.64c0,0.169,0.136,0.308,0.307,0.308l0,0c0.17,0,0.308-0.138,0.308-0.308V49.594
		c0-0.17-0.138-0.307-0.308-0.307l0,0c-0.171,0-0.307,0.137-0.307,0.307V59.64z"/>
	<path opacity="0.1" fill="#5E5E5E" d="M135.663,59.64c0,0.169,0.139,0.308,0.308,0.308l0,0c0.171,0,0.31-0.138,0.31-0.308V49.594
		c0-0.17-0.139-0.307-0.31-0.307l0,0c-0.169,0-0.308,0.137-0.308,0.307V59.64z"/>
	<path opacity="0.1" fill="#5E5E5E" d="M138.232,59.64c0,0.169,0.139,0.308,0.309,0.308l0,0c0.169,0,0.307-0.138,0.307-0.308V49.594
		c0-0.17-0.138-0.307-0.307-0.307l0,0c-0.17,0-0.309,0.137-0.309,0.307V59.64z"/>
	<path opacity="0.1" fill="#5E5E5E" d="M141.718,59.64c0,0.169,0.138,0.308,0.309,0.308l0,0c0.171,0,0.308-0.138,0.308-0.308V49.594
		c0-0.17-0.137-0.307-0.308-0.307l0,0c-0.171,0-0.309,0.137-0.309,0.307V59.64z"/>
	<path opacity="0.1" fill="#5E5E5E" d="M145.203,59.64c0,0.169,0.138,0.308,0.309,0.308l0,0c0.169,0,0.307-0.138,0.307-0.308V49.594
		c0-0.17-0.138-0.307-0.307-0.307l0,0c-0.171,0-0.309,0.137-0.309,0.307V59.64z"/>
	<path opacity="0.1" fill="#5E5E5E" d="M148.924,59.64c0,0.169,0.137,0.308,0.307,0.308l0,0c0.171,0,0.308-0.138,0.308-0.308V49.594
		c0-0.17-0.137-0.307-0.308-0.307l0,0c-0.17,0-0.307,0.137-0.307,0.307V59.64z"/>
	<path opacity="0.1" fill="#5E5E5E" d="M152.409,59.64c0,0.169,0.138,0.308,0.308,0.308l0,0c0.169,0,0.308-0.138,0.308-0.308V49.594
		c0-0.17-0.139-0.307-0.308-0.307l0,0c-0.17,0-0.308,0.137-0.308,0.307V59.64z"/>
	<path opacity="0.1" fill="#5E5E5E" d="M155.895,59.64c0,0.169,0.137,0.308,0.308,0.308l0,0c0.17,0,0.306-0.138,0.306-0.308V49.594
		c0-0.17-0.136-0.307-0.306-0.307l0,0c-0.171,0-0.308,0.137-0.308,0.307V59.64z"/>
</g>
<path fill="none" stroke="#FFFFFF" stroke-width="0.1193" stroke-linejoin="round" stroke-miterlimit="10" d="M90.639,44.192v3.121
	l1.451-3.121c0,0-0.065,3.121,0,3.121c0.065,0,1.234-3.25,1.234-3.121c0,0.129,0,3.121,0,3.121l1.104-3.125v3.125l1.32-3.125v3.125
	l1.191-3.125v3.125l1.169-3.125v3.125l1.104-3.125l0.109,3.125l0.996-3.125v3.208l1.125-3.208v3.125l1.169-3.125v3.208l1.256-3.208
	l0.086,3.125l1.104-3.125v3.125c0,0,1.212-3.128,1.234-3.125c0.021,0.004,0,3.208,0,3.208s1.169-3.298,1.19-3.208
	c0.022,0.091,0,3.294,0,3.294l1.364-3.296l0.087,3.296c0,0,1.061-3.389,1.083-3.296c0.021,0.092,0,3.447,0,3.447l1.407-3.449v3.449
	l1.472-3.449v3.449l1.407-3.449v3.449l1.364-3.449v3.362"/>
<path fill="none" stroke="#FFFFFF" stroke-width="0.1193" stroke-linejoin="round" stroke-miterlimit="10" d="M115.782,44.192v3.121
	l1.45-3.121c0,0-0.066,3.121,0,3.121c0.064,0,1.234-3.25,1.234-3.121c0,0.129,0,3.121,0,3.121l1.104-3.125v3.125l1.32-3.125v3.125
	l1.191-3.125v3.125l1.169-3.125v3.125l1.104-3.125l0.109,3.125l0.996-3.125v3.208l1.125-3.208v3.125l1.169-3.125v3.208l1.256-3.208
	l0.086,3.125l1.104-3.125v3.125c0,0,1.213-3.128,1.234-3.125s0,3.208,0,3.208s1.169-3.298,1.19-3.208c0.022,0.091,0,3.294,0,3.294
	l1.363-3.296l0.088,3.296c0,0,1.062-3.389,1.083-3.296c0.021,0.092,0,3.447,0,3.447l1.406-3.449v3.449l1.473-3.449v3.449
	l1.406-3.449v3.449l1.364-3.449v3.362"/>
<path fill="none" stroke="#FFFFFF" stroke-width="0.1193" stroke-linejoin="round" stroke-miterlimit="10" d="M155.195,72.943
	l3.117,0.171l-3.038-1.619c0,0,3.114,0.236,3.116,0.171c0.005-0.065-3.177-1.411-3.047-1.404c0.128,0.007,3.116,0.171,3.116,0.171
	l-3.061-1.273l3.12,0.171l-3.048-1.489l3.12,0.17l-3.054-1.359l3.119,0.17l-3.056-1.337l3.12,0.17l-3.06-1.272l3.125,0.062
	l-3.064-1.165l3.202,0.175l-3.141-1.299l3.12,0.171l-3.057-1.338l3.203,0.176l-3.133-1.429l3.125,0.084l-3.061-1.273l3.12,0.171
	c0,0-3.059-1.382-3.053-1.404c0.006-0.021,3.204,0.176,3.204,0.176s-3.23-1.348-3.137-1.364c0.091-0.017,3.287,0.18,3.287,0.18
	l-3.216-1.542l3.295,0.093c0,0-3.324-1.245-3.23-1.262c0.093-0.016,3.442,0.189,3.442,0.189l-3.366-1.593l3.443,0.189l-3.363-1.659
	l3.442,0.189l-3.366-1.593l3.443,0.189l-3.368-1.551l3.357,0.184"/>
<path fill="none" stroke="#FFFFFF" stroke-width="0.1193" stroke-linejoin="round" stroke-miterlimit="10" d="M153.479,98.103
	l3.115,0.171l-3.036-1.619c0,0,3.112,0.236,3.116,0.171c0.004-0.065-3.179-1.411-3.048-1.404c0.129,0.007,3.116,0.171,3.116,0.171
	l-3.061-1.273l3.121,0.171l-3.049-1.489l3.12,0.17l-3.055-1.359l3.12,0.17l-3.056-1.337l3.12,0.17l-3.06-1.272l3.125,0.062
	l-3.064-1.165l3.201,0.175l-3.14-1.299l3.119,0.171l-3.056-1.338l3.204,0.175l-3.135-1.429l3.125,0.085l-3.061-1.274l3.12,0.171
	c0,0-3.058-1.382-3.053-1.403c0.006-0.021,3.204,0.175,3.204,0.175s-3.229-1.348-3.138-1.364c0.092-0.017,3.289,0.18,3.289,0.18
	l-3.217-1.542l3.296,0.093c0,0-3.324-1.245-3.231-1.262c0.094-0.016,3.442,0.189,3.442,0.189l-3.366-1.593l3.444,0.188l-3.363-1.659
	l3.442,0.189l-3.366-1.593l3.443,0.188l-3.368-1.551l3.356,0.183"/>
<path fill="none" stroke="#FFFFFF" stroke-width="0.1193" stroke-linejoin="round" stroke-miterlimit="10" d="M150.524,123.132
	l3.104,0.321l-2.955-1.763c0,0,3.098,0.385,3.104,0.321c0.008-0.065-3.106-1.562-2.977-1.549c0.129,0.013,3.105,0.321,3.105,0.321
	l-2.996-1.419l3.108,0.321l-2.972-1.634l3.107,0.321l-2.985-1.505l3.107,0.32l-2.987-1.482l3.108,0.32l-2.995-1.418l3.119,0.213
	l-3.006-1.311l3.189,0.33l-3.074-1.45l3.108,0.321l-2.988-1.483l3.191,0.33l-3.062-1.579l3.117,0.235l-2.995-1.419l3.108,0.321
	c0,0-2.988-1.527-2.982-1.549c0.007-0.021,3.192,0.329,3.192,0.329s-3.161-1.501-3.067-1.513c0.091-0.013,3.274,0.338,3.274,0.338
	l-3.138-1.696l3.287,0.252c0,0-3.261-1.404-3.166-1.416c0.093-0.011,3.429,0.354,3.429,0.354l-3.286-1.753l3.432,0.354l-3.281-1.819
	l3.431,0.354l-3.286-1.753l3.432,0.354l-3.29-1.711l3.344,0.344"/>
<path fill="none" stroke="#FFFFFF" stroke-width="0.1193" stroke-linejoin="round" stroke-miterlimit="10" d="M147.57,148.229
	l3.104,0.321l-2.956-1.764c0,0,3.099,0.386,3.104,0.321c0.007-0.065-3.107-1.562-2.977-1.549c0.129,0.013,3.105,0.32,3.105,0.32
	l-2.997-1.419l3.109,0.321l-2.973-1.635l3.107,0.321l-2.984-1.505l3.106,0.319l-2.987-1.482l3.108,0.32l-2.995-1.419l3.119,0.213
	l-3.005-1.311l3.188,0.329l-3.073-1.449l3.107,0.32l-2.987-1.483l3.191,0.33l-3.062-1.579l3.118,0.235l-2.995-1.419l3.107,0.32
	c0,0-2.988-1.527-2.981-1.549c0.007-0.021,3.192,0.329,3.192,0.329s-3.161-1.501-3.068-1.513c0.092-0.013,3.275,0.338,3.275,0.338
	l-3.139-1.695l3.288,0.252c0,0-3.261-1.404-3.167-1.416c0.094-0.011,3.43,0.354,3.43,0.354l-3.287-1.753l3.432,0.354l-3.28-1.819
	l3.431,0.354l-3.286-1.753l3.431,0.354l-3.29-1.711l3.344,0.344"/>
<path fill="none" stroke="#FFFFFF" stroke-width="0.1193" stroke-linejoin="round" stroke-miterlimit="10" d="M145.819,173.577
	l3.118,0.167l-3.04-1.615c0,0,3.114,0.231,3.116,0.167c0.004-0.064-3.18-1.406-3.05-1.399s3.117,0.167,3.117,0.167l-3.062-1.27
	l3.121,0.167l-3.05-1.485l3.12,0.167l-3.057-1.356l3.12,0.167l-3.057-1.334l3.119,0.166l-3.06-1.268l3.125,0.058l-3.067-1.161
	l3.201,0.172l-3.141-1.296l3.12,0.167l-3.059-1.334l3.205,0.172l-3.137-1.427l3.126,0.082l-3.062-1.27l3.12,0.167
	c0,0-3.061-1.378-3.056-1.4c0.007-0.021,3.205,0.171,3.205,0.171s-3.231-1.344-3.139-1.359c0.091-0.017,3.287,0.176,3.287,0.176
	l-3.218-1.538l3.296,0.09c0,0-3.326-1.242-3.232-1.258c0.093-0.017,3.442,0.185,3.442,0.185l-3.368-1.589l3.444,0.185l-3.366-1.655
	l3.443,0.185l-3.368-1.589l3.444,0.185l-3.371-1.547l3.357,0.179"/>
<path fill="none" stroke="#FFFFFF" stroke-width="0.1193" stroke-linejoin="round" stroke-miterlimit="10" d="M145.366,203.773
	c-0.901-0.4-1.804-0.801-2.706-1.201c1.039,0.055,2.08,0.111,3.119,0.166c-1.02-0.444-2.038-0.889-3.058-1.333
	c1.041,0.055,2.08,0.11,3.12,0.166c-1.02-0.423-2.04-0.846-3.06-1.269c1.041,0.02,2.083,0.039,3.125,0.059
	c-1.023-0.387-2.045-0.774-3.067-1.161c1.067,0.058,2.135,0.114,3.201,0.171c-1.047-0.432-2.094-0.863-3.141-1.295
	c1.039,0.056,2.08,0.111,3.119,0.167c-1.019-0.445-2.038-0.89-3.059-1.335c1.069,0.058,2.138,0.114,3.206,0.172
	c-1.046-0.476-2.092-0.95-3.137-1.426c1.042,0.027,2.084,0.055,3.125,0.082c-1.02-0.424-2.04-0.847-3.061-1.271
	c1.04,0.056,2.08,0.111,3.12,0.167c-1.021-0.46-2.047-0.913-3.055-1.399c1.067,0.033,2.136,0.107,3.204,0.171
	c-1.052-0.438-2.118-0.859-3.139-1.36c1.097,0.037,2.192,0.11,3.286,0.177c-1.071-0.513-2.145-1.026-3.218-1.539
	c1.1,0.03,2.197,0.061,3.296,0.091c-1.081-0.405-2.179-0.791-3.231-1.259c1.147,0.038,2.295,0.116,3.442,0.185
	c-1.123-0.529-2.246-1.059-3.368-1.589c1.147,0.062,2.295,0.124,3.443,0.185c-1.122-0.551-2.243-1.104-3.365-1.654
	c1.146,0.061,2.296,0.122,3.443,0.184c-1.122-0.529-2.245-1.059-3.368-1.588c1.147,0.062,2.296,0.122,3.443,0.184
	c-1.123-0.516-2.246-1.03-3.37-1.546c1.119,0.06,2.238,0.118,3.356,0.179"/>
<path fill="none" stroke="#FFFFFF" stroke-width="0.1193" stroke-linejoin="round" stroke-miterlimit="10" d="M144.08,203.533
	c-0.325,0.931-0.651,1.863-0.978,2.795c-0.029-1.041-0.058-2.082-0.087-3.122c-0.36,1.052-0.723,2.103-1.082,3.153
	c-0.028-1.041-0.058-2.081-0.086-3.122c-0.34,1.052-0.679,2.103-1.018,3.153c-0.064-1.04-0.129-2.08-0.194-3.121
	c-0.303,1.051-0.606,2.102-0.909,3.151c-0.029-1.068-0.059-2.137-0.088-3.205c-0.346,1.079-0.691,2.157-1.038,3.235
	c-0.027-1.041-0.058-2.082-0.085-3.123c-0.361,1.053-0.721,2.104-1.083,3.156c-0.028-1.068-0.059-2.139-0.088-3.208
	c-0.389,1.081-0.778,2.161-1.167,3.241c-0.058-1.04-0.115-2.081-0.171-3.121c-0.34,1.05-0.681,2.103-1.02,3.153
	c-0.028-1.041-0.057-2.082-0.086-3.123c-0.375,1.055-0.745,2.113-1.147,3.158c-0.054-1.068-0.066-2.139-0.088-3.208
	c-0.353,1.083-0.687,2.181-1.104,3.238c-0.051-1.096-0.066-2.194-0.09-3.291c-0.424,1.109-0.849,2.221-1.272,3.333
	c-0.06-1.099-0.119-2.196-0.178-3.294c-0.315,1.111-0.611,2.236-0.992,3.324c-0.056-1.147-0.071-2.296-0.094-3.446
	c-0.438,1.162-0.875,2.323-1.312,3.485c-0.031-1.149-0.062-2.298-0.094-3.447c-0.458,1.163-0.92,2.325-1.378,3.489
	c-0.031-1.15-0.062-2.299-0.095-3.447c-0.438,1.16-0.874,2.323-1.311,3.484c-0.031-1.148-0.062-2.298-0.095-3.447
	c-0.424,1.161-0.846,2.322-1.27,3.484c-0.031-1.119-0.062-2.24-0.092-3.36"/>
<path fill="none" stroke="#FFFFFF" stroke-width="0.1193" stroke-linejoin="round" stroke-miterlimit="10" d="M124.291,203.533
	c-0.326,0.931-0.651,1.863-0.977,2.795c-0.03-1.041-0.058-2.082-0.087-3.122c-0.361,1.052-0.723,2.103-1.082,3.153
	c-0.028-1.041-0.058-2.081-0.087-3.122c-0.339,1.052-0.677,2.103-1.017,3.153c-0.064-1.04-0.129-2.08-0.194-3.121
	c-0.303,1.051-0.607,2.102-0.909,3.151c-0.03-1.068-0.059-2.137-0.089-3.205c-0.345,1.079-0.691,2.157-1.038,3.235
	c-0.027-1.041-0.058-2.082-0.085-3.123c-0.361,1.053-0.721,2.104-1.083,3.156c-0.028-1.068-0.058-2.139-0.087-3.208
	c-0.39,1.081-0.779,2.161-1.167,3.241c-0.057-1.04-0.115-2.081-0.17-3.121c-0.341,1.05-0.681,2.103-1.021,3.153
	c-0.028-1.041-0.057-2.082-0.085-3.123c-0.375,1.055-0.745,2.113-1.148,3.158c-0.054-1.068-0.066-2.139-0.088-3.208
	c-0.352,1.083-0.687,2.181-1.103,3.238c-0.052-1.096-0.066-2.194-0.091-3.291c-0.423,1.109-0.848,2.221-1.271,3.333
	c-0.06-1.099-0.119-2.196-0.178-3.294c-0.315,1.111-0.611,2.236-0.993,3.324c-0.054-1.147-0.07-2.296-0.094-3.446
	c-0.438,1.162-0.875,2.323-1.312,3.485c-0.032-1.149-0.063-2.298-0.094-3.447c-0.458,1.163-0.919,2.325-1.378,3.489
	c-0.031-1.15-0.063-2.299-0.095-3.447c-0.438,1.16-0.874,2.323-1.311,3.484c-0.032-1.148-0.062-2.298-0.095-3.447
	c-0.423,1.161-0.845,2.322-1.269,3.484c-0.031-1.119-0.062-2.24-0.093-3.36"/>
<path fill="none" stroke="#FFFFFF" stroke-width="0.1193" stroke-linejoin="round" stroke-miterlimit="10" d="M146.558,183.873
	c-0.543-0.27-1.085-0.54-1.619-0.822c1.067,0.071,2.133,0.184,3.197,0.286c-1.035-0.476-2.087-0.936-3.089-1.472
	c1.096,0.076,2.188,0.189,3.279,0.294c-1.053-0.552-2.107-1.102-3.161-1.653c1.097,0.07,2.193,0.139,3.29,0.209
	c-1.065-0.442-2.149-0.868-3.184-1.374c1.146,0.079,2.289,0.198,3.433,0.309c-1.103-0.569-2.206-1.14-3.309-1.709
	c1.145,0.103,2.289,0.206,3.436,0.309c-1.103-0.592-2.204-1.184-3.306-1.775c1.146,0.103,2.29,0.205,3.436,0.308
	c-1.104-0.569-2.206-1.139-3.31-1.708c1.146,0.103,2.291,0.205,3.437,0.308c-1.104-0.556-2.209-1.111-3.313-1.666
	c1.116,0.099,2.232,0.199,3.349,0.299"/>
<path fill="none" stroke="#FFFFFF" stroke-width="0.1193" stroke-linejoin="round" stroke-miterlimit="10" d="M94.269,72.943
	l-3.116,0.171l3.037-1.619c0,0-3.114,0.236-3.116,0.171c-0.004-0.065,3.178-1.411,3.047-1.404c-0.129,0.007-3.116,0.171-3.116,0.171
	l3.06-1.273l-3.121,0.171l3.048-1.489l-3.12,0.17l3.053-1.359l-3.118,0.17l3.055-1.337l-3.119,0.17l3.059-1.272l-3.125,0.062
	l3.065-1.165l-3.202,0.175l3.14-1.299l-3.12,0.171l3.056-1.338l-3.204,0.176l3.134-1.429l-3.125,0.084l3.06-1.273l-3.12,0.171
	c0,0,3.058-1.382,3.052-1.404c-0.006-0.021-3.204,0.176-3.204,0.176s3.23-1.348,3.138-1.364c-0.092-0.017-3.289,0.18-3.289,0.18
	l3.216-1.542l-3.295,0.093c0,0,3.324-1.245,3.23-1.262c-0.093-0.016-3.442,0.189-3.442,0.189l3.366-1.593l-3.444,0.189l3.364-1.659
	l-3.443,0.189l3.366-1.593l-3.444,0.189l3.369-1.551l-3.357,0.184"/>
<path fill="none" stroke="#FFFFFF" stroke-width="0.1193" stroke-linejoin="round" stroke-miterlimit="10" d="M95.985,98.103
	l-3.116,0.171l3.037-1.619c0,0-3.113,0.236-3.116,0.171c-0.003-0.065,3.178-1.411,3.048-1.404c-0.129,0.007-3.116,0.171-3.116,0.171
	l3.06-1.273l-3.121,0.171l3.049-1.489l-3.12,0.17l3.054-1.359l-3.12,0.17l3.056-1.337l-3.12,0.17l3.06-1.272l-3.125,0.062
	l3.065-1.165l-3.202,0.175l3.14-1.299l-3.119,0.171l3.055-1.338l-3.203,0.175l3.135-1.429L92.14,84.98l3.06-1.274l-3.12,0.171
	c0,0,3.058-1.382,3.052-1.403c-0.005-0.021-3.204,0.175-3.204,0.175s3.23-1.348,3.138-1.364c-0.092-0.017-3.289,0.18-3.289,0.18
	l3.216-1.542l-3.295,0.093c0,0,3.324-1.245,3.231-1.262c-0.093-0.016-3.442,0.189-3.442,0.189l3.366-1.593l-3.444,0.188l3.364-1.659
	l-3.443,0.189l3.366-1.593l-3.444,0.188l3.369-1.551l-3.356,0.183"/>
<path fill="none" stroke="#FFFFFF" stroke-width="0.1193" stroke-linejoin="round" stroke-miterlimit="10" d="M98.94,123.132
	l-3.104,0.321l2.956-1.763c0,0-3.099,0.385-3.104,0.321c-0.007-0.065,3.106-1.562,2.977-1.549s-3.105,0.321-3.105,0.321l2.996-1.419
	l-3.109,0.321l2.972-1.634l-3.107,0.321l2.985-1.505l-3.107,0.32l2.987-1.482l-3.108,0.32l2.995-1.418l-3.119,0.213l3.006-1.311
	l-3.189,0.33l3.074-1.45l-3.108,0.321l2.988-1.483l-3.191,0.33l3.062-1.579l-3.118,0.235l2.995-1.419l-3.108,0.321
	c0,0,2.989-1.527,2.982-1.549c-0.006-0.021-3.192,0.329-3.192,0.329s3.161-1.501,3.068-1.513c-0.092-0.013-3.275,0.338-3.275,0.338
	l3.139-1.696l-3.288,0.252c0,0,3.261-1.404,3.167-1.416c-0.093-0.011-3.429,0.354-3.429,0.354l3.286-1.753l-3.432,0.354l3.281-1.819
	l-3.431,0.354l3.286-1.753l-3.431,0.354l3.29-1.711l-3.344,0.344"/>
<path fill="none" stroke="#FFFFFF" stroke-width="0.1193" stroke-linejoin="round" stroke-miterlimit="10" d="M101.895,148.229
	l-3.104,0.321l2.956-1.764c0,0-3.098,0.386-3.104,0.321c-0.007-0.065,3.107-1.562,2.977-1.549c-0.129,0.013-3.105,0.32-3.105,0.32
	l2.997-1.419l-3.109,0.321l2.972-1.635l-3.107,0.321l2.985-1.505l-3.107,0.319l2.987-1.482l-3.108,0.32l2.995-1.419l-3.119,0.213
	l3.005-1.311l-3.189,0.329l3.073-1.449l-3.107,0.32l2.988-1.483l-3.191,0.33l3.062-1.579l-3.118,0.235l2.995-1.419l-3.108,0.32
	c0,0,2.989-1.527,2.982-1.549c-0.007-0.021-3.192,0.329-3.192,0.329s3.161-1.501,3.068-1.513c-0.091-0.013-3.275,0.338-3.275,0.338
	l3.138-1.695l-3.288,0.252c0,0,3.261-1.404,3.167-1.416c-0.093-0.011-3.429,0.354-3.429,0.354l3.286-1.753l-3.432,0.354l3.281-1.819
	l-3.432,0.354l3.287-1.753l-3.431,0.354l3.29-1.711l-3.345,0.344"/>
<path fill="none" stroke="#FFFFFF" stroke-width="0.1193" stroke-linejoin="round" stroke-miterlimit="10" d="M103.646,173.577
	l-3.118,0.167l3.038-1.615c0,0-3.113,0.231-3.116,0.167c-0.003-0.064,3.18-1.406,3.051-1.399c-0.13,0.007-3.118,0.167-3.118,0.167
	l3.063-1.27l-3.122,0.167l3.049-1.485l-3.12,0.167l3.056-1.356l-3.119,0.167l3.056-1.334l-3.119,0.166l3.06-1.268l-3.125,0.058
	l3.067-1.161l-3.202,0.172l3.141-1.296l-3.12,0.167l3.059-1.334l-3.205,0.172l3.136-1.427l-3.125,0.082l3.061-1.27l-3.119,0.167
	c0,0,3.06-1.378,3.055-1.4c-0.006-0.021-3.205,0.171-3.205,0.171s3.231-1.344,3.138-1.359c-0.09-0.017-3.287,0.176-3.287,0.176
	l3.218-1.538l-3.296,0.09c0,0,3.326-1.242,3.232-1.258c-0.093-0.017-3.442,0.185-3.442,0.185l3.368-1.589l-3.444,0.185l3.366-1.655
	l-3.444,0.185l3.369-1.589l-3.445,0.185l3.371-1.547l-3.357,0.179"/>
<path fill="none" stroke="#FFFFFF" stroke-width="0.1193" stroke-linejoin="round" stroke-miterlimit="10" d="M104.098,203.773
	c0.902-0.4,1.804-0.801,2.707-1.201c-1.039,0.055-2.08,0.111-3.119,0.166c1.019-0.444,2.038-0.889,3.056-1.333
	c-1.04,0.055-2.079,0.11-3.119,0.166c1.02-0.423,2.041-0.846,3.061-1.269c-1.042,0.02-2.084,0.039-3.125,0.059
	c1.023-0.387,2.045-0.774,3.067-1.161c-1.067,0.058-2.134,0.114-3.201,0.171c1.047-0.432,2.094-0.863,3.141-1.295
	c-1.04,0.056-2.08,0.111-3.12,0.167c1.02-0.445,2.039-0.89,3.059-1.335c-1.068,0.058-2.137,0.114-3.206,0.172
	c1.046-0.476,2.092-0.95,3.137-1.426c-1.042,0.027-2.084,0.055-3.125,0.082c1.02-0.424,2.04-0.847,3.061-1.271
	c-1.041,0.056-2.08,0.111-3.12,0.167c1.021-0.46,2.046-0.913,3.056-1.399c-1.07,0.033-2.137,0.107-3.206,0.171
	c1.052-0.438,2.119-0.859,3.139-1.36c-1.097,0.037-2.192,0.11-3.288,0.177c1.073-0.513,2.146-1.026,3.219-1.539
	c-1.099,0.03-2.197,0.061-3.296,0.091c1.082-0.405,2.179-0.791,3.232-1.259c-1.148,0.038-2.295,0.116-3.441,0.185
	c1.122-0.529,2.245-1.059,3.366-1.589c-1.146,0.062-2.295,0.124-3.443,0.185c1.122-0.551,2.244-1.104,3.366-1.654
	c-1.148,0.061-2.295,0.122-3.444,0.184c1.122-0.529,2.245-1.059,3.368-1.588c-1.148,0.062-2.296,0.122-3.444,0.184
	c1.124-0.516,2.247-1.03,3.371-1.546c-1.119,0.06-2.238,0.118-3.357,0.179"/>
<path fill="none" stroke="#FFFFFF" stroke-width="0.1193" stroke-linejoin="round" stroke-miterlimit="10" d="M102.907,183.873
	c0.543-0.27,1.084-0.54,1.619-0.822c-1.067,0.071-2.133,0.184-3.197,0.286c1.035-0.476,2.086-0.936,3.088-1.472
	c-1.095,0.076-2.188,0.189-3.279,0.294c1.053-0.552,2.108-1.102,3.161-1.653c-1.097,0.07-2.193,0.139-3.29,0.209
	c1.065-0.442,2.15-0.868,3.185-1.374c-1.146,0.079-2.29,0.198-3.433,0.309c1.103-0.569,2.206-1.14,3.309-1.709
	c-1.145,0.103-2.29,0.206-3.436,0.309c1.103-0.592,2.204-1.184,3.306-1.775c-1.145,0.103-2.29,0.205-3.436,0.308
	c1.104-0.569,2.207-1.139,3.31-1.708c-1.145,0.103-2.291,0.205-3.436,0.308c1.104-0.556,2.209-1.111,3.313-1.666
	c-1.116,0.099-2.232,0.199-3.349,0.299"/>
<path fill="none" stroke="#FFFFFF" stroke-width="0.1193" stroke-linejoin="round" stroke-miterlimit="10" d="M157.785,45.599
	c-0.002,0.627-0.005,1.256-0.009,1.883c0.127-0.306,0.285-0.613,0.385-0.929"/>
<path fill="none" stroke="#FFFFFF" stroke-width="0.1193" stroke-linejoin="round" stroke-miterlimit="10" d="M140.934,44.192
	c0,1.04,0,2.081,0,3.121c0.483-1.04,0.967-2.081,1.45-3.121c-0.021,1.038-0.065,2.086,0,3.121c0.459-1.018,0.798-2.096,1.234-3.121
	c0,1.04,0,2.081,0,3.121c0.368-1.042,0.736-2.083,1.104-3.125c0,1.042,0,2.083,0,3.125c0.439-1.042,0.881-2.083,1.32-3.125
	c0,1.042,0,2.083,0,3.125c0.397-1.042,0.794-2.083,1.19-3.125c0,1.042,0,2.083,0,3.125c0.39-1.042,0.779-2.083,1.169-3.125
	c0,1.042,0,2.083,0,3.125c0.368-1.042,0.736-2.083,1.104-3.125c0.037,1.042,0.072,2.083,0.109,3.125
	c0.331-1.042,0.664-2.083,0.995-3.125c0,1.069,0,2.138,0,3.208c0.376-1.069,0.751-2.138,1.126-3.208c0,1.042,0,2.083,0,3.125
	c0.39-1.042,0.779-2.083,1.169-3.125c0,1.069,0,2.138,0,3.208c0.419-1.069,0.837-2.138,1.256-3.208
	c0.028,1.042,0.058,2.083,0.086,3.125c0.368-1.042,0.735-2.083,1.104-3.125c0,1.042,0,2.083,0,3.125
	c0.404-1.044,0.803-2.092,1.234-3.125c0.023,1.069,0.007,2.139,0,3.208c0.32-0.901,0.643-1.801,0.977-2.697"/>
</svg>
