<?xml version="1.0" encoding="utf-8"?>
<!-- Generator: Adobe Illustrator 16.0.0, SVG Export Plug-In . SVG Version: 6.00 Build 0)  -->
<!DOCTYPE svg PUBLIC "-//W3C//DTD SVG 1.1//EN" "http://www.w3.org/Graphics/SVG/1.1/DTD/svg11.dtd">
<svg version="1.1" id="Capa_1" xmlns="http://www.w3.org/2000/svg" xmlns:xlink="http://www.w3.org/1999/xlink" x="0px" y="0px"
	 width="250px" height="250px" viewBox="0 0 250 250" enable-background="new 0 0 250 250" xml:space="preserve">
<pattern  x="0.5" y="250.5" width="72" height="72" patternUnits="userSpaceOnUse" id="_x36__lpp_20_x25_" viewBox="24 -72 72 72" overflow="visible">
	<g>
		<polygon fill="none" points="24,0 24,-72 96,-72 96,0 		"/>
		<line fill="none" stroke="#1D1D1B" stroke-width="2.4" x1="23.75" y1="-6" x2="96.25" y2="-6"/>
		<line fill="none" stroke="#1D1D1B" stroke-width="2.4" x1="23.75" y1="-30" x2="96.25" y2="-30"/>
		<line fill="none" stroke="#1D1D1B" stroke-width="2.4" x1="23.75" y1="-54" x2="96.25" y2="-54"/>
		<line fill="none" stroke="#1D1D1B" stroke-width="2.4" x1="0" y1="-54" x2="16.5" y2="-54"/>
		<line fill="none" stroke="#1D1D1B" stroke-width="2.4" x1="23.75" y1="-18" x2="96.25" y2="-18"/>
		<line fill="none" stroke="#1D1D1B" stroke-width="2.4" x1="23.75" y1="-42" x2="96.25" y2="-42"/>
		<line fill="none" stroke="#1D1D1B" stroke-width="2.4" x1="23.75" y1="-66" x2="96.25" y2="-66"/>
		<line fill="none" stroke="#1D1D1B" stroke-width="2.4" x1="0" y1="-66" x2="16.5" y2="-66"/>
	</g>
</pattern>
<g>
	
		<path fill="#0280A2" stroke="#0280A2" stroke-width="1.0879" stroke-linecap="round" stroke-linejoin="round" stroke-miterlimit="10" stroke-dasharray="2.8574" d="
		M124.998,210.948c42.348,0,76.683-34.331,76.683-76.684V106.91V86.883V59.554c0-11.321-9.176-20.502-20.497-20.502H68.816
		c-11.321,0-20.498,9.181-20.498,20.502v27.329v20.027v27.354C48.319,176.617,82.65,210.948,124.998,210.948z"/>
	
		<pattern  id="SVGID_1_" xlink:href="#_x36__lpp_20_x25_" patternTransform="matrix(0.0628 -0.0628 0.0628 0.0628 -6628.4922 -8305.9834)">
	</pattern>
	<path opacity="0.3" fill="url(#SVGID_1_)" d="M124.998,210.948c42.348,0,76.683-34.331,76.683-76.684V106.91V86.883V59.554
		c0-11.321-9.176-20.502-20.497-20.502H68.816c-11.321,0-20.498,9.181-20.498,20.502v27.329v20.027v27.354
		C48.319,176.617,82.65,210.948,124.998,210.948z"/>
	<g>
		
			<path fill="none" stroke="#292A1F" stroke-width="1.4505" stroke-linecap="round" stroke-linejoin="round" stroke-miterlimit="10" d="
			M125.155,208.093c40.942,0,74.131-33.192,74.131-74.135v-26.444v-19.36V61.729c0-10.946-8.87-19.819-19.815-19.819H70.844
			c-10.95,0-19.823,8.873-19.823,19.819v26.425v19.36v26.444C51.021,174.9,84.213,208.093,125.155,208.093z"/>
	</g>
	<g>
		
			<path fill="none" stroke="#292A1F" stroke-width="1.4505" stroke-linecap="round" stroke-linejoin="round" stroke-miterlimit="10" d="
			M178.837,111.303c-0.715,0-52.954-17.178-57.009-17.416c-4.059-0.24-54.393,15.984-54.393,15.984"/>
		
			<path fill="none" stroke="#292A1F" stroke-width="1.4505" stroke-linecap="round" stroke-linejoin="round" stroke-miterlimit="10" d="
			M151.404,147.085c0,0,1.191-33.155-13.837-40.078c-15.029-6.921-31.492-6.678-41.27,4.295
			c-9.778,10.972-6.672,35.782-6.672,35.782"/>
		
			<path fill="none" stroke="#292A1F" stroke-width="1.4505" stroke-linecap="round" stroke-linejoin="round" stroke-miterlimit="10" d="
			M141.86,145.889c0,0-0.715-8.824-2.625-18.364c-1.906-9.543-9.54-22.904-21.229-24.932"/>
		
			<path fill="none" stroke="#292A1F" stroke-width="1.4505" stroke-linecap="round" stroke-linejoin="round" stroke-miterlimit="10" d="
			M92.444,117.684c-0.206,0.507-14.512,5.307-14.512,5.307l-12.646-2.66"/>
		
			<path fill="none" stroke="#292A1F" stroke-width="1.4505" stroke-linecap="round" stroke-linejoin="round" stroke-miterlimit="10" d="
			M75.784,149.472c-0.715,0,2.149-26.48,2.149-26.48"/>
		
			<path fill="none" stroke="#292A1F" stroke-width="1.4505" stroke-linecap="round" stroke-linejoin="round" stroke-miterlimit="10" d="
			M183.85,93.17c0.819-4.182-6.1-5.457-5.445-0.967c2.174-2.464-2.334-5.174-3.643-1.735c-0.662-0.37-1.842-0.543-2.326-0.838
			c-0.17,0.265,0.093,0.614-0.009,0.864c-0.981-1.918-2.313-1.68-2.94,0.234c-1.046-1.173-1.082-0.545-2.31-1.103
			c-0.024-0.008,0.004,0.605-0.036,0.634c-0.78-0.957-1.592-0.707-2.392-1.119c-0.036,1.079-0.529,0.961-0.193,2.125
			c-0.897-1.71-3.963-1.583-3.579,0.996c-0.993-1.913-2.791-2.04-3.114,0.121c-1.732-1.517-3.113,0.097-2.192,2.128
			c-1.019-3.445-4.516-0.895-2.424,2.007c-1.668-2.544-4.188-1.226-2.859,1.624c-1.919-1.04-1.967-0.313-2.561,1.032
			c-0.4-0.537-0.662-0.25-1.394-0.719c-0.271,0.874,0.291,1.159,0.44,1.631"/>
		
			<path fill="none" stroke="#292A1F" stroke-width="1.4505" stroke-linecap="round" stroke-linejoin="round" stroke-miterlimit="10" d="
			M183.85,99.133c-1.822-2.569-8.349-2.023-6.244,1.171c-0.574-2.698-10.599-0.186-8.773,2.706c-0.322-1.05-0.061-0.398-1.188-1.22
			c-0.229,1.05,0.037,1.922,0.461,2.593"/>
		
			<path fill="none" stroke="#292A1F" stroke-width="1.4505" stroke-linecap="round" stroke-linejoin="round" stroke-miterlimit="10" d="
			M187.189,104.384c-1.81-0.505-8.304,0.864-5.521,3.063c-0.917-1.095-2.063-0.881-2.859,0.477c-1.656-0.042-6.834,0.422-4.98,1.947
			"/>
		
			<path fill="none" stroke="#292A1F" stroke-width="1.4505" stroke-linecap="round" stroke-linejoin="round" stroke-miterlimit="10" d="
			M189.096,125.14c-2.145-1.6-7.569-1.506-5.949,2.424c0.04-3.636-5.792-0.125-5.808,2.98c-2.917-0.978-3.623,2.528-1.422,3.878
			c-2.791-1.7-4.508,1.438-2.872,3.748c-2.27,0.274-4.471,2.266-3.098,4.548c-1.887,0.626-2.161,2.678-0.921,4.043
			c-0.501-0.117-1.22,0.028-1.64-0.089c-0.501,1.264-0.246,2.516,0.694,3.461c-2.698,1.204,0.38,4.237,1.454,1.482"/>
		
			<path fill="none" stroke="#292A1F" stroke-width="1.4505" stroke-linecap="round" stroke-linejoin="round" stroke-miterlimit="10" d="
			M137.806,127.524c-1.979-2.667-7.876-1.191-5.267,1.15c-1.834-1.688-4.132,0.041-3.74,2.509c-2.799-1.454-6.854,2.1-3.732,3.76
			c0.174,0.017-1.054-0.327-0.82-0.182c-0.267,1.002,0.586,1.337,0.679,1.826"/>
		
			<path fill="none" stroke="#292A1F" stroke-width="1.4505" stroke-linecap="round" stroke-linejoin="round" stroke-miterlimit="10" d="
			M127.074,108.201c-2.246-0.605-7.052-0.402-4.443,3.086c-1.357-2.13-4.896-0.551-3.987,2.086
			c-2.463-0.875-4.491,1.258-2.851,3.397c-1.975-1.285-4.791-1.48-3.76,1.407c-1.753-0.266-5.853-0.799-4.225,1.85
			c-1.878-0.658-3.461,0.247-3.675,2.215c-2.072-0.375-3.704,1.44-2.128,3.045c-1.478-1.107-2.678-0.802-2.884,1.004
			c-0.578-0.008-1.252,0.134-1.833,0.077c-0.049,2.375-2.924,1.337-2.27,4.1c-0.473,0.238-0.905,0.448-1.341,0.634"/>
		
			<path fill="none" stroke="#292A1F" stroke-width="1.4505" stroke-linecap="round" stroke-linejoin="round" stroke-miterlimit="10" d="
			M89.855,136.106c9.479-6.082,21.879-4.726,32.004-1.029c3.958,1.441,6.826,4.701,10.772,5.997
			c2.778,0.921,8.441,0.166,9.471,3.627"/>
		
			<path fill="none" stroke="#292A1F" stroke-width="1.4505" stroke-linecap="round" stroke-linejoin="round" stroke-miterlimit="10" d="
			M160.468,155.194c-2.896-1.878-4.648-8.271-8.078-8.606c-1.365-0.142-2.589,1.604-3.986,1.757
			c-1.825,0.198-3.271-1.297-4.951-1.256c-3.902,0.097-2.804,1.955-3.882,5.036c-0.86,2.46-3.187,4.366-2.952,7.129"/>
		
			<path fill="none" stroke="#292A1F" stroke-width="1.4505" stroke-linecap="round" stroke-linejoin="round" stroke-miterlimit="10" d="
			M108.939,169.509c-3.381-5.251-7.561-16.737-14.02-18.91c-4.475-1.507-10.069,0.403-12.734,4.055
			c-2.638,3.611-2.476,5.51-7.46,4.398c-4.879-1.086-8.224-1.914-12.731,1.446"/>
		
			<path fill="none" stroke="#292A1F" stroke-width="1.4505" stroke-linecap="round" stroke-linejoin="round" stroke-miterlimit="10" d="
			M104.65,169.985c-1.341-1.078-2.145-4.022-3.675-4.584c-2.65-0.97-3.421,2.286-5.582,2.464c-2.326,0.186-4.035-2.698-6.878-1.641
			c-5.315,1.976-3.057,8.256-6.765,10.441"/>
		
			<path fill="none" stroke="#292A1F" stroke-width="1.4505" stroke-linecap="round" stroke-linejoin="round" stroke-miterlimit="10" d="
			M112.279,177.857c0.727-5.429,9.318-6.034,13.228-4.936c3.134,0.88,7.052,3.441,10.134,3.764c3.239,0.336,6.208-1.515,9.322-2.419
			c1.829-0.525,4.131-0.355,5.852-0.675c3.946-0.723,6.652,0.477,10.32,0.21c-0.618,0-1.24,0.028-1.858,0"/>
		
			<path fill="none" stroke="#292A1F" stroke-width="1.4505" stroke-linecap="round" stroke-linejoin="round" stroke-miterlimit="10" d="
			M138.763,165.454c-0.61,0.734-3.994-0.183-5.816-0.429c-0.908-0.125-2.104,0.178-2.948-0.061
			c-1.604-0.448-2.092-1.717-3.328-2.201c-4.232-1.652-6.915,0.622-11.05,2.929"/>
		
			<path fill="none" stroke="#292A1F" stroke-width="1.4505" stroke-linecap="round" stroke-linejoin="round" stroke-miterlimit="10" d="
			M112.518,159.012c1.777-4.742,15.901-3.611,19.517-0.42c-0.359-0.081-0.796,0.036-1.144-0.061"/>
		
			<path fill="none" stroke="#292A1F" stroke-width="1.4505" stroke-linecap="round" stroke-linejoin="round" stroke-miterlimit="10" d="
			M107.986,152.335c1.927-7.904,8.114-4.019,13.042-2.665c2.791,0.763,6.616,1.191,9.568,0.517c-0.25-0.238-0.683-0.263-1.139-0.477
			"/>
		
			<path fill="none" stroke="#292A1F" stroke-width="1.4505" stroke-linecap="round" stroke-linejoin="round" stroke-miterlimit="10" d="
			M100.829,141.357c-0.432-0.344,3.934-2.072,5.444-2.358c3.603-0.691,4.483,1.175,7.658,2.031c3.918,1.05,8.466-0.028,12.428,1.042
			"/>
		
			<path fill="none" stroke="#292A1F" stroke-width="1.4505" stroke-linecap="round" stroke-linejoin="round" stroke-miterlimit="10" d="
			M188.857,160.203c-8.106-8.805-16.043-5.792-25.582-2.363c-3.345,1.204-4.787-0.186-6.172,3.146
			c-0.856,2.076-0.408,5.154,0.234,7.271c-0.368,0.238-0.775,0.355-1.163,0.537"/>
		
			<path fill="none" stroke="#292A1F" stroke-width="1.4505" stroke-linecap="round" stroke-linejoin="round" stroke-miterlimit="10" d="
			M158.565,154.003c-4.956-0.812-7.137,1.507-11.357,3.114c-2.027,0.775-2.778-0.703-4.217,1.757
			c-1.127,1.915-1.042,8.478,1.972,7.771"/>
		
			<path fill="none" stroke="#292A1F" stroke-width="1.4505" stroke-linecap="round" stroke-linejoin="round" stroke-miterlimit="10" d="
			M188.381,147.804c-1.741-3.405-8.72-4.657-7.634,0.513c-0.989-3.162-4.232-0.565-4.313,1.838c-2.25,0.25-2.428,3.134-0.937,4.35
			c0.004,0,0.444-0.311,0.444-0.311c0.278-0.654-0.433-0.533-0.444-0.905"/>
		
			<path fill="none" stroke="#292A1F" stroke-width="1.4505" stroke-linecap="round" stroke-linejoin="round" stroke-miterlimit="10" d="
			M165.238,147.565c-2.734,0.347-4.686,0.812-6.435,3.098"/>
		
			<path fill="none" stroke="#292A1F" stroke-width="1.4505" stroke-linecap="round" stroke-linejoin="round" stroke-miterlimit="10" d="
			M145.678,160.441c2.734-0.578,3.966-0.274,6.131,0.153c1.288,0.251,2.398,1.224,3.89,0.565"/>
		
			<path fill="none" stroke="#292A1F" stroke-width="1.4505" stroke-linecap="round" stroke-linejoin="round" stroke-miterlimit="10" d="
			M159.995,159.727c2.108,0.081,3.846-0.643,6.07-0.013c2.133,0.61,3.922,2.804,5.735,3.611c2.517,1.127,1.099,1.131,4.29-0.267
			c1.769-0.768,3.017-1.874,5.117-1.43c0.25-0.896-0.283-0.783-0.699-1.188"/>
		
			<path fill="none" stroke="#292A1F" stroke-width="1.4505" stroke-linecap="round" stroke-linejoin="round" stroke-miterlimit="10" d="
			M85.562,118.456c-0.424-1.765-2.06-4.946-3.599-2.573c-0.254-1.547-8.228-0.976-9.524,1.184c-2.383-0.808-2.298,2.365-2.864,3.776
			"/>
		
			<path fill="none" stroke="#292A1F" stroke-width="1.4505" stroke-linecap="round" stroke-linejoin="round" stroke-miterlimit="10" d="
			M99.638,98.895c-1.066-4.299-12.727-5.325-11.963-1.026c-2.791-4.404-8.171,0.602-9.306,3.897
			c-2.589-1.108-7.032-1.684-6.898,2.343c-3.595,1.515-1.765,5.444-1.41,5.047"/>
		
			<path fill="none" stroke="#292A1F" stroke-width="1.4505" stroke-linecap="round" stroke-linejoin="round" stroke-miterlimit="10" d="
			M168.582,112.732c-1.386-1.882-8.009-3.629-6.24-0.075c-1.409-0.616-6.159-0.45-5.966,2.25c0.243,3.318,5.421,1.159,7.028,1.222
			c2.169,0.087,4.306,2.34,5.953-0.261c1.099-1.727,0.271-3.704-1.732-3.855"/>
		
			<path fill="none" stroke="#292A1F" stroke-width="1.4505" stroke-linecap="round" stroke-linejoin="round" stroke-miterlimit="10" d="
			M125.641,125.373c-4.068-1.755-6.507-1.343-10.385-0.337c-1.325,0.347,0.247,1.402,0.352,1.476
			c-0.63-5.424-8.284-1.849-5.986,2.637c-2.326,1.777,1.046,3.704,2.423,2.432"/>
		
			<path fill="none" stroke="#292A1F" stroke-width="1.4505" stroke-linecap="round" stroke-linejoin="round" stroke-miterlimit="10" d="
			M190.529,170.704c-5.189-2.023-19.625-3.699-18.644,5.679c-1.49,0.424-2.948,0.654-4.499,0.756"/>
	</g>
	<g>
		
			<line fill="none" stroke="#EAE5E1" stroke-width="1.4505" stroke-linecap="round" stroke-linejoin="round" stroke-miterlimit="10" x1="65.266" y1="63.928" x2="60.206" y2="65.435"/>
		
			<line fill="none" stroke="#EAE5E1" stroke-width="1.4505" stroke-linecap="round" stroke-linejoin="round" stroke-miterlimit="10" x1="65.266" y1="67.127" x2="60.206" y2="68.633"/>
		
			<line fill="none" stroke="#EAE5E1" stroke-width="1.4505" stroke-linecap="round" stroke-linejoin="round" stroke-miterlimit="10" x1="88.93" y1="63.385" x2="83.87" y2="64.892"/>
		
			<line fill="none" stroke="#EAE5E1" stroke-width="1.4505" stroke-linecap="round" stroke-linejoin="round" stroke-miterlimit="10" x1="112.194" y1="63.789" x2="107.138" y2="65.295"/>
		
			<line fill="none" stroke="#EAE5E1" stroke-width="1.4505" stroke-linecap="round" stroke-linejoin="round" stroke-miterlimit="10" x1="112.194" y1="66.878" x2="107.138" y2="68.381"/>
		
			<line fill="none" stroke="#EAE5E1" stroke-width="1.4505" stroke-linecap="round" stroke-linejoin="round" stroke-miterlimit="10" x1="112.461" y1="70.568" x2="107.4" y2="72.077"/>
		
			<line fill="none" stroke="#EAE5E1" stroke-width="1.4505" stroke-linecap="round" stroke-linejoin="round" stroke-miterlimit="10" x1="65.266" y1="71.628" x2="60.206" y2="73.135"/>
		
			<line fill="none" stroke="#EAE5E1" stroke-width="1.4505" stroke-linecap="round" stroke-linejoin="round" stroke-miterlimit="10" x1="76.923" y1="63.928" x2="72.088" y2="70.594"/>
		
			<line fill="none" stroke="#EAE5E1" stroke-width="1.4505" stroke-linecap="round" stroke-linejoin="round" stroke-miterlimit="10" x1="76.648" y1="69.391" x2="72.763" y2="63.995"/>
		
			<line fill="none" stroke="#EAE5E1" stroke-width="1.4505" stroke-linecap="round" stroke-linejoin="round" stroke-miterlimit="10" x1="60.993" y1="72.238" x2="60.723" y2="65.59"/>
		
			<line fill="none" stroke="#EAE5E1" stroke-width="1.4505" stroke-linecap="round" stroke-linejoin="round" stroke-miterlimit="10" x1="87.097" y1="70.568" x2="86.834" y2="63.928"/>
		
			<line fill="none" stroke="#EAE5E1" stroke-width="1.4505" stroke-linecap="round" stroke-linejoin="round" stroke-miterlimit="10" x1="107.808" y1="71.701" x2="107.546" y2="65.061"/>
		
			<line fill="none" stroke="#EAE5E1" stroke-width="1.4505" stroke-linecap="round" stroke-linejoin="round" stroke-miterlimit="10" x1="118.322" y1="71.701" x2="118.055" y2="65.061"/>
		<g>
			
				<line fill="none" stroke="#EAE5E1" stroke-width="1.4505" stroke-linecap="round" stroke-linejoin="round" stroke-miterlimit="10" x1="126.146" y1="71.323" x2="125.879" y2="64.682"/>
		</g>
		<g>
			
				<path fill="none" stroke="#EAE5E1" stroke-width="1.4505" stroke-linecap="round" stroke-linejoin="round" stroke-miterlimit="10" d="
				M95.167,71.035c0.032-0.087,0-6.739,0-6.739s3.897-1.305,4.867-0.368c0.965,0.939-0.799,4.235-4.354,4.319l5.263,2.787"/>
		</g>
		<g>
			
				<path fill="none" stroke="#EAE5E1" stroke-width="1.4505" stroke-linecap="round" stroke-linejoin="round" stroke-miterlimit="10" d="
				M167.782,71.598c0.024-0.087,0-6.739,0-6.739s3.894-1.309,4.863-0.37c0.961,0.939-0.8,4.235-4.354,4.319l5.263,2.789"/>
		</g>
		
			<polyline fill="none" stroke="#EAE5E1" stroke-width="1.4505" stroke-linecap="round" stroke-linejoin="round" stroke-miterlimit="10" points="
			118.322,64.839 121.86,68.702 125.879,64.213 		"/>
		
			<path fill="none" stroke="#EAE5E1" stroke-width="1.4505" stroke-linecap="round" stroke-linejoin="round" stroke-miterlimit="10" d="
			M142.668,64.558l0.485,6.765c0,0,5.004-0.402,4.972-4.097C148.101,63.528,142.668,64.558,142.668,64.558z"/>
		
			<path fill="none" stroke="#EAE5E1" stroke-width="1.4505" stroke-linecap="round" stroke-linejoin="round" stroke-miterlimit="10" d="
			M155.003,65.633c0,0-0.876,6.206,1.938,5.828c2.812-0.378,3.179-6.198,3.179-6.198"/>
		<g>
			<g>
				
					<polyline fill="none" stroke="#EAE5E1" stroke-width="1.4505" stroke-linecap="round" stroke-linejoin="round" stroke-miterlimit="10" points="
					131.076,70.704 133.076,64.364 136.186,70.041 				"/>
			</g>
			
				<line fill="none" stroke="#EAE5E1" stroke-width="1.4505" stroke-linecap="round" stroke-linejoin="round" stroke-miterlimit="10" x1="136.513" y1="68.484" x2="131.452" y2="69.991"/>
		</g>
		<g>
			<g>
				
					<polyline fill="none" stroke="#EAE5E1" stroke-width="1.4505" stroke-linecap="round" stroke-linejoin="round" stroke-miterlimit="10" points="
					183.013,70.704 185.013,64.364 188.126,70.041 				"/>
			</g>
			
				<line fill="none" stroke="#EAE5E1" stroke-width="1.4505" stroke-linecap="round" stroke-linejoin="round" stroke-miterlimit="10" x1="188.453" y1="68.484" x2="183.396" y2="69.991"/>
		</g>
	</g>
	
		<path fill="none" stroke="#292A1F" stroke-width="1.4505" stroke-linecap="round" stroke-linejoin="round" stroke-miterlimit="10" d="
		M60.993,58.092c0.65-0.226,62.777,0,72.987,0c10.219,0,55.713-0.101,55.713-0.101"/>
	
		<path fill="none" stroke="#292A1F" stroke-width="1.4505" stroke-linecap="round" stroke-linejoin="round" stroke-miterlimit="10" d="
		M189.693,77.691c-0.654,0.22-62.781,0-72.991,0c-10.214,0-55.709,0.093-55.709,0.093"/>
</g>
</svg>
