<?xml version="1.0" encoding="utf-8"?>
<!-- Generator: Adobe Illustrator 16.0.0, SVG Export Plug-In . SVG Version: 6.00 Build 0)  -->
<!DOCTYPE svg PUBLIC "-//W3C//DTD SVG 1.1//EN" "http://www.w3.org/Graphics/SVG/1.1/DTD/svg11.dtd">
<svg version="1.1" id="Capa_1" xmlns="http://www.w3.org/2000/svg" xmlns:xlink="http://www.w3.org/1999/xlink" x="0px" y="0px"
	 width="250px" height="250px" viewBox="0 0 250 250" enable-background="new 0 0 250 250" xml:space="preserve">
<g>
	<path fill="#FFFFFD" d="M191.414,126.093c0,37.012-30,67.015-67.01,67.015c-37.014,0-67.017-30.003-67.017-67.015
		c0-37.013,30.003-67.015,67.017-67.015C161.414,59.078,191.414,89.08,191.414,126.093z"/>
	<g>
		<g>
			<path fill="#3F3839" d="M125.002,196.132c-39.226,0-71.131-31.909-71.131-71.132c0-39.225,31.905-71.132,71.131-71.132
				c39.218,0,71.127,31.907,71.127,71.132C196.129,164.223,164.22,196.132,125.002,196.132z M125.002,61.319
				c-35.116,0-63.684,28.566-63.684,63.681c0,35.116,28.568,63.681,63.684,63.681c35.111,0,63.676-28.564,63.676-63.681
				C188.678,89.885,160.113,61.319,125.002,61.319z"/>
		</g>
		<g>
			<defs>
				<path id="SVGID_1_" d="M184.634,125c0,32.935-26.702,59.633-59.632,59.633c-32.937,0-59.636-26.698-59.636-59.633
					c0-32.934,26.699-59.633,59.636-59.633C157.932,65.367,184.634,92.066,184.634,125z"/>
			</defs>
			<clipPath id="SVGID_2_">
				<use xlink:href="#SVGID_1_"  overflow="visible"/>
			</clipPath>
			<g clip-path="url(#SVGID_2_)">
				
					<rect x="66.186" y="125.864" fill-rule="evenodd" clip-rule="evenodd" fill="#F4F2EE" stroke="#F4F2EE" stroke-width="0.6129" stroke-miterlimit="10" width="115.095" height="112.312"/>
				<polygon opacity="0.5" fill-rule="evenodd" clip-rule="evenodd" fill="#CA3831" points="73.01,125.864 73.943,239.46 
					77.976,239.46 77.976,125.864 				"/>
				<polygon opacity="0.5" fill-rule="evenodd" clip-rule="evenodd" fill="#CA3831" points="84.8,125.864 85.729,239.46 
					89.763,239.46 89.763,125.864 				"/>
				<polygon opacity="0.5" fill-rule="evenodd" clip-rule="evenodd" fill="#CA3831" points="96.9,125.864 97.829,239.46 
					101.862,239.46 101.862,125.864 				"/>
				<polygon opacity="0.5" fill-rule="evenodd" clip-rule="evenodd" fill="#CA3831" points="109.31,125.864 110.239,239.46 
					114.275,239.46 114.275,125.864 				"/>
				<polygon opacity="0.5" fill-rule="evenodd" clip-rule="evenodd" fill="#CA3831" points="121.096,125.864 122.025,239.46 
					126.059,239.46 126.059,125.864 				"/>
				<polygon opacity="0.5" fill-rule="evenodd" clip-rule="evenodd" fill="#CA3831" points="133.195,125.864 134.125,239.46 
					138.158,239.46 138.158,125.864 				"/>
				<polygon opacity="0.5" fill-rule="evenodd" clip-rule="evenodd" fill="#CA3831" points="145.295,125.864 146.225,239.46 
					150.258,239.46 150.258,125.864 				"/>
				<polygon opacity="0.5" fill-rule="evenodd" clip-rule="evenodd" fill="#CA3831" points="157.082,125.864 158.015,239.46 
					162.048,239.46 162.048,125.864 				"/>
				<polygon opacity="0.5" fill-rule="evenodd" clip-rule="evenodd" fill="#CA3831" points="169.182,125.864 170.11,239.46 
					174.145,239.46 174.145,125.864 				"/>
				<polygon opacity="0.5" fill-rule="evenodd" clip-rule="evenodd" fill="#CA3831" points="65.53,232.009 181.938,231.101 
					181.938,227.163 65.53,227.163 				"/>
				<polygon opacity="0.5" fill-rule="evenodd" clip-rule="evenodd" fill="#CA3831" points="65.53,220.502 181.938,219.596 
					181.938,215.66 65.53,215.66 				"/>
				<polygon opacity="0.5" fill-rule="evenodd" clip-rule="evenodd" fill="#CA3831" points="65.53,208.697 181.938,207.787 
					181.938,203.852 65.53,203.852 				"/>
				<polygon opacity="0.5" fill-rule="evenodd" clip-rule="evenodd" fill="#CA3831" points="65.53,196.591 181.938,195.681 
					181.938,191.745 65.53,191.745 				"/>
				<polygon opacity="0.5" fill-rule="evenodd" clip-rule="evenodd" fill="#CA3831" points="65.53,185.085 181.938,184.178 
					181.938,180.242 65.53,180.242 				"/>
				<polygon opacity="0.5" fill-rule="evenodd" clip-rule="evenodd" fill="#CA3831" points="65.53,173.276 181.938,172.373 
					181.938,168.434 65.53,168.434 				"/>
				<polygon opacity="0.5" fill-rule="evenodd" clip-rule="evenodd" fill="#CA3831" points="65.53,161.472 181.938,160.564 
					181.938,156.626 65.53,156.626 				"/>
				<polygon opacity="0.5" fill-rule="evenodd" clip-rule="evenodd" fill="#CA3831" points="65.53,149.969 181.938,149.059 
					181.938,145.123 65.53,145.123 				"/>
				<polygon opacity="0.5" fill-rule="evenodd" clip-rule="evenodd" fill="#CA3831" points="65.53,138.16 181.938,137.253 
					181.938,133.318 65.53,133.318 				"/>
			</g>
			<g clip-path="url(#SVGID_2_)">
				<path fill-rule="evenodd" clip-rule="evenodd" fill="#EEC785" d="M134.398,112.798c-0.343,0.022-18.655,2.915-18.655,2.915
					s-4.102,3.895-0.295,7.892c3.808,3.99,18.315-2.817,18.042-3.133C133.218,120.151,134.398,112.798,134.398,112.798z"/>
				<path fill-rule="evenodd" clip-rule="evenodd" fill="#F7D999" d="M110.712,117.043c0,0,2.812,10.362,8.289,12.875
					c5.476,2.518,10.213,2.813,15.394,1.038c5.182-1.777,7.4-2.368,7.99-17.907c0,0-4.737-0.739-10.803,0
					c0,0,1.184,3.107-1.039,3.403c-2.219,0.294-1.581-2.82-1.581-2.82l-8.084,1.267c0,0,2.711,7.029-0.842,8.212
					c-3.552,1.185-6.66-3.108-4.292-7.399L110.712,117.043z"/>
				<path fill-rule="evenodd" clip-rule="evenodd" fill="#F8C479" d="M79.707,153.938c6.158,4.918,19.252,1.308,26.083,0.418
					c11.276-1.468,22.279-3.748,33.385-6.121c4.311-0.922,10.813-1.057,11.714-6.555c1.045-6.405-5.2-10.988-10.453-7.185
					c-2.051-1.596-7.805-1.581-8.441,1.592c-1.644-2.383-9.707-2.164-9.175,1.512c-2.692-2.142-8.026-1.632-9.291,1.666
					c-2.157-2.445-9.291-2.755-9.506,1.595c-3.99-0.819-6.511-1.912-10.868-0.443c-1.84,0.615-2.958,2.303-4.693,3.03
					c-1.658,0.696-2.787,0.212-4.438,0.109C77.94,143.174,74.435,149.729,79.707,153.938z"/>
				<path fill-rule="evenodd" clip-rule="evenodd" fill="#F8C479" d="M142.385,112.719c0,0,7.848,11.724,1.778,15.426
					c-6.066,3.701-7.994,2.183-7.994,2.183S141.2,127.783,142.385,112.719z"/>
				<path fill-rule="evenodd" clip-rule="evenodd" fill="#44354C" d="M107.881,122.005c-3.297-3.6-10.847,1.749-7.229,5.623
					C103.976,131.184,111.67,126.145,107.881,122.005z"/>
				<path fill-rule="evenodd" clip-rule="evenodd" fill="#44354C" d="M92.069,133.916c2.412-1.243,2.306-5.115-0.375-5.786
					C86.589,126.844,87.362,136.346,92.069,133.916z"/>
				<path fill-rule="evenodd" clip-rule="evenodd" fill="#44354C" d="M105.014,134.383c1.942,0.309,3.414-1.71,3.643-3.651
					c0.117-1.002-0.095-1.985-0.736-2.624C103.647,123.831,99.662,133.54,105.014,134.383z"/>
				<path fill-rule="evenodd" clip-rule="evenodd" fill="#44354C" d="M96.153,132.729c2.977,0.477,5.931-2.999,4.791-5.801
					C97.997,119.688,85.489,131.019,96.153,132.729z"/>
				<path fill-rule="evenodd" clip-rule="evenodd" fill="#44354C" d="M86.363,132.778c-3.231-2.885-8.125,2.609-4.977,5.047
					C84.061,139.895,89.365,135.453,86.363,132.778z"/>
				<path fill-rule="evenodd" clip-rule="evenodd" fill="#44354C" d="M93.3,133.337c-1.596-3.378-8.172,0.119-5.706,3.665
					C89.766,140.128,94.827,136.564,93.3,133.337z"/>
				<path fill-rule="evenodd" clip-rule="evenodd" fill="#44354C" d="M104.81,129.493c-2.069-3.641-9.517,0.229-6.157,4.204
					C101.549,137.125,106.974,133.308,104.81,129.493z"/>
				<path fill-rule="evenodd" clip-rule="evenodd" fill="#44354C" d="M95.65,136.076c3.071,0.212,4.259-3.986,1.067-5.567
					c-3.625-1.792-5.898,3.953-2.139,5.33C94.958,135.978,95.315,136.051,95.65,136.076z"/>
				<path fill-rule="evenodd" clip-rule="evenodd" fill="#44354C" d="M97.782,125.452c3.319,1.465,5.032-2.783,3.239-5.213
					C98.409,116.69,92.761,123.233,97.782,125.452z"/>
				<path fill-rule="evenodd" clip-rule="evenodd" fill="#44354C" d="M85.839,133.908c-1.461-0.798-2.394-2.962-1.053-4.678
					c2.223-2.846,6.004,1.709,4.059,4.051C87.934,134.375,86.779,134.422,85.839,133.908z"/>
				<path fill-rule="evenodd" clip-rule="evenodd" fill="#44354C" d="M91.392,120.741c-3.691,1.797-2.835,8.53,1.88,7.837
					C98.831,127.762,95.268,118.857,91.392,120.741z"/>
				<path fill-rule="evenodd" clip-rule="evenodd" fill="#39AE72" d="M102.376,120.603c1.133-2.208,1.64-5.17,1.694-7.666
					c0.139,0.824,1.297,0.394,1.997-0.258c-0.244,2.025-0.342,4.667-1.355,6.467c0.747-2.875,6.136-2.973,8.161-5.042
					c-0.346,3.661,2.66,3.257,4.872,2.397c-0.634,0.816-0.878,1.891-0.74,2.915c0.146,0.102,0.313,0.127,0.463,0.247
					c-2.161,0.087-3.858,1.203-3.662,3.472c-0.04-1.625-3.582-3.902-4.325-1.923c0.222-2.714-5.272,0.014-6.981-0.441"/>
				<path fill-rule="evenodd" clip-rule="evenodd" fill="#F7E9D9" d="M127.191,124.753c2.187-1.575,1.268-4.249-1.476-3.968
					C121.883,121.178,124.382,126.778,127.191,124.753z"/>
				<path fill-rule="evenodd" clip-rule="evenodd" fill="#F7E9D9" d="M137.2,121.418c-0.105-0.113-0.223-0.215-0.36-0.312
					c-2.088-1.447-4.66,1.395-2.576,3.209C136.26,126.054,138.989,123.368,137.2,121.418z"/>
				<path fill-rule="evenodd" clip-rule="evenodd" fill="#F7E9D9" d="M137.801,113.046c-1.005,2.368,1.229,6.306,3.848,4.441"/>
				<path fill-rule="evenodd" clip-rule="evenodd" fill="#F7E9D9" d="M131.286,131.548c-0.658-4.431-5.887-2.831-6.365,0.889"/>
				
					<path fill-rule="evenodd" clip-rule="evenodd" fill="none" stroke="#F2A432" stroke-width="1.2691" stroke-linecap="round" stroke-linejoin="round" stroke-miterlimit="10" d="
					M88.363,142.943c2.041,0.966,3.479,2.489,4.441,4.588"/>
				
					<path fill-rule="evenodd" clip-rule="evenodd" fill="none" stroke="#F2A432" stroke-width="1.2691" stroke-linecap="round" stroke-linejoin="round" stroke-miterlimit="10" d="
					M103.462,140.575c1.326,0.277,2.929,2.715,3.403,3.698"/>
				
					<path fill-rule="evenodd" clip-rule="evenodd" fill="none" stroke="#F2A432" stroke-width="1.2691" stroke-linecap="round" stroke-linejoin="round" stroke-miterlimit="10" d="
					M122.415,137.249c1.322,0.273,2.929,2.715,3.403,3.698"/>
				
					<path fill-rule="evenodd" clip-rule="evenodd" fill="none" stroke="#F2A432" stroke-width="1.2691" stroke-linecap="round" stroke-linejoin="round" stroke-miterlimit="10" d="
					M131.789,135.697c1.327,0.273,2.93,2.715,3.407,3.698"/>
				
					<path fill-rule="evenodd" clip-rule="evenodd" fill="none" stroke="#F2A432" stroke-width="1.2691" stroke-linecap="round" stroke-linejoin="round" stroke-miterlimit="10" d="
					M139.615,133.847c1.327,0.277,2.93,2.714,3.403,3.698"/>
				
					<path fill-rule="evenodd" clip-rule="evenodd" fill="none" stroke="#F2A432" stroke-width="1.2691" stroke-linecap="round" stroke-linejoin="round" stroke-miterlimit="10" d="
					M113.675,139.097c1.009,0.979,1.833,2.524,2.663,3.403"/>
				<g>
					<path fill-rule="evenodd" clip-rule="evenodd" fill="#F6DCC0" d="M104.067,158.514c0,0-0.886,6.82,0.74,8.544
						c1.628,1.724,9.028,5.421,17.911,4.535c8.879-0.885,10.802-3.009,10.802-3.009l0.3-4.98c0,0-4.886-0.149-11.102-1.334
						C116.501,161.086,104.067,158.514,104.067,158.514z"/>
					<path fill-rule="evenodd" clip-rule="evenodd" fill="#F7D999" d="M139.146,150.429c0,0,1.778,6.267,0.59,7.057
						c-1.184,0.787-11.837,4.19-11.837,4.19l-3.997-5.031L139.146,150.429z"/>
					<path fill-rule="evenodd" clip-rule="evenodd" fill="#F7E9D9" d="M138.501,150.611c0,0-13.86,6.033-13.12,6.922
						c0.739,0.889,8.438,6.07,8.438,6.07s-9.918,4.98-17.912,2.98c-9.841-2.46-11.815-6.132-11.841-8.07
						c-0.015-1.145,1.927-10.604,20.724-10.604C124.791,147.91,134.213,149.575,138.501,150.611z"/>
					<path fill-rule="evenodd" clip-rule="evenodd" fill="#F7E9D9" d="M145.511,154.131l-11.691,5.596
						c0,0,10.062,3.282,11.691,2.692C147.136,161.825,147.285,154.425,145.511,154.131z"/>
					<path fill-rule="evenodd" clip-rule="evenodd" fill="#F7D999" d="M145.951,167.745l-0.44-5.326l-11.691-2.692
						c0,0-1.334,4.988,0,5.393C135.148,165.526,145.951,167.745,145.951,167.745z"/>
					<path fill-rule="evenodd" clip-rule="evenodd" fill="#F6DCC0" d="M145.951,154.382c1.479,3.658-0.44,8.037-0.44,8.037
						l0.44,5.326c0,0,2.667-3.552,3.258-6.069C149.803,159.162,145.951,154.382,145.951,154.382z"/>
				</g>
				<path fill-rule="evenodd" clip-rule="evenodd" fill="#56222A" d="M153.636,102.105c0,0,0-10.449,0-11.264
					c0-0.818-1.469-3.431,0-4.083c0,0-0.812-5.225,0.979-5.552c1.801-0.323,4.249-1.632,5.389,0c0,0,0.492,5.552,0,6.044
					c0,0,1.582,1.958,0.219,3.1c0,0,0.346,10.286,0.554,11.754c0.208,1.472,4.292,7.185,5.597,19.918
					c1.304,12.733,0.651,32.817,0,33.47c-0.652,0.655-3.92,2.124-9.146,1.636c-5.221-0.492-7.833-1.309-8.161-2.78
					c-0.328-1.469-1.96-31.232-1.632-35.531c0.324-4.303,3.917-9.691,5.389-12.14C154.291,104.229,153.636,102.105,153.636,102.105z
					"/>
				
					<path fill-rule="evenodd" clip-rule="evenodd" fill="#FFFFFF" stroke="#FFFFFF" stroke-width="1.492" stroke-miterlimit="10" d="
					M166.704,145.338c0.128-0.036,0.241-0.08,0.36-0.124c0.139-6.987,0.016-16.195-0.702-23.19c-0.015-0.16-0.04-0.306-0.056-0.466
					c-6.229,1.511-12.806,2.845-18.905,0.954c0.109,5.746,0.616,16.181,1.05,23.544
					C154.088,148.279,161.152,147.079,166.704,145.338z"/>
				
					<path fill-rule="evenodd" clip-rule="evenodd" fill="none" stroke="#56222A" stroke-width="1.492" stroke-linecap="round" stroke-linejoin="round" stroke-miterlimit="10" d="
					M153.312,89.043c0.761,2.041,6.598,2.613,7.185,0.328"/>
				
					<path fill-rule="evenodd" clip-rule="evenodd" fill="none" stroke="#56222A" stroke-width="1.492" stroke-linecap="round" stroke-linejoin="round" stroke-miterlimit="10" d="
					M153.476,86.595c1.06,1.953,5.814,1.328,6.692,0.328"/>
			</g>
		</g>
		<g>
			<path fill="#293070" d="M118.709,180.797c0,0-0.218,6.995-0.772,9.505c-0.55,2.511,5.735-0.612,5.958-0.426
				c0.218,0.182,0.437-10.289,0-9.961C123.895,179.915,121.023,181.237,118.709,180.797z"/>
			<path fill="#FFFFFF" d="M123.858,180.079c0,0-0.222,6.995-0.772,9.505c-0.55,2.511,5.735-0.612,5.954-0.426
				c0.219,0.182,0.44-10.289,0-9.961C129.039,179.197,126.172,180.52,123.858,180.079z"/>
			<path fill="#CA3831" d="M128.616,180.079c0,0-0.219,6.995-0.77,9.505c-0.55,2.511,5.732-0.612,5.954-0.426
				c0.218,0.182,0.44-10.289,0-9.961C133.801,179.197,130.933,180.52,128.616,180.079z"/>
		</g>
		<g>
			<polygon fill="#3F3839" points="94.546,83.835 94.404,82.039 89.085,82.457 88.254,83.363 88.429,102.564 90.226,102.55 
				90.142,93.136 94.339,93.193 94.364,91.393 90.127,91.335 90.062,84.185 			"/>
			
				<rect x="117.173" y="93.698" transform="matrix(-0.0093 -1 1 -0.0093 33.3637 222.2501)" fill="#3F3839" width="19.209" height="1.799"/>
			<path fill="#3F3839" d="M106.162,85.994l-2.572,13.877l-3.709-5.331c2.838-1.117,3.505-3.707,3.429-5.022
				c0.091-6.845-5.513-7.892-5.571-7.901l-1.053,0.896l0.175,19.201l1.8-0.015l-0.051-5.837l3.542,5.094l1.421-0.988l-0.831,4.475
				l1.771,0.327l0.78-4.204l3.632,0.051l0.594,3.079l1.768-0.338l-3.352-17.373L106.162,85.994z M98.583,93.069L98.5,83.764
				c1.225,0.602,3.057,2.117,3.009,5.79C101.52,89.845,101.538,92.33,98.583,93.069z M105.623,98.771l1.443-7.775l1.508,7.815
				L105.623,98.771z"/>
			<path fill="#3F3839" d="M135.287,103.034l1.764-0.342l-3.353-17.372l-1.767,0.007l-3.421,18.451l1.767,0.332l0.791-4.251
				l3.614,0.05L135.287,103.034z M131.399,98.064l1.436-7.735l1.501,7.775L131.399,98.064z"/>
			<path fill="#3F3839" d="M117.022,81.503l0.802-0.086l-0.966-0.816c-0.557,0.04-0.757,0.054-0.801,1.009
				c-0.025,0.545,0,1.396,0.044,2.739c0.055,1.692,0.127,3.951,0.208,6.207l0.087,2.583l-3.625-11.228l-1.756,0.299l0.47,20.569
				l1.8-0.043l-0.328-14.395l3.705,11.484l1.757-0.306c-0.245-6.935-0.605-17.445-0.594-17.976L117.022,81.503z"/>
			<path fill="#3F3839" d="M125.505,83.436c0.2-0.106,0.343-0.182,0.473-0.328l-0.855-0.768l-0.339-0.558l-0.127,0.069
				c-4.525,2.419-5.495,7.952-5.509,12.167c-0.037,10.393,5.05,11.344,5.269,11.377l0.306-1.771c-0.04-0.007-3.807-0.881-3.774-9.6
				C120.961,90.3,121.763,85.44,125.505,83.436z"/>
		</g>
		
			<path fill="#3C343F" stroke="#3C343F" stroke-width="0.3127" stroke-linecap="round" stroke-linejoin="round" stroke-miterlimit="10" d="
			M152.695,129.537c-0.288,0.845-0.867,3.348-0.099,4.003c1.644,1.403,2.397-2.823,2.132-3.788
			C154.386,128.517,153.205,128.031,152.695,129.537z"/>
		
			<path fill="#3C343F" stroke="#3C343F" stroke-width="0.3127" stroke-linecap="round" stroke-linejoin="round" stroke-miterlimit="10" d="
			M161.414,131.354c-0.287,0.845-0.866,3.345-0.099,4.001c1.644,1.405,2.397-2.824,2.132-3.79
			C163.104,130.334,161.924,129.85,161.414,131.354z"/>
		
			<path fill="#3C343F" stroke="#3C343F" stroke-width="0.3127" stroke-linecap="round" stroke-linejoin="round" stroke-miterlimit="10" d="
			M153.785,136.484c-1.239-0.743-3.494-3.399-3.305-0.346c0.299,4.816,8.1,7.061,11.499,4.025c0.531-0.474,1.11-1.396,0.418-1.979
			c-0.626-0.531-1.566,0.139-2.222,0.229C158.026,138.714,155.585,137.562,153.785,136.484z"/>
	</g>
</g>
</svg>
