<?xml version="1.0" encoding="utf-8"?>
<!-- Generator: Adobe Illustrator 16.0.0, SVG Export Plug-In . SVG Version: 6.00 Build 0)  -->
<!DOCTYPE svg PUBLIC "-//W3C//DTD SVG 1.1//EN" "http://www.w3.org/Graphics/SVG/1.1/DTD/svg11.dtd">
<svg version="1.1" id="Capa_1" xmlns="http://www.w3.org/2000/svg" xmlns:xlink="http://www.w3.org/1999/xlink" x="0px" y="0px"
	 width="250px" height="250px" viewBox="0 0 250 250" enable-background="new 0 0 250 250" xml:space="preserve">
<g>
	<g>
		<polygon fill="#F6F5EE" stroke="#F6F5EE" stroke-width="0.346" stroke-miterlimit="10" points="193.734,119.44 193.75,113.872 
			192.002,108.585 191.125,103.085 188.551,98.147 186.803,92.858 183.471,88.396 180.898,83.458 176.893,79.589 173.561,75.128 
			168.986,71.949 164.982,68.081 159.955,65.679 155.383,62.502 150.039,60.937 145.014,58.534 139.488,57.848 134.143,56.284 
			128.578,56.491 123.049,55.803 117.591,56.901 112.026,57.108 106.813,59.068 101.353,60.168 96.522,62.938 91.309,64.897 
			86.988,68.406 82.158,71.175 78.449,75.335 74.126,78.847 71.133,83.542 67.431,87.699 65.235,92.818 62.243,97.514 
			60.895,102.919 58.698,108.035 58.233,113.585 56.882,118.987 57.315,124.539 56.853,130.089 58.168,135.503 58.598,141.051 
			60.764,146.182 62.086,151.593 65.047,156.31 67.214,161.438 70.895,165.62 73.858,170.333 78.161,173.866 81.842,178.049 
			86.657,180.842 90.96,184.38 96.162,186.369 100.978,189.167 106.43,190.299 111.628,192.287 117.195,192.528 122.65,193.657 
			128.18,193.005 133.744,193.245 139.096,191.708 144.627,191.056 149.666,188.685 155.018,187.147 159.611,183.999 
			164.648,181.626 168.676,177.778 173.27,174.628 176.627,170.185 180.654,166.339 183.258,161.417 186.613,156.978 
			188.396,151.699 190.998,146.775 191.906,141.282 193.686,136.003 193.703,130.435 194.613,124.94 		"/>
		<path fill="#F6F5EE" stroke="#F6F5EE" stroke-width="0.346" stroke-miterlimit="10" d="M122.65,195.899
			c-0.155,0-0.307-0.014-0.458-0.047l-5.274-1.094l-5.382-0.23c-0.242-0.014-0.48-0.059-0.71-0.148l-5.026-1.923l-5.279-1.097
			c-0.234-0.049-0.461-0.133-0.668-0.255l-4.66-2.709l-5.032-1.923c-0.226-0.088-0.437-0.209-0.62-0.361l-4.161-3.42l-4.662-2.709
			c-0.208-0.12-0.396-0.274-0.557-0.455l-3.56-4.045l-4.165-3.418c-0.186-0.152-0.346-0.336-0.474-0.54l-2.867-4.562l-3.562-4.045
			c-0.157-0.181-0.288-0.388-0.381-0.609l-2.099-4.961l-2.866-4.562c-0.126-0.204-0.224-0.429-0.28-0.663l-1.274-5.236l-2.095-4.961
			c-0.097-0.222-0.152-0.457-0.172-0.697l-0.418-5.372l-1.273-5.238c-0.059-0.232-0.076-0.476-0.059-0.715l0.453-5.368l-0.42-5.372
			c-0.02-0.241,0.002-0.484,0.062-0.718l1.304-5.228l0.451-5.37c0.018-0.24,0.078-0.477,0.17-0.697l2.131-4.949l1.302-5.227
			c0.062-0.235,0.155-0.459,0.285-0.66l2.893-4.549l2.126-4.949c0.098-0.222,0.226-0.426,0.385-0.606l3.913-4.54l2.896-4.542
			c-0.198,0.31-0.037,0.129,0.149-0.022l4.185-3.396l3.583-4.022c0.161-0.182,0.353-0.334,0.56-0.455l4.674-2.679l4.18-3.396
			c0.191-0.151,0.4-0.271,0.626-0.356l5.042-1.895l4.677-2.682c0.208-0.121,0.437-0.205,0.671-0.254l5.285-1.063l5.043-1.895
			c0.223-0.085,0.465-0.134,0.703-0.144l5.386-0.198l5.282-1.062c0.236-0.05,0.479-0.057,0.719-0.029l5.349,0.665l5.381-0.199
			c0.242-0.005,0.48,0.02,0.713,0.086l5.172,1.515l5.348,0.663c0.238,0.033,0.471,0.1,0.688,0.205l4.863,2.323l5.166,1.516
			c0.236,0.065,0.455,0.172,0.652,0.31l4.428,3.074l4.861,2.325c0.219,0.104,0.416,0.241,0.592,0.408l3.873,3.743l4.424,3.073
			c0.201,0.139,0.375,0.307,0.518,0.502l3.221,4.314l3.877,3.743c0.174,0.167,0.32,0.362,0.432,0.575l2.488,4.779l3.227,4.318
			c0.145,0.192,0.256,0.408,0.33,0.638l1.691,5.116l2.492,4.776c0.111,0.214,0.188,0.446,0.227,0.683l0.848,5.322l1.691,5.113
			c0.074,0.232,0.117,0.47,0.115,0.711l-0.02,5.391l0.85,5.319c0.037,0.235,0.037,0.481-0.004,0.719l-0.877,5.315l-0.016,5.39
			c-0.004,0.239-0.039,0.479-0.115,0.707l-1.725,5.106l-0.881,5.318c-0.039,0.234-0.117,0.465-0.23,0.676l-2.516,4.768l-1.723,5.104
			c-0.074,0.23-0.189,0.444-0.338,0.636l-3.246,4.297l-2.518,4.764c-0.113,0.215-0.262,0.408-0.436,0.574l-3.895,3.72l-3.25,4.298
			c-0.145,0.193-0.322,0.363-0.521,0.498l-4.443,3.047l-3.893,3.725c-0.176,0.165-0.377,0.305-0.596,0.404l-4.875,2.296
			l-4.443,3.048c-0.199,0.135-0.418,0.24-0.65,0.305l-5.18,1.484l-4.871,2.297c-0.219,0.105-0.451,0.17-0.693,0.198l-5.348,0.634
			l-5.184,1.483c-0.23,0.065-0.477,0.094-0.713,0.083l-5.383-0.23l-5.354,0.635C122.825,195.895,122.737,195.899,122.65,195.899z"/>
	</g>
	<g opacity="0.4">
		<path fill="#0280A2" d="M134.979,98.986c0,0-12.996,0.001-24.482,8.472c-11.485,8.47-17.403,18.563-17.403,18.563
			s-3.829-1.856-7.89,1.392c-4.062,3.251-4.874,4.177-2.903,5.339c1.975,1.162,5.641,0.23,8.704,0.23
			c0.349,0,2.785,3.599,2.089,6.036s0,2.55,1.854,1.393c1.857-1.162,5.805-4.874,0.813-11.953c0,0,13.857-14.736,19.079-13.46
			c5.223,1.276,6.384,2.784,14.39,3.828c8.004,1.044,18.68,5.567,20.535,9.514c1.859,3.947,1.227,8.472,2.736,7.776
			c1.506-0.696,0.809-6.031,0.809-6.031s5.221-5.803,1.973-15.201s-4.639-9.05-7.193-11.834c-2.551-2.785-7.424-11.371-11.834-13.46
			s-7.775-0.582-6.033,1.739C131.963,93.65,135.791,97.71,134.979,98.986z"/>
	</g>
	
		<path fill="none" stroke="#495A64" stroke-width="1.0303" stroke-linecap="round" stroke-linejoin="round" stroke-miterlimit="10" d="
		M136.68,115.487c0,0-5.15-0.907-8.475-4.062c-2.264-2.148-3.477,0.465-2.318,2.321c1.162,1.856,3.441,5.656,7.889,6.033
		c3.326,0.281,3.365-0.116,3.365-0.116"/>
	<g>
		
			<path fill="none" stroke="#495A64" stroke-width="1.0303" stroke-linecap="round" stroke-linejoin="round" stroke-miterlimit="10" d="
			M137.488,124.073c0,0-1.273,2.089-3.48,2.9c-2.201,0.812-3.131,1.971-0.928,2.9c2.207,0.929,5.686,2.088,7.658,0.695
			s3.598-3.248,3.598-3.248"/>
	</g>
	<g opacity="0.3">
		<path fill="#0280A2" d="M137.961,123.803c0,0-1.275,2.089-3.482,2.901c-2.201,0.811-3.131,1.971-0.926,2.9
			c2.205,0.929,5.686,2.088,7.658,0.695c1.971-1.393,3.598-3.248,3.598-3.248"/>
	</g>
	<path fill="#495A64" d="M150.238,121.789c0.838-1.114,0.428-2.98-1.033-1.907C147.932,120.82,148.426,124.188,150.238,121.789z"/>
	
		<path fill="none" stroke="#495A64" stroke-width="1.0303" stroke-linecap="round" stroke-linejoin="round" stroke-miterlimit="10" d="
		M144.438,88.642c3.678-1.705,6.689,4.029,9.973,3.736c0.572-2.641,4.615-3.778,6.965-3.245c0.51-2.929-6.842,0.029-7.83-0.131
		c-1.756-0.282-2.846-1.869-4.771-2.052C147.201,86.802,145.203,87.021,144.438,88.642z"/>
	
		<path fill="none" stroke="#495A64" stroke-width="1.0303" stroke-linecap="round" stroke-linejoin="round" stroke-miterlimit="10" d="
		M76.45,119.538c1.514-1.327,4.345-5.444,6.837-3.391c-0.618-3.947,4.999-3.407,6.878-4.717c-1.569-2.834-6.254-0.086-8.115,0.794
		c-1.45,0.683-3.051,1.307-4.179,2.487c-0.618,0.647-1.07,1.347-1.31,2.213C76.448,117.333,76.635,119.376,76.45,119.538z"/>
	
		<path fill="none" stroke="#495A64" stroke-width="1.0303" stroke-linecap="round" stroke-linejoin="round" stroke-miterlimit="10" d="
		M176.359,123.956c-5.104,1.113-11.285,2.144-15.408-1.978c-1.031-1.03-3.09,0-4.604,0.793"/>
	
		<path fill="none" stroke="#495A64" stroke-width="1.0303" stroke-linecap="round" stroke-linejoin="round" stroke-miterlimit="10" d="
		M96.764,119.663c-1.441-0.768-3.031-1.623-4.762-1.104c-1.755,0.526-1.471,1.923-2.536,2.743c-2.043,1.566-2.97-0.595-4.71-1.062
		c-2.695-0.724-3.902,2.455-6.583,2.109c-1.991-0.257-2.319-0.406-4.267,0.215"/>
	
		<path fill="none" stroke="#495A64" stroke-width="1.0303" stroke-linecap="round" stroke-linejoin="round" stroke-miterlimit="10" d="
		M104.414,134.304c-2.931,0.424-4.354,1.846-5.794,4.273l0.466-0.117c2.155-1.304,5.491,1.434,7.481-0.786
		C108.526,135.491,106.692,133.973,104.414,134.304z"/>
	
		<path fill="none" stroke="#495A64" stroke-width="1.0303" stroke-linecap="round" stroke-linejoin="round" stroke-miterlimit="10" d="
		M103.215,141.442c-1.426-1.301-4.774-0.855-6.219,0.383l0.463-0.232c2.074,0.385,2.648,3.351,4.541,3.845
		C104.436,146.07,104.638,142.741,103.215,141.442z"/>
	
		<path fill="none" stroke="#495A64" stroke-width="1.0303" stroke-linecap="round" stroke-linejoin="round" stroke-miterlimit="10" d="
		M79.5,140.206c-1.037,1.437-1.438,4.287,1.238,3.66c2.189-0.514,1.604-2.855,2.746-4.147c0.673-0.757,1.928-0.897,2.838-1.259
		l0.463-0.115C83.995,138.342,81.416,137.557,79.5,140.206z"/>
	<g>
		
			<path fill="none" stroke="#495A64" stroke-width="1.0303" stroke-linecap="round" stroke-linejoin="round" stroke-miterlimit="10" d="
			M73.98,132.356c-0.765,0.813-1.401,3.524,0.024,4.116c2.199,0.919,2.821-4.384,5.436-4.056
			C77.764,131.63,75.421,130.824,73.98,132.356z"/>
		
			<path fill="none" stroke="#495A64" stroke-width="1.0303" stroke-linecap="round" stroke-linejoin="round" stroke-miterlimit="10" d="
			M79.59,132.426c-0.053-0.009-0.101-0.005-0.15-0.009c0.089,0.041,0.181,0.083,0.268,0.126L79.59,132.426z"/>
	</g>
	
		<path fill="none" stroke="#495A64" stroke-width="1.0303" stroke-linecap="round" stroke-linejoin="round" stroke-miterlimit="10" d="
		M106.508,131.499c1.461-0.535,2.336-1.68,3.934-1.958c1.719-0.296,3.195,0.202,4.766,0.781c1.215,0.445,2.328,0.911,3.669,0.856
		c1.486-0.061,3.125-1.359,4.536-1.198c0.783,0.091,1.208,0.753,1.908,1.083c1.484,0.699,2.537,0.455,4.068,0.152
		c1.859-0.365,1.955,0.191,3.479,0.492c0.592,0.113,1.145,0.227,1.738-0.094c-0.141-0.296-0.191,0.033-0.363,0"/>
	
		<path fill="none" stroke="#495A64" stroke-width="1.0303" stroke-linecap="round" stroke-linejoin="round" stroke-miterlimit="10" d="
		M112.776,139.853c2.938-0.781,5.53-2.518,8.604-3.105c3.246-0.617,4.441,0.291,7.119,1.523c5.367,2.469,10.436-0.549,15.924-0.242
		c2.07,0.115,2.398,1.262,4.062,2.133c1.789,0.938,4.068,1.006,5.98,0.521c4.301-1.085,7.818-3.939,11.98-1.605
		c1.43,0.803,2.893,1.556,4.533,1.586c1.352,0.022,2.404-0.613,3.607,0.336c-0.479-0.031-1-0.092-1.475-0.219"/>
	
		<path fill="none" stroke="#495A64" stroke-width="1.0303" stroke-linecap="round" stroke-linejoin="round" stroke-miterlimit="10" d="
		M158.955,131.847c1.607-0.482,2.998-1.496,4.742-1.58c2.967-0.139,2.504,1.883,4.361,3.156c1.426,0.973,1.32-0.427,2.873-0.494
		c1.029-0.047,1.783,0.936,2.889,1.003c-0.18-0.538-0.57-0.509-1.057-0.692"/>
	<g>
		
			<path fill="none" stroke="#495A64" stroke-width="1.0303" stroke-linecap="round" stroke-linejoin="round" stroke-miterlimit="10" d="
			M134.355,98.479c0,0-12.994,0-24.482,8.471c-11.484,8.469-17.402,18.562-17.402,18.562s-3.83-1.855-7.89,1.393
			c-4.063,3.249-4.874,4.178-2.903,5.338c1.975,1.162,5.641,0.232,8.703,0.232c0.35,0,2.785,3.597,2.09,6.034
			c-0.697,2.437,0,2.552,1.855,1.393c1.857-1.16,5.803-4.874,0.812-11.952c0,0,12.296-12.762,17.52-11.486
			c5.223,1.276,6.383,2.784,14.39,3.828c8.004,1.045,18.68,5.57,20.535,9.514c1.859,3.947,2.785,6.5,4.295,5.803
			c1.506-0.695,0.811-6.033,0.811-6.033s5.221-5.802,1.973-15.199c-3.248-9.399-4.641-9.051-7.193-11.835
			c-2.553-2.785-7.426-11.371-11.834-13.46c-4.41-2.088-7.777-0.582-6.035,1.74C131.34,93.142,135.17,97.201,134.355,98.479z"/>
	</g>
	<g>
		
			<path fill="none" stroke="#495A64" stroke-width="1.0303" stroke-linecap="round" stroke-linejoin="round" stroke-miterlimit="10" stroke-dasharray="2.228" d="
			M112.092,189.368l5.202,0.223c0.12,0.005,0.238,0.02,0.358,0.044l5.094,1.058l5.173-0.613c0.119-0.014,0.236-0.018,0.357-0.014
			l5.201,0.227l5-1.436c0.119-0.031,0.24-0.057,0.359-0.07l5.166-0.611l4.707-2.22c0.111-0.052,0.225-0.093,0.338-0.124l5.004-1.436
			l4.293-2.942c0.102-0.069,0.203-0.13,0.312-0.178l4.709-2.22l3.766-3.594c0.084-0.083,0.178-0.162,0.279-0.229l4.291-2.944
			l3.141-4.151c0.072-0.096,0.15-0.186,0.236-0.27l3.766-3.595l2.432-4.601c0.057-0.108,0.121-0.208,0.195-0.303l3.137-4.152
			l1.666-4.936c0.039-0.11,0.084-0.221,0.141-0.328l2.434-4.604l0.85-5.133c0.018-0.118,0.047-0.235,0.084-0.354l1.664-4.93
			l0.018-5.204c0-0.122,0.01-0.241,0.029-0.361l0.852-5.133l-0.822-5.142c-0.02-0.117-0.029-0.237-0.029-0.357l0.018-5.209
			l-1.635-4.936c-0.039-0.116-0.066-0.234-0.084-0.351l-0.822-5.144l-2.402-4.618c-0.057-0.104-0.1-0.213-0.139-0.326l-1.637-4.945
			l-3.113-4.171c-0.072-0.096-0.137-0.198-0.195-0.305l-2.404-4.615l-3.744-3.614c-0.088-0.087-0.166-0.176-0.238-0.274
			l-3.115-4.166l-4.271-2.973c-0.104-0.067-0.195-0.146-0.281-0.229l-3.742-3.615l-4.695-2.246
			c-0.105-0.051-0.211-0.111-0.309-0.181l-4.279-2.969l-4.994-1.462c-0.119-0.035-0.227-0.076-0.336-0.13l-4.695-2.244l-5.166-0.644
			c-0.117-0.016-0.238-0.039-0.352-0.072l-4.996-1.461l-5.201,0.193c-0.121,0.004-0.242-0.002-0.361-0.015l-5.168-0.645
			l-5.101,1.026c-0.117,0.025-0.236,0.039-0.355,0.043l-5.2,0.192l-4.874,1.833c-0.113,0.043-0.23,0.076-0.35,0.1l-5.099,1.028
			l-4.513,2.588c-0.105,0.06-0.217,0.109-0.33,0.153l-4.871,1.832L88.4,69.448c-0.092,0.076-0.191,0.145-0.296,0.204l-4.512,2.589
			l-3.465,3.885c-0.082,0.09-0.172,0.174-0.26,0.251l-4.045,3.28l-2.795,4.39c-0.066,0.101-0.137,0.198-0.216,0.286L69.35,88.22
			l-2.055,4.782c-0.049,0.113-0.105,0.218-0.169,0.322l-2.795,4.388l-1.261,5.049c-0.027,0.117-0.064,0.232-0.117,0.342
			l-2.051,4.782l-0.436,5.188c-0.01,0.12-0.026,0.239-0.059,0.354l-1.262,5.053l0.406,5.187c0.008,0.122,0.008,0.241,0,0.363
			l-0.436,5.185l1.229,5.059c0.028,0.116,0.048,0.235,0.056,0.355l0.406,5.191l2.023,4.793c0.052,0.109,0.088,0.223,0.113,0.342
			l1.23,5.057l2.77,4.408c0.068,0.103,0.119,0.209,0.168,0.32l2.026,4.793l3.438,3.906c0.081,0.091,0.155,0.189,0.217,0.289
			l2.769,4.405l4.022,3.304c0.093,0.078,0.178,0.163,0.262,0.252l3.438,3.903l4.502,2.615c0.101,0.063,0.2,0.131,0.294,0.21
			l4.022,3.305l4.859,1.855c0.112,0.043,0.222,0.098,0.327,0.157l4.498,2.615l5.1,1.058c0.119,0.023,0.231,0.056,0.345,0.1
			L112.092,189.368z"/>
	</g>
	<g>
		
			<path fill="none" stroke="#495A64" stroke-width="1.1274" stroke-linecap="round" stroke-linejoin="round" stroke-miterlimit="10" d="
			M90.413,160.083c-1.873-1.114-2.504,0.237-2.543,1.891c-0.039,1.645,0.059,3.377-0.173,5.011"/>
		
			<path fill="none" stroke="#495A64" stroke-width="1.1274" stroke-linecap="round" stroke-linejoin="round" stroke-miterlimit="10" d="
			M91.77,161.658c-0.141,1.347-0.677,4.179,0.943,4.899c1.518,0.678,2.765-1.051,3.064-2.302c0.179-0.723,0.205-1.488,0.287-2.228
			c-0.023,1.521-0.561,3.142-0.431,4.687c-0.078,0.093-0.108,0.009-0.228,0.05"/>
		
			<path fill="none" stroke="#495A64" stroke-width="1.1274" stroke-linecap="round" stroke-linejoin="round" stroke-miterlimit="10" d="
			M98.237,164.265c1.405,0.002,2.807-0.432,4.16-0.372c-0.134-2.103-3.25-2.238-3.995-0.438c-0.533,1.297,0.423,2.985,1.757,3.214
			c0.664,0.115,1.387-0.014,1.88-0.502"/>
		
			<path fill="none" stroke="#495A64" stroke-width="1.1274" stroke-linecap="round" stroke-linejoin="round" stroke-miterlimit="10" d="
			M104.807,161.767c0.379,1.511,0.186,3.442,0.271,5.04c-0.069-1.185-0.442-2.688,0.312-3.724c0.61-0.836,1.649-1.215,2.622-0.826"
			/>
		
			<path fill="none" stroke="#495A64" stroke-width="1.1274" stroke-linecap="round" stroke-linejoin="round" stroke-miterlimit="10" d="
			M110.674,160.14c-0.098,0.953-0.942,8.82,2.01,6.301"/>
		
			<path fill="none" stroke="#495A64" stroke-width="1.1274" stroke-linecap="round" stroke-linejoin="round" stroke-miterlimit="10" d="
			M113.715,164.212c1.403,0.212,3.443,0.351,4.828-0.117c-0.213-1.062-0.625-1.949-1.816-2.023c-0.944-0.057-2.271,0.477-2.74,1.343
			c-0.667,1.231,0.471,3.074,1.76,3.351c0.839,0.181,1.701-0.216,2.432-0.586c0.039-0.051-0.1,0.006-0.172-0.012"/>
		
			<path fill="none" stroke="#495A64" stroke-width="1.1274" stroke-linecap="round" stroke-linejoin="round" stroke-miterlimit="10" d="
			M120.618,161.823c0.809,1.758,1.615,3.758,2.594,5.416c0.248-1.055,0.553-2.017,0.921-3.045c0.141-0.387,0.608-1.516,0.612-1.559"
			/>
		
			<path fill="none" stroke="#495A64" stroke-width="1.1274" stroke-linecap="round" stroke-linejoin="round" stroke-miterlimit="10" d="
			M126.971,164.376c1.227-0.712,2.787-0.218,4.119-0.333c-0.707-2.234-3.365-2.663-4.029-0.109
			c-0.543,2.078,2.043,3.532,3.662,2.179"/>
		
			<path fill="none" stroke="#495A64" stroke-width="1.1274" stroke-linecap="round" stroke-linejoin="round" stroke-miterlimit="10" d="
			M133.654,161.876c0.26,1.538-0.078,3.172,0.221,4.706c-0.029-1.525,0.271-5.634,2.912-4.378c1.566,0.746,1.457,3.101,1.105,4.508"
			/>
		
			<path fill="none" stroke="#495A64" stroke-width="1.1274" stroke-linecap="round" stroke-linejoin="round" stroke-miterlimit="10" d="
			M140.334,160.464c0.227,1.272-0.674,6.999,2.395,5.867"/>
		
			<path fill="none" stroke="#495A64" stroke-width="1.1274" stroke-linecap="round" stroke-linejoin="round" stroke-miterlimit="10" d="
			M144.467,161.876c0.107,1.818-0.07,5.234,2.656,4.41c1.998-0.603,1.684-2.1,1.842-3.914c-0.135,0.813,0.225,4.136-0.371,4.556"/>
		
			<path fill="none" stroke="#495A64" stroke-width="1.1274" stroke-linecap="round" stroke-linejoin="round" stroke-miterlimit="10" d="
			M151.092,161.823c0.592,0.701,0.111,3.455,0.111,4.415c0.059-1.118-0.359-2.383,0.426-3.342c0.488-0.592,1.709-1.21,2.344-0.531"
			/>
		
			<path fill="none" stroke="#495A64" stroke-width="1.1274" stroke-linecap="round" stroke-linejoin="round" stroke-miterlimit="10" d="
			M139.359,162.041c0.566,0.05,3.055,0.018,3.094-0.111"/>
		
			<path fill="none" stroke="#495A64" stroke-width="1.1274" stroke-linecap="round" stroke-linejoin="round" stroke-miterlimit="10" d="
			M86.35,162.246c0.568,0.052,3.058,0.017,3.1-0.109"/>
		
			<path fill="none" stroke="#495A64" stroke-width="1.1274" stroke-linecap="round" stroke-linejoin="round" stroke-miterlimit="10" d="
			M108.942,162.246c0.562,0.052,3.055,0.017,3.097-0.109"/>
		
			<path fill="none" stroke="#495A64" stroke-width="1.1274" stroke-linecap="round" stroke-linejoin="round" stroke-miterlimit="10" d="
			M156.086,165.501c1.131,1.299,4.115,0.766,4.221-1.11c0.053-1.019-0.857-1.862-1.76-2.153
			C156.426,161.554,154.439,163.608,156.086,165.501z"/>
		
			<path fill="none" stroke="#495A64" stroke-width="1.1274" stroke-linecap="round" stroke-linejoin="round" stroke-miterlimit="10" d="
			M160.275,162.093c-0.045,1.46,0.422,3.155,0.379,4.454"/>
	</g>
</g>
</svg>
