<?xml version="1.0" encoding="utf-8"?>
<!-- Generator: Adobe Illustrator 16.0.0, SVG Export Plug-In . SVG Version: 6.00 Build 0)  -->
<!DOCTYPE svg PUBLIC "-//W3C//DTD SVG 1.1//EN" "http://www.w3.org/Graphics/SVG/1.1/DTD/svg11.dtd">
<svg version="1.1" id="Capa_1" xmlns="http://www.w3.org/2000/svg" xmlns:xlink="http://www.w3.org/1999/xlink" x="0px" y="0px"
	 width="250px" height="250px" viewBox="0 0 250 250" enable-background="new 0 0 250 250" xml:space="preserve">
<g>
	<g>
		<g>
			<path fill="#2A2B20" d="M127.065,52.433c-28.821,0-54.869,9.798-73.539,25.579v70.729v21.988v25.226
				c18.669-15.786,44.711-25.598,73.539-25.598c26.398,0,50.469,8.222,68.674,21.734v-33.317v-13.881V74.165
				C177.534,60.653,153.464,52.433,127.065,52.433z"/>
			<g>
				<path fill="#2A2B20" d="M127.065,47.953c-21.752,0.12-43.246,5.46-62.077,16.46c-4.161,2.431-8.063,5.237-11.868,8.183
					c-2.145,1.662-4.074,3.085-4.074,5.982c0,3.249,0,6.498,0,9.746c0,20.135,0,40.271,0,60.404c0,15.742,0,31.483,0,47.226
					c0,4.17,4.761,5.577,7.647,3.167c37.922-31.667,97.292-32.104,136.785-3.162c2.827,2.072,6.739-0.739,6.739-3.868
					c0-37.586,0-75.173,0-112.76c0-1.718,0-3.436,0-5.154c0-3.593-4.654-5.667-7.232-7.371c-3.815-2.522-7.838-4.718-11.944-6.727
					C164.287,51.885,145.66,48.057,127.065,47.953c-5.779-0.032-5.776,8.927,0,8.959c23.812,0.132,47.12,6.984,66.413,21.121
					c-0.739-1.29-1.479-2.579-2.219-3.869c0,36.191,0,72.383,0,108.575c0,3.117,0,6.233,0,9.351c2.247-1.289,4.494-2.579,6.74-3.868
					c-42.926-31.458-106.813-29.528-147.642,4.564c2.549,1.054,5.098,2.11,7.647,3.167c0-37.443,0-74.886,0-112.329
					c0-1.872,0-3.743,0-5.615c-0.437,1.056-0.875,2.112-1.312,3.168c19.62-16.377,45.038-24.128,70.37-24.267
					C132.84,56.88,132.844,47.922,127.065,47.953z"/>
			</g>
		</g>
		<g>
			<path fill="#CEE0E3" d="M196.265,74.165c-18.209-13.512-42.282-21.732-68.678-21.732c-28.821,0-54.867,9.798-73.538,25.579
				v47.212C72.72,109.441,98.761,99.63,127.587,99.63c26.396,0,50.469,8.221,68.678,21.734V74.165L196.265,74.165z"/>
			<g>
				<g>
					<defs>
						<path id="SVGID_1_" d="M101.36,100.875L78.333,77.842c-0.256-0.25-0.66-0.25-0.913,0l-23.035,23.034
							c-0.113,0.116-0.173,0.266-0.184,0.417c-0.164,0.163-0.261,0.39-0.261,0.638v45.799c0,0.502,0.402,0.91,0.907,0.91h45.799
							c0.502,0,0.906-0.408,0.906-0.91v-45.799c0-0.114-0.018-0.222-0.057-0.323C101.603,101.364,101.563,101.073,101.36,100.875z"
							/>
					</defs>
					<clipPath id="SVGID_2_">
						<use xlink:href="#SVGID_1_"  overflow="visible"/>
					</clipPath>
					<rect x="48.763" y="68.183" clip-path="url(#SVGID_2_)" fill="#1F71B8" width="56.144" height="7.077"/>
				</g>
				<g>
					<defs>
						<path id="SVGID_3_" d="M101.36,100.875L78.333,77.842c-0.256-0.25-0.66-0.25-0.913,0l-23.035,23.034
							c-0.113,0.116-0.173,0.266-0.184,0.417c-0.164,0.163-0.261,0.39-0.261,0.638v45.799c0,0.502,0.402,0.91,0.907,0.91h45.799
							c0.502,0,0.906-0.408,0.906-0.91v-45.799c0-0.114-0.018-0.222-0.057-0.323C101.603,101.364,101.563,101.073,101.36,100.875z"
							/>
					</defs>
					<clipPath id="SVGID_4_">
						<use xlink:href="#SVGID_3_"  overflow="visible"/>
					</clipPath>
					<rect x="48.763" y="75.26" clip-path="url(#SVGID_4_)" fill="#FFFFFF" width="56.144" height="7.08"/>
				</g>
				<g>
					<defs>
						<path id="SVGID_5_" d="M101.36,100.875L78.333,77.842c-0.256-0.25-0.66-0.25-0.913,0l-23.035,23.034
							c-0.113,0.116-0.173,0.266-0.184,0.417c-0.164,0.163-0.261,0.39-0.261,0.638v45.799c0,0.502,0.402,0.91,0.907,0.91h45.799
							c0.502,0,0.906-0.408,0.906-0.91v-45.799c0-0.114-0.018-0.222-0.057-0.323C101.603,101.364,101.563,101.073,101.36,100.875z"
							/>
					</defs>
					<clipPath id="SVGID_6_">
						<use xlink:href="#SVGID_5_"  overflow="visible"/>
					</clipPath>
					<rect x="48.763" y="82.339" clip-path="url(#SVGID_6_)" fill="#1F71B8" width="56.144" height="7.083"/>
				</g>
				<g>
					<defs>
						<path id="SVGID_7_" d="M101.36,100.875L78.333,77.842c-0.256-0.25-0.66-0.25-0.913,0l-23.035,23.034
							c-0.113,0.116-0.173,0.266-0.184,0.417c-0.164,0.163-0.261,0.39-0.261,0.638v45.799c0,0.502,0.402,0.91,0.907,0.91h45.799
							c0.502,0,0.906-0.408,0.906-0.91v-45.799c0-0.114-0.018-0.222-0.057-0.323C101.603,101.364,101.563,101.073,101.36,100.875z"
							/>
					</defs>
					<clipPath id="SVGID_8_">
						<use xlink:href="#SVGID_7_"  overflow="visible"/>
					</clipPath>
					<rect x="48.763" y="89.422" clip-path="url(#SVGID_8_)" fill="#FFFFFF" width="56.144" height="7.074"/>
				</g>
				<g>
					<defs>
						<path id="SVGID_9_" d="M101.36,100.875L78.333,77.842c-0.256-0.25-0.66-0.25-0.913,0l-23.035,23.034
							c-0.113,0.116-0.173,0.266-0.184,0.417c-0.164,0.163-0.261,0.39-0.261,0.638v45.799c0,0.502,0.402,0.91,0.907,0.91h45.799
							c0.502,0,0.906-0.408,0.906-0.91v-45.799c0-0.114-0.018-0.222-0.057-0.323C101.603,101.364,101.563,101.073,101.36,100.875z"
							/>
					</defs>
					<clipPath id="SVGID_10_">
						<use xlink:href="#SVGID_9_"  overflow="visible"/>
					</clipPath>
					<rect x="48.763" y="96.185" clip-path="url(#SVGID_10_)" fill="#1F71B8" width="56.144" height="7.08"/>
				</g>
				<g>
					<defs>
						<path id="SVGID_11_" d="M101.36,100.875L78.333,77.842c-0.256-0.25-0.66-0.25-0.913,0l-23.035,23.034
							c-0.113,0.116-0.173,0.266-0.184,0.417c-0.164,0.163-0.261,0.39-0.261,0.638v45.799c0,0.502,0.402,0.91,0.907,0.91h45.799
							c0.502,0,0.906-0.408,0.906-0.91v-45.799c0-0.114-0.018-0.222-0.057-0.323C101.603,101.364,101.563,101.073,101.36,100.875z"
							/>
					</defs>
					<clipPath id="SVGID_12_">
						<use xlink:href="#SVGID_11_"  overflow="visible"/>
					</clipPath>
					<rect x="48.763" y="103.264" clip-path="url(#SVGID_12_)" fill="#FFFFFF" width="56.144" height="7.079"/>
				</g>
				<g>
					<defs>
						<path id="SVGID_13_" d="M101.36,100.875L78.333,77.842c-0.256-0.25-0.66-0.25-0.913,0l-23.035,23.034
							c-0.113,0.116-0.173,0.266-0.184,0.417c-0.164,0.163-0.261,0.39-0.261,0.638v45.799c0,0.502,0.402,0.91,0.907,0.91h45.799
							c0.502,0,0.906-0.408,0.906-0.91v-45.799c0-0.114-0.018-0.222-0.057-0.323C101.603,101.364,101.563,101.073,101.36,100.875z"
							/>
					</defs>
					<clipPath id="SVGID_14_">
						<use xlink:href="#SVGID_13_"  overflow="visible"/>
					</clipPath>
					<rect x="48.975" y="109.989" clip-path="url(#SVGID_14_)" fill="#1F71B8" width="56.144" height="7.434"/>
				</g>
				<g>
					<defs>
						<path id="SVGID_15_" d="M101.36,100.875L78.333,77.842c-0.256-0.25-0.66-0.25-0.913,0l-23.035,23.034
							c-0.113,0.116-0.173,0.266-0.184,0.417c-0.164,0.163-0.261,0.39-0.261,0.638v45.799c0,0.502,0.402,0.91,0.907,0.91h45.799
							c0.502,0,0.906-0.408,0.906-0.91v-45.799c0-0.114-0.018-0.222-0.057-0.323C101.603,101.364,101.563,101.073,101.36,100.875z"
							/>
					</defs>
					<clipPath id="SVGID_16_">
						<use xlink:href="#SVGID_15_"  overflow="visible"/>
					</clipPath>
					<rect x="48.763" y="117.423" clip-path="url(#SVGID_16_)" fill="#FFFFFF" width="56.144" height="7.074"/>
				</g>
				<g>
					<defs>
						<path id="SVGID_17_" d="M101.36,100.875L78.333,77.842c-0.256-0.25-0.66-0.25-0.913,0l-23.035,23.034
							c-0.113,0.116-0.173,0.266-0.184,0.417c-0.164,0.163-0.261,0.39-0.261,0.638v45.799c0,0.502,0.402,0.91,0.907,0.91h45.799
							c0.502,0,0.906-0.408,0.906-0.91v-45.799c0-0.114-0.018-0.222-0.057-0.323C101.603,101.364,101.563,101.073,101.36,100.875z"
							/>
					</defs>
					<clipPath id="SVGID_18_">
						<use xlink:href="#SVGID_17_"  overflow="visible"/>
					</clipPath>
					<rect x="48.551" y="124.285" clip-path="url(#SVGID_18_)" fill="#1F71B8" width="56.143" height="7.293"/>
				</g>
				<g>
					<defs>
						<path id="SVGID_19_" d="M101.36,100.875L78.333,77.842c-0.256-0.25-0.66-0.25-0.913,0l-23.035,23.034
							c-0.113,0.116-0.173,0.266-0.184,0.417c-0.164,0.163-0.261,0.39-0.261,0.638v45.799c0,0.502,0.402,0.91,0.907,0.91h45.799
							c0.502,0,0.906-0.408,0.906-0.91v-45.799c0-0.114-0.018-0.222-0.057-0.323C101.603,101.364,101.563,101.073,101.36,100.875z"
							/>
					</defs>
					<clipPath id="SVGID_20_">
						<use xlink:href="#SVGID_19_"  overflow="visible"/>
					</clipPath>
					<rect x="48.763" y="131.578" clip-path="url(#SVGID_20_)" fill="#FFFFFF" width="56.144" height="7.08"/>
				</g>
				<g>
					<defs>
						<path id="SVGID_21_" d="M101.36,100.875L78.333,77.842c-0.256-0.25-0.66-0.25-0.913,0l-23.035,23.034
							c-0.113,0.116-0.173,0.266-0.184,0.417c-0.164,0.163-0.261,0.39-0.261,0.638v45.799c0,0.502,0.402,0.91,0.907,0.91h45.799
							c0.502,0,0.906-0.408,0.906-0.91v-45.799c0-0.114-0.018-0.222-0.057-0.323C101.603,101.364,101.563,101.073,101.36,100.875z"
							/>
					</defs>
					<clipPath id="SVGID_22_">
						<use xlink:href="#SVGID_21_"  overflow="visible"/>
					</clipPath>
					<rect x="48.763" y="138.658" clip-path="url(#SVGID_22_)" fill="#1F71B8" width="56.144" height="7.08"/>
				</g>
				<g>
					<defs>
						<path id="SVGID_23_" d="M101.36,100.875L78.333,77.842c-0.256-0.25-0.66-0.25-0.913,0l-23.035,23.034
							c-0.113,0.116-0.173,0.266-0.184,0.417c-0.164,0.163-0.261,0.39-0.261,0.638v45.799c0,0.502,0.402,0.91,0.907,0.91h45.799
							c0.502,0,0.906-0.408,0.906-0.91v-45.799c0-0.114-0.018-0.222-0.057-0.323C101.603,101.364,101.563,101.073,101.36,100.875z"
							/>
					</defs>
					<clipPath id="SVGID_24_">
						<use xlink:href="#SVGID_23_"  overflow="visible"/>
					</clipPath>
					<rect x="48.763" y="145.74" clip-path="url(#SVGID_24_)" fill="#FFFFFF" width="56.144" height="7.08"/>
				</g>
			</g>
			<g>
				<g>
					<defs>
						<path id="SVGID_25_" d="M148.251,100.875l-23.03-23.034c-0.253-0.25-0.662-0.25-0.915,0l-23.035,23.034
							c-0.113,0.116-0.175,0.266-0.182,0.417c-0.163,0.163-0.262,0.39-0.262,0.638v45.799c0,0.502,0.407,0.91,0.908,0.91h45.792
							c0.508,0,0.916-0.408,0.916-0.91v-45.799c0-0.114-0.028-0.222-0.064-0.323C148.482,101.364,148.45,101.073,148.251,100.875z"
							/>
					</defs>
					<clipPath id="SVGID_26_">
						<use xlink:href="#SVGID_25_"  overflow="visible"/>
					</clipPath>
					<rect x="95.74" y="68.549" clip-path="url(#SVGID_26_)" fill="#E5352B" width="56.144" height="7.077"/>
				</g>
				<g>
					<defs>
						<path id="SVGID_27_" d="M148.251,100.875l-23.03-23.034c-0.253-0.25-0.662-0.25-0.915,0l-23.035,23.034
							c-0.113,0.116-0.175,0.266-0.182,0.417c-0.163,0.163-0.262,0.39-0.262,0.638v45.799c0,0.502,0.407,0.91,0.908,0.91h45.792
							c0.508,0,0.916-0.408,0.916-0.91v-45.799c0-0.114-0.028-0.222-0.064-0.323C148.482,101.364,148.45,101.073,148.251,100.875z"
							/>
					</defs>
					<clipPath id="SVGID_28_">
						<use xlink:href="#SVGID_27_"  overflow="visible"/>
					</clipPath>
					<rect x="95.619" y="75.26" clip-path="url(#SVGID_28_)" fill="#FFFFFF" width="56.142" height="7.08"/>
				</g>
				<g>
					<defs>
						<path id="SVGID_29_" d="M148.251,100.875l-23.03-23.034c-0.253-0.25-0.662-0.25-0.915,0l-23.035,23.034
							c-0.113,0.116-0.175,0.266-0.182,0.417c-0.163,0.163-0.262,0.39-0.262,0.638v45.799c0,0.502,0.407,0.91,0.908,0.91h45.792
							c0.508,0,0.916-0.408,0.916-0.91v-45.799c0-0.114-0.028-0.222-0.064-0.323C148.482,101.364,148.45,101.073,148.251,100.875z"
							/>
					</defs>
					<clipPath id="SVGID_30_">
						<use xlink:href="#SVGID_29_"  overflow="visible"/>
					</clipPath>
					<rect x="95.74" y="82.219" clip-path="url(#SVGID_30_)" fill="#E5352B" width="56.144" height="7.079"/>
				</g>
				<g>
					<defs>
						<path id="SVGID_31_" d="M148.251,100.875l-23.03-23.034c-0.253-0.25-0.662-0.25-0.915,0l-23.035,23.034
							c-0.113,0.116-0.175,0.266-0.182,0.417c-0.163,0.163-0.262,0.39-0.262,0.638v45.799c0,0.502,0.407,0.91,0.908,0.91h45.792
							c0.508,0,0.916-0.408,0.916-0.91v-45.799c0-0.114-0.028-0.222-0.064-0.323C148.482,101.364,148.45,101.073,148.251,100.875z"
							/>
					</defs>
					<clipPath id="SVGID_32_">
						<use xlink:href="#SVGID_31_"  overflow="visible"/>
					</clipPath>
					<rect x="95.619" y="89.422" clip-path="url(#SVGID_32_)" fill="#FFFFFF" width="56.142" height="7.074"/>
				</g>
				<g>
					<defs>
						<path id="SVGID_33_" d="M148.251,100.875l-23.03-23.034c-0.253-0.25-0.662-0.25-0.915,0l-23.035,23.034
							c-0.113,0.116-0.175,0.266-0.182,0.417c-0.163,0.163-0.262,0.39-0.262,0.638v45.799c0,0.502,0.407,0.91,0.908,0.91h45.792
							c0.508,0,0.916-0.408,0.916-0.91v-45.799c0-0.114-0.028-0.222-0.064-0.323C148.482,101.364,148.45,101.073,148.251,100.875z"
							/>
					</defs>
					<clipPath id="SVGID_34_">
						<use xlink:href="#SVGID_33_"  overflow="visible"/>
					</clipPath>
					<rect x="95.74" y="96.549" clip-path="url(#SVGID_34_)" fill="#E5352B" width="56.144" height="7.078"/>
				</g>
				<g>
					<defs>
						<path id="SVGID_35_" d="M148.251,100.875l-23.03-23.034c-0.253-0.25-0.662-0.25-0.915,0l-23.035,23.034
							c-0.113,0.116-0.175,0.266-0.182,0.417c-0.163,0.163-0.262,0.39-0.262,0.638v45.799c0,0.502,0.407,0.91,0.908,0.91h45.792
							c0.508,0,0.916-0.408,0.916-0.91v-45.799c0-0.114-0.028-0.222-0.064-0.323C148.482,101.364,148.45,101.073,148.251,100.875z"
							/>
					</defs>
					<clipPath id="SVGID_36_">
						<use xlink:href="#SVGID_35_"  overflow="visible"/>
					</clipPath>
					<rect x="96.559" y="103.199" clip-path="url(#SVGID_36_)" fill="#FFFFFF" width="56.148" height="7.08"/>
				</g>
				<g>
					<defs>
						<path id="SVGID_37_" d="M148.251,100.875l-23.03-23.034c-0.253-0.25-0.662-0.25-0.915,0l-23.035,23.034
							c-0.113,0.116-0.175,0.266-0.182,0.417c-0.163,0.163-0.262,0.39-0.262,0.638v45.799c0,0.502,0.407,0.91,0.908,0.91h45.792
							c0.508,0,0.916-0.408,0.916-0.91v-45.799c0-0.114-0.028-0.222-0.064-0.323C148.482,101.364,148.45,101.073,148.251,100.875z"
							/>
					</defs>
					<clipPath id="SVGID_38_">
						<use xlink:href="#SVGID_37_"  overflow="visible"/>
					</clipPath>
					<rect x="96.547" y="109.948" clip-path="url(#SVGID_38_)" fill="#E5352B" width="56.144" height="7.604"/>
				</g>
				<g>
					<defs>
						<path id="SVGID_39_" d="M148.251,100.875l-23.03-23.034c-0.253-0.25-0.662-0.25-0.915,0l-23.035,23.034
							c-0.113,0.116-0.175,0.266-0.182,0.417c-0.163,0.163-0.262,0.39-0.262,0.638v45.799c0,0.502,0.407,0.91,0.908,0.91h45.792
							c0.508,0,0.916-0.408,0.916-0.91v-45.799c0-0.114-0.028-0.222-0.064-0.323C148.482,101.364,148.45,101.073,148.251,100.875z"
							/>
					</defs>
					<clipPath id="SVGID_40_">
						<use xlink:href="#SVGID_39_"  overflow="visible"/>
					</clipPath>
					<rect x="95.619" y="117.423" clip-path="url(#SVGID_40_)" fill="#FFFFFF" width="56.142" height="7.074"/>
				</g>
				<g>
					<defs>
						<path id="SVGID_41_" d="M148.251,100.875l-23.03-23.034c-0.253-0.25-0.662-0.25-0.915,0l-23.035,23.034
							c-0.113,0.116-0.175,0.266-0.182,0.417c-0.163,0.163-0.262,0.39-0.262,0.638v45.799c0,0.502,0.407,0.91,0.908,0.91h45.792
							c0.508,0,0.916-0.408,0.916-0.91v-45.799c0-0.114-0.028-0.222-0.064-0.323C148.482,101.364,148.45,101.073,148.251,100.875z"
							/>
					</defs>
					<clipPath id="SVGID_42_">
						<use xlink:href="#SVGID_41_"  overflow="visible"/>
					</clipPath>
					<rect x="95.74" y="124.379" clip-path="url(#SVGID_42_)" fill="#E5352B" width="56.144" height="7.08"/>
				</g>
				<g>
					<defs>
						<path id="SVGID_43_" d="M148.251,100.875l-23.03-23.034c-0.253-0.25-0.662-0.25-0.915,0l-23.035,23.034
							c-0.113,0.116-0.175,0.266-0.182,0.417c-0.163,0.163-0.262,0.39-0.262,0.638v45.799c0,0.502,0.407,0.91,0.908,0.91h45.792
							c0.508,0,0.916-0.408,0.916-0.91v-45.799c0-0.114-0.028-0.222-0.064-0.323C148.482,101.364,148.45,101.073,148.251,100.875z"
							/>
					</defs>
					<clipPath id="SVGID_44_">
						<use xlink:href="#SVGID_43_"  overflow="visible"/>
					</clipPath>
					<rect x="95.619" y="131.578" clip-path="url(#SVGID_44_)" fill="#FFFFFF" width="56.142" height="7.08"/>
				</g>
				<g>
					<defs>
						<path id="SVGID_45_" d="M148.251,100.875l-23.03-23.034c-0.253-0.25-0.662-0.25-0.915,0l-23.035,23.034
							c-0.113,0.116-0.175,0.266-0.182,0.417c-0.163,0.163-0.262,0.39-0.262,0.638v45.799c0,0.502,0.407,0.91,0.908,0.91h45.792
							c0.508,0,0.916-0.408,0.916-0.91v-45.799c0-0.114-0.028-0.222-0.064-0.323C148.482,101.364,148.45,101.073,148.251,100.875z"
							/>
					</defs>
					<clipPath id="SVGID_46_">
						<use xlink:href="#SVGID_45_"  overflow="visible"/>
					</clipPath>
					<rect x="95.619" y="138.658" clip-path="url(#SVGID_46_)" fill="#E5352B" width="56.142" height="7.08"/>
				</g>
				<g>
					<defs>
						<path id="SVGID_47_" d="M148.251,100.875l-23.03-23.034c-0.253-0.25-0.662-0.25-0.915,0l-23.035,23.034
							c-0.113,0.116-0.175,0.266-0.182,0.417c-0.163,0.163-0.262,0.39-0.262,0.638v45.799c0,0.502,0.407,0.91,0.908,0.91h45.792
							c0.508,0,0.916-0.408,0.916-0.91v-45.799c0-0.114-0.028-0.222-0.064-0.323C148.482,101.364,148.45,101.073,148.251,100.875z"
							/>
					</defs>
					<clipPath id="SVGID_48_">
						<use xlink:href="#SVGID_47_"  overflow="visible"/>
					</clipPath>
					<rect x="95.619" y="145.74" clip-path="url(#SVGID_48_)" fill="#FFFFFF" width="56.142" height="7.08"/>
				</g>
			</g>
			<g>
				<g>
					<defs>
						<path id="SVGID_49_" d="M196.189,100.549l-23.191-23.188c-0.252-0.253-0.664-0.253-0.918,0l-23.189,23.188
							c-0.118,0.117-0.173,0.268-0.187,0.419c-0.162,0.165-0.261,0.393-0.261,0.643v46.112c0,0.506,0.406,0.915,0.912,0.915h46.107
							c0.507,0,0.916-0.409,0.916-0.915v-46.112c0-0.117-0.021-0.227-0.064-0.328C196.429,101.044,196.389,100.747,196.189,100.549z
							"/>
					</defs>
					<clipPath id="SVGID_50_">
						<use xlink:href="#SVGID_49_"  overflow="visible"/>
					</clipPath>
					<rect x="144.143" y="68" clip-path="url(#SVGID_50_)" fill="#EABB44" width="56.534" height="7.13"/>
				</g>
				<g>
					<defs>
						<path id="SVGID_51_" d="M196.189,100.549l-23.191-23.188c-0.252-0.253-0.664-0.253-0.918,0l-23.189,23.188
							c-0.118,0.117-0.173,0.268-0.187,0.419c-0.162,0.165-0.261,0.393-0.261,0.643v46.112c0,0.506,0.406,0.915,0.912,0.915h46.107
							c0.507,0,0.916-0.409,0.916-0.915v-46.112c0-0.117-0.021-0.227-0.064-0.328C196.429,101.044,196.389,100.747,196.189,100.549z
							"/>
					</defs>
					<clipPath id="SVGID_52_">
						<use xlink:href="#SVGID_51_"  overflow="visible"/>
					</clipPath>
					<rect x="144.025" y="74.761" clip-path="url(#SVGID_52_)" fill="#FFFFFF" width="56.527" height="7.129"/>
				</g>
				<g>
					<defs>
						<path id="SVGID_53_" d="M196.189,100.549l-23.191-23.188c-0.252-0.253-0.664-0.253-0.918,0l-23.189,23.188
							c-0.118,0.117-0.173,0.268-0.187,0.419c-0.162,0.165-0.261,0.393-0.261,0.643v46.112c0,0.506,0.406,0.915,0.912,0.915h46.107
							c0.507,0,0.916-0.409,0.916-0.915v-46.112c0-0.117-0.021-0.227-0.064-0.328C196.429,101.044,196.389,100.747,196.189,100.549z
							"/>
					</defs>
					<clipPath id="SVGID_54_">
						<use xlink:href="#SVGID_53_"  overflow="visible"/>
					</clipPath>
					<rect x="144.143" y="81.766" clip-path="url(#SVGID_54_)" fill="#EABB44" width="56.534" height="7.13"/>
				</g>
				<g>
					<defs>
						<path id="SVGID_55_" d="M196.189,100.549l-23.191-23.188c-0.252-0.253-0.664-0.253-0.918,0l-23.189,23.188
							c-0.118,0.117-0.173,0.268-0.187,0.419c-0.162,0.165-0.261,0.393-0.261,0.643v46.112c0,0.506,0.406,0.915,0.912,0.915h46.107
							c0.507,0,0.916-0.409,0.916-0.915v-46.112c0-0.117-0.021-0.227-0.064-0.328C196.429,101.044,196.389,100.747,196.189,100.549z
							"/>
					</defs>
					<clipPath id="SVGID_56_">
						<use xlink:href="#SVGID_55_"  overflow="visible"/>
					</clipPath>
					<rect x="144.025" y="89.016" clip-path="url(#SVGID_56_)" fill="#FFFFFF" width="56.527" height="7.128"/>
				</g>
				<g>
					<defs>
						<path id="SVGID_57_" d="M196.189,100.549l-23.191-23.188c-0.252-0.253-0.664-0.253-0.918,0l-23.189,23.188
							c-0.118,0.117-0.173,0.268-0.187,0.419c-0.162,0.165-0.261,0.393-0.261,0.643v46.112c0,0.506,0.406,0.915,0.912,0.915h46.107
							c0.507,0,0.916-0.409,0.916-0.915v-46.112c0-0.117-0.021-0.227-0.064-0.328C196.429,101.044,196.389,100.747,196.189,100.549z
							"/>
					</defs>
					<clipPath id="SVGID_58_">
						<use xlink:href="#SVGID_57_"  overflow="visible"/>
					</clipPath>
					<rect x="144.213" y="95.492" clip-path="url(#SVGID_58_)" fill="#EABB44" width="56.534" height="8.279"/>
				</g>
				<g>
					<defs>
						<path id="SVGID_59_" d="M196.189,100.549l-23.191-23.188c-0.252-0.253-0.664-0.253-0.918,0l-23.189,23.188
							c-0.118,0.117-0.173,0.268-0.187,0.419c-0.162,0.165-0.261,0.393-0.261,0.643v46.112c0,0.506,0.406,0.915,0.912,0.915h46.107
							c0.507,0,0.916-0.409,0.916-0.915v-46.112c0-0.117-0.021-0.227-0.064-0.328C196.429,101.044,196.389,100.747,196.189,100.549z
							"/>
					</defs>
					<clipPath id="SVGID_60_">
						<use xlink:href="#SVGID_59_"  overflow="visible"/>
					</clipPath>
					<rect x="144.025" y="103.094" clip-path="url(#SVGID_60_)" fill="#FFFFFF" width="56.527" height="6.987"/>
				</g>
				<g>
					<defs>
						<path id="SVGID_61_" d="M196.189,100.549l-23.191-23.188c-0.252-0.253-0.664-0.253-0.918,0l-23.189,23.188
							c-0.118,0.117-0.173,0.268-0.187,0.419c-0.162,0.165-0.261,0.393-0.261,0.643v46.112c0,0.506,0.406,0.915,0.912,0.915h46.107
							c0.507,0,0.916-0.409,0.916-0.915v-46.112c0-0.117-0.021-0.227-0.064-0.328C196.429,101.044,196.389,100.747,196.189,100.549z
							"/>
					</defs>
					<clipPath id="SVGID_62_">
						<use xlink:href="#SVGID_61_"  overflow="visible"/>
					</clipPath>
					<rect x="144.143" y="109.956" clip-path="url(#SVGID_62_)" fill="#EABB44" width="56.534" height="8.119"/>
				</g>
				<g>
					<defs>
						<path id="SVGID_63_" d="M196.189,100.549l-23.191-23.188c-0.252-0.253-0.664-0.253-0.918,0l-23.189,23.188
							c-0.118,0.117-0.173,0.268-0.187,0.419c-0.162,0.165-0.261,0.393-0.261,0.643v46.112c0,0.506,0.406,0.915,0.912,0.915h46.107
							c0.507,0,0.916-0.409,0.916-0.915v-46.112c0-0.117-0.021-0.227-0.064-0.328C196.429,101.044,196.389,100.747,196.189,100.549z
							"/>
					</defs>
					<clipPath id="SVGID_64_">
						<use xlink:href="#SVGID_63_"  overflow="visible"/>
					</clipPath>
					<rect x="144.025" y="117.491" clip-path="url(#SVGID_64_)" fill="#FFFFFF" width="56.527" height="6.845"/>
				</g>
				<g>
					<defs>
						<path id="SVGID_65_" d="M196.189,100.549l-23.191-23.188c-0.252-0.253-0.664-0.253-0.918,0l-23.189,23.188
							c-0.118,0.117-0.173,0.268-0.187,0.419c-0.162,0.165-0.261,0.393-0.261,0.643v46.112c0,0.506,0.406,0.915,0.912,0.915h46.107
							c0.507,0,0.916-0.409,0.916-0.915v-46.112c0-0.117-0.021-0.227-0.064-0.328C196.429,101.044,196.389,100.747,196.189,100.549z
							"/>
					</defs>
					<clipPath id="SVGID_66_">
						<use xlink:href="#SVGID_65_"  overflow="visible"/>
					</clipPath>
					<rect x="144.143" y="124.213" clip-path="url(#SVGID_66_)" fill="#EABB44" width="56.534" height="7.129"/>
				</g>
				<g>
					<defs>
						<path id="SVGID_67_" d="M196.189,100.549l-23.191-23.188c-0.252-0.253-0.664-0.253-0.918,0l-23.189,23.188
							c-0.118,0.117-0.173,0.268-0.187,0.419c-0.162,0.165-0.261,0.393-0.261,0.643v46.112c0,0.506,0.406,0.915,0.912,0.915h46.107
							c0.507,0,0.916-0.409,0.916-0.915v-46.112c0-0.117-0.021-0.227-0.064-0.328C196.429,101.044,196.389,100.747,196.189,100.549z
							"/>
					</defs>
					<clipPath id="SVGID_68_">
						<use xlink:href="#SVGID_67_"  overflow="visible"/>
					</clipPath>
					<polygon clip-path="url(#SVGID_68_)" fill="#FFFFFF" points="200.553,138.589 144.025,138.589 144.06,130.774 200.092,130.722 
											"/>
				</g>
				<g>
					<defs>
						<path id="SVGID_69_" d="M196.189,100.549l-23.191-23.188c-0.252-0.253-0.664-0.253-0.918,0l-23.189,23.188
							c-0.118,0.117-0.173,0.268-0.187,0.419c-0.162,0.165-0.261,0.393-0.261,0.643v46.112c0,0.506,0.406,0.915,0.912,0.915h46.107
							c0.507,0,0.916-0.409,0.916-0.915v-46.112c0-0.117-0.021-0.227-0.064-0.328C196.429,101.044,196.389,100.747,196.189,100.549z
							"/>
					</defs>
					<clipPath id="SVGID_70_">
						<use xlink:href="#SVGID_69_"  overflow="visible"/>
					</clipPath>
					<rect x="144.025" y="138.589" clip-path="url(#SVGID_70_)" fill="#EABB44" width="56.527" height="7.131"/>
				</g>
				<g>
					<defs>
						<path id="SVGID_71_" d="M196.189,100.549l-23.191-23.188c-0.252-0.253-0.664-0.253-0.918,0l-23.189,23.188
							c-0.118,0.117-0.173,0.268-0.187,0.419c-0.162,0.165-0.261,0.393-0.261,0.643v46.112c0,0.506,0.406,0.915,0.912,0.915h46.107
							c0.507,0,0.916-0.409,0.916-0.915v-46.112c0-0.117-0.021-0.227-0.064-0.328C196.429,101.044,196.389,100.747,196.189,100.549z
							"/>
					</defs>
					<clipPath id="SVGID_72_">
						<use xlink:href="#SVGID_71_"  overflow="visible"/>
					</clipPath>
					<rect x="144.025" y="145.72" clip-path="url(#SVGID_72_)" fill="#FFFFFF" width="56.527" height="7.126"/>
				</g>
			</g>
			<g>
				<path fill="#2A2B20" d="M196.452,145.217c-18.209-13.512-42.47-22.057-68.865-22.057c-28.822,0-54.868,9.801-73.539,25.581
					v47.214c18.671-15.786,44.712-25.598,73.539-25.598c26.395,0,50.469,8.222,68.677,21.734L196.452,145.217z"/>
				<g>
					<g>
						<path fill="#FAFAF6" d="M86.394,146.028c-10.429-8.763-26.628,3.406-24.329,15.973c1.313,7.173,9.359,12.252,16.488,11.024
							c8.834-1.524,13.084-9.902,11.536-18.281c-0.083-0.448-0.559-0.589-0.942-0.535c-3.965,0.554-7.773,1.752-11.681,2.576
							c-0.968,0.204-0.557,1.682,0.407,1.478c2.139-0.451,4.248-1.009,6.366-1.544c2.465-0.623,4.58-1.773,4.739,1.604
							c0.211,4.479-2.082,8.705-5.654,11.281c-6.51,4.697-17.102,0.83-19.488-6.652c-3.596-11.281,11.886-23.896,21.474-15.839
							C86.061,147.744,87.15,146.665,86.394,146.028L86.394,146.028z"/>
					</g>
				</g>
				<g>
					<g>
						<path fill="#FAFAF6" d="M154.569,150.184c-0.054,7.757-5.559,14.796-13.743,14.47c-7.741-0.311-12.899-8.674-11.007-15.725
							c1.525-5.681,7.119-10.275,12.893-10.923C149.897,137.201,154.327,143.833,154.569,150.184c0.038,0.985,1.57,0.988,1.532,0
							c-0.277-7.224-4.938-13.666-12.672-13.747c-7.173-0.074-13.518,6.234-15.283,12.809c-2.021,7.531,4.142,15.965,11.807,16.841
							c9.356,1.069,16.088-7.064,16.148-15.902C156.108,149.194,154.576,149.195,154.569,150.184z"/>
					</g>
				</g>
				<g>
					<g>
						<path fill="#FAFAF6" d="M96.452,138.589c0.993,8.838,1.766,17.695,2.499,26.556c0.081,0.979,1.615,0.986,1.533,0
							c-0.734-8.861-1.506-17.719-2.5-26.556C97.876,137.617,96.342,137.607,96.452,138.589L96.452,138.589z"/>
					</g>
				</g>
				<g>
					<g>
						<path fill="#FAFAF6" d="M154.831,131.265c-4.329,0.731-8.669,1.408-13.014,2.049c-0.975,0.144-0.559,1.62,0.407,1.478
							c4.345-0.64,8.684-1.317,13.014-2.049C156.212,132.577,155.798,131.1,154.831,131.265L154.831,131.265z"/>
					</g>
				</g>
				<g>
					<g>
						<path fill="#FAFAF6" d="M119.311,138.842c0.677,6.194,1.491,12.872-0.061,18.998c-1.658,6.543-7.56,5.135-12.271,2.716
							c-0.878-0.45-1.653,0.872-0.774,1.323c4.299,2.208,9.879,4.173,13.2-0.529c4.086-5.786,2.14-16.112,1.441-22.508
							C120.738,137.871,119.204,137.86,119.311,138.842L119.311,138.842z"/>
					</g>
				</g>
				<g>
					<g>
						<path fill="#FAFAF6" d="M160.721,168.499c1.943-8.275,4.584-16.392,6.178-24.748c-0.467,0.061-0.934,0.121-1.4,0.184
							c4.97,10.706,8.985,22.347,15.578,32.202c0.349,0.519,1.244,0.503,1.4-0.184c2.051-8.899,4.195-17.773,6.169-26.69
							c0.213-0.963-1.265-1.372-1.478-0.408c-1.975,8.918-4.119,17.792-6.169,26.69c0.468-0.061,0.935-0.121,1.401-0.183
							c-6.594-9.854-10.609-21.496-15.578-32.203c-0.274-0.589-1.281-0.446-1.401,0.185c-1.595,8.356-4.236,16.472-6.178,24.747
							C159.019,169.053,160.496,169.461,160.721,168.499L160.721,168.499z"/>
					</g>
				</g>
			</g>
		</g>
	</g>
	<path fill="none" stroke="#FFFFFF" stroke-width="0.1428" stroke-linejoin="round" stroke-miterlimit="10" d="M108.109,49.561
		l1.295,3.594l0.57-3.578c0,0,0.583,3.433,0.663,3.433c0.075-0.002,0.999-4.335,1-4.182c0.004,0.155,0.044,3.735,0.044,3.735
		l1.28-3.755l0.042,3.74l1.538-3.76l0.036,3.986l1.39-4.001l0.044,3.74l1.353-3.758l0.047,3.738l1.271-3.752l0.18,3.737l1.142-3.751
		l0.053,3.834l1.295-3.853l0.049,3.74l1.353-3.758l0.044,3.838l1.458-3.856l0.148,3.739l1.278-3.755l0.362,3.493
		c0,0,1.087-3.517,1.115-3.512c0.023,0.003,0.047,3.837,0.047,3.837s1.348-3.963,1.38-3.857c0.022,0.111,0.419,3.529,0.419,3.529
		l1.211-3.551l0.485,3.551c0,0,0.888-3.674,0.915-3.564c0.027,0.111,1.099,3.761,1.099,3.761l0.581-3.784l1.057,3.627l1.366-3.549
		l0.348,3.51l1.327-3.393l0.662,3.783l1.561-3.626l0.337,3.602"/>
	<path fill="none" stroke="#FFFFFF" stroke-width="0.1428" stroke-linejoin="round" stroke-miterlimit="10" d="M139.652,49.071
		l0.335,3.458l2.061-3.491c0,0-0.102,3.29-0.141,3.642c-0.044,0.382,1.942-3.333,1.908-3.183c-0.039,0.151-0.357,3.17-0.357,3.17
		l2.134-3.346l-0.843,3.641l2.382-3.285l-0.842,3.644l2.229-3.324l-0.845,3.643l2.208-3.326l-0.845,3.644l2.13-3.346l-0.527,3.576
		l1.999-3.375l-1.048,3.834l2.181-3.434l-0.85,3.643l2.207-3.327l-0.866,3.74l2.196-3.638l-0.609,3.902l1.998-3.58l-0.707,3.878
		c0,0,2.256-3.32,2.279-3.309c0.025,0.011-0.867,3.74-0.867,3.74s2.256-3.529,2.256-3.417c0,0.112-0.892,3.841-0.892,3.841
		l2.48-3.477l-0.787,3.869c0,0,2.154-3.665,2.154-3.552s-0.931,4.019-0.931,4.019l2.574-3.639l-0.936,4.019l2.69-3.324l-0.975,3.721
		l2.717-3.202l-1.077,3.584l2.806-3.089l-0.925,3.842"/>
	<path fill="none" stroke="#FFFFFF" stroke-width="0.1428" stroke-linejoin="round" stroke-miterlimit="10" d="M170.652,55.687
		l-0.99,3.772l3.24-2.672c0,0-1.4,3.593-1.335,3.628c0.066,0.034,3.35-3.19,3.282-3.053c-0.068,0.14-2,3.746-2,3.746l3.188-3.165
		l-1.664,3.353l2.853-2.909l-1.432,3.61l2.924-3.13l-1.649,3.763l2.984-3.229l-1.732,3.85l2.906-3.209l-1.604,3.853l2.724-3.373
		l-1.697,3.989l2.924-3.616l-1.67,4.125l2.844-3.431l-1.641,4.139l2.815-3.659l-1.332,4.282l2.827-3.482l-1.644,4.068
		c0,0,2.9-3.495,2.924-3.482c0.023,0.017-1.643,4.229-1.643,4.229s3.001-3.482,2.976-3.374c-0.022,0.109-1.747,4.098-1.747,4.098
		l3.295-3.405l-1.742,4.175c0,0,2.944-3.072,2.916-2.96c-0.022,0.11-1.653,4.014-1.653,4.014l3.161-3.269l-1.562,4.176l3.041-3.307
		l-1.813,4.162l3.36-2.882l-2.079,3.416l4.063-1.19l-2.892,2.257l3.522-0.374l-3.225,1.322l3.633,1.006c0,0-3.74-0.002-3.73,0.076
		c0,0.078,3.917,1.399,3.759,1.403c-0.155,0.002-3.73,0.075-3.73,0.075l3.762,1.247l-3.739,0.075l3.77,1.506l-3.737,0.072
		l3.767,1.351l-3.735,0.076l3.766,1.324l-3.738,0.072l3.763,1.248l-3.734,0.206l3.762,1.117l-3.84,0.079l3.865,1.268l-3.736,0.075
		l3.768,1.322l-3.838,0.078l3.867,1.426l-3.736,0.181l3.763,1.244l-3.738,0.075c0,0,3.77,1.375,3.769,1.4
		c-0.005,0.028-3.837,0.081-3.837,0.081s3.975,1.317,3.869,1.344c-0.112,0.031-3.944,0.081-3.944,0.081l3.975,1.554l-3.942,0.184
		c0,0,4.082,1.188,3.969,1.214c-0.108,0.027-4.124,0.083-4.124,0.083l4.162,1.603l-4.126,0.083l4.162,1.678l-4.124,0.081
		l4.159,1.601l-4.127,0.083l3.581,1.61l-3.629,0.094"/>
	<path fill="none" stroke="#FFFFFF" stroke-width="0.1428" stroke-linejoin="round" stroke-miterlimit="10" d="M110.184,172.984
		l0.643,3.768l1.089-3.768c0,0-0.075,3.735,0,3.735c0.083,0,1.479-3.893,1.479-3.735c0,0.156,0,3.735,0,3.735l1.321-3.738v3.738
		l1.578-3.738v3.738l1.425-3.738v3.738l1.397-3.738v3.738l1.325-3.738l0.128,3.738l1.192-3.738v3.837l1.349-3.837v3.738l1.397-3.738
		v3.837l1.504-3.837l0.103,3.738l1.322-3.738v3.738c0,0,1.447-3.741,1.475-3.738c0.026,0.003,0,3.837,0,3.837
		s1.398-3.945,1.426-3.837c0.026,0.109,0,3.943,0,3.943l1.631-3.946l0.104,3.946c0,0,1.271-4.058,1.297-3.946
		c0.024,0.112,0,4.125,0,4.125l1.686-4.125v4.125l1.76-4.125v4.125l1.686-4.125v4.125l1.631-4.125l0.771,4.007"/>
	<path fill="none" stroke="#FFFFFF" stroke-width="0.1428" stroke-linejoin="round" stroke-miterlimit="10" d="M140.055,173.075
		l0.887,3.917l1.925-3.623c0,0-0.921,3.623-0.845,3.637c0.073,0.021,2.315-3.454,2.283-3.306c-0.04,0.152-0.847,3.64-0.847,3.64
		l2.134-3.346l-0.843,3.645l2.382-3.285l-0.842,3.64l2.229-3.319l-0.845,3.643l2.208-3.328l-0.845,3.643l2.13-3.347l-0.717,3.676
		l2-3.375l-0.859,3.743l2.181-3.442l-0.85,3.645l2.207-3.326l-0.866,3.741l2.334-3.4l-0.747,3.664l2.133-3.342l-0.842,3.639
		c0,0,2.256-3.318,2.279-3.307c0.025,0.011-0.867,3.738-0.867,3.738s2.256-3.531,2.256-3.416c0,0.108-0.892,3.84-0.892,3.84
		l2.48-3.477l-0.787,3.865c0,0,2.154-3.661,2.154-3.552c0,0.115-0.931,4.022-0.931,4.022l2.574-3.644l-0.936,4.021l2.646-3.624
		l-0.929,4.022l2.571-3.643l-0.933,4.025l2.447-3.422l-0.943,4.055c0,0,2.709-3.031,2.697-2.929l-1.68,3.331l3.233-2.549
		c0,0-1.75,3.296-1.685,3.331c0.066,0.036,3.069-2.806,3.001-2.669c-0.071,0.137-1.682,3.332-1.682,3.332l2.866-2.74l-1.688,3.339
		l3.095-2.627l-1.684,3.337l2.956-2.695l-1.686,3.339l2.933-2.708l-1.685,3.338l2.862-2.745l-1.565,3.398l2.747-2.802l-1.725,3.427
		l2.93-2.822l-1.681,3.342l2.929-2.715l-1.729,3.43l3.071-2.749l-1.595,3.385l2.863-2.744l-1.685,3.337c0,0,2.982-2.69,3.003-2.674
		c0.025,0.018-1.728,3.429-1.728,3.429s3.027-2.894,3-2.784c-0.024,0.106-1.778,3.52-1.778,3.52l3.237-2.788l-1.688,3.568
		c0,0,2.966-3.049,2.937-2.938c-0.023,0.11-1.858,3.687-1.858,3.687l3.36-2.931l-1.854,3.687l3.431-2.891l-1.858,3.682l3.364-2.926
		l-1.861,3.688l3.316-2.951l-1.813,3.594l3.814-3.676l-3.917-0.906l4.021-0.08l-4.156-1.552l4.127-0.08l-4.159-1.6l4.124-0.083
		l-4.162-1.68l4.126-0.08l-4.162-1.604c0,0,4.016-0.053,4.124-0.084c0.113-0.026-3.969-1.215-3.969-1.215l3.942-0.184l-3.975-1.551
		c0,0,3.832-0.053,3.945-0.081c0.105-0.029-3.87-1.347-3.87-1.347s3.832-0.05,3.837-0.079c0.002-0.025-3.768-1.399-3.768-1.399
		l3.738-0.077l-3.764-1.247l3.737-0.177l-3.868-1.428l3.838-0.075l-3.768-1.321l3.736-0.08l-3.865-1.264l3.84-0.08l-3.763-1.118
		l3.735-0.204l-3.764-1.246l3.738-0.072l-3.765-1.328l3.734-0.076l-3.766-1.349l3.736-0.07l-3.769-1.507l3.739-0.075l-3.761-1.25
		c0,0,3.575-0.067,3.729-0.072c0.157-0.003-3.76-1.323-3.76-1.4c-0.009-0.08,3.73-0.073,3.73-0.073l-3.771-1.664l3.735-0.073"/>
	<path fill="none" stroke="#FFFFFF" stroke-width="0.1428" stroke-linejoin="round" stroke-miterlimit="10" d="M200.273,103.838
		l-3.734,0.076l3.771,1.662c0,0-3.739-0.004-3.73,0.075c0,0.077,3.917,1.4,3.76,1.4c-0.154,0.005-3.729,0.075-3.729,0.075
		l3.761,1.247l-3.74,0.075l3.771,1.506l-3.737,0.075l3.766,1.347l-3.734,0.075l3.765,1.325l-3.737,0.075l3.762,1.247l-3.734,0.204
		l3.763,1.119l-3.84,0.075l3.865,1.269l-3.736,0.079l3.768,1.321l-3.839,0.076l3.869,1.427l-3.737,0.179l3.764,1.246l-3.738,0.076
		c0,0,3.77,1.375,3.768,1.399c-0.005,0.026-3.837,0.08-3.837,0.08s3.975,1.318,3.87,1.347c-0.113,0.027-3.945,0.081-3.945,0.081
		l3.975,1.55l-3.941,0.184c0,0,4.081,1.188,3.968,1.217c-0.108,0.028-4.125,0.084-4.125,0.084l4.162,1.6l-4.125,0.084l4.162,1.678
		l-4.124,0.081l4.16,1.604l-4.128,0.083l4.156,1.545l-4.021,0.084"/>
	<path fill="none" stroke="#FFFFFF" stroke-width="0.1428" stroke-linejoin="round" stroke-miterlimit="10" d="M200.827,133.71
		l-3.914,0.094l3.396,1.461c0,0-3.74-0.006-3.73,0.072c0,0.078,3.917,1.4,3.759,1.402c-0.155,0.004-3.73,0.076-3.73,0.076
		l3.762,1.247l-3.739,0.075l3.77,1.505l-3.737,0.073l3.767,1.351l-3.735,0.075l3.766,1.322l-3.738,0.075l3.763,1.247l-3.734,0.206
		l3.762,1.116l-3.84,0.077l3.865,1.271l-3.736,0.075l3.768,1.323l-3.838,0.074l3.867,1.428l-3.736,0.18l3.763,1.242l-3.738,0.079
		c0,0,3.77,1.376,3.769,1.399c-0.005,0.024-3.837,0.078-3.837,0.078s3.975,1.32,3.869,1.348c-0.112,0.026-3.944,0.078-3.944,0.078
		l3.975,1.554l-3.942,0.184c0,0,4.082,1.188,3.969,1.214c-0.108,0.03-4.124,0.083-4.124,0.083l4.162,1.604l-4.126,0.082l4.162,1.678
		l-4.124,0.082l4.159,1.603l-4.127,0.083l4.156,1.547l-4.021,0.082"/>
	<path fill="none" stroke="#FFFFFF" stroke-width="0.1428" stroke-linejoin="round" stroke-miterlimit="10" d="M78.271,58.21
		l0.459,3.468l-2.506-2.966c0,0,1.132,3.769,1.07,3.813c-0.071,0.042-2.825-2.981-2.74-2.852c0.083,0.133,1.608,3.67,1.608,3.67
		l-2.78-3.131l1.259,3.873l-3.412-2.961l1.929,3.741l-3.132-2.972l2.04,3.595l-3.215-2.839l2.02,3.149l-3.125-2.436l1.905,3.217
		l-3.023-2.504l2.07,3.23l-3.202-2.503l2.016,3.147l-3.195-2.393l2.073,3.23l-3.337-2.418l1.927,3.203l-3.125-2.434l2.015,3.147
		c0,0-3.244-2.369-3.261-2.349c-0.022,0.017,2.068,3.23,2.068,3.23s-3.306-2.565-3.266-2.463c0.036,0.106,2.125,3.32,2.125,3.32
		l-3.506-2.439l2.049,3.375c0,0-3.262-2.729-3.222-2.622c0.035,0.107,2.224,3.475,2.224,3.475l-3.644-2.566l2.227,3.475
		l-3.712-2.526l2.227,3.478l-3.642-2.57l2.228,3.479l-3.413-2.332l2.37,3.465l-3.765-1.133l3.599,1.963l-3.888,0.512
		c0,0,4.068,1.251,4.068,1.328c0,0.079-3.918,1.4-3.763,1.4c0.155,0.005,3.73,0.076,3.73,0.076l-3.765,1.25l3.741,0.073l-3.77,1.508
		l3.739,0.072l-3.765,1.349l3.739,0.078l-3.768,1.322l3.734,0.075l-3.765,1.247l3.739,0.205l-3.765,1.117l3.84,0.079l-3.867,1.268
		l3.741,0.075L49.748,92.9l3.838,0.078l-3.87,1.425l3.735,0.178l-3.768,1.247l3.741,0.076c0,0-3.772,1.375-3.765,1.402
		c0.004,0.025,3.838,0.075,3.838,0.075s-3.978,1.32-3.87,1.35c0.106,0.028,3.945,0.078,3.945,0.078l-3.978,1.554l3.94,0.184
		c0,0-4.08,1.188-3.971,1.214c0.108,0.027,4.128,0.083,4.128,0.083l-4.162,1.604l4.124,0.083l-4.162,1.675l4.13,0.083l-4.159,1.6
		l4.123,0.084l-4.161,1.547l4.024,0.083"/>
	<path fill="none" stroke="#FFFFFF" stroke-width="0.1428" stroke-linejoin="round" stroke-miterlimit="10" d="M108.064,49.518
		l-0.09,3.806l-1.832-3.429c0,0,0.123,3.761,0.049,3.778c-0.076,0.017-2.248-3.381-2.214-3.234c0.039,0.153,0.871,3.632,0.871,3.632
		l-2.153-3.328l0.869,3.637l-2.141-3.607l0.601,3.978L100,51.024l0.644,4.059l-1.938-3.725l0.577,4.05l-1.79-3.715l0.378,4.052
		l-1.965-3.843l0.827,4.217l-1.746-3.757l0.416,3.973l-2.212-3.931l0.871,4.354l-2.04-3.937l0.455,4.215l-1.648-3.285l0.367,3.593
		c0,0-2.283-3.306-2.307-3.294c-0.024,0.011,0.893,3.734,0.893,3.734s-2.279-3.515-2.279-3.404c0,0.115,0.918,3.838,0.918,3.838
		l-2.506-3.459l0.816,3.86c0,0-2.181-3.646-2.176-3.531c0,0.114,0.958,4.01,0.958,4.01l-2.599-3.621l0.963,4.012l-2.331-2.774
		l0.857,3.743l-2.416-3.419l0.896,3.888l-2.568-2.928l0.46,3.677"/>
	<path fill="none" stroke="#FFFFFF" stroke-width="0.1428" stroke-linejoin="round" stroke-miterlimit="10" d="M110.168,172.981
		l-0.186,3.633l-1.843-3.435c0,0,0.23,3.811,0.151,3.826c-0.075,0.021-1.739-3.478-1.706-3.329c0.034,0.152,0.271,3.663,0.271,3.663
		l-1.509-3.487l0.219,3.786l-1.633-3.361l0.095,3.718l-1.791-3.293l0.404,3.615l-1.501-3.438l0.135,3.753l-2.128-3.347l0.716,3.676
		l-2.004-3.375l0.866,3.743l-2.176-3.442l0.841,3.645l-2.21-3.326l0.866,3.741l-2.329-3.401l0.745,3.664l-2.131-3.341l0.848,3.639
		c0,0-2.261-3.318-2.29-3.308c-0.021,0.012,0.869,3.738,0.869,3.738s-2.255-3.53-2.255-3.415c0,0.107,0.89,3.84,0.89,3.84
		l-2.479-3.477l0.789,3.865c0,0-2.152-3.661-2.152-3.552c0,0.115,0.932,4.022,0.932,4.022l-2.572-3.645l0.93,4.023l-2.345-3.374
		l0.672,4.031l-2.614-3.902l0.917,4.682l-2.582-3.395l0.764,3.605"/>
	<path fill="none" stroke="#FFFFFF" stroke-width="0.1428" stroke-linejoin="round" stroke-miterlimit="10" d="M79.924,180.779
		l0.874,3.964l-2.5-2.828c0,0,1.05,3.491,0.99,3.534c-0.066,0.045-2.88-2.886-2.793-2.757c0.088,0.127,1.521,3.43,1.521,3.43
		l-2.688-2.653l1.308,3.714l-3.069-2.685l1.938,3.179l-3.111-2.379l2.089,3.102l-3.251-2.317l2.092,3.099l-3.187-2.36l1.985,3.171
		l-3.085-2.43l2.151,3.182l-3.262-2.428l2.095,3.098l-3.253-2.313l1.736,3.562l-2.983-2.723l2.009,3.158l-3.19-2.357l2.096,3.097
		c0,0-3.297-2.29-3.32-2.271c-0.019,0.019,2.148,3.184,2.148,3.184s-3.37-2.489-3.328-2.388c0.04,0.106,2.208,3.269,2.208,3.269
		l-3.56-2.354l2.117,3.327c0,0-3.319-2.651-3.274-2.546c0.035,0.106,2.305,3.419,2.305,3.419l-3.703-2.478l2.309,3.421l-3.768-2.435
		l2.31,3.421l-3.708-2.477l1.914,4.006l-2.688-2.793v3.714"/>
	<path fill="none" stroke="#FFFFFF" stroke-width="0.1428" stroke-linejoin="round" stroke-miterlimit="10" d="M49.687,108.53
		l3.729,0.073l-3.415,1.732c0,0,3.737-0.002,3.737,0.075c0,0.075-3.917,1.396-3.763,1.4c0.155,0.006,3.73,0.075,3.73,0.075
		l-3.766,1.247l3.742,0.075l-3.771,1.506l3.739,0.073l-3.765,1.35l3.739,0.075l-3.768,1.324l3.734,0.076l-3.766,1.247l3.739,0.204
		L49.8,120.18l3.84,0.075l-3.867,1.27l3.742,0.076l-3.766,1.323l3.838,0.075l-3.87,1.429l3.735,0.178l-3.768,1.244l3.742,0.075
		c0,0-3.772,1.378-3.766,1.402c0.004,0.028,3.839,0.079,3.839,0.079s-3.978,1.32-3.87,1.349c0.106,0.026,3.945,0.076,3.945,0.076
		l-3.978,1.555l3.94,0.183c0,0-4.08,1.188-3.971,1.218c0.108,0.027,4.128,0.083,4.128,0.083l-4.162,1.602l4.124,0.083l-4.162,1.679
		l4.13,0.084l-4.159,1.597l4.123,0.083l-4.161,1.551l4.024,0.08"/>
	<path fill="none" stroke="#FFFFFF" stroke-width="0.1428" stroke-linejoin="round" stroke-miterlimit="10" d="M50.04,138.493
		l3.73,0.077l-3.768,1.661c0,0,3.737-0.004,3.737,0.075c0,0.075-3.917,1.397-3.763,1.399c0.155,0.002,3.73,0.075,3.73,0.075
		l-3.766,1.248l3.742,0.075l-3.771,1.504l3.739,0.075l-3.765,1.348l3.739,0.075l-3.768,1.326l3.734,0.076l-3.766,1.241l3.739,0.208
		l-3.765,1.118l3.84,0.075l-3.867,1.27l3.742,0.075l-3.766,1.325l3.838,0.075l-3.87,1.423l3.735,0.179l-3.768,1.249l3.742,0.075
		c0,0-3.772,1.375-3.766,1.399c0.004,0.028,3.839,0.077,3.839,0.077s-3.978,1.321-3.87,1.348c0.106,0.031,3.945,0.081,3.945,0.081
		l-3.978,1.554l3.94,0.184c0,0-4.08,1.186-3.971,1.215c0.108,0.029,4.128,0.085,4.128,0.085l-4.162,1.6l4.124,0.083l-4.162,1.677
		l4.13,0.083l-4.159,1.6l4.123,0.083l-4.161,1.548l4.024,0.083"/>
	<path fill="none" stroke="#FFFFFF" stroke-width="0.1428" stroke-linejoin="round" stroke-miterlimit="10" d="M49.658,168.442
		l3.925,0.148l-3.768,1.66c0,0,3.736,0,3.736,0.075c0,0.079-3.918,1.4-3.763,1.4c0.155,0.005,3.73,0.075,3.73,0.075l-3.765,1.252
		l3.741,0.071l-3.769,1.507l3.739,0.075l-3.766,1.347l3.739,0.077l-3.768,1.32l3.734,0.08l-3.765,1.242l3.739,0.208l-3.765,1.116
		l3.841,0.075l-3.867,1.271l3.741,0.076l-3.766,1.323l3.839,0.077l-3.87,1.425l3.735,0.18l-3.768,1.242l3.741,0.079
		c0,0-3.772,1.376-3.765,1.399c0.004,0.029,3.838,0.078,3.838,0.078s-3.978,1.321-3.869,1.348c0.106,0.031,3.944,0.08,3.944,0.08
		l-3.978,1.556l3.94,0.179c0,0-4.079,1.188-3.971,1.219c0.109,0.026,4.128,0.083,4.128,0.083l-4.162,1.6l4.125,0.083l-4.162,1.677
		l4.131,0.083l-4.16,1.6l4.124,0.083l-4.162,1.548l4.06-0.102l-2.369,2.086l2.829-1.167l0.636,2.759"/>
</g>
</svg>
