<?xml version="1.0" encoding="utf-8"?>
<!-- Generator: Adobe Illustrator 16.0.0, SVG Export Plug-In . SVG Version: 6.00 Build 0)  -->
<!DOCTYPE svg PUBLIC "-//W3C//DTD SVG 1.1//EN" "http://www.w3.org/Graphics/SVG/1.1/DTD/svg11.dtd">
<svg version="1.1" id="Capa_1" xmlns="http://www.w3.org/2000/svg" xmlns:xlink="http://www.w3.org/1999/xlink" x="0px" y="0px"
	 width="250px" height="250px" viewBox="0 0 250 250" enable-background="new 0 0 250 250" xml:space="preserve">
<g>
	<g>
		<g>
			
				<path fill="#F7F3DD" stroke="#F7F3DD" stroke-width="1.4886" stroke-linecap="round" stroke-linejoin="round" stroke-miterlimit="10" d="
				M191.823,74.757c0,0,0.981-1.815-0.139-2.096c0,0,1.538-1.678-0.278-1.957c-1.814-0.278-3.492,0.139-3.492,0.139
				S61.293,74.34,57.798,75.457c-3.495,1.119-3.074,2.935-1.538,3.913c0.574,0.365,0.954,0.459,1.206,0.43
				c-0.669,0.666-1.671,1.941-0.367,2.646c0,0-1.814,3.492,0,4.052c0,0-1.536,2.795,0.699,4.193c0,0-2.374,3.633-0.139,4.891
				c0,0-2.375,5.591,0.699,6.708c0,0-2.656,4.472,0,5.73c0,0-2.935,1.957-0.278,4.752c0,0-2.656,3.215,0,5.032
				c0,0-2.239,3.354,0,5.73c0,0-2.099,1.816-0.143,3.493c0,0-2.375,3.214-0.14,4.613c0,0-1.957,2.096,0,3.352
				c0,0-2.374,4.056,0.14,5.313c0,0-2.653,4.891-0.418,5.869c0,0-1.817,3.491,0.561,4.334c0,0-2.099,2.652,0.278,3.635
				c0,0-2.099,0.974,0,2.374c0,0-1.817,2.652,0.279,3.913c0,0-1.118,3.772,0.839,4.33c0,0-0.7,3.913,1.257,4.195
				c0,0,0.139,3.073,2.377,3.213c0,0,0.839,3.492,3.213,3.074c0,0,0.7,3.635,3.217,2.517c0,0,2.231,2.235,4.052,0.839
				c0,0,2.092,2.936,4.47,1.814c0,0,3.213,1.816,5.173-0.279c0,0,1.674,1.261,3.074-0.978c0,0,1.117,1.117,2.235-1.258
				c0,0,1.399,0.558,2.375-1.396c0,0,1.678,0.836,2.377-1.399c0,0,1.396,0.418,1.678-2.234c0,0,0.7,0.465,1.247-1.264
				c0.051-0.163,0.102-0.35,0.149-0.554c0.561-2.378,0,1.539,1.256,1.817c0,0-0.139,2.096,2.378,2.513c0,0,0,2.796,2.096,2.935
				c0,0,0.7,1.817,3.634,0.562c0,0,0.839,1.816,3.213,0.978c0,0,3.074,1.956,5.87,0.418c0,0,1.957,0.561,3.634-0.696
				c0,0,1.117,0.278,2.517-0.839c0,0,2.235-0.561,2.235-2.235c0,0,1.539-0.282,2.374-1.96c0,0,1.682-0.696,1.821-2.652
				c0,0-0.143,2.514,2.513,2.514c0,0-0.277,2.099,1.679,2.238c0,0,1.257,1.396,3.073,1.117c0,0,0.422,0.839,3.356,0.418
				c0,0,1.253,1.539,3.492,0.421c0,0,1.817,0.279,3.355-1.26c0,0,1.257,0.7,2.656-1.118c0,0,1.535-0.139,2.093-1.678
				c0,0,1.816,0,1.816-2.096c0,0,1.678-0.278,1.261-2.096c0,0,0.913-0.275,1.113-1.121c0.028,0.741,0.164,1.889,0.704,2.521
				c0,0-1.4,2.513,0.557,2.791c0,0,0.699,1.678,2.238,0.979c0,0,0.139,1.817,2.514,1.26c0,0,1.117,1.817,3.073,1.117
				c0,0,2.239,0.558,3.496-1.396c0,0,1.538,1.257,3.073-0.14c0,0,1.257,1.258,2.796,0c0,0,2.517,0.696,3.495-0.56
				c0,0,1.817,0.417,1.957-1.817c0,0,2.652-0.979,2.377-2.517c0,0,1.814-0.418,1.814-2.235c0,0,2.234-3.077,1.26-4.191
				c0,0,2.004-0.282,1.443-2.1c0,0,2.1-2.234,0-2.792c0,0,2.238-1.817,0.7-2.795c0,0,1.256-3.356-0.979-3.635
				c0,0,3.073-2.935,0.561-3.773c0,0,2.374-2.656,0-3.495c0,0,2.096-2.235,0.7-3.214c0,0,2.374-2.234,0.417-2.656
				c0,0,2.235-1.535,0.7-2.513c0,0,2.096-2.656,0.278-3.217c0,0,2.656-2.374,0.699-3.213c0,0,1.396-2.378,0-2.936
				c0,0,1.257-2.795-0.421-3.774c0,0,1.817-3.213,0.139-3.354c0,0,2.796-2.374,1.118-3.074c0,0,2.096-1.817-0.139-2.517
				c0,0,1.908-2.514,0.23-2.933c0,0,1.678-1.958-0.14-2.936c0,0,1.539-2.376,0.7-2.935c0,0,1.817-1.817,0.14-2.235
				c0,0,1.678-2.097,0.421-2.376c0,0,1.396-1.398,0.136-1.958c0,0,0.7-2.096-0.136-2.235c0,0,2.092-2.376,0.557-2.795
				c0,0,1.535-1.817,0.279-2.236c0,0,1.398-2.096,0-2.376c0,0,1.538-2.376,0.139-2.655c0,0,1.96-2.935,0-3.493
				c0,0,1.539-1.258-0.139-2.098c0,0,2.377-1.398,0.978-1.676c0,0,1.399-2.098-0.139-2.935
				C191.406,78.113,193.084,76.016,191.823,74.757z"/>
		</g>
		<g>
			<path fill="#E74D94" d="M77.336,127.799c-0.237-0.126-0.492-0.2-0.747-0.259c0.01,0.167-0.122,0.34-0.312,0.248
				c-0.493-0.234-0.944-0.261-1.352-0.159c-0.289,0.099-0.563,0.23-0.805,0.414c-0.94,0.774-1.487,2.33-1.539,3.458
				c-0.088,2.034,1.613,3.645,3.652,3.641c2.506,0,3.484-2.306,2.931-4.524C78.898,129.555,78.369,128.332,77.336,127.799z"/>
			<path fill="#E74D94" d="M84.238,125.584c-0.034,0.085-0.112,0.143-0.234,0.118c-0.184-0.033-0.357-0.03-0.52,0
				c-0.108,0.048-0.221,0.106-0.319,0.185c-0.075,0.058-0.153,0.061-0.221,0.04c-1.325,0.894-1.556,3.899,0.234,4.009
				c1.284,0.078,2.052-0.854,2.31-2.024c0.129-0.578,0.201-1.355-0.241-1.828C84.975,125.795,84.615,125.621,84.238,125.584z"/>
			<path fill="#E74D94" d="M174.267,125.277c-0.103-0.107-0.211-0.202-0.319-0.292c-0.021-0.008-0.041-0.02-0.064-0.027
				c-0.089-0.024-0.133-0.075-0.153-0.136c-3.114-2.137-8.403,2.694-5.614,5.677c1.48,1.583,4.232,1.702,5.566-0.163
				c0.585-0.812,0.985-1.78,1.026-2.792c0.021-0.523,0.051-1.6-0.326-2.197C174.341,125.335,174.301,125.316,174.267,125.277z"/>
			<path fill="#E74D94" d="M179.609,128.243c-0.062-0.003-0.119-0.026-0.17-0.085c-1.312-1.518-3.648,0.527-3.424,2.157
				c0.163,1.186,1.963,1.909,2.836,0.981C179.453,130.655,179.878,129.249,179.609,128.243z"/>
			<path fill="#E74D94" d="M152.521,85.841c-0.1-0.131-0.015-0.049,0.18-0.06c0.166-0.009,0.336-0.022,0.503-0.038
				c0.438-0.039,0.876-0.082,1.314-0.122c0.306-0.029,0.771-0.131,1.168-0.124c-0.225-0.369-0.459-0.722-0.693-1.048
				c-0.624-0.863-1.287-1.685-1.688-2.678c-0.303,0.879-0.628,1.754-0.839,2.655c-0.119,0.498-0.255,0.975-0.4,1.446
				c0.023,0.002,0.047,0.002,0.074,0.004C152.223,85.748,152.402,85.686,152.521,85.841z"/>
			<path fill="#E74D94" d="M191.83,74.944c0,0,0.979-1.817-0.139-2.098c0,0,1.535-1.676-0.278-1.956
				c-1.821-0.281-3.495,0.139-3.495,0.139S61.297,74.523,57.802,75.642c-3.495,1.118-3.074,2.935-1.539,3.913
				c0.578,0.365,0.955,0.457,1.206,0.431c-0.669,0.665-1.671,1.939-0.364,2.643c0,0-1.817,3.495,0,4.054
				c0,0-1.539,2.795,0.696,4.193c0,0-2.374,3.633-0.139,4.89c0,0-2.374,5.593,0.7,6.71c0,0-2.656,4.472,0,5.73
				c0,0-2.935,1.957-0.278,4.752c0,0-2.656,3.213,0,5.032c0,0-2.239,3.353,0,5.729c0,0-2.099,1.818-0.143,3.496
				c0,0-2.375,3.213-0.14,4.609c0,0-1.957,2.095,0,3.355c0,0-2.374,4.052,0.14,5.309c0,0-2.653,4.891-0.418,5.87
				c0,0-1.817,3.495,0.561,4.334c0,0-2.099,2.652,0.278,3.634c0,0-2.096,0.979,0,2.374c0,0-1.817,2.657,0.278,3.913
				c0,0-1.117,3.774,0.839,4.334c0,0-0.696,3.913,1.26,4.192c0,0,0.136,3.074,2.374,3.213c0,0,0.839,3.495,3.213,3.077
				c0,0,0.7,3.631,3.213,2.514c0,0,2.238,2.238,4.055,0.839c0,0,2.096,2.935,4.474,1.817c0,0,3.213,1.817,5.17-0.278
				c0,0,1.678,1.256,3.074-0.981c0,0,1.118,1.12,2.238-1.257c0,0,1.396,0.561,2.375-1.396c0,0,1.678,0.839,2.377-1.396
				c0,0,1.396,0.418,1.674-2.237c0,0,0.7,0.465,1.247-1.261c0.055-0.166,0.102-0.35,0.15-0.558c0.56-2.374,0,1.539,1.26,1.818
				c0,0-0.14,2.099,2.374,2.517c0,0,0,2.795,2.099,2.935c0,0,0.696,1.817,3.631,0.557c0,0,0.839,1.817,3.213,0.981
				c0,0,3.077,1.953,5.873,0.418c0,0,1.957,0.558,3.631-0.699c0,0,1.121,0.281,2.517-0.839c0,0,2.234-0.558,2.234-2.235
				c0,0,1.539-0.278,2.377-1.956c0,0,1.678-0.7,1.818-2.657c0,0-0.141,2.518,2.513,2.518c0,0-0.278,2.096,1.678,2.234
				c0,0,1.261,1.396,3.077,1.118c0,0,0.418,0.839,3.354,0.421c0,0,1.256,1.535,3.491,0.418c0,0,1.817,0.278,3.355-1.257
				c0,0,1.258,0.696,2.657-1.117c0,0,1.538-0.143,2.095-1.678c0,0,1.817,0,1.817-2.096c0,0,1.678-0.282,1.257-2.097
				c0,0,0.917-0.274,1.118-1.124c0.026,0.74,0.159,1.889,0.699,2.521c0,0-1.396,2.517,0.561,2.796c0,0,0.696,1.678,2.235,0.978
				c0,0,0.139,1.813,2.513,1.258c0,0,1.121,1.816,3.078,1.117c0,0,2.234,0.561,3.491-1.396c0,0,1.539,1.257,3.074-0.139
				c0,0,1.26,1.257,2.799,0c0,0,2.514,0.699,3.492-0.562c0,0,1.817,0.422,1.956-1.816c0,0,2.656-0.979,2.374-2.514
				c0,0,1.821-0.422,1.821-2.238c0,0,2.234-3.074,1.257-4.191c0,0,2.007-0.279,1.446-2.097c0,0,2.096-2.234,0-2.795
				c0,0,2.235-1.816,0.696-2.796c0,0,1.257-3.355-0.979-3.634c0,0,3.078-2.935,0.562-3.774c0,0,2.374-2.655,0-3.491
				c0,0,2.095-2.238,0.699-3.217c0,0,2.374-2.234,0.418-2.655c0,0,2.234-1.536,0.699-2.515c0,0,2.096-2.656,0.278-3.213
				c0,0,2.656-2.377,0.7-3.216c0,0,1.396-2.374,0-2.936c0,0,1.257-2.795-0.421-3.772c0,0,1.816-3.215,0.143-3.354
				c0,0,2.791-2.376,1.117-3.076c0,0,2.096-1.815-0.143-2.515c0,0,1.909-2.515,0.234-2.935c0,0,1.675-1.957-0.144-2.935
				c0,0,1.539-2.375,0.7-2.936c0,0,1.817-1.815,0.14-2.235c0,0,1.678-2.096,0.421-2.376c0,0,1.396-1.396,0.14-1.957
				c0,0,0.7-2.096-0.14-2.235c0,0,2.096-2.377,0.558-2.797c0,0,1.538-1.815,0.282-2.235c0,0,1.396-2.098,0-2.376
				c0,0,1.535-2.376,0.139-2.655c0,0,1.956-2.937,0-3.495c0,0,1.535-1.257-0.139-2.095c0,0,2.374-1.398,0.974-1.677
				c0,0,1.4-2.097-0.135-2.937C191.413,78.296,193.091,76.201,191.83,74.944z M56.742,78.137c0,0.008-0.007,0.017-0.007,0.025
				c-0.014,0.321-0.506,0.283-0.496-0.035c0.003-0.104,0.034-0.184,0.091-0.269C56.515,77.597,56.926,77.874,56.742,78.137z
				 M57.483,81.218c0.319,0,0.282,0.494-0.038,0.494S57.164,81.218,57.483,81.218z M57.252,84.646
				c0.017-0.015,0.034-0.032,0.047-0.047c0.228-0.228,0.554,0.148,0.33,0.372c-0.021,0.015-0.034,0.032-0.051,0.049
				C57.351,85.246,57.024,84.871,57.252,84.646z M57.771,88.816c-0.299,0.106-0.52-0.33-0.224-0.443
				c0.149-0.131,0.445-0.058,0.407,0.192C57.938,88.679,57.883,88.773,57.771,88.816z M57.51,93.702v-0.099
				c0-0.319,0.496-0.282,0.496,0.038v0.099C58.006,94.059,57.51,94.018,57.51,93.702z M57.982,99.144
				c-0.319,0-0.279-0.494,0.038-0.494C58.342,98.649,58.301,99.144,57.982,99.144z M190.193,83.854c0.319,0,0.278,0.495-0.041,0.495
				S189.874,83.854,190.193,83.854z M189.069,99.967c0.319,0,0.281,0.496-0.038,0.496S188.749,99.967,189.069,99.967z
				 M187.721,90.798c0.074-0.136,0.302-0.143,0.394-0.025c0.734,0.953,0.815,2.22,0.262,3.281c-0.295,0.572-1.08,1.651-1.827,1.574
				c-0.037,0.016-0.081,0.031-0.137,0.044c-0.111,0.032-0.213-0.044-0.268-0.133C185.003,93.717,186.919,92.286,187.721,90.798z
				 M184.874,106.287c0.17,1.019,0.347,2-0.061,3.022c-0.266,0.659-0.969,1.72-1.787,1.605c-0.092,0.109-0.255,0.151-0.363,0.009
				c-0.615-0.805-0.625-1.699-0.099-2.571c0.292-0.482,0.621-0.989,1.035-1.375c0.1-0.09,0.544-0.476,0.755-0.8
				c-0.034-0.197-0.064-0.394-0.089-0.594c-0.026-0.226,0.19-0.353,0.384-0.251C185.085,105.562,185.058,105.938,184.874,106.287z
				 M183.223,118.58c-0.858,0.248-1.569-0.299-1.938-1.024c-0.611,0.644-2.146-0.525-2.571-1.595
				c-0.815,0.55-1.509-0.574-1.569-1.547c-0.078-1.167,0.611-2.354,1.637-1.929c-0.146-0.61,0.815-1.265,1.342-1.357
				c1.175-0.206,2.327,0.722,2.619,1.831c1.742-0.583,2.344,2.264,1.127,2.802C184.215,116.687,184.402,118.238,183.223,118.58z
				 M177.075,135.805c-0.526-0.014-1.406-0.282-1.668,0.462c-0.085,0.241-0.156,0.479-0.221,0.724
				c-0.104,0.407-0.189,0.9-0.441,1.249c-0.459,0.636-1.223,0.819-1.98,0.652c-1.046-0.23-2.316-0.846-2.891-1.813
				c-0.57-0.961-0.336-1.841,0.011-2.819h-0.004c-1.889-0.224-3.658-0.802-4.714-2.541c-5.543-9.141,10.764-17.625,16.286-8.964
				c1.457,2.286,1.043,5.269,0.275,7.752c-0.384,1.24-0.899,2.517-1.79,3.484C179.29,134.694,178.125,135.824,177.075,135.805z
				 M179.153,141.113c0,0.818-0.883,1.501-1.565,1.787c-1.127,0.476-2.33,0.56-3.529,0.72c-0.247,0.03-0.359-0.265-0.237-0.411
				c0.003-0.078,0.037-0.156,0.129-0.204C174.426,142.758,179.15,139.415,179.153,141.113z M167.463,151.837
				c0.058,0.241,0.092,0.496,0.133,0.75c0.108,0.648,0.187,1.301,0.284,1.953c0.126,0.853,0.473,1.645,0.558,2.511
				c0.058,0.536,0.166,0.938,0.374,1.439c0.146,0.354,0.248,0.693,0.329,1.067c0.088,0.414,0.149,0.852,0.275,1.26
				c0.068,0.214,0.448,0.743-0.017,0.774c-0.344,0.021-0.388-0.381-0.503-0.588c-0.174,0.392-1.002-0.064-0.748-0.454
				c0.201-0.303,0.469-0.174,0.388-0.585c-0.078-0.404-0.207-0.805-0.319-1.199c-0.149-0.522-0.299-1.046-0.459-1.562
				c-0.233-0.754-0.302-1.538-0.499-2.296c-0.184-0.71-0.58-1.284-0.673-2.021c-0.04-0.323,0.004-1.063-0.244-1.291
				c-0.122-0.112-0.625-0.251-0.353-0.554c0.128-0.144,0.519-0.174,0.635-0.031c-0.023-0.136,0-0.228,0.085-0.332
				c0.108-0.133,0.503-0.351,0.676-0.296c0.122,0.041,0.218,0.262,0.262,0.367c0.099,0.244,0.062,0.384-0.116,0.563
				C167.307,151.538,167.392,151.534,167.463,151.837z M168.662,164.129c-0.171,0.395-0.448,0.53-0.86,0.544
				c-0.403,0.017-0.713-0.429-0.683-0.799c0.021-0.295,0.19-0.492,0.422-0.597c0.183-0.13,0.421-0.185,0.662-0.096
				C168.569,163.311,168.821,163.756,168.662,164.129z M161.509,152.73c-0.078-1.386-0.078-2.796-0.319-4.165
				c-0.085-0.112-0.092-0.292,0.064-0.384c0.74-0.425,3.043-1.368,3.159,0.122c0.071,0.907-0.13,1.814-0.024,2.718
				c0.181,1.549,0.319,3.122,0.863,4.596c0.044,0.122,0.02,0.275-0.112,0.336c-0.822,0.354-3.003,0.615-3.509-0.407
				c-0.126-0.255-0.058-0.591-0.038-0.856C161.638,154.044,161.546,153.376,161.509,152.73z M165.262,144.826
				c-0.044,0.105-0.136,0.169-0.255,0.166c-0.303-0.017-0.903-0.363-1.101-0.19c-0.197,0.174-0.312,0.184-0.554,0.178
				c-0.533-0.018-0.577-0.812-0.543-1.162c0.071-0.689,0.278-1.148,0.173-1.852c-0.055-0.347-0.136-0.754-0.078-1.107
				c0.092-0.544,0.306-0.894,0.734-1.131c-0.466-0.595-0.293-1.182-0.245-1.997c0.058-0.972-0.818-1.609-0.944-2.567
				c-0.048-0.36,0.115-0.762,0.187-1.102c0.242-1.097-0.563-1.386-1.097-2.055c-0.584-0.74-0.785-1.609-0.863-2.537
				c-0.044-0.554,0.034-1.101,0.143-1.644c0.096-0.482,0.36-0.836,0.303-1.346c-0.068-0.594-0.102-1.217-0.01-1.811
				c0.156-1.057,0.594-2.024,1.688-2.089c-0.103-1.081,0.22-1.929,1.056-2.708c0.629-0.582,1.386-1.221,2.296-1.121
				c0.146,0.019,0.293,0.202,0.364,0.073c0.152-0.279,0.309-0.547,0.495-0.807c0.245-0.349,0.652-0.554,1.04-0.693
				c0.638-0.229,1.446-0.241,1.967,0.229c0.302-0.024,0.604-0.021,0.937,0.037c0.171,0.029,0.255,0.165,0.215,0.33
				c-0.259,1.06-1.376,1.009-2.056,0.41c-0.567,0.833-1.402,1.99-2.418,1.594c-0.374,0.666-0.884,1.073-1.488,1.593
				c-0.737,0.633-0.787,1.525-1.338,2.271c-0.193,0.257-0.51,0.406-0.748,0.619c-0.084,0.078-0.118,0.881-0.149,1.073
				c-0.102,0.656-0.233,1.196-0.607,1.716c0.615,0.492,0.143,1.373-0.184,2.052c0.598,0.329,0.988,0.887,1.189,1.562
				c0.058,0.193,0.366,2.86,0.139,2.771c0.9,0.351,1.838,2.351,1.162,3.224c0.432,0.625,0.588,1.671,0.115,2.278
				c1.216,0.914,1.281,3.183,0.041,4.101C165.245,143.664,165.54,144.178,165.262,144.826z M136.162,129.351
				c0.068,2.511-0.108,5-0.23,7.504c-0.038,0.743,0.177,2.062-0.825,2.282c-0.924,0.204-1.926,0.092-2.863,0.085
				c-1.298-0.004-2.599-0.018-3.899,0.023c-1.274,0.037-2.483-0.007-3.75-0.126c-1.104-0.102-2.184,0.055-3.285,0.014
				c-0.146-0.007-0.224-0.135-0.228-0.269c-0.143-2.985,0.34-5.947,1.016-8.848c0.652-2.806,1.236-5.782,2.299-8.463
				c1.053-2.655,2.799-4.988,4.606-7.172c1.552-1.876,2.988-3.894,5.251-4.966c0.159-0.073,0.292,0.025,0.339,0.153
				c1.088-0.019,1.947,1.151,2.154,2.142c0.312,1.479,0.108,3.02-0.177,4.491C135.731,120.521,136.047,124.967,136.162,129.351z
				 M93.331,153.783c0.099-0.099,0.211-0.082,0.292-0.017c0.021-0.015,0.041-0.031,0.071-0.038c0.622-0.2,1.26-0.23,1.902-0.343
				c0.17-0.031,0.292,0.102,0.296,0.262c0.054,2.768,0.167,5.479,0.513,8.223c0.201,1.606-2.157,1.206-3.074,1.233
				c-0.115,0.003-0.196-0.102-0.224-0.197c-0.55-1.96-0.323-3.991-0.262-5.995C92.876,155.923,92.577,154.568,93.331,153.783z
				 M90.284,139.853c-0.557,0.687-1.335,1.203-1.817,1.947c-0.489,0.747,0.167,1.538-0.299,2.266
				c-0.948,1.478-2.986,0.768-2.262-0.558c-0.646-0.078-1.162-0.683-1.09-1.453c0.102-1.025,1.046-1.478,2.021-1.379
				c0.01-0.027,0.027-0.052,0.051-0.075c1.685-1.569,2.836-3.655,3.74-5.754c0.782-1.811,2.323-4.436,1.743-6.464
				c-0.421-1.474-2.503-1.142-3.002-2.564c-0.211-0.609,0.075-0.894,0.543-0.998c-0.248-0.475-0.238-1.09,0.224-1.188
				c-0.062-0.362,0.071-0.634,0.469-0.888c0.523-0.334,0.955,0.054,1.267,0.445c0.707-0.583,2.099-1.328,2.619-0.282
				c0.183,0.374-0.116,0.833-0.309,1.131c-0.221,0.338-0.356,0.316-0.129,0.606c0.139,0.179,0.275,0.36,0.363,0.573
				c1.124,2.691,0.652,6.285-0.5,8.874C92.988,136.185,91.724,138.073,90.284,139.853z M90.359,147.17
				c-0.832,0.788-1.97,1.216-3.077,1.439c-0.619,0.13-2.517,0.279-2.025-0.972c0.204-0.522,0.792-0.648,1.301-0.709
				c0.944-0.115,1.671-0.177,2.36-0.829c-0.014-0.115,0.041-0.244,0.187-0.281c0.38-0.103,1.199-0.215,1.501,0.129
				C90.947,146.33,90.671,146.874,90.359,147.17z M86.633,151.181c-0.774-0.635-0.123-1.236,0.632-1.199
				c1.002,0.045,1.977,0.048,2.979,0.031c0.078-0.003,0.129,0.027,0.167,0.068c0.129-0.037,0.278,0.013,0.302,0.18
				C90.984,152,87.499,151.891,86.633,151.181z M73.029,145.645c-2.337-1.25-3.849-3.183-5.676-5.027
				c-0.469-0.472-0.951-0.981-1.478-1.392c-0.598-0.473-1.206-0.401-1.854-0.693c-0.415-0.187-0.92-0.486-0.979-0.995
				c-0.068-0.629,0.251-1.155,0.751-1.236c-0.18-0.622,0.35-1.233,0.981-1.026c0.064-0.604,0.428-1.087,0.866-0.832
				c0.242-0.866,1.036-1.474,1.852-0.652c0.353,0.356,0.088,1.013-0.071,1.379c-0.424,0.968-0.836,1.522-0.326,2.608
				c0.941,2.015,2.531,3.849,4.524,4.865c1.172,0.597,2.473,1.12,3.784,1.317c0.408,0.058,0.92,0.14,1.423,0.143
				c0.377-0.143,0.761-0.303,1.09-0.523c0-0.026,0-0.058,0.014-0.091c0.397-1.04,1.967-2.157,2.975-1.318
				c0.836,0.696-0.237,1.596-1.001,2.062c1.188,0.652,1.48,2.031,0.2,3.01c-1.07,0.814-2.303,0.03-2.605-1.063
				C76.205,146.877,74.188,146.263,73.029,145.645z M74.51,154.266c-1.6,0-1.403-2.477,0.19-2.477
				C76.3,151.789,76.103,154.266,74.51,154.266z M71.45,151.885c-1.596,0-1.399-2.474,0.19-2.474
				C73.24,149.411,73.042,151.885,71.45,151.885z M68.729,147.805c-1.596,0-1.399-2.476,0.19-2.476
				C70.519,145.329,70.322,147.805,68.729,147.805z M62.826,146.534c-0.333-0.241-0.543-0.631-0.509-1.084
				c0.051-0.651,0.662-1.223,1.334-1.141c0.703,0.085,1.373,0.599,1.461,1.342c0.082,0.669-0.282,1.318-0.979,1.453
				C63.644,147.197,63.09,146.959,62.826,146.534z M62.778,153.242c-1.6,0-1.399-2.472,0.19-2.472
				C64.568,150.771,64.371,153.242,62.778,153.242z M61.131,110.463c0.258-1.561,1.393-2.797,2.483-3.857
				c0.041-0.041,0.085-0.056,0.129-0.064c0.754-0.717,1.515-0.148,1.902,0.817c0.473,1.165,0.418,2.135,0.034,3.322
				c-0.584,1.802-2.306,6.399-4.884,5.915c-0.123-0.022-0.251-0.123-0.228-0.267c0.153-0.944,0.472-1.889,0.523-2.845
				C61.151,112.462,60.964,111.48,61.131,110.463z M62.876,123.228c1.451-2.561,4.011-4.455,6.739-5.484
				c2.945-1.111,6.049-1.469,9.154-1.813c1.525-0.17,3.013-0.204,4.534,0.042c0.659,0.106,1.39,0.19,2.025,0.412
				c0.666,0.235,1.264,0.611,1.953,0.781c0.064,0.016,0.105,0.051,0.129,0.092c0.543,0.124,0.999,0.375,1.022,1.148
				c0.034,0.951-0.513,1.676-1.335,2.107c-1.008,0.526-2.489-0.063-3.44-0.432c-1.824-0.705-3.542-0.985-5.496-0.621
				c-3.39,0.63-6.137,1.88-8.458,4.444c-0.92,1.019-1.8,2.1-2.833,3.011c-0.812,0.716-1.712,1.569-2.857,1.535
				c-0.852-0.028-1.637-0.999-1.81-1.76C61.946,125.521,62.292,124.253,62.876,123.228z M75.383,93.915
				c-0.068,0.017-0.132,0.032-0.197,0.049c-0.082,0.021-0.149-0.001-0.197-0.042c-0.751,0.006-1.495,0.034-2.246,0.139
				c-0.146,0.022-0.244-0.062-0.289-0.195c-0.557-1.68-0.587-3.453-0.632-5.206c-0.798,0.047-1.565,0.163-2.368,0.083
				c-0.146-0.016-0.22-0.129-0.228-0.267c-0.023-0.534-0.319-2.026,0.496-2.235c1.58-0.4,3.411-0.232,5.027-0.382
				c0.133-0.012,0.265,0.052,0.289,0.195c0.201,1.178,0.221,2.357,0.251,3.548c0.03,1.291,0.319,2.578,0.197,3.867
				C75.631,93.58,75.59,93.864,75.383,93.915z M81.457,89.812c0.102,0.007,0.217,0.09,0.224,0.2
				c0.095,1.063,0.139,2.121,0.102,3.191c-0.003,0.14-0.136,0.229-0.268,0.228c-3.944-0.067-4.776-3.982-5.034-7.212
				c-0.115-1.384-0.173-2.762-0.173-4.152c0-0.73-0.248-1.636,0.14-2.301c0.408-0.71,2.554-0.474,3.128-0.167
				c0.061,0.034,0.091,0.08,0.105,0.129c0.088,0.046,0.153,0.14,0.149,0.245C79.782,82.542,77.173,89.438,81.457,89.812z
				 M77.462,99.356c-0.021-0.224,0.265-0.423,0.431-0.211c1.209,1.532,2.721,2.987,3.152,4.97c0.238,1.085,0.625,2.641-0.17,3.57
				c-0.017,0.08-0.068,0.143-0.153,0.16c-0.037,0.032-0.071,0.066-0.112,0.097c-0.201,0.156-0.449-0.053-0.412-0.241
				c-0.149-0.061-0.298-0.127-0.455-0.175c-0.126-0.036-0.17-0.138-0.16-0.239c-1.032-0.856-1.987-1.797-2.459-3.084
				C76.538,102.603,77.608,100.969,77.462,99.356z M76.463,96.8c0.169-0.197,0.438-0.097,0.452,0.158
				c0.075,1.421,0.187,3.649-1.284,4.49c-1.348,0.77-3.25,0.683-4.674,0.168c-0.18-0.062-0.217-0.291-0.084-0.419
				c0.638-0.613,1.341-1.151,2.011-1.729c0.013-0.062,0.051-0.12,0.119-0.159c0.055-0.031,0.112-0.063,0.167-0.099
				c0.326-0.291,0.639-0.594,0.924-0.929c0.156-0.18,0.425-0.069,0.465,0.1C75.25,97.934,75.906,97.438,76.463,96.8z M70.651,82.753
				c-0.01,0.148-0.136,0.221-0.268,0.228c-2.085,0.117-3.712,1.71-3.747,3.838c-0.017,1.075,0.302,2.57,1.318,3.181
				c0.754,0.453,1.61,0.496,2.432,0.752c0.115,0.034,0.163,0.144,0.166,0.253c0.017,0.637,0.316,2.205-0.431,2.595
				c-0.774,0.408-2.042,0.141-2.86-0.022c-2.534-0.508-4.626-2.301-4.84-4.988c-0.326-4.049,2.282-9.915,7.17-9.033
				c0.092,0.017,0.149,0.073,0.184,0.139c0.268,0.046,0.479,0.105,0.628,0.443C70.733,80.902,70.689,81.941,70.651,82.753z
				 M71.423,102.595c2.102-0.064,3.706,1.593,4.837,3.188c1.304,1.85,2.669,3.86,3.539,5.968c0.204,0.351,0.628,0.968,0.265,1.325
				c-0.604,0.596-1.508,0.56-2.299,0.63c-2.728,0.245-5.197,1.515-7.523,2.875c-0.289,0.168-1.016,0.91-1.444,0.635
				c-0.408-0.262-0.547-0.846-0.693-1.274c-0.533-1.552-1.019-3.237-1.314-4.847c-0.312-1.717-0.397-3.59,0.465-5.176
				C68.036,104.476,69.643,102.65,71.423,102.595z M83.44,85.202c-0.14-1.605-0.299-3.208-0.438-4.813
				c-0.007-0.047,0.004-0.086,0.021-0.124c-0.03-0.102-0.01-0.225,0.112-0.292c0.792-0.452,3.026-1.09,3.627-0.133
				c0.218,0.34,0.003,0.958-0.027,1.311c-0.058,0.678-0.088,1.347-0.078,2.028c0.011,0.912,0.044,1.82,0.078,2.73
				c0.112,3,0.021,7.24-3.835,7.566c-0.166,0.013-0.292-0.09-0.292-0.264c-0.01-1.111-0.072-2.206-0.241-3.303
				c-0.024-0.14,0.061-0.255,0.193-0.292C84.231,89.187,83.545,86.41,83.44,85.202z M96.588,87.902
				c-0.014-0.029-0.027-0.058-0.041-0.09c-0.303-0.763-0.615-1.462-1.087-2.142c-0.159-0.229-0.159-0.408-0.166-0.672
				c-0.021-0.968,1.09-1.763,1.287-2.689c0.062-0.273,0.425-0.18,0.472,0.055c0.082-0.022,0.167-0.012,0.245,0.059
				c0.268,0.255,0.346,0.63,0.441,0.977c0.201,0.715,0.55,1.395,0.88,2.057c0.638,1.282,1.369,2.435,2.167,3.614
				c0.835,1.228,0.995,2.135-0.666,2.476c-0.506,0.104-1.386,0.25-1.664-0.347c-0.119-0.252-0.251-0.494-0.394-0.733
				c-0.003,0.017,0,0.032-0.007,0.051c-0.01,0.021-0.017,0.041-0.027,0.062c-0.084,0.187-0.306,0.185-0.421,0.083
				c-0.662-0.056-1.413,0.129-2.072,0.143c-1.162,0.029-2.316,0.039-3.454,0.279c-0.105,0.022-0.184-0.022-0.231-0.087
				c-0.19,0.608-0.445,1.279-0.849,1.479c-0.88,0.438-2.154,0.234-3.087,0.222c-0.136-0.003-0.238-0.139-0.231-0.267
				c0.146-1.968,1.145-3.763,1.583-5.67c0.537-2.342,0.985-4.708,1.898-6.941c0.089-0.218,0.367-0.186,0.459-0.036
				c1.365-0.292,2.754-0.216,4.141-0.033c0.159,0.022,0.265,0.17,0.213,0.33c-0.863,2.738-1.973,5.367-3.05,8.02
				C94.095,87.741,95.379,87.846,96.588,87.902z M102.122,83.023c-0.044-0.722-0.143-1.542,0.251-2.187
				c0.356-0.576,1.644-0.58,2.211-0.639c0.119-0.015,0.279,0.053,0.289,0.196c0.088,1.332-0.156,2.673-0.112,4.021
				c0.044,1.406,0.16,2.807,0.214,4.214c0.031,0.761,0.136,1.71-0.503,2.255c-0.502,0.432-1.43,0.187-2.028,0.471
				c-0.125,0.062-0.237,0.007-0.302-0.085c-0.231-0.065-0.173-0.469,0.115-0.482C102.366,90.783,102.169,83.747,102.122,83.023z
				 M102.753,104.872c0.404,0.423,1.243,0.409,1.515-0.217c0.309-0.711-0.041-2.233-0.075-2.97c-0.044-0.991-0.095-2.155,0.306-3.08
				c0.262-0.591,0.9-1.749,1.637-1.489c0.853,0.301,1.25,1.999,1.423,2.732c0.184,0.788-0.143,5.938,1.301,5.586
				c0.041-0.069,0.051-0.131,0.105-0.199c0.584-0.778-1.029-5.521,1.345-4.611c1.936,0.744,2.225,3.872,2.303,5.559
				c0.03,0.751,0.122,1.534-0.499,2.016c-0.578,0.445-1.569,0.43-2.021,1.041c-0.435,0.593-0.082,1.348,0.062,1.989
				c0.258,1.146,0.7,3.079-0.781,3.59c-0.724,0.25-1.817,0.066-2.497-0.218c-1.023-0.426-1.254-1.328-1.583-2.318
				c-0.187-0.55-0.418-1.118-0.526-1.673c-0.088-0.46-0.003-0.949-0.16-1.399c-0.384-1.119-1.583-0.813-2.557-0.977
				c-1.515-0.251-1.841-1.255-2.12-2.661c-0.265-1.332-0.53-2.806-0.255-4.154c0.18-0.875,0.496-1.86,1.495-1.298
				c0.812,0.456,0.564,1.094,0.72,1.889C102.033,102.736,102.237,104.325,102.753,104.872z M109.709,85
				c-0.003,0.161-0.18,0.267-0.326,0.214c-0.57-0.2-1.06-0.545-1.613-0.781c-0.608-0.258-1.24-0.445-1.854-0.683
				c-0.105-0.041-0.173-0.141-0.167-0.255c0.075-1.112,0.353-2.199,0.343-3.32c-0.003-0.209,0.207-0.261,0.353-0.183
				c0.01-0.007,0.017-0.015,0.027-0.019c0.662-0.269,1.898,0.924,2.395,1.248c0.567,0.375,0.659,0.374,0.744,1.119
				C109.713,83.227,109.744,84.108,109.709,85z M108.684,96.458c-1.6,0-1.399-2.475,0.19-2.475
				C110.474,93.984,110.277,96.458,108.684,96.458z M120.81,85.221c0.778,0.039,1.552,0.068,2.331,0.029
				c-0.666-0.939-1.447-1.95-1.814-2.962c-0.357-0.977,0.628-2.024,0.781-2.941c0.027-0.165,0.173-0.231,0.302-0.212
				c0.01-0.019,0.021-0.038,0.03-0.056c0.105-0.17,0.34-0.123,0.432,0.029c0.356,0.606,0.374,1.367,0.73,1.955
				c0.414,0.68,0.903,1.282,1.423,1.883c0.741,0.856,1.533,1.698,2.229,2.587c1.049,1.334,1.283,2.418-0.354,3.349
				c-0.414,0.238-1.05,0.612-1.454,0.151c-0.265-0.301-0.404-0.754-0.594-1.125c-0.01,0-0.017,0.005-0.027,0.005
				c-2.042-0.029-4.12-0.464-6.148-0.107c-0.149,0.717-0.312,1.846-0.798,2.276c-0.37,0.328-1.178,0.198-1.613,0.127
				c-1.797-0.28-1.512-1.167-1.046-2.668c0.421-1.338,0.557-2.76,0.944-4.108c0.39-1.361,1.086-2.627,1.304-4.037
				c0.027-0.17,0.18-0.233,0.309-0.212c0.849-0.559,2.395-0.007,3.278,0.082c0.19,0.019,0.285,0.226,0.187,0.386
				c-1.029,1.671-1.508,3.641-1.953,5.584C119.797,84.954,120.267,85.192,120.81,85.221z M131.629,78.906
				c-0.004-0.17,0.132-0.236,0.268-0.212c0.01-0.003,0.017-0.011,0.027-0.012c0.791-0.117,1.559,0.076,2.326,0.253
				c0.115,0.026,0.163,0.151,0.167,0.253c0.061,1.844,0.023,3.687,0.095,5.533c0.041,1.179,0.122,2.677-0.522,3.736
				c-0.907,1.492-3.112,1.975-4.698,1.352c-0.931-0.367-0.988-2.812-0.115-3.246c0.717-0.353,1.929,0.591,2.347-0.669
				c0.178-0.545,0.218-1.097,0.204-1.666C131.679,82.454,131.672,80.679,131.629,78.906z M129.285,94.021
				c1.524-1.536,3.96-2.479,6.127-2.111c1.253,0.214,2.493,1.028,3.339,1.96c0.421,0.464,1.349,1.274,1.461,1.996
				c0.325,0.386,0.455,0.987,0.455,1.486c0,0.107-0.099,0.209-0.201,0.224c-1.671,0.26-3.505-0.036-5.203,0.022
				c-1.956,0.064-3.893-0.216-5.85-0.212c-0.587,0-1.29,0.007-1.226-0.776C128.269,95.62,128.571,94.744,129.285,94.021z
				 M136.173,79.411c-0.011-0.151,0.096-0.248,0.211-0.278c0.01-0.071,0.044-0.138,0.115-0.185c0.598-0.377,1.519-0.097,2.146,0.086
				c0.103,0.029,0.181,0.148,0.166,0.253c-0.2,1.625-0.159,3.247-0.111,4.88c0.048,1.599,0.339,2.845,2.177,2.91
				c0.137,0.005,0.238,0.136,0.228,0.267c-0.061,0.949,0.197,2.513-1.283,2.401c-1.183-0.09-2.392-0.749-3.037-1.768
				C135.167,85.419,136.39,82.213,136.173,79.411z M132.579,98.843c0.194,0.001,0.255,0.185,0.197,0.33
				c0.003,0.001,0.003,0.001,0.007,0.003c0.285,0.781-0.062,2.111-0.081,2.921c-0.034,1.427,0.132,3.059-0.33,4.43
				c-0.221,0.661-1.046,0.829-1.62,1.01c-1.556,0.495-3.088,1.056-4.641,1.564c-0.118,0.039-0.277-0.075-0.291-0.197
				c-0.167-1.608,0.288-3.298,0.38-4.912c0.071-1.282-0.105-3.075,0.448-4.261c0.269-0.584,0.68-0.783,1.314-0.837
				C129.498,98.767,131.041,98.836,132.579,98.843z M119.757,104.016c1.6,0,1.403,2.473-0.19,2.473
				C117.967,106.489,118.164,104.016,119.757,104.016z M118.076,111.265c-0.961,0-0.842-1.484,0.112-1.484
				C119.146,109.78,119.03,111.265,118.076,111.265z M120.107,96.212c0.309-0.06,0.639,0.013,0.91,0.182
				c0.554,0.141,0.944,0.742,0.903,1.303c-0.058,0.708-0.659,1.145-1.335,1.143c-0.689-0.005-1.365-0.453-1.46-1.172
				C119.033,96.999,119.414,96.348,120.107,96.212z M120.864,108.788c0.143-0.136,0.333-0.215,0.554-0.198
				c0.387,0.03,0.74,0.399,0.686,0.8c-0.088,0.632-0.561,0.853-1.138,0.854c-0.407,0.003-0.716-0.419-0.686-0.798
				C120.304,109.096,120.552,108.863,120.864,108.788z M115.168,100.105c1.596,0,1.399,2.474-0.193,2.474
				C113.375,102.579,113.575,100.105,115.168,100.105z M115.525,112.964c-0.961,0-0.839-1.484,0.115-1.484
				C116.598,111.48,116.479,112.964,115.525,112.964z M113.812,90.175c-0.003,0.139-0.136,0.233-0.268,0.229
				c-0.883-0.026-1.759-0.149-2.639-0.007c-0.024,0.077-0.051,0.155-0.085,0.231c-0.122,0.294-0.591,0.133-0.469-0.165
				c0.567-1.35,0.241-2.896,0.095-4.304c-0.153-1.487-0.065-2.992-0.061-4.485c0.003-0.686-0.384-2.077,0.482-2.482
				c0.9-0.425,1.942-0.286,2.911-0.27c0.123,0.003,0.255,0.139,0.231,0.267C113.286,82.753,113.898,86.562,113.812,90.175z
				 M112.974,114.495c-0.958,0-0.839-1.485,0.116-1.485C114.047,113.01,113.928,114.495,112.974,114.495z M110.253,117.046
				c-0.958,0-0.842-1.486,0.116-1.486C111.326,115.56,111.208,117.046,110.253,117.046z M107.363,120.276
				c-0.958,0-0.839-1.484,0.115-1.484C108.436,118.792,108.317,120.276,107.363,120.276z M97.281,122.821
				c0.007,0.96-1.474,0.839-1.484-0.114c-0.01-1.231-0.228-2.7-1.545-3.15c-0.907-0.311-0.418-1.717,0.493-1.406
				C96.762,118.841,97.261,120.901,97.281,122.821z M94.061,98.159c-1.596,0-1.399-2.475,0.194-2.475
				C95.851,95.684,95.654,98.159,94.061,98.159z M98.164,110.646c1.6,0,1.399,2.473-0.19,2.473
				C96.375,113.119,96.571,110.646,98.164,110.646z M88.698,102.513c0.085,0.25,0.051,0.482,0.017,0.709
				c0.421,0.162,0.825,0.389,1.219,0.639c0.187-0.326,0.36-0.657,0.493-0.997c0.211-0.557-1.032-1.752,0.595-2.211
				c0.659-0.187,1.188,0.334,0.9,0.902c0.408-0.8,1.271,0.088,1.08,0.773c-0.231,0.82-0.944,0.523-1.569,0.54
				c-0.041,0.555-0.251,1.131-0.489,1.659c0.448,0.297,0.9,0.579,1.372,0.78c0.551,0.231,1.845,0.139,2.191,0.67
				c0.376,0.572-0.374,1.174-0.931,0.866c0.785,0.435-0.133,1.267-0.809,1.055c-0.815-0.258-0.489-0.961-0.489-1.588
				c-0.621-0.064-1.264-0.345-1.834-0.64c-0.289,0.73-0.516,1.479-0.72,2.247c0.989,0.215,0.649,1.502-0.234,1.567
				c-0.927,0.066-1.365-0.756-1.151-1.566c-0.21,0.671-0.968,1.297-1.338,0.311c-0.217-0.567,0.19-1.44,0.757-1.656
				c0.245-0.092,0.479-0.066,0.71-0.039c0.17-0.501,0.432-0.975,0.713-1.442c-0.615-0.248-1.247-0.464-1.889-0.657
				c-0.251,0.981-1.528,0.598-1.562-0.287c-0.034-0.927,0.801-1.34,1.606-1.097c-0.663-0.234-1.267-1.016-0.269-1.352
				C87.645,101.506,88.504,101.938,88.698,102.513z M90.831,114.989c-1.6,0-1.399-2.473,0.194-2.473
				C92.621,112.516,92.424,114.989,90.831,114.989z M85.726,139.079c-0.992,1.182-3.112,2.466-4.715,1.997
				c-0.948-0.282-1.416-0.9-1.729-1.817c-0.187-0.551-0.408-1.028-0.672-1.542c-0.38-0.733-0.798-0.31-1.457-0.102
				c-2.307,0.727-4.745-0.14-6.505-1.668c-3.525-3.064-2.883-9.012,0.401-11.96c1.671-1.498,3.818-2.816,5.985-3.444
				c2.194-0.635,5.55-0.681,7.422,0.851c0.098,0.08,0.112,0.193,0.078,0.289c0.835,0.294,1.6,0.664,2.164,1.534
				c0.774,1.189,1.056,2.582,1.151,3.984c0.177,2.596-0.683,5.285-2.66,7.021C86.263,135.635,86.979,137.581,85.726,139.079z
				 M79.367,149.285c0.788-0.455,1.654-0.665,2.392-1.161c0.017-0.055,0.047-0.103,0.105-0.14c0.591-0.37,1.834-1.779,2.245-0.387
				c0.272,0.934-1.518,2.038-2.14,2.398c-0.676,0.391-1.335,0.764-2.13,0.846c-0.431,0.041-1.145-0.163-1.321-0.604
				C78.352,149.832,79.129,149.425,79.367,149.285z M84.354,150.478c0.041-0.026,0.078-0.037,0.119-0.037
				c0.438-0.129,0.86-0.023,0.775,0.558c-0.088,0.598-0.686,1.056-1.179,1.335c-0.639,0.356-1.389,0.659-2.13,0.679
				c-0.35,0.011-0.91-0.037-1.162-0.336C79.911,151.644,83.875,150.794,84.354,150.478z M95.919,136.871
				c0.027-0.037,0.065-0.068,0.119-0.085c0.289-0.092,0.554-0.105,0.798-0.064c0.064,0.003,0.129,0.003,0.197,0.014
				c0.078,0.007,0.136,0.047,0.17,0.099c1.634,0.737,1.943,4.286-0.136,4.772c-1.481,0.343-3.078-0.649-2.897-2.283
				C94.292,138.243,94.951,137.241,95.919,136.871z M97.577,132.577c1.597-1.083,2.018-2.584,1.461-4.401
				c-0.282-0.917,1.185-1.192,1.46-0.282c0.696,2.262,0.047,4.457-1.936,5.802C97.774,134.225,96.785,133.114,97.577,132.577z
				 M100.331,124.904c-0.489-0.082-0.21-0.57-0.322-0.911c-0.136,0.296-0.462,0.458-0.781,0.501
				c-0.452,0.063-0.594-0.504-0.527-0.873c0.116-0.611,0.761-1.099,1.244-1.443c0.204-0.148,0.727-0.375,0.659-0.703
				c-0.411,0.005-0.853,0.343-1.236,0.463c-0.428,0.131-1.107,0.202-1.495-0.075c-0.53-0.382-0.329-1.654,0.387-1.717
				c-0.149-0.185-0.295-0.223-0.275-0.508c0.023-0.295,0.231-0.511,0.537-0.533c0.615-0.042,1.342,0.165,1.882,0.445
				c0.193,0.1,0.462,0.367,0.693,0.219c-0.023-0.243-0.329-0.613-0.493-0.795c-0.268-0.296-0.615-0.518-0.693-0.932
				c-0.078-0.391-0.105-0.899,0.333-1.065c0.374-0.143,1.253-0.073,1.43,0.355c0.316-0.454,1.247-0.128,1.444,0.306
				c0.326,0.72-0.774,1.133-0.734,1.81c0.058,0.946,1.073-0.472,1.335-0.55c0.727-0.212,1.583,0.623,1.131,1.313
				c0.295,0.098,0.859,0.399,0.472,0.729c-0.201,0.173-0.554,0.263-0.788,0.379c-0.323,0.156-0.625,0.136-0.975,0.132
				c0.231,0.107,0.421,0.216,0.628,0.362c0.201,0.144,0.537,0.268,0.666,0.474c0.173,0.277-0.112,0.664-0.33,0.827
				c-0.282,0.21-0.384-0.005-0.652,0.003c-0.079,0.273-0.017,0.477-0.371,0.545c-0.241,0.047-0.417-0.003-0.598-0.151
				c-0.2-0.168-0.425-0.323-0.53-0.567c-0.102-0.25-0.123-0.542-0.146-0.803c-0.146,0.224-0.329,0.406-0.448,0.649
				c-0.217,0.438-0.143,0.956-0.367,1.406C101.211,124.595,100.817,124.987,100.331,124.904z M101.286,137.136
				c0.346-1.283,0.761-2.544,1.253-3.776c1.308-3.292,3.193-6.169,5.486-8.861c1.134-1.333,2.347-2.595,3.516-3.9
				c1.094-1.217,2.188-2.479,3.488-3.484c2.401-1.853,5.322-3.783,8.414-4.117c0.024-0.017,0.051-0.033,0.085-0.039
				c0.985-0.209,1.6,0.479,1.209,1.418c-0.21,0.5-0.676,0.902-1.039,1.289c-0.704,0.754-1.301,1.666-1.841,2.541
				c-1.946,3.138-3.294,6.62-4.113,10.214c-0.469,2.065-0.686,4.127-0.829,6.236c-0.082,1.229,0.058,2.891-0.517,4.036
				c-0.418,0.839-1.121,1.219-2.052,1.313c-1.678,0.174-3.359,0.174-5.044,0.207c-2.038,0.045-4.072,0.062-6.107,0.089
				c-0.537,0.01-1.831,0.156-2.109-0.527C100.756,138.96,101.068,137.944,101.286,137.136z M135.504,107.234
				c-1.026-0.265-0.958-0.999-0.911-2.009c0.055-1.161-0.156-2.364-0.037-3.517c0.085-0.783,0.401-1.7,0.089-2.468
				c-0.044-0.069-0.055-0.151-0.021-0.219c0.047-0.136,0.214-0.214,0.343-0.154c0.418-0.083,0.829-0.005,1.257,0.086
				c1.084,0.233,2.235,0.393,3.336,0.476c1.009,0.077,2.105,0.055,2.153,1.34c0.061,1.83-0.074,3.657,0.064,5.482
				c0.055,0.713,0.302,2.035-0.445,2.485c-0.676,0.406-2.184-0.245-2.822-0.452C137.508,107.959,136.522,107.499,135.504,107.234z
				 M143.445,79.402c-0.266,0.025-0.435-0.355-0.159-0.455c1.12-0.401,2.972-0.673,3.019,0.942c0.082,2.833,0.724,5.489,0.038,8.315
				c-0.374,1.548-1.247,2.121-2.819,2.262c-0.639,0.058-1.243-0.007-1.729-0.439c-0.496-0.442-0.006-1.639,0.038-2.137
				c0.01-0.131,0.132-0.246,0.265-0.228c0.855,0.11,1.22-0.175,1.298-1.043c0.074-0.803,0.129-1.606,0.143-2.415
				C143.563,82.604,143.507,81.002,143.445,79.402z M151.063,78.583c0.921-0.153,1.801,0.019,2.704,0.192
				c0.088,0.017,0.163,0.068,0.204,0.141c0.03-0.03,0.074-0.051,0.126-0.063c-0.004-0.105,0.05-0.205,0.189-0.221
				c0.853-0.088,1.42,1.923,1.708,2.49c1.233,2.417,2.752,4.744,4.226,7.018c0.078,0.123-0.007,0.269-0.111,0.333
				c-1.216,0.776-2.523,1.284-3.095-0.28c-0.044,0.064-0.112,0.11-0.211,0.11c-1.813-0.005-3.664-0.104-5.448,0.29
				c-0.104,0.022-0.187-0.02-0.234-0.086c-0.193,0.491-0.396,0.982-0.604,1.488c-0.044,0.1-0.139,0.177-0.254,0.165
				c-0.894-0.092-1.791-0.153-2.684-0.245c-0.144-0.014-0.231-0.129-0.231-0.269c0.034-1.802,0.962-3.633,1.498-5.338
				c0.563-1.811,1.155-3.609,1.983-5.319c0.018-0.034,0.038-0.059,0.062-0.081C150.844,78.777,150.887,78.614,151.063,78.583z
				 M180.853,102.785c-0.414,0.885-0.932,1.517-1.771,1.975c0.024,0.192-0.18,0.397-0.376,0.25
				c-0.829-0.626-1.192-1.805-0.802-2.797c0.52-1.314,2.397-1.576,2.551-2.994c0.027-0.267,0.465-0.317,0.489-0.027
				C181.039,100.365,181.375,101.659,180.853,102.785z M180.502,109.089c-0.237,0.409-0.547,0.851-0.98,1.077
				c-0.462,0.238-1.114,0.357-1.488,0.732c-0.048,0.046-0.099,0.065-0.146,0.066c-0.067,0.105-0.21,0.173-0.35,0.101
				c-0.988-0.515-0.53-1.732-0.071-2.476c0.292-0.478,0.648-1.052,1.117-1.384c0.683-0.484,1.644-0.795,1.934-1.653
				c0.091-0.28,0.479-0.169,0.479,0.102C180.998,106.769,181.087,108.082,180.502,109.089z M177.103,101.462
				c-0.102,0.041-0.193,0.014-0.262-0.041c0.041,0.182-0.17,0.396-0.38,0.269c-0.985-0.596-0.744-2.245-0.577-3.185
				c0.095-0.537,0.268-0.978,0.645-1.375c0.17-0.18,0.459-0.231,0.669-0.35c0.649-0.378,0.941-0.9,1.217-1.579
				c0.084-0.207,0.458-0.229,0.479,0.036C179.079,97.505,179.715,100.382,177.103,101.462z M171.905,116.084
				c-0.93,0.441-2.411,0.917-2.979,0.08c-0.669-0.99-0.034-1.935,0.846-2.464c-0.679-0.375-0.717-1.367,0.262-2.019
				c1.039-0.7,2.47-0.813,3.4-0.046c0.237-0.975,1.779-1.185,2.445-0.078c0.581,0.968,0.743,2.099,0.064,3.052
				c-0.204,0.285-0.448,0.406-0.693,0.409C175.774,116.612,172.024,117.282,171.905,116.084z M171.933,95.947
				c-0.52-0.039-0.883-0.37-1.046-0.808c-0.425-0.488-0.316-1.29,0.152-1.7c0.533-0.467,1.274-0.365,1.749,0.112
				c0.36,0.36,0.477,0.754,0.477,1.254C173.268,95.484,172.564,95.997,171.933,95.947z M173.682,98.325
				c0.068-0.294,0.473-0.158,0.479,0.102c0.034,1.4,0.611,2.464,0.099,3.849c-0.422,1.14-0.72,2.253-1.509,3.205
				c-0.003,0.005-0.01,0.007-0.013,0.012c-0.011,0.17-0.197,0.328-0.378,0.201c-1.076-0.746-1.697-2.272-1.467-3.555
				c0.102-0.559,0.567-0.953,0.999-1.271c0.332-0.246,0.727-0.426,1.019-0.72C173.454,99.607,173.516,99.009,173.682,98.325z
				 M175.584,109.189c-0.017,0.027-0.034,0.042-0.054,0.06c0.241,0.178-0.027,0.569-0.293,0.397
				c-0.964-0.62-2.293-1.994-2.011-3.281c0.16-0.729,2.167-2.047,2.123-2.775c-0.04-0.099-0.081-0.197-0.115-0.301
				c-0.081-0.234,0.285-0.402,0.428-0.212c0.103,0.138,0.149,0.275,0.17,0.413c0.388,0.98,0.897,1.635,0.805,2.836
				C176.549,107.493,176.186,108.206,175.584,109.189z M176.09,96.095c-0.02,0.029-0.044,0.056-0.081,0.078
				c-0.214,0.134-0.418,0.289-0.652,0.391c-0.037,0.017-0.071,0.024-0.105,0.024c-0.037,0.083-0.115,0.139-0.23,0.115
				c-1.148-0.241-0.574-1.68-0.225-2.383c0.231-0.467,0.452-0.846,0.873-1.168c0.659-0.502,1.617-0.968,1.868-1.809
				c0.088-0.292,0.472-0.16,0.482,0.102C178.095,93.142,177.714,95.299,176.09,96.095z M174.402,82.147
				c-1.355,0.134-2.878,0.941-3.24,2.371c-0.455,1.792,1.005,3.305,2.802,2.758c0.126-0.038,0.275,0.071,0.292,0.195
				c0.108,0.754,0.075,1.504,0.102,2.264c0.004,0.112-0.102,0.202-0.199,0.226c-7.27,1.658-6.658-11.146,0.217-10.112
				c0.136,0.022,0.231,0.126,0.228,0.269c-0.021,0.543,0.122,1.131-0.064,1.649C174.64,81.904,174.613,82.128,174.402,82.147z
				 M169.549,95.322c-0.015,0.304-0.089,0.559-0.306,0.763c0,0,0,0.002,0,0.003c-0.068,0.185-0.133,0.356-0.231,0.53
				c-0.027,0.047-0.064,0.082-0.099,0.119c0.027,0.044,0.058,0.081,0.081,0.129c0.174,0.229,0.296,0.501,0.327,0.817
				c0.017,0.16,0.013,0.321,0.007,0.484c0.306,1.049-0.085,2.172-0.867,3.02c-0.278,0.302-0.655,0.559-1.08,0.764
				c-0.638,0.538-1.379,0.895-2.14,0.954c0.064,0.314,0.089,0.646,0.071,0.99c-0.082,1.604-0.876,3.996-2.567,4.574
				c-0.448,0.153-0.87,0.212-1.268,0.154c-1.164,0.204-2.489-0.334-2.938-1.478c-0.292-0.749-0.252-1.611-0.021-2.454
				c-1.719,0.212-3.692-0.399-4.328-2.044c-0.302-0.787-0.346-1.707,0.303-2.344c0.027-0.031,0.062-0.051,0.092-0.078
				c-1.308-0.817-2.347-2.021-2.266-3.293c-0.064-0.022-0.129-0.038-0.19-0.065c-0.547-0.183-1.032-0.528-1.097-1.168
				c-0.044-0.408,0.173-0.921,0.649-0.963c0.013-0.001,0.026,0,0.04-0.001c0.214-0.082,0.462-0.086,0.713,0.058
				c0.008,0.005,0.015,0.013,0.024,0.019c0.271,0.08,0.517,0.223,0.706,0.419c0.041-0.037,0.068-0.075,0.108-0.112
				c0.249-0.236,0.523-0.404,0.806-0.543c-0.007-0.008-0.011-0.017-0.014-0.024c-0.115-0.109-0.204-0.248-0.23-0.426
				c0-0.012,0-0.025,0-0.037c-0.146-0.379-0.204-0.78-0.146-1.209c0.081-0.625,0.703-0.825,1.154-0.667
				c0.312,0,0.599,0.168,0.704,0.518c0.01,0.021,0.03,0.032,0.037,0.053c0.159,0.392,0.163,0.786,0.033,1.145
				c-0.003,0.104,0,0.209-0.017,0.309c-0.003,0.007-0.007,0.012-0.007,0.017c0.988,0.042,1.957,0.53,2.603,1.417
				c0.016,0.02,0.026,0.046,0.044,0.068c0.237-1.088,0.757-2.101,1.491-2.739c-0.055-0.121-0.089-0.251-0.089-0.393v-0.48
				c0-0.149,0.062-0.278,0.149-0.396c0.089-0.992,1.65-0.856,1.624,0.18c0,0.034-0.007,0.066-0.007,0.097
				c0,0.016,0.007,0.027,0.007,0.041c0,0.063-0.011,0.124-0.014,0.187c1.087-0.189,2.031,0.182,2.782,0.856
				c0.006-0.131,0.033-0.263,0.111-0.401c-0.03,0.054,0.119-0.245,0.14-0.273c0.074-0.133,0.174-0.218,0.275-0.277
				c0.104-0.162,0.241-0.247,0.384-0.299c0.675-0.49,1.555,0.425,1.11,1.152c-0.152,0.253-0.333,0.496-0.451,0.769
				c-0.14,0.317-0.374,0.469-0.622,0.508c0.336,0.573,0.584,1.218,0.724,1.88c0.133-0.062,0.265-0.137,0.401-0.187
				c0.346-0.127,0.705-0.168,1.052-0.149c0.14-0.691,0.442-1.336,1.139-1.622C169.232,93.869,169.844,94.753,169.549,95.322z
				 M165.643,111.76c-1.601,0-1.403-2.475,0.19-2.475C167.433,109.286,167.235,111.76,165.643,111.76z M168.177,83.229
				c-0.537,0.606-1.591,0.547-2.422,0.486c0.085,0.673-0.034,1.456-0.015,2.109c0.027,0.992,0.096,1.966,0.174,2.955
				c0.095,1.197-0.222,2.148-1.498,2.355c-0.452,0.073-2.562,0.369-2.29-0.656c0.605-2.269,0.337-4.582,0.408-6.9
				c-0.981-0.021-1.96-0.009-2.928,0.082c-0.133,0.014-0.265-0.053-0.288-0.195c-0.19-1.009-0.765-3.583,0.842-3.692
				c1.264-0.088,2.5-0.141,3.767-0.051c1.202,0.083,2.466,0.322,3.642-0.015c0.17-0.05,0.271,0.08,0.278,0.219
				c0.465,0.058,0.89,0.238,0.965,0.78C168.916,81.514,168.733,82.595,168.177,83.229z M149.148,100.198
				c-1.601,0-1.4-2.475,0.193-2.475C150.938,97.724,150.741,100.198,149.148,100.198z M147.667,105.925
				c0.306,0.478,0.599,0.992,0.825,1.488c0.319-0.156,0.598-0.543,0.859-0.8c0.384-0.377,0.73-0.678,1.03-1.131
				c0.274-0.417,0.525-0.863,0.776-1.301c0.15-0.258,0.242-0.768,0.466-0.949c-0.01,0.693,0,1.388,0,2.081
				c0,0.389-0.007,0.761-0.054,1.141c-0.028,0.206-0.082,0.394,0.034,0.583c0.321,0.54,1.168-0.34,1.457-0.646
				c0.403-0.428,0.488-1.007,0.824-1.448c0.068,0.978-0.281,1.941-0.621,2.848c-0.24,0.642-0.428,1.442-0.791,2.023
				c0.618-0.151,1.172-0.594,1.793-0.781c0.384-0.114,0.781-0.197,1.145-0.362c-0.03,0.9-1.301,1.281-1.854,1.761
				c-0.221,0.19-0.445,0.508-0.595,0.748c0.622,0.385,1.268,0.621,1.957,0.845c0.292,0.094,0.859,0.26,0.591,0.576
				c-0.189,0.224-0.679,0.304-0.941,0.38c-0.651,0.188-1.219,0.25-1.905,0.25c-0.587-0.001-1.205-0.064-1.63-0.528
				c-0.14-0.153-0.187-0.283-0.363-0.406c-0.211-0.144-0.469-0.207-0.683-0.341c-0.282-0.179-0.72-0.384-0.941-0.62
				c-0.309-0.329-0.329-0.776-0.777-0.966c-0.395-0.165-0.533-0.338-0.846-0.644c-0.473-0.46-0.303-0.995-0.602-1.498
				c-0.146-0.243-0.306-0.292-0.35-0.618c-0.034-0.277,0.027-0.556-0.014-0.829c-0.074-0.528-0.252-1.036-0.404-1.545
				c-0.19-0.649-0.496-1.274-0.921-1.79c0.428,0.261,0.792,0.645,1.139,1.014C146.733,104.943,147.308,105.359,147.667,105.925z
				 M154.497,116.353l-0.169,0.169c-0.289,0.287-0.795,0.221-1.05-0.068c-0.282-0.319-0.221-0.764,0.064-1.051l0.17-0.17
				c0.288-0.287,0.798-0.222,1.053,0.068C154.844,115.621,154.783,116.067,154.497,116.353z M140.775,134.286
				c0.085-3.889,0.007-7.782,0.099-11.672c0.051-2.107,0.054-4.148-0.103-6.255c-0.104-1.438-0.132-2.848,0.146-4.264
				c-0.116-0.099-0.146-0.323,0.027-0.434c0.594-0.38,1.268-0.156,1.888,0.063c3.048,1.073,5.53,2.424,7.874,4.666
				c2.449,2.342,4.99,4.974,6.565,8.016c0.829,1.599,1.237,3.375,2.018,4.996c0.374,0.777,0.877,1.698,0.238,2.482
				c-0.839,1.029-2.092,1.691-3.169,2.436c-1.353,0.938-2.755,1.813-4.246,2.514c-1.831,0.859-3.743,1.317-5.625,2.027
				c-1.271,0.479-2.507,1.05-3.883,1.117C139.926,140.104,140.738,135.902,140.775,134.286z M156.784,119.471
				c0.958,0,0.839,1.484-0.115,1.484C155.711,120.955,155.829,119.471,156.784,119.471z M159.219,123.848
				c-0.407,0.019-0.713-0.435-0.686-0.8c0.021-0.245,0.139-0.42,0.312-0.535c0.143-0.209,0.377-0.342,0.659-0.323
				c0.387,0.031,0.736,0.399,0.683,0.802C160.119,123.535,159.742,123.824,159.219,123.848z M160.146,117.927
				c-0.238-0.332-0.391-0.744-0.663-1.043c-0.098,0.182-0.078,0.474-0.108,0.684c-0.063,0.478-0.207,1.036-0.631,1.325
				c-0.459,0.313-1.288,0.095-1.594-0.354c-0.187-0.279-0.023-0.574-0.034-0.876c-0.214,0.19-0.432,0.204-0.696,0.078
				c-0.237-0.11-0.275-0.221-0.149-0.431c0.156-0.262,0.455-0.49,0.687-0.681c0.129-0.109,0.856-0.454,0.869-0.613
				c0.018-0.187-0.318-0.084-0.448-0.084c-0.441-0.005-0.855-0.253-1.148-0.58c-0.543-0.611-0.247-1.627,0.622-1.615
				c-0.278-0.129-0.373-0.504-0.278-0.785c0.18-0.555,0.818-0.384,1.229-0.244c0.485,0.163,0.829,0.487,1.107,0.918
				c0.133,0.208,0.424,0.875,0.768,0.686l0.044,0.085c0.03-0.184-0.126-0.523-0.197-0.721c-0.139-0.384-0.237-0.885-0.102-1.285
				c0.112-0.334,0.404-0.447,0.73-0.34c0.207,0.07,0.594,0.279,0.615,0.528c0.047-0.817,1.313-0.752,1.361,0.042
				c0.037,0.591-0.187,1.117-0.635,1.493c-0.153,0.129-0.466,0.312-0.408,0.554c0.388,0.056,0.687-0.275,1.046-0.343
				c0.533-0.097,1.607,0.334,1.121,1.022c0.17-0.11,0.407,0.022,0.482,0.192c0.126,0.285-0.122,0.554-0.322,0.715
				c-0.323,0.258-0.7,0.271-1.098,0.271c-0.292,0-0.692-0.073-0.967,0.022c0.44,0.063,1.025,0.24,1.416,0.454
				c0.23,0.124,0.577,0.371,0.428,0.681c-0.119,0.25-0.445,0.188-0.673,0.185c0.167,0.105,0.16,0.238,0.122,0.426
				c-0.099,0.472-0.482,0.685-0.943,0.625C161.04,118.835,160.523,118.46,160.146,117.927z M166.046,166.089
				c-0.961,0-0.842-1.484,0.112-1.484C167.119,164.604,167.001,166.089,166.046,166.089z M165.363,167.798
				c-0.961,0-0.842-1.485,0.112-1.485C166.434,166.312,166.314,167.798,165.363,167.798z M166.691,142.007
				c0.085-1.09,1.464-1.127,2.225-0.914c1.413,0.388,2.307,1.543,3.604,2.14c0.01,0,0.021,0,0.027-0.003
				c0.315-0.044,0.414,0.445,0.095,0.489c-0.482,0.064-0.965,0.17-1.457,0.19c-0.75,0.027-1.402-0.241-2.12-0.418
				C168.295,143.301,166.604,143.176,166.691,142.007z M180.163,119c-0.021,0.316-0.751,0.418-1.006,0.438
				c-0.858,0.066-1.786-0.385-2.632-0.549c-0.771-0.147-3.244-0.23-3.159-1.394c0.143-1.856,5.88,0.941,6.722,1.024
				C180.36,118.547,180.37,118.919,180.163,119z M184.358,103.598c-0.282,0.78-0.518,1.789-1.255,2.257
				c-0.04,0.029-0.081,0.036-0.118,0.036c-0.051,0.083-0.146,0.132-0.265,0.075c-0.85-0.411-1.033-1.355-0.85-2.23
				c0.129-0.613,0.387-1.245,0.707-1.785c0.285-0.489,1.091-1.17,1.277-1.809c-0.007-0.161-0.004-0.321,0.017-0.484
				c0.034-0.282,0.424-0.304,0.489-0.029c0.075,0.308,0.054,0.543-0.014,0.747C184.396,101.46,184.779,102.458,184.358,103.598z
				 M184.803,93.74c0.099,2.044-0.017,4.312-1.675,5.727c0.051,0.231-0.251,0.452-0.417,0.228c-0.605-0.822-0.689-1.902-0.401-2.872
				c0.163-0.56,0.387-1.051,0.754-1.51c0.476-0.598,1.22-0.693,1.247-1.61C184.32,93.375,184.789,93.429,184.803,93.74z
				 M182.496,83.505c0.037-0.032,0.068-0.064,0.105-0.098c0.479-0.478,1.325-0.371,1.749,0.114c0.47,0.529,0.367,1.273-0.111,1.751
				c-0.299,0.295-0.663,0.574-1.095,0.625c-0.668,0.08-1.317-0.28-1.453-0.98C181.583,84.346,181.929,83.682,182.496,83.505z
				 M182.071,91.28c0.14-0.041,0.252,0.075,0.289,0.195c0.384,1.208,0.635,2.612-0.048,3.773c-0.329,0.568-0.835,1.517-1.583,1.551
				c-0.162,0.007-0.23-0.122-0.213-0.251c-0.03-0.019-0.062-0.044-0.086-0.082c-0.662-1.034,0.221-2.298,0.439-3.348
				C181.032,92.338,181.223,91.525,182.071,91.28z M180.221,81.883c0.964,1.31,1.039,3.546,0.425,5.012
				c-0.649,1.542-1.971,2.505-3.584,2.878c-1.871,0.43-2.146-0.355-1.979-2.079c0.013-0.124,0.132-0.253,0.268-0.228
				c3.091,0.574,3.214-5.362,0.418-4.929c-0.174,0.025-0.285-0.1-0.292-0.263c-0.038-0.752-0.163-1.495-0.197-2.247
				c-0.01-0.202,0.188-0.258,0.337-0.192c0.02-0.01,0.037-0.024,0.057-0.032C177.191,79.328,179.361,80.718,180.221,81.883z
				 M60.682,78.169c2.812-1.899,6.43-1.972,9.718-1.946c4.256,0.036,8.489-0.033,12.745-0.099c5.254-0.082,10.502,0.36,15.747,0.267
				c5.36-0.097,10.676-0.9,16.032-0.965c5.489-0.066,10.975,0.347,16.463,0.142c5.387-0.205,10.778-0.279,16.168-0.231
				c5.108,0.044,10.125,0.255,15.207,0.841c5.01,0.579,10.085,1.175,15.078,0.121c0.937-0.199,1.22,1.264,0.281,1.46
				c-4.531,0.959-9.157,0.62-13.726,0.104c-5.034-0.569-9.982-0.965-15.054-1.021c-10.543-0.118-21.08,0.141-31.623,0.063
				c-5.407-0.04-10.743,0.679-16.137,0.891c-4.956,0.195-9.891-0.232-14.847-0.221c-4.571,0.012-9.14,0.282-13.712,0.179
				c-3.59-0.082-8.22-0.583-11.358,1.535C60.879,79.818,59.891,78.704,60.682,78.169z M60.258,102.569
				c1.09-0.527,2.198-1.097,3.081-1.945c0.652-0.628,1.199-1.478,1.96-1.99c1.267-0.853,2.49-0.596,3.821-0.003
				c0.014,0.007,0.024,0.019,0.037,0.025c0.034-0.003,0.068,0.002,0.105,0.015c0.333,0.117,0.601,0.306,0.683,0.666
				c0.014,0.051,0.004,0.095-0.01,0.132c0.018,0.085,0,0.177-0.068,0.248c-2.619,2.83-5.744,5.299-9.636,3.28
				C60.061,102.909,60.105,102.644,60.258,102.569z M59.113,155.224c0.228,0.228-0.146,0.553-0.371,0.329
				c-0.017-0.018-0.034-0.034-0.051-0.052c-0.224-0.228,0.149-0.553,0.374-0.325C59.083,155.192,59.1,155.206,59.113,155.224z
				 M58.41,105.142c0.319,0,0.282,0.495-0.038,0.495S58.091,105.142,58.41,105.142z M58.362,109.926
				c0.319,0,0.282,0.496-0.037,0.496C58.006,110.422,58.043,109.926,58.362,109.926z M58.264,115.103
				c0.319,0,0.282,0.494-0.037,0.494S57.945,115.103,58.264,115.103z M58.166,120.522c0.322,0,0.282,0.495-0.038,0.495
				C57.809,121.017,57.85,120.522,58.166,120.522z M57.853,125.338v-0.097c0-0.319,0.493-0.28,0.493,0.039v0.099
				C58.346,125.699,57.853,125.658,57.853,125.338z M58.07,129.116c0.319,0,0.279,0.493-0.041,0.493
				C57.71,129.609,57.751,129.116,58.07,129.116z M57.639,138.253c-0.32,0-0.279-0.495,0.037-0.495
				C57.999,137.758,57.958,138.253,57.639,138.253z M57.883,133.369c-0.319,0-0.278-0.493,0.038-0.493
				C58.244,132.876,58.203,133.369,57.883,133.369z M57.968,143.226c0.319,0,0.282,0.493-0.037,0.493S57.652,143.226,57.968,143.226
				z M58.107,148.668c-0.017-0.018-0.034-0.034-0.051-0.051c-0.224-0.228,0.149-0.555,0.374-0.327
				c0.017,0.018,0.034,0.031,0.051,0.048C58.706,148.565,58.332,148.893,58.107,148.668z M58.597,151.881
				c0.183-0.068,0.424,0.153,0.292,0.374c-0.105,0.187-0.329,0.17-0.489,0.067C58.155,152.169,58.355,151.823,58.597,151.881z
				 M58.692,159.018c-0.051-0.052-0.048-0.062,0.01-0.028c-0.299-0.118-0.136-0.587,0.163-0.468c0.095,0.037,0.139,0.088,0.2,0.17
				C59.263,158.942,58.889,159.271,58.692,159.018z M59.348,163.009c-0.32,0-0.279-0.496,0.037-0.496
				C59.708,162.513,59.667,163.009,59.348,163.009z M60.228,167.598c-0.32,0-0.279-0.496,0.037-0.496
				C60.584,167.102,60.546,167.598,60.228,167.598z M61.916,131.868c0.492-0.826,1.726,0.01,1.236,0.835
				c-1.022,1.719-3.655,7.802,0.119,7.68c0.958-0.03,0.839,1.454-0.115,1.488C57.697,142.044,60.366,134.477,61.916,131.868z
				 M61.936,170.915c-0.32,0-0.279-0.492,0.037-0.492C62.292,170.423,62.255,170.915,61.936,170.915z M64.364,162.224
				c-0.591,0.574-0.954,0.251-1.087-0.373c-0.248,0.265-0.567,0.438-0.873,0.187c-0.445-0.36-0.408-0.761-0.282-1.216
				c-0.513,0.061-1.019-0.144-0.927-0.812c0.054-0.407,0.465-0.829,0.727-1.11c0.7-0.764,1.379-1.579,1.974-2.433
				c0.72-1.021,1.451-2.068,2.826-1.993c1.25,0.064,2.374,1.389,3.037,2.313c0.129,0.176-0.01,0.387-0.17,0.414
				c-0.289,0.173-0.567,0.38-0.873,0.526c-0.353,0.177-0.835,0.228-1.162,0.441c-0.955,0.615-1.596,1.525-1.946,2.581
				C65.458,161.211,65.01,162.625,64.364,162.224z M65.159,173.895c-0.319,0-0.282-0.492,0.037-0.492S65.479,173.895,65.159,173.895
				z M65.35,165.886c-0.741-0.599,0.081-1.838,0.828-1.233c1.468,1.182,3.506,3.271,5.547,2.33c0.87-0.401,1.536,0.935,0.663,1.335
				C69.697,169.558,67.34,167.492,65.35,165.886z M68.434,177.128c-0.007,0.007-0.014,0.01-0.021,0.014
				c-0.027,0.014-0.051,0.018-0.075,0.023c0.044,0.004,0.014-0.01-0.071,0.024c-0.295,0.119-0.52-0.326-0.221-0.442
				c0.115-0.047,0.234-0.115,0.36-0.074C68.62,176.741,68.617,177.029,68.434,177.128z M72.03,178.13
				c-0.03,0.027-0.064,0.041-0.098,0.051l0,0c-0.245,0.208-0.571-0.166-0.326-0.373c0.064-0.059,0.143-0.112,0.224-0.149
				c0.173-0.075,0.367,0.047,0.357,0.24C72.18,178.008,72.108,178.072,72.03,178.13z M74.67,175.402
				c-1.009,1.726-3.094,1.542-4.6,0.571c-1.644-1.061-3.077-3.557-1.681-5.354c1.192-1.525,3.947-1.087,5.594-0.821
				c0.465,0.074,0.673,0.475,0.649,0.845C75.322,172.063,75.488,174.007,74.67,175.402z M76.195,179.561h-0.099
				c-0.319,0-0.282-0.496,0.038-0.496h0.099C76.551,179.064,76.514,179.561,76.195,179.561z M73.219,165.654
				c-1.04-0.064-1.97-0.496-2.829-1.07c-0.961-0.646-1.933-1.311-2.856-2.004c-0.551-0.414-0.809-0.947-0.683-1.623
				c0.201-1.101,1.495-2.844,2.622-3.091c0.741-0.16,1.229,0.92,1.627,1.327c0.798,0.826,1.881,1.369,2.815,2.031
				c0.367,0.258,0.737,0.533,1.138,0.741c0.846,0.431,0.873-0.473,0.917-1.054c0.075-0.931,0.476-1.775,0.958-2.571
				c0.968-1.586,1.98-3.604,3.896-4.19c2.891-0.887,6.005-0.065,8.963-0.375c0.197-0.02,0.309,0.164,0.285,0.313
				c0.289-0.116,0.506,0.319,0.214,0.445c-1.406,0.607-1.675,2.543-2.024,3.865c-0.34,1.276-0.849,2.558-1.552,3.679
				c-1.417,2.266-3.478,3.671-6.219,3.321c-0.214-0.027-0.312-0.285-0.146-0.435c1.348-1.209,1.813-2.619,1.8-4.307
				c-0.594,0.689-1.321,1.223-2.12,1.691c-1.182,0.696-2.34,1.437-3.57,2.055C75.509,164.88,74.337,165.729,73.219,165.654z
				 M87.89,170.76h0.098c0.404,0,0.713,0.418,0.683,0.798c-0.03,0.425-0.394,0.687-0.798,0.687h-0.095
				c-0.408,0-0.717-0.421-0.686-0.802C87.125,171.015,87.485,170.76,87.89,170.76z M86.117,169.849
				c-0.961,0-0.843-1.483,0.112-1.483C87.19,168.365,87.071,169.849,86.117,169.849z M85.053,168.6
				c-0.017,0.013-0.034,0.023-0.051,0.04c-0.289,0.285-0.792,0.228-1.05-0.067c-0.278-0.312-0.224-0.768,0.068-1.05
				c0.146-0.14,0.302-0.211,0.496-0.269c0.391-0.115,0.802,0.218,0.873,0.588C85.454,168.168,85.301,168.436,85.053,168.6z
				 M82.353,168.678c-0.958,0-0.839-1.484,0.116-1.484C83.43,167.193,83.311,168.678,82.353,168.678z M80.06,169.458
				c-0.958,0-0.839-1.484,0.116-1.484C81.133,167.974,81.015,169.458,80.06,169.458z M78.909,170.725
				c-0.034,0.429-0.397,0.687-0.802,0.687H78.06c-0.408,0-0.717-0.418-0.686-0.798c0.034-0.428,0.394-0.687,0.798-0.687h0.051
				C78.627,169.927,78.936,170.345,78.909,170.725z M76.667,173.688c-0.163-0.329-0.047-0.862,0.336-0.999
				c-0.153,0.108-0.132,0.096,0.061-0.037c0.01-0.004,0.023-0.007,0.038-0.014c0.38-0.133,0.801-0.058,0.995,0.337
				c0.166,0.329,0.051,0.865-0.333,0.998c0.149-0.108,0.132-0.096-0.062,0.037c-0.013,0.004-0.023,0.011-0.037,0.014
				C77.285,174.156,76.864,174.081,76.667,173.688z M78.206,176.88c-0.961,0-0.842-1.483,0.112-1.483
				C79.279,175.396,79.16,176.88,78.206,176.88z M79.754,178.483c-0.302-0.271-0.21-0.805,0.068-1.05
				c0.153-0.132,0.322-0.184,0.492-0.177c0.238-0.03,0.489,0.059,0.656,0.245c0.268,0.306,0.231,0.78-0.068,1.049
				C80.525,178.891,80.098,178.796,79.754,178.483z M81.073,180.246c-0.075,0.044-0.156,0.044-0.242,0.044
				c-0.292,0.008-0.278-0.407-0.027-0.479c0.112-0.092,0.295-0.099,0.367,0.075c0.003,0.006,0.01,0.017,0.014,0.026
				C81.239,180.046,81.195,180.175,81.073,180.246z M83.97,178.823c-0.394,0.099-0.798-0.211-0.873-0.591
				c-0.078-0.415,0.197-0.771,0.588-0.87c-0.241,0.062,0.064-0.03,0.149-0.051c0.391-0.103,0.798,0.21,0.873,0.587
				c0.082,0.418-0.197,0.771-0.591,0.874C84.364,178.707,84.055,178.8,83.97,178.823z M84.642,179.947h-0.051
				c-0.319,0-0.278-0.492,0.041-0.492h0.047C84.999,179.455,84.958,179.947,84.642,179.947z M82.39,176.673
				c-4.477,0-3.923-6.929,0.537-6.929C87.404,169.744,86.847,176.673,82.39,176.673z M86.619,175.688
				c0.961,0,0.842,1.484-0.116,1.484S85.665,175.688,86.619,175.688z M87.081,178.534h-0.047c-0.32,0-0.279-0.495,0.037-0.495h0.051
				C87.441,178.039,87.4,178.534,87.081,178.534z M87.92,174.828h-0.143c-0.408,0-0.717-0.418-0.686-0.798
				c0.034-0.429,0.394-0.687,0.798-0.687h0.146c0.407,0,0.713,0.418,0.686,0.802C88.688,174.57,88.328,174.828,87.92,174.828z
				 M89.622,176.921c-0.32,0-0.279-0.492,0.037-0.492C89.979,176.429,89.941,176.921,89.622,176.921z M89.048,164.914
				c-0.866,0.417-1.529-0.917-0.663-1.331c1.359-0.652,2.262-1.96,2.31-3.473c0.03-0.957,1.515-0.842,1.484,0.116
				C92.115,162.234,90.848,164.054,89.048,164.914z M92.111,175.749h-0.146c-0.32,0-0.282-0.496,0.037-0.496h0.146
				C92.468,175.253,92.427,175.749,92.111,175.749z M93.688,173.667c-0.02,0.119-0.085,0.187-0.2,0.225
				c-0.133,0.04-0.231-0.041-0.323-0.13c-0.19-0.18,0.027-0.428,0.241-0.391c0.149-0.034,0.326,0.055,0.292,0.248L93.688,173.667z
				 M93.857,170.909c-0.217,1.301-1.192,2.397-2.429,2.85c-0.54,0.193-1.087-0.116-1.073-0.728c0.023-1.066,0.302-2.129,0.184-3.199
				c-0.014-0.108-0.003-0.211,0.02-0.299c-0.071-0.425,0.201-0.94,0.768-0.927C92.611,168.637,94.112,169.374,93.857,170.909z
				 M95.022,171.778c-0.241-0.078-0.19-0.492,0.105-0.476c0.19,0.007,0.269,0.14,0.278,0.312
				C95.417,171.843,95.172,171.884,95.022,171.778z M96.87,165.087c-1.389,0.911-2.951,0.747-4.487,0.374
				c-0.934-0.225-0.435-1.627,0.489-1.403c1.179,0.286,2.283,0.384,3.335-0.306C97.01,163.226,97.662,164.567,96.87,165.087z
				 M95.858,148.396c-0.745-0.306-1.671-0.689-1.893-1.56c-0.289-1.145,0.123-2.33-0.132-3.465
				c-0.156-0.047-0.268-0.271-0.108-0.424c0.944-0.932,3.06-0.112,4.178,0.01c2.969,0.322,6.06,0.149,9.045,0.218
				c6.331,0.142,12.649,0.434,18.987,0.329c6.42-0.108,12.768-0.642,19.157-1.223c1.454-0.133,2.931-0.248,4.354-0.592
				c1.586-0.387,3.077-1.022,4.585-1.626c1.271-0.51,2.551-0.854,3.872-1.196c1.236-0.319,2.316-0.935,3.513-1.301
				c0.169-0.055,0.288,0.119,0.295,0.262c0.064,1.494,0.499,3.387,0.034,4.847c-0.354,1.114-1.413,1.199-2.401,1.58
				c-3.278,1.27-6.671,2.207-10.111,2.935c-3.591,0.757-7.215,1.334-10.832,1.926c-3.743,0.614-7.463,1.29-11.24,1.65
				c-7.37,0.706-15,0.85-22.343-0.211C101.829,150.125,98.664,149.558,95.858,148.396z M141.35,161.895
				c-0.894-0.35-0.407-1.757,0.492-1.407c0.636,0.245,1.308,0.456,1.99,0.31c0.938-0.197,1.223,1.264,0.282,1.464
				C143.18,162.462,142.226,162.23,141.35,161.895z M142.657,165.845c-0.958,0-0.843-1.485,0.115-1.485
				S143.611,165.845,142.657,165.845z M143.595,159.897c-0.014,0.143-0.126,0.23-0.265,0.23c-0.914-0.018-1.947,0.21-2.344-0.809
				c-0.256-0.659-0.16-1.613-0.163-2.303c-0.004-1.226-0.024-2.433-0.306-3.634c-0.011-0.045-0.007-0.085,0.003-0.119
				c-0.193-0.092-0.214-0.429,0.048-0.462c0.853-0.115,2.792-0.718,2.969,0.607c0.095,0.754,0.033,1.505,0.014,2.259
				C143.517,157.092,143.761,158.471,143.595,159.897z M140.571,163.823c0.961,0,0.843,1.485-0.112,1.485
				C139.498,165.309,139.62,163.823,140.571,163.823z M145.113,165.875c0.961,0,0.842,1.484-0.112,1.484
				C144.039,167.359,144.158,165.875,145.113,165.875z M120.392,160.162c-0.18,1.134-0.934,0.747-1.817,0.683
				c-0.788-0.055-1.145-0.279-1.182-1.11c-0.078-1.641,0.458-3.581-0.245-5.116c-0.078-0.176,0.055-0.325,0.201-0.353
				c0.792-0.534,2.194-0.384,3.037-0.14c0.102,0.03,0.18,0.149,0.163,0.255c-0.17,1.198-0.163,2.395-0.177,3.601
				C120.362,158.678,120.5,159.473,120.392,160.162z M117.495,167.526c0.01-0.004,0.024-0.011,0.034-0.015
				c0.384-0.132,0.802-0.061,0.999,0.336c0.163,0.33,0.047,0.863-0.336,0.999c0.153-0.108,0.132-0.095-0.061,0.034
				c-0.01,0.007-0.024,0.01-0.034,0.014c-0.384,0.136-0.805,0.062-0.999-0.336c-0.166-0.33-0.047-0.863,0.333-0.999
				C117.281,167.668,117.301,167.654,117.495,167.526z M116.242,167.017c-0.031,0.428-0.391,0.686-0.799,0.686h-0.082
				c-0.404,0-0.713-0.421-0.683-0.802c0.031-0.428,0.394-0.686,0.798-0.686h0.082C115.963,166.215,116.272,166.636,116.242,167.017z
				 M97.998,171.809c-0.017-0.014-0.034-0.03-0.048-0.048c-0.228-0.228,0.146-0.553,0.374-0.329c0.013,0.018,0.03,0.034,0.047,0.052
				C98.596,171.711,98.222,172.036,97.998,171.809z M98.354,163.065c-0.489-1.242-0.064-2.72-0.245-4.031
				c-0.183-1.314-0.465-2.758,0.085-4.021c0.472-1.091,1.973-0.469,2.819-0.425c4.202,0.218,8.38-0.429,12.574-0.473
				c0.055-0.034,0.125-0.054,0.204-0.037c0.275,0.037,0.534,0.119,0.782,0.245c0.112,0.044,0.163,0.136,0.167,0.251
				c0.034,1.525,0.024,2.999,0.19,4.518c0.136,1.254,0.221,2.479,0.054,3.736c-0.013,0.103-0.088,0.218-0.2,0.225
				c-2.133,0.149-4.266-0.007-6.406,0.18c-1.994,0.18-3.991,0.563-5.999,0.503c-0.999-0.031-2.011-0.071-3.006-0.159
				C99.003,163.542,98.514,163.483,98.354,163.065z M113.714,167.125c-0.017,0.021-0.034,0.033-0.047,0.051
				c-0.289,0.289-0.798,0.225-1.053-0.067c-0.282-0.319-0.217-0.765,0.068-1.05c0.017-0.018,0.034-0.034,0.051-0.052
				c0.285-0.284,0.794-0.221,1.049,0.069C114.064,166.395,114,166.84,113.714,167.125z M110.773,168.042
				c-0.961,0-0.839-1.484,0.115-1.484C111.846,166.558,111.727,168.042,110.773,168.042z M109.21,169.802
				c-0.958,0-0.842-1.484,0.116-1.484S110.165,169.802,109.21,169.802z M109.173,172.01c-0.017,0.017-0.034,0.033-0.047,0.048
				c-0.289,0.288-0.798,0.224-1.053-0.069c-0.279-0.314-0.218-0.761,0.067-1.049c0.017-0.014,0.034-0.03,0.051-0.048
				c0.286-0.288,0.795-0.221,1.05,0.068C109.523,171.279,109.458,171.724,109.173,172.01z M99.628,174.432
				c-0.319,0-0.279-0.492,0.041-0.492S99.947,174.432,99.628,174.432z M101.486,177.169c-0.319,0-0.282-0.496,0.037-0.496
				C101.843,176.673,101.806,177.169,101.486,177.169z M103.779,178.191c-0.319,0-0.278-0.492,0.041-0.492
				S104.098,178.191,103.779,178.191z M106.252,174.187c-0.078,0.312-0.452,0.529-0.761,0.496c-2.921-0.336-5.238-3.155-5.944-5.87
				c-0.125-0.495,0.333-0.893,0.788-0.887c1.698,0.024,3.403,0.286,5.088,0.031c0.282-0.218,0.703-0.271,1.025,0.051
				C107.818,169.394,106.649,172.594,106.252,174.187z M107.98,179.217c-0.309,0.004-0.282-0.451,0.007-0.488
				c0.163-0.13,0.472,0.02,0.391,0.274C108.317,179.193,108.154,179.217,107.98,179.217z M108.673,174.781
				c-0.961,0-0.839-1.485,0.116-1.485C109.747,173.296,109.628,174.781,108.673,174.781z M109.944,176.832
				c-0.961,0-0.842-1.483,0.112-1.483C111.017,175.349,110.898,176.832,109.944,176.832z M112.451,176.615
				c0.958,0,0.839,1.487-0.116,1.487C111.374,178.103,111.496,176.615,112.451,176.615z M112.817,180.182
				c-0.18-0.159-0.024-0.52,0.241-0.421c0.109,0.041,0.194,0.119,0.211,0.234C113.31,180.276,112.93,180.383,112.817,180.182z
				 M114.777,178.005c-0.961,0-0.842-1.485,0.116-1.485C115.851,176.52,115.732,178.005,114.777,178.005z M113.541,175.746
				c-4.477,0-3.923-6.93,0.537-6.93C118.555,168.816,118.001,175.746,113.541,175.746z M116.428,179.658
				c-0.319,0-0.282-0.496,0.037-0.496C116.785,179.162,116.744,179.658,116.428,179.658z M118.028,176.14
				c-0.071,0.177-0.163,0.299-0.309,0.411c-0.323,0.248-0.771,0.251-1.05-0.068c-0.258-0.288-0.258-0.802,0.065-1.049
				c0.014-0.011,0.027-0.021,0.041-0.028c0.193-0.22,0.496-0.318,0.794-0.213C117.939,175.321,118.178,175.763,118.028,176.14z
				 M118.181,174.432c-0.282-0.319-0.217-0.765,0.068-1.05c0.014-0.017,0.031-0.034,0.048-0.048
				c0.289-0.288,0.795-0.225,1.053,0.068c0.279,0.315,0.217,0.765-0.068,1.049c-0.017,0.014-0.034,0.03-0.051,0.048
				C118.945,174.784,118.436,174.724,118.181,174.432z M119.292,178.863c-0.109-0.04-0.193-0.115-0.21-0.237
				c-0.038-0.278,0.34-0.384,0.455-0.184C119.716,178.603,119.56,178.963,119.292,178.863z M118.976,172.682
				c-0.958,0-0.842-1.484,0.116-1.484C120.049,171.197,119.93,172.682,118.976,172.682z M118.976,170.678
				c-0.958,0-0.842-1.484,0.116-1.484C120.049,169.193,119.93,170.678,118.976,170.678z M120.833,163.28
				c-0.91,0.652-1.875,0.876-2.948,0.482c-0.896-0.333-0.411-1.74,0.493-1.406c0.547,0.203,0.995,0.146,1.474-0.197
				c0.326-0.237,0.761-0.259,1.05,0.067C121.149,162.51,121.163,163.043,120.833,163.28z M121.747,177.655
				c-0.319,0-0.278-0.496,0.041-0.496S122.067,177.655,121.747,177.655z M123.602,175.409c-0.32,0-0.279-0.496,0.041-0.496
				S123.921,175.409,123.602,175.409z M126.289,173.019h-0.052c-0.319,0-0.278-0.496,0.041-0.496h0.048
				C126.648,172.522,126.607,173.019,126.289,173.019z M122.186,173.141c-0.51,0.152-0.87-0.354-0.887-0.788
				c-0.048-1.399-0.591-3.835,0.38-5.064c0.972-1.233,2.877-1.233,4.3-1.39c0.425-0.044,0.713,0.221,0.822,0.537
				c0.438-0.085,0.958,0.184,0.914,0.761C127.457,170.531,125.202,172.22,122.186,173.141z M126.91,161.161
				c-1.188,0.05-2.595,0.302-3.76-0.021c-0.523-0.146-0.435-1.674-0.462-2.048c-0.112-1.49-0.115-2.995-0.234-4.486
				c-0.007-0.062,0.01-0.109,0.037-0.153c-0.112-0.105-0.132-0.315,0.044-0.411c0.849-0.445,1.875-0.381,2.806-0.312
				c1.375,0.099,2.724,0.055,4.103,0.023c1.712-0.04,3.423-0.074,5.136-0.173c1.439-0.081,2.856-0.397,4.297-0.146
				c0.125,0.021,0.247,0.123,0.228,0.265c-0.231,1.529,0.098,2.977,0.221,4.491c0.058,0.724,0.247,1.889-0.249,2.521
				c-0.519,0.658-1.439,0.699-2.221,0.695c-1.317-0.009-2.625-0.183-3.94-0.236C130.922,161.083,128.907,161.072,126.91,161.161z
				 M138.018,165.943c-0.958,0-0.839-1.484,0.115-1.484C139.091,164.459,138.975,165.943,138.018,165.943z M136.309,167.557
				c-0.958,0-0.839-1.488,0.115-1.488C137.382,166.068,137.264,167.557,136.309,167.557z M135.626,169.751
				c-0.962,0-0.843-1.484,0.115-1.484S136.58,169.751,135.626,169.751z M129.081,172.509c-0.011,0.034-0.093,0.228-0.048,0.098
				c-0.105,0.303-0.578,0.141-0.472-0.162c0.013-0.034,0.098-0.228,0.054-0.099C128.721,172.043,129.186,172.207,129.081,172.509z
				 M131.696,174.812c-0.018,0.017-0.034,0.03-0.048,0.048c-0.228,0.228-0.554-0.146-0.329-0.374
				c0.017-0.013,0.034-0.03,0.051-0.047C131.594,174.21,131.92,174.584,131.696,174.812z M133.622,176.812
				c-0.014,0.003-0.027,0.007-0.04,0.01c-0.123,0.024-0.212-0.041-0.256-0.125c-0.143-0.153-0.074-0.462,0.177-0.415
				c0.133,0.024,0.225,0.058,0.296,0.177C133.88,176.602,133.771,176.785,133.622,176.812z M135.354,172.268
				c0.081,0.306-0.116,0.683-0.401,0.809c-2.489,1.106-5.536-0.791-5.652-3.54c-0.033-0.835-0.111-2.181,0.894-2.54
				c0.988-0.356,2.103-0.099,3.125-0.089c0.401,0.004,0.608,0.266,0.655,0.564c0.241,0.062,0.456,0.234,0.531,0.547
				c0.243,1.032,0.387,2.089,0.594,3.128c0.126-0.197,0.343-0.343,0.642-0.343c0.958,0,0.839,1.487-0.115,1.487
				c-0.105,0-0.197-0.021-0.278-0.054C135.351,172.247,135.351,172.257,135.354,172.268z M136.347,177.362
				c-0.103-0.004-0.181-0.03-0.266-0.091c-0.262-0.185,0.017-0.599,0.278-0.412c0.011,0.004,0.018,0.004,0.027,0.011
				C136.706,176.88,136.665,177.373,136.347,177.362z M136.359,174.292c-0.961,0-0.842-1.484,0.112-1.484
				C137.433,172.808,137.313,174.292,136.359,174.292z M139.21,174.536c0,0.404-0.422,0.713-0.802,0.683
				c-0.425-0.03-0.683-0.394-0.683-0.798v-0.048c0-0.407,0.418-0.716,0.798-0.686c0.429,0.03,0.687,0.394,0.687,0.798V174.536z
				 M140.198,178.423c-0.255-0.068-0.204-0.493,0.092-0.479c0.135,0.003,0.247,0.055,0.302,0.183
				C140.704,178.392,140.361,178.592,140.198,178.423z M141.047,175.756c-0.961,0-0.842-1.48,0.112-1.48
				C142.12,174.275,141.998,175.756,141.047,175.756z M140.541,173.596h-0.048c-0.866,0-1.786-0.54-2.344-1.172
				c-0.611-0.696-0.923-1.63-0.852-2.558c0.067-0.9,0.495-1.75,1.171-2.344c0.741-0.652,1.597-0.853,2.562-0.853h0.047
				c0.867,0,1.787,0.536,2.341,1.169c0.614,0.699,0.928,1.633,0.856,2.561c-0.068,0.899-0.496,1.745-1.173,2.344
				C142.365,173.396,141.506,173.596,140.541,173.596z M143.136,177.946c-0.136-0.003-0.248-0.054-0.303-0.187
				c-0.108-0.261,0.231-0.462,0.395-0.295C143.482,177.532,143.436,177.961,143.136,177.946z M144.281,174.645
				c-0.279,0.299-0.806,0.218-1.054-0.067c-0.119-0.133-0.173-0.289-0.176-0.444c-0.008-0.052-0.008-0.103-0.004-0.15
				c0.03-0.411,0.394-0.709,0.798-0.687c0.011,0,0.021,0,0.03,0c0.432,0.028,0.687,0.405,0.687,0.802
				C144.562,174.326,144.427,174.492,144.281,174.645z M145.836,177.077c-0.01,0.007-0.023,0.014-0.033,0.017
				c-0.228,0.1-0.407-0.146-0.344-0.322c0.018-0.207,0.275-0.371,0.422-0.163c0.061,0.092,0.092,0.156,0.092,0.265
				C145.973,176.958,145.907,177.047,145.836,177.077z M145.344,172.875c-0.961,0-0.842-1.483,0.112-1.483
				C146.417,171.392,146.298,172.875,145.344,172.875z M145.734,170.287c-0.961,0-0.842-1.484,0.112-1.484
				C146.808,168.803,146.689,170.287,145.734,170.287z M148.492,175.446c-0.017,0.018-0.03,0.031-0.047,0.048
				c-0.228,0.228-0.551-0.146-0.329-0.373c0.016-0.014,0.033-0.031,0.05-0.048C148.391,174.846,148.717,175.219,148.492,175.446z
				 M150.15,173.538c-0.245-0.082-0.19-0.496,0.102-0.479c0.193,0.011,0.269,0.14,0.279,0.316
				C150.541,173.599,150.3,173.643,150.15,173.538z M148.877,171.438c-0.388,0.116-0.802-0.218-0.873-0.588
				c-0.323-1.701-0.034-3.413-0.011-5.128c0.011-0.775,0.975-0.846,1.346-0.344c1.62-0.017,2.706,1.114,2.391,2.759
				C151.444,169.621,150.347,171.008,148.877,171.438z M151.824,171.649h-0.047c-0.319,0-0.282-0.496,0.037-0.496h0.048
				C152.182,171.153,152.145,171.649,151.824,171.649z M152.969,169.274c0,0.316-0.492,0.279-0.492-0.04v-0.099
				c0-0.319,0.492-0.278,0.492,0.041V169.274z M155.068,173.497c0,0.319-0.493,0.282-0.493-0.037v-0.126
				c0-0.319,0.493-0.278,0.493,0.041V173.497z M155.245,170.332c-0.319,0-0.282-0.496,0.037-0.496S155.562,170.332,155.245,170.332z
				 M156.073,174.727c-0.318,0-0.281-0.496,0.038-0.496S156.394,174.727,156.073,174.727z M152.32,158.929
				c-2.109,0.034-3.835,0.482-5.784,1.271c-0.16,0.064-0.306-0.014-0.354-0.174c-0.319-1.039,0.007-2.33-0.095-3.406
				c-0.105-1.104-0.214-2.194-0.204-3.302c0,0,0.004-0.004,0.004-0.007c-0.144-0.071-0.218-0.269-0.065-0.404
				c1.458-1.273,3.846-1.698,5.663-2.18c2.377-0.633,4.935-1.427,7.391-1.587c0.17-0.01,0.295,0.089,0.295,0.262
				c0,1.172-0.017,2.354,0.147,3.516c0.139,0.981,0.468,1.916,0.614,2.89c0.184,1.23-1.451,1.563-2.286,1.855
				C155.935,158.256,154.151,158.892,152.32,158.929z M158.444,176.045h-0.129c-0.315,0-0.274-0.496,0.045-0.496h0.121
				C158.802,175.549,158.761,176.045,158.444,176.045z M161.431,177.35c-0.014,0.016-0.031,0.033-0.048,0.05
				c-0.228,0.228-0.551-0.149-0.326-0.373c0.014-0.017,0.03-0.03,0.048-0.048C161.332,176.747,161.655,177.125,161.431,177.35z
				 M163.081,172.298c-0.003,0.103-0.023,0.188-0.054,0.265c0.061,0.364-0.1,0.785-0.548,0.918
				c-2.571,0.757-4.999-2.847-5.295-5.007c-0.058-0.441,0.187-0.744,0.591-0.873c1.332-0.435,2.725-0.224,4.079-0.513
				c0.3-0.062,0.693,0.099,0.809,0.4C163.244,169.003,163.105,170.705,163.081,172.298z M162.603,158.66
				c-0.924-0.268-0.432-1.671,0.492-1.405c0.156,0.047,0.411,0.037,0.618,0.003c0.119-0.024,0.241-0.044,0.354-0.078
				c0.02-0.003,0.034-0.01,0.048-0.014c0.034-0.014,0.067-0.026,0.102-0.044c0.873-0.404,1.531,0.931,0.662,1.334
				C164.191,158.776,163.333,158.874,162.603,158.66z M164.715,177.07c-0.319,0-0.278-0.496,0.041-0.496
				C165.072,176.574,165.034,177.07,164.715,177.07z M165.378,168.609c0.961,0,0.842,1.484-0.112,1.484
				C164.305,170.094,164.423,168.609,165.378,168.609z M166.192,172.583c-0.962,0-0.843-1.483,0.112-1.483
				C167.266,171.1,167.146,172.583,166.192,172.583z M167.996,176.269c-0.014,0.051-0.038,0.095-0.047,0.146
				c-0.082,0.309-0.551,0.146-0.469-0.163c0.013-0.051,0.033-0.095,0.047-0.146C167.608,175.797,168.077,175.963,167.996,176.269z
				 M167.949,174.193c-0.959,0-0.84-1.484,0.115-1.484C169.022,172.709,168.903,174.193,167.949,174.193z M170.099,174.88
				c-0.961,0-0.843-1.484,0.112-1.484C171.172,173.396,171.054,174.88,170.099,174.88z M170.791,176.285
				c-0.156-0.258,0.201-0.566,0.381-0.312c0.078,0.112,0.103,0.196,0.109,0.333C171.291,176.615,170.825,176.585,170.791,176.285z
				 M172.589,174.391c-0.958,0-0.843-1.484,0.115-1.484S173.543,174.391,172.589,174.391z M172.086,172.162
				c-0.897,0.336-0.935,0.343-1.906,0.36c-0.858,0.014-1.793-0.547-2.34-1.172c-0.615-0.696-0.927-1.63-0.855-2.558
				c0.067-0.9,0.496-1.75,1.171-2.344c0.374-0.326,0.798-0.561,1.264-0.703c0.17-0.062,0.343-0.112,0.514-0.146
				c0.899-0.176,1.844,0.018,2.604,0.53s1.291,1.314,1.468,2.218c0.116,0.614,0.075,1.22-0.133,1.811
				c-0.132,0.265-0.265,0.529-0.397,0.795C173.224,171.395,172.564,171.985,172.086,172.162z M170.894,162.995
				c0.961,0,0.843,1.483-0.112,1.483C169.824,164.479,169.939,162.995,170.894,162.995z M172.198,164.064
				c0.01-0.011,0.017-0.017,0.026-0.026c0.007-0.011,0.018-0.021,0.027-0.031c0-0.003,0.007-0.003,0.01-0.007
				c0.153-0.152,0.374-0.241,0.589-0.224c0.421,0.03,0.689,0.394,0.686,0.798c-0.004,0.091-0.027,0.18-0.048,0.269
				c-0.095,0.418-0.594,0.55-0.947,0.455c-0.149-0.037-0.252-0.14-0.357-0.241C171.909,164.799,171.96,164.329,172.198,164.064z
				 M174.46,165.239c0.958,0,0.843,1.485-0.115,1.485S173.506,165.239,174.46,165.239z M174.286,176.092
				c-0.318,0-0.281-0.496,0.038-0.496S174.603,176.092,174.286,176.092z M174.198,173.021c-0.958,0-0.839-1.484,0.116-1.484
				C175.271,171.537,175.153,173.021,174.198,173.021z M175.177,171.021c-0.962,0-0.843-1.485,0.111-1.485
				C176.25,169.536,176.127,171.021,175.177,171.021z M175.322,168.823c-0.961,0-0.842-1.484,0.115-1.484
				C176.396,167.339,176.276,168.823,175.322,168.823z M176.76,174.943c-0.034,0.015-0.062,0.038-0.1,0.052
				c-0.298,0.102-0.522-0.34-0.22-0.448c0.033-0.011,0.062-0.034,0.099-0.044C176.838,174.397,177.062,174.839,176.76,174.943z
				 M178.679,172.872h-0.096c-0.318,0-0.281-0.496,0.037-0.496h0.1C179.038,172.376,178.998,172.872,178.679,172.872z
				 M180.536,170.623c-0.322,0-0.281-0.492,0.037-0.492C180.894,170.131,180.855,170.623,180.536,170.623z M181.179,164.102
				c-0.442,2.202-1.229,4.508-3.736,4.96c-0.473,0.085-0.928-0.299-0.887-0.789c0.099-1.12-0.054-2.166-0.418-3.206
				c-0.557-0.319-0.51-1.232,0.055-1.382c0.299-0.234,0.736-0.272,0.988,0.058c1.317,0.034,2.568-0.5,3.698-1.179
				c0.822-0.5,1.475,0.842,0.663,1.331C181.423,163.967,181.301,164.034,181.179,164.102z M181.691,168.507
				c-0.244-0.078-0.19-0.492,0.102-0.479c0.194,0.01,0.269,0.143,0.278,0.316C182.082,168.572,181.841,168.612,181.691,168.507z
				 M182.344,167.206c-0.319,0-0.282-0.495,0.037-0.495S182.663,167.206,182.344,167.206z M181.453,150.543
				c-0.717,0.607-0.176,2.35-0.102,3.179c0.099,1.077,0.177,2.15,0.292,3.224c0.184,1.695,0.078,2.955-1.63,3.627
				c-1.07,0.422-2.239,0.533-3.354,0.782c-0.817,0.18-1.616,0.306-2.458,0.221c-0.547-0.059-0.935-0.32-1.146-0.815
				c-0.359-0.829-0.506-1.854-0.787-2.725l-1.804-6.657c-1.07-0.033-2.422-0.326-2.932-1.368c-0.581-1.192-0.173-2.433,0.611-3.421
				c1.369-1.722,4.989-2.544,5.92,0.007c1.621-1.267,3.026-2.581,5.19-2.856c1.471-0.187,2.948,0.659,3.309,2.136
				C182.958,147.476,182.795,149.404,181.453,150.543z M183.512,164.472c-0.319,0-0.278-0.496,0.041-0.496
				S183.834,164.472,183.512,164.472z M184.146,162.421c-0.315,0-0.278-0.492,0.041-0.492
				C184.508,161.929,184.467,162.421,184.146,162.421z M184.694,155.488c0.163-0.133,0.472,0.021,0.391,0.275
				c-0.062,0.189-0.228,0.21-0.397,0.214C184.374,155.98,184.405,155.522,184.694,155.488z M184.602,158.613
				c0.29,0.044,0.249,0.502-0.063,0.488c-0.112-0.006-0.184-0.058-0.266-0.136C184.056,158.759,184.374,158.467,184.602,158.613z
				 M183.896,133.328c-0.303,0.309,0.074,0.948,0.108,1.399c0.057,0.836-0.228,1.699-0.979,2.045
				c0.618,1.046,0.554,2.401-0.356,3.24c0.591,0.608,1.025,1.179,0.805,2.079c-0.03,0.119-0.204,0.207-0.315,0.152
				c-0.221-0.173-0.466-0.237-0.737-0.196c-0.078,0.099-0.238,0.163-0.347,0.07c-0.225-0.023-0.448-0.047-0.672-0.07
				c-0.112,0.088-0.334,0.085-0.388-0.075c-0.099-0.299-0.007-2.116,0.146-2.058c-0.325-0.123-0.73-0.293-0.805-0.68
				c-0.19-0.948,0.19-2.035,1.05-2.466c-0.602-0.992-0.306-2.012,0.356-3.003c0.14-0.207,0.958-0.815,0.883-1.047
				c-0.081-0.247-0.139-0.39-0.187-0.624c-0.132-0.659,0.126-1.44,0.373-2.042c0.241-0.577,0.768-0.927,0.479-1.508
				c-0.221-0.452-0.373-0.938-0.377-1.45c-0.007-0.819,0.177-1.569,0.771-2.1c-0.588-0.656-0.887-1.562-0.839-2.439
				c-0.891-0.604-2.433-1.489-2.405-2.627c0.024-0.82,1.437-0.768,1.937-0.666c1.178,0.241,1.738,0.686,1.804,1.872
				c0.044,0.788,0.783,1.123,0.954,1.841c0.156,0.652,0.098,1.282-0.279,1.85c-0.417,0.623,0.503,0.853,0.558,1.557
				c0.044,0.566-0.055,1.093-0.354,1.589c-0.346,0.577,0.068,0.935,0.156,1.572c0.082,0.615-0.055,1.329-0.268,1.909
				C184.721,132.115,184.405,132.819,183.896,133.328z M184.932,151.442c0.211-0.007,0.388,0.265,0.184,0.418
				c-0.108,0.081-0.221,0.108-0.347,0.051C184.483,151.778,184.643,151.311,184.932,151.442z M184.966,147.961h0.102
				c0.316,0,0.279,0.496-0.041,0.496h-0.095C184.609,148.457,184.649,147.961,184.966,147.961z M185.007,145.102
				c-0.018-0.018-0.03-0.031-0.048-0.048c-0.228-0.228,0.146-0.554,0.373-0.33l0.048,0.052
				C185.607,145.003,185.23,145.329,185.007,145.102z M185.563,142.404c-0.319,0-0.278-0.496,0.041-0.496
				S185.883,142.404,185.563,142.404z M186.338,137.333c-0.014-0.03-0.037-0.061-0.048-0.095c-0.104-0.3,0.337-0.523,0.445-0.222
				c0.01,0.031,0.034,0.062,0.048,0.096C186.885,137.411,186.443,137.635,186.338,137.333z M187.214,130.237
				c0.32,0,0.279,0.496-0.037,0.496C186.854,130.733,186.896,130.237,187.214,130.237z M187.448,133.604
				c-0.183,0.262-0.594-0.017-0.41-0.278c0-0.007,0.003-0.018,0.007-0.027c0.013-0.319,0.506-0.281,0.496,0.04
				C187.537,133.44,187.507,133.519,187.448,133.604z M187.588,127.33c-0.017,0.115-0.071,0.21-0.188,0.254
				c-0.295,0.105-0.516-0.332-0.224-0.44C187.33,127.011,187.625,127.081,187.588,127.33z M187.33,123.343
				c-0.068,0.164-0.177,0.206-0.347,0.212c-0.288,0.012-0.282-0.387-0.048-0.474C187.109,122.936,187.438,123.088,187.33,123.343z
				 M185.465,102.61c-0.315-0.014-0.278-0.5,0.03-0.494c-0.454-0.914-0.547-2.082-0.063-3.006c0.529-1.009,2.003-1.717,2.007-2.901
				c-0.021-0.139-0.038-0.271-0.047-0.391c-0.031-0.318,0.403-0.408,0.485-0.095c0.058,0.214,0.078,0.416,0.071,0.608
				C188.264,98.797,188.946,102.768,185.465,102.61z M188.142,114.663c0.319,0,0.282,0.496-0.037,0.496
				C187.781,115.159,187.822,114.663,188.142,114.663z M188.043,120.517c-0.017,0.015-0.034,0.032-0.051,0.047
				c-0.228,0.228-0.551-0.146-0.326-0.372c0.017-0.017,0.034-0.034,0.048-0.049C187.941,119.917,188.268,120.291,188.043,120.517z
				 M188.553,117.139c0.017,0.017,0.033,0.034,0.047,0.049c0.228,0.226-0.146,0.552-0.369,0.326
				c-0.018-0.015-0.034-0.03-0.052-0.045C187.951,117.241,188.328,116.915,188.553,117.139z M188.25,112.521
				c-0.322,0-0.281-0.495,0.037-0.495C188.61,112.027,188.569,112.521,188.25,112.521z M188.695,109.069
				c-0.156,0.178-0.517,0.022-0.418-0.247c0.041-0.107,0.119-0.193,0.234-0.21C188.797,108.573,188.898,108.953,188.695,109.069z
				 M189.198,106.662c-0.007,0.143-0.133,0.228-0.269,0.228c-0.092,0-0.149-0.056-0.211-0.116c-0.163-0.154-0.03-0.354,0.143-0.39
				c0.011-0.003,0.021-0.005,0.031-0.005c0.003-0.001,0.01-0.003,0.017-0.003c0.143-0.019,0.303,0.069,0.292,0.255
				C189.198,106.64,189.198,106.652,189.198,106.662z M189.079,104.464c-0.319,0-0.278-0.494,0.038-0.494
				C189.438,103.97,189.398,104.464,189.079,104.464z M189.323,102.219c-0.319,0-0.278-0.494,0.037-0.494
				C189.684,101.725,189.643,102.219,189.323,102.219z M189.521,97.386c-0.322,0-0.282-0.496,0.037-0.496
				C189.878,96.89,189.84,97.386,189.521,97.386z M189.959,94.993c-0.319,0-0.282-0.495,0.037-0.495S190.277,94.993,189.959,94.993z
				 M190.234,93.015c-0.263,0.11-0.466-0.231-0.296-0.395c0.067-0.254,0.492-0.205,0.482,0.094
				C190.414,92.85,190.363,92.96,190.234,93.015z M190.468,90.224c0,0.32-0.496,0.279-0.496-0.039v-0.097
				c0-0.319,0.496-0.28,0.496,0.038V90.224z M190.73,86.783c0.318,0,0.277,0.496-0.038,0.496
				C190.37,87.279,190.411,86.783,190.73,86.783z M190.543,82.59h-0.095c-0.32,0-0.282-0.494,0.037-0.494h0.098
				C190.903,82.096,190.862,82.59,190.543,82.59z M190.934,80.687c-0.319,0-0.278-0.495,0.037-0.495
				C191.294,80.192,191.253,80.687,190.934,80.687z M191.032,77.025c-0.319,0-0.282-0.496,0.038-0.496
				C191.389,76.529,191.352,77.025,191.032,77.025z M191.324,74.485h-0.098c-0.32,0-0.279-0.494,0.04-0.494h0.099
				C191.685,73.992,191.644,74.485,191.324,74.485z M191.375,72.14h-0.051c-0.319,0-0.278-0.493,0.041-0.493h0.048
				C191.731,71.647,191.694,72.14,191.375,72.14z"/>
			<path fill="#E74D94" d="M101.758,121.407c0.435,0.162,0.981-0.086,0.981-0.591c0-0.417-0.52-0.628-0.883-0.535
				C101.412,120.398,101.31,121.237,101.758,121.407z"/>
			<path fill="#E74D94" d="M159.624,114.938c-0.558,0.292-0.687,1.381,0.18,1.248C160.482,116.083,160.252,114.61,159.624,114.938z"
				/>
			<path fill="#E74D94" d="M90.396,105.646c0.014,0.009,0.031,0.015,0.048,0.024c0.115-0.302,0.245-0.603,0.387-0.897
				c0.038-0.08,0.071-0.165,0.112-0.246c-0.337-0.223-0.673-0.45-1.009-0.666c-0.237,0.415-0.506,0.82-0.754,1.231
				C89.591,105.259,89.999,105.438,90.396,105.646z"/>
		</g>
	</g>
	
		<path fill="none" stroke="#585552" stroke-width="0.5485" stroke-linecap="round" stroke-linejoin="round" stroke-miterlimit="10" d="
		M59.796,76.243l0.184-0.154l4.402-3.767l4.341,3.505l3.838-3.588l3.169,3.422l3.753-3.505l3.338,3.671l5.34-4.004l2.337,3.921
		l2.921-3.921l3.002,3.171l3.006-3.422l2.836,2.919l2.669-3.587l2.334,3.672l4.089-3.337l1.501,3.92c0,0,2.17-4.421,2.418-4.338
		c0.251,0.083,2.422,3.755,2.422,3.755s2.418-3.588,2.754-3.588c0.333,0,2.252,3.004,2.252,3.004l2.836-4.839l2.171,5.005
		c0,0,0.917-5.005,1.083-4.672c0.167,0.334,3.003,4.337,3.003,4.337s2.755-3.838,3.003-3.838c0.251,0,1.505,4.006,1.505,4.006
		s4.589-4.506,4.837-4.506c0.251,0,0.502,4.923,0.835,4.84c0.333-0.084,3.088-5.008,3.088-5.008s1.083,4.339,1.501,4.422
		c0.418,0.083,1.25-4.088,1.587-4.088c0.332,0,2,4.838,2,4.838l3.339-5.005c0,0,0.918,3.921,1.002,3.921
		c0.081,0,2.086-4.422,2.418-4.339c0.334,0.084,1.587,3.838,1.835,3.923c0.251,0.082,1.838-4.422,2.337-4.173
		c0.502,0.25,2.17,4.171,2.503,4.589c0.333,0.416,1.668-4.506,2.001-4.171c0.336,0.333,1.837,5.173,2.089,5.089
		c0.251-0.084,2.67-6.175,3.088-6.008c0.414,0.168,1.749,6.591,1.834,6.341c0.085-0.25,3.254-6.591,3.587-6.425
		c0.336,0.167,1.586,4.339,1.919,4.422c0.333,0.083,4.004-3.42,4.256-3.42c0.251,0,0.5,3.836,0.5,3.836l5.591-4.587l0.332,5.506
		c0,0,4.508-5.591,4.841-5.09c0.332,0.501-4.171,5.506-3.503,5.589c0.666,0.085,5.174,1.085,5.174,1.085L190.37,81l4.171,4.255
		l-4.922,4.339l4.422,5.924c0,0-5.102,4.466-5.01,4.945c0.089,0.478,3.842,4.315,3.842,4.315l-5.089,4.924l3.839,4.337l-4.256,3.339
		l3.92,4.753l-4.671,4.173l3.924,4.089l-4.257,3.421l3.92,5.757l-5.758,4.005l3.924,4.508c0,0-5.006,3.168-4.755,3.254
		c0.251,0.081,4.837,4.503,4.837,4.503l-5.004,4.005l3.084,4.589l-4.922,0.67l2.422,5.173l-6.341,1.668c0,0-0.252,5.506-0.333,5.757
		c-0.085,0.251-7.178-1.168-7.178-1.168l-1.752,2.754l-6.593-2.503l-2.249,2.836l-3.505-5.676c0,0-1.671,3.006-1.671,2.755
		c0-0.252-2.001-6.091-2.001-6.091l-2.086,5.507l-3.672-0.999l-0.835,4.086c0,0-5.673-2.085-5.673-1.838
		c0,0.252-2.588,3.757-2.588,3.757l-5.506-5.339l-3.421,2.252c0,0-1.753-6.09-1.919-5.839c-0.167,0.248-2.751,5.421-2.751,5.421
		s-4.174,0.085-4.256,0.418c-0.085,0.333-1.002,3.254-1.002,3.254l-5.254-1.752l-2.004,3.172c0,0-3.254-3.642-3.461-3.492
		c-0.21,0.153-3.464,2.49-3.464,2.49l-3.03-4.538l-2.728,0.533l-0.418-4.09l-2.503,1.505c0,0-2.585-1.923-2.836-1.923
		c-0.248,0-1.583,6.009-1.834,6.009c-0.251,0-5.006-1.25-5.006-1.25l-2.252,4.338l-5.424-2.585l-2.252,2.418l-2.503-4.004
		l-3.923,3.087c0,0-1.668-4.925-1.919-4.84c-0.248,0.081-3.587,0.333-3.587,0.333l-0.917-5.757l-4.755,0.084l2.588-4.921
		l-4.089-2.84c0,0,2-4.253,1.919-4.087c-0.084,0.167-3.002-1.837-3.002-1.837s3.026-4.918,2.846-5.088
		c-0.176-0.167-4.266-1.671-4.266-1.671l3.505-5.089l-3.587-1.919l3.92-3.502l-4.171-2.256l4.005-2.836l-3.254-3.087l3.505-4.253
		l-3.505-1.919c0,0,4.252-2.839,4.004-2.839c-0.251,0-3.756-6.674-3.756-6.674s3.923-5.84,3.838-5.589
		c-0.082,0.25-3.501-2.836-3.501-2.836l3.501-2.503l-3.668-2.754c0,0,4.086-3.337,3.838-3.337c-0.251,0-4.341-1.584-4.341-1.584
		s5.258-3.755,5.007-3.838c-0.251-0.083-5.088-1.584-5.088-1.584l4.09-3.17l-3.923-1.587l4.256-4.17l-5.091-1.501l3.838-3.755
		l-2.086-4.757L59.796,76.243z"/>
</g>
</svg>
