<?xml version="1.0" encoding="utf-8"?>
<!-- Generator: Adobe Illustrator 16.0.0, SVG Export Plug-In . SVG Version: 6.00 Build 0)  -->
<!DOCTYPE svg PUBLIC "-//W3C//DTD SVG 1.1//EN" "http://www.w3.org/Graphics/SVG/1.1/DTD/svg11.dtd">
<svg version="1.1" id="Capa_1" xmlns="http://www.w3.org/2000/svg" xmlns:xlink="http://www.w3.org/1999/xlink" x="0px" y="0px"
	 width="250px" height="250px" viewBox="0 0 250 250" enable-background="new 0 0 250 250" xml:space="preserve">
<pattern  x="0.5" y="250.5" width="72" height="72" patternUnits="userSpaceOnUse" id="_x36__lpp_20_x25_" viewBox="24 -72 72 72" overflow="visible">
	<g>
		<polygon fill="none" points="24,0 24,-72 96,-72 96,0 		"/>
		<line fill="none" stroke="#1D1D1B" stroke-width="2.4" x1="23.75" y1="-6" x2="96.25" y2="-6"/>
		<line fill="none" stroke="#1D1D1B" stroke-width="2.4" x1="23.75" y1="-30" x2="96.25" y2="-30"/>
		<line fill="none" stroke="#1D1D1B" stroke-width="2.4" x1="23.75" y1="-54" x2="96.25" y2="-54"/>
		<line fill="none" stroke="#1D1D1B" stroke-width="2.4" x1="0" y1="-54" x2="16.5" y2="-54"/>
		<line fill="none" stroke="#1D1D1B" stroke-width="2.4" x1="23.75" y1="-18" x2="96.25" y2="-18"/>
		<line fill="none" stroke="#1D1D1B" stroke-width="2.4" x1="23.75" y1="-42" x2="96.25" y2="-42"/>
		<line fill="none" stroke="#1D1D1B" stroke-width="2.4" x1="23.75" y1="-66" x2="96.25" y2="-66"/>
		<line fill="none" stroke="#1D1D1B" stroke-width="2.4" x1="0" y1="-66" x2="16.5" y2="-66"/>
	</g>
</pattern>
<g>
	<g>
		<path fill="#2A2B20" stroke="#EEB872" stroke-width="2.4836" stroke-miterlimit="10" d="M125.843,187.414
			c27.679,0,50.116-22.44,50.116-50.117v-17.88v-13.089V74.954c0-7.398-5.996-13.398-13.396-13.398h-73.44
			c-7.4,0-13.397,6-13.397,13.398v31.375v13.089v17.88C75.725,164.974,98.162,187.414,125.843,187.414z"/>
		<pattern  id="SVGID_1_" xlink:href="#_x36__lpp_20_x25_" patternTransform="matrix(0.0505 0 0 0.0505 -7648.3418 -7951.5278)">
		</pattern>
		<path opacity="0.7" fill="url(#SVGID_1_)" d="M126.098,185.838c26.986,0,48.861-21.878,48.861-48.861v-17.433v-12.761V76.194
			c0-7.213-5.846-13.062-13.062-13.062h-71.6c-7.215,0-13.062,5.849-13.062,13.062v30.589v12.761v17.433
			C77.235,163.96,99.111,185.838,126.098,185.838z"/>
		<g>
			<g>
				
					<polygon fill="none" stroke="#ECE9E8" stroke-width="0.4813" stroke-linecap="round" stroke-linejoin="round" stroke-miterlimit="10" points="
					122.711,117.608 107.126,102.807 115.754,95.852 125.239,115.074 				"/>
				
					<path fill="none" stroke="#ECE9E8" stroke-width="0.4813" stroke-linecap="round" stroke-linejoin="round" stroke-miterlimit="10" d="
					M110.576,105.645c2.275-2.115,4.55-4.229,6.829-6.346"/>
				
					<path fill="none" stroke="#ECE9E8" stroke-width="0.4826" stroke-linecap="round" stroke-linejoin="round" stroke-miterlimit="10" d="
					M113.335,108.215c1.978-1.633,3.955-3.266,5.931-4.899"/>
				
					<path fill="none" stroke="#ECE9E8" stroke-width="0.4826" stroke-linecap="round" stroke-linejoin="round" stroke-miterlimit="10" d="
					M115.554,110.802c1.69-1.396,3.38-2.792,5.069-4.188"/>
				
					<path fill="none" stroke="#ECE9E8" stroke-width="0.4826" stroke-linecap="round" stroke-linejoin="round" stroke-miterlimit="10" d="
					M118.327,113.233c1.343-1.109,2.688-2.218,4.031-3.327"/>
				
					<path fill="none" stroke="#ECE9E8" stroke-width="0.4826" stroke-linecap="round" stroke-linejoin="round" stroke-miterlimit="10" d="
					M120.752,115.514c1.094-0.902,2.183-1.803,3.273-2.705"/>
				
					<polygon fill="none" stroke="#ECE9E8" stroke-width="0.4813" stroke-linecap="round" stroke-linejoin="round" stroke-miterlimit="10" points="
					127.407,117.503 142.996,132.304 134.368,139.258 124.884,120.038 				"/>
				
					<path fill="none" stroke="#ECE9E8" stroke-width="0.4813" stroke-linecap="round" stroke-linejoin="round" stroke-miterlimit="10" d="
					M139.548,129.467c-2.278,2.113-4.556,4.23-6.829,6.345"/>
				
					<path fill="none" stroke="#ECE9E8" stroke-width="0.4826" stroke-linecap="round" stroke-linejoin="round" stroke-miterlimit="10" d="
					M136.787,126.896c-1.979,1.634-3.954,3.266-5.93,4.899"/>
				
					<path fill="none" stroke="#ECE9E8" stroke-width="0.4826" stroke-linecap="round" stroke-linejoin="round" stroke-miterlimit="10" d="
					M134.567,124.308c-1.689,1.396-3.38,2.792-5.07,4.189"/>
				
					<path fill="none" stroke="#ECE9E8" stroke-width="0.4826" stroke-linecap="round" stroke-linejoin="round" stroke-miterlimit="10" d="
					M131.795,121.876c-1.343,1.109-2.688,2.219-4.031,3.329"/>
				
					<path fill="none" stroke="#ECE9E8" stroke-width="0.4826" stroke-linecap="round" stroke-linejoin="round" stroke-miterlimit="10" d="
					M129.37,119.598c-1.091,0.901-2.181,1.802-3.273,2.703"/>
			</g>
			<g>
				
					<polygon fill="none" stroke="#ECE9E8" stroke-width="0.4813" stroke-linecap="round" stroke-linejoin="round" stroke-miterlimit="10" points="
					124.775,115.542 139.579,99.955 146.533,108.583 127.312,118.067 				"/>
				
					<path fill="none" stroke="#ECE9E8" stroke-width="0.4813" stroke-linecap="round" stroke-linejoin="round" stroke-miterlimit="10" d="
					M136.74,103.405c2.113,2.275,4.229,4.551,6.345,6.827"/>
				
					<path fill="none" stroke="#ECE9E8" stroke-width="0.4826" stroke-linecap="round" stroke-linejoin="round" stroke-miterlimit="10" d="
					M134.17,106.165c1.634,1.975,3.266,3.953,4.9,5.931"/>
				
					<path fill="none" stroke="#ECE9E8" stroke-width="0.4826" stroke-linecap="round" stroke-linejoin="round" stroke-miterlimit="10" d="
					M131.584,108.385c1.395,1.688,2.789,3.377,4.187,5.067"/>
				
					<path fill="none" stroke="#ECE9E8" stroke-width="0.4826" stroke-linecap="round" stroke-linejoin="round" stroke-miterlimit="10" d="
					M129.152,111.157c1.108,1.343,2.219,2.687,3.327,4.03"/>
				
					<path fill="none" stroke="#ECE9E8" stroke-width="0.4826" stroke-linecap="round" stroke-linejoin="round" stroke-miterlimit="10" d="
					M126.87,113.582c0.902,1.091,1.806,2.181,2.706,3.272"/>
				
					<polygon fill="none" stroke="#ECE9E8" stroke-width="0.4813" stroke-linecap="round" stroke-linejoin="round" stroke-miterlimit="10" points="
					124.884,120.236 110.079,135.824 103.125,127.197 122.348,117.712 				"/>
				
					<path fill="none" stroke="#ECE9E8" stroke-width="0.4813" stroke-linecap="round" stroke-linejoin="round" stroke-miterlimit="10" d="
					M112.919,132.375c-2.117-2.276-4.231-4.553-6.343-6.828"/>
				
					<path fill="none" stroke="#ECE9E8" stroke-width="0.4826" stroke-linecap="round" stroke-linejoin="round" stroke-miterlimit="10" d="
					M115.488,129.615c-1.632-1.977-3.265-3.954-4.899-5.932"/>
				
					<path fill="none" stroke="#ECE9E8" stroke-width="0.4826" stroke-linecap="round" stroke-linejoin="round" stroke-miterlimit="10" d="
					M118.076,127.396c-1.395-1.691-2.791-3.378-4.187-5.068"/>
				
					<path fill="none" stroke="#ECE9E8" stroke-width="0.4826" stroke-linecap="round" stroke-linejoin="round" stroke-miterlimit="10" d="
					M120.507,124.624c-1.107-1.345-2.219-2.688-3.326-4.031"/>
				
					<path fill="none" stroke="#ECE9E8" stroke-width="0.4826" stroke-linecap="round" stroke-linejoin="round" stroke-miterlimit="10" d="
					M122.788,122.197c-0.902-1.09-1.804-2.181-2.703-3.273"/>
			</g>
		</g>
		<path fill="#F3E2C5" d="M135.544,141.825c0,0-1.877-1.025-2.047-3.586c-0.172-2.561-0.598-10.495-1.026-12.802
			c-0.226-1.231-0.75-3.703-1.604-5.897c-1.504,0.843-3.142,1.452-4.577,1.851c-2.818,0.78-6.538,1.292-9.526,0.251
			c-0.274,1.302-0.398,2.567-0.335,3.541c0.17,2.646,1.28,15.959-0.937,17.752c0,0-0.512,5.716,0.255,5.971
			c0.767,0.257,8.193,1.709,12.543,1.025c4.354-0.683,7.426-1.535,7.768-2.219C136.396,147.029,135.544,141.825,135.544,141.825z"/>
		<path opacity="0.5" fill="#DCCEB5" d="M129.822,144.4c-2.503-0.044-4.885-0.474-6.665-1.271
			c-6.855-3.068-5.246-14.079-4.749-21.062c-0.631-0.094-1.249-0.223-1.835-0.426c-0.274,1.302-0.396,2.567-0.334,3.541
			c0.168,2.646,1.279,15.959-0.94,17.752c0,0-0.512,5.716,0.254,5.971c0.77,0.257,8.193,1.709,12.548,1.025
			c4.351-0.683,7.422-1.535,7.766-2.219c0.147-0.295,0.069-1.436-0.064-2.635C133.839,145.255,131.763,145.004,129.822,144.4z"/>
		<g>
			
				<path fill="#CA3832" stroke="#CA3832" stroke-width="0.7581" stroke-linecap="round" stroke-linejoin="round" stroke-miterlimit="10" d="
				M119.936,123.081c2.357,0.114,4.745-0.25,6.989-0.971c1.185-0.38,2.548-0.932,3.833-1.659c-0.73-1.792-1.687-3.349-2.893-3.801
				c-2.733-1.024-6.659-1.451-8.536,0.426c-1.132,1.132-2.013,3.316-2.498,5.454C117.834,122.866,118.903,123.029,119.936,123.081z"
				/>
		</g>
		<g>
			
				<path fill="#B72E2E" stroke="#B72E2E" stroke-width="0.7581" stroke-linecap="round" stroke-linejoin="round" stroke-miterlimit="10" d="
				M123.966,115.849c-2.008-0.225-4.015,0.039-5.205,1.226c-1.132,1.132-2.011,3.316-2.498,5.454
				c0.914,0.309,1.887,0.465,2.833,0.531C120.408,120.523,122.016,118.003,123.966,115.849z"/>
		</g>
		<path fill="#2A2B20" d="M126.108,132.003c0,0-0.284,2.273,0,2.273s1.991,0,1.991,0l-0.19-2.654L126.108,132.003z"/>
		
			<path fill="#AE8058" stroke="#CD9C6A" stroke-width="0.7581" stroke-linecap="round" stroke-linejoin="round" stroke-miterlimit="10" d="
			M129.046,152.375c0.119-1.041-0.071-2.356-0.11-3.489c-0.886-0.328-2.171,0.132-3.098,0.284c-0.171,1.078-0.192,2.341-0.014,3.395
			"/>
		
			<path fill="#39AE72" stroke="#39AE72" stroke-width="0.5038" stroke-linecap="round" stroke-linejoin="round" stroke-miterlimit="10" d="
			M134.827,139.487c0.385-0.796,0.651-1.418,1.536-1.729c0.861-0.303,2.043-0.14,1.876,0.985c-0.002,0.069-0.002,0.069-0.005,0
			c0.687-1.477,3.21-1.24,2.863,0.644c0.745-0.465,3.325-0.742,2.735,0.751c0.341-0.134,0.812,0.021,1.146-0.061
			c0.125,0.736-0.105,1.406-0.19,2.141c1.616,0.222,0.41,1.917-0.292,2.589c0.972,0.832-0.263,0.976-0.473,1.618
			c-0.217,0.672,0.735,1.966-1.031,1.7c0.24,1.474-2.505,1.308-3.451,1.815c-1.096,0.589-0.785,1.107-2.094,0.256
			c-0.521-0.343-0.975-0.307-1.022-1.126c-1.257,0.011-0.894-1.984-0.724-2.851c-0.464,0.878-0.979-0.905-0.573-1.621
			c-0.783-0.444-0.907-1.747-0.304-2.439C133.5,142.135,134.113,139.84,134.827,139.487"/>
		
			<path fill="#39AE72" stroke="#39AE72" stroke-width="0.5038" stroke-linecap="round" stroke-linejoin="round" stroke-miterlimit="10" d="
			M115.583,146.238c0.484,0.215,1.104-1.504,0.535-2.394c0.06,0.093,0.19-2.143-0.767-1.905c-0.732-0.554-1.808-0.92-2.713-0.667
			c-0.471,0.134-1.244,0.642-1.388,1.106c-0.699-0.652-1.807,0.521-1.832,1.528c-1.148-0.589-3.858,0.788-2.457,1.535
			c-1.231-0.624-1.297,1.483-0.476,2.169c-2.53,1.067,0.521,4.142,1.254,2.132c-0.505,1.164,1.692,1.66,2.163,0.77
			c0.517,0.481,1.291,0.664,1.92,0.358c1.076,0.634,2.603-0.036,2.745-1.31c0.162,0.31,0.603,0.796,0.991,0.561
			c1.041-0.634,0.358-1.153,0.276-1.909C115.782,147.739,115.873,146.845,115.583,146.238z"/>
		
			<path fill="#39AE72" stroke="#39AE72" stroke-width="0.5038" stroke-linecap="round" stroke-linejoin="round" stroke-miterlimit="10" d="
			M150.28,146.105c0.752-0.751,0.225-1.694-0.839-1.612c0.474-1.409-1.265-1.2-2.101-1.042c1.337-0.253-0.729-1.607-1.28-1.636
			c-1.302-0.065-2.108,0.749-2.926,1.551c-0.443,0.436-1.026,0.938-1.411,1.423c-0.224,0.28-0.521,1.4-0.646,1.767
			c-2.037,1.147,1.365,4.703,3.305,2.983c0.626,1.159,2.196,0.191,2.569-0.785C149.848,151.421,151.729,146.371,150.28,146.105z"/>
		
			<path fill="#39AE72" stroke="#39AE72" stroke-width="0.5038" stroke-linecap="round" stroke-linejoin="round" stroke-miterlimit="10" d="
			M155.019,148.947c0.75-0.751,0.227-1.694-0.839-1.61c0.476-1.412-1.266-1.202-2.099-1.044c1.335-0.252-0.73-1.607-1.282-1.635
			c-1.304-0.064-2.109,0.748-2.926,1.55c-0.442,0.436-1.026,0.941-1.413,1.424c-0.221,0.281-0.521,1.4-0.646,1.766
			c-2.035,1.147,1.366,4.705,3.305,2.986c0.626,1.155,2.197,0.19,2.57-0.788C154.584,154.263,156.466,149.215,155.019,148.947z"/>
		
			<path fill="#39AE72" stroke="#39AE72" stroke-width="0.7929" stroke-linecap="round" stroke-linejoin="round" stroke-miterlimit="10" d="
			M161.42,149.705c1.183-1.183,0.354-2.666-1.322-2.536c0.745-2.217-1.991-1.889-3.301-1.641c2.1-0.399-1.152-2.53-2.021-2.575
			c-2.049-0.101-3.321,1.18-4.605,2.442c-0.697,0.685-1.615,1.477-2.22,2.24c-0.353,0.44-0.821,2.202-1.02,2.779
			c-3.202,1.806,2.149,7.405,5.201,4.696c0.987,1.822,3.459,0.301,4.048-1.237C160.733,158.073,163.698,150.127,161.42,149.705z"/>
		
			<path fill="#39AE72" stroke="#39AE72" stroke-width="0.7929" stroke-linecap="round" stroke-linejoin="round" stroke-miterlimit="10" d="
			M106.269,150.084c1.183-1.183,0.355-2.665-1.32-2.535c0.747-2.219-1.991-1.89-3.303-1.642c2.102-0.397-1.15-2.53-2.018-2.574
			c-2.052-0.102-3.321,1.179-4.608,2.44c-0.697,0.686-1.614,1.479-2.221,2.241c-0.35,0.441-0.819,2.202-1.016,2.778
			c-3.205,1.809,2.15,7.404,5.201,4.697c0.985,1.823,3.458,0.301,4.045-1.238C105.586,158.45,108.547,150.507,106.269,150.084z"/>
		
			<path fill="#39AE72" stroke="#39AE72" stroke-width="0.5038" stroke-linecap="round" stroke-linejoin="round" stroke-miterlimit="10" d="
			M141.373,148.756c0.752-0.75,0.225-1.692-0.839-1.61c0.476-1.408-1.266-1.2-2.099-1.04c1.335-0.255-0.73-1.61-1.282-1.638
			c-1.304-0.065-2.109,0.749-2.928,1.552c-0.441,0.436-1.024,0.938-1.411,1.423c-0.221,0.28-0.519,1.399-0.646,1.767
			c-2.036,1.147,1.366,4.703,3.305,2.984c0.626,1.157,2.197,0.19,2.57-0.785C140.938,154.073,142.822,149.025,141.373,148.756z"/>
		
			<path fill="#39AE72" stroke="#39AE72" stroke-width="0.5038" stroke-linecap="round" stroke-linejoin="round" stroke-miterlimit="10" d="
			M113.894,152.547c0.75-0.751,0.225-1.694-0.841-1.61c0.474-1.41-1.262-1.2-2.097-1.042c1.335-0.255-0.73-1.608-1.284-1.636
			c-1.3-0.063-2.108,0.749-2.926,1.55c-0.442,0.437-1.026,0.94-1.411,1.425c-0.223,0.28-0.521,1.397-0.646,1.765
			c-2.036,1.149,1.366,4.706,3.304,2.984c0.626,1.158,2.199,0.192,2.569-0.785C113.459,157.864,115.341,152.816,113.894,152.547z"/>
		
			<path fill="#39AE72" stroke="#39AE72" stroke-width="0.5038" stroke-linecap="round" stroke-linejoin="round" stroke-miterlimit="10" d="
			M108.398,150.084c0.75-0.751,0.225-1.694-0.841-1.61c0.474-1.41-1.264-1.202-2.1-1.044c1.337-0.253-0.73-1.607-1.28-1.635
			c-1.302-0.064-2.11,0.748-2.926,1.55c-0.443,0.437-1.024,0.941-1.411,1.426c-0.223,0.279-0.52,1.397-0.647,1.764
			c-2.036,1.149,1.366,4.705,3.306,2.986c0.625,1.157,2.197,0.19,2.569-0.788C107.962,155.401,109.846,150.353,108.398,150.084z"/>
		
			<path fill="#39AE72" stroke="#39AE72" stroke-width="0.5038" stroke-linecap="round" stroke-linejoin="round" stroke-miterlimit="10" d="
			M146.87,151.601c0.75-0.752,0.225-1.693-0.839-1.611c0.472-1.41-1.266-1.2-2.099-1.042c1.333-0.253-0.733-1.608-1.284-1.636
			c-1.302-0.064-2.109,0.748-2.926,1.551c-0.441,0.435-1.024,0.938-1.411,1.422c-0.223,0.282-0.521,1.4-0.647,1.768
			c-2.035,1.147,1.366,4.705,3.306,2.983c0.625,1.158,2.199,0.191,2.569-0.785C146.434,156.917,148.317,151.869,146.87,151.601z"/>
		
			<path fill="#39AE72" stroke="#39AE72" stroke-width="0.5038" stroke-linecap="round" stroke-linejoin="round" stroke-miterlimit="10" d="
			M140.803,152.547c0.754-0.751,0.227-1.694-0.837-1.61c0.474-1.41-1.265-1.2-2.099-1.042c1.335-0.255-0.73-1.608-1.282-1.636
			c-1.304-0.063-2.109,0.749-2.926,1.55c-0.443,0.437-1.026,0.94-1.413,1.425c-0.221,0.28-0.519,1.397-0.644,1.765
			c-2.036,1.149,1.364,4.706,3.303,2.984c0.626,1.158,2.197,0.192,2.57-0.785C140.374,157.864,142.252,152.816,140.803,152.547z"/>
		
			<path fill="#39AE72" stroke="#39AE72" stroke-width="0.6657" stroke-linecap="round" stroke-linejoin="round" stroke-miterlimit="10" d="
			M129.547,150.516c-0.991-0.992-0.296-2.238,1.108-2.126c-0.626-1.865,1.674-1.589,2.774-1.379
			c-1.765-0.337,0.966-2.126,1.695-2.162c1.72-0.084,2.788,0.989,3.866,2.049c0.583,0.575,1.356,1.241,1.865,1.881
			c0.292,0.371,0.687,1.849,0.853,2.335c2.689,1.516-1.805,6.215-4.365,3.943c-0.828,1.528-2.905,0.25-3.397-1.041
			C130.122,157.541,127.634,150.871,129.547,150.516z"/>
		<g>
			<g>
				<path fill="#FFFFFF" d="M129.031,155.874c0-0.198,0.793-7.205,0.464-7.603c-0.33-0.396-4.495-5.552-4.495-5.552l-4.362,5.949
					c0,0-0.2,7.404,0.196,7.535C121.231,156.338,129.031,155.874,129.031,155.874z"/>
			</g>
			<path fill="#CC9C6A" d="M120.536,149.462c-0.198,0.066-9.584-0.33-9.584,0.066c0,0.397,0,6.545,0,6.545s9.718,0.397,9.781-0.067
				C120.8,155.544,120.536,149.462,120.536,149.462z"/>
			<path fill="#CA3832" d="M125.086,143.135l-4.666,6.452c0,0-9.865-0.292-9.735-0.556c0.132-0.267,3.825-5.763,4.616-5.697
				C116.096,143.398,124.754,142.804,125.086,143.135z"/>
		</g>
		<path opacity="0.2" fill="#DCCEB5" d="M130.844,123.244c0,0,3.032,19.521,2.464,20.09c-0.57,0.568-2.464-0.38-2.464-0.38
			l-1.328-19.52L130.844,123.244z"/>
		
			<path fill="#FFFFFF" stroke="#FFFFFF" stroke-width="0.4723" stroke-linecap="round" stroke-linejoin="round" stroke-miterlimit="10" stroke-dasharray="2.7846" d="
			M154.528,83.884c-0.73-0.729-4.767-2.972-5.158-2.691c-0.396,0.279-3.928,7.457-4.038,7.568c-0.112,0.113-0.673-0.448-0.673-0.448
			s3.027-8.074,2.634-8.188c-0.39-0.111-1.736-0.952-1.961-0.615c-0.223,0.336-1.907,5.495-1.907,5.495s-1.063-6.449-1.063-6.954
			s-1.851-0.168-1.851-0.168s-2.635,9.476-3.026,9.308c-0.396-0.167-0.675-0.392-0.675-0.392s-1.234-10.205-1.963-10.261
			c-0.729-0.055-1.737,0.056-1.737,0.056s-3.893,8.475-4.15,8.691c-1.066,0.897-0.729-1.346-0.673-1.401
			c0.056-0.057-3.643,0.055-3.643,0.055s0.165-7.513-0.337-7.738c-0.504-0.224-1.626-0.056-1.626-0.056l-0.056,8.859l-0.953,0.28
			l-0.279-1.29c0,0-3.982,0.449-4.208,0.393c-0.223-0.056-0.335-7.737-0.335-7.737l-1.961,0.279l0.446,6.561l-0.783,0.336
			c0,0-0.577-1.807-1.067-2.915c-0.839-1.907-3.027-2.636-3.87-2.524c-0.839,0.113-3.755,1.233-3.866,2.634
			c-0.112,1.403,0.616,6.169,2.244,6.954l-1.346,1.401c0,0-3.478-8.466-3.928-8.298c-0.446,0.168-1.401,0.729-1.345,1.01
			c0.056,0.28,1.571,3.587,1.236,3.756c-0.337,0.169-2.3,1.346-2.3,1.346l-0.168-0.504c0,0-1.291-3.477-1.627-3.195
			c-0.335,0.28-1.794,0.504-1.571,1.289c0.227,0.787,3.479,8.188,3.759,8.301c0.281,0.11,1.627-0.786,1.627-0.786
			s0.56,0.336-0.393-1.739c0,0-1.008-1.57-0.674-1.795c0.337-0.224,2.075-1.288,2.244-1.009c0.168,0.28,1.403,3.309,1.851,3.139
			c0.449-0.167,1.569-0.896,1.569-0.896l1.459-1.626c0,0,2.186,0.336,3.699-0.337c1.514-0.673,2.353-3.307,2.635-3.531
			c0.279-0.225,0.561-0.506,0.561-0.506s0.056,2.467,0.562,2.411c0.505-0.055,4.991-0.393,5.609-0.448
			c0.616-0.056,1.119-0.392,1.119-0.392s4.624,0,5.551,0c0,0-0.112,0.56,0.225,0.56c0.336,0,2.132,0.112,2.132,0.112
			s1.008-1.29,1.402-1.29c0.391,0,2.804,0.392,2.804,0.392s-0.337,1.85,0.055,1.963c0.394,0.112,4.542,1.57,4.767,1.457
			c0.224-0.111,1.85-5.719,1.85-5.719s0.674,6.224,1.065,6.394c0.393,0.167,1.627,0.561,1.627,0.561l0.504-0.842l0.504,0.281
			c0,0-0.562,0.896-0.28,1.008c0.28,0.112,5.047,2.467,6.505,2.019c1.458-0.449,2.188-2.58,2.916-4.149
			C154.92,86.743,155.257,84.612,154.528,83.884z M112.643,85.341c-0.281,0.954-1.403,1.626-2.524,1.626
			c-1.122,0-2.074-2.748-2.354-3.812c-0.279-1.065,0.504-1.962,0.504-1.962c-0.056-0.281,1.515-1.291,2.356-0.73
			S112.922,84.388,112.643,85.341z M132.1,83.659c-0.589-0.16,1.356-2.95,1.55-3.225c-0.014-0.018-0.03-0.029-0.048-0.04
			l-0.214-0.045c0.078-0.034,0.147-0.012,0.214,0.045l0.067,0.012c0,0-0.01,0.012-0.02,0.028c0.521,0.603,0.693,3.729,0.693,3.729
			S132.718,83.827,132.1,83.659z M150.548,90.443c-0.836,0.557-2.173-0.115-2.605-0.363c-0.091-0.052-0.144-0.084-0.144-0.084
			c-0.673-0.73,2.749-6.616,2.749-6.616c0.504-0.169,2.634,1.289,2.634,2.074S151.554,89.77,150.548,90.443z"/>
		
			<path fill="#2A2B20" stroke="#2A2B20" stroke-width="0.379" stroke-linecap="round" stroke-linejoin="round" stroke-miterlimit="10" d="
			M155.795,157.673c0.936-3.614-0.064-7.505-3.774-8.825c2.461,1.831,4.163,5.187,4.085,8.301c0.546-3.069,0.145-6.051,1.711-8.608
			c-1.702,3.901,0.194,5.876-3.455,7.779c-3.484,1.817-7.84,1.067-11.413,0.054c-0.118-3.302-2-6.481-4.787-7.973
			c2.739,1.387,5.569,4.413,5.268,7.681c-0.958-2.27-1.249-5.252,0.012-7.431c-1.552,9.166-2.776,9.629-12.207,10.76
			c-8.035,0.964-17.508,0.308-25.437-1.275c1.168-2.992,0.241-6.254-2.804-7.951c1.667,1.836,4.7,4.471,3.073,6.932
			c-0.155-3.366-0.094-5.466,2.51-7.707c-1.113,2.676-1.806,5.333-1.839,8.227c-4.203,0.522-8.269-3.214-12.292-0.473
			c0.19-2.476-0.286-4.67-2.11-6.467c2.278,1.688,3.767,4.28,2.817,6.762c-0.241-2.146,0.247-4.417,1.732-5.888
			c0.043,1.54,0.171,3.268-0.217,4.589"/>
		<g>
			<path fill="#D65251" d="M110.761,155.299c-2.795-0.63,1.158-3.982,3.048-2.102C114.95,154.331,112.225,155.631,110.761,155.299z"
				/>
			
				<path fill="#39AE72" stroke="#39AE72" stroke-width="0.1661" stroke-linecap="round" stroke-linejoin="round" stroke-miterlimit="10" d="
				M115.179,161.825c-0.314,0.937-1.908,1.915-2.122,2.65c-0.228-1.979-0.516-3.781-0.629-3.839
				c-0.25-0.124-0.874-0.124-0.874-0.124s1.249,6.499,0.874,9.248c0,0,0.314,0.377,0.814-0.124c0.185-0.186,0.154-1.479,0.026-3.031
				c0.159-1.655-0.026-0.608,1.035-1.594C116.99,162.511,115.384,161.205,115.179,161.825z"/>
			<path fill="#B22928" d="M114.576,158.147c-0.562-1.037-5.082-8.938-6.343-2.562c-1.262,6.376,3.767,5.78,3.767,5.78
				C114.991,161.103,115.14,159.185,114.576,158.147z"/>
			<path fill="#CA3832" d="M111.615,155.45c0.177-0.109,1.066-2.687,3.235-2.987c1.201-0.166,1.991,7.802-1.92,8.794
				C109.02,162.25,111.615,155.45,111.615,155.45z"/>
			<path fill="#D65251" d="M100.527,155.299c-2.795-0.63,1.16-3.982,3.05-2.102C104.717,154.331,101.991,155.631,100.527,155.299z"
				/>
			
				<path fill="#39AE72" stroke="#39AE72" stroke-width="0.1661" stroke-linecap="round" stroke-linejoin="round" stroke-miterlimit="10" d="
				M104.944,161.825c-0.311,0.937-1.905,1.915-2.12,2.65c-0.228-1.979-0.515-3.781-0.631-3.839
				c-0.248-0.124-0.874-0.124-0.874-0.124s1.25,6.499,0.874,9.248c0,0,0.315,0.377,0.814-0.124c0.185-0.186,0.155-1.479,0.03-3.031
				c0.155-1.655-0.028-0.608,1.031-1.594C106.758,162.511,105.148,161.205,104.944,161.825z"/>
			<path fill="#B22928" d="M104.344,158.147c-0.563-1.037-5.085-8.938-6.344-2.562c-1.261,6.376,3.765,5.78,3.765,5.78
				C104.754,161.103,104.906,159.185,104.344,158.147z"/>
			<path fill="#CA3832" d="M101.38,155.45c0.177-0.109,1.067-2.687,3.233-2.987c1.205-0.166,1.993,7.802-1.915,8.794
				C98.786,162.25,101.38,155.45,101.38,155.45z"/>
			<path fill="#D65251" d="M119.86,155.299c-2.795-0.63,1.158-3.982,3.048-2.102C124.046,154.331,121.32,155.631,119.86,155.299z"/>
			
				<path fill="#39AE72" stroke="#39AE72" stroke-width="0.1661" stroke-linecap="round" stroke-linejoin="round" stroke-miterlimit="10" d="
				M124.276,161.825c-0.312,0.937-1.909,1.915-2.123,2.65c-0.227-1.979-0.514-3.781-0.631-3.839
				c-0.246-0.124-0.869-0.124-0.869-0.124s1.246,6.499,0.869,9.248c0,0,0.315,0.377,0.816-0.124
				c0.187-0.186,0.155-1.479,0.028-3.031c0.159-1.655-0.023-0.608,1.033-1.594C126.087,162.511,124.479,161.205,124.276,161.825z"/>
			<path fill="#B22928" d="M123.673,158.147c-0.56-1.037-5.084-8.938-6.345-2.562c-1.259,6.376,3.769,5.78,3.769,5.78
				C124.086,161.103,124.236,159.185,123.673,158.147z"/>
			<path fill="#CA3832" d="M120.711,155.45c0.177-0.109,1.069-2.687,3.236-2.987c1.2-0.166,1.989,7.802-1.92,8.794
				C118.119,162.25,120.711,155.45,120.711,155.45z"/>
			<path fill="#D65251" d="M128.387,155.299c-2.795-0.63,1.158-3.982,3.049-2.102C132.577,154.331,129.851,155.631,128.387,155.299z
				"/>
			
				<path fill="#39AE72" stroke="#39AE72" stroke-width="0.1661" stroke-linecap="round" stroke-linejoin="round" stroke-miterlimit="10" d="
				M132.804,161.825c-0.312,0.937-1.907,1.915-2.12,2.65c-0.229-1.979-0.516-3.781-0.631-3.839
				c-0.252-0.124-0.874-0.124-0.874-0.124s1.25,6.499,0.874,9.248c0,0,0.315,0.377,0.814-0.124c0.185-0.186,0.153-1.479,0.027-3.031
				c0.157-1.655-0.027-0.608,1.033-1.594C134.617,162.511,133.008,161.205,132.804,161.825z"/>
			<path fill="#B22928" d="M132.203,158.147c-0.563-1.037-5.085-8.938-6.344-2.562c-1.261,6.376,3.765,5.78,3.765,5.78
				C132.613,161.103,132.764,159.185,132.203,158.147z"/>
			<path fill="#CA3832" d="M129.239,155.45c0.177-0.109,1.067-2.687,3.233-2.987c1.205-0.166,1.993,7.802-1.918,8.794
				C126.646,162.25,129.239,155.45,129.239,155.45z"/>
			<path fill="#D65251" d="M137.671,155.299c-2.792-0.63,1.161-3.982,3.052-2.102C141.862,154.331,139.136,155.631,137.671,155.299z
				"/>
			
				<path fill="#39AE72" stroke="#39AE72" stroke-width="0.1661" stroke-linecap="round" stroke-linejoin="round" stroke-miterlimit="10" d="
				M142.09,161.825c-0.312,0.937-1.908,1.915-2.121,2.65c-0.228-1.979-0.514-3.781-0.629-3.839
				c-0.248-0.124-0.874-0.124-0.874-0.124s1.247,6.499,0.874,9.248c0,0,0.313,0.377,0.811-0.124c0.188-0.186,0.157-1.479,0.03-3.031
				c0.158-1.655-0.026-0.608,1.035-1.594C143.901,162.511,142.294,161.205,142.09,161.825z"/>
			<path fill="#B22928" d="M141.489,158.147c-0.563-1.037-5.086-8.938-6.345-2.562c-1.261,6.376,3.767,5.78,3.767,5.78
				C141.902,161.103,142.051,159.185,141.489,158.147z"/>
			<path fill="#CA3832" d="M138.528,155.45c0.175-0.109,1.065-2.687,3.233-2.987c1.201-0.166,1.992,7.802-1.92,8.794
				C135.933,162.25,138.528,155.45,138.528,155.45z"/>
			<path fill="#D65251" d="M146.578,155.299c-2.793-0.63,1.163-3.982,3.051-2.102C150.768,154.331,148.043,155.631,146.578,155.299z
				"/>
			
				<path fill="#39AE72" stroke="#39AE72" stroke-width="0.1661" stroke-linecap="round" stroke-linejoin="round" stroke-miterlimit="10" d="
				M150.049,161.825c-0.312,0.937-1.906,1.915-2.119,2.65c-0.23-1.979-0.515-3.781-0.63-3.839c-0.25-0.124-0.876-0.124-0.876-0.124
				s1.251,6.499,0.876,9.248c0,0,0.313,0.377,0.812-0.124c0.189-0.186,0.156-1.479,0.029-3.031c0.16-1.655-0.026-0.608,1.034-1.594
				C151.861,162.511,150.256,161.205,150.049,161.825z"/>
			<path fill="#B22928" d="M150.396,158.147c-0.562-1.037-5.083-8.938-6.344-2.562s3.769,5.78,3.769,5.78
				C150.809,161.103,150.959,159.185,150.396,158.147z"/>
			<path fill="#CA3832" d="M147.434,155.45c0.175-0.109,1.065-2.687,3.236-2.987c1.2-0.166,1.989,7.802-1.92,8.794
				C144.838,162.25,147.434,155.45,147.434,155.45z"/>
		</g>
	</g>
	
		<path fill="none" stroke="#39AE72" stroke-width="0.8459" stroke-linecap="round" stroke-linejoin="round" stroke-miterlimit="10" d="
		M161.639,153.745c-0.107,0.508-0.6,0.913-1.098,1.114c0.235-0.893,0.902-1.884,1.594-2.455c-0.366,0.838-1.192,1.538-1.807,2.238
		c0.582-0.782,1.193-1.512,1.844-2.231c-0.578,0.643-1.187,1.256-1.744,1.916c0.539-0.735,1.167-1.498,1.544-2.314
		c-0.93,0.816-1.795,1.766-2.544,2.752c0.922-1.3,1.944-2.595,2.914-3.802c-1.097,0.962-2.269,2.48-2.814,3.814
		c1.032-1.004,2.49-2.617,2.821-4.03c-1.379,0.758-2.253,2.42-3.181,3.659c0.59-1.236,1.482-2.371,2.191-3.559
		c-1.208,1.132-2.206,2.549-3.116,3.927c1.088-1.649,3.186-3.688,3.489-5.661c-1.492,1.11-3.448,3.707-3.908,5.512
		c1.027-1.483,2.438-3.281,2.884-5.017c-1.396,1.191-2.734,3.371-3.265,5.106c1.309-1.813,2.706-4.107,3.356-6.247
		c-1.179,1.043-2.055,2.902-2.623,4.384c0.787-1.337,1.557-2.685,2.327-4.03c-1.001,1.445-1.943,2.927-2.926,4.384
		c1.117-1.728,2.028-3.555,3.264-5.205c-1.187,1.145-2.331,2.56-3.126,4.007c1.246-1.581,2.297-3.295,3.458-4.935
		c-1.391,0.497-2.875,2.861-3.551,4.213c1.026-0.728,2.344-3.003,2.687-4.184c-0.741,0.866-1.302,1.921-1.925,2.878
		c0.9-1.075,1.802-2.339,2.33-3.636c-0.986,0.492-1.609,1.853-2.309,2.676c0.488-0.668,1.08-1.424,1.303-2.211
		c-0.504,0.515-0.972,1.34-1.482,1.828c0.487-0.737,1.07-1.481,1.24-2.354c-0.604,0.277-1.039,1.195-1.453,1.784
		c0.402-0.569,0.801-1.126,1.08-1.767c-0.669,0.438-1.099,1.295-1.641,1.893c0.376-0.693,0.943-1.316,1.129-2.034
		c-1.13,1.147-1.764,2.55-2.545,3.925c0.879-1.654,1.667-3.288,2.329-5.037c-0.794,1.482-1.359,3.075-2.071,4.596
		c0.224-1.278,0.679-2.652,1.242-3.827c-0.393,1.714-1.716,3.676-2.779,5.089c0.976-2.292,1.709-4.604,2.892-6.822
		c-0.889,1.701-1.836,3.391-2.646,5.127c0.61-1.359,1.049-2.797,1.801-4.09c-0.752,1.335-1.743,2.52-2.535,3.829
		c1.001-1.459,1.66-3.056,2.48-4.608c-0.823,1.455-1.932,2.798-2.53,4.372c0.991-1.318,1.66-3.045,2.385-4.54
		c-1.185,1.593-2.169,3.291-3.168,5.001c0.988-1.805,1.875-3.674,2.789-5.517c-1.265,1.622-2.244,3.391-3.248,5.18
		c0.634-1.717,1.466-3.486,2.41-5.062c-1.212,1.346-2.076,2.936-2.912,4.535c0.943-1.775,1.831-3.591,2.711-5.398
		c-1.193,1.925-2.458,3.833-3.26,5.966c0.967-1.521,1.652-3.374,2.285-5.048c-1.373,1.383-2.071,3.482-2.867,5.222
		c0.495-1.897,1.43-3.697,2.231-5.479c-1.334,1.668-1.862,3.937-3.181,5.608c0.576-1.666,1.259-3.309,1.88-4.964
		c-0.641,2.078-1.669,4.473-2.693,6.459c0.476-1.485,1.194-4.456,2.517-5.391c-0.438,2.018-1.591,3.825-2.144,5.807
		c0.558-0.902,0.869-1.91,1.319-2.858c-0.29,0.989-1.11,2.313-0.96,3.306c0.654-0.939,1.201-1.957,1.897-2.867
		c-0.436,1.13-1.134,2.354-1.119,3.593c0.482-0.532,0.799-1.26,1.145-1.905c-0.291,0.906-0.798,1.737-1.036,2.659
		c0.511-0.586,0.877-1.292,1.342-1.908c-0.37,1.082-0.926,2.129-0.97,3.281c0.93-0.597,1.514-1.796,2.179-2.663
		c-0.612,0.996-1.309,2.009-1.658,3.12c0.519-0.503,0.878-1.202,1.362-1.776c-0.425,1.262-1.137,2.413-1.538,3.693
		c1.144-0.569,2.041-2.411,2.907-3.437c-0.505,0.97-1.185,1.91-1.81,2.801c0.441-0.915,0.968-1.91,1.004-2.934
		c-0.771-0.08-1.276,0.866-1.82,1.223c0.191-0.885,0.762-2.421,0.37-3.215c-0.554,0.309-0.931,0.856-1.304,1.352
		c0.157-0.526,0.316-1.111,0.279-1.579c-0.391,0.317-0.719,0.761-1.021,1.126c0.375-1.158,1.115-2.299,1.217-3.455
		c-0.75,0.596-1.199,1.506-1.79,2.248c0.495-1.416,1.226-2.828,1.141-4.378c-1.297,1.482-1.824,3.669-2.854,5.347
		c0.486-2.738,1.534-5.33,2.701-7.836c-1.343,2.468-2.651,4.958-3.805,7.519c0.753-2.246,1.442-4.965,2.871-6.891
		c-1.186,1.997-2.394,4.027-3.461,6.088c1.13-2.199,1.943-4.506,3.376-6.547c-1.847,2.179-3.535,4.564-5.122,6.938
		c1.453-2.404,2.343-5.207,3.678-7.694c-1.291,1.975-3.744,4.958-3.983,7.307c1.691-1.986,2.043-5.138,3.132-7.469
		c-1.006,1.708-1.856,4.173-3.476,5.375c0.041-1.228,0.986-5.048,2.203-5.592c-0.815,1.98-2.099,4.226-3.586,5.801
		c0.566-2.515,2.177-4.71,3.263-7.02c-1.672,1.845-3.069,3.97-4.493,6.007c0.756-1.669,1.745-3.255,2.646-4.851
		c-1.036,1.794-2.226,3.494-3.264,5.287c1.001-2.094,1.978-4.179,3.226-6.146c-1.362,1.897-2.717,3.943-3.728,6.056
		c1.062-2.021,2.001-4.14,2.706-6.311c-1.454,1.477-2.314,4.07-4.098,5.296c0.078-2.024,1.92-5.317,3.045-7.025
		c-0.918,2.444-3.02,5.927-4.903,7.686c1.201-2.881,2.706-5.965,4.447-8.577c-1.138,2.237-2.971,5.192-4.876,6.876
		c0.002-1.959,3.031-5.535,4.402-7.1c-1.831,2.922-4.155,5.613-6.278,8.327c1.223-2.912,3.114-5.674,4.773-8.365
		c-1.883,1.89-3.228,4.378-4.83,6.504c1.371-2.198,2.481-4.525,3.725-6.793c-1.42,1.352-2.464,3.129-3.978,4.389
		c0.838-1.542,1.871-3.124,2.847-4.555c-0.812,1.297-1.981,2.805-3.215,3.738c0.729-1.187,1.87-2.354,2.243-3.707
		c-1.05,0.725-1.751,2.014-2.816,2.798c0.654-1.188,1.803-2.104,2.506-3.27c-0.417,0.756-1.222,1.571-1.377,2.358
		c0.823-0.505,1.512-1.306,2.4-1.656c-0.22,1.05-0.917,2.071-1.544,2.937c0.339-0.351,0.729-0.762,1.109-0.956
		c-0.22,0.85-0.948,1.688-1.404,2.439c0.655-0.777,1.658-2.032,2.702-2.033c-0.373,1.679-2.238,3.782-3.419,5.025
		c0.54-0.687,1.134-1.326,1.772-1.923c-0.968,1.286-1.999,2.547-3.038,3.776c0.836-1.115,1.588-2.274,2.36-3.433
		c-1.149,1.483-2.371,2.916-3.521,4.4c0.715-0.878,1.67-1.892,2.006-2.988c-1.327,0.438-2.396,2.387-3.417,3.332
		c0.545-0.716,1.029-1.473,1.497-2.239c-0.549,0.971-1.157,1.911-1.867,2.772c0.441-1.114,1.284-2.062,1.805-3.147
		c-0.847,0.538-1.291,1.501-2.041,2.15c0.079-0.089,0.2-0.212,0.276-0.297c-0.145,0.535-0.417,1.05-0.704,1.536
		c0.672-0.814,1.558-1.926,2.496-2.376c-0.525,1.29-1.438,2.433-1.956,3.719c1.345-1.336,2.467-2.918,3.854-4.223
		c-0.85,1.424-2.264,2.825-3.202,4.317c1.161-1.48,2.348-3.267,3.96-4.294c-0.678,1.471-2.125,2.608-3.019,3.97
		c1.473-1.302,2.602-3.077,4.04-4.449c-0.563,1.728-2.416,2.936-3.296,4.544c1.423-1.332,2.398-3.078,3.806-4.421
		c-0.889,1.927-3.078,3.523-3.644,5.477c1.778-1.291,2.692-3.711,4.346-5.08c-0.693,1.98-2.4,3.476-3.286,5.356
		c1.026-1.153,1.898-3.408,3.238-4.03c-0.665,2.298-2.426,4.072-3.482,6.164c1.126-1.954,2.1-4.067,3.745-5.659
		c-0.647,2.276-2.422,4.11-3.213,6.339c0.793-0.911,1.244-2.646,2.343-3.271c-0.251,1.534-1.302,3.018-1.901,4.463
		c0.831-1.596,1.35-3.374,1.806-5.103c-0.922,1.193-1.666,2.578-2.216,3.981c1.114-1.985,2.106-4.938,3.986-6.326
		c-0.639,1.371-1.698,2.756-2.723,3.871c0.784-1.201,2-3.207,3.253-3.891c-0.654,1.342-1.622,2.532-2.418,3.794
		c0.892-1.121,1.828-2.241,2.848-3.245c-0.54,1.255-1.609,2.47-2.49,3.552c0.983-1.176,2.018-2.453,3.213-3.404
		c-0.658,0.854-1.358,1.677-2.094,2.465c0.778-0.803,1.61-1.802,2.588-2.343c-0.247,0.722-0.89,1.385-1.334,2.028
		c0.692-0.394,1.232-1.08,1.845-1.604c-0.089,0.675-0.613,1.281-1.102,1.742c0.374-0.517,0.787-1.014,1.428-1.073"/>
	
		<path fill="none" stroke="#39AE72" stroke-width="0.8459" stroke-linecap="round" stroke-linejoin="round" stroke-miterlimit="10" d="
		M110.432,151.129c-0.421,0.549-0.791,1.137-1.104,1.754c0.255-0.508,0.019-0.665-0.005-1.147"/>
	
		<path fill="none" stroke="#39AE72" stroke-width="0.8459" stroke-linecap="round" stroke-linejoin="round" stroke-miterlimit="10" d="
		M109.617,151.087c-0.329,0.574-0.62,1.171-0.873,1.783c0.51-0.489,0.973-1.027,1.382-1.604"/>
	
		<path fill="none" stroke="#39AE72" stroke-width="0.8459" stroke-linecap="round" stroke-linejoin="round" stroke-miterlimit="10" d="
		M109.49,150.027c-0.429,0.652-0.768,1.363-0.977,2.115c0.311-0.38,0.641-0.771,0.908-1.184"/>
	
		<path fill="none" stroke="#39AE72" stroke-width="0.8459" stroke-linecap="round" stroke-linejoin="round" stroke-miterlimit="10" d="
		M93.419,155.335c0.029-0.354,0.089-0.704,0.179-1.047c-0.127,0.412-0.304,0.803-0.444,1.21c0.083-0.725,0.227-1.442,0.432-2.143
		c-0.204,0.504-0.505,0.958-0.737,1.447c0.012-0.637,0.118-1.27,0.315-1.875c-0.208,0.474-0.458,0.926-0.665,1.399
		c0.214-0.68,0.382-1.374,0.501-2.076c-0.361,0.549-0.671,1.13-0.928,1.734c0.19-0.666,0.357-1.338,0.501-2.015
		c-0.304,0.529-0.613,1.057-0.927,1.58c0.383-0.909,0.67-1.86,0.838-2.834c-0.687,0.51-1.145,1.255-1.334,2.088
		c0.201-0.518,0.389-1.029,0.559-1.559c-0.102,0.267-0.201,0.535-0.298,0.804c0.578-1.224,1.017-2.504,1.53-3.755
		c-0.377,0.661-0.741,1.331-1.064,2.021c0.643-1.266,1.181-2.606,2.111-3.696c-0.567,1.276-1.29,2.481-2.136,3.592
		c1.205-1.874,2.404-3.767,3.913-5.414c-0.801,1.6-1.889,3.029-2.772,4.582c1.097-1.868,2.445-3.571,3.836-5.226
		c-1.588,2.078-2.967,4.308-4.246,6.588c1.802-2.114,3.238-4.502,4.928-6.702c-1.11,2.089-2.659,3.914-3.674,6.057
		c1.049-1.936,2.425-3.663,3.577-5.534c-1.305,1.823-2.518,3.724-3.478,5.754c2.095-1.829,3.276-4.41,5.058-6.506
		c-1.559,1.941-3.507,3.872-3.984,6.414c1.642-1.728,2.959-3.729,4.185-5.765c-1.682,1.789-3.391,3.771-4.03,6.199
		c1.834-1.92,3.177-4.227,4.719-6.372c-1.53,1.984-3.185,3.972-3.967,6.394c2.204-1.728,3.652-4.215,5.039-6.6
		c-1.814,2.3-3.718,4.613-4.798,7.37c1.706-1.726,3.025-3.773,4.443-5.729c-1.44,1.424-3.407,3.189-3.492,5.361
		c1.936-1.878,3.555-4.059,4.977-6.344c-2.014,2.154-3.873,4.606-4.765,7.453c2.234-1.6,3.744-4.003,5.053-6.369
		c-1.956,2.323-3.989,4.766-4.854,7.735c2.367-1.917,3.621-4.798,5.084-7.388c-1.611,2.008-3.225,4.143-3.932,6.657
		c2.232-1.909,3.374-4.694,4.943-7.107c-1.207,2.108-3.348,4.015-3.416,6.597c2.006-1.838,2.881-4.508,4.566-6.596
		c-1.472,2.293-3.71,4.319-4.165,7.124c1.383-1.582,2.473-3.403,3.336-5.314c-1.221,1.434-2.333,3.001-3,4.773
		c1.232-1.438,2.159-3.104,3.043-4.771c-1.089,1.489-1.979,3.115-2.742,4.793c1.678-1.798,2.788-4.102,3.403-6.468
		c-1.205,1.025-1.97,2.535-2.313,4.063c1.11-1.527,1.961-3.224,3.082-4.745c-0.849,1.748-2.161,3.369-2.34,5.366
		c1.319-1.628,2.23-3.531,3.488-5.203c-0.626,1.22-1.333,2.4-1.847,3.675c0.833-1.147,1.448-2.433,2.294-3.57
		c-0.612,1.289-1.521,2.407-2.094,3.717c1.089-1.465,1.724-3.239,3.033-4.542c-0.795,1.7-2.097,3.152-2.564,4.999
		c1.607-1.613,2.506-3.744,3.851-5.555c-1.042,2.064-2.719,3.773-3.463,5.991c2.362-1.649,3.189-4.664,5.466-6.399
		c-0.924,2.19-2.767,3.793-3.882,5.87c2.99-1.699,3.579-5.586,6.346-7.529c-1.266,2.682-4.212,4.303-4.925,7.282
		c2.438-1.903,4.271-4.472,5.839-7.109c-2.419,1.897-5.374,4.29-6.333,7.33c1.499-1.661,2.825-3.464,4.238-5.196
		c-1.322,1.552-2.413,3.301-3.218,5.175c1.027-1.014,1.777-2.263,2.809-3.274c-1.333,1.534-2.546,3.225-3.226,5.156
		c0.197-0.312,0.392-0.627,0.583-0.942"/>
	
		<path fill="none" stroke="#39AE72" stroke-width="0.8459" stroke-linecap="round" stroke-linejoin="round" stroke-miterlimit="10" d="
		M102.293,163.537c0.374,0.617,0.429,1.359,0.507,2.059c-0.162-1.333-0.218-2.826-0.57-4.097c-0.286,1.553,0.023,3.07,0.405,4.573
		c-0.008-0.509-0.007-1.018-0.013-1.527c0.168,1.507,0.385,2.986,0.34,4.502c0.073-2.545-0.391-4.535,1.988-5.819
		c-0.161,0.157-0.312,0.33-0.481,0.478"/>
	
		<path fill="none" stroke="#39AE72" stroke-width="0.8459" stroke-linecap="round" stroke-linejoin="round" stroke-miterlimit="10" d="
		M112.336,162.031c0,0.754,0,1.507,0,2.261c0-0.884,0-1.768,0-2.651c0.002,1.803-0.076,3.71,0.28,5.479
		c0.125-1.156-0.151-2.354-0.112-3.529c-0.002,1.572,0,3.146,0,4.719c0-0.651,0-1.303,0-1.955c0,0.899-0.064,1.821,0.082,2.694
		c0.159-0.82,0.172-1.683,0.173-2.521c-0.043,0.428-0.072,0.862-0.101,1.293c0.508-2.332,0.565-3.469,2.595-4.938
		c-0.639,0.872-1.22,1.816-1.996,2.583c0.433-1.005,1.12-1.997,1.747-2.901c-0.435,0.819-0.968,1.71-1.667,2.326
		c-0.033-0.312,0.062-0.561,0.17-0.85"/>
	
		<path fill="none" stroke="#39AE72" stroke-width="0.8459" stroke-linecap="round" stroke-linejoin="round" stroke-miterlimit="10" d="
		M129.991,162.031c0,0.754,0,1.507,0,2.261c0-0.884,0-1.768,0-2.651c0.003,1.803-0.076,3.71,0.28,5.479
		c0.125-1.156-0.152-2.354-0.112-3.529c-0.002,1.572,0,3.146,0,4.719c0-0.651,0-1.303,0-1.955c0.001,0.899-0.063,1.821,0.081,2.694
		c0.16-0.82,0.173-1.683,0.173-2.521c-0.042,0.428-0.071,0.862-0.099,1.293c0.507-2.332,0.564-3.469,2.594-4.938
		c-0.639,0.872-1.22,1.816-1.996,2.583c0.433-1.005,1.12-1.997,1.746-2.901c-0.434,0.819-0.968,1.71-1.666,2.326
		c-0.033-0.312,0.063-0.561,0.171-0.85"/>
	
		<path fill="none" stroke="#39AE72" stroke-width="0.8459" stroke-linecap="round" stroke-linejoin="round" stroke-miterlimit="10" d="
		M139.538,162.031c0,0.754,0,1.507,0,2.261c0-0.884,0-1.768,0-2.651c0.002,1.803-0.075,3.71,0.279,5.479
		c0.126-1.156-0.151-2.354-0.111-3.529c-0.002,1.572-0.001,3.146-0.001,4.719c0-0.651,0-1.303,0-1.955
		c0.002,0.899-0.062,1.821,0.083,2.694c0.158-0.82,0.172-1.683,0.173-2.521c-0.042,0.428-0.072,0.862-0.101,1.293
		c0.508-2.332,0.565-3.469,2.595-4.938c-0.639,0.872-1.22,1.816-1.996,2.583c0.433-1.005,1.12-1.997,1.747-2.901
		c-0.434,0.819-0.969,1.71-1.666,2.326c-0.033-0.312,0.062-0.561,0.17-0.85"/>
	
		<path fill="none" stroke="#39AE72" stroke-width="0.8459" stroke-linecap="round" stroke-linejoin="round" stroke-miterlimit="10" d="
		M147.113,162.031c0,0.754,0,1.507,0,2.261c0-0.884,0-1.768,0-2.651c0.002,1.803-0.076,3.71,0.279,5.479
		c0.126-1.156-0.151-2.354-0.112-3.529c-0.001,1.572,0,3.146,0,4.719c0-0.651,0-1.303,0-1.955c0.002,0.899-0.062,1.821,0.082,2.694
		c0.159-0.82,0.173-1.683,0.173-2.521c-0.042,0.428-0.072,0.862-0.1,1.293c0.508-2.332,0.565-3.469,2.595-4.938
		c-0.639,0.872-1.22,1.816-1.996,2.583c0.433-1.005,1.12-1.997,1.746-2.901c-0.434,0.819-0.968,1.71-1.666,2.326
		c-0.033-0.312,0.062-0.561,0.171-0.85"/>
	
		<path fill="none" stroke="#39AE72" stroke-width="0.8459" stroke-linecap="round" stroke-linejoin="round" stroke-miterlimit="10" d="
		M121.711,162.449c0.502,1.229,0.417,2.536,0.419,3.835c0.017-0.903-0.144-2.853-0.066-4.093c0.333,1.485,0.234,3.063,0.469,4.568
		c-0.007-0.737-0.173-1.539-0.154-2.305c0.004,1.013-0.127,2.202,0.075,3.166c-0.013-0.904-0.307-1.789-0.32-2.684
		c-0.19,1.188-0.093,2.439-0.086,3.641c0.003-1.114-0.092-2.308-0.324-3.396c-0.062,1.552,0.016,3.051,0.407,4.552
		c0.302-1.151-0.434-2.646-0.095-3.791c0.293-0.99,1.237-1.482,1.946-2.189c-0.557,0.717-1.138,1.467-1.778,2.104
		c0.618-1.076,1.58-1.963,2.27-3.01c-0.295,0.476-1.096,2.02-1.34,1.528"/>
	
		<path opacity="0.5" fill="none" stroke="#DCCEB5" stroke-width="0.6344" stroke-linecap="round" stroke-linejoin="round" stroke-miterlimit="10" d="
		M117.443,124.281c-0.105,0.197-0.15,0.387-0.333,0.549c0.258-0.451,0.522-0.907,0.818-1.34c-0.242,0.37-0.473,0.723-0.669,1.114
		c0.114-0.205,0.225-0.413,0.347-0.616c-0.347,0.589-0.726,1.167-0.924,1.806c0.61-0.457,0.963-1.149,1.42-1.736
		c-0.229,0.63-0.605,1.252-0.839,1.891c0.236-0.343,0.437-0.693,0.62-1.061c-0.311,0.573-0.614,1.162-0.843,1.775
		c0.471-0.426,0.835-0.998,1.159-1.552c-0.364,1.087-1.196,2.232-1.218,3.38c0.63-0.582,0.999-1.485,1.162-2.318
		c-0.342,1.205-0.911,2.335-1.201,3.556c0.544-0.707,0.839-1.603,1.106-2.453c-0.274,1.056-0.758,2.052-1.029,3.098
		c0.349-0.723,0.7-1.443,1.038-2.172c0.058,1.178-0.696,2.38-1.035,3.508c0.326-0.572,0.549-1.205,0.839-1.787
		c-0.13,1.017-0.655,1.957-0.813,2.945c0.331-0.513,0.585-1.067,0.89-1.597c-0.025,0.97-0.487,1.993-0.912,2.861
		c0.292-0.457,0.525-0.963,0.715-1.466c-0.207,0.896-0.601,1.767-0.708,2.672c0.504-0.357,0.834-1.078,1.105-1.684
		c-0.312,1.037-1.29,2.498-1.151,3.562c0.498-0.728,0.889-1.52,1.224-2.333c-0.323,1.12-0.838,2.198-1.24,3.296
		c0.461-0.531,0.806-1.162,1.065-1.816c-0.085,1.093-0.838,2.046-0.838,3.157c0.484-0.574,0.883-1.246,1.187-1.933
		c-0.426,1.162-1.066,2.244-1.382,3.446c0.426-0.949,0.867-1.895,1.322-2.829c-0.412,1.058-1.043,2.05-1.378,3.126
		c0.635-0.92,1.284-1.83,1.871-2.781c-0.298,1.201-1.175,2.186-1.445,3.387c0.521-0.632,0.877-1.371,1.377-2.014
		c-0.222,0.751-0.681,1.487-0.949,2.253c0.489-0.692,0.998-1.39,1.503-2.062c-0.138,0.648-0.405,1.267-0.618,1.883
		c0.339-0.41,0.658-0.838,0.957-1.276c-0.118,0.521-0.346,1.056-0.502,1.529c0.289-0.411,0.577-0.831,0.906-1.211
		c-0.082,0.304-0.081,0.652-0.179,0.955c0.16-0.265,0.44-0.513,0.595-0.735c-0.122,0.264-0.087,0.664-0.164,0.921
		c0.026-0.001,0.207-0.161,0.245-0.18c0.127,0.438,0.35,0.684,0.5,0.946"/>
	
		<path fill="none" stroke="#DCCEB5" stroke-width="0.6344" stroke-linecap="round" stroke-linejoin="round" stroke-miterlimit="10" d="
		M130.5,146.295c0.259-0.197,0.515-0.335,0.729-0.581c-0.421,0.305-0.787,0.727-1.129,1.137c0.355-0.513,0.799-0.996,1.16-1.484
		c-0.671,0.498-1.237,1.117-1.849,1.684c0.529-0.742,1.206-1.367,1.729-2.109c-0.706,0.562-1.213,1.391-1.967,1.922
		c0.509-0.521,0.929-1.133,1.377-1.709c-0.509,0.367-0.979,0.817-1.478,1.207c0.408-0.502,0.818-1.007,1.231-1.506
		c-0.353,0.466-0.716,0.934-1.148,1.323c0.261-0.307,0.401-0.732,0.559-1.031c-0.298,0.267-0.754,0.564-0.978,0.822
		c0.203-0.286,0.367-0.603,0.581-0.88c-0.269,0.271-0.622,0.538-0.89,0.835c0.153-0.226,0.314-0.55,0.491-0.795
		c-0.207,0.224-0.46,0.416-0.669,0.639c0.159-0.275,0.295-0.592,0.467-0.865c-0.137,0.217-0.311,0.405-0.459,0.612
		c0.041-0.172,0.157-0.403,0.223-0.561c-0.098,0.101-0.256,0.294-0.379,0.385c0.167-0.306,0.262-0.644,0.447-0.943
		c-0.217,0.188-0.476,0.429-0.697,0.782c-0.349-0.023-0.498-0.265-0.449-0.724"/>
	
		<path opacity="0.1" fill="none" stroke="#DCCEB5" stroke-width="0.6344" stroke-linecap="round" stroke-linejoin="round" stroke-miterlimit="10" d="
		M129.914,123.946c-0.111,0.253-0.184,0.568-0.234,0.833c0.215-0.243,0.433-0.408,0.612-0.701c-0.171,0.27-0.313,0.6-0.448,0.865
		c0.191-0.227,0.454-0.438,0.646-0.675c-0.144,0.286-0.222,0.591-0.351,0.875c0.134-0.143,0.441-0.357,0.59-0.527
		c-0.346,0.572-0.708,1.291-0.784,1.905c0.162-0.229,0.27-0.396,0.373-0.632c-0.134,0.287-0.218,0.632-0.302,0.888
		c0.2-0.306,0.465-0.588,0.653-0.901c-0.237,0.458-0.457,0.985-0.49,1.5c0.098-0.164,0.304-0.426,0.417-0.651
		c-0.226,0.529-0.396,1.102-0.426,1.671c0.152-0.235,0.312-0.423,0.43-0.687c-0.158,0.365-0.269,0.791-0.349,1.155
		c0.245-0.362,0.508-0.72,0.681-1.115c-0.343,0.653-0.729,1.336-0.87,2.069c0.414-0.354,0.706-0.866,0.93-1.394
		c-0.349,0.732-0.708,1.475-0.741,2.299c0.593-0.14,0.95-0.875,1.128-1.47c-0.388,0.769-0.822,1.638-0.956,2.472
		c0.414-0.508,0.779-1.146,1.011-1.748c-0.282,0.867-0.786,1.667-0.844,2.585c0.401-0.399,0.724-1.006,0.929-1.582
		c-0.23,0.901-0.749,1.736-0.757,2.664c0.407-0.514,0.675-1.146,0.933-1.751c-0.385,0.867-0.86,1.779-1.058,2.707
		c0.434-0.646,0.795-1.329,1.145-2.022c-0.323,1.053-0.912,2.152-0.892,3.208c0.433-0.625,0.816-1.321,0.947-2.071
		c-0.496,1.001-1.251,2.494-1.237,3.603c0.37-0.616,0.567-1.336,0.822-1.998c-0.151,1.216-0.653,2.409-0.903,3.618
		c0.763-0.598,1.363-2.349,1.742-3.363c-0.123,1.213-0.908,2.388-1.321,3.539c0.315-0.823,0.654-1.634,1.094-2.394
		c-0.32,1.231-0.774,2.432-1.138,3.651c0.444-0.789,0.79-1.761,1.226-2.48c-0.312,1.267-0.935,2.437-1.226,3.709
		c0.736-0.779,1.158-1.933,1.474-2.952c-0.343,1.013-0.804,1.98-1.168,2.985c0.41-0.753,0.881-1.454,1.172-2.262
		c-0.3,1.027-0.822,2.02-1.03,3.071c0.599-0.516,0.909-1.478,1.233-2.22c-0.26,0.685-0.562,1.356-0.759,2.06
		c0.367-0.393,0.639-0.873,0.946-1.32c-0.134,0.479-0.416,0.598-0.839,0.813"/>
	<g>
		
			<path fill="none" stroke="#E19D4B" stroke-width="0.8459" stroke-linecap="round" stroke-linejoin="round" stroke-miterlimit="10" d="
			M90.423,60.033c0.107,0.97-0.099,1.976-0.086,2.966c0.001-1.075-0.068-2.2,0.24-3.221c0.036,0.939,0.076,1.882,0.102,2.822
			c0.098-0.709,0.129-1.422,0.269-2.125c-0.005,0.785-0.003,1.571-0.003,2.355c-0.002-0.878-0.018-1.762,0.019-2.637
			c0.153,0.778,0.073,1.704,0.328,2.499c0.316-0.67,0.286-1.518,0.37-2.271c0.139,0.647,0.048,1.579,0.081,2.323
			c0.152-0.83,0.243-1.703,0.261-2.549c0.156,0.744,0.075,1.699,0.061,2.519c0.225-0.743,0.311-1.519,0.444-2.279
			c-0.004,0.733-0.012,1.471,0.005,2.204c0.228-0.65,0.365-1.33,0.431-2.016c-0.007,0.782-0.119,1.673,0.089,2.409
			c0.396-0.966,0.438-2.04,0.53-3.071c0.121,0.831,0.038,1.731,0.081,2.589c0.16-0.644,0.29-1.321,0.401-1.959
			c0.055,0.967,0,1.941,0.03,2.91c0.539-0.935,0.269-2.249,0.403-3.283c0.047,0.904-0.095,1.874,0.208,2.714
			c0.311-0.732,0.349-1.556,0.334-2.349c-0.017,0.692-0.063,1.433,0.172,2.026c0.191-0.679,0.203-1.403,0.173-2.105
			c0.003,0.777-0.162,1.825,0.168,2.449c0.395-0.9,0.279-1.937,0.266-2.903c-0.017,0.836-0.055,1.754,0.168,2.521
			c0.279-0.716,0.297-1.525,0.264-2.289c-0.019,0.74-0.033,1.548,0.169,2.223c0.292-0.737,0.295-1.583,0.264-2.372
			c0.002,0.733-0.055,1.513,0.081,2.2c0.194-0.473,0.286-0.998,0.262-1.513c0.085,0.783,0.059,1.649,0.284,2.351
			c0.276-1.124,0.174-2.32,0.326-3.445c0.161,0.978,0.112,1.976,0.344,2.946c0.458-0.752,0.444-1.934,0.455-2.845
			c0.381,0.858,0.083,2.203,0.235,3.196c0.43-0.756,0.318-2.007,0.533-2.975c-0.021,0.784-0.091,1.628,0.185,2.363
			c0.419-0.695,0.403-1.653,0.418-2.466c0.002,0.941-0.14,2.009,0.25,2.763c0.43-0.959,0.507-2.031,0.688-3.047
			c0.051,1.059-0.138,2.206,0.112,3.238c0.489-0.564,0.562-1.401,0.512-2.137c0.001,0.779-0.095,1.662,0.097,2.398
			c0.435-0.671,0.455-1.539,0.509-2.325c0.005,0.568-0.013,1.157,0.035,1.702c0.223-0.438,0.299-0.942,0.315-1.442
			c-0.063,0.482-0.003,1.009,0.168,1.437c0.162-0.49,0.272-1.004,0.351-1.506c-0.002,0.678-0.012,1.357,0.007,2.034
			c0.562-0.835,0.345-2.055,0.627-3.034c0.146,1.055-0.08,2.152,0.134,3.195c0.641-0.736,0.409-2.09,0.555-3.062
			c0.212,1.027-0.031,2.168,0.144,3.2c0.36-0.989,0.222-2.128,0.507-3.095c0.192,0.928-0.032,1.944,0.37,2.806
			c0.254-0.736,0.335-1.56,0.345-2.346c-0.019,0.763-0.034,1.516,0.167,2.252c0.315-0.806,0.241-1.712,0.44-2.534
			c0.186,1.031-0.052,2.173,0.407,3.067c0.357-0.971,0.327-2.019,0.529-3.023c0.021,0.843,0,1.739,0.134,2.589
			c0.568-0.758,0.333-1.86,0.596-2.788c0.216,1.005,0.094,2.113,0.213,3.126c0.353-1.097,0.013-2.337,0.443-3.385
			c0.104,1.065-0.019,2.185,0.292,3.203c0.545-0.852,0.241-2.043,0.486-2.97c0.053,0.868-0.049,1.775,0.103,2.611
			c0.241-0.759,0.302-1.581,0.264-2.378c0.002,0.931-0.096,1.903,0.099,2.817c0.536-0.66,0.385-2.014,0.484-2.897
			c0.182,0.803-0.084,1.841,0.286,2.482c0.289-0.708,0.169-1.564,0.171-2.33c0.002,0.994-0.156,2.112,0.147,3.044
			c0.447-0.99,0.26-2.179,0.394-3.241c0.14,0.909-0.021,1.834,0.143,2.738c0.458-0.726,0.286-1.919,0.421-2.732
			c0.095,0.746,0.026,1.582,0.283,2.263c0.36-0.756,0.254-1.637,0.279-2.475c0.17,0.898,0.009,1.945,0.306,2.775
			c0.355-0.991,0.158-2.115,0.215-3.159c0.117,0.938-0.069,2.036,0.327,2.905c0.439-0.733,0.304-1.745,0.414-2.597
			c0.049,0.894-0.11,1.87,0.191,2.672c0.297-0.758,0.385-1.668,0.457-2.484c0.166,0.992-0.029,2.108,0.235,3.097
			c0.579-0.918,0.344-2.311,1.031-3.242c0.359,1.092,0.015,2.3,0.274,3.375c0.17-0.82,0.024-1.7,0.153-2.545
			c-0.01,0.661-0.011,1.361,0.191,1.999c0.484-0.885,0.068-2.005,0.503-2.902c0.131,0.922,0.146,1.854,0.274,2.773
			c0.567-0.905,0.109-2.288,0.681-3.161c0.17,0.93,0.03,1.876,0.185,2.802c0.405-0.753,0.278-1.89,0.267-2.785
			c0.002,0.953-0.117,1.977,0.1,2.897c0.541-0.7,0.364-2.143,0.442-3.048c0.161,0.955-0.212,2.857,0.412,3.505
			c0.586-0.938,0.226-2.175,0.498-3.206c0.198,0.98,0.012,2.003,0.184,2.996c0.544-0.884,0.242-2.021,0.534-3.012
			c0.202,1-0.222,2.337,0.394,3.168c0.38-0.791,0.054-1.741,0.366-2.532c0.07,0.8-0.067,1.898,0.275,2.576
			c0.559-0.785,0.089-1.958,0.439-2.812c0.359,1.1,0.043,2.486,0.657,3.474c0.289-0.895,0.06-2.445,0.715-3.038
			c0.129,0.949,0.017,2.038,0.355,2.879c0.417-0.849,0.147-1.845,0.375-2.689c0.083,0.868-0.021,1.877,0.321,2.663
			c0.717-0.794,0.434-2.27,0.789-3.277c0.143,0.831-0.021,1.801,0.256,2.628c0.385-0.804,0.145-2.083,0.37-3.023
			c0.164,0.985,0.069,2.031,0.235,2.991c0.247-0.901,0.043-1.867,0.263-2.753c0.183,0.876-0.007,1.822,0.236,2.672
			c0.156-0.791,0.287-1.64,0.438-2.401c0.052,0.821-0.028,1.643,0.098,2.455c0.512-0.624,0.405-1.764,0.533-2.597
			c-0.043,0.881,0.05,1.757,0.19,2.626c0.249-0.631,0.182-1.481,0.306-2.174c0.037,0.773-0.058,1.58,0.103,2.335
			c0.537-0.688,0.061-1.892,0.521-2.653c0.271,0.646,0.378,1.42,0.59,2.047c0.042-0.669,0.018-1.501,0.438-2.017
			c0.036,0.768-0.107,1.663,0.19,2.345c0.323-0.886-0.081-2.35,0.761-2.84c0.247,0.66,0.27,1.384,0.478,2.049
			c0.06-0.494,0.092-1.049,0.236-1.541c0.525,0.691,0.117,2.076,0.434,2.967c0.517-0.719,0.163-1.914,0.504-2.731
			c0.032,0.85-0.068,1.788,0.188,2.589c0.284-0.805,0.2-1.741,0.372-2.594c0.09,0.625,0.064,1.282,0.078,1.909
			c0.25-0.761,0.163-1.619,0.174-2.418c0.282,0.933,0.019,1.973,0.421,2.869c0.418-0.996,0.056-2.461,0.831-3.219
			c0.164,0.872,0.06,1.861,0.202,2.706c0.23-0.628,0.19-1.326,0.33-1.999c0.208,0.772,0.018,1.748,0.193,2.443
			c0.292-0.861-0.039-2.073,0.418-2.787c0.19,0.934-0.061,1.976,0.272,2.844c0.389-0.716,0.122-1.773,0.438-2.602
			c0.312,0.804,0.142,1.918,0.191,2.823c0.226-0.915,0.149-1.951,0.331-2.903c0.159,0.855,0.053,1.731,0.101,2.595
			c0.228-0.844,0.196-1.742,0.313-2.604c0.037,0.793-0.003,1.593,0.031,2.384c0.423-0.855,0.157-1.879,0.512-2.733
			c0.217,1.107,0.061,2.314,0.095,3.446c0.341-0.852,0.301-1.839,0.49-2.733c0.043,0.922,0.022,1.858,0.014,2.783
			c0.134-0.986,0.191-1.994,0.177-2.992c0,0.736-0.013,1.484,0.016,2.213c0.287-0.839,0.261-1.885,0.242-2.774
			c0.104,1.001,0.041,2.087,0.239,3.041c0.211-0.82,0.219-1.7,0.306-2.545c0.171,0.746-0.046,1.734,0.146,2.499
			c0.281-0.942,0.276-1.956,0.514-2.913c0.039,0.989-0.015,1.985,0.025,2.973c0.392-0.741,0.276-1.877,0.684-2.706
			c0.176,0.755,0.091,1.618,0.078,2.408c0.129-0.536,0.235-1.078,0.36-1.612c-0.01,0.733-0.049,1.479,0.069,2.186
			c0.504-0.617,0.445-1.638,0.71-2.396c0.25,0.466,0.162,1.214,0.2,1.764c0.191-0.729,0.232-1.492,0.474-2.196
			c0.044,0.968-0.095,1.934-0.07,2.9c0.614-0.433,0.665-1.772,0.978-2.552c0.11,0.746-0.021,1.584,0.142,2.278
			c0.636-1.041,0.356-2.387,0.967-3.434c0.176,0.867-0.028,1.869,0.154,2.734c0.661-0.622,0.527-1.627,0.975-2.438
			c0.367,0.741,0.058,1.799,0.09,2.656c0.229-0.655,0.283-1.495,0.755-1.96c0.053,0.791-0.047,1.585-0.063,2.373
			c0.364-0.768,0.369-2.17,1.024-2.635c0.156,0.706,0.078,1.43,0.107,2.153c0.316-0.609,0.483-1.399,0.953-1.896
			c0.171,0.813,0.002,1.742,0.029,2.53c0.431-0.759,0.654-1.647,1.345-2.198c0.175,0.629,0.029,1.328,0.013,1.986
			c0.18-0.804,0.244-1.627,0.447-2.425c0.188,0.813-0.136,1.828-0.113,2.717c-0.017-0.729,0.124-1.459,0.278-2.169
			c-0.155,0.507-0.363,1.021-0.629,1.46c-0.126-0.483-0.17-1.058-0.272-1.573c-0.299,0.583-0.474,1.341-0.32,1.931
			c0.629-0.893,0.122-2.752,1.359-3.087c0.51,0.713,0.206,1.792,0.078,2.678c0.773-0.241,1.128-1.239,1.918-1.467
			c-0.513,1.066,0.784,1.452,1.626,1.697c-0.568-0.578-5.305-2.324-4.279-0.519c0.564-0.203,0.538-0.959,0.727-1.538
			c0.016,0.81-0.019,1.723,0.403,2.438c0.697-0.702,0.312-1.829,0.506-2.716c-0.021,0.843-0.054,1.715,0.11,2.541
			c0.71-0.466,0.938-1.719,1.184-2.502c0.042,1.066-0.2,2.119-0.164,3.181c0.793-0.495,0.649-1.904,0.791-2.786
			c0.197,0.79-0.064,1.753-0.191,2.583c0.301-0.969,0.576-1.95,0.697-2.959c-0.007,0.859-0.012,1.722,0.007,2.579
			c0.431-0.696,0.182-1.626,0.341-2.435c-0.003,0.739-0.159,1.627,0.239,2.233c0.175-0.701,0.145-1.496,0.717-2.005
			c0.104,0.591,0.051,1.307,0.339,1.898c0.375-0.598,0.435-1.372,0.526-2.074c-0.01,0.621-0.272,2.069,0.343,2.528
			c0.547-0.696,0.456-1.743,0.439-2.592c-0.047,0.598-0.178,1.214-0.262,1.786c0.334-0.679,0.57-1.41,0.923-2.07
			c-0.1,0.661-0.377,1.309-0.316,2.002c0.742-0.26,0.969-1.059,1.243-1.748c-0.456,0.772-0.782,1.772-0.636,2.656
			c0.913-0.493,1.046-1.871,1.393-2.782c-0.141,0.559-0.329,1.122-0.353,1.704c0.41-0.272,0.743-0.688,1.018-1.115
			c-0.538,0.791-0.993,1.634-1.381,2.508c0.989-0.271,1.474-1.616,1.911-2.486c-0.209,0.635-0.671,1.222-1.009,1.816
			c0.689-0.722,1.366-1.475,1.974-2.248c-0.062,0.521-0.345,0.971-0.694,1.371c0.706-0.531,1.24-1.229,1.898-1.82
			c-0.593,0.788-1.36,1.614-1.706,2.496c0.859-0.48,1.588-1.219,2.219-1.989c-0.42,0.369-0.771,0.776-0.955,1.293
			c0.705-0.368,1.401-0.933,2.117-1.344c-0.371,0.697-0.954,1.322-1.47,1.941c0.839-0.38,1.516-0.97,2.23-1.532
			c-0.521,0.646-1.235,1.196-1.809,1.824c0.984-0.435,1.893-1.088,2.95-1.316c-0.632,0.93-1.736,1.51-2.59,2.244
			c1.189-0.234,2.344-1.083,3.496-1.55c-0.392,0.355-0.842,0.657-1.241,1.005c0.709-0.09,1.438-0.555,2.113-0.732
			c-0.712,0.633-1.609,1.013-2.453,1.442c1.158-0.21,2.392-0.918,3.403-1.57c-0.392,0.438-1.02,0.843-1.363,1.251
			c0.316-0.097,0.628-0.134,0.927-0.264c-0.365,0.208-0.706,0.439-1.091,0.621c0.92-0.338,1.804-0.854,2.801-0.687
			c-0.476,0.516-1.157,0.827-1.69,1.287c0.439,0.12,0.96-0.041,1.391-0.299c-0.223,0.154-0.415,0.355-0.627,0.515
			c0.583-0.44,1.765-0.544,2.455-0.484c-0.976,0.491-1.597,1.651-2.093,2.581c0.829-0.99,1.306-2.218,2.209-3.154
			c-0.094,1.008-0.812,1.944-1.328,2.792c0.558-0.745,1.227-1.414,1.892-2.058c-0.25,0.767-0.807,1.429-1.098,2.207
			c0.104-0.278,0.884-0.673,1.115-0.966c-0.23,0.962-0.833,1.736-1.315,2.58c0.646-1.209,1.53-2.498,2.562-3.404
			c-0.539,1.049-1.252,2.003-1.855,3.016c0.488-0.561,1.019-1.097,1.544-1.625c-0.38,0.874-1.012,1.621-1.468,2.458
			c0.804-0.488,1.547-1.292,2.252-1.981c-0.353,0.786-1.097,1.476-1.555,2.255c0.578-0.307,1.219-0.846,1.841-1.156
			c-0.55,0.702-1.263,1.245-1.76,1.982c0.823-0.466,1.586-1.048,2.407-1.527c-0.399,0.726-1.189,1.3-1.59,2.053
			c0.844-0.329,1.572-0.955,2.449-1.243c-0.386,0.977-1.547,1.545-2.094,2.464c0.846-0.231,1.599-0.672,2.42-0.973
			c-0.623,0.875-1.685,1.488-2.347,2.374c0.773-0.208,1.449-0.638,2.216-0.868c-0.541,0.717-1.573,1.034-2.033,1.791
			c0.811-0.304,1.554-0.765,2.385-0.947c-0.403,0.941-1.74,1.589-2.482,2.368c0.472-0.148,1.083-0.508,1.626-0.628
			c-0.51,0.529-1.286,0.845-1.722,1.377c0.667-0.097,1.343-0.312,2.01-0.159c-0.01,0.709-0.788,1.195-1.375,1.54
			c0.67-0.046,1.346-0.307,2.04-0.317c-0.244,0.574-0.987,0.866-1.555,1.208c0.41,0.078,0.989,0.082,1.46,0.12
			c-0.149,0.747-1.252,0.954-2.024,1.092c0.652-0.092,1.271-0.456,1.896-0.276c-0.444,0.62-1.379,0.833-2.002,1.124
			c0.772-0.151,1.634-0.568,2.388-0.348c-0.441,0.819-1.502,1.029-2.219,1.565c0.791-0.126,1.619-0.626,2.413-0.519
			c-0.459,0.816-1.288,1.246-1.987,1.827c0.514-0.089,1.051-0.317,1.565-0.415c-0.03,0.757-0.741,1.078-1.226,1.538
			c0.451-0.246,0.981-0.498,1.479-0.468c-0.279,1.02-1.612,1.117-1.983,2.037c0.472-0.179,0.976-0.363,1.454-0.28
			c0.002,0.898-1.155,1.274-1.771,1.747c0.616-0.275,1.223-0.605,1.874-0.775c-0.688,0.771-1.69,1.225-2.107,2.244
			c0.68-0.165,1.344-0.56,1.998-0.856c-0.352,0.87-1.55,1.463-1.927,2.458c0.507-0.3,1.01-0.555,1.578-0.459
			c-0.076,0.725-0.742,1.235-1.108,1.828c0.468-0.204,0.959-0.477,1.472-0.521c-0.266,0.941-1.43,1.214-1.905,1.987
			c0.614-0.176,1.227-0.458,1.882-0.419c-0.271,0.644-1.188,1.151-1.578,1.894c0.658,0.062,1.576-0.514,2.318-0.669
			c-1.247,0.734-2.501,1.463-3.233,2.775c0.904-0.459,1.961-1.162,2.95-1.298c-0.536,0.511-1.381,0.9-1.555,1.61
			c0.484-0.027,0.976-0.133,1.448-0.237c-0.454,0.985-2.073,0.965-2.124,2.06c0.769-0.153,1.57-0.338,2.363-0.213
			c-0.592,0.927-2.116,1.043-3.053,1.516c1.184,0.037,2.317-0.444,3.501-0.413c-0.672,0.874-2.479,1.139-3.51,1.685
			c1.074-0.151,2.142-0.33,3.233-0.179c-0.398,1.014-1.691,1.549-2.675,1.86c0.757-0.304,1.822-0.76,2.575-0.356
			c-0.498,1.085-1.815,1.46-2.848,1.888c0.669-0.318,1.325-0.529,2.021-0.27c-0.154,0.942-1.358,1.618-2.188,2.011
			c0.606-0.318,1.226-0.555,1.901-0.586c-0.076,1.116-1.087,1.963-1.879,2.717c0.833-0.257,1.701-0.772,2.509-0.64
			c-0.299,0.936-1.213,1.476-1.854,2.173c0.751-0.35,1.464-0.896,2.329-0.926c-0.313,1.202-1.733,1.783-2.526,2.717
			c0.729-0.167,1.423-0.505,2.149-0.436c-0.551,0.912-1.338,1.675-2.19,2.313c0.624-0.272,1.208-0.656,1.806-0.578
			c-0.557,0.727-1.345,1.246-1.953,1.934c0.59-0.209,1.17-0.612,1.778-0.577c-0.43,0.926-1.499,1.518-2.027,2.325
			c0.742-0.24,1.385-0.735,2.176-0.788c-0.389,1-1.573,1.418-2.212,2.21c0.8-0.385,1.651-0.896,2.554-0.885
			c-0.446,0.965-1.756,1.366-2.365,2.161c0.698-0.175,1.378-0.482,2.101-0.582c0.083,0.774-1.1,1.35-1.554,2.021
			c0.727-0.013,1.474-0.408,2.198-0.41c-0.528,0.837-1.764,0.927-2.396,1.623c0.627,0.06,1.248-0.015,1.873,0.065
			c-0.344,0.646-1.288,0.906-1.966,1.199c0.593-0.215,1.197-0.454,1.832-0.481c-0.362,0.673-1.198,1.055-1.812,1.495
			c0.585-0.121,1.193-0.254,1.74-0.074c-0.138,0.638-0.665,1.058-1.215,1.377c0.494-0.237,1.021-0.503,1.566-0.617
			c-0.271,0.897-1.693,1.437-2.353,2.172c0.73-0.285,1.438-0.762,2.167-1.11c-0.521,0.541-1.363,0.922-2.055,1.308
			c0.591-0.254,1.258-0.521,1.862-0.22c-0.106,0.798-1.524,0.698-2.151,1.147c0.63-0.171,1.239-0.41,1.915-0.336
			c-0.721,0-1.453-0.051-2.161,0.067c0.992,0.042,2.168-0.314,3.02,0.262c-0.875,0.012-1.739,0.143-2.613,0.192
			c0.796-0.003,1.594,0.002,2.39-0.006c-0.791,0.102-1.57,0.069-2.281,0.448c0.778-0.031,1.577-0.105,2.257,0.23
			c-0.836,0.358-1.768,0.071-2.632,0.352c0.794,0.036,1.605-0.048,2.391,0.098c-0.694,0.275-1.789,0.09-2.43,0.598
			c0.854,0.203,1.91-0.128,2.646,0.278c-0.826,0.164-1.699,0.074-2.521,0.368c0.814,0.108,1.944-0.148,2.712,0.243
			c-0.68,0.843-2.403,0.235-2.869,1.278c0.821,0.024,1.743-0.102,2.529,0.111c-0.722,0.42-2.064,0.268-2.435,1.044
			c0.868,0.146,2.172,0.009,2.649,0.851c-0.781,0.227-1.538-0.024-2.32-0.175c0.66,0.397,1.613,0.552,2.105,1.124
			c-0.762,0.04-1.542-0.007-2.287-0.173c0.936,0.014,1.876-0.02,2.811,0.024c-0.644,0.089-3.035,0.102-2.644,0.948
			c0.224,0.483,1.609,0.354,2.01,0.354c-0.818,0.154-2.553-0.309-2.927,0.758c0.95,0.665,2.467,0.516,3.195,1.563
			c-0.788,0.009-2.225-0.386-2.596,0.438c0.733,0.345,1.85,0.503,2.254,1.207c-0.82-0.111-1.483-0.715-2.195-1.111
			c0.516,0.469,1.245,0.722,1.882,1.01c-0.522-0.238-1.098-0.472-1.683-0.414c0.562,0.572,1.33,0.9,2.033,1.274
			c-0.601-0.238-1.189-0.502-1.805-0.681c0.359,0.747,1.178,1.151,1.915,1.462c-0.719-0.295-1.367-0.831-2.133-0.934
			c-0.032,0.848,0.966,1.459,1.687,1.744c-0.466-0.25-0.909-0.553-1.367-0.806c0.166,0.676,0.751,1.169,1.317,1.569
			c-0.557-0.32-1.056-0.724-1.63-0.992c0.084,0.039,1.138,1.798,1.211,2.006c-0.982-0.385-1.693-1.457-2.803-1.684
			c0.291,1.637,2.533,2.677,4.002,3.084c-0.423-0.9-1.495-1.569-2.491-1.783c-0.859,1.072,0.65,2.683,1.307,3.557
			c-0.317-1.051-1.127-2.276-1.933-3.07c-0.517,1.436,0.927,3.889,1.729,5.062c-0.525-0.773-0.902-1.777-1.765-2.244
			c-0.575,1.152-0.009,3.673,0.39,4.893c-0.406-0.758-0.749-1.648-1.323-2.251c-0.305,1.327-0.315,3.12,0.187,4.427
			c-0.143-0.937-0.636-2.039-1.208-2.794c-0.289,1.51-0.038,3.309,0.425,4.779c-0.036-0.854-0.399-1.71-0.776-2.461
			c-0.082,1.24,0.021,3.182,0.781,4.127c-0.124-1.095-0.798-2.303-1.325-3.262c-0.36,1.285,0.242,3.169,0.886,4.401
			c-0.152-0.803-0.529-1.741-1.048-2.367c-0.263,0.83,0.046,2.13,0.369,2.972c-0.142-0.527-0.391-1.063-0.79-1.395
			c-0.046,0.833-0.077,1.746,0.244,2.522c0.062-0.726-0.203-1.479-0.6-2.091c-0.301,0.972-0.005,2.362,0.276,3.402
			c-0.038-0.878-0.511-2.124-1.211-2.564c-0.217,1.019-0.251,2.357,0.15,3.336c0.01-0.68-0.167-1.501-0.745-1.764
			c-0.197,0.753-0.121,1.547-0.116,2.322c0.001-0.66-0.129-1.324-0.421-1.923c-0.367,1.346-0.3,3.02-0.002,4.402
			c-0.154-0.986-1.133,0.312-1.479-0.759c-0.586-1.812-0.895,1.074-0.663,2.15c0.157-0.512-0.917-1.018-0.951-1.575
			c-0.252,0.666,0.377,2.465,0.659,3.129c0.148-0.796-0.948-0.955-1.435-1.594c-0.177,0.889,0.109,2.075,0.358,2.932
			c-0.132-1.271-0.466-2.511-0.645-3.775c-0.099,1.423-0.133,3.023,0.569,4.313c-0.026-0.861-0.422-1.764-0.678-2.615
			c-0.612,1.367-0.041,3.494,0.182,4.973c-0.261-1.495-0.771-3.229-1.381-4.621c-0.126,2.025,0.263,4.157,0.865,6.094
			c-0.466-1.502-1.073-2.918-1.406-4.461c-0.337,1.684,0.049,3.58,0.281,5.29c-0.129-1.434-0.56-3.018-1.139-4.33
			c-0.363,1.19-0.332,2.868-0.006,4.092c-0.161-1.161-0.397-3.036-1.013-3.904c-0.106,1.601-0.045,3.228-0.011,4.831
			c-0.21-0.911-0.497-1.936-0.879-2.74c-0.789,0.956-0.82,2.679-1.242,3.859c-0.131-1.1-0.122-2.638-0.766-3.612
			c-0.4,1.39-0.293,3.055-0.245,4.487c0.024-1.356-0.212-2.879-0.795-4.094c-0.434,1.58-0.176,3.528-0.154,5.137
			c-0.094-1.19-0.36-2.451-0.781-3.57c-0.688,1.287-0.233,3.316-0.509,4.75c-0.104-1.204-0.229-2.934-1.067-3.857
			c-0.526,1.883-0.312,3.85-0.762,5.742c-0.107-1.059-0.296-3.494-1.342-3.927c-0.782,1.369-0.712,3.551-0.759,5.091
			c0.056-1.093,0.059-2.421-0.664-3.311c-0.851,0.484-0.845,2.416-1.069,3.416c0.018-0.996-0.019-2.299-0.761-3.034
			c-0.377,0.68-0.473,1.572-0.537,2.362c0.031-0.583,0.005-1.143-0.183-1.691c-0.573,0.885-0.525,2.284-0.762,3.33
			c0.016-1.208-0.017-2.601-0.622-3.646c-0.558,1.061-0.496,2.39-0.604,3.565c0.051-0.662,0.214-2.615-0.655-2.996
			c-0.674,1.228-0.522,2.765-1.233,3.992c-0.206-0.769-0.129-1.836-0.805-2.276c-0.878,0.545-1.086,1.976-1.381,2.907
			c-0.007-0.785,0.098-1.629-0.093-2.362c-0.48,0.584-0.466,1.545-0.585,2.293c0.007-0.724,0.105-1.553-0.382-2.075
			c-0.342,0.721-0.389,1.695-0.83,2.302c0.011-0.56,0.015-1.136-0.207-1.653c-0.576,0.533-0.523,1.697-0.773,2.515
			c-0.18-0.882-0.008-1.886-0.447-2.776c-0.785,0.896-0.733,2.543-1.131,3.703c-0.12-0.851,0.039-2.127-0.749-2.63
			c-0.891,0.81-0.673,2.453-1.276,3.368c-0.012-1.146-0.054-2.392-0.638-3.411c-0.812,0.661-0.775,2.201-1.09,3.162
			c-0.184-0.971-0.102-2.228-0.83-2.969c-0.382,0.569-0.558,1.283-0.849,1.902c-0.01-0.634-0.055-1.26-0.193-1.879
			c-0.444,0.701-0.532,1.785-0.589,2.645c-0.077-0.676-0.106-1.359-0.261-2.022c-0.239,0.549-0.36,1.333-0.526,1.977
			c-0.026-0.744,0.068-1.735-0.41-2.215c-0.322,0.828-0.18,1.799-0.648,2.521c-0.978-2.646-1.011-0.802-1.651,0.768
			c-0.096-1.085,0.155-2.512-0.303-3.336c-0.34,0.987-0.21,2.057-0.433,3.073c-0.2-1.073,0.03-2.191-0.249-3.252
			c-0.54,0.923-0.38,2.211-0.709,3.229c-0.043-0.975,0.04-1.948-0.122-2.913c-0.234,0.728-0.383,1.551-0.656,2.292
			c-0.166-0.787-0.037-1.582-0.309-2.331c-0.593,0.675-0.6,1.669-1.084,2.409c-0.025-0.695-0.004-1.397-0.02-2.095
			c-0.597,0.914-0.664,2.22-0.844,3.345c-0.009-1.025,0.043-2.272-0.491-3.177c-0.123,0.335-0.387,0.672-0.459,1.035
			c-0.055-0.574,0.023-1.175,0.179-1.739c0.167,1.014-0.059,2.28,0.174,3.26c0.344-0.911,0.594-1.863,0.99-2.752
			c0.164,0.862,0.096,1.921,0.521,2.661c0.551-0.906,0.82-2.759,1.744-3.244c0.329,0.959,0.199,2.284,0.792,3.103
			c0.756-0.802,0.932-1.99,1.473-2.928c0.222,0.701,0.163,1.683,0.459,2.437c0.761-0.171,0.899-1.362,1.609-1.737
			c0.448,1.207,0.194,2.764,0.977,3.811c0.959-0.862,0.907-3.945-0.016-4.727c-0.322,0.464-0.441,1.039-0.423,1.61"/>
		
			<path fill="none" stroke="#E19D4B" stroke-width="0.8459" stroke-linecap="round" stroke-linejoin="round" stroke-miterlimit="10" d="
			M160.819,60.033c-0.107,0.97,0.099,1.976,0.086,2.966c-0.001-1.075,0.067-2.2-0.24-3.221c-0.036,0.939-0.076,1.882-0.102,2.822
			c-0.099-0.709-0.13-1.422-0.269-2.125c0.005,0.785,0.004,1.571,0.004,2.355c0.001-0.878,0.017-1.762-0.02-2.637
			c-0.152,0.778-0.073,1.704-0.328,2.499c-0.316-0.67-0.285-1.518-0.37-2.271c-0.139,0.647-0.048,1.579-0.081,2.323
			c-0.151-0.83-0.242-1.703-0.261-2.549c-0.156,0.744-0.075,1.699-0.061,2.519c-0.226-0.743-0.312-1.519-0.445-2.279
			c0.005,0.733,0.012,1.471-0.005,2.204c-0.227-0.65-0.365-1.33-0.431-2.016c0.007,0.782,0.119,1.673-0.09,2.409
			c-0.396-0.966-0.438-2.04-0.53-3.071c-0.12,0.831-0.038,1.731-0.081,2.589c-0.16-0.644-0.29-1.321-0.401-1.959
			c-0.055,0.967,0.001,1.941-0.029,2.91c-0.539-0.935-0.269-2.249-0.403-3.283c-0.047,0.904,0.095,1.874-0.208,2.714
			c-0.311-0.732-0.349-1.556-0.334-2.349c0.017,0.692,0.063,1.433-0.172,2.026c-0.191-0.679-0.203-1.403-0.174-2.105
			c-0.003,0.777,0.162,1.825-0.168,2.449c-0.395-0.9-0.279-1.937-0.266-2.903c0.016,0.836,0.054,1.754-0.169,2.521
			c-0.279-0.716-0.298-1.525-0.265-2.289c0.02,0.74,0.033,1.548-0.168,2.223c-0.293-0.737-0.295-1.583-0.265-2.372
			c-0.003,0.733,0.055,1.513-0.081,2.2c-0.194-0.473-0.286-0.998-0.262-1.513c-0.085,0.783-0.059,1.649-0.284,2.351
			c-0.276-1.124-0.175-2.32-0.325-3.445c-0.161,0.978-0.112,1.976-0.345,2.946c-0.458-0.752-0.443-1.934-0.454-2.845
			c-0.382,0.858-0.084,2.203-0.235,3.196c-0.431-0.756-0.318-2.007-0.533-2.975c0.021,0.784,0.091,1.628-0.186,2.363
			c-0.418-0.695-0.402-1.653-0.418-2.466c-0.001,0.941,0.14,2.009-0.249,2.763c-0.43-0.959-0.507-2.031-0.688-3.047
			c-0.051,1.059,0.138,2.206-0.112,3.238c-0.489-0.564-0.562-1.401-0.512-2.137c-0.002,0.779,0.095,1.662-0.098,2.398
			c-0.435-0.671-0.454-1.539-0.509-2.325c-0.005,0.568,0.012,1.157-0.035,1.702c-0.223-0.438-0.299-0.942-0.315-1.442
			c0.063,0.482,0.003,1.009-0.169,1.437c-0.161-0.49-0.272-1.004-0.351-1.506c0.002,0.678,0.013,1.357-0.007,2.034
			c-0.562-0.835-0.345-2.055-0.627-3.034c-0.146,1.055,0.079,2.152-0.134,3.195c-0.641-0.736-0.409-2.09-0.555-3.062
			c-0.213,1.027,0.031,2.168-0.145,3.2c-0.359-0.989-0.221-2.128-0.507-3.095c-0.191,0.928,0.032,1.944-0.37,2.806
			c-0.255-0.736-0.335-1.56-0.345-2.346c0.02,0.763,0.034,1.516-0.167,2.252c-0.316-0.806-0.241-1.712-0.44-2.534
			c-0.187,1.031,0.052,2.173-0.407,3.067c-0.357-0.971-0.327-2.019-0.529-3.023c-0.021,0.843,0,1.739-0.135,2.589
			c-0.567-0.758-0.333-1.86-0.596-2.788c-0.216,1.005-0.094,2.113-0.213,3.126c-0.353-1.097-0.013-2.337-0.442-3.385
			c-0.104,1.065,0.019,2.185-0.293,3.203c-0.545-0.852-0.241-2.043-0.485-2.97c-0.053,0.868,0.049,1.775-0.103,2.611
			c-0.241-0.759-0.303-1.581-0.265-2.378c-0.001,0.931,0.097,1.903-0.099,2.817c-0.536-0.66-0.385-2.014-0.484-2.897
			c-0.182,0.803,0.084,1.841-0.286,2.482c-0.288-0.708-0.169-1.564-0.171-2.33c-0.002,0.994,0.155,2.112-0.147,3.044
			c-0.447-0.99-0.261-2.179-0.395-3.241c-0.14,0.909,0.021,1.834-0.143,2.738c-0.458-0.726-0.286-1.919-0.421-2.732
			c-0.096,0.746-0.027,1.582-0.283,2.263c-0.36-0.756-0.254-1.637-0.279-2.475c-0.17,0.898-0.009,1.945-0.306,2.775
			c-0.354-0.991-0.157-2.115-0.215-3.159c-0.116,0.938,0.069,2.036-0.327,2.905c-0.439-0.733-0.304-1.745-0.413-2.597
			c-0.05,0.894,0.109,1.87-0.191,2.672c-0.297-0.758-0.385-1.668-0.457-2.484c-0.166,0.992,0.029,2.108-0.235,3.097
			c-0.578-0.918-0.344-2.311-1.03-3.242c-0.359,1.092-0.016,2.3-0.274,3.375c-0.171-0.82-0.025-1.7-0.154-2.545
			c0.011,0.661,0.012,1.361-0.19,1.999c-0.484-0.885-0.067-2.005-0.503-2.902c-0.131,0.922-0.146,1.854-0.274,2.773
			c-0.567-0.905-0.109-2.288-0.681-3.161c-0.17,0.93-0.03,1.876-0.186,2.802c-0.404-0.753-0.277-1.89-0.267-2.785
			c-0.002,0.953,0.116,1.977-0.1,2.897c-0.54-0.7-0.363-2.143-0.442-3.048c-0.161,0.955,0.213,2.857-0.412,3.505
			c-0.586-0.938-0.227-2.175-0.498-3.206c-0.198,0.98-0.013,2.003-0.185,2.996c-0.544-0.884-0.241-2.021-0.533-3.012
			c-0.202,1,0.222,2.337-0.394,3.168c-0.38-0.791-0.055-1.741-0.365-2.532c-0.07,0.8,0.066,1.898-0.275,2.576
			c-0.559-0.785-0.09-1.958-0.438-2.812c-0.359,1.1-0.044,2.486-0.657,3.474c-0.289-0.895-0.06-2.445-0.715-3.038
			c-0.129,0.949-0.017,2.038-0.355,2.879c-0.417-0.849-0.147-1.845-0.375-2.689c-0.083,0.868,0.021,1.877-0.321,2.663
			c-0.718-0.794-0.434-2.27-0.789-3.277c-0.144,0.831,0.021,1.801-0.256,2.628c-0.386-0.804-0.145-2.083-0.37-3.023
			c-0.164,0.985-0.069,2.031-0.235,2.991c-0.248-0.901-0.042-1.867-0.262-2.753c-0.184,0.876,0.006,1.822-0.236,2.672
			c-0.157-0.791-0.288-1.64-0.438-2.401c-0.052,0.821,0.028,1.643-0.098,2.455c-0.512-0.624-0.405-1.764-0.533-2.597
			c0.043,0.881-0.05,1.757-0.19,2.626c-0.25-0.631-0.182-1.481-0.306-2.174c-0.037,0.773,0.057,1.58-0.102,2.335
			c-0.537-0.688-0.062-1.892-0.521-2.653c-0.272,0.646-0.378,1.42-0.59,2.047c-0.042-0.669-0.018-1.501-0.438-2.017
			c-0.036,0.768,0.107,1.663-0.191,2.345c-0.323-0.886,0.081-2.35-0.761-2.84c-0.246,0.66-0.269,1.384-0.477,2.049
			c-0.06-0.494-0.093-1.049-0.237-1.541c-0.525,0.691-0.117,2.076-0.434,2.967c-0.516-0.719-0.163-1.914-0.503-2.731
			c-0.033,0.85,0.067,1.788-0.188,2.589c-0.284-0.805-0.201-1.741-0.373-2.594c-0.09,0.625-0.064,1.282-0.079,1.909
			c-0.25-0.761-0.163-1.619-0.173-2.418c-0.283,0.933-0.019,1.973-0.42,2.869c-0.418-0.996-0.056-2.461-0.832-3.219
			c-0.164,0.872-0.06,1.861-0.202,2.706c-0.23-0.628-0.191-1.326-0.33-1.999c-0.208,0.772-0.018,1.748-0.193,2.443
			c-0.292-0.861,0.04-2.073-0.418-2.787c-0.19,0.934,0.06,1.976-0.273,2.844c-0.388-0.716-0.121-1.773-0.438-2.602
			c-0.312,0.804-0.142,1.918-0.192,2.823c-0.226-0.915-0.149-1.951-0.331-2.903c-0.16,0.855-0.053,1.731-0.1,2.595
			c-0.228-0.844-0.197-1.742-0.314-2.604c-0.037,0.793,0.003,1.593-0.031,2.384c-0.423-0.855-0.157-1.879-0.512-2.733
			c-0.217,1.107-0.06,2.314-0.095,3.446c-0.341-0.852-0.301-1.839-0.49-2.733c-0.043,0.922-0.022,1.858-0.014,2.783
			c-0.134-0.986-0.192-1.994-0.177-2.992c0,0.736,0.012,1.484-0.016,2.213c-0.287-0.839-0.26-1.885-0.242-2.774
			c-0.104,1.001-0.042,2.087-0.24,3.041c-0.21-0.82-0.218-1.7-0.305-2.545c-0.171,0.746,0.045,1.734-0.146,2.499
			c-0.281-0.942-0.276-1.956-0.513-2.913c-0.04,0.989,0.014,1.985-0.026,2.973c-0.392-0.741-0.276-1.877-0.684-2.706
			c-0.175,0.755-0.091,1.618-0.078,2.408c-0.128-0.536-0.235-1.078-0.36-1.612c0.009,0.733,0.049,1.479-0.069,2.186
			c-0.505-0.617-0.446-1.638-0.71-2.396c-0.25,0.466-0.162,1.214-0.2,1.764c-0.191-0.729-0.232-1.492-0.474-2.196
			c-0.043,0.968,0.095,1.934,0.071,2.9c-0.615-0.433-0.666-1.772-0.978-2.552c-0.11,0.746,0.021,1.584-0.142,2.278
			c-0.636-1.041-0.356-2.387-0.966-3.434c-0.176,0.867,0.028,1.869-0.155,2.734c-0.661-0.622-0.527-1.627-0.975-2.438
			c-0.367,0.741-0.058,1.799-0.09,2.656c-0.229-0.655-0.284-1.495-0.754-1.96c-0.053,0.791,0.046,1.585,0.062,2.373
			c-0.364-0.768-0.368-2.17-1.024-2.635c-0.156,0.706-0.078,1.43-0.107,2.153c-0.316-0.609-0.483-1.399-0.954-1.896
			c-0.17,0.813-0.001,1.742-0.029,2.53c-0.43-0.759-0.654-1.647-1.345-2.198c-0.174,0.629-0.029,1.328-0.013,1.986
			c-0.18-0.804-0.245-1.627-0.448-2.425c-0.187,0.813,0.136,1.828,0.113,2.717c0.018-0.729-0.123-1.459-0.277-2.169
			c0.155,0.507,0.362,1.021,0.628,1.46c0.126-0.483,0.17-1.058,0.272-1.573c0.298,0.583,0.474,1.341,0.32,1.931
			c-0.628-0.893-0.122-2.752-1.359-3.087c-0.51,0.713-0.207,1.792-0.078,2.678c-0.774-0.241-1.128-1.239-1.918-1.467
			c0.512,1.066-0.785,1.452-1.627,1.697c0.568-0.578,5.305-2.324,4.279-0.519c-0.564-0.203-0.538-0.959-0.726-1.538
			c-0.016,0.81,0.018,1.723-0.403,2.438c-0.697-0.702-0.313-1.829-0.505-2.716c0.02,0.843,0.053,1.715-0.111,2.541
			c-0.71-0.466-0.938-1.719-1.184-2.502c-0.042,1.066,0.201,2.119,0.164,3.181c-0.793-0.495-0.649-1.904-0.791-2.786
			c-0.198,0.79,0.064,1.753,0.191,2.583c-0.301-0.969-0.577-1.95-0.697-2.959c0.007,0.859,0.012,1.722-0.006,2.579
			c-0.431-0.696-0.182-1.626-0.341-2.435c0.002,0.739,0.159,1.627-0.239,2.233c-0.175-0.701-0.146-1.496-0.717-2.005
			c-0.104,0.591-0.051,1.307-0.338,1.898c-0.375-0.598-0.435-1.372-0.527-2.074c0.01,0.621,0.273,2.069-0.342,2.528
			c-0.547-0.696-0.457-1.743-0.439-2.592c0.046,0.598,0.178,1.214,0.261,1.786c-0.334-0.679-0.57-1.41-0.923-2.07
			c0.1,0.661,0.376,1.309,0.316,2.002c-0.742-0.26-0.969-1.059-1.244-1.748c0.457,0.772,0.783,1.772,0.636,2.656
			c-0.913-0.493-1.046-1.871-1.393-2.782c0.141,0.559,0.33,1.122,0.353,1.704c-0.411-0.272-0.744-0.688-1.018-1.115
			c0.539,0.791,0.993,1.634,1.381,2.508c-0.99-0.271-1.474-1.616-1.912-2.486c0.209,0.635,0.67,1.222,1.008,1.816
			c-0.689-0.722-1.365-1.475-1.974-2.248c0.062,0.521,0.346,0.971,0.695,1.371c-0.706-0.531-1.24-1.229-1.898-1.82
			c0.593,0.788,1.361,1.614,1.706,2.496c-0.859-0.48-1.588-1.219-2.219-1.989c0.419,0.369,0.771,0.776,0.955,1.293
			c-0.705-0.368-1.401-0.933-2.118-1.344c0.371,0.697,0.954,1.322,1.47,1.941c-0.838-0.38-1.515-0.97-2.23-1.532
			c0.522,0.646,1.236,1.196,1.809,1.824c-0.984-0.435-1.893-1.088-2.951-1.316c0.633,0.93,1.736,1.51,2.591,2.244
			c-1.19-0.234-2.344-1.083-3.497-1.55c0.393,0.355,0.842,0.657,1.242,1.005c-0.709-0.09-1.438-0.555-2.113-0.732
			c0.712,0.633,1.609,1.013,2.454,1.442c-1.158-0.21-2.393-0.918-3.404-1.57c0.392,0.438,1.02,0.843,1.363,1.251
			c-0.316-0.097-0.628-0.134-0.927-0.264c0.365,0.208,0.706,0.439,1.09,0.621c-0.919-0.338-1.803-0.854-2.8-0.687
			c0.476,0.516,1.157,0.827,1.69,1.287c-0.439,0.12-0.96-0.041-1.39-0.299c0.223,0.154,0.415,0.355,0.627,0.515
			c-0.583-0.44-1.765-0.544-2.455-0.484c0.976,0.491,1.597,1.651,2.092,2.581c-0.829-0.99-1.305-2.218-2.209-3.154
			c0.094,1.008,0.813,1.944,1.329,2.792c-0.558-0.745-1.227-1.414-1.892-2.058c0.25,0.767,0.807,1.429,1.098,2.207
			c-0.104-0.278-0.884-0.673-1.115-0.966c0.23,0.962,0.833,1.736,1.315,2.58c-0.646-1.209-1.53-2.498-2.562-3.404
			c0.54,1.049,1.252,2.003,1.856,3.016c-0.488-0.561-1.019-1.097-1.544-1.625c0.38,0.874,1.011,1.621,1.467,2.458
			c-0.803-0.488-1.546-1.292-2.252-1.981c0.353,0.786,1.097,1.476,1.555,2.255c-0.578-0.307-1.218-0.846-1.84-1.156
			c0.55,0.702,1.262,1.245,1.76,1.982c-0.823-0.466-1.586-1.048-2.407-1.527c0.399,0.726,1.189,1.3,1.59,2.053
			c-0.844-0.329-1.572-0.955-2.449-1.243c0.386,0.977,1.546,1.545,2.093,2.464c-0.845-0.231-1.599-0.672-2.419-0.973
			c0.624,0.875,1.684,1.488,2.347,2.374c-0.773-0.208-1.449-0.638-2.215-0.868c0.54,0.717,1.573,1.034,2.033,1.791
			c-0.81-0.304-1.554-0.765-2.385-0.947c0.403,0.941,1.741,1.589,2.482,2.368c-0.472-0.148-1.083-0.508-1.626-0.628
			c0.51,0.529,1.287,0.845,1.722,1.377c-0.667-0.097-1.342-0.312-2.01-0.159c0.01,0.709,0.788,1.195,1.375,1.54
			c-0.669-0.046-1.345-0.307-2.04-0.317c0.244,0.574,0.987,0.866,1.555,1.208c-0.41,0.078-0.99,0.082-1.459,0.12
			c0.148,0.747,1.251,0.954,2.024,1.092c-0.652-0.092-1.271-0.456-1.897-0.276c0.444,0.62,1.38,0.833,2.002,1.124
			c-0.772-0.151-1.634-0.568-2.388-0.348c0.442,0.819,1.502,1.029,2.22,1.565c-0.792-0.126-1.619-0.626-2.414-0.519
			c0.459,0.816,1.288,1.246,1.988,1.827c-0.514-0.089-1.051-0.317-1.565-0.415c0.031,0.757,0.741,1.078,1.225,1.538
			c-0.451-0.246-0.981-0.498-1.479-0.468c0.279,1.02,1.611,1.117,1.982,2.037c-0.471-0.179-0.975-0.363-1.454-0.28
			c-0.001,0.898,1.156,1.274,1.771,1.747c-0.616-0.275-1.223-0.605-1.875-0.775c0.688,0.771,1.69,1.225,2.107,2.244
			c-0.68-0.165-1.343-0.56-1.999-0.856c0.352,0.87,1.551,1.463,1.927,2.458c-0.507-0.3-1.01-0.555-1.579-0.459
			c0.077,0.725,0.743,1.235,1.109,1.828c-0.468-0.204-0.959-0.477-1.472-0.521c0.266,0.941,1.429,1.214,1.905,1.987
			c-0.615-0.176-1.227-0.458-1.882-0.419c0.271,0.644,1.187,1.151,1.578,1.894c-0.657,0.062-1.575-0.514-2.318-0.669
			c1.248,0.734,2.501,1.463,3.233,2.775c-0.904-0.459-1.961-1.162-2.95-1.298c0.536,0.511,1.38,0.9,1.555,1.61
			c-0.485-0.027-0.976-0.133-1.448-0.237c0.455,0.985,2.073,0.965,2.124,2.06c-0.769-0.153-1.57-0.338-2.363-0.213
			c0.591,0.927,2.116,1.043,3.053,1.516c-1.184,0.037-2.318-0.444-3.501-0.413c0.671,0.874,2.478,1.139,3.509,1.685
			c-1.074-0.151-2.141-0.33-3.233-0.179c0.398,1.014,1.691,1.549,2.675,1.86c-0.757-0.304-1.822-0.76-2.575-0.356
			c0.498,1.085,1.815,1.46,2.847,1.888c-0.669-0.318-1.325-0.529-2.021-0.27c0.154,0.942,1.358,1.618,2.188,2.011
			c-0.606-0.318-1.226-0.555-1.901-0.586c0.076,1.116,1.087,1.963,1.879,2.717c-0.834-0.257-1.701-0.772-2.509-0.64
			c0.299,0.936,1.213,1.476,1.854,2.173c-0.752-0.35-1.464-0.896-2.33-0.926c0.314,1.202,1.733,1.783,2.526,2.717
			c-0.729-0.167-1.423-0.505-2.15-0.436c0.551,0.912,1.338,1.675,2.191,2.313c-0.625-0.272-1.208-0.656-1.806-0.578
			c0.557,0.727,1.345,1.246,1.953,1.934c-0.59-0.209-1.169-0.612-1.778-0.577c0.43,0.926,1.499,1.518,2.027,2.325
			c-0.743-0.24-1.384-0.735-2.176-0.788c0.389,1,1.573,1.418,2.212,2.21c-0.8-0.385-1.651-0.896-2.555-0.885
			c0.446,0.965,1.756,1.366,2.366,2.161c-0.699-0.175-1.378-0.482-2.101-0.582c-0.083,0.774,1.099,1.35,1.554,2.021
			c-0.727-0.013-1.474-0.408-2.199-0.41c0.529,0.837,1.765,0.927,2.397,1.623c-0.628,0.06-1.248-0.015-1.874,0.065
			c0.344,0.646,1.288,0.906,1.966,1.199c-0.593-0.215-1.198-0.454-1.832-0.481c0.363,0.673,1.198,1.055,1.812,1.495
			c-0.585-0.121-1.193-0.254-1.74-0.074c0.137,0.638,0.664,1.058,1.214,1.377c-0.494-0.237-1.021-0.503-1.566-0.617
			c0.271,0.897,1.693,1.437,2.353,2.172c-0.73-0.285-1.439-0.762-2.167-1.11c0.522,0.541,1.364,0.922,2.055,1.308
			c-0.591-0.254-1.258-0.521-1.862-0.22c0.106,0.798,1.524,0.698,2.151,1.147c-0.63-0.171-1.24-0.41-1.915-0.336
			c0.72,0,1.452-0.051,2.161,0.067c-0.993,0.042-2.168-0.314-3.021,0.262c0.876,0.012,1.74,0.143,2.614,0.192
			c-0.796-0.003-1.593,0.002-2.39-0.006c0.792,0.102,1.57,0.069,2.281,0.448c-0.778-0.031-1.576-0.105-2.256,0.23
			c0.836,0.358,1.767,0.071,2.631,0.352c-0.794,0.036-1.605-0.048-2.39,0.098c0.694,0.275,1.788,0.09,2.429,0.598
			c-0.854,0.203-1.91-0.128-2.646,0.278c0.826,0.164,1.699,0.074,2.52,0.368c-0.814,0.108-1.943-0.148-2.712,0.243
			c0.68,0.843,2.404,0.235,2.87,1.278c-0.821,0.024-1.743-0.102-2.53,0.111c0.722,0.42,2.064,0.268,2.435,1.044
			c-0.868,0.146-2.172,0.009-2.649,0.851c0.782,0.227,1.538-0.024,2.32-0.175c-0.659,0.397-1.613,0.552-2.105,1.124
			c0.762,0.04,1.542-0.007,2.288-0.173c-0.936,0.014-1.876-0.02-2.811,0.024c0.643,0.089,3.035,0.102,2.643,0.948
			c-0.223,0.483-1.609,0.354-2.009,0.354c0.818,0.154,2.553-0.309,2.926,0.758c-0.95,0.665-2.466,0.516-3.194,1.563
			c0.787,0.009,2.224-0.386,2.595,0.438c-0.733,0.345-1.849,0.503-2.253,1.207c0.82-0.111,1.483-0.715,2.196-1.111
			c-0.516,0.469-1.246,0.722-1.882,1.01c0.522-0.238,1.097-0.472,1.683-0.414c-0.562,0.572-1.331,0.9-2.034,1.274
			c0.601-0.238,1.189-0.502,1.805-0.681c-0.359,0.747-1.178,1.151-1.915,1.462c0.718-0.295,1.367-0.831,2.133-0.934
			c0.031,0.848-0.967,1.459-1.687,1.744c0.466-0.25,0.909-0.553,1.367-0.806c-0.166,0.676-0.751,1.169-1.317,1.569
			c0.557-0.32,1.056-0.724,1.63-0.992c-0.083,0.039-1.138,1.798-1.211,2.006c0.982-0.385,1.694-1.457,2.803-1.684
			c-0.291,1.637-2.533,2.677-4.001,3.084c0.423-0.9,1.495-1.569,2.491-1.783c0.86,1.072-0.65,2.683-1.306,3.557
			c0.317-1.051,1.126-2.276,1.932-3.07c0.516,1.436-0.927,3.889-1.729,5.062c0.524-0.773,0.902-1.777,1.764-2.244
			c0.576,1.152,0.009,3.673-0.389,4.893c0.407-0.758,0.749-1.648,1.324-2.251c0.304,1.327,0.315,3.12-0.187,4.427
			c0.142-0.937,0.636-2.039,1.208-2.794c0.289,1.51,0.038,3.309-0.425,4.779c0.036-0.854,0.4-1.71,0.776-2.461
			c0.082,1.24-0.021,3.182-0.781,4.127c0.124-1.095,0.798-2.303,1.325-3.262c0.361,1.285-0.242,3.169-0.886,4.401
			c0.152-0.803,0.529-1.741,1.047-2.367c0.263,0.83-0.045,2.13-0.368,2.972c0.141-0.527,0.39-1.063,0.79-1.395
			c0.045,0.833,0.077,1.746-0.244,2.522c-0.062-0.726,0.203-1.479,0.599-2.091c0.3,0.972,0.005,2.362-0.276,3.402
			c0.038-0.878,0.511-2.124,1.211-2.564c0.216,1.019,0.25,2.357-0.15,3.336c-0.01-0.68,0.167-1.501,0.744-1.764
			c0.198,0.753,0.122,1.547,0.117,2.322c-0.001-0.66,0.129-1.324,0.421-1.923c0.367,1.346,0.299,3.02,0.001,4.402
			c0.154-0.986,0.562-1.823,1.663-1.599c1.343,0.275,2.035,3.696,1.802,4.771c-0.156-0.511-0.18-1.104-0.146-1.661
			c0.253,0.666,0.215,1.455-0.066,2.119c-0.15-0.796,0.128-1.641,0.614-2.279c0.177,0.889-0.109,2.075-0.358,2.932
			c0.132-1.271,0.466-2.511,0.645-3.775c0.099,1.423,0.133,3.023-0.569,4.313c0.026-0.861,0.421-1.764,0.677-2.615
			c0.612,1.367,0.042,3.494-0.182,4.973c0.261-1.495,0.771-3.229,1.381-4.621c0.125,2.025-0.263,4.157-0.866,6.094
			c0.466-1.502,1.073-2.918,1.407-4.461c0.337,1.684-0.049,3.58-0.282,5.29c0.129-1.434,0.56-3.018,1.138-4.33
			c0.364,1.19,0.332,2.868,0.007,4.092c0.161-1.161,0.397-3.036,1.013-3.904c0.106,1.601,0.044,3.228,0.01,4.831
			c0.21-0.911,0.498-1.936,0.879-2.74c0.79,0.956,0.82,2.679,1.243,3.859c0.13-1.1,0.122-2.638,0.766-3.612
			c0.401,1.39,0.292,3.055,0.245,4.487c-0.024-1.356,0.212-2.879,0.795-4.094c0.434,1.58,0.175,3.528,0.154,5.137
			c0.094-1.19,0.361-2.451,0.782-3.57c0.689,1.287,0.233,3.316,0.509,4.75c0.105-1.204,0.229-2.934,1.067-3.857
			c0.526,1.883,0.311,3.85,0.762,5.742c0.107-1.059,0.295-3.494,1.342-3.927c0.781,1.369,0.711,3.551,0.758,5.091
			c-0.055-1.093-0.059-2.421,0.664-3.311c0.85,0.484,0.845,2.416,1.069,3.416c-0.017-0.996,0.019-2.299,0.761-3.034
			c0.376,0.68,0.472,1.572,0.537,2.362c-0.031-0.583-0.005-1.143,0.184-1.691c0.572,0.885,0.525,2.284,0.762,3.33
			c-0.017-1.208,0.017-2.601,0.621-3.646c0.559,1.061,0.497,2.39,0.605,3.565c-0.051-0.662-0.214-2.615,0.655-2.996
			c0.674,1.228,0.523,2.765,1.233,3.992c0.207-0.769,0.129-1.836,0.805-2.276c0.878,0.545,1.086,1.976,1.381,2.907
			c0.006-0.785-0.098-1.629,0.092-2.362c0.481,0.584,0.466,1.545,0.585,2.293c-0.006-0.724-0.105-1.553,0.382-2.075
			c0.341,0.721,0.389,1.695,0.831,2.302c-0.012-0.56-0.015-1.136,0.207-1.653c0.577,0.533,0.523,1.697,0.773,2.515
			c0.18-0.882,0.008-1.886,0.448-2.776c0.785,0.896,0.734,2.543,1.131,3.703c0.12-0.851-0.039-2.127,0.75-2.63
			c0.89,0.81,0.672,2.453,1.276,3.368c0.012-1.146,0.054-2.392,0.637-3.411c0.813,0.661,0.776,2.201,1.091,3.162
			c0.183-0.971,0.101-2.228,0.83-2.969c0.382,0.569,0.558,1.283,0.848,1.902c0.009-0.634,0.055-1.26,0.193-1.879
			c0.445,0.701,0.532,1.785,0.589,2.645c0.077-0.676,0.106-1.359,0.26-2.022c0.239,0.549,0.361,1.333,0.527,1.977
			c0.025-0.744-0.068-1.735,0.41-2.215c0.322,0.828,0.179,1.799,0.648,2.521c0.978-2.646,1.01-0.802,1.651,0.768
			c0.096-1.085-0.155-2.512,0.303-3.336c0.34,0.987,0.209,2.057,0.433,3.073c0.2-1.073-0.031-2.191,0.25-3.252
			c0.54,0.923,0.38,2.211,0.708,3.229c0.043-0.975-0.039-1.948,0.123-2.913c0.233,0.728,0.383,1.551,0.655,2.292
			c0.165-0.787,0.037-1.582,0.31-2.331c0.593,0.675,0.6,1.669,1.083,2.409c0.025-0.695,0.005-1.397,0.021-2.095
			c0.596,0.914,0.663,2.22,0.843,3.345c0.01-1.025-0.043-2.272,0.492-3.177c0.122,0.335,0.387,0.672,0.459,1.035
			c0.055-0.574-0.023-1.175-0.18-1.739c-0.166,1.014,0.06,2.28-0.174,3.26c-0.344-0.911-0.594-1.863-0.989-2.752
			c-0.164,0.862-0.097,1.921-0.521,2.661c-0.551-0.906-0.82-2.759-1.744-3.244c-0.329,0.959-0.199,2.284-0.792,3.103
			c-0.756-0.802-0.931-1.99-1.473-2.928c-0.221,0.701-0.163,1.683-0.458,2.437c-0.761-0.171-0.899-1.362-1.609-1.737
			c-0.448,1.207-0.194,2.764-0.976,3.811c-0.959-0.862-0.908-3.945,0.016-4.727c0.322,0.464,0.441,1.039,0.423,1.61"/>
	</g>
</g>
</svg>
