<?xml version="1.0" encoding="utf-8"?>
<!-- Generator: Adobe Illustrator 16.0.0, SVG Export Plug-In . SVG Version: 6.00 Build 0)  -->
<!DOCTYPE svg PUBLIC "-//W3C//DTD SVG 1.1//EN" "http://www.w3.org/Graphics/SVG/1.1/DTD/svg11.dtd">
<svg version="1.1" id="Capa_1" xmlns="http://www.w3.org/2000/svg" xmlns:xlink="http://www.w3.org/1999/xlink" x="0px" y="0px"
	 width="250px" height="250px" viewBox="0 0 250 250" enable-background="new 0 0 250 250" xml:space="preserve">
<g>
	<g>
		<g>
			
				<path fill="#FFFFFF" stroke="#2A2B20" stroke-width="2.5938" stroke-linecap="round" stroke-linejoin="round" stroke-miterlimit="10" d="
				M184.414,178.436c-0.871-2.653-2.949-3.652-6.496-4.544c0.875-1.622,1.582-3.049,1.785-3.652
				c0.527-1.582,0.232-3.536-0.742-4.891c-1.891-2.621-5.271-2.621-7.293-2.621c-1.039,0-2.199,0.044-3.342,0.115
				c-3.832-12.151-5.082-14.577-9.209-14.577c-0.943,0-1.914,0.268-2.723,0.751c-0.658,0.4-1.203,0.888-2.389,1.967
				c-1.68,1.526-5.754,5.223-9.662,7.521c-1.119-11.153-2.086-21.83-2.086-24.358c0-3.325-0.297-6.79-0.516-8.903
				c3.641-5.305,11.037-16.222,14.182-21.73c4.172-2.841,5.701-11.542,5.713-11.64c0.629-3.842-0.938-5.782-2.369-6.735
				c-0.508-0.342-1.438-0.813-2.48-1.309c0-0.01,0-0.02,0-0.028l0.727-0.243c1.582-0.527,2.809-1.778,3.309-3.369
				c0.379-1.217,0.309-2.396-0.008-3.55c1.639-2.6,2.434-5.721,2.102-8.657c-0.387-3.413-2.25-6.42-4.914-8.231
				c1.686-0.512,3.049-1.826,3.52-3.593c0.352-1.318,0.332-3.085-0.055-4.396c-0.617-2.1-2.602-3.597-4.789-3.725
				c-0.283-0.016-0.578-0.088-0.879-0.147c-0.586-0.11-1.303-0.22-2.061-0.271c1.131-1.467,1.762-3.245,1.65-5.039
				c-0.197-3.205-2.566-5.65-6.039-6.229c-2.082-0.346-4.146,0.573-5.254,2.373c-0.176,0.25-0.416,0.46-0.639,0.688
				c-0.672,0.684-1.588,1.618-2.287,2.875c-0.02,0.038-0.027,0.082-0.047,0.12c-0.26-0.026-0.531-0.07-0.775-0.07
				c-1.439,0-2.773,0.439-3.889,1.243c0.107-1.7-0.352-3.312-0.688-4.464c-0.076-0.247-0.152-0.483-0.195-0.687
				c-0.299-2.605-2.514-4.604-5.158-4.604c-4.164,0-6.454,5.068-6.518,7.236c-0.056,2.098,0.715,3.92,1.279,5.271
				c0.483,1.147,1.374,2.014,2.446,2.562c-0.959,1.395-1.123,2.808-1.127,3.557c0,1.784,0.715,3.301,1.797,4.571
				c-0.414,0.833-0.699,1.762-0.826,2.763c-1.131,1.058-2.014,2.508-2.606,3.755c-0.14-0.036-0.259-0.08-0.403-0.116l-6.421-28.643
				c-0.388-1.73-1.634-3.142-3.301-3.744c-0.284-0.104-7.125-2.542-15.121-2.542c-2.262,0-4.436,0.196-6.461,0.58
				c-9.746,1.852-17.334,8.271-19.988,11.41c-1.862,2.21-2.286,3.77,1.818,20.537c-0.044,0.575,0.012,1.162,0.164,1.736l2.326,8.613
				c0.096,0.359,0.232,0.701,0.408,1.019c0.032,0.134,0.064,0.264,0.1,0.392c-4.783,3.435-7.645,8.237-8.008,13.641
				c-0.392,5.754,2.122,11.292,6.394,14.111c2.562,1.69,5.091,2.629,7.533,2.801c0.255,0.176,0.523,0.328,0.803,0.456
				c0.168,0.43,0.332,0.856,0.5,1.282c-0.367,1.539-0.483,3.272-0.248,4.865c-0.483,1.272-0.615,2.703-0.344,4.176
				c0.284,1.509,0.955,2.859,1.902,3.946c-0.048,1.962,0.348,3.844,0.947,5.087c0.616,1.263,1.535,2.233,2.633,2.835
				c0.771,1.248,1.791,2.359,3.013,3.187c-0.168,0.176-0.316,0.361-0.452,0.556c-0.556,0.396-0.859,0.636-1.079,0.821
				c-0.372,0.317-0.695,0.682-0.963,1.089c-12.767,19.275-11.564,23.144-10.985,25.006c0.647,2.086,2.985,9.118,4.647,14.085
				c-7.376,3.988-11.305,6.865-10.366,12.132l-0.02,0.004l0.204,2.11c0.14,1.515,0.332,3.557,0.555,5.773
				c-4.16,3.197-6.178,4.684-6.637,4.972c-2.042,1.259-3.041,3.54-2.549,5.817c0.56,2.558,2.438,3.849,5.119,4.62
				c-2.082,10.493-0.987,11.859,0.156,13.302c0.983,1.235,2.662,2.055,4.244,2.055c0.363,0,0.783-0.044,1.139-0.12
				c0.14-0.032,13.998-4.076,13.998-10.078c0-0.583,0-0.583-0.623-3.796l-0.348-1.79c2.473-2.266,6.869-5.271,15.444-7.021
				c6.517-1.338,13.13-1.238,19.452-1.183c1.334,0.013,2.669,0.021,3.999,0.021c7.561,0,16.363-0.28,25.18-3.608
				c3.553-1.339,6.637-2.638,9.254-3.889c1.195,3.956,2.314,5.438,4.76,6.046c0.428,0.108,0.83,0.132,1.346,0.16
				c2.078,0,3.672-0.107,14.734-12.571C184.539,182.295,184.986,180.189,184.414,178.436z M137.291,78.938
				c0.822,0.451,1.662,0.847,2.465,1.179l0.023,0.304c0.068,0.839,0.225,1.642,0.393,2.425c-0.096,0.16-0.188,0.324-0.275,0.492
				c-0.855,1.638-2.203,5.778-1.746,9.29l-2.031,3.213c-1.182-3.257-2.59-6.142-3.248-7.425
				C136.191,85.318,137.07,80.703,137.291,78.938z"/>
		</g>
		<g>
			<path fill="#61B262" d="M85.383,76.936c0,0-8.379-30.728-7.101-32.239c1.283-1.515,7.8-7.912,16.995-9.658
				c9.195-1.749,18.853,1.744,18.853,1.744l7.568,33.751C121.698,70.533,89.107,73.561,85.383,76.936z"/>
			<path fill="#358737" d="M117.043,52.148c0,0-8.847-2.098-18.273,0.695c-9.43,2.793-17.458,9.429-17.458,9.429l2.325,8.613
				c0,0,8.496-8.382,19.552-9.429s16.176,1.047,16.176,1.047L117.043,52.148z"/>
			<path fill="#E9BB43" d="M107.149,51.109c-2.613,0.06-6.27,0.359-8.399,2.084c0.324,2.032,0.424,7.295,2.39,7.922
				c0.739,0.235,2.769-0.298,3.541-0.365c2.333-0.206,4.635-0.64,6.985-0.474C111.884,56.672,112.132,50.997,107.149,51.109z
				 M107.229,58.306c-3.784,0.26-4.547,0.815-4.835-3.588c1.866-0.15,5.167-1.631,6.489,0.124
				C110.042,56.368,109.007,58.183,107.229,58.306z"/>
			<path fill="#E9BB43" d="M119.349,161.425c5.151-7.94,7.177-17.351,11.005-25.929c1.143-2.55,2.834-5.475,2.701-8.376
				c-0.104-2.288-1.119-4.218-1.982-6.288c-0.711-1.724-1.422-3.649-2.297-5.476c-6.142,3.624-17.167,10.165-24.759,14.849
				C111.692,139.263,110.454,153.316,119.349,161.425z"/>
			<path fill="#358737" d="M90.914,99.851c0,0-7.572-0.79-11.356-6.322s0.583-14.851,7.281-16.891
				c6.697-2.038,34.652-9.025,42.809-2.911c0,0,5.529,6.697,0.871,11.064c-4.66,4.368-17.475,7.864-17.475,7.864L90.914,99.851z"/>
			<path fill="#D7A639" d="M164.643,169.464c0.336-0.251,11.756-1.398,11.293,0c-0.469,1.399-4.424,8.148-4.887,8.615
				c-0.469,0.464,10.469,1.979,9.537,3.025c-0.93,1.047-10.006,11.057-10.936,10.821
				C168.715,191.693,163.711,170.159,164.643,169.464z"/>
			<path fill="#D7A639" d="M82.822,192.74c0,0-9.422,7.333-10.941,8.264c-1.51,0.932,6.058,1.862,6.058,1.862
				s-3.381,14.665-1.75,14.313c1.634-0.348,9.894-4.651,9.894-5.003C86.083,211.829,82.59,194.95,82.822,192.74z"/>
			<path fill="#61B262" d="M138.545,125.616c0,0,14.689-23.658,15.156-26.1c0.469-2.446-8.611-5.471-8.611-5.471l-11.756,18.621
				c0,0-1.414,0.831-3.668,2.161c0.916,1.895,0.967,4.196,1.719,6.015c0.863,2.094,2.801,3.91,2.709,6.258
				c-0.076,1.93-4.283,5.131-5.035,6.904c-2.242,5.314-0.592,9.227-2.582,14.637c-1.77,4.819-3.691,9.586-6.573,13.861
				c-0.191,0.292-0.543,0.353-0.815,0.124c-9.554-8.144-7.98-22.665-15.968-31.868c-3.576,2.22-6.25,3.943-7.029,4.605
				c0,0-11.408,17.226-10.357,20.598c1.047,3.377,6.749,20.371,6.749,20.371s10.589-0.587,9.89-3.145
				c-0.699-2.562-1.337-18.589-1.337-18.589l5.88,16.611l34.217-3.493c0,0,0.82,0.296,0.82-4.591
				C141.955,158.235,138.545,125.616,138.545,125.616z"/>
			<path fill="#3FAB44" d="M142.709,59.485c0,0-0.115,7.218-3.256,7.45c-3.146,0.229-3.029-3.725-1.631-5.005
				c0,0-3.725,2.793-4.072,0.115c-0.348-2.677,3.373-5.005,3.373-5.005s-6.754-4.925-2.682-6.787
				c4.076-1.861,5.701,0.234,5.701,0.234s-0.578-4.19,2.1-3.727c2.672,0.468,4.77,3.145,2.441,6.054c0,0,4.658-2.176,5.357,0.504
				c0.699,2.677-1.979,3.838-1.979,3.838s4.193,2.562-2.209,3.263c0,0,11.752,17.221,11.172,19.085l-1.746,0.583
				C155.279,80.088,143.875,60.3,142.709,59.485z"/>
			<path fill="#F2B8BE" stroke="#F2B8BE" stroke-width="0.7833" stroke-miterlimit="10" d="M123.788,71.353
				c0.348,0.036,4.075,17.339,5.354,19.784c1.283,2.443,4.775,9.776,4.891,14.197c0.117,4.424-1.281,8.03-1.281,8.729
				s-13.967,12.104-22.814,9.312c-8.843-2.793-13.614-9.429-14.781-10.594c-1.159-1.162-6.981-15.827-7.564-19.436
				c-0.579-3.608-3.025-15.712-2.209-16.411C86.198,76.24,110.638,69.954,123.788,71.353z"/>
			<path fill="#F2B8BE" stroke="#F2B8BE" stroke-width="0.7833" stroke-miterlimit="10" d="M149.035,76.653
				c5.047,4.31,10.449-2.204,9.877-7.225c-0.264-2.338-1.877-4.617-4.227-5.253C148.666,62.54,144.711,72.959,149.035,76.653z"/>
			<path fill="#ED704F" d="M106.633,82.688c-0.367,0.046-4.675,1.855-3.137,2.503c-0.871-0.367-1.654,0.128-1.398,1.065
				c-0.368,0.054-1.323,1.506-1.375,1.66c-0.292,0.905-0.655,1.398,0.22,2.361c0.979,0.05,1.974-0.573,1.994-1.708
				c0.304,1.121,2.114-0.038,1.842-1.309c0.743-0.1,1.458-0.607,1.423-1.267c0.863,0.815,1.49-0.176,1.411-1.151
				c0.363,0.298,0.899,0.508,1.287,0.817C109.539,83.618,108.479,82.436,106.633,82.688z"/>
			<path fill="#ED704F" d="M126.273,80.636c-0.5-0.55-4.092-2.22-3.432-0.563c-0.448-0.903-1.982-1.016-2.338,0.115
				c-0.975-1.122-2.198-0.509-2.21,0.768c-0.012,1.299,1.75,1.884,2.158,1.097c0.072,0.923,0.891,1.988,1.458,0.762
				c0.531,0.589,1.327,0.885,1.89,0.325c0.188,0.716,0.571,0.857,1.302,0.709C126.885,83.49,127.52,82.008,126.273,80.636z"/>
			<path fill="#1D1D1B" d="M108.396,94.01c0.116,1.119,1.062,4.191,2.685,3.616c1.918-0.691,0.396-6.749-0.719-7.488
				C108.244,88.729,108.244,92.615,108.396,94.01z"/>
			<path fill="#1D1D1B" d="M125.678,93.612c2.617,1.944,2.678-4.154,1.754-5.391C124.635,84.453,123.249,91.808,125.678,93.612z"/>
			
				<path fill="#F2B8BE" stroke="#F2B8BE" stroke-width="0.7833" stroke-linecap="round" stroke-linejoin="round" stroke-miterlimit="10" d="
				M126.309,97.862l0.695,1.162c-0.359-0.52-0.723-1.131-1.021-1.712c-0.236,2.18-0.439,4.27-1.507,6.312
				c0.975-0.556,2.78-1.171,3.128-2.233C128.008,100.159,126.469,98.811,126.309,97.862z"/>
			<path fill="#FFFFFF" d="M124.507,108.931c-0.551-1.293-4.827-1.087-5.862-1.093c-3.636-0.03-3.097,4.993-0.352,5.978
				C120.516,114.61,125.75,111.823,124.507,108.931z"/>
			<path fill="#ED704F" d="M97.487,73.562c-2.949-0.09-4.248,6.659-4.052,8.649c0.208,2.088,1.878,4.503,1.51,6.581
				c-1.838-0.229-1.53,0.491-1.77,1.532c-0.396,1.738,2.434,6.831,0.647,8.152c-1.079,0.799-4.184,1.158-5.818,1.456
				c-3.334-3.472-4.869-13.36-3.292-20.926c0.867-4.169,5.223-4.114,8.551-5.025c1.495-0.412,2.957-0.747,4.456-0.188"/>
			<path fill="#ED704F" d="M113.199,72.048c1.323,1.037,3.732,1.427,5.207,3.36c0.675,0.882,0.064,1.606,1.458,1.431
				c0.863-0.107,1.338-1.259,1.802-1.876c3.776,4.313,4.664-3.54,1.41-4.445c-2.813-0.783-7.296-0.472-9.762,1.299"/>
			<g>
				<path fill="none" stroke="#1D1D1B" stroke-width="0.7833" stroke-miterlimit="10" d="M146.797,87.908
					c0.008-0.024,0.008-0.052,0.012-0.078c-0.279-0.074-0.512-0.142-0.684-0.204L146.797,87.908z"/>
				<path fill="#F2B8BE" stroke="#F2B8BE" stroke-width="0.7833" stroke-miterlimit="10" d="M152.723,79.209
					c1.264-2.665,4.488-10.634-0.826-11.484c-2.65-0.424-4.764,2.861-7.125,2.973c-1.256,0.061-6.346-0.107-6.746,1.515
					c-0.492,2,6.234,4.743,7.781,4.959c0.1,1.221,0.188,2.453,0.295,3.681c0.176,2.073,1.367,4.952,0.707,6.979
					c2.01,0.525,6.318,1.265,6.33,1.131C153.479,85.69,151.283,82.237,152.723,79.209z"/>
				<path fill="none" stroke="#1D1D1B" stroke-width="0.7833" stroke-miterlimit="10" d="M146.125,87.626l-0.248-0.104
					C145.934,87.555,146.018,87.59,146.125,87.626z"/>
			</g>
			<path fill="#358737" d="M157.541,90.321c-1.047-0.699-10.121-4.771-11.172-4.539c-1.047,0.231-2.557,5.818-1.746,7.798
				c0,0,8.264,6.867,9.547,6.516C155.447,99.748,158.592,91.021,157.541,90.321z"/>
			<path fill="#E9BB43" d="M148.195,93.043c1.426,1.429,2.322,0.325,1.811-1.351C149.066,88.594,147.197,92.034,148.195,93.043z"/>
			<path fill="#E9BB43" d="M157.662,55.688c0.104-0.396,0.1-1.192-0.02-1.598c-2.162-0.076-5.24-1.723-4.9,1.7
				C154.381,55.625,156.02,55.729,157.662,55.688z"/>
			<path fill="#E9BB43" d="M149.65,42.334c-0.736,1.201-2.105,2.101-2.801,3.351c-0.232,0.418,1.777,1.001,2.08,0.909
				C151.125,45.946,152.746,42.85,149.65,42.334z"/>
			<path fill="#E9BB43" d="M131.572,39.889c-0.008-0.12-1.311,1.467-1.334,2.182c-0.029,1.031,0.482,2.182,0.879,3.117
				C133.766,45.319,131.688,41.39,131.572,39.889z"/>
			<path fill="#E9BB43" d="M130.182,67.931c0.492,0.281,1.162,0.465,1.742,0.413c0.639-0.06,0.818-3.548,0.355-4.027
				C131.488,64.921,130.48,66.894,130.182,67.931z"/>
			<path fill="#358737" d="M130.809,119.446c0,0-4.803,20.108-7.948,29.184c-3.145,9.082-3.488,12.803-3.724,11.876
				c-0.236-0.932-11.756-29.797-11.756-29.797s0.935-3.725-1.978-2.21c-1.447,0.747-5.019,3.169-7.417,5.143
				c2.753,0.955,5.391,2.325,8.352,2.465c0.271,0.012,0.536,0.216,0.527,0.512c-0.064,3.356,0.364,6.652,0.943,9.93
				c6.138,10.253,12.312,23.827,13.391,20.654c1.79-5.258,5.418-15.607,8.918-24.507c-0.107-0.743-0.219-1.479-0.295-2.222
				c-0.096-0.987-0.955-4.331-0.264-5.082c2.27-2.449,4.707-4.734,7.076-7.077c0.428-0.659,0.807-1.118,1.123-1.33L130.809,119.446z
				"/>
			<g>
				<path fill="#61B262" d="M124.987,131.544c0.568-0.016,0.867-0.567,0.176-0.709c0.252,0,0.783-0.026,0.859-0.322
					c0.072-0.3-0.583-0.899-0.863-0.915c0.192-0.208,0.448-0.021,0.648-0.188c0.494-0.412-0.192-0.961-0.604-1.065
					c0.383,0.062,0.719-0.315,0.352-0.617c-0.204-0.164-0.788,0.032-1.027,0.08c0.819-0.424,1.578-1.643,0.12-1.44
					c-0.735,0.102-1.423,0.629-2.042,1.024c-0.516,0.328-1.487,0.804-1.878,1.343c-0.308,0.056-0.639,0.112-0.951,0.072
					c-1.039-0.132-2.194-0.615-3.137-1.058c-0.328-0.155-1.075-0.665-1.45-0.561c-0.388,0.107-0.508,0.613-0.384,0.999
					c-0.271,0.01-0.295,0.807,0.448,0.887c-0.955,0.172-1.519,0.823-0.404,1.343c-0.152-0.06-0.315-0.026-0.472-0.032
					c-0.008,0.328,0.34,0.668,0.688,0.712c-0.611,0.102-0.883,0.687-0.228,0.779c-0.999,0.014-0.492,0.938,0.08,1.051
					c-0.471,0.195-0.423,1.198,0.408,0.938c-0.392,0.264-0.743,0.819-0.324,1.159c0.208,0.176,1.566-0.436,1.882-0.537
					c0.983-0.316,1.826-0.865,2.697-1.409c0.531-0.336,0.771-0.264,1.402-0.188c1.383,0.172,3.029,1.152,4.396,0.943
					C126.777,133.616,125.883,131.949,124.987,131.544z"/>
				<path fill="#358737" d="M121.199,132.255c0.248-0.944,0.771-4.298-0.963-4.35c-1.359-0.042-1.019,2.661-0.995,3.513
					c0.016,0.565,0.192,1.704,0.819,1.95C120.695,133.618,121.063,132.763,121.199,132.255z"/>
			</g>
			<path fill="#E9BB43" d="M80.145,182.73c0.008,0.028,0.032,0.188,0.06,0.464c0.343,3.324,2.026,23.46,3.32,22.812
				c1.391-0.695,5.235-8.264,21.183-11.52c15.94-3.257,32.119,1.398,47.832-4.54c15.711-5.934,16.76-8.959,16.76-8.959
				s-7.912-27.352-9.08-26.652c-1.162,0.695-11.057,11.173-18.969,12.104c-7.916,0.931-38.876,2.094-48.418,7.101
				C83.289,178.543,79.681,180.521,80.145,182.73z"/>
			<g>
				
					<path fill="none" stroke="#C3970C" stroke-width="1.2969" stroke-linecap="round" stroke-linejoin="round" stroke-miterlimit="10" d="
					M90.742,181.104c0.496,0.248-1.291,0.671-1.906,1.019c-1.435,0.823-2.585,2.242-4.024,2.913c0.907-1.143,2.857-1.65,4.208-2.146
					c0.855,1.49,1.187,4.151,1.706,5.906c0.456,1.53,1.355,3.473,1.163,5.091c-1.227,0.063-2.821,1.162-3.908,1.75
					c0.979-0.068,6.054-2.709,6.018-2.781"/>
				
					<path fill="none" stroke="#C3970C" stroke-width="1.2969" stroke-linecap="round" stroke-linejoin="round" stroke-miterlimit="10" d="
					M103.772,189.017c-1.291,1.594-4.54,3.177-6.601,3.96c1.135-0.231,2.565-1.111,3.452-1.727c-2.206-1.734-2.897-6.038-3.84-8.527
					c-0.863-2.27-2.046-1.894-3.964-0.487c2.457-1.958,7.48-5.63,10.629-3.353c4.112,2.969-2.493,6.841-4.767,8.279
					c3.457-0.023,5.934,0.884,9.035,2.142c-0.132-0.986-0.791-1.981-1.243-2.904c0.008,0.999,0.979,2.341,1.139,2.732"/>
				
					<path fill="none" stroke="#C3970C" stroke-width="1.2969" stroke-linecap="round" stroke-linejoin="round" stroke-miterlimit="10" d="
					M114.366,175.634c-2.27,1.331-4.875,1.763-7.217,2.793c1.583,0.492,3.756-0.339,4.659-1.714
					c-0.775,3.776,2.058,7.177,2.398,10.55c-1.251-0.536-2.598-0.112-3.764,0.339c2.785,0.156,6.377-0.823,8.891-1.606
					c-0.412-1.143-0.563-2.337-0.907-3.477c0.004,1.043,0.571,2.558,0.475,3.357"/>
				
					<path fill="none" stroke="#C3970C" stroke-width="1.2969" stroke-linecap="round" stroke-linejoin="round" stroke-miterlimit="10" d="
					M134.15,185.644c0.211,0.148-1.061,0.779-1.707,1.251c-1.023,0.751-2.014,1.538-2.957,2.39c1.1-0.875,2.537-2.369,3.928-2.594
					c-1.506-0.3-3.404-4.767-4.084-5.874c-1.277-2.069-1.459-4.639-2.514-6.816c-1.438,3.517-2.049,8.443-2.221,12.199
					c-0.583,0.168-1.179,0.372-1.766,0.491c1.147,0.108,2.874-0.415,3.409-0.119"/>
				
					<path fill="none" stroke="#C3970C" stroke-width="1.2969" stroke-linecap="round" stroke-linejoin="round" stroke-miterlimit="10" d="
					M144.971,172.025c3.863-2.909,10.41-3.356,9.566,3.385c-0.439,3.501-3.309,7.681-6.977,8.164
					c0.867,0.252,1.826,0.052,2.43-0.607c-1.723-3.437-1.83-7.96-3.037-11.641"/>
				
					<path fill="none" stroke="#C3970C" stroke-width="1.2969" stroke-linecap="round" stroke-linejoin="round" stroke-miterlimit="10" d="
					M164.875,175.75c-0.148,0.239-0.121,0.512-0.443,0.728c0.191,0.256,0.207,0.383,0.52,0.567c-2.002-2.094-2.646-5.195-4.32-7.585
					c-0.588-0.839-1.486-2.688-2.369-3.001c-0.156,3.561,0.846,7.809-0.1,11.237c-0.473,1.698-1.049,1.118-2.322,2.13
					c1.314,0.016,2.762-0.392,3.816-0.584c-0.824,0.04-1.596-0.144-2.346,0"/>
				
					<path fill="none" stroke="#C3970C" stroke-width="1.2969" stroke-linecap="round" stroke-linejoin="round" stroke-miterlimit="10" d="
					M123.676,183.082c-0.192,0.08-0.355,0.005-0.459,0.212c2.03-0.511,4.324-1.15,6.277-1.958"/>
				
					<path fill="none" stroke="#C3970C" stroke-width="1.2969" stroke-linecap="round" stroke-linejoin="round" stroke-miterlimit="10" d="
					M139.156,186.224c-1.195,0.787-2.961,0.942-4.303,1.347c0.582-0.3,2.002-0.588,2.385-1.091c0.799-1.063,0.301-4.017,0.137-5.163
					c-0.336-2.405-0.365-5.698-1.148-7.988c0.797,1.706,3.09,2.997,4.344,4.439c0.977,1.127,1.727,2.298,2.539,3.545
					c0.686,1.059,1.342,2.018,2.309,2.809c0.156-3.731-2.105-7.296-1.85-11.032c-0.936-0.092-1.951-0.436-2.877-0.148
					c0.822-0.371,1.873-0.583,2.756-0.783c0.561-0.124,1.871-0.635,1.523-0.247"/>
				<path fill="none" stroke="#C3970C" stroke-width="1.2969" stroke-miterlimit="10" d="M155.564,167.022
					c0.23,0.38,3.879-1.718,4.191-1.63"/>
				
					<path fill="none" stroke="#C3970C" stroke-width="1.2969" stroke-linecap="round" stroke-linejoin="round" stroke-miterlimit="10" d="
					M157.541,173.424c1.994-0.671,4.152-1.282,6.059-2.209c-0.26,0.115-0.555,0.155-0.818,0.228"/>
			</g>
			<path fill="#61B262" d="M127.977,86.744c0,0,4.307-2.94,4.074-6.666c-0.23-3.723-4.307-8.845-14.312-8.613
				c-10.01,0.233-30.841,3.96-35.032,9.079c-4.192,5.12-5.239,13.154,0.583,15.947c5.818,2.791,4.684,2.976,4.684,2.976
				s-2.122,1.212-7.592-2.396c-5.471-3.608-7.561-16.687,7.212-21.997c16.719-6.006,44.228-12.338,45.741,3.724
				C133.334,78.797,132.404,85.229,127.977,86.744z"/>
			<path fill="#ED704F" d="M133.346,113.922c-0.066-0.264,0.381-1.072,0.34-1.39c-0.039-0.302,0.809-0.781,0.812-1.191
				c0.008-1.227-0.348-2.771-2.047-2.39c-0.711,0.158-1.586,1.915-2.094,2.193c-0.764,0.415-1.434,0.065-2.258,0.775
				c-1.123,0.971-1.826,2.887-2.573,4.144c-0.775-2.403-2.797,1.551-3.289,2.545c-0.56-1.848-4.008-0.279-3.792,1.559
				c-0.699-0.006-1.498,0.764-1.97,0.47c-0.244-0.149-0.144-1.856-0.571-2.248c-0.971-0.887-2.07,0.088-3.285,0.08
				c0.308-3.024-2.478-3.754-4.999-3.013c1.103-2.729-1.734-4.588-4.156-4.439c0.971-1.053,1.067-2.215-0.02-4.005
				c-0.873-0.788-1.466-0.466-1.908-0.138c-0.326,0.24-0.763-0.071-0.777-0.429c-0.046-1.207-0.841-4.267-2.861-3.482
				c-0.388,0.15-0.708-0.268-0.639-0.618c0.209-1.081-1.619-4.634-3.703-4.375c-0.202,0.025,0.106-1.06-0.533-0.932
				c-0.333-0.104-1.137,1.381-1.471,1.278c-0.803,1.012-0.112,3.355,0.512,4.22c-1.614-0.967,0.747,2.322,0.651,3.264l-0.348-0.466
				c-1.359,0.607-1.754,6.418-0.132,6.074c-2.642,1.089-1.243,5.039,1.298,5.091c-1.422,1.802-0.479,7.876,1.279,5.158
				c0.244,2.867,3.285,6.126,6.262,4.044c0.16,2.062,1.63,4.092,3.72,4.61c1.203,0.297,3.512,0.195,3.396-1.489
				c-0.587,5.809,9.195,7.101,8.024,0.751c1.294,1.107,3.684,1.147,5.083,0.08c1.011-0.767,1.179-2.797,2.046-3.349
				c1.015-0.644,2.405,0.879,3.552-0.799c0.576-0.835,0.348-2.246,0.523-3.165c1.436,0.859,2.277-0.18,2.895-1.362
				c0.73-1.406,0.795-1.918,1.996-3.113C134.062,116.123,133.842,115.796,133.346,113.922z"/>
		</g>
	</g>
	<path fill="#F2B8BE" d="M90.785,100.379c0,0-4.088-2.36-3.774,0.708c0.313,3.067,0.787,8.022,2.675,7
		c1.886-1.023,1.808-2.202,1.808-2.202"/>
</g>
</svg>
