<?xml version="1.0" encoding="utf-8"?>
<!-- Generator: Adobe Illustrator 16.0.0, SVG Export Plug-In . SVG Version: 6.00 Build 0)  -->
<!DOCTYPE svg PUBLIC "-//W3C//DTD SVG 1.1//EN" "http://www.w3.org/Graphics/SVG/1.1/DTD/svg11.dtd">
<svg version="1.1" id="Capa_1" xmlns="http://www.w3.org/2000/svg" xmlns:xlink="http://www.w3.org/1999/xlink" x="0px" y="0px"
	 width="250px" height="250px" viewBox="0 0 250 250" enable-background="new 0 0 250 250" xml:space="preserve">
<g>
	<path opacity="0.7" fill-rule="evenodd" clip-rule="evenodd" fill="#5D5D5D" d="M177.924,64.5H78.689
		c-1.006,0-3.189,1.377-3.189,2.378v42.083c0,57.567,50.979,77.056,51.48,77.251c0.215,0.072,0.774,0.108,0.987,0.108
		c0.221,0,0.493-0.036,0.69-0.108c0.502-0.195,50.842-19.685,50.842-77.251V66.878C179.5,65.877,178.947,64.5,177.924,64.5z
		 M128.305,182.161h-0.002c0.191,0,0.432-0.059,0.701-0.153C128.736,182.103,128.496,182.161,128.305,182.161z M130.227,181.464
		c1.059-0.545,2.395-1.346,3.953-2.206C132.617,180.12,131.285,180.919,130.227,181.464z M134.215,179.575
		c0.992-0.553,2.076-1.181,3.227-1.887C136.289,178.395,135.211,179.022,134.215,179.575z"/>
	<g>
		<g>
			<path fill="#F2A432" d="M122.246,184.927c-0.213,0-0.431-0.036-0.644-0.107c-0.503-0.195-50.802-19.684-50.802-77.252V65.484
				c0-1,0.824-1.827,1.83-1.827h99.235c1.021,0,1.828,0.827,1.828,1.827v42.083c0,57.568-50.297,77.057-50.801,77.252
				C122.697,184.891,122.464,184.927,122.246,184.927L122.246,184.927z M74.478,67.337v40.23c0,51.537,42.027,71.116,47.769,73.538
				c5.744-2.422,47.789-22.054,47.789-73.538v-40.23H74.478z M74.478,67.337"/>
		</g>
		<g>
			<path fill="#FFFFFF" d="M106.321,171.69c7.505,5.641,13.915,8.571,15.917,9.415c2.004-0.847,8.426-3.784,15.936-9.438V67.337
				h-31.853V171.69z"/>
			<path fill="#CA3831" d="M138.174,171.667c14.023-10.556,31.852-30.574,31.852-64.1v-40.23h-31.852V171.667z"/>
			<path fill="#386131" stroke="#1D1D1B" stroke-width="0.1474" stroke-miterlimit="10" d="M106.321,171.69V67.337H74.469v40.23
				C74.469,141.139,92.304,161.146,106.321,171.69z"/>
		</g>
		<g id="_x33_VxDGV_2_">
			<g>
				
					<path fill-rule="evenodd" clip-rule="evenodd" fill="#F2A432" stroke="#F2A432" stroke-width="0.6827" stroke-miterlimit="10" d="
					M133.627,156.219c0.848-0.354,1.58-0.332,2.277-0.416c0.568-0.071,0.705-1.411,0.254-2.192c0.387-0.126,0.744-0.284,1.115-0.355
					c0.562-0.104,0.777-0.453,0.613-1.004c-0.279-0.923-0.512-1.86-0.783-2.789c-0.082-0.284-0.23-0.553-0.342-0.831
					c-0.24-0.608-0.484-1.217-0.709-1.834c-0.068-0.185-0.061-0.395-0.127-0.582c-0.332-0.957-0.752-1.076-1.576-0.396
					c-0.152-0.13-0.309-0.267-0.475-0.4c-0.287-0.231-0.561-0.486-0.873-0.68c-0.438-0.279-0.848-0.439-0.475-1.145
					c0.143-0.273-0.262-0.854-0.459-1.275c-0.08-0.165-0.283-0.273-0.471-0.444c-0.57,0.149-1.191,0.314-1.965,0.518
					c0.26-0.318,0.445-0.544,0.613-0.749c-0.301-0.244-0.57-0.462-0.883-0.717c-0.158,0.009-0.488,0.025-0.689,0.033
					c-0.395-0.713-0.695-1.362-1.092-1.949c-0.227-0.327-0.543-0.665-1.082-0.467c-0.18,0.066-0.475,0.036-0.631-0.074
					c-0.475-0.338-0.906-0.349-1.407-0.056c-0.102,0.058-0.364-0.115-0.53-0.218c-0.47-0.296-0.924-0.616-1.394-0.91
					c-0.097-0.059-0.307,0.015-0.365-0.055c-0.57-0.694-1.092-1.432-1.687-2.106c-0.42-0.476-0.934-0.864-1.402-1.299
					c-0.248-0.228-0.566-0.424-0.719-0.706c-0.63-1.149-1.094-1.384-2.438-1.275c-0.429,0.035-0.398-0.27-0.163-0.539
					c0.061-0.07,0.118-0.145,0.254-0.315c-0.636-0.598-1.244-1.176-1.963-1.85c0.097-0.688,0.064-0.716-1.125-0.686
					c0.067-0.407,0.235-0.822,0.169-1.193c-0.091-0.504-0.263-1.057-0.578-1.441c-0.48-0.588-0.48-1.254-0.541-1.909
					c-0.092-0.968-0.658-1.691-1.551-1.963c-0.505-0.155-1.031-0.367-1.443-0.688c-0.995-0.771-2.176-1.104-3.339-1.41
					c-0.367-0.096-0.973,0.255-1.304,0.573c-0.542,0.517-0.996,1.146-1.402,1.779c-0.432,0.675-1.83,1.468-2.618,1.341
					c-0.196-0.03-0.365-0.21-0.608-0.359c0.247-0.279,0.481-0.472,0.62-0.722c0.13-0.231,0.155-0.521,0.227-0.785
					c-0.235-0.044-0.478-0.157-0.696-0.118c-1.255,0.221-2.912-1.093-2.801-2.303c0.034-0.34,0.31-0.664,0.499-0.979
					c0.314-0.525,0.246-0.824-0.407-0.995c-0.235-0.061-0.467-0.393-0.567-0.652c-0.171-0.45,0.147-0.974,0.594-1.117
					c1.059-0.346,1.263-1.105,0.619-2.034c-0.39-0.559-0.674-1.191-1.094-1.949c0.975-0.188,1.786-0.301,2.574-0.503
					c0.602-0.155,1.141-0.566,1.81-0.094c0.13,0.091,0.738-0.191,0.832-0.42c0.191-0.465,0.97-0.693,0.597-1.398
					c-0.036-0.07,0.091-0.255,0.183-0.352c0.197-0.21,0.403-0.415,0.633-0.589c0.169-0.127,0.374-0.204,0.561-0.304
					c0.056,0.18,0.152,0.359,0.163,0.544c0.05,0.725,0.514,1.294,1.22,1.54c0.152,0.05,0.257,0.266,0.364,0.415
					c0.125,0.165,0.227,0.345,0.396,0.604c0.799-1.105,1.879-1.915,1.628-3.436c0.083-0.022,0.168-0.047,0.251-0.072
					c0.193,0.222,0.448,0.415,0.572,0.672c0.24,0.501,0.478,0.808,1.098,0.481c0.522-0.273,1.089-0.465,1.415,0.317
					c0.047,0.117,0.205,0.183,0.334,0.297c0.066-0.396-0.138-0.985-0.249-1.313c-0.075-0.235-0.017-0.595,0.13-0.791
					c0.094-0.127,0.456-0.103,0.686-0.069c0.16,0.02,0.29,0.208,0.453,0.246c0.15,0.036,0.32-0.036,0.481-0.058
					c-0.047-0.149-0.047-0.346-0.147-0.445c-0.445-0.439-0.019-0.924,0.161-1.078c0.232-0.202,0.84-0.246,1.111-0.077
					c0.887,0.556,1.1,0.548,1.639-0.332c0.13-0.213,0.368-0.478,0.584-0.506c1.266-0.144,2.54-0.224,3.781-0.326
					c0.273,0.424,0.547,0.943,0.909,1.388c0.381,0.468,0.876,0.699,1.535,0.782c1.533,0.191,3.048,0.534,4.737,0.849
					c-0.545,0.517-1.037,0.984-1.575,1.499c0.528,0.234,0.876,0.39,1.226,0.542c0.027,0.079,0.055,0.162,0.082,0.242
					c-0.318,0.186-0.633,0.371-1.078,0.634c0.434,0.19,0.619,0.272,0.84,0.37c-0.229,0.578-0.244,1.006,0.564,1.1
					c0.232,0.025,0.445,0.438,0.605,0.708c0.041,0.069-0.115,0.304-0.23,0.4c-0.047,0.036-0.285-0.074-0.354-0.174
					c-0.219-0.317-0.395-0.66-0.592-0.997c-0.793,0.633-0.793,0.633-1.588,0.278c-1.115,0.559-2.068,1.104-3.077,1.523
					c-0.517,0.218-0.99,0.417-1.075,1c-0.085,0.57-0.061,1.123,0.517,1.524c0.202,0.143,0.379,0.538,0.337,0.776
					c-0.088,0.473-0.428,0.771-0.976,0.569c-0.183,2.042,0.351,4.234,2.51,5.139c0.476,0.195,0.871,0.589,1.296,0.896
					c0.387,0.278,0.741,0.746,1.158,0.807c0.924,0.139,0.904,0.871,1.191,1.451c0.842,1.711,0.922,3.743,2.18,5.266
					c0.424,0.515,0.949,0.969,1.488,1.368c0.713,0.534,1.135,1.441,2.098,1.653c0.648,0.144,1.295,0.368,1.951,0.4
					c0.781,0.045,1.574-0.121,2.361-0.102c0.291,0.006,0.785,0.231,0.818,0.426c0.053,0.284-0.139,0.738-0.375,0.929
					c-1.021,0.821-1.049,1.202,0.088,1.782c1.131,0.576,2.32,1.031,3.457,1.598c0.715,0.354,1.383,0.808,2.064,1.233
					c0.508,0.318,0.98,0.7,1.504,0.987c0.643,0.354,1.379,0.492,1.633,1.393c0.109,0.385,0.75,0.595,1.092,0.939
					c0.777,0.775,0.812,1.181,0.381,2.144c-0.141,0.31-0.17,0.669-0.25,1.009c-0.818,0.02-1.457-0.225-1.742-1.312
					c-0.334-1.294-0.373-1.496-1.863-1.541c-0.586-0.013-1.15-0.185-1.451-0.834c-0.225-0.479-1.344-0.225-1.682,0.373
					c-0.193,0.34-0.35,0.704-0.502,1.067c-0.324,0.765-0.639,1.535-0.949,2.31c-0.174,0.434,0.172,0.966,0.689,1.031
					c0.881,0.111,1.436,0.75,1.982,1.319c0.197,0.213,0.055,0.741,0.098,1.118c0.041,0.372,0.17,0.733,0.17,1.099
					c0,0.419-0.072,0.802-0.705,0.677c-1.107-0.222-2.127,0.802-1.916,1.872c0.191,0.961-0.061,1.208-0.895,1.754
					c-0.482,0.313-0.879,0.977-1.016,1.549c-0.221,0.953-0.873,0.681-1.426,0.688c-0.598,0.009-0.844-0.351-0.785-0.944
					c0.031-0.295,0.004-0.6,0.004-0.898c-0.066-0.021-0.139-0.044-0.211-0.065c-0.713,1.473-1.438,2.937-2.129,4.423
					c-0.098,0.204-0.127,0.601-0.006,0.721c0.398,0.388,0.418,0.927,0.646,1.326c0.33,0.581,0.078,0.761-0.182,1.17
					c-0.283,0.434-0.346,1.006-0.506,1.525c-0.506-0.074-1.139-0.078-1.707-0.273c-0.502-0.174-1.043-0.356-1.27-1.025
					c-0.289-0.841-1.004-1.15-1.895-1.25c-0.549-0.061-1.102-0.364-1.59-0.663c-1.03-0.636-2.014-1.344-3.024-2.008
					c-0.096-0.062-0.265-0.067-0.373-0.032c-0.916,0.312-1.325-0.31-1.625-0.953c-0.337-0.714,0.008-1.521,0.713-2.05
					c0.193-0.142,0.331-0.361,0.486-0.537c0.293,0.312,0.581,0.621,0.821,0.879c0.398-0.342,0.696-0.656,1.051-0.877
					c0.396-0.245,0.752-0.474,1.064,0.26c0.166,0.39,0.852,0.553,1.305,0.818c0.062,0.036,0.172,0.114,0.199,0.091
					c1.012-0.754,2.238,0.063,3.279-0.454c0.475-0.234,0.93-0.516,1.422-0.713c0.191-0.073,0.473-0.021,0.682,0.057
					C133.203,156.738,133.463,156.636,133.627,156.219z"/>
				
					<path fill-rule="evenodd" clip-rule="evenodd" fill="#F2A432" stroke="#F2A432" stroke-width="0.6827" stroke-miterlimit="10" d="
					M102.766,142.294c0.069-1.048-0.223-2.176,0.589-2.979c-0.011,0.405-0.185,0.915-0.002,1.158c0.356,0.48,0.898,0.327,1.42,0.076
					c0.979-0.473,1.654-1.273,2.369-2.037c0.21-0.224,1.438,0.056,1.54,0.35c0.442,1.26,0.915,2.512,1.261,3.8
					c0.085,0.323-0.276,0.763-0.417,1.149c-0.1,0.271-0.315,0.598-0.241,0.813c0.509,1.471-0.071,2.899-0.105,4.343
					c-0.013,0.633-0.188,1.267-0.31,2.016c-0.345-0.128-0.608-0.244-0.884-0.315c-0.304-0.08-0.622-0.16-0.932-0.16
					c-0.522,0-0.429,0.348-0.42,0.729c0.009,0.604-0.667,1.035-1.244,0.92c-0.167-0.036-0.359,0.074-0.619,0.141
					c-0.13-0.316-0.268-0.646-0.439-1.063c-0.163,0.21-0.282,0.362-0.404,0.518c-0.028-0.006-0.063,0-0.075-0.019
					c-0.265-0.345-0.53-0.69-0.785-1.044c-0.009-0.014,0.088-0.102,0.292-0.331c0.058,0.29,0.111,0.541,0.161,0.792
					c0.099-0.077,0.198-0.157,0.301-0.233c0-0.355-0.022-0.711,0.002-1.065c0.061-0.81,0.142-1.617,0.224-2.423
					c0.012-0.12,0.061-0.242,0.111-0.353c0.088-0.192,0.191-0.385,0.287-0.574c-0.21-0.053-0.423-0.102-0.721-0.172
					c0.043-0.204,0.039-0.464,0.151-0.661c0.666-1.193-0.166-2.164-0.478-3.202C103.369,142.363,103.023,142.358,102.766,142.294z"
					/>
				
					<path fill-rule="evenodd" clip-rule="evenodd" fill="#F2A432" stroke="#F2A432" stroke-width="0.6827" stroke-miterlimit="10" d="
					M111.22,129.383c0.472-0.141,0.945-0.283,1.479-0.439c0,0.265,0,0.516,0,0.729c-0.514,0-0.984,0-1.454,0
					C111.236,129.577,111.228,129.479,111.22,129.383z"/>
				
					<path fill-rule="evenodd" clip-rule="evenodd" fill="#F2A432" stroke="#F2A432" stroke-width="0.6827" stroke-miterlimit="10" d="
					M132.018,153.984c0.252,0.362,0.506,0.725,0.76,1.084c-0.084,0.055-0.17,0.11-0.254,0.163c-0.094-0.19-0.172-0.39-0.283-0.569
					c-0.115-0.185-0.266-0.353-0.404-0.528C131.896,154.084,131.957,154.034,132.018,153.984z"/>
			</g>
		</g>
		<g>
			
				<line fill-rule="evenodd" clip-rule="evenodd" fill="#F2A432" stroke="#F2A432" stroke-width="1.1378" stroke-linecap="round" stroke-linejoin="round" stroke-miterlimit="10" x1="79.148" y1="70.869" x2="79.148" y2="97.301"/>
			
				<line fill-rule="evenodd" clip-rule="evenodd" fill="#F2A432" stroke="#F2A432" stroke-width="1.1378" stroke-linecap="round" stroke-linejoin="round" stroke-miterlimit="10" x1="144.145" y1="70.869" x2="144.145" y2="97.301"/>
			
				<line fill-rule="evenodd" clip-rule="evenodd" fill="#F2A432" stroke="#F2A432" stroke-width="1.1378" stroke-linecap="round" stroke-linejoin="round" stroke-miterlimit="10" x1="94.559" y1="70.869" x2="94.559" y2="97.301"/>
			
				<line fill-rule="evenodd" clip-rule="evenodd" fill="#F2A432" stroke="#F2A432" stroke-width="1.1378" stroke-linecap="round" stroke-linejoin="round" stroke-miterlimit="10" x1="127.369" y1="70.869" x2="127.369" y2="97.301"/>
			
				<line fill-rule="evenodd" clip-rule="evenodd" fill="#F2A432" stroke="#F2A432" stroke-width="1.1378" stroke-linecap="round" stroke-linejoin="round" stroke-miterlimit="10" x1="113.268" y1="71.146" x2="107.062" y2="97.027"/>
			
				<line fill-rule="evenodd" clip-rule="evenodd" fill="#F2A432" stroke="#F2A432" stroke-width="1.1378" stroke-linecap="round" stroke-linejoin="round" stroke-miterlimit="10" x1="113.268" y1="71.271" x2="118.879" y2="96.902"/>
			
				<line fill-rule="evenodd" clip-rule="evenodd" fill="#F2A432" stroke="#F2A432" stroke-width="1.1378" stroke-linecap="round" stroke-linejoin="round" stroke-miterlimit="10" x1="88.284" y1="70.869" x2="100.837" y2="70.869"/>
			
				<line fill-rule="evenodd" clip-rule="evenodd" fill="#F2A432" stroke="#F2A432" stroke-width="1.1378" stroke-linecap="round" stroke-linejoin="round" stroke-miterlimit="10" x1="107.938" y1="91.389" x2="117.895" y2="91.389"/>
			
				<line fill-rule="evenodd" clip-rule="evenodd" fill="#F2A432" stroke="#F2A432" stroke-width="1.1378" stroke-linecap="round" stroke-linejoin="round" stroke-miterlimit="10" x1="159.732" y1="71.146" x2="153.525" y2="97.027"/>
			
				<line fill-rule="evenodd" clip-rule="evenodd" fill="#F2A432" stroke="#F2A432" stroke-width="1.1378" stroke-linecap="round" stroke-linejoin="round" stroke-miterlimit="10" x1="159.732" y1="71.271" x2="165.346" y2="96.902"/>
			
				<line fill-rule="evenodd" clip-rule="evenodd" fill="#F2A432" stroke="#F2A432" stroke-width="1.1378" stroke-linecap="round" stroke-linejoin="round" stroke-miterlimit="10" x1="154.406" y1="91.389" x2="164.363" y2="91.389"/>
			
				<line fill-rule="evenodd" clip-rule="evenodd" fill="#F2A432" stroke="#F2A432" stroke-width="1.1378" stroke-linecap="round" stroke-linejoin="round" stroke-miterlimit="10" x1="126.977" y1="97.301" x2="136.869" y2="97.301"/>
		</g>
	</g>
</g>
</svg>
