<?xml version="1.0" encoding="utf-8"?>
<!-- Generator: Adobe Illustrator 16.0.0, SVG Export Plug-In . SVG Version: 6.00 Build 0)  -->
<!DOCTYPE svg PUBLIC "-//W3C//DTD SVG 1.1//EN" "http://www.w3.org/Graphics/SVG/1.1/DTD/svg11.dtd">
<svg version="1.1" id="Capa_1" xmlns="http://www.w3.org/2000/svg" xmlns:xlink="http://www.w3.org/1999/xlink" x="0px" y="0px"
	 width="250px" height="250px" viewBox="0 0 250 250" enable-background="new 0 0 250 250" xml:space="preserve">
<g>
	<path fill="#2A2B20" d="M192.735,142.039c-3.261-5.464-6.524-10.918-9.789-16.379l-21.35-35.678
		c-1.997-3.341-3.988-6.688-5.982-10.031c-1.601-2.684-4.032-4.225-6.673-4.225c-2.65,0-5.05,1.541-6.591,4.222
		c-1.448,2.519-2.899,5.134-4.179,7.444l-4.757,8.527c-2.447,4.382-4.894,8.76-7.329,13.145l-0.558,1.007
		c-2.792-1.636-5.442-3.174-8.179-4.352c-0.811-0.349-1.618-0.623-2.408-0.816c-0.373-0.161-0.763-0.256-1.171-0.295
		c-4.945-0.462-8.057,2.555-10.286,4.718c-0.37,0.361-0.748,0.728-1.126,1.073c-1.994-0.563-5.088-2.447-7.878-4.146
		c-2.468-1.5-5.016-3.052-7.654-4.313c-0.107-0.057-0.221-0.112-0.34-0.161l-0.131-0.062c-0.033-0.018-0.194-0.089-0.203-0.092
		c-0.516-0.224-1.043-0.343-1.619-0.323c-0.45-0.064-0.915-0.094-1.383-0.094c-9.758,0-21.41,14.322-23.657,17.207
		c-0.09,0.119-0.17,0.239-0.233,0.343c-1.594,2.59-3.493,6.194-3.493,8.633v0.963c-0.006,3.21-0.009,5.997,0.489,8.44v26.385
		c0,6.089,5.616,11.043,12.519,11.043h82.72c0.334,0.092,0.677,0.137,1.028,0.137h6.54l0.151-0.003
		c0.302-0.012,0.597-0.057,0.886-0.134h14.256c6.903,0,12.519-4.954,12.519-11.043v-9.702c2.742-0.155,4.996-1.481,6.221-3.687
		C194.407,147.439,194.273,144.617,192.735,142.039z M179.06,149.622v13.556c0,1.746-2.154,3.222-4.703,3.222h-15.306
		c-0.352,0-0.694,0.048-1.027,0.137h-4.475c-0.337-0.089-0.68-0.137-1.031-0.137H68.775c-2.548,0-4.7-1.476-4.7-3.222V136.37
		c0-0.304-0.036-0.608-0.104-0.895c-0.394-1.666-0.387-4.188-0.384-7.111v-0.841c0.155-0.604,1.052-2.549,2.224-4.489
		c4.479-5.69,13.019-14.009,17.341-14.009c0.173,0,0.328,0.015,0.468,0.047c2.239,1.085,4.561,2.501,6.811,3.866
		c4.798,2.924,8.945,5.445,12.93,5.445c0.125,0,0.253-0.003,0.384-0.006c0.781-0.033,1.526-0.298,2.155-0.763
		c1.162-0.861,2.155-1.827,3.031-2.676c1.526-1.481,2.548-2.426,3.651-2.545c0.068,0.018,0.137,0.027,0.206,0.044
		c0.441,0.075,0.933,0.229,1.466,0.462c2.405,1.038,4.966,2.534,7.678,4.123c1.031,0.605,2.08,1.219,3.156,1.83
		c0.9,0.509,1.997,0.641,2.987,0.363c0.998-0.28,1.856-0.962,2.36-1.869l2.489-4.486c2.509-4.524,5.034-9.043,7.559-13.559
		l4.527-8.121c1.225-2.21,2.608-4.705,3.973-7.085c1.968,3.298,3.932,6.598,5.902,9.897l21.35,35.685
		c3.192,5.332,6.382,10.664,9.57,16.003c-0.411,0.006-0.819,0.009-1.23,0.015l-1.657,0.021
		C180.789,145.741,179.06,147.496,179.06,149.622z"/>
	<path fill="#CF682C" d="M175.498,136.755c-20.638-0.245-41.27-0.591-61.907-0.611c-10.289-0.006-20.516-0.716-30.784-1.172
		c-5.01-0.217-9.976-0.396-14.972,0.054c-2.479,0.224-4.954,0.513-7.434,0.745v27.407c0,3.938,3.854,7.132,8.611,7.132h105.581
		c4.758,0,8.611-3.194,8.611-7.132v-26.221C175.572,136.918,183.132,136.844,175.498,136.755z"/>
	<path fill="#CF682C" d="M114.745,132.084c-4.891-1.285-10.393-1.929-15.159-3.521c-4.098-1.361-8.829-2.886-12.176-5.356
		c-3.166-2.334-5.437-5.452-5.612-9.076c-0.092-1.824,0.149-3.747,0.721-5.505c0.435-1.338,1.41-2.334,2.691-3.24
		c-8.244-2.742-22.381,15.416-22.381,15.416s-2.912,4.742-2.912,6.591c0,7.958-0.328,13.797,6.707,13.23
		c7.034-0.563,22.915-0.563,30.405-1.314c7.487-0.748,26.092,0.566,37.21,0.566c2.429,0,12.288-0.071,17.698,0
		C140.837,137.935,125.57,134.934,114.745,132.084z"/>
	<path fill="#CF682C" d="M113.648,108.5c-4.728-0.438-6.796,4.069-10.516,6.438c-0.322,0.206-0.67,0.354-1.037,0.456
		c4.217,1.076,8.581,1.705,12.834,2.67C116.628,114.853,115.681,111.439,113.648,108.5z"/>
	<path fill="#9F431C" stroke="#292A1F" stroke-width="1.7207" stroke-miterlimit="10" d="M139.731,121.115
		c-9.523-2.626-16.725-8.632-23.693-11.636c-0.861-0.373-1.645-0.608-2.373-0.733c0.933,1.38,1.657,2.87,1.929,4.432
		c0.31,1.779,0.054,3.523-0.793,5.159c0.131,0.033,0.262,0.063,0.394,0.093c3.404,0.813,6.727,1.839,10.149,2.614
		c3.397,0.769,6.831,1.434,10.274,2.048c3.475,0.623,6.965,1.189,10.429,1.845c3.476,0.656,6.933,1.366,10.394,2.078
		c1.347,0.277,2.694,0.555,4.045,0.832C151.621,124.885,143.448,122.143,139.731,121.115z"/>
	<path fill="#B15022" stroke="#292A1F" stroke-width="1.7207" stroke-miterlimit="10" d="M120.792,118.065
		c-1.583-0.364-6.858-1.231-8.459-1.541c-2.853-0.561-5.714-1.109-8.495-1.881c-4.614,0.229-11.86-5.982-18.936-9.234
		c-0.023-0.012-0.047-0.018-0.068-0.03c-1.434,0.915-2.143,2.519-2.548,3.958c-0.48,1.699-0.73,3.535-0.584,5.281
		c0.286,3.476,2.486,6.438,5.565,8.656c3.46,2.496,7.678,4.156,11.893,5.518c4.909,1.586,9.955,2.915,14.975,4.215
		c11.246,2.921,22.677,5.323,34.211,7.275c19.467,0.263,34.334,0.812,34.334,0.812s3.347-6.188-4.06-4.525
		c-2.504,0.561-0.608-4.44-13.303-8.777c-7.606-1.556-15.171-3.253-22.828-4.594c-6.77-1.184-13.535-2.429-20.104-4.263
		c-1.612-0.45-3.207-0.93-4.84-1.317"/>
	<polygon fill-rule="evenodd" clip-rule="evenodd" fill="#2A2B20" points="151.743,149.634 152.766,170.447 159.293,170.447 
		158.682,149.839 	"/>
	<g>
		<path fill-rule="evenodd" clip-rule="evenodd" fill="#FFFFFF" d="M147.162,86.036c0,0-32.227,57.043-29.261,59.267
			c2.962,2.221,64.818-0.742,64.818-0.742L147.162,86.036z"/>
		<path fill-rule="evenodd" clip-rule="evenodd" fill="#CA3831" stroke="#292A1F" stroke-width="1.7207" stroke-miterlimit="10" d="
			M162.014,150.065c-8.182,0-16.36-0.041-24.542,0.016c-7.177,0.048-14.349,0.211-21.523,0.315c-0.942,0.012-1.896-0.095-2.822,0
			c-1.449,0.149-2.415-0.667-3.338-1.535c-0.444-0.423-0.575-0.93-0.179-1.639c6.739-12.071,13.421-24.174,20.134-36.257
			c3.467-6.245,6.954-12.474,10.435-18.708c1.929-3.459,3.83-6.931,5.801-10.365c1.749-3.045,4.697-2.993,6.519,0.06
			c1.991,3.346,3.988,6.693,5.981,10.036c7.118,11.896,14.235,23.785,21.351,35.682c3.267,5.457,6.527,10.915,9.788,16.369
			c1.648,2.763,0.232,5.496-2.96,5.544c-7.663,0.119-15.326,0.164-22.992,0.235c-0.548,0.006-1.1,0-1.651,0
			C162.014,149.902,162.014,149.985,162.014,150.065z M149.486,89.956c-0.119,0.003-0.235,0.006-0.354,0.01
			c-9.854,17.763-19.708,35.527-29.702,53.552c20.665-0.221,41.004-0.433,61.594-0.653
			C170.401,125.046,159.942,107.499,149.486,89.956z"/>
		<path fill-rule="evenodd" clip-rule="evenodd" fill="#2A2B20" d="M162.762,123.767c0,2.337-0.193,4.442,0.062,6.493
			c0.18,1.434,0.194,2.745-0.292,4.086c-0.262,0.728-0.44,1.491-0.735,2.206c-0.129,0.31-0.409,0.652-0.707,0.775
			c-0.312,0.128-0.728,0.009-1.097,0c0.116-0.346,0.193-0.704,0.349-1.031c0.325-0.713,0.691-1.404,1.037-2.107
			c-0.092-0.048-0.188-0.093-0.283-0.144c-0.626,1.008-1.326,1.977-1.854,3.031c-0.379,0.767-0.969,0.645-1.473,0.486
			c-0.658-0.206-0.274-0.665-0.026-0.996c0.822-1.108,1.675-2.196,2.488-3.312c0.742-1.019,0.688-1.74-0.018-2.757
			c-0.555-0.793-1.059-1.618-1.535-2.456c-0.539-0.941-1.356-1.312-2.382-0.757c-1.272,0.691-2.587,0.978-4.015,0.951
			c-0.828-0.016-1.284,0.474-1.246,1.29c0.051,1.094,0.257,2.185,0.274,3.275c0.021,1.449-0.048,2.903-0.173,4.343
			c-0.012,0.158-0.644,0.391-0.972,0.364c-0.581-0.045-0.655-0.549-0.408-0.951c1.187-1.929,0.009-3.567-0.479-5.296
			c-0.093-0.004-0.183-0.007-0.274-0.01c-0.057,0.591-0.152,1.175-0.164,1.765c-0.018,1.139,0.045,2.274,0.009,3.41
			c-0.048,1.576-0.315,1.768-2.012,1.46c0.054-0.295,0.009-0.683,0.182-0.873c0.584-0.649,0.427-1.365,0.379-2.116
			c-0.09-1.419-0.188-2.844-0.146-4.265c0.068-2.35-0.972-4.406-3.55-4.725c-1.94-0.245-3.973-3.041-3.881-5.011
			c0.012-0.194,0.027-0.391,0.033-0.584c0.051-1.667-0.787-2.644-2.447-3.001c-0.516-0.11-1.383,0.173-1.362-0.823
			c0.027-1.052,0.572-1.583,1.711-1.538c0.948,0.039,1.791-0.027,2.691-0.492c1.062-0.545,2.354,0.471,2.396,1.672
			c0.03,0.942,0.062,1.887,0.193,2.814c0.155,1.126,0.817,1.934,1.929,2.208c1.105,0.271,1.994-0.113,2.722-1.052
			c0.67-0.861,1.412-1.702,2.256-2.39c2.251-1.848,4.646-1.896,6.653,0.17c1.726,1.77,3.77,3.004,5.8,4.292
			c1.088,0.691,1.21,1.872,1.788,2.816c0.302,0.483,0.68,0.919,0.98,1.401c0.152,0.245,0.271,0.543,0.28,0.826
			c0.003,0.107-0.396,0.369-0.482,0.324c-0.221-0.122-0.411-0.352-0.537-0.584C163.883,125.956,163.367,124.936,162.762,123.767z"/>
	</g>
	<g>
		<g>
			<path fill="#2A2B20" d="M75.732,154.877c-0.498,0-0.987-0.027-1.446-0.063c-0.426-0.029-0.745-0.399-0.718-0.825
				c0.033-0.426,0.411-0.751,0.832-0.719c0.999,0.072,2.146,0.126,3.112-0.148c0.414-0.116,0.843,0.122,0.959,0.536
				c0.113,0.408-0.125,0.841-0.536,0.954C77.216,154.813,76.462,154.877,75.732,154.877z"/>
		</g>
		<g>
			<g>
				<path fill="#2A2B20" d="M70.554,165.562c-0.426,0-0.772-0.346-0.778-0.771c0-0.427,0.343-0.775,0.772-0.778
					c3.991-0.032,5.014-5.49,5.168-10.065c0.015-0.429,0.367-0.766,0.802-0.748c0.429,0.015,0.763,0.376,0.751,0.799
					c-0.328,9.518-3.83,11.541-6.712,11.564H70.554z"/>
			</g>
			<g>
				<path fill="#2A2B20" d="M81.145,162.188h-0.003c-1.732,0-2.796-1.836-3.052-3.541c-0.331-2.196,0.581-3.964,2.319-4.494
					c1.538-0.474,2.945,0.148,3.669,1.589c0.754,1.502,0.635,3.556-0.277,4.78C82.98,161.628,82.086,162.188,81.145,162.188z
					 M81.428,155.541c-0.176,0-0.367,0.03-0.563,0.09c-1.511,0.465-1.299,2.405-1.243,2.79c0.185,1.222,0.867,2.214,1.523,2.214l0,0
					c0.411,0,0.915-0.366,1.413-1.037c0.566-0.763,0.629-2.182,0.134-3.162C82.394,155.839,81.967,155.541,81.428,155.541z"/>
			</g>
			<g>
				<path fill="#2A2B20" d="M87.609,168.674c-0.42,0-0.763-0.334-0.775-0.757c-0.042-1.938-0.086-3.902-0.099-5.887
					c-0.173-0.176-0.259-0.43-0.214-0.683c0.027-0.161,0.104-0.305,0.211-0.415c0.003-2.06,0.045-4.146,0.164-6.235
					c0.018-0.301,0.203-0.562,0.483-0.673c1.431-0.578,3.034-0.283,4.185,0.774c1.187,1.091,1.627,2.733,1.145,4.28
					c-0.414,1.345-1.544,2.31-3.251,2.811c0.611,0.447,1.213,0.939,1.773,1.404c0.34,0.277,0.665,0.542,0.965,0.777
					c0.337,0.266,0.396,0.752,0.134,1.088c-0.265,0.34-0.748,0.402-1.088,0.138c-0.313-0.244-0.644-0.519-0.993-0.805
					c-0.626-0.516-1.299-1.07-1.955-1.526c0.018,1.651,0.054,3.294,0.092,4.918c0.006,0.427-0.331,0.781-0.76,0.79
					C87.621,168.674,87.615,168.674,87.609,168.674z M88.414,155.323c-0.089,1.759-0.125,3.512-0.128,5.255
					c1.291-0.227,2.575-0.763,2.945-1.961c0.36-1.156-0.134-2.143-0.715-2.68C89.922,155.393,89.162,155.175,88.414,155.323z"/>
			</g>
			<g>
				<path fill="#2A2B20" d="M96.569,165.467c-0.027,0-0.053,0-0.083,0c-0.423-0.006-0.763-0.352-0.76-0.775
					c0-1.189,0.11-2.459,0.218-3.684c0.143-1.622,0.289-3.282,0.19-4.811c-0.042-0.072-0.068-0.161-0.081-0.248
					c-0.018-0.125-0.009-0.244,0.03-0.357c-0.033-0.286-0.074-0.566-0.131-0.841c-0.083-0.42,0.191-0.825,0.608-0.909
					c0.42-0.083,0.829,0.188,0.915,0.605c0.036,0.196,0.072,0.396,0.099,0.593c0.978,0.099,1.839,0.632,2.492,1.547
					c1.264,1.777,1.439,4.594,0.408,6.555C99.687,164.644,98.301,165.467,96.569,165.467z M97.708,156.644
					c0.048,1.473-0.086,3.002-0.217,4.495c-0.083,0.939-0.164,1.839-0.197,2.706c0.796-0.173,1.404-0.652,1.809-1.425
					c0.751-1.431,0.617-3.645-0.298-4.936C98.489,157.043,98.122,156.76,97.708,156.644z"/>
			</g>
			<g>
				<path fill="#2A2B20" d="M108.202,163.643c-0.336,0-0.644-0.221-0.745-0.558c-0.614-2.119-1.004-3.359-1.681-5.451
					c-0.528,1.579-0.793,2.154-1.872,4.456l-0.352,0.748c-0.182,0.388-0.644,0.551-1.031,0.369
					c-0.391-0.182-0.555-0.641-0.373-1.028l0.349-0.751c1.386-2.944,1.386-2.944,2.396-6.099l0.149-0.456
					c0.101-0.318,0.399-0.539,0.736-0.539l0,0c0.336,0,0.635,0.221,0.736,0.539l0.391,1.208c0.906,2.811,1.32,4.092,2.042,6.569
					c0.12,0.411-0.116,0.84-0.527,0.962C108.345,163.634,108.274,163.643,108.202,163.643z"/>
			</g>
			<g>
				<path fill="#2A2B20" d="M130.42,164.197c-0.337,0-0.647-0.221-0.745-0.561c-0.617-2.119-1.008-3.356-1.682-5.452
					c-0.527,1.586-0.796,2.158-1.884,4.472l-0.343,0.732c-0.182,0.388-0.644,0.555-1.031,0.373
					c-0.391-0.182-0.555-0.646-0.373-1.031l0.343-0.733c1.392-2.957,1.392-2.957,2.402-6.099l0.151-0.471
					c0.102-0.321,0.399-0.536,0.733-0.536c0.34,0,0.638,0.215,0.739,0.533l0.394,1.216c0.903,2.805,1.317,4.09,2.036,6.563
					c0.119,0.411-0.113,0.841-0.527,0.96C130.562,164.188,130.488,164.197,130.42,164.197z"/>
			</g>
			<g>
				<path fill="#2A2B20" d="M111.201,165.445c-0.015,0-0.03,0-0.044-0.003c-0.426-0.023-0.754-0.39-0.73-0.816l0.483-8.569
					c0.021-0.357,0.283-0.652,0.632-0.718c0.352-0.066,0.701,0.116,0.85,0.44l2.265,5.008l0.113-5.317
					c0.009-0.43,0.331-0.757,0.793-0.76c0.426,0.009,0.766,0.363,0.757,0.789l-0.188,8.733c-0.006,0.364-0.263,0.674-0.617,0.745
					c-0.364,0.075-0.712-0.11-0.861-0.438l-2.373-5.246l-0.307,5.419C111.949,165.127,111.606,165.445,111.201,165.445z"/>
			</g>
			<g>
				<path fill="#2A2B20" d="M121.013,165.521c-0.012,0-0.021,0-0.033-0.003c-0.426-0.016-0.757-0.376-0.742-0.805l0.31-7.965
					c0.015-0.426,0.402-0.754,0.802-0.742c0.429,0.016,0.763,0.376,0.745,0.802l-0.31,7.968
					C121.773,165.192,121.427,165.521,121.013,165.521z"/>
			</g>
			<g>
				<path fill="#2A2B20" d="M121.567,155.112c-0.009,0-0.018,0-0.027,0c-0.429-0.019-0.763-0.379-0.748-0.805l0.012-0.302
					c0.012-0.429,0.408-0.766,0.799-0.751c0.426,0.012,0.763,0.37,0.751,0.796l-0.012,0.316
					C122.327,154.781,121.984,155.112,121.567,155.112z"/>
			</g>
			<g>
				<path fill="#2A2B20" d="M104.325,160.73c-0.396,0-0.736-0.307-0.769-0.709c-0.036-0.427,0.283-0.803,0.709-0.838
					c0.328-0.027,0.659-0.036,0.986-0.045c0.704-0.023,1.365-0.045,1.872-0.244c0.402-0.155,0.849,0.039,1.004,0.438
					c0.158,0.399-0.039,0.847-0.435,1.005c-0.757,0.298-1.589,0.325-2.394,0.349c-0.301,0.009-0.608,0.018-0.909,0.045
					C104.369,160.73,104.349,160.73,104.325,160.73z"/>
			</g>
			<g>
				<path fill="#2A2B20" d="M126.808,160.841c-0.144,0-0.271-0.009-0.37-0.027c-0.423-0.065-0.709-0.465-0.641-0.885
					c0.068-0.427,0.468-0.713,0.888-0.644c0.305,0.038,1.744-0.132,2.812-0.334c0.417-0.087,0.825,0.19,0.908,0.611
					c0.081,0.42-0.196,0.825-0.616,0.908C129.767,160.477,127.836,160.841,126.808,160.841z"/>
			</g>
		</g>
	</g>
</g>
</svg>
