<?xml version="1.0" encoding="utf-8"?>
<!-- Generator: Adobe Illustrator 16.0.0, SVG Export Plug-In . SVG Version: 6.00 Build 0)  -->
<!DOCTYPE svg PUBLIC "-//W3C//DTD SVG 1.1//EN" "http://www.w3.org/Graphics/SVG/1.1/DTD/svg11.dtd">
<svg version="1.1" id="Capa_1" xmlns="http://www.w3.org/2000/svg" xmlns:xlink="http://www.w3.org/1999/xlink" x="0px" y="0px"
	 width="250px" height="250px" viewBox="0 0 250 250" enable-background="new 0 0 250 250" xml:space="preserve">
<pattern  x="0.5" y="250.5" width="72" height="72" patternUnits="userSpaceOnUse" id="_x36__lpp_20_x25_" viewBox="24 -72 72 72" overflow="visible">
	<g>
		<polygon fill="none" points="24,0 24,-72 96,-72 96,0 		"/>
		<line fill="none" stroke="#1D1D1B" stroke-width="2.4" x1="23.75" y1="-6" x2="96.25" y2="-6"/>
		<line fill="none" stroke="#1D1D1B" stroke-width="2.4" x1="23.75" y1="-30" x2="96.25" y2="-30"/>
		<line fill="none" stroke="#1D1D1B" stroke-width="2.4" x1="23.75" y1="-54" x2="96.25" y2="-54"/>
		<line fill="none" stroke="#1D1D1B" stroke-width="2.4" x1="0" y1="-54" x2="16.5" y2="-54"/>
		<line fill="none" stroke="#1D1D1B" stroke-width="2.4" x1="23.75" y1="-18" x2="96.25" y2="-18"/>
		<line fill="none" stroke="#1D1D1B" stroke-width="2.4" x1="23.75" y1="-42" x2="96.25" y2="-42"/>
		<line fill="none" stroke="#1D1D1B" stroke-width="2.4" x1="23.75" y1="-66" x2="96.25" y2="-66"/>
		<line fill="none" stroke="#1D1D1B" stroke-width="2.4" x1="0" y1="-66" x2="16.5" y2="-66"/>
	</g>
</pattern>
<g>
	<g>
		<path fill="#FFFFFF" stroke="#FFFFFF" stroke-width="4.9427" stroke-miterlimit="10" d="M184.393,168.158
			c0,2.534-2.058,4.59-4.591,4.59H70.196c-2.533,0-4.588-2.056-4.588-4.59V81.83c0-2.536,2.055-4.592,4.588-4.592h109.606
			c2.533,0,4.591,2.056,4.591,4.592V168.158z"/>
		<g>
			<defs>
				<path id="SVGID_1_" d="M184.393,168.158c0,2.534-2.058,4.59-4.591,4.59H70.196c-2.533,0-4.588-2.056-4.588-4.59V81.83
					c0-2.536,2.055-4.592,4.588-4.592h109.606c2.533,0,4.591,2.056,4.591,4.592V168.158z"/>
			</defs>
			<clipPath id="SVGID_2_">
				<use xlink:href="#SVGID_1_"  overflow="visible"/>
			</clipPath>
			<path clip-path="url(#SVGID_2_)" fill="#A7C8EA" d="M184.393,168.158c0,2.534-2.058,4.59-4.591,4.59H70.196
				c-2.533,0-4.588-2.056-4.588-4.59V81.83c0-2.536,2.055-4.592,4.588-4.592h109.606c2.533,0,4.591,2.056,4.591,4.592V168.158z"/>
			<pattern  id="SVGID_3_" xlink:href="#_x36__lpp_20_x25_" patternTransform="matrix(0.0543 0 0 0.0543 -7431.2495 -7963.3838)">
			</pattern>
			<path opacity="0.4" clip-path="url(#SVGID_2_)" fill="url(#SVGID_3_)" d="M184.393,168.158c0,2.534-2.058,4.59-4.591,4.59H70.196
				c-2.533,0-4.588-2.056-4.588-4.59V81.83c0-2.536,2.055-4.592,4.588-4.592h109.606c2.533,0,4.591,2.056,4.591,4.592V168.158z"/>
			<path clip-path="url(#SVGID_2_)" fill="#2A2B20" d="M65,133.354c0.554-0.303,9.666-3.14,24.44-4.782
				c14.778-1.642,29.831,2.09,41.848,4.782c12.01,2.688,31.895,10.007,37.829,7.914c5.942-2.09,15.969-8.495,15.969-8.495
				s0.087,40.902,0,41.207c-0.087,0.295-120.672,0-120.672,0L65,133.354z"/>
			<path clip-path="url(#SVGID_2_)" fill="#2A2B20" d="M185.476,125.184c-0.55,0-7.041,2.759-14.223-2.762
				c-7.179-5.523-15.601-16.017-21.953-22.508c-6.353-6.49-11.324-11.875-12.845-12.428c-1.52-0.555-2.761,0-2.761,0
				s-0.28,2.482-1.38,1.93c-1.104-0.551-1.66,0.694-2.351,0.832c-0.691,0.137-2.761-0.692-3.311,0.412
				c-0.558,1.105,0.69,2.075-1.247,2.075c-1.93,0-4.28,1.38-5.387,3.449c-1.099,2.072-1.791,2.764-2.345,4.146
				c-0.55,1.378-0.274,1.102-1.52,2.207c-1.241,1.104-0.134,0.83-2.207,2.208c-2.068,1.383-1.935,2.487-4.281,2.624
				c-2.352,0.14-2.626,1.104-3.175-0.139c-0.555-1.242,0.138-1.904-1.936-0.676c-2.072,1.228-2.487,2.471-3.591,2.334
				c-1.1-0.14-3.311-2.599-4.277-2.334c-0.97,0.263-1.661-1.919-3.457,0c-1.795,1.918-1.099-1.506-2.206,0
				c-1.105,1.507-0.829-1.091-2.35,0c-1.516,1.091-1.105-1.399-2.347-0.566c-1.246,0.829-1.52-1.38-2.345-0.551
				c-0.832,0.827-0.832,5.661-3.04,7.317c-2.213,1.658-4.01,2.626-7.185,6.076c-3.174,3.451-2.896,4.972-6.07,7.044
				c-3.176,2.069-1.38,4.414-3.591,6.625c-2.211,2.214,101.356,24.169,120.141,9.117L185.476,125.184z"/>
			<path clip-path="url(#SVGID_2_)" fill="#FFFFFF" d="M118.582,97.98c-0.83-0.283-2.873-0.852-4.088-1.079
				c-2.839-0.524-5.753,0.901-8.474,0.424c-1.421-0.25-2.248-1.645-4.042-1.604c-1.265,0.028-2.67,0.669-3.745,1.286
				c-0.874,0.499-1.595,1.304-2.487,1.733c-1.191,0.573-2.575,0.452-3.575,1.312c2.303,1.181,5.067,2.223,7.653,2.479
				c3.279,0.326,6.299-1.571,9.374-1.411c2.612,0.137,4.045,0.806,6.855,0.185c-0.047,0.429,0.15,0.254,0.319,0.404"/>
			<path clip-path="url(#SVGID_2_)" fill="#FFFFFF" d="M144.747,94.558c1.724-0.93,2.848-1.825,4.839-1.433
				c1.533,0.304,1.735,1.129,2.958,1.818c2.711,1.526,7.127,1.072,8.904,4.2c0.334,0.585,1.077,0.158,0.657,1.131
				c-0.497,1.148-3.437,0.609-4.268,0.565c-3.084-0.172-4.968-0.325-7.844-1.447"/>
			
				<path clip-path="url(#SVGID_2_)" fill="none" stroke="#683B11" stroke-width="1.2357" stroke-linecap="round" stroke-linejoin="round" stroke-miterlimit="10" d="
				M173.68,144.239c0.541,5.874,0.224,11.967,0.266,17.87c0.009,1.332-0.864,5.878,0.957,5.861
				c0.183-4.605-0.087-9.309-0.407-13.891c-0.197-2.837,0.441-7.388-0.405-9.701"/>
			<g clip-path="url(#SVGID_2_)">
				<path fill="#D4D8DC" d="M164.876,121.527c-1.753,0.606-12.438,3.479-12.438,3.479c-0.319,0.482-1.277,51.987,0,52.15
					c1.273,0.163,13.555-1.437,13.555-1.437S166.629,120.918,164.876,121.527z M159.374,135.533l-2.631,0.958v-8.612h2.631V135.533z
					"/>
				<path fill="#FFFFFF" d="M181.143,125.006c-0.956-0.958-14.668-3.027-16.267-3.479c-1.598-0.45,0,52.761,0,53.239
					c0,0,15.787-1.437,16.267-1.437C181.62,173.33,182.099,125.966,181.143,125.006z M175.027,135.644
					c0.087,0.013,0.119,0.029,0.058,0.047C175.06,135.696,175.042,135.673,175.027,135.644c-0.601-0.071-4.089,0.047-4.089,0.047
					s-0.159-7.495,0-7.812h4.181C175.119,127.879,174.656,135.104,175.027,135.644z"/>
				<path fill="#D9D5DD" d="M166.107,109.375l-0.789,13.44c0,0,15.345,2.985,15.824,2.19
					C181.62,124.21,169.091,107.466,166.107,109.375z"/>
				<path fill="#BAC2CD" d="M164.876,109.228c0,0-13.871,15.138-12.438,15.778c1.433,0.64,12.881-2.19,12.881-2.19
					s2.02-13.286,0.789-13.44C164.876,109.228,164.876,109.228,164.876,109.228z"/>
				<path fill="#FFFFFF" d="M166.729,109.823c3.612-0.81,3.058-4.231-0.429-4.801C162.196,104.339,162.323,110.813,166.729,109.823z
					"/>
			</g>
			<g clip-path="url(#SVGID_2_)">
				<path fill="#FFFFFF" stroke="#FFFFFF" stroke-width="0.3707" stroke-miterlimit="10" d="M120.976,153.19
					c-0.068-2.824-1.182-4.727-7.09-3.874v12.144h-1.708l-3.414-12.349h-1.901l-3.479,12.609v-1.377l-5.315-0.068l5.25-8.596v-2.568
					H91.962c0,0,0,7.888,0,8.017c0,0.131-4.267-8.017-4.267-8.017h-2.038l0.068,12.675h-1.047l-3.611-12.675H79.36l-3.353,11.101
					h-3.146v-10.83l-2.432-0.065c-0.062,0.263-0.26,12.738,0,13.099c0.268,0.355,7.158-0.034,7.487,0
					c0.329,0.029,0.917-2.724,0.917-2.724l2.823-0.266l0.724,3.14h5.774v-8.13l4.268,8.403h2.229v-11.225l6.106-0.135l-4.595,8.403
					l-0.062,2.956h9.517l0.85-3.019l2.694-0.129l0.917,3.474l6.073,0.056l-0.165-6.156l3.74,6.051l3.309,0.105l-4.356-6.488
					C118.678,156.732,121.038,156.012,120.976,153.19z M79.031,157.522l1.051-4.661l0.916,4.661H79.031z M106.732,157.522
					l1.047-4.661l0.923,4.661H106.732z M118.414,152.861c-0.068,0.553,0.134,1.182-0.459,1.837
					c-0.591,0.653-2.033,0.492-2.033,0.492v-3.771C117.955,150.63,118.516,152.074,118.414,152.861z"/>
				<path fill="#FFFFFF" stroke="#FFFFFF" stroke-width="0.3707" stroke-miterlimit="10" d="M126.42,149.111
					c0,0-2.886,0.005-3.544,2.895c-0.654,2.89-1.116,7.877,1.315,9.914c2.427,2.035,5.626-0.16,6.115-0.971
					c0.938-1.556,1.234-4.217,1.104-6.116C131.281,152.927,130.361,148.447,126.42,149.111z M128.982,157.522
					c-0.265,2.756-1.708,3.282-3.116,2.885c-1.415-0.39-1.545-3.872-1.15-6.822c0.393-2.955,2.298-2.368,2.298-2.368
					C128.458,151.338,129.245,154.767,128.982,157.522z"/>
				<polygon fill="#FFFFFF" stroke="#FFFFFF" stroke-width="0.3707" stroke-miterlimit="10" points="131.431,151.614 
					134.564,151.614 134.564,162.415 136.924,162.415 136.924,151.812 141.747,151.785 141.747,149.111 131.431,149.448 				"/>
				<polygon fill="#FFFFFF" stroke="#FFFFFF" stroke-width="0.3707" stroke-miterlimit="10" points="143.687,157.064 
					147.228,157.064 147.167,155.19 143.748,155.209 143.748,151.743 147.689,151.68 147.954,149.111 141.32,149.045 
					141.32,162.415 147.954,162.415 147.954,160.525 143.748,160.525 				"/>
			</g>
		</g>
	</g>
	<g>
		
			<polyline fill="none" stroke="#0280A2" stroke-width="0.2217" stroke-linecap="round" stroke-linejoin="round" stroke-miterlimit="10" points="
			72.087,77.238 74.326,75 76.873,77.547 79.189,75.233 81.126,77.17 83.285,75.012 85.057,76.782 		"/>
		
			<polyline fill="none" stroke="#0280A2" stroke-width="0.2217" stroke-linecap="round" stroke-linejoin="round" stroke-miterlimit="10" points="
			85.057,77.238 87.294,75 89.842,77.547 92.157,75.233 94.096,77.17 96.254,75.012 98.026,76.782 		"/>
		
			<polyline fill="none" stroke="#0280A2" stroke-width="0.2217" stroke-linecap="round" stroke-linejoin="round" stroke-miterlimit="10" points="
			98.026,77.238 100.264,75 102.811,77.547 105.126,75.233 107.063,77.17 109.225,75.012 110.994,76.782 		"/>
		
			<polyline fill="none" stroke="#0280A2" stroke-width="0.2217" stroke-linecap="round" stroke-linejoin="round" stroke-miterlimit="10" points="
			110.994,77.238 113.233,75 115.78,77.547 118.097,75.233 120.034,77.17 122.192,75.012 123.964,76.782 		"/>
	</g>
	<g>
		
			<polyline fill="none" stroke="#0280A2" stroke-width="0.2217" stroke-linecap="round" stroke-linejoin="round" stroke-miterlimit="10" points="
			123.964,77.238 126.201,75 128.75,77.547 131.066,75.233 133.004,77.17 135.162,75.012 136.935,76.782 		"/>
		
			<polyline fill="none" stroke="#0280A2" stroke-width="0.2217" stroke-linecap="round" stroke-linejoin="round" stroke-miterlimit="10" points="
			136.935,77.238 139.172,75 141.718,77.547 144.034,75.233 145.974,77.17 148.132,75.012 149.903,76.782 		"/>
		
			<polyline fill="none" stroke="#0280A2" stroke-width="0.2217" stroke-linecap="round" stroke-linejoin="round" stroke-miterlimit="10" points="
			149.903,77.238 152.142,75 154.688,77.547 157.004,75.233 158.941,77.17 161.099,75.012 162.872,76.782 		"/>
		
			<polyline fill="none" stroke="#0280A2" stroke-width="0.2217" stroke-linecap="round" stroke-linejoin="round" stroke-miterlimit="10" points="
			162.872,77.238 165.108,75 167.658,77.547 169.974,75.233 171.911,77.17 174.069,75.012 175.842,76.782 		"/>
	</g>
	<g>
		
			<polyline fill="none" stroke="#0280A2" stroke-width="0.2217" stroke-linecap="round" stroke-linejoin="round" stroke-miterlimit="10" points="
			72.087,174.985 74.326,172.748 76.873,175.296 79.189,172.979 81.126,174.919 83.285,172.761 85.057,174.532 		"/>
		
			<polyline fill="none" stroke="#0280A2" stroke-width="0.2217" stroke-linecap="round" stroke-linejoin="round" stroke-miterlimit="10" points="
			85.057,174.985 87.294,172.748 89.842,175.296 92.157,172.979 94.096,174.919 96.254,172.761 98.026,174.532 		"/>
		
			<polyline fill="none" stroke="#0280A2" stroke-width="0.2217" stroke-linecap="round" stroke-linejoin="round" stroke-miterlimit="10" points="
			98.026,174.985 100.264,172.748 102.811,175.296 105.126,172.979 107.063,174.919 109.225,172.761 110.994,174.532 		"/>
		
			<polyline fill="none" stroke="#0280A2" stroke-width="0.2217" stroke-linecap="round" stroke-linejoin="round" stroke-miterlimit="10" points="
			110.994,174.985 113.233,172.748 115.78,175.296 118.097,172.979 120.034,174.919 122.192,172.761 123.964,174.532 		"/>
	</g>
	<g>
		
			<polyline fill="none" stroke="#0280A2" stroke-width="0.2217" stroke-linecap="round" stroke-linejoin="round" stroke-miterlimit="10" points="
			123.964,174.985 126.201,172.748 128.75,175.296 131.066,172.979 133.004,174.919 135.162,172.761 136.935,174.532 		"/>
		
			<polyline fill="none" stroke="#0280A2" stroke-width="0.2217" stroke-linecap="round" stroke-linejoin="round" stroke-miterlimit="10" points="
			136.935,174.985 139.172,172.748 141.718,175.296 144.034,172.979 145.974,174.919 148.132,172.761 149.903,174.532 		"/>
		
			<polyline fill="none" stroke="#0280A2" stroke-width="0.2217" stroke-linecap="round" stroke-linejoin="round" stroke-miterlimit="10" points="
			149.903,174.985 152.142,172.748 154.688,175.296 157.004,172.979 158.941,174.919 161.099,172.761 162.872,174.532 		"/>
		
			<polyline fill="none" stroke="#0280A2" stroke-width="0.2217" stroke-linecap="round" stroke-linejoin="round" stroke-miterlimit="10" points="
			162.872,174.985 165.108,172.748 167.658,175.296 169.974,172.979 171.911,174.919 174.069,172.761 175.842,174.532 		"/>
	</g>
	<g>
		
			<polyline fill="none" stroke="#0280A2" stroke-width="0.2217" stroke-linecap="round" stroke-linejoin="round" stroke-miterlimit="10" points="
			65.297,167.058 63.07,168.832 65.231,170.99 63.291,172.927 66.434,172.927 66.434,174.866 69.497,173.192 72.087,174.985 		"/>
		
			<polyline fill="none" stroke="#0280A2" stroke-width="0.2217" stroke-linecap="round" stroke-linejoin="round" stroke-miterlimit="10" points="
			65.297,167.058 63.061,164.82 65.607,162.273 63.291,159.96 65.231,158.022 63.07,155.861 64.843,154.091 		"/>
		
			<polyline fill="none" stroke="#0280A2" stroke-width="0.2217" stroke-linecap="round" stroke-linejoin="round" stroke-miterlimit="10" points="
			65.297,154.091 63.061,151.854 65.607,149.306 63.291,146.989 65.231,145.053 63.07,142.892 64.843,141.12 		"/>
		
			<polyline fill="none" stroke="#0280A2" stroke-width="0.2217" stroke-linecap="round" stroke-linejoin="round" stroke-miterlimit="10" points="
			65.297,141.12 63.061,138.884 65.607,136.336 63.291,134.02 65.231,132.082 63.07,129.925 64.843,128.15 		"/>
	</g>
	<g>
		
			<polyline fill="none" stroke="#0280A2" stroke-width="0.2217" stroke-linecap="round" stroke-linejoin="round" stroke-miterlimit="10" points="
			65.297,128.15 63.061,125.914 65.607,123.365 63.291,121.052 65.231,119.112 63.07,116.954 64.843,115.183 		"/>
		
			<polyline fill="none" stroke="#0280A2" stroke-width="0.2217" stroke-linecap="round" stroke-linejoin="round" stroke-miterlimit="10" points="
			65.297,115.183 63.061,112.944 65.607,110.397 63.291,108.082 65.231,106.145 63.07,103.984 64.843,102.213 		"/>
		
			<polyline fill="none" stroke="#0280A2" stroke-width="0.2217" stroke-linecap="round" stroke-linejoin="round" stroke-miterlimit="10" points="
			65.297,102.213 63.061,99.975 65.607,97.428 63.291,95.112 65.231,93.175 63.07,91.017 64.843,89.243 		"/>
		
			<polyline fill="none" stroke="#0280A2" stroke-width="0.2217" stroke-linecap="round" stroke-linejoin="round" stroke-miterlimit="10" points="
			65.297,89.243 63.061,87.007 65.607,84.458 63.291,82.145 65.231,80.205 63.07,78.047 67.009,78.119 67.775,74.704 72.087,77.238 
					"/>
	</g>
	<g>
		
			<path fill="none" stroke="#0280A2" stroke-width="0.2217" stroke-linecap="round" stroke-linejoin="round" stroke-miterlimit="10" d="
			M186.175,167.058l-1.772,1.774l2.16,2.158l-1.939,1.937l-1.912-0.719c0,0-0.406,2.082-0.406,2.111
			c0,0.026-4.017-1.571-4.017-1.571l-2.446,1.887"/>
		
			<polyline fill="none" stroke="#0280A2" stroke-width="0.2217" stroke-linecap="round" stroke-linejoin="round" stroke-miterlimit="10" points="
			186.629,167.058 184.393,164.82 186.939,162.273 184.623,159.96 186.562,158.022 184.402,155.861 186.175,154.091 		"/>
		
			<polyline fill="none" stroke="#0280A2" stroke-width="0.2217" stroke-linecap="round" stroke-linejoin="round" stroke-miterlimit="10" points="
			186.629,154.091 184.393,151.854 186.939,149.306 184.623,146.989 186.562,145.053 184.402,142.892 186.175,141.12 		"/>
		
			<polyline fill="none" stroke="#0280A2" stroke-width="0.2217" stroke-linecap="round" stroke-linejoin="round" stroke-miterlimit="10" points="
			186.629,141.12 184.393,138.884 186.939,136.336 184.623,134.02 186.562,132.082 184.402,129.925 186.175,128.15 		"/>
	</g>
	<g>
		
			<polyline fill="none" stroke="#0280A2" stroke-width="0.2217" stroke-linecap="round" stroke-linejoin="round" stroke-miterlimit="10" points="
			186.629,128.15 184.393,125.914 186.939,123.365 184.623,121.052 186.562,119.112 184.402,116.954 186.175,115.183 		"/>
		
			<polyline fill="none" stroke="#0280A2" stroke-width="0.2217" stroke-linecap="round" stroke-linejoin="round" stroke-miterlimit="10" points="
			186.629,115.183 184.393,112.944 186.939,110.397 184.623,108.082 186.562,106.145 184.402,103.984 186.175,102.213 		"/>
		
			<polyline fill="none" stroke="#0280A2" stroke-width="0.2217" stroke-linecap="round" stroke-linejoin="round" stroke-miterlimit="10" points="
			186.629,102.213 184.393,99.975 186.939,97.428 184.623,95.112 186.562,93.175 184.402,91.017 186.175,89.243 		"/>
		
			<polyline fill="none" stroke="#0280A2" stroke-width="0.2217" stroke-linecap="round" stroke-linejoin="round" stroke-miterlimit="10" points="
			186.629,89.243 184.393,87.007 186.939,84.458 184.623,82.145 186.562,80.205 184.96,78.153 181.984,77.791 182.325,75 
			179.342,77.238 177.649,75 175.842,76.782 		"/>
	</g>
</g>
</svg>
