<?xml version="1.0" encoding="utf-8"?>
<!-- Generator: Adobe Illustrator 16.0.0, SVG Export Plug-In . SVG Version: 6.00 Build 0)  -->
<!DOCTYPE svg PUBLIC "-//W3C//DTD SVG 1.1//EN" "http://www.w3.org/Graphics/SVG/1.1/DTD/svg11.dtd">
<svg version="1.1" id="Capa_1" xmlns="http://www.w3.org/2000/svg" xmlns:xlink="http://www.w3.org/1999/xlink" x="0px" y="0px"
	 width="250px" height="250px" viewBox="0 0 250 250" enable-background="new 0 0 250 250" xml:space="preserve">
<g>
	<g>
		<path fill="#FABA19" d="M171.584,67.848c-24.142,0.261-47.02-19.221-47.02-19.221s-22.462,19.689-46.604,19.95
			c-7.84,0.085-13.261-1.328-13.261-1.328l0.416,38.576c0.167,15.311,1.275,65.038,10.554,77.875
			c9.279,12.553,27.841,13.767,48.849,22.058l1.194,0.271l1.182-0.61c20.514-8.458,39.764-10.177,48.767-23.213
			c9.006-12.747,9.788-62.396,9.621-77.991l-0.409-37.981C184.814,66.234,178.234,67.776,171.584,67.848z"/>
		<path fill="#2E1D23" d="M125.735,205.862c-0.176,0-0.354-0.02-0.525-0.058l-1.19-0.269c-0.112-0.027-0.222-0.062-0.326-0.102
			c-16.839-6.646-35.84-3.893-49.828-22.812c-9.481-13.113-10.823-63.222-10.994-79.187l-0.416-38.574
			c-0.012-0.7,0.311-1.363,0.859-1.791c0.548-0.43,1.268-0.582,1.948-0.408c0.051,0.014,5.266,1.337,12.674,1.258
			c23.042-0.249,44.925-19.203,45.146-19.394c0.836-0.731,2.084-0.743,2.932-0.021c0.226,0.188,22.551,18.935,45.546,18.686
			c5.289-0.059,10.637-1.091,12.689-1.532c0.374-0.082,0.584-0.07,0.6-0.083c1.236-0.012,2.251,0.982,2.267,2.22l0.412,37.983
			c0.176,16.253-0.844,66.296-10.033,79.312c-9.111,13.191-28.54,15.218-49.66,23.956l-1.097,0.567
			C126.423,205.773,126.081,205.858,125.735,205.862z M125.187,201.196l0.222,0.05l0.455-0.233c0.055-0.03,0.112-0.058,0.171-0.081
			c20.151-8.307,38.985-9.684,47.778-22.412c8.656-12.258,9.392-61.39,9.225-76.694l-0.385-35.28
			c-2.827,0.508-6.935,1.093-11.049,1.136c-21.436,0.231-41.479-14.21-47.02-18.562c-5.46,4.414-25.181,19.059-46.597,19.291
			c-4.71,0.051-8.575-0.418-11.014-0.826l0.389,35.803c0.16,15.033,1.21,64.249,10.131,76.584
			C90.91,198.128,109.203,194.842,125.187,201.196z"/>
	</g>
	<g>
		<path fill="#2E1D23" d="M83.642,78.383c1.183,1.738,2.178,3.659,4.192,4.531c2.282,0.988,5.195,0.647,7.532,0.052
			c3.672-0.933,8.4-7.083,6.705-10.982c-0.836-1.915-2.995-2.331-4.795-1.536c-2.66,1.178-4.138,3.271-4.932,6.018
			c-1.676,5.847-0.696,12.33-1.668,18.299c-0.529,3.267-2.897,9.361-6.825,5.8c-0.953-0.863-3.602-4.758-1.217-5.308
			c1.99-0.459,4.783,1.211,6.389,2.111c2.77,1.554,5.091,3.881,8.104,5.015c5.686,2.141,11.562-0.971,12.771-6.971
			c0.393-1.97-2.617-2.808-3.018-0.832c-0.81,4.015-4.185,6.218-8.183,5.067c-2.714-0.782-5.079-3.026-7.396-4.55
			c-2.656-1.742-7.237-4.037-10.469-2.528c-5.106,2.382-0.688,9.613,2.527,11.488c2.411,1.41,5.095,0.762,7.051-1.073
			c3.663-3.441,3.745-9.853,3.963-14.48c0.116-2.487,0.233-4.958,0.451-7.439c0.14-1.553,0.334-3.062,0.766-4.563
			c0.323-1.127,3.982-4.686,3.52-2.354c-0.54,2.757-2.613,5.306-5.331,5.999c-1.416,0.36-3.523,0.436-4.881-0.154
			c-1.167-0.501-1.886-2.197-2.559-3.187C85.213,75.149,82.502,76.71,83.642,78.383L83.642,78.383z"/>
	</g>
	<g>
		<path fill="#2E1D23" d="M107.765,82.701c-4.457-5.318-11.939,3.246-10.045,8.284c2.543,6.769,9.143-2.3,9.655-5.738
			c0.292-1.964-2.683-2.829-3.014-0.832c-0.393,2.396-0.489,5.627,2.287,6.566c2.928,0.992,4.628-3.138,5.095-5.2
			c0.446-1.962-2.571-2.796-3.019-0.83c-0.218,0.984-0.471,2.314-1.356,2.946c0.065-0.047,0.268,0.496,0.015-0.181
			c-0.283-0.75-0.132-1.709-0.008-2.47c-1.003-0.278-2.01-0.554-3.014-0.832c-0.183,1.233-0.797,2.333-1.435,3.383
			c-0.377,0.628-0.824,1.194-1.322,1.727c-0.241,0.263-0.498,0.463-0.797,0.649c-0.304,0.188,0.085,0.175-0.047-0.027
			c-1.493-2.24,2.78-7.638,4.795-5.234C106.851,86.46,109.052,84.235,107.765,82.701L107.765,82.701z"/>
	</g>
	<g>
		<path fill="#2E1D23" d="M119.221,79.474c0.634,10.185,0.774,20.411-0.326,30.569c1.046,0,2.088,0,3.131,0
			c0.062-5.713-0.37-11.475,0.513-17.146c0.72-4.616,2.723-10.833,6.973-13.436c2.026-1.241,2.567,3.269,2.625,4.396
			c0.098,1.861-0.361,3.729-0.879,5.499c-0.591,2.004-1.567,3.928-2.979,5.47c-2.337,2.543-5.075,0.533-7.304-1.039
			c-1.143-0.807-2.667,0.517-2.298,1.766c1.571,5.275,3.562,12.606,9.286,14.836c5.764,2.24,9.816-2.129,8.549-7.826
			c-0.439-1.97-3.454-1.134-3.019,0.83c0.42,1.882,0.331,3.831-1.793,4.488c-2.251,0.696-4.601-1.555-5.821-3.138
			c-2.209-2.864-3.17-6.611-4.188-10.021c-0.762,0.589-1.532,1.178-2.294,1.765c2.496,1.764,5.292,3.578,8.411,2.378
			c2.466-0.943,4.087-3.31,5.23-5.565c2.283-4.496,3.851-12.289-0.28-16.258c-4.095-3.939-9.018,3.712-10.508,6.596
			c-4.223,8.182-3.255,17.529-3.355,26.406c-0.02,2.059,2.917,1.958,3.131,0c1.097-10.158,0.952-20.384,0.322-30.569
			C122.224,77.471,119.093,77.459,119.221,79.474L119.221,79.474z"/>
	</g>
	<g>
		<path fill="#2E1D23" d="M135.162,99.276c2.71-2.011,3.861-4.779,4.826-7.933c0.603-1.966-2.295-2.664-3.015-0.831
			c-1.022,2.613-1.034,5.406,0.421,7.852c0.446,0.752,1.384,0.964,2.139,0.562c3.456-1.857,5.082-5.516,7.866-8.12
			c-0.82-0.632-1.638-1.262-2.454-1.894c-1.944,2.891-2.948,8.734,1.699,9.508c4.114,0.686,7.21-5,5.359-8.447
			c-2.139-3.977-8.968-0.939-5.028,2.032c3.387,2.549,11.709-2.024,9.17-6.375c-0.747-1.28-3.041-0.809-2.913,0.789
			c0.312,4,1.202,7.938,1.976,11.867c0.514,2.6,2.069,7.731,0.07,10.01c-1.346,1.534-2.349-0.799-2.574-1.515
			c-0.378-1.198,0.408-2.117,1.046-2.998c1.435-1.972,2.936-3.866,4.604-5.647c2.368-2.535,5.988-4.293,7.439-7.556
			c0.567-1.273-0.343-2.572-1.762-2.296c-2.598,0.506-4.11,2.437-4.753,4.916c-0.505,1.968-0.256,5.929,1.91,6.959
			c5.04,2.397,5.961-6.856,6.646-9.792c-1.022-0.14-2.049-0.278-3.072-0.418c-0.19,2.158-1.05,6.491,1.447,7.805
			c2.104,1.108,4.892,0.604,4.651-2.269c-0.164-1.995-3.294-2.011-3.127,0c-0.155-1.878-0.012-3.669,0.155-5.536
			c0.155-1.77-2.676-2.111-3.072-0.412c-0.544,2.339-0.852,4.797-1.801,7.025c-0.081,0.155-0.159,0.311-0.241,0.469
			c-0.326,0.507-0.369,0.569-0.132,0.183c-0.4-0.667-0.424-1.542-0.439-2.291c-0.039-1.766,0.891-3.28,2.656-3.625
			c-0.587-0.764-1.175-1.53-1.766-2.296c-1.187,2.667-4.204,4.2-6.233,6.187c-2.178,2.129-4.014,4.568-5.811,7.016
			c-2.399,3.269-1.824,8.346,2.551,9.592c4.604,1.309,5.709-4.878,5.577-7.916c-0.261-5.89-2.36-11.589-2.819-17.461
			c-0.973,0.263-1.944,0.527-2.913,0.79c0.809,1.387-4.301,2.355-4.892,2.096c1.104,0.482,0.75,3.821,0.365,4.692
			c-0.541,1.233-2.419,2.17-2.521,0.169c-0.062-1.28,0.549-2.645,1.245-3.677c1.022-1.524-1.202-3.068-2.458-1.894
			c-2.555,2.39-4.078,5.938-7.232,7.63c0.712,0.187,1.427,0.375,2.143,0.56c-1.054-1.773-0.824-3.605-0.108-5.442
			c-1.004-0.276-2.007-0.552-3.015-0.831c-0.688,2.255-1.411,4.595-3.391,6.065C131.98,97.763,133.536,100.479,135.162,99.276
			L135.162,99.276z"/>
	</g>
	<g>
		<path fill="#2E1D23" d="M139.451,85.527c-0.307,0.14,0.343-0.126,0.062-0.027c-0.02,0.006-0.043,0.012-0.062,0.018
			c0.214-0.053,0.424-0.053,0.642-0.002c0.229,0.132,0.463,0.266,0.688,0.4c0.241,0.986,0.377,1.275,0.404,0.867
			c0.086-0.85-0.777-1.563-1.567-1.563c-0.909,0-1.478,0.716-1.56,1.563c-0.085,0.854,0.498,1.47,1.237,1.76
			c0.571,0.226,1.232-0.085,1.734-0.315c0.773-0.356,0.96-1.46,0.563-2.141C141.131,85.299,140.229,85.171,139.451,85.527
			L139.451,85.527z"/>
	</g>
	<g>
		<path fill="#2E1D23" d="M153.781,83.763c2.018,0,2.018-3.127,0-3.127C151.767,80.636,151.767,83.763,153.781,83.763
			L153.781,83.763z"/>
	</g>
	<g>
		<g>
			<path fill="#7C233A" d="M114.702,143.5c0.016,0.035,0.02,0.439,0.016,1.144c-0.043,7.094-0.91,44.894-0.016,46.161
				c0.987,1.393,4.764,3.162,12.145,3.033c7.39-0.124,11.492-1.264,11.982-2.022c0.494-0.758,0-48.315,0-48.315
				s0.494-1.77-3.772-4.678c-4.271-2.909-4.106-6.955-3.939-12.521c0.163-5.565,0.326-7.337,0.326-7.337h0.984l-0.331-3.288
				c0,0-2.313-0.885-5.421-0.632c-3.107,0.252-4.426,1.266-4.426,1.266l-0.326,3.413l0.987-0.124c0,0,0,14.163-0.987,15.935
				c-0.984,1.771-7.159,3.105-7.206,8.001"/>
		</g>
		<g>
			
				<path fill="none" stroke="#2E1D23" stroke-width="1.8568" stroke-linecap="round" stroke-linejoin="round" stroke-miterlimit="10" d="
				M113.66,142.458c0.012,0.031,0.016,0.436,0.012,1.14c-0.039,7.093-0.91,44.894-0.012,46.161c0.983,1.393,4.76,3.161,12.145,3.033
				c7.385-0.124,11.488-1.264,11.982-2.022c0.493-0.758,0-48.312,0-48.312s0.493-1.773-3.776-4.683
				c-4.267-2.906-4.104-6.955-3.939-12.52c0.163-5.565,0.326-7.335,0.326-7.335h0.988l-0.331-3.29c0,0-2.317-0.885-5.425-0.63
				c-3.107,0.253-4.422,1.264-4.422,1.264l-0.33,3.413l0.987-0.125c0,0,0,14.166-0.987,15.936c-0.984,1.771-7.16,3.103-7.206,8.001"
				/>
		</g>
		
			<path fill="#FFFFFF" stroke="#2E1D23" stroke-width="1.8568" stroke-linecap="round" stroke-linejoin="round" stroke-miterlimit="10" d="
			M137.818,145.744c-0.855,0.004-15.953,1.268-21.696,0.506v31.367c0,0,13.785,2.275,21.008,0L137.818,145.744z"/>
		
			<path fill="none" stroke="#2E1D23" stroke-width="1.8568" stroke-linecap="round" stroke-linejoin="round" stroke-miterlimit="10" d="
			M121.644,128.283c0,0,6.825,1.007,8.369,0"/>
		
			<path fill="none" stroke="#2E1D23" stroke-width="1.8568" stroke-linecap="round" stroke-linejoin="round" stroke-miterlimit="10" d="
			M157.507,181.977c-6.075-1.333-14.463-1.586-20.229,0.6"/>
		
			<path fill="none" stroke="#2E1D23" stroke-width="1.8568" stroke-linecap="round" stroke-linejoin="round" stroke-miterlimit="10" d="
			M113.474,184.956c-6.756,1.283-12.359,4.608-18.445,7.734"/>
		
			<path fill="none" stroke="#2E1D23" stroke-width="1.8568" stroke-linecap="round" stroke-linejoin="round" stroke-miterlimit="10" d="
			M80.515,170.524c0.335-2.866,14.549-10.286,17.096-10.843c2.776-0.61,5.095-0.155,7.786,0.261
			c3.087,0.479,5.113,1.481,7.758,2.501"/>
		
			<path fill="none" stroke="#2E1D23" stroke-width="1.8568" stroke-linecap="round" stroke-linejoin="round" stroke-miterlimit="10" d="
			M138.258,162.272c6.205-4.096,20.804-3.609,30.97,2.924"/>
		
			<path fill="none" stroke="#2E1D23" stroke-width="1.8568" stroke-linecap="round" stroke-linejoin="round" stroke-miterlimit="10" d="
			M148.745,177.229c1.225-0.692-8.011-6.646-10.487-6.704"/>
		
			<path fill="none" stroke="#2E1D23" stroke-width="1.8568" stroke-linecap="round" stroke-linejoin="round" stroke-miterlimit="10" d="
			M113.839,150.411c-7.113-2.762-18.01,3.877-22.365,10.142c0.408-0.073,1.742-3.278,2.081-3.608"/>
		
			<path fill="none" stroke="#2E1D23" stroke-width="1.8568" stroke-linecap="round" stroke-linejoin="round" stroke-miterlimit="10" d="
			M137.569,151.612c3.814-2.465,20.801-11.177,33.307,7.564"/>
		
			<path fill="none" stroke="#2E1D23" stroke-width="1.8568" stroke-linecap="round" stroke-linejoin="round" stroke-miterlimit="10" d="
			M149.43,160.207c-0.643,0.159-1.147,0.194-1.494,0.836c0.817-0.108,1.715-0.089,2.517-0.432c-0.455,0.226-1.104,0.712-1.237,0.793
			c0.518-0.314,0.938-0.66,1.369-1.003c-0.443,0.308-1.124,0.743-1.605,1.163c0.404-0.494,0.983-0.938,1.454-1.346
			c-0.595,0.902-0.688,1.839,0.257,2.403c-0.906-0.039-2.221-0.436-3.31-0.319c1.085,0.439,2.341,0.214,3.379,0.521
			c-0.314,0.144-0.703,0.338-1.022,0.49c-0.09,0.004,0.805,0.027,0.965,0.016c-0.537,0.226-1.062,0.606-1.606,0.812
			c0.603-0.175,1.431-0.031,2.046-0.117c-0.031-0.007-0.226,0.351-0.164,0.455c0.366-0.097,0.965-0.179,1.365-0.264
			c-0.373,0.299-0.852,0.719-1.225,0.979c-0.039,0.147,0.276,0.973,0.276,0.969c-0.062-0.206-0.401-0.276-0.533-0.436
			c0.33,0.303,0.677,0.785,1.034,1.069c-0.4-0.351-0.875-0.642-1.244-0.906c0.369,0.622,0.486,1.007,1.14,1.571
			c-0.622-0.471-1.187-0.977-1.812-1.432c1.034,0.18,1.897,0.898,2.345,1.758c0.078-0.513,0.315-1.283,0.354-1.715
			c-0.206,1.151-0.895,2.299-1.338,3.415c0.587-0.973,0.412-1.793-0.603-2.217c1.003,0.136,1.843,0.681,2.123,1.485
			c-0.377-0.19-0.72-0.404-1.108-0.568c0.638,0.432,1.186,0.802,1.878,1.112c-0.089,0.004-0.801-0.256-0.925-0.311
			c-0.051,0.104-0.047,0.21,0.007,0.314c0.455-0.365,1.147-0.852,1.661-1.279c-0.599,0.957-1.24,1.855-1.672,2.89
			c0.365-0.381,1.252-0.793,1.688-1.244c0.008,0.424-0.051,0.937-0.155,1.368c-0.347-0.116-0.938-0.198-1.206-0.295
			c0.187,0.867-0.016,1.423,1.12,1.972c-0.529-0.257-1.171-0.416-1.649-0.614c0.471,0.944,1.369,1.528,2.438,1.668
			c0.343-0.051-0.801-0.393-0.677-0.312c0.206,0.661,0.397,0.596,0.692,1.047c0.187-0.424,0.396-0.731,0.518-1.265
			c-0.109,1.167-0.396,2.314-0.704,3.435c0.082-0.023,0.774-0.755,0.871-0.855c0.027,0.046,0.358,0.758,0.361,0.762
			c-0.563-0.681-1.356-0.906-2.072-1.221c0.108,1.034,0.883,1.808,1.882,2.217c-0.357-0.39-0.809-0.704-1.225-1.055
			c0.09,0.926,0.696,1.716,1.54,2.065c-0.222-0.323-0.463-0.778-0.696-1.101c0.482,0.809,0.712,1.275,1.065,2.1
			c-0.175-0.622-0.21-1.419-0.183-1.154"/>
		
			<path fill="none" stroke="#2E1D23" stroke-width="1.8568" stroke-linecap="round" stroke-linejoin="round" stroke-miterlimit="10" d="
			M160.264,162.101c1.065-0.346,2.566,0.257,2.566,1.685c-0.591,0.085-1.104,0.307-1.742,0.206c0.988,0.004,1.987-0.012,2.979,0.023
			c-0.81,0.361-1.75,0.816-2.466,1.186c1.12,0.004,2.52,0.603,1.334,1.711c0.723,0.618,0.229,0.284,0.524,1.194
			c0.062,0.104,0.459-0.039,0.564,0.031c0.104,0.346-0.078,0.622-0.062,0.933c0.292-0.24,0.953-0.579,1.128-0.754
			c-0.385,0.463-0.63,1.182-1.007,1.688c0.081,0.02,0.882-0.269,0.964-0.295c-0.167,0.244-0.381,0.824-0.583,1.154
			c0.412-0.171,0.914-0.194,1.275-0.318c-0.198,0.342-0.28,0.921-0.587,1.354c0.389-0.062,0.887-0.031,1.268-0.16
			c-0.175,0.261-0.339,0.794-0.576,1.104c0.347-0.147,0.829-0.257,1.128-0.381c-0.346,0.471-0.587,1.151-1.019,1.606
			c0.357-0.184,0.852-0.288,1.167-0.443c-0.724,1.54-0.604,3.581,0.528,4.565c-0.093,0.198-0.385,0.583-0.513,0.766
			c0.206-0.077,0.474-0.21,0.653-0.326c-0.082,0.346-0.409,0.746-0.424,1.097c0.501,0.237,0.163,0.467,0.12,0.599"/>
		
			<path fill="none" stroke="#2E1D23" stroke-width="1.8568" stroke-linecap="round" stroke-linejoin="round" stroke-miterlimit="10" d="
			M138.6,163.819c0.708,0.708,2.454,1.081,1.256,2.691c0.062,0.02,0.806,0.082,0.957,0.082c0-0.004-0.043,0.84-0.129,0.723
			c0.241,0.094,0.451,0.362,0.541,0.615c0.428-0.086,1.178,0.065,1.38,0.038c-0.39,0.502-0.451,1.276-0.696,1.704
			c0.342-0.094,0.653-0.222,0.983-0.304c-0.058,0.467-0.104,0.677-0.279,1.128c0.361,0.677,0.264,1.762,0.459,1.403"/>
		
			<path fill="none" stroke="#2E1D23" stroke-width="1.8568" stroke-linecap="round" stroke-linejoin="round" stroke-miterlimit="10" d="
			M91.147,164.162c0.746-0.579,1.652-1.727,2.893-1.412c0.304,1.136-0.101,2.116-1.154,2.442c0.489-0.591,1.178-0.972,1.823-1.342
			c-0.271,0.747-0.237,1.261-0.948,2.003c0.618-0.307,0.937-0.124,1.509-0.237c-0.233,0.58-0.276,1.365-0.677,1.863
			c0.308-0.354,0.673-0.557,0.976-0.844c-0.151,0.509-0.128,1.264-0.291,1.772c0.428-0.583,1.007-0.816,1.357-1.139
			c-0.28,0.552-0.374,1.146-0.794,1.703c0.055-0.02,0.692-0.428,0.782-0.494c-0.074,0.144-0.432,0.93-0.475,1.124
			c0.287-0.194,0.809-0.459,0.983-0.603c-0.101,0.257-0.206,0.918-0.291,1.229c-0.137,0.109,0.742-0.486,0.832-0.571
			c-0.222,0.396-0.381,0.863-0.692,1.307c0.308-0.288,0.763-0.529,1.038-0.802c-0.202,0.49-0.241,1.187-0.513,1.712
			c0.307-0.229,0.766-0.467,1.022-0.669c-0.128,0.408-0.117,0.906-0.288,1.346c0.265-0.109,0.782-0.479,0.98-0.661
			c-0.121,0.256-0.272,0.871-0.378,1.193c0.292-0.261,0.755-0.54,1.02-0.789c-0.051,0.4-0.121,0.812-0.28,1.271
			c-0.004-0.016,0.479-0.269,0.479-0.07c-0.055,0.272-0.155,0.996-0.132,1.279c0.393-0.226,0.917-0.268,1.143-0.381
			c-0.257,0.712-0.291,1.275-0.855,1.897c-0.163,0.012,0.739-0.646,0.669-0.575c-0.012,0.086-0.07,1.007-0.035,1.089
			c0.362-0.308,0.961-0.528,1.272-0.754c-0.199,0.505-0.152,1.131-0.467,1.676c0.396-0.241,0.987-0.308,1.334-0.49
			c-0.261,0.506-0.253,1.311-0.657,1.867c1.738-0.639,2.345,0.509,1.065,1.866c0.271-0.14,0.75-0.33,0.964-0.471
			c-0.065,0.396,0.082,0.82-0.104,1.373c0.361-0.198,1.003-0.269,1.303-0.459c-0.21,0.471-0.129,1.097-0.439,1.645
			c0.346-0.085,0.824-0.042,1.136-0.128c-0.202,0.506-0.09,1.085-0.467,1.676c0.35-0.167,0.859-0.179,1.15-0.299
			c0.172,0.805-0.058,1.462-0.493,2.037"/>
		
			<path fill="none" stroke="#2E1D23" stroke-width="1.8568" stroke-linecap="round" stroke-linejoin="round" stroke-miterlimit="10" d="
			M104.731,161.584c1.015-0.109,2.325-0.588,3.449-0.187c0.073,1.046-0.187,1.617-1.175,2.1c0.288-0.066,0.759-0.237,0.977-0.357
			c-0.168,0.198-0.576,0.703-0.759,0.956c0.354-0.124,0.794-0.159,1.116-0.276c-0.202,0.304-0.447,0.853-0.665,1.214
			c0.396-0.229,0.965-0.393,1.33-0.642c-0.241,0.369-0.334,0.871-0.661,1.295c0.039,0.089,0.074-0.105,0.008,0.832
			c0.272-0.097,0.354-0.396,0.649-0.459c-0.128,0.646-0.035,1.179-0.304,1.832c0.008,0.012,0.428-0.249,0.479-0.098
			c-0.047,0.194-0.151,0.973-0.128,1.132c0.385-0.4,0.976-0.626,1.33-0.972c-0.194,0.528-0.175,1.139-0.479,1.684
			c0.012,0.104,0.479-0.047,0.482,0.043c-0.222,0.447-0.362,0.852-0.677,1.33c0.447-0.627,1.042-0.79,1.583-1.14
			c0.175,0.575,0.085,0.766-0.051,1.283c0.059,0.059,0.451-0.369,0.528-0.292c-0.24,0.374-0.424,1.077-0.673,1.509
			c0.433-0.275,0.845-0.275,1.175-0.42c0.202,0.708-0.097,1.089-0.318,1.497"/>
		
			<path fill="none" stroke="#2E1D23" stroke-width="1.8568" stroke-linecap="round" stroke-linejoin="round" stroke-miterlimit="10" d="
			M105.762,151.096c-1.424,0.365-3.741,1.127-1.544,2.52c-1.412-0.237-2.295,0.859-1.034,1.832
			c-1.097,0.085-1.062,0.505-1.762,1.162c0.287,0.125,0.7,0.51,1.034,0.685c-1.264,0.296-0.84,0.572-1.326,1.311
			c0.7,0.319,0.459-0.19,0.677-0.287"/>
		
			<path fill="none" stroke="#2E1D23" stroke-width="1.8568" stroke-linecap="round" stroke-linejoin="round" stroke-miterlimit="10" d="
			M139.288,151.267c2.267-0.875,3.172,1.124,0.521,1.684c0.102,0.098,0.572,0.035,0.704,0.055c0.117,0.334-0.039,1.022,0.07,1.264
			c0.308-0.016,0.396-0.35,0.758-0.245c-0.232,0.362-0.322,1.069-0.642,1.536c0.692,0.922,0.883-0.02,0.347,1.179
			c0.346-0.082,0.982,0.004,1.329-0.129c-0.308,0.514-0.272,0.98-0.785,1.532c0.133,0.098,0.766,0.051,0.944,0.031
			c0.218,0.233-0.171,0.646-0.094,0.821c0.394-0.188,0.739-0.233,1.14-0.327c-0.151,0.529-0.33,0.914-0.657,1.377
			c-0.536,0.361,0-0.366-0.198-0.351"/>
		
			<path fill="none" stroke="#2E1D23" stroke-width="1.8568" stroke-linecap="round" stroke-linejoin="round" stroke-miterlimit="10" d="
			M147.368,149.376c1.213-0.567,3.869-0.081,1.956,1.373c0.043,0.031,0.183,0.269,0.144,0.315c0.137,0.132,0.455,0.136,0.618,0.229
			c-0.19,0.451-0.128,1.034-0.436,1.567c0.308-0.105,0.887-0.253,1.132-0.362c0.027,0.486-0.245,0.599-0.268,0.984
			c0.244,0.089,0.56-0.331,0.789-0.145c-0.222,0.432-0.3,0.879-0.63,1.354c0.412-0.237,1.144-0.292,1.485-0.451
			c-0.265,0.824,0.004,1.206-0.614,2.003c0.272-0.055,0.712-0.198,0.964-0.33c-0.112,0.233-0.373,1.097-0.451,1.311
			c0.312-0.145,0.906-0.3,1.136-0.443c-0.14,0.33-0.257,0.832-0.436,1.213c0.245-0.059,0.759-0.261,0.949-0.342
			c0.272,0.991-0.136,1.135-0.665,1.524"/>
		
			<path fill="none" stroke="#2E1D23" stroke-width="1.8568" stroke-linecap="round" stroke-linejoin="round" stroke-miterlimit="10" d="
			M159.062,151.441c1.661,0.19,2.287,1.789,0.918,2.886c0.055,0.027,0.167,0.307,0.141,0.35c0.155,0.082,0.42,0.031,0.595,0.086
			c-0.012,0.979,0.202,1.338-0.545,2.119c0.214,0.016,0.685-0.008,0.934-0.089c-0.171,0.232-0.439,0.859-0.603,1.193
			c0.314,0.008,0.634-0.051,0.941,0.012c0.248,1.046-0.012,1.925-0.833,2.384"/>
		
			<path fill="none" stroke="#2E1D23" stroke-width="1.8568" stroke-linecap="round" stroke-linejoin="round" stroke-miterlimit="10" d="
			M145.479,174.308c-1.124-0.214-1.855,0.241-2.058,1.354c0.226,0.066,0.443,0,0.638,0.156c-0.855,0.373-1.536,1.131-2.05,2.033
			c0.035-0.073-0.427-0.097-0.457-0.081c0.081,0.338,0.085,1.069,0.124,1.201c-0.027,0-0.094-0.361-0.455-0.226
			c-0.755,1.245,0.304,1.906,0.815,1.408"/>
		
			<path fill="none" stroke="#2E1D23" stroke-width="1.8568" stroke-linecap="round" stroke-linejoin="round" stroke-miterlimit="10" d="
			M99.225,160.896c2.431,1.536,3.722,5.238,5.199,7.61c1.287,2.073,2.878,3.967,4.149,6.035c1.217,1.983,2.084,4.263,3.204,6.301"/>
		
			<path fill="none" stroke="#2E1D23" stroke-width="1.8568" stroke-linecap="round" stroke-linejoin="round" stroke-miterlimit="10" d="
			M86.333,167.087c3.989,0.599,7.264,10.671,9.477,13.724c1.696,2.345,2.917,4.981,4.62,7.253"/>
		
			<path fill="none" stroke="#2E1D23" stroke-width="1.8568" stroke-linecap="round" stroke-linejoin="round" stroke-miterlimit="10" d="
			M88.911,182.39c1.415,1.703,7.7,7.595,7.393,8.423"/>
		
			<path fill="none" stroke="#2E1D23" stroke-width="1.8568" stroke-linecap="round" stroke-linejoin="round" stroke-miterlimit="10" d="
			M155.278,162.101c2.516,2.762,3.62,7.016,4.106,10.648c0.194,1.415-0.357,3.826,0.155,5.074c0.331,0.802,1.428,1.334,1.929,1.987"
			/>
		
			<path fill="none" stroke="#2E1D23" stroke-width="1.8568" stroke-linecap="round" stroke-linejoin="round" stroke-miterlimit="10" d="
			M143.242,162.614c1.839,3.255,4.686,6.767,6.008,10.146c0.557,1.423,0.245,3.057,0.895,4.542c0.572,1.314,2.03,2.578,1.867,3.881"
			/>
		
			<path fill="none" stroke="#2E1D23" stroke-width="1.8568" stroke-linecap="round" stroke-linejoin="round" stroke-miterlimit="10" d="
			M144.619,151.267c1.193,1.874,3.379,5.188,2.578,7.396"/>
		
			<path fill="none" stroke="#2E1D23" stroke-width="1.8568" stroke-linecap="round" stroke-linejoin="round" stroke-miterlimit="10" d="
			M154.076,149.548c2.05,1.742,2.388,5.568,3.609,7.91"/>
		
			<path fill="none" stroke="#2E1D23" stroke-width="1.8568" stroke-linecap="round" stroke-linejoin="round" stroke-miterlimit="10" d="
			M111.09,152.472c-1.579,1.848-3.317,4.363-2.579,6.876"/>
		
			<path fill="none" stroke="#2E1D23" stroke-width="1.8568" stroke-linecap="round" stroke-linejoin="round" stroke-miterlimit="10" d="
			M98.54,154.533c-1.015,1.354-3.139,5.725-3.613,6.02"/>
		
			<path fill="none" stroke="#2E1D23" stroke-width="1.8568" stroke-linecap="round" stroke-linejoin="round" stroke-miterlimit="10" d="
			M174.384,145.744c-14.12-5.65-22.625-19.96-29.882-22.236c-3.305-1.037-2.683,1.843-4.498,3.898
			c-2.197,2.491-2.346,0.084-4.531-1.355c-1.668-1.101-4.247-1.223-4.779,1.316"/>
		
			<path fill="none" stroke="#2E1D23" stroke-width="1.8568" stroke-linecap="round" stroke-linejoin="round" stroke-miterlimit="10" d="
			M120.376,132.009c-1.187,1.112-3.049,1.27-4.449,2.189c-1.256,0.824-1.994,2.011-3.165,2.915
			c-2.097,1.623-4.469,2.992-6.686,4.501c-3.29,2.229-7.809,6.078-10.978,7.245"/>
		
			<path fill="none" stroke="#2E1D23" stroke-width="1.8568" stroke-linecap="round" stroke-linejoin="round" stroke-miterlimit="10" d="
			M74.946,137.855c2.602-1.344,9.045-5.168,19.938-12.013c2.368-1.489,2.975-0.525,5.366,0.64c2.804,1.367,4.348,2.917,6.611,4.952
			c1.279,1.149,3.414,1.964,4.091,3.619c0.369,0.033,2.058,0.274,0.824,0.395"/>
		
			<path fill="none" stroke="#2E1D23" stroke-width="1.8568" stroke-linecap="round" stroke-linejoin="round" stroke-miterlimit="10" d="
			M87.018,178.088c-0.222,0.455-0.623,0.98-0.49,1.715c0.108-0.175,0.459-0.614,0.638-0.917c-0.016,0.657,0.082,1.349,0.016,2.014
			c0.062-0.369,0.155-0.734,0.222-1.108c0.059,0.631,0.482,1.365,0.606,1.956c0.07-0.303,0.439-0.956,0.521-1.388
			c0.104,0.245,0.077,0.72,0.062,0.983c0.016-0.004,0.841-0.256,0.626-0.326c-0.093,1.73,0.953,1.797,1.891,0.82
			c0.14,1.354,0.412,2.645,0.887,3.792c0.28-0.129,0.704-0.183,1.038-0.347c0.319,1.275,0.852,2.536,2.396,1.922
			c-0.051,0.913,0.074,1.917,0.343,2.761c0.222-0.272,0.412-0.545,0.646-0.906c0.12,0.475-0.129,1.042-0.284,1.412"/>
		
			<path fill="none" stroke="#2E1D23" stroke-width="1.8568" stroke-linecap="round" stroke-linejoin="round" stroke-miterlimit="10" d="
			M119.688,157.286c5.752-6.584,6.366,14.692,4.173,15.493c-3.608,1.318-1.595-9.488-1.189-10.461
			c0.711-1.715,6.214-10.718,9.523-9.003c3.061,1.587-1.707,10.52-3.846,11.57c-0.806,0.393-4.531,1.38-5.099,0.136
			c-0.241-0.529,0.983-2.119,1.56-1.897c1.019,0.381,1.524,5.953,3.379,7.085c2.05,1.253,8.175-1.128,5.942-3.465"/>
		
			<path fill="none" stroke="#2E1D23" stroke-width="1.8568" stroke-linecap="round" stroke-linejoin="round" stroke-miterlimit="10" d="
			M121.578,116.02c3.114,1.067,7.462,1.61,9.975-1.031"/>
		
			<path fill="none" stroke="#2E1D23" stroke-width="1.8568" stroke-linecap="round" stroke-linejoin="round" stroke-miterlimit="10" d="
			M123.813,119.457c1.642,0,3.916,0.354,4.99-0.857"/>
		
			<path fill="none" stroke="#2E1D23" stroke-width="1.8568" stroke-linecap="round" stroke-linejoin="round" stroke-miterlimit="10" d="
			M116.25,180.842c0.012,2.757-0.404,5.502-0.346,8.252"/>
		
			<path fill="none" stroke="#2E1D23" stroke-width="1.8568" stroke-linecap="round" stroke-linejoin="round" stroke-miterlimit="10" d="
			M116.764,140.094c0.283,1.248-0.082,2.668-0.343,3.955"/>
	</g>
	
		<path fill="none" stroke="#2E1D23" stroke-width="1.8568" stroke-linecap="round" stroke-linejoin="round" stroke-miterlimit="10" d="
		M99.497,153.168c-7.592,0.187-17.197-3.769-23.104,3.096"/>
	
		<path fill="none" stroke="#2E1D23" stroke-width="1.8568" stroke-linecap="round" stroke-linejoin="round" stroke-miterlimit="10" d="
		M78.866,157.5c0.187-0.295,0.49-0.463,0.657-0.773c-0.381,0.502-0.622,1.112-0.949,1.625c0.467-0.175,0.879-0.377,1.283-0.626
		c-0.108,0.498-0.089,0.98-0.268,1.517c0.466-0.711,1.069-1.33,1.539-2.029c-0.396,0.758-0.646,1.792-1.022,2.57
		c0.436-0.428,1.214-0.84,1.63-1.236c-0.323,0.614-0.443,1.388-0.743,2.021c0.265-0.222,0.809-0.497,1.147-0.762
		c-0.214,0.734-0.082,1.831-0.339,2.582c0.343-0.323,0.852-0.571,1.222-0.922c-0.098,0.626,0.004,1.202-0.175,1.82
		c0.214-0.14,0.657-0.572,0.909-0.587c0.09,0.727,0.18,1.819,0.051,2.598c0.396-0.63-0.108-0.125-0.404-0.164"/>
	
		<path fill="none" stroke="#2E1D23" stroke-width="1.8568" stroke-linecap="round" stroke-linejoin="round" stroke-miterlimit="10" d="
		M84.438,153.786c1.459,3.209,5.515,4.585,5.981,8.459"/>
	
		<path fill="none" stroke="#2E1D23" stroke-width="1.8568" stroke-linecap="round" stroke-linejoin="round" stroke-miterlimit="10" d="
		M91.656,153.786c0.992,0.739,1.832,1.606,2.271,2.684"/>
	
		<path fill="none" stroke="#2E1D23" stroke-width="1.8568" stroke-linecap="round" stroke-linejoin="round" stroke-miterlimit="10" d="
		M153.342,129.236c2.477-0.679,12.032-3.988,11.993-0.018c2.924-1.146,9.566,1.915,4.954,4.179c1.012,1.693-1.446,3.289-3.104,3.671
		c-0.77,0.179-2.135-0.368-2.722-0.378c-1.151-0.019-1.723,1.064-3.076,0.18"/>
	
		<path fill="none" stroke="#2E1D23" stroke-width="1.8568" stroke-linecap="round" stroke-linejoin="round" stroke-miterlimit="10" d="
		M89.802,127.585c-2.446-1.181-10.057-4.266-11.142,0.142c-0.082-2.967-4.939,0.912-2.154,3.786c1.376,1.42,5.04,1.783,6.898,1.644"
		/>
</g>
</svg>
