<?xml version="1.0" encoding="utf-8"?>
<!-- Generator: Adobe Illustrator 16.0.0, SVG Export Plug-In . SVG Version: 6.00 Build 0)  -->
<!DOCTYPE svg PUBLIC "-//W3C//DTD SVG 1.1//EN" "http://www.w3.org/Graphics/SVG/1.1/DTD/svg11.dtd">
<svg version="1.1" id="Capa_1" xmlns="http://www.w3.org/2000/svg" xmlns:xlink="http://www.w3.org/1999/xlink" x="0px" y="0px"
	 width="250px" height="250px" viewBox="0 0 250 250" enable-background="new 0 0 250 250" xml:space="preserve">
<g>
	<g>
		<path fill="#F8F4F1" d="M211.335,187.942L133.476,53.089c-1.817-3.146-6.297-6.357-10.62-5.637
			c-3.584,0.597-8.269,5.86-10.088,9.006l-74.99,131.87c-1.816,3.15-1.816,7.026,0,10.172c1.817,3.15,5.175,5.09,8.807,5.09h156.167
			c0,0,0.006,0,0.012,0c5.616,0,10.168-4.557,10.168-10.176C212.931,191.4,212.35,189.522,211.335,187.942z"/>
		
			<path fill="none" stroke="#0280A2" stroke-width="1.4411" stroke-linecap="round" stroke-linejoin="round" stroke-miterlimit="10" d="
			M98.797,136.562c1.342-1.689,2.434-2.034,4.269-0.794c1.685,1.139,4.316,3.92,6.352,1.835c1.389-1.441,0.892-4.614-0.992-1.933
			c-2.231,3.222-3.177,7.439-4.314,11.112c-0.497,1.685-1.295,5.211-3.377,5.655c-1.734,0.397-2.729-2.083-1.287-3.077
			c1.733-1.189,4.117,1.34,5.655,1.837c1.935,0.646,3.668-0.745,5.257-1.735c4.367-2.83,6.301-6.898,6.798-12.008
			c-2.284,2.185-3.573,6.103-3.623,9.279c0,3.668,3.221,2.43,5.061,0.792c1.935-1.785,3.771-3.522,6.451-4.016
			c-1.64-0.448-3.424,1.238-3.97,2.678c-0.694,1.833,0.25,4.019,2.235,2.279c0.842-0.743,2.824-3.77,1.981-4.957
			c-0.991-1.391-3.869,1.585-2.032,2.43c1.391,0.644,4.762-1.638,5.807-2.43c0.096,2.281-0.3,4.612-0.249,6.892
			c0.544-2.032-0.051-4.91,1.685-6.6c0.696-0.74,3.82-1.287,3.77,0.201c0-0.146,0-0.248-0.047-0.396"/>
		
			<path fill="none" stroke="#0280A2" stroke-width="1.4411" stroke-linecap="round" stroke-linejoin="round" stroke-miterlimit="10" d="
			M133.082,146.981c1.438,0.743,4.812-0.349,5.357-1.886c0.943-2.48-2.083-0.842-2.875-0.101c-1.096,1.092-1.837,3.326-0.399,4.564
			c1.837,1.639,4.513-1.041,5.409-2.527c1.886-2.929,2.527-6.453,4.266-9.378c-1.238,1.839-2.032,3.969-2.58,6.102
			c-0.297,1.093-1.439,4.119-0.843,5.16c0.843,1.639,4.714-0.646,5.059-1.985"/>
		
			<path fill="none" stroke="#0280A2" stroke-width="1.4411" stroke-linecap="round" stroke-linejoin="round" stroke-miterlimit="10" d="
			M140.771,141.572c1.438,0,3.672,0.397,4.814-0.546"/>
		
			<path fill="none" stroke="#0280A2" stroke-width="1.4411" stroke-linecap="round" stroke-linejoin="round" stroke-miterlimit="10" d="
			M106.143,158.293c-0.895-1.833-4.068,0.3-4.515,1.538c-0.347,1.143-0.199,2.134,1.09,1.983c1.342-0.148,2.779-1.983,3.425-3.075
			c1.09-1.884,1.289-4.315,2.48-6.054c-0.595,1.886-2.284,4.17-1.938,6.302c0.351,2.332,3.725,2.035,5.016,0.697
			c0.991-1.045,1.983-4.865-0.351-2.829c-1.437,1.238-2.625,5.01-0.244,5.903c0.991,0.397,3.867-0.348,3.622-1.639"/>
		
			<path fill="none" stroke="#0280A2" stroke-width="1.4411" stroke-linecap="round" stroke-linejoin="round" stroke-miterlimit="10" d="
			M119.983,156.904c1.291-1.737,3.226-3.621,5.312-4.364c0.148,0.394,0,0.743-0.051,1.189c-0.3,1.983-1.092,4.018-1.589,6.002
			c-0.494,1.838-0.696,3.771-1.141,5.557c-0.397-1.586,1.192-3.918,1.837-5.209c0.741-1.537,2.58-6.35,4.715-6.549
			c1.935-0.148,0.792,3.325,0.64,4.415c-0.442,2.531-1.139,5.211-1.041,7.789c-0.345-1.884,4.021-15.033,6.354-12.75
			c0.644,0.647-0.15,3.276-0.25,3.971c-0.345,1.638-0.791,3.323-0.746,4.959c0,0.446,0.249,3.177,0.896,2.729"/>
		
			<path fill="none" stroke="#0280A2" stroke-width="1.4411" stroke-linecap="round" stroke-linejoin="round" stroke-miterlimit="10" d="
			M140.425,157.896c-0.894-3.077-4.612,1.488-3.871,3.624c0.895,2.58,5.46-3.027,5.757-4.519c-0.692,0.994-2.928,6.649-0.396,6.451
			c2.134-0.195,2.926-4.714,3.321-6.35c-0.741,1.984-0.843,4.562-0.843,6.649c-0.047-1.342,0.497-3.179,1.34-4.22
			c0.448-0.546,1.688-1.091,1.737-1.091"/>
		
			<path fill="none" stroke="#39AE72" stroke-width="1.4411" stroke-linecap="round" stroke-linejoin="round" stroke-miterlimit="10" d="
			M159.526,140.831c0.396-1.587,0.097-4.812-1.586-5.558c-0.745-0.299-1.937-0.299-2.087,0.647c0.997-0.796-0.296-2.333-1.139-2.68
			c-0.996-0.448-1.89-0.051-2.631,0.593c-0.692-0.644-0.548-1.786-1.487-2.281c-0.995-0.498-2.134,0.245-2.384,1.342
			c0.745-1.643-1.489-3.573-2.576-1.84c-0.249-1.487-1.64-0.298-1.89,0.545"/>
		
			<path fill="none" stroke="#39AE72" stroke-width="1.4411" stroke-linecap="round" stroke-linejoin="round" stroke-miterlimit="10" d="
			M148.958,146.684c-0.199-1.733,1.389-3.321,2.775-4.117c2.782-1.489,3.775,0,4.421,2.529c0.198-1.238,1.238-1.933,2.479-1.788
			c1.833,0.203,1.985,1.689,1.685,3.179c2.482-3.572,3.278,3.124,1.689,3.175"/>
		
			<path fill="none" stroke="#0280A2" stroke-width="1.4411" stroke-linecap="round" stroke-linejoin="round" stroke-miterlimit="10" d="
			M162.851,158.593c0.098-2.829,0.051-5.806-3.024-6.749c-1.89-0.593-4.716,0.296-4.716,2.678c-0.795-3.372-6.897-2.083-6.002,0.499
			c0.197-4.614-3.969-0.398-4.614,1.638"/>
		
			<path fill="none" stroke="#39AE72" stroke-width="1.4411" stroke-linecap="round" stroke-linejoin="round" stroke-miterlimit="10" d="
			M97.954,135.273c-2.235-2.828-6.152-2.926-8.881-0.644c-2.032,1.735-1.985,3.818,0.102,5.409
			c-1.786-1.591-5.808,3.171-3.674,4.115c-2.676-0.346-1.985,4.415,0.446,4.961c0.647,0.199,2.527,0.448,2.929-0.098"/>
		
			<path fill="none" stroke="#39AE72" stroke-width="1.4411" stroke-linecap="round" stroke-linejoin="round" stroke-miterlimit="10" d="
			M105.146,116.52c-2.773-2.48-6.896-1.785-9.671,0.348c-2.235,1.686-5.016,4.614-2.334,7.044c-1.289,0.249-2.381,0.595-3.027,1.935
			c-0.497,1.094-0.199,2.281,1.042,2.63c-2.235-0.992-3.027,2.729-0.646,3.274"/>
		
			<path fill="none" stroke="#F1C560" stroke-width="1.4411" stroke-linecap="round" stroke-linejoin="round" stroke-miterlimit="10" d="
			M151.049,131.365c5.823-3.354,4.945-12.71,2.473-17.83c-3.885-7.59-11.301-12.888-19.771-12.358
			c-3.356,0.177-6.535,1.06-9.006,3.531"/>
		
			<path fill="none" stroke="#F1C560" stroke-width="1.4411" stroke-linecap="round" stroke-linejoin="round" stroke-miterlimit="10" d="
			M127.216,85.289c0.882,2.294,1.06,5.12,1.59,7.589"/>
		
			<path fill="none" stroke="#F1C560" stroke-width="1.4411" stroke-linecap="round" stroke-linejoin="round" stroke-miterlimit="10" d="
			M149.637,101.001c1.061-0.707,2.12-2.119,2.65-3.179"/>
		
			<path fill="none" stroke="#F1C560" stroke-width="1.4411" stroke-linecap="round" stroke-linejoin="round" stroke-miterlimit="10" d="
			M162.348,129.072c2.12,0.526,4.411,0.881,6.531,1.057"/>
		
			<path fill="none" stroke="#0280A2" stroke-width="1.4411" stroke-linecap="round" stroke-linejoin="round" stroke-miterlimit="10" d="
			M107.621,170.028c8.296,0,16.594,0.176,24.716,0.355c9.357,0.175,18.184,0.53,27.362,1.057c2.648,0.178,6.535,0,9.18-0.526
			c2.825-0.53,5.827-3.003,8.65-2.298c-0.349,0.886-0.349,2.474-0.879,3.354c3.881,0.706,11.827-7.768,6,1.59
			c0.706,0.177,2.12-0.176,1.59,0"/>
		
			<path fill="none" stroke="#0280A2" stroke-width="1.4411" stroke-linecap="round" stroke-linejoin="round" stroke-miterlimit="10" d="
			M114.681,175.501c5.121-1.412,10.593-2.296,15.714-1.06c6.001,1.412,9.357,3.709,15.537,1.768
			c4.945-1.414,8.826-2.472,13.768-0.884c4.415,1.587,5.647,2.293,10.062,0.884c3.179-1.06,5.475-1.06,7.947-0.355"/>
		
			<path fill="none" stroke="#0280A2" stroke-width="1.4411" stroke-linecap="round" stroke-linejoin="round" stroke-miterlimit="10" d="
			M108.151,185.035c4.238-2.471,12.534-3.002,17.123-1.59c2.65,0.882,4.413,2.648,7.241,3.177
			c5.647,1.238,10.416-3.527,16.063-4.233c5.121-0.532,8.122,2.997,13.065,1.765c2.294-0.708,6.18-2.297,6.886-1.059"/>
		
			<path fill="none" stroke="#ECC59C" stroke-width="1.4411" stroke-linecap="round" stroke-linejoin="round" stroke-miterlimit="10" d="
			M110.621,178.15c-3.354-6.357-7.592-12.182-11.297-18.36c-2.118-3.355-3.179-7.063-5.123-10.417
			c-1.234,1.057-2.118,2.823-2.824,4.415c0-0.53,0-1.062,0-1.412c-1.41,2.469-4.058,2.646-6,4.411
			c-2.648,2.473-4.768,7.062-6.712,10.24c-1.938,3.001-3.528,7.062-4.409,9.885"/>
		
			<path fill="none" stroke="#ECC59C" stroke-width="1.4411" stroke-linecap="round" stroke-linejoin="round" stroke-miterlimit="10" d="
			M175.942,164.732c-0.528-5.65-5.297-21.891-9.184-9.532c0-0.178,0-0.178,0-0.355c-0.176,1.767-1.055,3.53-2.291,4.769
			c-4.24-3.532-5.829,9.354-6.531,10.237"/>
		
			<path fill="none" stroke="#39AE72" stroke-width="1.4411" stroke-linecap="round" stroke-linejoin="round" stroke-miterlimit="10" d="
			M105.854,110.003c-1.412-1.764-4.238-1.059-4.415,2.12c-1.938-1.587-2.998,1.234-1.408,2.471"/>
		
			<path fill="none" stroke="#39AE72" stroke-width="1.4411" stroke-linecap="round" stroke-linejoin="round" stroke-miterlimit="10" d="
			M81.842,151.668c-2.118-0.354-9.885-1.059-7.06,3.532c-2.648-0.708-5.649,1.057-4.237,3.882c-3.356,0-0.353,3.179,0.708,3.179"/>
		
			<path fill="none" stroke="#ECC59C" stroke-width="1.4411" stroke-linecap="round" stroke-linejoin="round" stroke-miterlimit="10" d="
			M79.194,165.263c-2.999,0-13.768-0.882-15.357,0.706"/>
		
			<path fill="none" stroke="#ECC59C" stroke-width="1.4411" stroke-linecap="round" stroke-linejoin="round" stroke-miterlimit="10" d="
			M91.733,152.552c-0.534,1.767-3.36,6.708-3.003,8.646c0.529,1.946,3.003,1.946,3.003,4.591c-0.181,1.946-2.826,3.889-2.826,5.829
			c0.177,1.767,1.585,2.471,2.645,3.883c1.414,1.942,2.826,5.119,3.709,6.888"/>
	</g>
	<g>
		
			<path fill="none" stroke="#F1C560" stroke-width="1.4411" stroke-linecap="round" stroke-linejoin="round" stroke-dasharray="3.2004,3.2004" d="
			M132.45,55.44c1.582,2.5,12.327,21.746,12.498,22.081c0.166,0.333,35.157,60.323,35.239,60.822
			c0.088,0.497,31.832,52.739,30.995,56.072c-0.832,3.333-5.164,6.999-9.163,7.748c-3.998,0.749-148.056-0.332-155.888-0.917
			c-7.832-0.581-8.081-9.747-5.417-13.413c2.668-3.666,19.416-33.493,24.662-43.489c5.248-10.003,46.394-84.785,50.577-89.735
			C124.619,44.361,132.45,55.44,132.45,55.44z"/>
	</g>
	<g>
		
			<path fill="none" stroke="#ECC59C" stroke-width="1.0731" stroke-linecap="round" stroke-linejoin="round" stroke-miterlimit="10" d="
			M141.099,138.519l-1.99,0.333c0,0-0.997-21.744-0.332-22.739c0.663-0.998,0.997-0.332,1.328-1.661
			c0.331-1.327-0.166-8.797-0.166-8.797l-1.659-0.332l-0.168,2.49h-1.659l0.333-2.988l-2.821-0.166l-0.332,2.323l-2.324,0.166
			l0.331-2.821l-3.484,0.332l-0.332,2.656l-2.156-0.167v-3.153l-3.485,0.333l-0.333,2.987l-1.494-0.333v-2.323l-1.829,0.166
			c0,0,1.498-2.324,0.669-8.963v-2.324h-2.656v2.656h-1.829v-3.319h-3.816l-0.166,2.987l-1.827-0.167v-2.654l-1.987,1.162v7.801
			c0,0,1.822,2.158,1.822,2.822c0,0.663-0.166,15.104-0.166,15.104l-6.97,0.665l-0.166,2.654l-1.828-0.332l-0.166-2.656
			l-2.822,0.499"/>
		
			<path fill="none" stroke="#ECC59C" stroke-width="1.0731" stroke-linecap="round" stroke-linejoin="round" stroke-miterlimit="10" d="
			M138.776,114.617c0,0,0.86-3.358-0.994-2.987c-0.831,0.168-0.831,2.656-0.831,2.656"/>
		
			<path fill="none" stroke="#ECC59C" stroke-width="1.0731" stroke-linecap="round" stroke-linejoin="round" stroke-miterlimit="10" d="
			M135.292,114.617c0,0,0.859-3.358-0.995-2.987c-0.831,0.168-0.831,2.656-0.831,2.656"/>
		
			<path fill="none" stroke="#ECC59C" stroke-width="1.0731" stroke-linecap="round" stroke-linejoin="round" stroke-miterlimit="10" d="
			M131.142,114.617c0,0,0.86-3.358-0.996-2.987c-0.829,0.168-0.829,2.656-0.829,2.656"/>
		
			<path fill="none" stroke="#ECC59C" stroke-width="1.0731" stroke-linecap="round" stroke-linejoin="round" stroke-miterlimit="10" d="
			M127.323,114.617c0,0,0.862-3.358-0.994-2.987c-0.833,0.168-0.833,2.656-0.833,2.656"/>
		
			<path fill="none" stroke="#ECC59C" stroke-width="1.0731" stroke-linecap="round" stroke-linejoin="round" stroke-miterlimit="10" d="
			M123.838,114.617c0,0,0.862-3.358-0.995-2.987c-0.831,0.168-0.831,2.656-0.831,2.656"/>
		
			<path fill="none" stroke="#ECC59C" stroke-width="1.0731" stroke-linecap="round" stroke-linejoin="round" stroke-miterlimit="10" d="
			M114.708,102.999c0,0,0.862-3.358-0.993-2.987c-0.833,0.166-0.833,2.655-0.833,2.655"/>
		
			<path fill="none" stroke="#ECC59C" stroke-width="1.0731" stroke-linecap="round" stroke-linejoin="round" stroke-miterlimit="10" d="
			M117.865,102.999c0,0,0.858-3.358-0.997-2.987c-0.829,0.166-0.829,2.655-0.829,2.655"/>
		
			<path fill="none" stroke="#ECC59C" stroke-width="1.0731" stroke-linecap="round" stroke-linejoin="round" stroke-miterlimit="10" d="
			M111.886,102.999c0,0,0.862-3.358-0.995-2.987c-0.827,0.166-0.827,2.655-0.827,2.655"/>
		
			<path fill="none" stroke="#ECC59C" stroke-width="1.0731" stroke-linecap="round" stroke-linejoin="round" stroke-miterlimit="10" d="
			M120.851,114.617c0,0,0.858-3.358-0.995-2.987c-0.833,0.168-0.833,2.656-0.833,2.656"/>
		
			<polyline fill="none" stroke="#ECC59C" stroke-width="1.0731" stroke-linecap="round" stroke-linejoin="round" stroke-miterlimit="10" points="
			131.971,123.083 131.639,119.1 128.819,118.934 128.819,121.424 126.494,121.09 126.66,118.437 124.338,118.603 124.338,120.595 
			122.347,120.595 122.347,117.773 120.52,117.439 120.354,119.93 		"/>
		
			<path fill="none" stroke="#ECC59C" stroke-width="1.0731" stroke-linecap="round" stroke-linejoin="round" stroke-miterlimit="10" d="
			M128.653,137.356c0,0-0.168-6.639-0.996-7.47c0,0-1.826,2.157-1.163,6.641"/>
		
			<path fill="none" stroke="#ECC59C" stroke-width="1.0731" stroke-linecap="round" stroke-linejoin="round" stroke-miterlimit="10" d="
			M125.334,137.356c0,0-0.166-6.639-0.996-7.47c0,0-1.826,2.157-1.163,6.641"/>
		
			<path fill="none" stroke="#ECC59C" stroke-width="1.0731" stroke-linecap="round" stroke-linejoin="round" stroke-miterlimit="10" d="
			M121.684,137.356c0,0-0.166-6.639-0.999-7.47c0,0-1.823,2.157-1.16,6.641"/>
	</g>
</g>
</svg>
