<?xml version="1.0" encoding="utf-8"?>
<!-- Generator: Adobe Illustrator 16.0.0, SVG Export Plug-In . SVG Version: 6.00 Build 0)  -->
<!DOCTYPE svg PUBLIC "-//W3C//DTD SVG 1.1//EN" "http://www.w3.org/Graphics/SVG/1.1/DTD/svg11.dtd">
<svg version="1.1" id="Capa_1" xmlns="http://www.w3.org/2000/svg" xmlns:xlink="http://www.w3.org/1999/xlink" x="0px" y="0px"
	 width="250px" height="250px" viewBox="0 0 250 250" enable-background="new 0 0 250 250" xml:space="preserve">
<pattern  x="-1292.5" y="2959.5" width="72" height="72" patternUnits="userSpaceOnUse" id="_x36__lpp_20_x25_" viewBox="24 -72 72 72" overflow="visible">
	<g>
		<polygon fill="none" points="24,0 24,-72 96,-72 96,0 		"/>
		<line fill="none" stroke="#1D1D1B" stroke-width="2.4" x1="23.75" y1="-6" x2="96.25" y2="-6"/>
		<line fill="none" stroke="#1D1D1B" stroke-width="2.4" x1="23.75" y1="-30" x2="96.25" y2="-30"/>
		<line fill="none" stroke="#1D1D1B" stroke-width="2.4" x1="23.75" y1="-54" x2="96.25" y2="-54"/>
		<line fill="none" stroke="#1D1D1B" stroke-width="2.4" x1="0" y1="-54" x2="16.5" y2="-54"/>
		<line fill="none" stroke="#1D1D1B" stroke-width="2.4" x1="23.75" y1="-18" x2="96.25" y2="-18"/>
		<line fill="none" stroke="#1D1D1B" stroke-width="2.4" x1="23.75" y1="-42" x2="96.25" y2="-42"/>
		<line fill="none" stroke="#1D1D1B" stroke-width="2.4" x1="23.75" y1="-66" x2="96.25" y2="-66"/>
		<line fill="none" stroke="#1D1D1B" stroke-width="2.4" x1="0" y1="-66" x2="16.5" y2="-66"/>
	</g>
</pattern>
<g>
	<path opacity="0.7" fill="#5D5D5D" d="M193.313,111.68l-50.647-50.645c-8.952-8.951-23.461-8.951-32.413,0L59.609,111.68
		c-8.952,8.951-8.952,23.462,0,32.414l50.644,50.647c8.952,8.947,23.461,8.947,32.413,0l50.647-50.647
		C202.262,135.142,202.262,120.631,193.313,111.68z"/>
	<g>
		<path fill="#FFFFFF" stroke="#108B8B" stroke-width="2.5261" stroke-miterlimit="10" d="M191.656,107.169
			c8.948,8.952,8.948,23.463,0,32.414l-50.647,50.645c-8.951,8.951-23.461,8.951-32.413,0l-50.644-50.645
			c-8.952-8.951-8.952-23.462,0-32.414l50.644-50.644c8.952-8.952,23.462-8.952,32.413,0L191.656,107.169z"/>
		<pattern  id="SVGID_1_" xlink:href="#_x36__lpp_20_x25_" patternTransform="matrix(0.0627 0 0 0.0627 -4879.4419 -12971.3984)">
		</pattern>
		<path opacity="0.2" fill="url(#SVGID_1_)" d="M191.895,107.771c8.947,8.952,8.947,23.467,0,32.414l-50.645,50.647
			c-8.951,8.948-23.465,8.948-32.416,0l-50.645-50.647c-8.951-8.947-8.951-23.462,0-32.414l50.645-50.644
			c8.951-8.948,23.465-8.948,32.416,0L191.895,107.771z"/>
		<path fill="#3BB8C3" d="M163.775,123.438c-7.99-0.501-15.947,0.771-23.505,3.376c-5.811,2.003-11.491,5.713-17.586,6.815
			c-14.143,2.558-28.883,0.67-43.068-0.516c-7.666-0.641-15.224-1.206-22.69-2.334c0.875,3.725,2.741,7.263,5.647,10.166
			l47.061,47.02c8.317,8.311,21.8,8.311,30.121,0l47.061-47.02c3.454-3.451,5.45-7.796,6.033-12.291
			C183.115,127.534,173.685,124.053,163.775,123.438z"/>
		<g>
			<path fill="#3BB8C3" d="M56.926,130.779c0,0,41.987-13.408,53.428-9.086c11.448,4.32,30.857,0.994,39.64-0.216
				c8.785-1.21,42.243,5.628,42.855,7.177s-27.737,25.856-27.737,26.775s-77.026,4.366-79.477,3.217
				C83.186,157.497,56.926,130.779,56.926,130.779z"/>
			<path fill="#2EA6DF" d="M87.887,101.452c0,0,2.601,10.396,6.391,13.588c3.782,3.195,7.5,5.573,20.72,7.28
				c13.217,1.708,32.323-3.415,36.581-5.569c4.265-2.153,6.268-3.267,8.569-5.943c2.306-2.673,4.172-3.562,4.618-3.191
				c0.446,0.374-1.052,1.113-2.835,4.902c-1.783,3.786-2.82,15.743-2.745,16.561c0.072,0.817-14.333,0.817-21.984,0.522
				c-7.651-0.299-7.946,1.185-15.817,2.003c-7.874,0.817-10.918-1.186-16.192-1.186c-5.273,0-9.582,0.072-10.694-0.522
				c-1.113-0.594-1.261-0.817-1.261-1.783C93.236,127.148,85.438,97.145,87.887,101.452z"/>
			<path fill="#F2E500" d="M92.087,123.062c0,0,11.293,3.293,12.118,3.596c0.821,0.299-14.193-11.898-13.991-11.413
				C90.415,115.731,92.087,123.062,92.087,123.062z"/>
			<path fill="#F2E500" d="M112.213,114.01c7.143,0.051,14.301,0.382,21.383,1.34c6.797,0.923,13.67,2.083,20.057,4.662
				c7.31-4.878,7.312-6.297,7.312-6.297s1.074-1.521-15.406-1.852c-16.477-0.335-52.622-4.874-57.665-10.422
				c-3.541-3.894,0.17,6.333,4.889,14.053C99.227,115.458,105.729,113.971,112.213,114.01z"/>
			<path fill="#CCBF1B" d="M133.188,114.594c-7.939-0.987-15.951-1.395-23.959-1.271c-5.158,0.075-10.306,1.214-15.446,1.423
				c1.711,2.583,3.494,7.031,5.072,7.95c6.178,3.6,43.374,1.159,53.024-3.897C145.843,116.65,139.582,115.39,133.188,114.594z"/>
			<g>
				<g>
					<path fill="#FFFFFF" d="M94.277,118.711c3.782,3.191,7.5,5.569,20.72,7.281c13.217,1.704,32.323-3.42,36.581-5.574
						c4.265-2.153,6.268-3.267,8.569-5.939c0.461-0.541,0.89-1.016,1.29-1.459c0.158-0.501,0.32-0.947,0.493-1.312
						c1.783-3.789,3.163-1.772,3.163-3.948c0-0.58-2.641-0.436-4.946,2.241c-2.302,2.673-4.305,3.786-8.569,5.939
						c-4.258,2.151-23.364,7.277-36.581,5.569c-13.22-1.707-16.938-4.085-20.72-7.276c-3.79-3.199-8.012-13.592-8.012-13.592
						c-0.994-1.75,1.322,2.158,2.5,7.486C89.832,111.456,91.799,116.622,94.277,118.711z"/>
				</g>
				<g>
					<path fill="#E52251" d="M94.277,120.268c3.782,3.191,7.5,5.569,20.72,7.277c13.217,1.707,32.323-3.416,36.581-5.57
						c4.265-2.154,6.268-3.268,8.569-5.94c0.461-0.536,0.89-1.02,1.29-1.459c0.158-0.5,1.242-0.933,1.412-1.3
						c1.786-3.79,2.687-5.145,2.244-5.516c-0.447-0.371-2.641,1.117-4.946,3.794c-2.302,2.673-4.305,3.789-8.569,5.939
						c-4.258,2.158-23.364,7.281-36.581,5.573c-13.22-1.708-16.938-4.085-20.72-7.28c-3.79-3.191-6.391-13.588-6.391-13.588
						c-0.994-1.751-0.299,2.161,0.879,7.485C89.832,113.012,91.799,118.178,94.277,120.268z"/>
				</g>
				<g>
					<path fill="#E52251" d="M94.489,121.484c3.786,3.192,7.5,5.57,20.721,7.277c13.22,1.708,32.326-3.414,36.584-5.569
						c4.262-2.154,6.268-3.268,8.569-5.94c0.462-0.537,0.887-1.02,1.286-1.455c0.426-0.655,0.761-1.128,0.934-1.495
						c1.783-3.786,3.068-6.022,2.622-6.394c-0.446-0.368-2.54,2.189-4.842,4.866c-2.302,2.673-4.308,3.786-8.569,5.94
						c-4.258,2.154-23.364,7.277-36.584,5.568c-13.221-1.707-16.935-4.081-20.721-7.279c-3.789-3.192-6.387-13.588-6.387-13.588
						c-0.998-1.751-0.299,2.161,0.876,7.485C90.044,114.229,92.011,119.399,94.489,121.484z"/>
				</g>
				<path fill="#00888C" d="M94.277,120.887c3.782,3.195,7.5,5.57,20.72,7.281c13.217,1.707,32.323-3.42,36.581-5.574
					c4.265-2.153,6.268-3.267,8.569-5.939c0.461-0.537,0.89-1.013,1.29-1.455c0.216-0.688,0.72-1.319,0.846-1.582
					c1.783-3.789,2.619-4.928,2.173-5.303c-0.447-0.371-2.003,1.189-4.309,3.862c-2.302,2.673-4.305,3.789-8.569,5.943
					c-4.258,2.15-23.364,7.277-36.581,5.565c-13.22-1.707-16.938-4.081-20.72-7.276c-3.79-3.191-6.391-13.592-6.391-13.592
					c-0.994-1.747-0.299,2.162,0.879,7.489C89.832,113.632,91.799,118.798,94.277,120.887z"/>
			</g>
			<g>
				<path fill="#2EA6DF" d="M128.606,121.68c0,0-0.818-4.571-1.542-4.283c-0.724,0.28-16.963,0.583-22.921-1.06
					c-5.962-1.636-11.826-2.251-16.563-16.617c0,0,1.621,12.471,11.305,17.677C110.238,123.495,128.606,121.68,128.606,121.68z"/>
			</g>
			<path fill="#00888C" d="M92.588,129.854L85.66,97.576c0,0,1.358-0.429,1.478,1.514c0.118,1.941,7.359,30.807,7.359,30.807
				L92.588,129.854z"/>
			<g>
				<polygon fill="#FFFFFF" points="81.057,155.829 87.127,134.295 94.212,153.229 103.171,135.451 111.305,153.953 
					102.595,143.689 94.212,158.29 86.694,143.979 				"/>
				<path fill="#FFFFFF" d="M112.713,155.397c0,0,6.358-21.25,6.358-21.103c0,0.145,11.084,21.103,11.084,21.103l-10.216-12.864
					L112.713,155.397z"/>
				<polygon fill="#FFFFFF" points="133.815,134.295 131.791,155.397 145.382,152.217 133.671,152.796 				"/>
				<path fill="#FFFFFF" d="M155.209,132.703c-0.436,0.292-16.048,0-16.048,0l6.221,2.312l1.805,20.382l1.373-19.369
					L155.209,132.703z"/>
				<polygon fill="#FFFFFF" points="161.423,132.703 151.592,156.262 161.423,140.365 168.652,156.262 				"/>
			</g>
		</g>
	</g>
</g>
</svg>
