<?xml version="1.0" encoding="utf-8"?>
<!-- Generator: Adobe Illustrator 16.0.0, SVG Export Plug-In . SVG Version: 6.00 Build 0)  -->
<!DOCTYPE svg PUBLIC "-//W3C//DTD SVG 1.1//EN" "http://www.w3.org/Graphics/SVG/1.1/DTD/svg11.dtd">
<svg version="1.1" id="Capa_1" xmlns="http://www.w3.org/2000/svg" xmlns:xlink="http://www.w3.org/1999/xlink" x="0px" y="0px"
	 width="250px" height="250px" viewBox="0 0 250 250" enable-background="new 0 0 250 250" xml:space="preserve">
<g>
	<g>
		<path fill="#E2A336" d="M194.633,116.562c9.069,9.069,9.069,23.774,0,32.845l-51.314,51.312c-9.07,9.071-23.774,9.071-32.844,0
			l-51.312-51.312c-9.071-9.07-9.071-23.776,0-32.845l51.312-51.315c9.07-9.07,23.774-9.07,32.844,0L194.633,116.562z"/>
		<path fill="#2A2B20" d="M192.472,117.084c8.779,8.783,8.779,23.018,0,31.801l-49.679,49.678c-8.777,8.78-23.014,8.78-31.792,0
			l-49.682-49.678c-8.78-8.783-8.78-23.018,0-31.801l49.682-49.678c8.778-8.778,23.015-8.778,31.792,0L192.472,117.084z"/>
		
			<path fill="none" stroke="#B0ACA7" stroke-width="0.9165" stroke-linecap="round" stroke-linejoin="round" stroke-miterlimit="10" d="
			M157.873,108.584c1.985,1.62,0.723,3.51,0.765,5.679c0.054,2.401-0.804,3.959-3.425,2.176c-1.139-0.776-1.787-2.059-2.351-3.271
			c-0.562,0.873,0.151,2.41,0.288,3.413c-1.677,0.628-1.26,2.429-1.571,3.857c-0.133,0.607-0.592,1.121-0.539,1.795
			c0.06,0.775,0.728,0.97,0.842,1.616c0.188,1.05-1.338,3.24,0.799,3.967c-0.585,0.389-1.073,0.092-1.293-0.489
			c-0.09,0.166-0.258,0.373-0.324,0.518c-0.16-0.182-0.296-0.394-0.424-0.615c-0.132,0.03-0.242,0.222-0.389,0.186
			c-0.382-1.024-0.163-2.227-0.41-3.289c-1.993,0.239-0.657-2.381-0.599-3.254c0.099-1.397-0.249-3.091-0.299-4.556
			c-0.558-0.363-0.596-1.079-0.386-1.721"/>
		
			<path fill="none" stroke="#B0ACA7" stroke-width="0.9165" stroke-linecap="round" stroke-linejoin="round" stroke-miterlimit="10" d="
			M149.857,111.689c-2.214-0.531-4.63-1.369-6.937-0.957c-1.606,0.289-3.198,0.97-4.766,1.394c-1.223,0.331-2.611,0.116-3.641,0.338
			c-1.414,0.304-0.813,0.583,0.212,1.628c-1.452,0.489-0.748,3.966-0.886,5.206c-0.222,1.979,0.077,4.587,2.7,3.834
			c0.806,1.721,0.008,1.944-0.059,3.514c-0.062,1.443,1.155,2.025,0.689,3.544c0.289-0.386,0.674-0.602,0.844-1.076
			c0.292,0.443,0.492,0.277,0.733,0.465c0.534-1.075-0.539-1.994-0.51-3.177c0.03-1.112,0.042-2.783,0.214-3.892
			c1.365,1.439,1.748-0.163,1.705-1.305c0.148,0.214,0.584,0.531,0.704,0.728c0.585-1.259,0.655-1.965,1.593-2.905
			c-0.304,3.93,1.41,1.549,3.917,2.383c-1.517-0.966-0.188,2.769-0.308,3.534c-0.198,1.308-1.383,2.061-1.607,3.364
			c0.396-0.427,0.935-0.94,1.498-0.581c0.652-0.774,1.044,0.38,1.512-0.168c0.689-0.804-0.217-2.193-0.377-3.046
			c-0.117-0.619-0.304-1.724-0.052-2.335c0.282-0.684,0.524-0.917,0.818-1.077"/>
		
			<path fill="none" stroke="#B0ACA7" stroke-width="0.9165" stroke-linecap="round" stroke-linejoin="round" stroke-miterlimit="10" d="
			M140.846,113.192c0.413,1.108,0.688,2.295,0.583,3.485c-0.129-0.237-0.389-0.47-0.526-0.693c-0.798,0.541-0.332,4.875-2.964,3.111
			c-0.108,0.748-0.389,1.659-1.1,1.81"/>
		
			<path fill="none" stroke="#B0ACA7" stroke-width="0.9165" stroke-linecap="round" stroke-linejoin="round" stroke-miterlimit="10" d="
			M120.513,121.205c-3.836,1.032-8.032,0.47-11.921,1.492c-1.641,0.43-2.953,1.104-4.387-0.191
			c-1.329-1.201-1.048-3.691-2.912-4.289c-0.163,0.93,1.029,1.537,1.072,2.595c-0.844,0.069-1.578-0.346-2.192,0.563
			c-0.292-0.71-0.73-1.43-1.31-1.972c0.117,1.155,0.728,2.456,0.484,3.612c-0.262,1.221-1.374,1.942-2.105,2.876
			c-0.939,1.201-3.229,3.01-1.031,3.873c2.035,0.8,4.26-2.491,5.45-1.851c0.836,0.451,0.378,3.264,0.497,4.033
			c0.226,1.45,0.787,2.613,2.183,3.227c1.123,0.493,2.087,0.13,2.863,1.225c0.634,0.896,0.594,2.393,1.002,3.424
			c0.103,0.062,0.347,0.015,0.468,0.028c0.458,0.494,1.041,0.301,1.105-0.424c-1.431-0.762-0.424-6.274,0.228-7.777
			c0.254-0.583,0.901-1.633,1.436-2.04c0.808-0.608,1.793-0.395,2.539-1.283c-0.098,1.139,0.876,1.564,1.221,2.53
			c0.298,0.824-0.087,1.435,0.155,2.235c0.196,0.635,1.172,1.158,1.39,1.903c0.226,0.788-0.294,1.71,0.266,2.249
			c1.497-0.822,0.188-3.26,1.036-4.556c0.49-0.757,1.14-0.949,1.716-1.812c0.331-0.491,0.693-1.06,1.003-1.562
			c1.067-1.741,1.354-3.362,1.354-5.393c0-0.978-0.142-0.878,0.158-1.753c0.245-0.712,0.892-0.999,0.821-1.852
			c-0.995-0.13-0.989,0.735-1.707,1.077c-0.379,0.181-1.22,0.162-1.484,0.212"/>
		
			<path fill="none" stroke="#B0ACA7" stroke-width="0.9165" stroke-linecap="round" stroke-linejoin="round" stroke-miterlimit="10" d="
			M150.759,111.59c1.059-1.574,2.879-3.384,1.307-5.124c-0.924-1.021-1.938-0.598-3.002-1.258c1.169-0.776,3.182,0.116,3.965,1.094
			c1.102,1.373,0.334,1.671,2.399,1.73c1.858,0.051,1.393-0.143,2.413-1.675c0.725-1.09,1.936-1.922,3.201-1.054
			c-0.756,0.493-1.617,0.825-2.268,1.47c-0.515,0.51-0.755,1.247-1.301,1.511"/>
		
			<path fill="none" stroke="#B0ACA7" stroke-width="0.9165" stroke-linecap="round" stroke-linejoin="round" stroke-miterlimit="10" d="
			M153.864,109.185c-0.482,0.75-0.143,1.667-0.382,2.23c-0.17,0.401-0.787,0.815-1.027,1.075c-0.308,0.329-0.813,2.003-1.394,0.302"
			/>
		
			<path fill="none" stroke="#B0ACA7" stroke-width="0.9165" stroke-linecap="round" stroke-linejoin="round" stroke-miterlimit="10" d="
			M155.47,111.289c-0.143,0.663-0.138,1.355-0.003,2.007c0.284-0.602,0.214-1.464,0.182-2.206c-0.128,0.35-0.188,1.018-0.179,1.201"
			/>
		
			<path fill="none" stroke="#B0ACA7" stroke-width="0.9165" stroke-linecap="round" stroke-linejoin="round" stroke-miterlimit="10" d="
			M157.771,111.289c-0.131,0.554-0.154,1.188-0.021,1.719c0.035-0.674,0.062-1.412-0.056-2.038c-0.091,0.491-0.026,0.97,0.077,1.421
			"/>
		
			<path fill="none" stroke="#B0ACA7" stroke-width="0.9165" stroke-linecap="round" stroke-linejoin="round" stroke-miterlimit="10" d="
			M158.675,116.097c-1.349-0.556-2.692-1.463-3.709,0.3"/>
		
			<path fill="none" stroke="#B0ACA7" stroke-width="0.9165" stroke-linecap="round" stroke-linejoin="round" stroke-miterlimit="10" d="
			M100.879,123.909c0.307,0.516,0.343,1.186,0.324,1.805c0.069-0.671-0.39-1.448-0.424-2.206"/>
		
			<path fill="none" stroke="#B0ACA7" stroke-width="0.9165" stroke-linecap="round" stroke-linejoin="round" stroke-miterlimit="10" d="
			M103.083,121.205c-2.397,2.62,0.131,4.474,0.417,7.096c1.191,0.221,2.496-3.294,1.785-3.991"/>
		
			<path fill="none" stroke="#B0ACA7" stroke-width="0.9165" stroke-linecap="round" stroke-linejoin="round" stroke-miterlimit="10" d="
			M96.171,127.014c0.812,0.458,2.103,1.995,1.304,2.805"/>
		
			<path fill="none" stroke="#B0ACA7" stroke-width="0.9165" stroke-linecap="round" stroke-linejoin="round" stroke-miterlimit="10" d="
			M124.918,97.666c-2.713,1.058-5.368-0.535-6.911-2.662c-1.308-1.803-0.962-4.027-2.108-5.667
			c-0.748,0.747-0.944,2.234-0.709,3.203c-0.631,0.192-1.534,0.71-2.206,0.605c-0.715-0.111-1.239-1.182-2.019-1.134
			c-1.789,0.105,0.186,2.838-0.408,4.157c-1.176,2.599-4.377,7.369,0.539,6.007c2.534-0.703,2.364-0.613,3.886-1.793
			c0.491,1.308,1.144,2.473,2.072,3.487c1.199,1.306,1.01,1.264,0.28,2.914c-0.748,1.698,0.214,2.872,0.692,4.65
			c0.259,0.966,0.498,0.953,0.356,1.973c-0.124,0.857-0.778,1.444-0.664,2.375c0.578-0.04,1.067-0.305,1.508-0.686
			c0.803,1.609,4.354-0.017,1.36-1.407c0.184,0.013,0.646-0.142,0.896-0.13c0.64-1.835-1.077-3.426,0.31-5.043
			c0.23,0.671,0.412,0.531,0.945,0.755c1.214-2.433,2.633-6.382,0.989-8.92c0.262,2.152,2.145,4.889,1.062,7.029
			c0.153-0.491,0.058-0.029,0.132,0.003"/>
		
			<path fill="none" stroke="#B0ACA7" stroke-width="0.9165" stroke-linecap="round" stroke-linejoin="round" stroke-miterlimit="10" d="
			M130.228,100.07c-2.359,2.963,1.053,5.522,0.696,8.625c2.603,0.162,1.745,1.396,1.615,3.254c-0.132,1.853,0.607,3.466,0.461,5.356
			c-0.656,0.013-0.778,0.171-1.164,0.577c0.571,0.059,1.152,0.288,1.497,0.615c0.098-0.059,0.07-0.182,0.182-0.187
			c0.072,0.265-0.094,0.146-0.284,0.191"/>
		
			<path fill="none" stroke="#B0ACA7" stroke-width="0.9165" stroke-linecap="round" stroke-linejoin="round" stroke-miterlimit="10" d="
			M135.134,111.489c0.512-0.202,0.781-1.655,1.023-2.404c0.17,0.189,0.315,0.203,0.478,0.336c0.363-0.472,0.5-1.098,0.347-1.651
			c0.053,0.086,0.079,0.198,0.071,0.304c1.573-1.123,2.424-6.697,1.411-8.299c0.044,1.189,1.507,3.38,2.35,4.232
			c0.7,0.712,1.586,0.873,2.234,1.575c0.694-1.323-1.236-3.15-1.948-4.231c-0.539-0.813-1.364-1.211-1.95-1.959
			c-0.611-0.779-0.718-1.788-1.409-2.519c-3.091-3.265-8.627-1.459-12.362-0.966c-1.667,0.218-4.065-1.016-5.469-0.342"/>
		
			<path fill="none" stroke="#B0ACA7" stroke-width="0.9165" stroke-linecap="round" stroke-linejoin="round" stroke-miterlimit="10" d="
			M132.63,97.064c-1.168,0.842,0.13,1.871,0.691,2.572c0.562,0.705,0.822,0.074,1.023,1.208c0.146,0.819-0.655,1.732-0.429,2.563
			c0.1,0.361,1.122,1.407,1.371,1.834c0.351,0.6,0.792,2.005,1.25,1.339"/>
		
			<path fill="none" stroke="#B0ACA7" stroke-width="0.9165" stroke-linecap="round" stroke-linejoin="round" stroke-miterlimit="10" d="
			M117.908,124.409c-1.173,1.03-1.595,3.541-0.72,4.732c0.406,0.556,1.866,1.377,1.92,1.879"/>
		
			<path fill="none" stroke="#B0ACA7" stroke-width="0.9165" stroke-linecap="round" stroke-linejoin="round" stroke-miterlimit="10" d="
			M122.114,127.014c0.27,1.623,0.915,4.262,0.414,5.854c-0.193,0.605-0.836,0.376-0.946,1.194c-0.107,0.832,1.454,1.018,0.021,1.767
			c-0.111-0.052-0.071-0.238-0.17-0.299c-0.04,0.735-0.056,0.863,0.271,1.186c-1.244-1.646-1.321-3.373-2.295-4.794"/>
		<path fill="#3AAF73" d="M134.836,130.118c-2.416,0.007-4.734,0.829-7.094,0.796c-1.131-0.017-2.505-0.798-3.441,0.209
			c0.978,0.28,2.012,0.182,3.024,0.206c-0.316,0.472-0.846,0.777-1.41,0.92c0.763,0.128,1.728-0.128,2.488-0.43
			c0.007,0.165,0.013,0.343,0.021,0.513c0.726,0.207,1.508-0.147,2.193-0.4c0.009,0.058,0.012,0.118,0.012,0.177
			c0.3-0.141,0.635-0.136,0.974-0.345c-0.393,1.214,1.132,1.172,1.402,0.069c0.594,0.185,0.55,0.229,1.132,0.162
			c0.056,1.29,1.629,0.961,1.404-0.425c0.69,0.62,1.432,0.246,1.897-0.327c-0.229-0.044-0.468-0.113-0.702-0.122"/>
		<g>
			<path fill="#3AAF73" d="M154.195,128.833c0.566-0.005,1.146,0.196,1.672,0.363c-0.236-1.663-1.088-1.977-2.301-1.38
				l-10.418,0.501c-1.511-0.099-3.292,0.418-2.578,2.305c-0.857,0.121-1.553,0.613-1.69,1.499c0.869-0.273,1.681-0.792,2.54-1.084
				c-0.558,0.169-0.87,0.589-0.86,1.183c0.659-0.142,1.232-0.589,1.762-1.011c-0.196,0.278-0.231,0.647-0.373,0.916
				c0.654,0.014,1.204-0.442,1.523-0.948c0.445,0.656,0.958,0.234,1.188-0.539c-0.023,0.813,0.528,1.161,1.085,0.499
				c0.491,0.577,1.105,0.751,1.207-0.069c0.214,0.442,0.46,0.409,0.71,0.649c-0.018-0.205,0.132-0.624,0.12-0.855
				c0.479,0.39,0.729,0.252,1.271,0.346c0.013,0.012,0.013-0.056,0.008-0.128c0.13,0.47,0.691,0.779,1.31,0.754
				c-0.089-0.474,0.126-0.619-0.214-1.093c0.411,0.459,1.043,0.686,1.711,0.686c-0.062-0.387,0.136-0.648-0.199-1.08
				c0.381,0.432,0.929,0.69,1.482,0.646c-0.188-0.439-0.046-0.751-0.463-1.164c0.259,0.155,0.703,0.283,0.999,0.495
				c-0.03-0.103-0.074-0.359-0.132-0.515c0.464,0.024,1.021-0.155,1.511-0.101C154.826,129.555,154.402,128.986,154.195,128.833z"/>
			<path fill="#3AAF73" d="M125.137,117.676c0.121-0.815-1.255-1.075-2.024-0.966c0.908-0.15,1.805-0.383,2.646-0.75
				c-0.648-0.785-2.798-1.233-3.446-0.463l-5.005,1.102c-0.012-0.086,0.228-0.14,0.006-0.308c-2.244-0.094-8.103,2.536-8.911,4.507
				c1.477-0.491,2.763-0.64,4.249-1.289c-0.229,0.214-0.418,0.541-0.628,0.764c0.833-0.161,1.763-0.342,2.655-0.449
				c0.634-0.076,1.55-0.359,2.416-0.552c-0.076,0.216-0.1,0.426-0.155,0.615c0.449-0.123,1.041-0.149,1.473-0.386
				c0.025,0.151-0.002,0.319,0.011,0.472c0.712-0.052,1.244-0.735,1.797-1.188c0.712,0.684,3.93,0.541,4.304-0.247
				c0.548,0.088,1.128,0.104,1.687,0.048C125.978,118.157,125.72,117.873,125.137,117.676z"/>
			<path fill="#3AAF73" d="M123.113,136.13l-16.327,1.803c-1.586,0.952-7.012,0.47-7.191,3.492c0.617,0.012,1.698-0.273,2.409-0.756
				c-0.094,0.176-0.174,0.354-0.231,0.552c0.401-0.208,0.883-0.393,1.221-0.749c-0.503,0.479-0.948,1.001-0.985,1.659
				c1.181,0.014,2.495-1.227,3.384-1.982c-0.275,0.72-0.857,1.292-1.127,1.988c1.528-0.202,2.381-2.02,3.564-2.08
				c0.183-0.011,0.878,0.811,1.443,0.793c0.947-0.026,1.125-0.958,2.038-0.802c0.141-0.023,0.061-0.284,0.173-0.361
				c0.428,0.31,0.615,0.121,1.022,0.205c-0.082-0.304,0.01-0.536-0.119-0.764c0.503,0.475,3.304,1.186,2.733,0
				c0.573,0.109,1.253-0.13,1.39-0.501c0.552,0.378,1.51,0.468,2.087,0.378c0.001-0.176,0.012-0.345,0.026-0.517
				c0.655,0.514,2.59,0.856,2.527,0.319c0.695,0.692,1.747,1.061,2.668,0.874c-0.095-0.507-0.085-0.999-0.404-1.449
				c0.666,0.338,1.457,0.489,2.199,0.4c-0.187-0.318-0.142-0.67-0.473-0.996c0.238,0.09,0.622,0.095,0.86,0.19
				C125.482,137.025,124.068,135.295,123.113,136.13z"/>
		</g>
		
			<path fill="#5B3913" stroke="#5B3913" stroke-width="0.9165" stroke-linecap="round" stroke-linejoin="round" stroke-miterlimit="10" d="
			M115.103,141.139c0.199,1.447,1.936,2.921,2.736,4.118c1.486,2.223,2.877,4.574,3.825,7.076c1.139,3.002,2.494,6.092,3.161,9.23
			c0,0.1-0.002,0.111-0.008,0.027c1.02-5.959,4.809-11.033,7.491-16.304c1.286-2.521,1.883-5.489,3.646-7.754
			c1.424-1.83,3.73-3.629,5.669-4.915c-3.72,0.8-7.362,5.352-9.131,8.475c-1.453,2.566-3.006,5.473-3.59,8.368
			c-1.027-1.931-0.936-4.771-2.89-6.285c0.281,2.51,2.18,4.923,1.905,7.55c-0.175,1.688-1.16,4.678-2.499,5.835
			c-0.831-3.842-3.562-5.525-5.322-9.007c-1.207-2.384-3.415-4.204-5.119-6.255"/>
		
			<path fill="none" stroke="#B0ACA7" stroke-width="0.9165" stroke-linecap="round" stroke-linejoin="round" stroke-miterlimit="10" d="
			M133.531,120.404c-0.438-1.714-6.643-3.769-7.311-2.906"/>
		
			<path fill="none" stroke="#B0ACA7" stroke-width="0.9165" stroke-linecap="round" stroke-linejoin="round" stroke-miterlimit="10" d="
			M132.129,116.998c-1.261-0.438-6.021-3.052-6.81-1.201"/>
		
			<path fill="#5B3913" stroke="#5B3913" stroke-width="0.9165" stroke-linecap="round" stroke-linejoin="round" stroke-miterlimit="10" d="
			M133.333,143.142c2.6,0.158,6.488-3.401,7.015-5.848c-0.123,3.021-2.689,5.122-5.521,5.652c-0.078-0.001-0.078-0.003-0.005-0.005
			c1.972,0.116,2.155-1.083,3.608-1.798c0.258,0.789,1.063,2.506,1.597,3.093c0.09-0.859-0.434-2.909-1.287-3.098"/>
		
			<path fill="none" stroke="#B0ACA7" stroke-width="0.9165" stroke-linecap="round" stroke-linejoin="round" stroke-miterlimit="10" d="
			M99.577,124.01c0.021,0.735-0.079,1.447-0.1,2.18c-0.005-0.678-0.044-1.354-0.203-2.007c-0.067,0.659-0.021,1.354,0.292,1.914
			c-0.08-0.41-0.226-0.875-0.387-1.286"/>
		
			<path fill="none" stroke="#B0ACA7" stroke-width="0.9165" stroke-linecap="round" stroke-linejoin="round" stroke-miterlimit="10" d="
			M108.893,100.672c1.113-1.469,3.531-0.125,2.604,1.602"/>
		
			<path fill="none" stroke="#B0ACA7" stroke-width="0.9165" stroke-linecap="round" stroke-linejoin="round" stroke-miterlimit="10" d="
			M115.003,101.073c0.079,0.833-0.158,2.001-0.331,2.891c-0.122-0.529-0.248-1.251-0.469-1.723
			c-0.063,0.368-0.212,0.787-0.224,1.199c-0.062-0.227-0.216-0.46-0.277-0.634c-0.098,0.336-0.418,0.731-0.51,0.984
			c-0.017-0.651-0.072-1.582-0.396-1.517"/>
		
			<path fill="none" stroke="#B0ACA7" stroke-width="0.9165" stroke-linecap="round" stroke-linejoin="round" stroke-miterlimit="10" d="
			M111.898,95.863c-0.103,0.783-0.105,1.572-0.103,2.374c0-0.662-0.011-1.793,0.103-1.874"/>
		
			<path fill="none" stroke="#B0ACA7" stroke-width="0.9165" stroke-linecap="round" stroke-linejoin="round" stroke-miterlimit="10" d="
			M113.699,96.064c-0.114,0.727-0.28,1.476-0.277,2.211c0.056-0.303,0.052-2.406,0.079-1.912"/>
		
			<path fill="#5B3913" stroke="#5B3913" stroke-width="0.9165" stroke-linecap="round" stroke-linejoin="round" stroke-miterlimit="10" d="
			M121.375,150.114c0,0-1.566-7.536-0.855-7.393c0.715,0.141,1.568,7.251,1.568,7.251s0.995-2.703,1.421-2.703
			c0.427,0-1.279,4.693-1.279,4.693"/>
		
			<path fill="#5B3913" stroke="#5B3913" stroke-width="0.9165" stroke-linecap="round" stroke-linejoin="round" stroke-miterlimit="10" d="
			M136.163,130.352c0-0.426-6.684-9.668-10.522-10.521c-3.84-0.852,5.546,4.835,5.546,4.835l-4.41,1.707l4.694-1.282
			L136.163,130.352z"/>
		
			<path fill="#5B3913" stroke="#5B3913" stroke-width="0.9165" stroke-linecap="round" stroke-linejoin="round" stroke-miterlimit="10" d="
			M152.797,126.372l8.245-8.816l-4.832,6.54l6.253-0.426l-6.396,0.995C156.066,124.665,152.938,125.66,152.797,126.372z"/>
	</g>
	
		<path fill="none" stroke="#EFB973" stroke-width="0.6874" stroke-linecap="round" stroke-linejoin="round" stroke-miterlimit="10" d="
		M63.746,116.158l-2.488-2.588l3.316,2.196c0,0-2.732-3.416-2.54-3.366c0.195,0.047,3.077,2.732,3.077,2.732l-2.635-3.66
		l3.171,2.635l-2.194-3.074l3.317,2.196c0,0-3.369-3.416-3.024-3.269c0.341,0.145,3.661,2.246,3.661,2.246s-3.224-3.466-2.882-3.321
		c0.344,0.147,4.2,2.685,4.1,2.637c-0.096-0.049-4.051-3.369-3.415-3.124c0.634,0.242,3.806,1.952,3.806,1.952
		s-3.66-2.977-3.024-2.732c0.634,0.242,4.002,2.44,4.047,2.537c0.05,0.098-3.464-3.809-3.22-3.662s4.149,2.492,4.149,2.492
		s-3.171-3.613-3.076-3.321c0.098,0.292,4.98,2.098,4.638,2.148c-0.342,0.05-3.907-3.808-3.468-3.758
		c0.442,0.048,4.542,2.488,4.394,2.538c-0.145,0.048-3.66-4.05-3.024-3.71c0.634,0.342,3.66,3.368,3.66,3.368
		s-2.488-4.783-2.342-4.736c0.147,0.05,2.977,3.613,2.977,3.613s-2.049-4.686-1.954-4.491c0.1,0.197,2.687,3.563,2.687,3.563
		l-1.903-4.394l2.832,3.418l-2.15-4.344l2.829,3.563l-1.657-3.66l2.685,2.637c0,0-1.464-3.418-1.464-3.271
		c0,0.146,2.78,2.391,2.78,2.391s-2.78-3.611-2.73-3.417c0.046,0.195,3.562,2.393,3.415,2.49c-0.146,0.097-2.588-3.907-2.636-3.76
		c-0.049,0.147,3.564,2.881,3.564,2.881l-1.952-3.515l2.686,2.684c0,0-2.003-3.318-1.903-3.173c0.096,0.147,3.171,2.295,3.171,2.295
		s-2.83-3.32-2.683-3.124c0.146,0.195,3.806,2.391,3.611,2.343c-0.196-0.05-2.977-3.416-2.977-3.416s4.2,3.27,4.15,3.416
		c-0.05,0.147-2.201-4.441-2.201-4.441s2.93,2.293,2.784,2.293c-0.145,0-2.34-3.416-2.195-3.222
		c0.147,0.197,3.758,2.198,3.562,2.148c-0.193-0.049-2.83-3.905-2.634-3.661c0.195,0.245,4.002,2.343,3.806,2.196
		c-0.197-0.146-3.126-3.808-3.026-3.465c0.099,0.341,4.149,2.393,3.856,2.148c-0.292-0.245-2.829-3.174-2.684-3.222
		c0.147-0.049,4.049,2.88,4.002,3.027c-0.049,0.146-3.518-4.247-3.271-3.955c0.247,0.294,3.76,2.979,3.611,2.979
		c-0.145,0-3.562-4.931-3.122-4.784c0.437,0.146,3.905,4.05,3.905,4.05s-2.929-4.686-2.732-4.589
		c0.195,0.098,3.319,3.319,3.464,3.418c0.147,0.098-1.854-4.199-1.854-4.199l3.662,2.734c0,0-2.199-3.611-2.101-3.418
		c0.098,0.197,3.077,2.442,3.077,2.442s-3.126-4.002-2.735-3.71c0.39,0.292,4.051,2.148,4.004,2.246
		c-0.049,0.098-3.368-3.417-3.273-3.223c0.098,0.197,4.541,2.148,4.541,2.148l-2.49-3.416l3.075,2.635c0,0-2.733-3.855-2.588-3.708
		c0.148,0.147,3.76,2.099,3.76,2.099s-3.024-2.979-2.879-2.783c0.147,0.195,4.442,2.343,4.442,2.343s-4.053-3.515-3.76-3.321
		c0.296,0.197,4.394,3.223,4.394,3.223l-3.026-4.491c0,0,3.223,3.172,3.318,3.319c0.1,0.147-2.488-4.247-1.953-3.66
		c0.539,0.586,3.323,2.879,3.323,2.879l-2.588-3.661l3.219,2.343c0,0-1.759-3.953-1.759-3.514c0,0.439,3.077,2.538,2.932,2.588
		c-0.147,0.048-2.588-3.955-2.393-3.516c0.196,0.439,4.052,3.514,3.76,3.271c-0.295-0.245-3.126-4.443-2.979-4.102
		s3.907,3.368,3.807,3.516c-0.098,0.147-3.611-5.517-3.416-4.979c0.196,0.537,4.296,3.708,4.198,3.611
		c-0.099-0.098-3.614-4.784-3.417-4.247c0.197,0.538,4.392,3.905,4.053,3.905c-0.342,0-3.855-5.564-3.613-5.368
		c0.245,0.193,4.39,3.953,4.147,3.953c-0.242,0-3.806-5.175-3.66-5.175c0.147,0,4.492,4.394,4.247,3.955
		c-0.243-0.439-3.22-5.125-2.686-4.88c0.539,0.242,3.907,3.903,3.907,3.903s-2.537-3.806-2.295-3.709
		c0.245,0.098,2.782,2.685,2.782,2.685s-1.56-4.052-1.415-4.052c0.146,0,3.075,2.977,3.026,2.833
		c-0.049-0.147-2.295-3.905-2.099-3.661c0.195,0.243,3.073,3.367,2.975,3.074c-0.095-0.292-2.586-4.588-2.099-4.002
		c0.489,0.586,3.516,4.247,3.369,3.855c-0.147-0.389-2.635-5.906-2.098-5.32c0.536,0.584,2.929,4.344,2.879,4.1
		c-0.048-0.243-1.905-4.587-1.756-4.392c0.144,0.194,3.028,3.465,2.928,3.026c-0.097-0.441-1.658-4.102-1.512-4.151
		c0.147-0.048,2.78,4.199,2.731,4.052c-0.046-0.145-2.197-5.759-1.561-4.588c0.634,1.172,3.418,4.833,2.93,4.491
		c-0.489-0.342-2.099-4.978-2.049-4.831c0.046,0.146,3.024,4.148,2.975,3.903c-0.049-0.242-1.561-4.392-1.465-4.247
		c0.1,0.146,2.296,4.493,2.196,4.296c-0.096-0.195-0.927-4.636-1.023-4.392c-0.1,0.242,2.1,4.342,1.999,4.147
		c-0.095-0.195-1.414-5.077-1.414-4.539c0,0.537,2.001,4.783,1.757,4.052c-0.242-0.733-0.781-5.225-0.583-4.93
		c0.194,0.292,1.025,4.586,1.025,4.491c0-0.098,0-5.175,0.045-4.688c0.051,0.489,1.225,5.224,1.225,4.688
		c0-0.539,0-4.297,0.045-4.15c0.05,0.146,1.223,5.467,1.269,4.686c0.049-0.781,0.394-5.027,0.588-4.783
		c0.197,0.243,0,5.564,0.098,5.125c0.1-0.439,1.268-5.467,1.268-4.98c0,0.489-0.487,5.664-0.194,4.784
		c0.294-0.878,0.881-5.076,0.83-4.442c-0.049,0.634,0.051,4.833,0.195,4.639c0.146-0.197,0.83-5.03,0.878-4.589
		c0.05,0.439,0.586,4.734,0.487,4.832c-0.096,0.097,0.636-4.342,0.636-4.342s0.194,4.489,0.244,4.294
		c0.05-0.194,1.123-4.686,1.073-4.541c-0.045,0.147,0.197,5.078,0.147,4.736s0.441-4.296,0.487-4.1
		c0.049,0.195,0.538,5.028,0.588,4.539c0.048-0.489,0.878-4.149,0.878-3.905s-0.196,5.272-0.098,4.93
		c0.098-0.341,1.903-4.833,1.903-4.833l-0.879,5.322c0,0,1.072-5.419,1.123-5.175c0.049,0.245-0.051,5.028-0.051,5.028
		s1.268-4.542,1.268-4.345c0,0.195-0.387,5.417-0.292,5.173c0.1-0.242,1.612-4.833,1.612-4.489c0,0.342-0.827,5.271-0.731,4.734
		c0.098-0.536,1.465-3.611,1.465-3.318c0,0.292-0.1,4.88-0.1,4.88s0.978-4.88,0.93-4.491c-0.049,0.392,0,4.688,0,4.688l1.95-4.149
		l-1.074,4.881c0,0,2.393-3.613,2.196-3.271c-0.194,0.342-1.656,4.394-1.56,4.102c0.095-0.294,2.44-3.369,2.391-3.076
		s-1.609,4.199-1.609,4.199s2.488-3.271,2.439-2.832c-0.049,0.439-2.099,4.197-2.048,4.247c0.045,0.048,3.562-4.15,3.413-3.661
		c-0.145,0.487-2.487,4.247-2.487,4.247s3.808-4.541,3.562-3.71c-0.242,0.829-3.073,5.123-2.538,4.636
		c0.539-0.487,4.102-4.539,3.907-3.808c-0.197,0.733-3.907,5.37-3.319,5.125c0.585-0.245,4.491-4.686,4.345-4.052
		c-0.149,0.636-2.391,4.444-2.053,4.199c0.341-0.244,3.614-4.149,3.614-3.855c0,0.292-2.833,5.075-2.784,4.881
		c0.05-0.197,3.222-3.466,3.222-3.466l-2.194,4.345c0,0,3.172-3.563,3.025-3.418c-0.146,0.147-1.856,3.565-1.856,3.565
		s2.979-3.71,2.979-3.565c0,0.147-2.44,4.589-2.295,4.589c0.146,0,2.881-3.367,2.832-3.222c-0.048,0.147-1.903,4.1-1.903,4.1
		l3.171-3.124c0,0-2.635,3.955-2.391,3.76c0.245-0.197,3.418-3.369,3.418-3.222c0,0.146-2.001,3.708-2.001,3.708
		s2.488-3.171,2.488-2.929c0,0.245-2.148,4.785-2.148,4.785s3.222-2.832,3.32-2.49c0.098,0.342-2.732,3.758-2.54,3.661
		c0.195-0.097,3.469-3.465,3.613-3.221c0.147,0.244-3.026,4.441-3.026,4.441l3.465-3.027l-2.829,4.199l4.245-3.221l-3.368,3.758
		l4.198-2.635c0,0-3.564,3.514-3.416,3.464c0.144-0.048,4.197-2.928,4.197-2.928l-3.368,3.514l4.686-2.44l-2.979,3.221l3.856-2.196
		l-2.977,3.369c0,0,4.295-2.733,4.295-2.588c0,0.147-3.072,3.563-2.929,3.563c0.148,0,3.221-2.879,3.271-2.635
		c0.05,0.242-2.83,3.808-2.637,3.808c0.196,0,3.66-3.613,3.71-3.321c0.05,0.294-3.122,4.052-3.026,4.149
		c0.1,0.097,3.515-2.977,3.615-2.782c0.096,0.195-3.615,4.344-3.176,4.247c0.44-0.098,4.248-3.271,4.248-3.124
		s-3.271,3.758-3.122,3.855c0.144,0.099,3.661-3.758,3.854-3.611c0.195,0.146-3.076,4.149-3.076,4.149l4.003-3.076l-3.27,3.026
		l3.952-2.246c0,0-3.805,3.271-3.61,3.319c0.197,0.049,4.539-2.831,4.539-2.831s-4.146,3.563-3.708,3.27
		c0.438-0.292,4.684-2.83,4.684-2.83s-3.952,3.808-3.611,3.661c0.342-0.147,4.199-3.027,4.199-3.027s-3.076,4.441-2.734,4.247
		c0.344-0.195,4.149-3.172,4.149-3.172l-3.369,4.05c0,0,3.417-2.782,3.467-2.585c0.049,0.195-3.273,4.586-2.978,4.489
		c0.293-0.098,3.418-3.953,3.514-3.661c0.098,0.292-3.756,4.734-3.271,4.344c0.489-0.39,4.345-3.515,4.296-3.318
		c-0.047,0.194-3.027,4.05-2.635,3.904c0.389-0.146,4.587-3.71,4.542-3.318c-0.05,0.389-3.762,4.344-3.419,4.294
		c0.342-0.05,3.562-3.271,3.661-3.075c0.096,0.195-2.734,3.808-2.442,3.708c0.293-0.098,3.758-2.927,3.906-2.83
		c0.146,0.098-3.075,3.953-2.684,3.758c0.389-0.195,3.466-3.416,3.708-3.222c0.245,0.195-3.27,4.295-3.27,4.295
		s3.563-2.88,3.759-2.927c0.194-0.05-2.686,3.464-2.686,3.563c0,0.097,4.1-3.174,4.1-3.174s-3.515,3.563-3.368,3.613
		c0.145,0.048,4.883-2.295,4.883-2.295s-4.688,3.76-4.491,3.663c0.195-0.1,5.956-2.93,5.956-2.93s-5.763,3.758-5.517,3.661
		c0.244-0.098,6.882-2.051,6.882-2.051l-6.104,3.369l6.836-2.538c0,0-5.908,3.514-5.713,3.417c0.196-0.098,6.396-2.44,6.396-2.44
		s-5.956,3.758-5.66,3.66c0.292-0.095,6.002-2.488,6.002-2.488s-5.221,3.318-5.026,3.269c0.192-0.048,6.59-2.391,6.59-2.391
		s-4.636,3.124-4.394,2.978c0.242-0.147,5.174-1.61,5.174-1.61l-3.611,3.366l4.636-2.83c0,0-4.199,3.71-4.149,3.758
		c0.05,0.05,5.127-2.246,5.127-2.246s-4.346,3.026-4.054,2.977c0.296-0.048,4.733-1.804,4.733-1.804s-4.048,2.587-3.854,2.488
		c0.193-0.098,4.832-1.123,4.832-1.123s-4.003,1.953-3.904,2.05c0.096,0.098,4.88-0.928,4.88-0.928s-4.1,2.051-3.903,1.954
		c0.197-0.098,5.075-0.831,5.075-0.831s-4.783,2.001-4.587,1.854c0.193-0.145,5.856-1.218,5.463-0.975
		c-0.387,0.244-5.27,2.295-4.878,2.343c0.392,0.05,5.663-0.731,5.663-0.731s-5.321,1.22-4.932,1.27
		c0.392,0.048,5.565,0.292,5.565,0.292l-4.932,0.39c0,0,4.785,1.22,4.785,1.27c0,0.05-4.345-0.342-4.345-0.342l5.318,1.367
		l-4.879,0.634c0,0,4.979,0.636,4.783,0.831c-0.196,0.195-4.638,0.195-4.491,0.242c0.146,0.05,5.565,1.562,5.565,1.562
		s-6.055,0.147-5.712,0.049c0.344-0.097,5.515,1.611,5.515,1.611l-5.317-0.634l5.271,1.61h-4.688l5.03,1.807
		c0,0-4.882-0.928-4.737-0.928c0.146,0,4.296,2,4.296,2l-3.758-0.828c0,0,4.101,2.78,3.953,2.732
		c-0.146-0.048-4.442-1.61-4.245-1.514c0.192,0.099,3.854,3.076,3.854,3.076l-3.808-1.757c0,0,3.662,3.71,3.468,3.661
		c-0.195-0.051-4.098-2.345-3.904-2.296c0.193,0.05,3.952,3.173,3.76,3.224c-0.197,0.047-4.396-2.296-4.249-2.002
		c0.146,0.293,3.807,3.222,3.564,3.222c-0.244,0-4.589-2.929-4.149-2.393c0.438,0.539,3.465,3.955,3.414,4.1
		c-0.045,0.146-4.048-2.978-3.414-2.245c0.634,0.733,3.222,3.076,3.122,3.223c-0.096,0.146-4.929-2.198-4.491-1.953
		c0.443,0.244,3.664,4.15,3.516,4.053c-0.147-0.098-4.149-2.735-4.149-2.735s2.734,3.954,2.686,4.003s-3.466-2.586-3.466-2.586
		s2.441,3.66,2.344,3.81c-0.099,0.145-3.709-2.688-3.611-2.298c0.095,0.391,2.978,3.221,3.075,3.466
		c0.096,0.244-4.198-2.979-3.808-2.734c0.39,0.245,2.538,4.15,2.246,4.052c-0.293-0.095-3.907-3.807-3.565-3.465
		c0.342,0.341,3.224,4.786,2.931,4.832c-0.294,0.05-4.296-3.903-3.856-3.27c0.438,0.634,2.685,4.977,2.635,5.076
		c-0.048,0.1-3.808-4.881-3.516-4.197s2.88,4.931,2.587,4.637c-0.292-0.295-4.099-4.782-3.562-3.903
		c0.536,0.878,3.222,5.369,2.929,5.075c-0.292-0.294-3.758-3.906-3.564-3.468c0.196,0.439,1.903,5.129,1.808,4.931
		c-0.098-0.195-2.881-4.927-2.781-4.636c0.098,0.294,2.05,5.759,2.05,5.759s-0.731,0.584-0.928,0.438
		c-0.194-0.145-3.32-4.296-3.32-4.296s3.126,5.957,2.979,6.008c-0.145,0.045-4.44-5.569-4.249-5.125
		c0.197,0.438,2.689,6.148,2.542,6.248c-0.148,0.095-4.299-5.126-4.003-4.396c0.293,0.732,2.83,6.298,2.83,6.298
		s-4.148-6.199-3.513-5.32c0.634,0.878,3.171,7.321,2.683,6.736c-0.486-0.587-4.053-6.591-3.905-5.519
		c0.146,1.078,2.49,6.933,2.198,6.688c-0.293-0.245-3.126-7.077-2.879-6.199c0.242,0.878,3.219,8.2,2.195,6.882
		c-1.027-1.316-3.808-6.099-3.516-5.563c0.293,0.538,2.296,6.687,2.296,6.687s-3.857-6.638-3.711-5.858
		c0.147,0.782,3.66,8.397,2.588,6.787c-1.075-1.612-3.907-7.077-3.563-6.054c0.342,1.027,2.93,8.055,2.44,7.42
		c-0.488-0.634-3.76-6.491-3.81-5.709c-0.048,0.779,2.442,6.148,2.395,6.004c-0.05-0.149-5.467-6.299-4.686-5.176
		c0.778,1.123,4.098,6.104,4.002,6.248c-0.1,0.146-5.517-4.734-4.445-3.514c1.077,1.219,3.614,6.443,3.273,6.344
		c-0.342-0.096-5.614-6.782-4.881-5.369c0.73,1.416,4.83,7.52,3.952,6.981c-0.876-0.538-5.027-5.759-5.027-5.759
		c1.367,1.95,4.197,6.537,3.76,6.293c-0.441-0.24-5.468-5.075-4.931-4.686c0.537,0.394,3.954,6.642,3.71,6.542
		c-0.244-0.096-4.296-5.71-4.296-5.71s4.197,6.688,3.368,6.099c-0.829-0.584-5.614-6.637-4.785-5.319
		c0.83,1.321,4.396,6.592,3.956,6.202c-0.44-0.394-5.079-5.564-4.636-4.98c0.438,0.585,4.44,6.492,3.953,6.054
		c-0.489-0.439-4.883-4.931-4.883-4.931s3.805,6.198,3.418,5.954c-0.392-0.244-4.541-5.32-4.541-5.125c0,0,4.541,6.248,3.81,6.003
		c-0.734-0.244-4.933-6.003-4.541-5.174c0.39,0.832,4.1,6.835,3.514,6.492c-0.585-0.34-3.953-5.954-3.807-5.465
		c0.146,0.488,2.539,7.171,2.392,6.782c-0.146-0.39-2.93-7.321-2.975-6.833c-0.051,0.489,2.537,7.127,2.391,7.127
		c-0.149,0-3.711-5.904-3.418-5.319c0.291,0.584,2.829,6.637,2.829,6.637s-4.344-5.515-3.903-5.025
		c0.44,0.488,3.319,6.298,2.735,5.759c-0.589-0.538-4.345-4.88-3.907-4.392c0.438,0.485,3.076,5.709,2.733,5.366
		c-0.341-0.341-4.783-4.637-4.688-4.294c0.098,0.341,3.615,5.81,3.615,5.81s-4.199-6.054-3.81-5.469
		c0.392,0.587,3.468,6.786,3.221,6.492c-0.242-0.294-4.536-6.053-4.392-5.81c0.147,0.245,3.224,6.248,3.026,6.199
		c-0.194-0.047-4.394-5.659-4.394-5.659s4.053,7.075,3.514,6.587c-0.534-0.488-4.392-6.004-3.903-5.319
		c0.489,0.683,4.003,7.271,3.611,6.637s-4.536-6.344-4.245-5.858c0.292,0.489,4.392,7.326,4.101,7.081
		c-0.294-0.244-4.98-6.737-4.541-5.42c0.44,1.318,3.467,6.543,3.024,6.348c-0.438-0.195-4.587-6.492-4.537-5.858
		s2.93,6.394,2.78,6.298c-0.144-0.1-4.733-4.98-4.342-4.64c0.389,0.343,4.1,5.029,3.952,5.174c-0.146,0.149-4.731-4.78-4.391-3.708
		c0.338,1.073,4.049,5.271,3.953,5.271c-0.1,0-5.614-6.004-4.93-5.075c0.681,0.928,3.416,5.514,3.367,5.614
		c-0.049,0.095-4.734-4.98-4.298-4.247c0.439,0.732,2.245,5.515,2.052,5.27c-0.193-0.244-4.101-5.759-3.709-5.075
		c0.39,0.684,3.026,5.809,2.88,5.516c-0.149-0.291-4.147-5.126-4.003-4.343c0.147,0.778,3.026,6.293,2.78,5.854
		c-0.242-0.436-3.514-6.394-3.122-5.271c0.392,1.123,2.488,6.933,2.488,6.933s-3.66-6.588-3.369-5.908
		c0.297,0.684,1.712,5.958,1.662,5.664c-0.048-0.291-3.907-6.148-3.318-4.931c0.584,1.222,2.438,5.273,2.537,5.515
		c0.098,0.245-4.733-5.32-3.953-3.513c0.782,1.806,2.05,5.612,2.05,5.612s-4.541-7.37-3.857-6.297
		c0.686,1.073,3.468,7.031,3.174,6.886c-0.293-0.148-5.026-8.153-4.393-6.201c0.634,1.95,2.196,6.64,1.999,6.053
		c-0.194-0.585-2.879-5.419-2.537-4.442c0.342,0.978,1.27,5.076,1.123,4.591c-0.146-0.489-2.638-5.08-2.44-4.2
		c0.194,0.878,0.437,4.979,0.437,4.979s-2.291-6.198-2.144-5.664c0.145,0.538,0.584,6.348,0.584,6.053
		c0-0.294-1.611-6.099-1.513-5.27c0.098,0.829-0.392,6.492-0.294,6.103c0.1-0.394-1.17-7.275-1.317-6.446
		c-0.146,0.832-0.779,6.736-0.878,6.397c-0.098-0.345-0.782-7.177-0.829-6.054c-0.049,1.123,0.534,6.443,0.534,6.443l-1.853-6.394
		c0,0-0.196,5.854-0.146,6.004c0.048,0.145-1.172-6.248-1.172-5.858c0,0.389-0.439,5.125-0.389,5.224
		c0.047,0.096-0.931-5.224-0.931-5.224s-0.387,5.419-0.437,5.27c-0.05-0.145-0.876-6.053-0.929-5.903
		c-0.049,0.145,0.048,5.221,0.048,5.221l-1.119-5.565c0,0-0.785,4.836-0.785,4.736c0-0.096-0.046-4.782-0.046-4.782
		s-1.465,4.931-1.415,4.687c0.045-0.245-0.197-5.957-0.197-5.957l-2.686,6.735l1.074-6.786l-1.806,5.908l0.88-6.833
		c0,0-2.538,4.638-2.442,4.488c0.096-0.146,0.781-5.369,0.585-5.221c-0.194,0.145-2.195,6.152-2.246,5.759
		c-0.049-0.389,0.634-6.588,0.391-6.393c-0.242,0.194-2.05,6.442-2.05,5.659c0-0.778,1.709-6.687,1.365-6.393
		c-0.342,0.294-2.83,3.953-2.83,3.953l2.001-4.927c0,0-3.124,3.22-3.026,3.073c0.1-0.147,2.637-4.93,2.538-4.686
		c-0.097,0.245-4,4.049-3.854,3.758c0.146-0.294,3.319-4.98,3.027-4.735c-0.297,0.244-5.029,4.053-4.784,3.464
		c0.243-0.585,3.025-4.243,3.025-4.243s-5.125,3.319-5.028,3.514c0.1,0.195,3.172-5.568,3.077-5.369
		c-0.1,0.194-4.054,3.903-3.955,3.612c0.098-0.294,2.585-5.908,2.246-5.663c-0.341,0.244-3.855,4.392-3.905,4.392
		s2.391-5.854,2.196-5.759c-0.195,0.1-3.955,3.612-3.906,3.418c0.048-0.194,2.489-5.126,2.489-4.931
		c0,0.194-4.733,5.125-4.391,4.736c0.338-0.394,2.633-6.299,2.588-5.954c-0.05,0.34-4.445,5.854-4.154,5.319
		c0.292-0.539,3.319-7.13,3.126-6.787c-0.195,0.345-3.369,2.686-3.418,2.83c-0.05,0.149,2.246-4.146,2.246-4.146l-3.27,3.807
		l2.439-4.735c0,0-3.317,3.368-3.268,3.124c0.05-0.244,2-3.808,2-3.808s-4.442,3.224-4.393,3.224c0.051,0,2.735-4.64,2.735-4.64
		s-3.76,4.006-3.66,3.807c0.096-0.194,2.83-4.979,2.588-4.781c-0.247,0.194-3.908,4.052-3.76,3.709
		c0.145-0.34,2.538-4.932,2.391-4.736c-0.145,0.198-4.392,3.712-4.2,3.468c0.197-0.245,2.15-6.298,2.101-6.103
		c-0.049,0.194-3.955,4.637-3.66,4.637c0.292,0,2.195-5.71,2.195-5.71s-3.173,5.125-3.026,4.735
		c0.145-0.389,2.198-6.492,1.856-6.003c-0.342,0.484-3.077,4.93-3.077,4.976c0,0.05,3.027-6.688,2.686-6.294
		c-0.342,0.39-3.858,4.782-3.711,4.538c0.146-0.245,2.88-6.295,2.834-6.149c-0.052,0.146-4.104,4.831-3.857,4.537
		c0.242-0.291,1.903-5.905,1.903-5.905s-3.318,5.076-3.076,4.492c0.243-0.588,2.246-4.979,2.393-4.979
		c0.145,0-4.442,4.246-3.758,3.028c0.681-1.223,2.538-4.932,2.391-4.687c-0.146,0.244-3.71,4.687-3.468,4.392
		c0.247-0.294,2.981-4.785,2.834-4.637c-0.149,0.146-4.295,2.976-4.249,2.931c0.049-0.051,4.004-4.103,3.857-4.053
		c-0.148,0.05-5.173,2.879-5.173,2.879s4.002-4.002,3.808-3.856c-0.197,0.146-4.442,2.589-4.442,2.589s3.122-3.467,2.83-3.272
		c-0.292,0.195-4.687,2.051-4.491,1.905c0.196-0.149,3.516-3.078,3.516-3.078s-5.614,3.907-5.323,3.518
		c0.293-0.394,4.542-4.54,4.542-4.54s-4.542,2.489-4.249,2.295c0.292-0.195,2.295-3.273,2.295-3.079
		c0,0.199-3.222,3.028-3.222,3.028s3.172-4.296,3.126-4.002c-0.051,0.295-4.638,3.514-4.396,3.368
		c0.247-0.148,3.077-4.052,2.83-3.758c-0.243,0.291-3.511,2.586-3.367,2.441c0.149-0.149,3.124-3.809,2.882-3.663
		c-0.245,0.149-3.369,2.929-3.271,2.685c0.096-0.244,2.587-4.002,2.195-3.562c-0.389,0.438-3.124,1.855-3.124,1.855l3.319-2.639
		c0,0-4.833,1.417-4.734,1.562c0.098,0.149,3.905-2.535,3.905-2.535l-4.247,1.562c0,0,3.075-2.979,3.026-2.929
		c-0.049,0.049-4.248,1.855-4.248,1.855l3.417-2.489c0,0-4.442,1.61-4.394,1.706c0.049,0.1,3.855-2.535,3.855-2.535
		s-5.271,0.878-5.171,0.974c0.096,0.099,4.392-1.852,4.392-1.852s-5.806,1.412-5.661,1.412c0.146,0,5.272-2.685,5.125-2.635
		c-0.145,0.049-6.59,1.416-6.443,1.268c0.146-0.146,5.029-2.829,4.979-2.685c-0.049,0.149-5.857,0.638-5.564,0.684
		c0.294,0.05,3.66-1.903,3.66-1.903s-4.883,1.075-4.734,1.075c0.144,0,4.147-1.709,4.147-1.709s-5.711,0.147-5.515,0.147
		c0.195,0,4.002-1.904,4.002-1.904l-4.783,1.074l3.611-2.246l-3.902,0.147c0,0,4.099-2.148,3.952-2.148
		c-0.145,0-5.223,0.194-5.223,0.194s4.734-1.123,4.491-1.17c-0.244-0.049-5.077-0.685-5.077-0.685s4.394-0.392,4.344-0.392
		c-0.048,0-5.322-1.268-5.026-1.268c0.293,0,4.487-0.049,4.487-0.049s-4.928-1.415-4.879-1.318c0.05,0.098,4.736-0.05,4.736-0.05
		s-4.736-1.951-4.636-1.805c0.096,0.146,4.294,0.782,4.294,0.782s-4.394-2.393-4.443-2.296c-0.048,0.097,4.345,0.684,4.345,0.684
		l-4.345-2.391l4.345,0.634c0,0-4.442-2.832-4.295-2.734c0.146,0.097,5.028,1.318,4.879,1.27c-0.143-0.05-5.075-2.49-4.928-2.391
		c0.149,0.095,5.713,1.025,5.27,0.73c-0.437-0.291-4.928-3.123-4.928-3.075c0,0.049,5.371,2.051,5.221,1.856
		c-0.144-0.195-4.391-3.125-4.246-3.027c0.148,0.098,5.223,1.659,4.833,1.417c-0.391-0.246-4.442-3.907-4.442-3.955
		c0-0.05,4.051,2.585,4.051,2.44c0-0.147-3.611-4.833-3.514-4.736c0.099,0.099,3.954,3.271,3.954,3.124
		c0-0.146-3.171-4.734-2.879-4.392c0.293,0.342,4.245,2.782,4.1,2.732c-0.147-0.048-2.979-4.833-2.929-4.588
		c0.049,0.245,3.613,4.1,3.562,3.857c-0.049-0.244-2.685-5.517-2.734-5.32c-0.05,0.195,3.272,3.464,3.318,3.367
		c0.049-0.098-2.048-5.467-1.757-5.223c0.292,0.245,4.442,4.881,4.102,4.492c-0.342-0.392-3.077-5.517-3.077-5.517L63.746,116.158z"
		/>
	
		<path opacity="0.2" fill="none" stroke="#293E21" stroke-width="0.2378" stroke-linecap="round" stroke-linejoin="round" stroke-miterlimit="10" d="
		M114.776,117.836c-1.419,0.01-2.933,1.121-4.073,1.877c1.572-0.615,3.157-1.6,4.759-2.28c-1.058,0.431-2.087,0.941-3.128,1.417
		c1.001-0.474,2.029-0.96,3.117-1.197c-0.909,0.399-2.022,0.692-2.802,1.322c1.398-0.67,2.933-1.054,4.303-1.765
		c-1.244,0.327-2.833,0.947-3.741,1.877c1.624-0.546,3.18-1.273,4.827-1.757c-1.24,0.596-2.516,1.129-3.761,1.723
		c1.473-0.646,3.175-1.256,4.534-2.093c-1.324,0.496-2.605,1.289-3.83,1.995c1.472-0.579,2.897-1.281,4.356-1.894
		c-0.705,0.451-1.514,0.781-2.146,1.325c1.237-0.454,2.438-1.056,3.658-1.564c-1.1,0.527-2.164,1.129-3.225,1.729
		c0.92-0.495,1.93-0.953,2.957-1.132c-0.606,0.318-1.306,0.714-1.978,0.811c0.842-0.865,2.257-1.369,3.417-1.653
		c-0.71,0.592-1.594,1.002-2.386,1.489c0.985-0.473,1.992-0.926,3.026-1.275c-0.689,0.298-1.542,0.681-2.141,1.128
		c0.659-0.206,1.287-0.523,1.915-0.81c-0.589,0.43-1.277,0.737-1.877,1.159c0.56-0.082,1.047-0.455,1.585-0.647
		c-0.193,0.122-0.365,0.271-0.556,0.397c0.457-0.128,0.897-0.46,1.267-0.766c-0.132,0.135-0.295,0.275-0.436,0.409
		c0.147,0.097,0.047-0.035,0.059-0.05"/>
	
		<path opacity="0.2" fill="none" stroke="#293E21" stroke-width="0.2378" stroke-linecap="round" stroke-linejoin="round" stroke-miterlimit="10" d="
		M127.758,131.155c-0.128-0.014-0.439-0.048-0.475-0.057c1.377-0.013,2.818,0.168,4.188,0.34c-1.161,0.013-2.662-0.253-3.925-0.159
		c0.656,0.074,1.315,0.029,1.968,0.056c-0.965,0.184-2.246,0.068-3.243-0.07c1.723,0.03,3.825,0.345,5.603-0.177
		c-0.945,0.124-1.887,0.333-2.818,0.527c1.603-0.149,3.17-0.59,4.771-0.749c-1.014,0.698-3.874,0.788-5.142,0.839
		c1.531-0.747,3.642-0.848,5.301-0.899c-1.104,0.362-2.277,0.638-3.432,0.793c1.311-0.509,2.939-0.815,4.342-0.649
		c-0.398,0.529-2.263,1.052-2.861,0.856c1.065-0.594,2.411-0.612,3.598-0.767c-0.776,0.286-1.622,0.461-2.428,0.618
		c0.663-0.137,1.339-0.312,2.022-0.278c0,0-0.525,0.001-0.669,0"/>
	
		<path opacity="0.2" fill="none" stroke="#293E21" stroke-width="0.2378" stroke-linecap="round" stroke-linejoin="round" stroke-miterlimit="10" d="
		M142.146,129.131c-0.376,0.26-0.792,0.503-1.102,0.845c0.688-0.178,1.249-0.68,1.921-0.905c-0.485,0.126-0.979,0.366-1.387,0.66
		c0.396-0.126,0.761-0.327,1.155-0.456c-0.515,0.26-1.076,0.487-1.55,0.817c0.912-0.072,1.871-0.781,2.777-1.079
		c-0.913,0.438-2.125,0.915-2.833,1.631c1.337-0.361,2.84-1.083,4.096-1.684c-1.167,0.408-2.779,1.063-3.678,1.911
		c1.898-0.394,3.638-1.646,5.526-2.165c-1.42,0.382-3.111,0.924-4.33,1.744c1.736-0.101,3.648-1.072,5.306-1.612
		c-1.191,0.347-3.448,0.906-4.238,1.714c1.462-0.263,3.196-0.838,4.491-1.531c-1.322,0.39-2.6,0.961-3.862,1.505
		c1.526-0.044,3.674-0.894,5.132-1.522c-1.285,0.182-3.147,0.642-4.221,1.385c1.193,0.354,4.337-0.792,5.249-1.442
		c-1.359,0.011-3.283,0.549-4.395,1.309c1.556-0.018,4.23-0.674,5.449-1.583c-1.733,0.203-3.65,0.84-5.16,1.693
		c1.004,0.035,2.092-0.425,3.05-0.674c0.938-0.242,2.19-0.378,2.924-1.086c-1.091-0.13-3.567,0.637-4.485,1.279
		c1.434-0.005,3.327-0.525,4.588-1.209c-1.128,0.106-2.9,0.608-3.704,1.367c1.295-0.171,3.242-0.576,4.283-1.443
		c-0.688,0.108-1.856,0.422-2.299,0.993c1.17,0.017,2.393-0.533,3.467-0.963c-0.568,0.178-1.254,0.365-1.715,0.747
		c0.299,0.042,0.518,0.022,0.801-0.08c-0.126-0.081-0.237-0.046-0.412-0.053"/>
	
		<path opacity="0.2" fill="none" stroke="#293E21" stroke-width="0.2378" stroke-linecap="round" stroke-linejoin="round" stroke-miterlimit="10" d="
		M101.797,139.978c0.661-0.3,1.323-0.635,1.956-0.994c-0.859,0.414-1.683,0.922-2.51,1.402c1.118-0.356,2.191-1.121,3.247-1.636
		c-0.747,0.316-1.442,0.88-2.07,1.388c0.761-0.689,1.801-1.303,2.742-1.691c-0.511,0.586-1.26,1.035-1.903,1.489
		c0.93-0.436,1.738-1.128,2.676-1.547c-0.81,0.618-1.648,1.244-2.527,1.764c0.626-0.596,1.484-1.062,2.299-1.347
		c-0.632,0.643-1.568,1.405-2.418,1.731c0.906-0.773,1.912-1.385,2.996-1.857c-0.765,0.576-1.548,1.128-2.316,1.706
		c0.966-0.62,1.952-1.191,2.954-1.747c-0.554,0.324-1.067,0.708-1.585,1.092c0.745-0.356,1.494-0.915,2.185-1.374
		c-0.615,0.598-1.451,1.052-1.965,1.729c1.025-0.43,1.898-1.319,2.883-1.862c-0.796,0.622-1.744,1.234-2.366,2.026
		c1.074-0.526,2.047-1.533,3.067-2.196c-0.887,0.575-1.711,1.232-2.504,1.929c0.79-0.55,1.551-1.122,2.388-1.604
		c-0.667,0.427-1.272,0.941-1.908,1.407c1.018-0.748,2.595-2.117,3.93-2.171c-0.545,0.68-1.593,1.186-2.378,1.549
		c0.768-0.563,1.694-1.11,2.632-1.32c-0.531,0.637-1.446,1.101-2.183,1.484c0.718-0.44,1.592-1.088,2.438-1.133
		c-0.88,0.686-1.875,1.202-2.844,1.754c1.056-0.685,2.146-1.364,3.332-1.792c-0.851,0.609-1.867,1.122-2.814,1.524
		c1.193-0.799,2.939-1.798,4.403-1.854c-1.042,0.895-2.62,1.565-3.917,2.06c1.279-1.076,3.205-1.826,4.827-2.157
		c-1.14,0.617-2.507,1.427-3.763,1.708c1.13-0.787,2.708-1.364,4.068-1.603c-0.784,0.491-1.762,1.092-2.67,1.247
		c1.279-0.824,2.912-1.505,4.436-1.672c-0.951,0.656-2.255,1.149-3.373,1.496c0.929-0.762,2.362-1.148,3.539-1.276
		c-0.671,0.487-1.584,0.765-2.383,0.977c0.865-0.593,1.999-0.977,3.047-1.05c-0.893,0.499-1.869,0.979-2.849,1.277
		c1.158-0.746,2.581-1.29,3.916-1.631c-0.876,0.641-2.178,0.979-3.201,1.442c1.043-0.604,2.604-1.282,3.806-1.364
		c-0.778,0.456-1.73,0.984-2.602,1.201c1.268-0.575,2.611-1.226,3.993-1.478c-0.944,0.494-1.927,0.928-2.906,1.342
		c1.053-0.666,2.312-1.165,3.54-1.403c-0.722,0.483-1.643,0.828-2.469,1.14c0.68-0.47,2.263-1.265,3.119-1.149
		c-0.617,0.458-1.47,0.885-2.209,1.102c0.991-0.622,2.465-1.262,3.663-1.333c-0.874,0.674-2.034,1.066-3.056,1.492
		c0.843-0.43,1.727-0.793,2.625-1.08c-0.704,0.398-1.496,0.757-2.136,1.228c0.951-0.354,1.856-0.858,2.802-1.225
		c-0.495,0.242-0.948,0.568-1.339,0.95c0.407-0.063,0.93-0.301,1.123-0.618"/>
	
		<path opacity="0.2" fill="none" stroke="#293E21" stroke-width="0.2378" stroke-linecap="round" stroke-linejoin="round" stroke-miterlimit="10" d="
		M141.661,132.218c-0.887,0.902-2.114,1.175-3.094,1.943c-1.509,1.179-2.862,3.138-3.915,4.727
		c-1.513,2.276-2.295,4.852-3.784,7.156c-2.754,4.265-4.471,9.157-5.982,13.961c-1.272-5.525-2.479-9.337-5.507-14.028
		c1.386,0.999,1.89,2.541,3.045,3.756c-0.518-1.547-0.918-3.495-1.664-4.838c0.165,2.086,1.418,4.242,1.807,6.377
		c0.021-0.741-0.002-1.692,0.005-2.303c-0.771,2.979,1.583,7.512,2.895,10.002c2.521-2.72,3.292-8.387,5.181-11.747
		c2.333-4.147,6.4-4.642,10.072-7.579c-1.021,0.781-2.575,1.54-3.876,2.172c1.201-0.418,2.378-0.105,2.692,1.26
		c-0.16,0.04-0.227-0.175-0.476-0.166"/>
	
		<path opacity="0.2" fill="none" stroke="#293E21" stroke-width="0.2378" stroke-linecap="round" stroke-linejoin="round" stroke-miterlimit="10" d="
		M160.602,118.468c-0.832,3.657-5.158,6.834-7.925,9.144c2.314-3.696,4.858-3.421,8.535-4.084c-1.806,1.475-5.011,0.292-7.013,1.631
		c0.343,0.115,0.578-0.101,0.75-0.122"/>
	
		<path opacity="0.2" fill="none" stroke="#293E21" stroke-width="0.2378" stroke-linecap="round" stroke-linejoin="round" stroke-miterlimit="10" d="
		M126.843,120.149c0.948,1.365,2.015,1.436,3.401,2.247c1.645,0.961,2.413,2.191,3.423,3.7c0.71,1.058,1.786,2.285,2.057,3.637
		c-1.878-2.254-4.884-6.635-8.275-3.956c3.075-0.128,5.077-2.614,6.705,0.602c-0.529,0.36-0.612,0.044-1.047-0.119"/>
	<g>
		
			<path fill="none" stroke="#B0ACA7" stroke-width="1.253" stroke-linecap="round" stroke-linejoin="round" stroke-miterlimit="10" d="
			M93.17,168.778l0.836-14.337c0,0,3.525,13.538,3.672,13.619c0.151,0.079,4.363-13.381,4.363-13.381l0.291,13.779"/>
		
			<path fill="none" stroke="#B0ACA7" stroke-width="1.253" stroke-linecap="round" stroke-linejoin="round" stroke-miterlimit="10" d="
			M103.527,168.377c0,0,3.655-13.458,3.834-13.379c0.175,0.079,3.411,13.303,3.411,13.303"/>
		
			<path fill="none" stroke="#B0ACA7" stroke-width="1.253" stroke-linecap="round" stroke-linejoin="round" stroke-miterlimit="10" d="
			M112.765,168.778c0,0-0.476-13.382-0.401-13.859"/>
		
			<path fill="none" stroke="#B0ACA7" stroke-width="1.253" stroke-linecap="round" stroke-linejoin="round" stroke-miterlimit="10" d="
			M112.448,154.919c0,0,5.493,0.24,5.493,3.424c0,3.188-5.335,3.663-5.335,3.663c0.16,0.318,5.655,7.326,5.655,7.326"/>
		
			<path fill="none" stroke="#B0ACA7" stroke-width="1.253" stroke-linecap="round" stroke-linejoin="round" stroke-miterlimit="10" d="
			M120.014,168.778c0,0-0.478-13.382-0.397-13.859"/>
		
			<path fill="none" stroke="#B0ACA7" stroke-width="1.253" stroke-linecap="round" stroke-linejoin="round" stroke-miterlimit="10" d="
			M119.697,154.919c0,0,5.494,0.24,5.494,3.424c0,3.188-5.335,3.663-5.335,3.663c0.158,0.318,5.657,7.326,5.657,7.326"/>
		
			<path fill="none" stroke="#B0ACA7" stroke-width="1.253" stroke-linecap="round" stroke-linejoin="round" stroke-miterlimit="10" d="
			M126.228,155.793c0.079,0.397-0.321,12.666,2.944,13.224c3.266,0.556,1.911-13.462,1.911-13.462"/>
		
			<polyline fill="none" stroke="#B0ACA7" stroke-width="1.253" stroke-linecap="round" stroke-linejoin="round" stroke-miterlimit="10" points="
			138.016,155.476 133.079,155.874 132.839,169.732 138.491,169.812 		"/>
		
			<line fill="none" stroke="#B0ACA7" stroke-width="1.253" stroke-linecap="round" stroke-linejoin="round" stroke-miterlimit="10" x1="137.456" y1="160.334" x2="132.995" y2="160.412"/>
		
			<line fill="none" stroke="#B0ACA7" stroke-width="1.253" stroke-linecap="round" stroke-linejoin="round" stroke-miterlimit="10" x1="109.978" y1="164.941" x2="104.401" y2="165.043"/>
		
			<path fill="none" stroke="#B0ACA7" stroke-width="1.253" stroke-linecap="round" stroke-linejoin="round" stroke-miterlimit="10" d="
			M144.704,155.235c-0.076,0.24-5.733,0.161-4.938,7.409c0.797,7.249,5.016,7.565,5.016,7.565"/>
		
			<path fill="none" stroke="#B0ACA7" stroke-width="1.253" stroke-linecap="round" stroke-linejoin="round" stroke-miterlimit="10" d="
			M149.009,155.476c0,0-3.746,0.317-3.348,6.371c0.395,6.053,0.636,8.761,3.423,8.841c2.789,0.08,2.709-6.131,2.632-8.601
			C151.635,159.616,151.635,155.555,149.009,155.476z"/>
		
			<path fill="none" stroke="#B0ACA7" stroke-width="1.253" stroke-linecap="round" stroke-linejoin="round" stroke-miterlimit="10" d="
			M158.167,156.272c0,0-4.782-0.319-3.109,5.337c1.673,5.652,3.027,8.123-0.954,9.957"/>
	</g>
</g>
</svg>
