<?xml version="1.0" encoding="utf-8"?>
<!-- Generator: Adobe Illustrator 16.0.0, SVG Export Plug-In . SVG Version: 6.00 Build 0)  -->
<!DOCTYPE svg PUBLIC "-//W3C//DTD SVG 1.1//EN" "http://www.w3.org/Graphics/SVG/1.1/DTD/svg11.dtd">
<svg version="1.1" id="Capa_1" xmlns="http://www.w3.org/2000/svg" xmlns:xlink="http://www.w3.org/1999/xlink" x="0px" y="0px"
	 width="250px" height="250px" viewBox="0 0 250 250" enable-background="new 0 0 250 250" xml:space="preserve">
<g>
	<g>
		<g>
			<path fill="#CA3831" d="M200.683,94.192c4.802,0.043,8.658,3.97,8.615,8.772l-0.482,54.096c-0.043,4.803-3.969,8.659-8.771,8.616
				l-149.265-1.33c-4.801-0.043-8.66-3.969-8.617-8.771l0.481-54.096c0.043-4.802,3.971-8.66,8.772-8.617L200.683,94.192z"/>
			<path fill="#54A9C4" d="M89.843,131.771c-1.34,0.38,15.284,6.377-6.002,10.754c-4.057,0.834-6.63,3.979-5.198,5.964
				c1.145,1.586,4.379,1.223,5.833,2.608c1.145,1.091,0.731,2.344,1.526,3.488c1.529,2.201,7.476,3.345,10.041,3.822
				c2.819,0.523,6.045,0.814,8.908,1.034c4.659,0.358,9.38-0.537,14.083-0.256c3.364,0.201,6.813,0.7,10.177,0.707
				c6.671,0.014,13.464-1.194,20.118-0.786c6.472,0.396,16.292-0.848,19.821-6.973c1.19-0.48,4.914-0.429,4.916-2.323
				c0.001-0.919-1.851-0.672-1.309-2.075c0.321-0.829,1.532-1.104,2.298-1.008c1.058-2.757-4.28-2.46-5.743-2.627
				c-1.698-0.194-2.586-0.788-4.088-1.297c-2.414-0.815-5.139-0.605-7.627-1.019c-7.92-1.321-8.182-9.433-16.272-9.815"/>
			
				<path fill="none" stroke="#F6F1EA" stroke-width="0.7359" stroke-linecap="round" stroke-linejoin="round" stroke-miterlimit="10" d="
				M199.465,95.719c4.594,0.041,8.285,3.799,8.244,8.395l-0.462,51.767c-0.04,4.597-3.798,8.287-8.393,8.246l-146.992-1.31
				c-4.594-0.041-8.286-3.798-8.246-8.395l0.461-51.768c0.042-4.596,3.8-8.287,8.396-8.247L199.465,95.719z"/>
			<path fill="#ECC59C" d="M196.682,134.955c0,0-3.412-1.458-4.115-2.605s-2.682-3.45-3.394-3.741
				c-0.71-0.292-1.671-4.439-3.232-5.452c-1.56-1.013-3.547-2.315-4.248-3.605c-0.702-1.291-1.007,0.848-3.86,0.68
				c-2.853-0.168-5.717,0.804-7.273-0.636c-1.557-1.441-1.118-2.436-3.115-2.739c-1.995-0.304-5.433,1.235-8.568,0.637
				c-3.134-0.599-4.422-0.182-5.988-0.481c-1.568-0.3-0.569-0.148-3.018,2.256c-2.448,2.405-4.159,2.246-5.604,4.232
				c-1.445,1.985-2.458,3.404-2.891,3.97c-0.434,0.567,2.589-2.117-1.728,1.698c-4.314,3.813-4.741,3.524-6.468,5.222
				c-1.729,1.697-1.729,1.697-1.729,1.697s20.789,5.181,28.35,5.532c7.562,0.354,5-0.383,14.274-0.158
				c9.274,0.227,3.721-1.251,12.136-0.604c8.414,0.646,7.986,0.643,10.842,0.525c2.855-0.118,4.138-0.107,5.71-0.235
				c1.571-0.129,2.858-0.545,2.858-0.545S198.527,135.971,196.682,134.955z"/>
			<path fill="#ECC59C" d="M45.271,120.828c0,0,6.987,0.775,9.703,0.229s4.428-0.388,6.709-0.226c2.281,0.164,3.43-0.539,5-0.668
				c1.57-0.128,2.71,0.167,3.566,0.174c0.856,0.007,2.136,0.447,2.136,0.447l1.424,0.44c0,0-13.518,11.583-17.672,13.4
				c-4.155,1.818-9.302,2.914-9.302,2.914S45.553,121.259,45.271,120.828z"/>
			
				<path fill="none" stroke="#F6F1EA" stroke-width="0.769" stroke-linecap="round" stroke-linejoin="round" stroke-miterlimit="10" d="
				M89.496,131.186c15.166,1.014,30.545,1.151,45.886,1.213"/>
			<path fill="#DFB285" d="M152.175,116.719c0,0,6.092,5.049,8.472,10.209c2.381,5.158,2.215,7.583,3.917,8.882
				c1.7,1.3,1.543,3.012,2.109,3.588c0.815,0.829,0.892,0.181,2.768,1.965c0,0-14.495,0.642-22.611-1.286
				c-8.117-1.928-14.381-3.696-14.381-3.696s-0.418-1.144,1.308-2.558c1.725-1.411,2.155-1.835,3.883-3.39
				c1.727-1.555,3.736-2.964,3.736-2.964s0.439-1.28,1.013-1.562c0.574-0.279,1.737-2.696,3.171-3.396
				c1.434-0.702,0.858-0.278,2.726-1.688c1.868-1.412,1.726-1.412,2.588-2.118C151.734,118,152.175,116.719,152.175,116.719z"/>
			
				<polygon fill="none" stroke="#F6F1EA" stroke-width="0.4588" stroke-linecap="round" stroke-linejoin="round" stroke-miterlimit="10" points="
				52.98,100.92 53.148,110.712 54.34,110.723 54.772,100.51 			"/>
			
				<polygon fill="none" stroke="#F6F1EA" stroke-width="0.4588" stroke-linecap="round" stroke-linejoin="round" stroke-miterlimit="10" points="
				64.312,100.084 63.97,109.702 65.08,109.541 65.166,99.921 			"/>
			
				<path fill="none" stroke="#F6F1EA" stroke-width="0.4588" stroke-linecap="round" stroke-linejoin="round" stroke-miterlimit="10" d="
				M83.451,100.254c0,0-0.417,8.51,2.474,9.048c2.889,0.536,5.703,0.051,6.312-1.307c0.609-1.357,0.84-8.252,0.84-8.252
				l-1.279,0.244c0,0-0.164,8.769-3.489,9.165c-3.324,0.396-3.457-3.777-3.325-8.971L83.451,100.254z"/>
			
				<polygon fill="none" stroke="#F6F1EA" stroke-width="0.4588" stroke-linecap="round" stroke-linejoin="round" stroke-miterlimit="10" points="
				110.398,107.614 111.074,98.765 112.352,98.689 112.017,107.627 			"/>
			
				<path fill="none" stroke="#F6F1EA" stroke-width="0.4588" stroke-linecap="round" stroke-linejoin="round" stroke-miterlimit="10" d="
				M118.569,108.112c0,0-3.127-2.667-6.361-2.697c0,0,4.347-0.727,4.951-1.573c0.604-0.846,1.746-4.838-1.743-5.039
				c-3.49-0.201-3.49-0.201-3.49-0.201s3.919-0.136,5.79,0.052c1.872,0.187,3.367,4.458-0.138,5.874c0,0-1.026,0.501-2.221,0.831
				c-1.195,0.331,1.447,0.013,3.64,2.417L118.569,108.112z"/>
			
				<path fill="none" stroke="#F6F1EA" stroke-width="0.4588" stroke-linecap="round" stroke-linejoin="round" stroke-miterlimit="10" d="
				M141.07,98.61c0,0-5.271-0.729-6.753,2.92c-1.479,3.648,0.039,5.11,1.478,6.229c1.438,1.119,5.105,0.556,5.105,0.556l0.178-0.935
				c0,0-5.114,0.636-5.941-2.097c-0.828-2.732,1.326-5.608,4.393-5.665l1.53,0.183L141.07,98.61z"/>
			
				<polygon fill="none" stroke="#F6F1EA" stroke-width="0.4588" stroke-linecap="round" stroke-linejoin="round" stroke-miterlimit="10" points="
				186.553,99.509 181.438,109.68 182.801,109.521 187.659,99.519 			"/>
			
				<polygon fill="none" stroke="#F6F1EA" stroke-width="0.4588" stroke-linecap="round" stroke-linejoin="round" stroke-miterlimit="10" points="
				191.146,109.427 187.659,99.519 186.553,99.509 189.61,109.753 			"/>
			
				<polygon fill="none" stroke="#F6F1EA" stroke-width="0.4588" stroke-linecap="round" stroke-linejoin="round" stroke-miterlimit="10" points="
				53.235,100.921 59.482,107.022 60.845,107.034 54.772,100.51 			"/>
			
				<path fill="none" stroke="#F6F1EA" stroke-width="0.4588" stroke-linecap="round" stroke-linejoin="round" stroke-miterlimit="10" d="
				M65.075,100.602c-0.088,0.254-4.23,6.433-4.23,6.433l-1.362-0.012l4.405-6.942L65.075,100.602z"/>
			
				<polygon fill="none" stroke="#F6F1EA" stroke-width="0.4588" stroke-linecap="round" stroke-linejoin="round" stroke-miterlimit="10" points="
				162.572,98.982 161.124,98.969 160.871,108.417 162.062,108.428 			"/>
			
				<path fill="none" stroke="#F6F1EA" stroke-width="0.4588" stroke-linecap="round" stroke-linejoin="round" stroke-miterlimit="10" d="
				M51.702,101.078c1.536-0.036,3.323-0.692,4.862-0.893"/>
			
				<path fill="none" stroke="#F6F1EA" stroke-width="0.4588" stroke-linecap="round" stroke-linejoin="round" stroke-miterlimit="10" d="
				M52.04,110.957c1.169,0.208,2.709-0.372,3.944-0.566c-0.003,0.019-0.149,0.043-0.279,0.088"/>
			
				<path fill="none" stroke="#F6F1EA" stroke-width="0.4588" stroke-linecap="round" stroke-linejoin="round" stroke-miterlimit="10" d="
				M62.269,100.151c1.377,0.01,3.323-0.32,4.346-0.388"/>
			
				<path fill="none" stroke="#F6F1EA" stroke-width="0.4588" stroke-linecap="round" stroke-linejoin="round" stroke-miterlimit="10" d="
				M63.116,110.12c1.013-0.193,2.03-0.618,3.071-0.653"/>
			
				<path fill="none" stroke="#F6F1EA" stroke-width="0.4588" stroke-linecap="round" stroke-linejoin="round" stroke-miterlimit="10" d="
				M82.175,100.073c1.528,0.099,3.188-0.227,4.788-0.212c0.222,0.002-0.466-0.005-0.272-0.002"/>
			
				<path fill="none" stroke="#F6F1EA" stroke-width="0.4588" stroke-linecap="round" stroke-linejoin="round" stroke-miterlimit="10" d="
				M90.18,100.059c1.276,0.046,2.56-0.792,3.751-0.647"/>
			
				<path fill="none" stroke="#F6F1EA" stroke-width="0.4588" stroke-linecap="round" stroke-linejoin="round" stroke-miterlimit="10" d="
				M112.182,98.604c-0.825,0.001-1.798,0.27-2.559,0.573"/>
			
				<path fill="none" stroke="#F6F1EA" stroke-width="0.4588" stroke-linecap="round" stroke-linejoin="round" stroke-miterlimit="10" d="
				M112.526,107.802c-1.084,0.078-2.167,0.156-3.238,0.227"/>
			
				<path fill="none" stroke="#F6F1EA" stroke-width="0.4588" stroke-linecap="round" stroke-linejoin="round" stroke-miterlimit="10" d="
				M118.927,105.986c0.125,0.737,0.203,1.535,0.15,2.3"/>
			
				<path fill="none" stroke="#F6F1EA" stroke-width="0.4588" stroke-linecap="round" stroke-linejoin="round" stroke-miterlimit="10" d="
				M141.163,97.845c0.071,1.013,0.153,2.617-0.116,3.405"/>
			
				<path fill="none" stroke="#F6F1EA" stroke-width="0.4588" stroke-linecap="round" stroke-linejoin="round" stroke-miterlimit="10" d="
				M141.258,106.19c0.286,0.807,0.18,2.204-0.026,2.98"/>
			
				<path fill="none" stroke="#F6F1EA" stroke-width="0.4588" stroke-linecap="round" stroke-linejoin="round" stroke-miterlimit="10" d="
				M163.765,98.907c-1.377,0.363-2.969-0.053-4.262,0.559"/>
			
				<path fill="none" stroke="#F6F1EA" stroke-width="0.4588" stroke-linecap="round" stroke-linejoin="round" stroke-miterlimit="10" d="
				M162.913,108.436c-1.006,0.32-2.454-0.277-3.489-0.031"/>
			
				<path fill="none" stroke="#F6F1EA" stroke-width="0.4588" stroke-linecap="round" stroke-linejoin="round" stroke-miterlimit="10" d="
				M184.163,109.534c-1.132,0.11-2.286,0.169-3.41,0.31"/>
			
				<path fill="none" stroke="#F6F1EA" stroke-width="0.4588" stroke-linecap="round" stroke-linejoin="round" stroke-miterlimit="10" d="
				M189.191,99.532c-0.975,0.891-3.52-0.222-4.939,0.041"/>
			
				<path fill="none" stroke="#F6F1EA" stroke-width="0.4588" stroke-linecap="round" stroke-linejoin="round" stroke-miterlimit="10" d="
				M191.738,109.772c-0.962-0.248-2.924,0.111-4.004,0.304"/>
			
				<polygon fill="none" stroke="#F6F1EA" stroke-width="0.4588" stroke-linecap="round" stroke-linejoin="round" stroke-miterlimit="10" points="
				183.164,107.055 189.896,106.349 189.821,105.328 183.857,105.699 			"/>
			<path fill="#E9BB43" d="M104.461,122.145c-0.026,2.837,2.158,5.157,4.877,5.182c2.718,0.023,5.226-1.969,5.251-4.807
				c0.025-2.837-2.441-5.444-5.16-5.468C106.71,117.028,104.485,119.308,104.461,122.145z"/>
			
				<path fill="none" stroke="#E9BB43" stroke-width="0.769" stroke-linecap="round" stroke-linejoin="round" stroke-miterlimit="10" d="
				M107.101,114.035c-0.281-0.277-0.62-0.68-0.847-1.006"/>
			
				<path fill="none" stroke="#E9BB43" stroke-width="0.769" stroke-linecap="round" stroke-linejoin="round" stroke-miterlimit="10" d="
				M100.602,122.825c-0.376,0.235-1.035,0.413-1.574,0.414"/>
			
				<path fill="none" stroke="#E9BB43" stroke-width="0.769" stroke-linecap="round" stroke-linejoin="round" stroke-miterlimit="10" d="
				M110.811,130.193c0.134,0.271,0.177,0.558,0.135,0.858"/>
			
				<path fill="none" stroke="#E9BB43" stroke-width="0.769" stroke-linecap="round" stroke-linejoin="round" stroke-miterlimit="10" d="
				M116.073,116.254c0.622-0.051,1.23-0.205,1.727-0.68c-0.191-0.032-0.393,0.012-0.579-0.023"/>
			<path fill="#D8A276" d="M140.486,138.787c1.555-0.338,13.656-4.108,10.469-7.607c0.92-1.468,2.103-2.686,3.16-4.046
				c0.729-0.938,1.519-3.287,2.419-3.928c2.177-1.55,5.644,1.446,7.366,2.805c2.845,2.246,6.232,3.553,8.845,6.066
				c3.942,3.793,8.807,4.896,13.957,6.349c2.723,0.77,5.435,2.925,8.276,2.988"/>
			
				<path fill="none" stroke="#F6F1EA" stroke-width="0.769" stroke-linecap="round" stroke-linejoin="round" stroke-miterlimit="10" d="
				M91.654,150.003c5.327-0.961,10.815-1.901,16.223-1.03c2.915,0.469,5.388,1.519,7.794,3.194c1.187,0.827,2.112,1.856,3.624,1.998
				c3.183,0.299,7.277-2.251,10.292-3.074c1.639-0.448,3.938-1.239,5.584-0.394c1.401,0.719,1.398,2.335,2.488,3.253
				c3.684,3.097,8.524-2.533,12.146-3.298c2.932-0.617,2.873,2.293,5.629,2.321c1.799,0.019,4.782-2.188,6.576-2.945
				c-0.214-0.26-0.389-0.171-0.71-0.261"/>
			
				<path fill="none" stroke="#F6F1EA" stroke-width="0.769" stroke-linecap="round" stroke-linejoin="round" stroke-miterlimit="10" d="
				M75.153,142.702c-0.141,0.537-0.486,0.968-0.972,1.146"/>
			
				<path fill="none" stroke="#F6F1EA" stroke-width="0.769" stroke-linecap="round" stroke-linejoin="round" stroke-miterlimit="10" d="
				M62.034,147.776c0.132,0.523,0.326,1.053,0.564,1.543"/>
			
				<path fill="none" stroke="#F6F1EA" stroke-width="0.769" stroke-linecap="round" stroke-linejoin="round" stroke-miterlimit="10" d="
				M187.522,153.894c0.449,0.222,1,0.291,1.536,0.207"/>
			
				<path fill="none" stroke="#F6F1EA" stroke-width="0.769" stroke-linecap="round" stroke-linejoin="round" stroke-miterlimit="10" d="
				M178.239,160.155c1.117,0.269,2.283,0.234,3.459,0.224"/>
			
				<path fill="none" stroke="#F6F1EA" stroke-width="0.769" stroke-linecap="round" stroke-linejoin="round" stroke-miterlimit="10" d="
				M197.17,150.135c1.17,0.27,2.92,0.228,3.651,0.032"/>
			
				<path fill="none" stroke="#F6F1EA" stroke-width="0.769" stroke-linecap="round" stroke-linejoin="round" stroke-miterlimit="10" d="
				M197.266,160.902c0.651,0.101,1.254,0.166,1.921,0.209"/>
			
				<path fill="none" stroke="#F6F1EA" stroke-width="0.769" stroke-linecap="round" stroke-linejoin="round" stroke-miterlimit="10" d="
				M186.817,146.774c0.286,0.19,0.426,0.461,0.378,0.771"/>
			
				<path fill="none" stroke="#F6F1EA" stroke-width="0.769" stroke-linecap="round" stroke-linejoin="round" stroke-miterlimit="10" d="
				M71.949,157.093c0.245,0.21,0.737,0.901,0.761,0.968"/>
			
				<path fill="none" stroke="#F6F1EA" stroke-width="0.769" stroke-linecap="round" stroke-linejoin="round" stroke-miterlimit="10" d="
				M56.809,151.768c0.388,0.207,0.646,0.631,0.759,1.16"/>
			
				<path fill="none" stroke="#F6F1EA" stroke-width="0.769" stroke-linecap="round" stroke-linejoin="round" stroke-miterlimit="10" d="
				M51.68,144.801c0.323,0.484,0.575,1.002,0.755,1.544"/>
			
				<path fill="none" stroke="#F6F1EA" stroke-width="0.769" stroke-linecap="round" stroke-linejoin="round" stroke-miterlimit="10" d="
				M74.302,151.924c-0.144,0.377-0.408,0.65-0.775,0.762"/>
			
				<path fill="none" stroke="#F6F1EA" stroke-width="0.769" stroke-linecap="round" stroke-linejoin="round" stroke-miterlimit="10" d="
				M59.632,158.522c-0.255,0.801-0.804,1.419-1.553,1.716"/>
			
				<path fill="none" stroke="#F6F1EA" stroke-width="0.769" stroke-linecap="round" stroke-linejoin="round" stroke-miterlimit="10" d="
				M100.922,141.971c4.27-0.759,8.345-1.233,12.708-0.83c5.087,0.468,10.445,2.756,15.254,1.452
				c3.974-1.075,6.64-0.924,10.519,0.354c1.503,0.496,6.012,2.384,6.307,0"/>
			
				<path fill="none" stroke="#F6F1EA" stroke-width="0.769" stroke-linecap="round" stroke-linejoin="round" stroke-miterlimit="10" d="
				M98.093,135.793c2.201-0.225,4.045-1.611,6.277-1.879c1.909-0.229,3.336,0.301,5.243,0.48c2.113,0.198,3.582-0.451,5.519-0.713
				c2.143-0.288,13.795-0.179,13.927,0.658"/>
			<path fill="#DFB285" d="M94.82,138.472c0.004-0.571,0.466-4.278-1.672-4.582c-2.139-0.304-3.532-4.027-3.242-4.596
				c0.291-0.568,1.438-1.272,1.874-2.125c0.436-0.852,1.871-1.695,0.874-1.99c-0.996-0.294-5.851,0.091-5.851,0.091
				s0.986,1.436,0.126,1.856s-2.702-1.023-2.409-1.876c0.293-0.854-0.697-2.005-1.124-2.15c-0.426-0.147,0.578-0.852-0.556-1.718
				c-1.133-0.866-3.851-0.177-4.99-0.472c-1.139-0.296-1.273-1.153-3.129-1.17c-1.854-0.017-2.29,0.835-4.158,2.246
				c-1.868,1.41-1.996-0.16-4.454,3.386c-2.459,3.546-0.602,3.42-5.183,5.092c-4.583,1.671-3.859,0.535-6.869,1.936
				c-3.009,1.401-4.153,1.677-5.152,1.668c-0.999-0.01-1.913,6.404-1.913,6.404s9.281-0.631,11.565-0.61
				c2.284,0.02,8.143-0.782,11.721-2.036c3.579-1.253,4.006-1.248,7.863-1.644c3.857-0.394,4.706,0.471,7.984,0.929
				c3.279,0.456,5.558,0.764,6.553,1.343C93.673,139.031,94.82,138.472,94.82,138.472z"/>
			<path fill="#D8A276" d="M93.626,136.892c0.045-0.634,0.02-1.078-0.523-1.417c-0.838,0.535-1.301,1.421-1.199,2.4"/>
			<path fill="#D8A276" d="M73.665,137.114c-1.422-2.227,7.686-8.366,6.357-1.481"/>
			<path fill="#D8A276" d="M83.473,136.816c0.202-4.804,6.427-3.707,5.568,0.819"/>
		</g>
		<g>
			
				<path fill="none" stroke="#F6F1EA" stroke-width="0.769" stroke-linecap="round" stroke-linejoin="round" stroke-miterlimit="10" d="
				M197.133,135.197c0,0-3.412-1.459-4.115-2.606c-0.704-1.147-2.682-3.449-3.393-3.741c-0.71-0.291-1.672-4.438-3.233-5.452
				c-1.561-1.012-3.548-2.314-4.249-3.605c-0.702-1.29-1.006,0.848-3.859,0.68c-2.853-0.167-5.716,0.805-7.273-0.636
				c-1.557-1.441-1.118-2.436-3.114-2.739s-5.435,1.236-8.569,0.637c-3.134-0.598-4.421-0.182-5.989-0.481
				c-1.567-0.299-0.569-0.148-3.018,2.257c-2.447,2.405-4.157,2.246-5.603,4.231c-1.446,1.985-2.457,3.403-2.891,3.971
				c-0.433,0.566,2.589-2.116-1.728,1.697c-4.315,3.813-4.741,3.526-6.469,5.223c-1.728,1.697-1.728,1.697-1.728,1.697
				s20.79,5.18,28.351,5.533c7.562,0.353,4.999-0.384,14.273-0.158s3.722-1.252,12.136-0.605c8.414,0.646,7.985,0.642,10.841,0.524
				s4.14-0.106,5.71-0.234c1.572-0.129,2.86-0.546,2.86-0.546S198.979,136.213,197.133,135.197z"/>
			
				<path fill="none" stroke="#F6F1EA" stroke-width="0.769" stroke-linecap="round" stroke-linejoin="round" stroke-miterlimit="10" d="
				M94.491,138.706c0.005-0.57,0.467-4.277-1.671-4.581c-2.139-0.306-3.532-4.028-3.241-4.597c0.29-0.567,1.438-1.271,1.874-2.123
				c0.435-0.854,1.87-1.696,0.874-1.99c-0.996-0.294-5.852,0.09-5.852,0.09s0.986,1.436,0.126,1.856s-2.702-1.022-2.409-1.876
				s-0.696-2.004-1.123-2.152c-0.427-0.146,0.578-0.85-0.555-1.716c-1.134-0.867-3.852-0.177-4.991-0.473
				c-1.139-0.296-1.273-1.153-3.129-1.169c-1.855-0.017-2.291,0.835-4.159,2.245c-1.868,1.411-1.996-0.161-4.454,3.385
				c-2.458,3.547-0.602,3.42-5.183,5.092s-3.858,0.536-6.868,1.937c-3.009,1.4-4.153,1.676-5.152,1.667
				c-0.999-0.009-1.912,6.405-1.912,6.405s9.281-0.631,11.564-0.611c2.284,0.021,8.143-0.782,11.721-2.035
				c3.578-1.253,4.006-1.249,7.863-1.643s4.706,0.47,7.984,0.927c3.278,0.458,5.557,0.764,6.552,1.344
				C93.344,139.267,94.491,138.706,94.491,138.706z"/>
			
				<path fill="none" stroke="#F6F1EA" stroke-width="0.769" stroke-linecap="round" stroke-linejoin="round" stroke-miterlimit="10" d="
				M47.554,137.003c0,0-1.283-16.28-1.564-16.711c0,0,6.987,0.775,9.704,0.229c2.715-0.546,4.428-0.389,6.709-0.226
				c2.282,0.163,3.43-0.54,5-0.669c1.571-0.128,2.711,0.167,3.567,0.174c0.856,0.008,2.136,0.447,2.136,0.447l1.424,0.441"/>
			
				<path fill="none" stroke="#F6F1EA" stroke-width="0.769" stroke-linecap="round" stroke-linejoin="round" stroke-miterlimit="10" d="
				M152.626,116.96c0,0,6.091,5.049,8.472,10.208c2.38,5.159,2.215,7.583,3.917,8.884c1.701,1.299,1.544,3.011,2.108,3.586
				c0.815,0.83,0.893,0.182,2.77,1.966c0,0-14.496,0.642-22.613-1.286c-8.116-1.928-14.381-3.696-14.381-3.696
				s-0.417-1.145,1.309-2.557c1.725-1.412,2.155-1.836,3.882-3.391c1.728-1.556,3.737-2.964,3.737-2.964s0.439-1.28,1.014-1.561
				c0.572-0.28,1.736-2.696,3.17-3.397c1.434-0.701,0.859-0.278,2.727-1.688c1.867-1.411,1.725-1.413,2.588-2.119
				C152.187,118.242,152.626,116.96,152.626,116.96z"/>
			<path fill="#E9BB43" d="M104.911,122.388c-0.025,2.836,2.159,5.157,4.878,5.181c2.719,0.024,5.227-1.968,5.251-4.805
				c0.026-2.837-2.441-5.444-5.16-5.469C107.161,117.27,104.937,119.551,104.911,122.388z"/>
			<g>
				
					<path fill="none" stroke="#E9BB43" stroke-width="0.769" stroke-linecap="round" stroke-linejoin="round" stroke-miterlimit="10" d="
					M101.053,123.066c-0.377,0.235-1.035,0.413-1.574,0.414"/>
			</g>
			<g>
				
					<path fill="none" stroke="#E9BB43" stroke-width="0.769" stroke-linecap="round" stroke-linejoin="round" stroke-miterlimit="10" d="
					M119.307,123.844c-0.428,0.12-1.109,0.104-1.627-0.045"/>
			</g>
			
				<path fill="none" stroke="#E9BB43" stroke-width="0.769" stroke-linecap="round" stroke-linejoin="round" stroke-miterlimit="10" d="
				M111.262,130.436c0.133,0.27,0.178,0.559,0.135,0.858"/>
			
				<path fill="none" stroke="#F6F1EA" stroke-width="0.769" stroke-linecap="round" stroke-linejoin="round" stroke-miterlimit="10" d="
				M94.076,137.133c0.047-0.634,0.02-1.077-0.522-1.416c-0.838,0.534-1.301,1.421-1.199,2.4"/>
			
				<path fill="none" stroke="#F6F1EA" stroke-width="0.769" stroke-linecap="round" stroke-linejoin="round" stroke-miterlimit="10" d="
				M140.303,138.544c1.554-0.338,13.657-4.106,10.47-7.606c0.92-1.468,2.102-2.686,3.159-4.045c0.729-0.938,1.52-3.288,2.419-3.929
				c2.177-1.551,5.644,1.445,7.366,2.804c2.845,2.246,6.233,3.554,8.847,6.067c3.94,3.792,8.805,4.896,13.956,6.35
				c2.722,0.768,5.434,2.923,8.277,2.985"/>
			
				<path fill="none" stroke="#F6F1EA" stroke-width="0.769" stroke-linecap="round" stroke-linejoin="round" stroke-miterlimit="10" d="
				M94.287,139.073c-2.546,0.72-18.218,5.468-15.193,9.658c1.144,1.586,4.379,1.223,5.833,2.608
				c1.146,1.091,0.731,2.344,1.526,3.489c1.528,2.2,7.476,3.343,10.041,3.82c2.819,0.523,6.044,0.815,8.909,1.035
				c4.658,0.357,9.379-0.537,14.082-0.255c3.364,0.201,6.814,0.699,10.176,0.705c6.672,0.015,13.464-1.193,20.12-0.786
				c6.471,0.397,16.29-0.846,19.819-6.971c1.191-0.481,4.915-0.43,4.916-2.324c0.002-0.919-1.851-0.673-1.307-2.075
				c0.321-0.829,1.53-1.104,2.297-1.008c1.057-2.756-4.281-2.459-5.744-2.626c-1.698-0.194-2.584-0.789-4.087-1.298
				c-2.413-0.816-5.139-0.605-7.626-1.02c-7.922-1.32-8.372-2.919-16.463-3.301"/>
			
				<path fill="none" stroke="#F6F1EA" stroke-width="0.769" stroke-linecap="round" stroke-linejoin="round" stroke-miterlimit="10" d="
				M92.104,150.245c5.327-0.961,10.816-1.901,16.224-1.03c2.916,0.469,5.389,1.519,7.794,3.194c1.188,0.827,2.112,1.856,3.624,1.998
				c3.184,0.299,7.277-2.252,10.291-3.075c1.639-0.446,3.938-1.237,5.584-0.393c1.401,0.719,1.398,2.336,2.489,3.253
				c3.684,3.097,8.523-2.532,12.146-3.298c2.932-0.618,2.871,2.293,5.627,2.321c1.801,0.019,4.782-2.188,6.576-2.946
				c-0.212-0.259-0.388-0.17-0.709-0.26"/>
			
				<path fill="none" stroke="#F6F1EA" stroke-width="0.769" stroke-linecap="round" stroke-linejoin="round" stroke-miterlimit="10" d="
				M74.116,137.356c-3.022-4.73,7.207-5.881,6.358-1.482"/>
			
				<path fill="none" stroke="#F6F1EA" stroke-width="0.769" stroke-linecap="round" stroke-linejoin="round" stroke-miterlimit="10" d="
				M83.923,137.059c0.199-4.714,6.389-3.508,5.569,0.819"/>
			
				<path fill="none" stroke="#F6F1EA" stroke-width="0.769" stroke-linecap="round" stroke-linejoin="round" stroke-miterlimit="10" d="
				M75.604,142.945c-0.14,0.535-0.485,0.966-0.971,1.145"/>
			
				<path fill="none" stroke="#F6F1EA" stroke-width="0.769" stroke-linecap="round" stroke-linejoin="round" stroke-miterlimit="10" d="
				M62.486,148.02c0.132,0.523,0.324,1.053,0.563,1.542"/>
			
				<path fill="none" stroke="#F6F1EA" stroke-width="0.769" stroke-linecap="round" stroke-linejoin="round" stroke-miterlimit="10" d="
				M187.975,154.137c0.448,0.221,0.999,0.29,1.536,0.205"/>
			
				<path fill="none" stroke="#F6F1EA" stroke-width="0.769" stroke-linecap="round" stroke-linejoin="round" stroke-miterlimit="10" d="
				M178.689,160.398c1.118,0.267,2.284,0.234,3.459,0.222"/>
			
				<path fill="none" stroke="#F6F1EA" stroke-width="0.769" stroke-linecap="round" stroke-linejoin="round" stroke-miterlimit="10" d="
				M197.621,150.377c1.171,0.27,2.92,0.227,3.651,0.032"/>
			
				<path fill="none" stroke="#F6F1EA" stroke-width="0.769" stroke-linecap="round" stroke-linejoin="round" stroke-miterlimit="10" d="
				M197.717,161.145c0.652,0.101,1.254,0.167,1.92,0.209"/>
			
				<path fill="none" stroke="#F6F1EA" stroke-width="0.769" stroke-linecap="round" stroke-linejoin="round" stroke-miterlimit="10" d="
				M187.269,147.016c0.287,0.191,0.426,0.461,0.378,0.773"/>
			
				<path fill="none" stroke="#F6F1EA" stroke-width="0.769" stroke-linecap="round" stroke-linejoin="round" stroke-miterlimit="10" d="
				M72.4,157.336c0.245,0.208,0.737,0.9,0.76,0.968"/>
			
				<path fill="none" stroke="#F6F1EA" stroke-width="0.769" stroke-linecap="round" stroke-linejoin="round" stroke-miterlimit="10" d="
				M57.259,152.01c0.388,0.207,0.646,0.631,0.758,1.16"/>
			
				<path fill="none" stroke="#F6F1EA" stroke-width="0.769" stroke-linecap="round" stroke-linejoin="round" stroke-miterlimit="10" d="
				M52.13,145.043c0.323,0.484,0.575,1.001,0.755,1.545"/>
			
				<path fill="none" stroke="#F6F1EA" stroke-width="0.769" stroke-linecap="round" stroke-linejoin="round" stroke-miterlimit="10" d="
				M74.753,152.166c-0.143,0.377-0.409,0.65-0.775,0.762"/>
			
				<path fill="none" stroke="#F6F1EA" stroke-width="0.769" stroke-linecap="round" stroke-linejoin="round" stroke-miterlimit="10" d="
				M60.083,158.764c-0.255,0.803-0.804,1.42-1.553,1.716"/>
			
				<path fill="none" stroke="#F6F1EA" stroke-width="0.769" stroke-linecap="round" stroke-linejoin="round" stroke-miterlimit="10" d="
				M101.373,142.213c4.27-0.759,8.345-1.232,12.708-0.831c5.087,0.468,10.444,2.756,15.253,1.452
				c3.974-1.075,6.64-0.923,10.519,0.354c1.503,0.497,6.011,2.384,6.307,0"/>
		</g>
	</g>
	<g id="vsq2CE_1_">
		<g>
			<path fill-rule="evenodd" clip-rule="evenodd" fill="#686F69" d="M198.528,106.448c-0.572,0.305-0.625-0.078-0.7-0.462
				c-0.872-4.442-1.748-8.882-2.623-13.324c-0.162-0.82-0.329-1.639-0.495-2.458c0.057-0.027,0.112-0.056,0.169-0.083
				c0.112,0.201,0.282,0.388,0.329,0.603c0.405,1.833,0.786,3.671,1.178,5.507c0.695,3.261,1.393,6.524,2.087,9.785
				C198.503,106.159,198.511,106.307,198.528,106.448z"/>
			<path fill-rule="evenodd" clip-rule="evenodd" fill="#686F69" d="M199.689,92.015c-0.452,0.196-0.616,0.071-0.711-0.312
				c-0.306-1.236-0.635-2.466-0.971-3.694c-0.201-0.734-0.779-1.27-1.437-1.31c-0.695-0.042-1.165,0.322-1.489,0.917
				c-0.44,0.806-0.273,1.498,0.508,2.038c0.659,0.455,1.567,0.335,2.095-0.279c0.064-0.075,0.114-0.163,0.171-0.247
				c0.228,0.339,0.225,0.436-0.017,0.712c-0.559,0.64-1.657,0.718-2.441,0.174c-0.803-0.556-1.111-1.365-0.852-2.225
				c0.264-0.875,1.027-1.478,1.921-1.519c0.872-0.04,1.662,0.473,1.946,1.375C198.871,89.092,199.268,90.558,199.689,92.015z"/>
			<path fill-rule="evenodd" clip-rule="evenodd" fill="#686F69" d="M203.623,109.425c-0.194-1.424-0.399-2.845-0.602-4.286
				c-0.178,0.049-0.349,0.096-0.542,0.149c-0.162-1.059-0.329-2.083-0.463-3.112c-0.02-0.155,0.118-0.331,0.176-0.479
				c-0.841-0.09-1.362,0.099-1.983,0.796c0.186-0.047,0.319-0.081,0.497-0.126c0.152,1.125,0.304,2.219,0.443,3.315
				c0.014,0.105-0.03,0.223-0.069,0.327c-0.123,0.332-0.258,0.661-0.419,1.066c-0.445-0.173-0.972-0.345-1.466-0.583
				c-0.176-0.084-0.359-0.305-0.4-0.494c-1.069-4.982-2.123-9.968-3.178-14.954c-0.031-0.149-0.051-0.302-0.085-0.508
				c1.002,0.354,1.861,0.319,2.629-0.441c0.146,0.554,0.294,1.052,0.4,1.558c0.027,0.132,0.446,1.771,0.607,2.576
				c0.034-0.01,0.065-0.021,0.106-0.021c0.499,0.001,1.007,0.006,1.509,0.047c-0.176-0.607-0.769-2.575-0.806-2.7
				c-0.421-1.413-0.781-2.849-1.285-4.232c-0.454-1.247-1.749-1.804-2.952-1.422c-1.248,0.396-1.949,1.578-1.693,2.884
				c0.605,3.093,1.269,6.176,1.819,9.28c0.569,3.211,1.493,6.357,1.683,9.644c0.058,1.014,0.448,2.028,0.8,3
				c0.153,0.421,0.538,0.812,0.91,1.091c0.812,0.61,1.717,0.486,2.643,0.215C203.318,111.603,203.824,110.888,203.623,109.425z
				 M194.546,87.788c0.264-0.875,1.027-1.478,1.921-1.519c0.872-0.04,1.662,0.473,1.946,1.375c0.458,1.448,0.854,2.914,1.276,4.371
				c-0.452,0.196-0.616,0.071-0.711-0.312c-0.306-1.236-0.635-2.466-0.971-3.694c-0.201-0.734-0.779-1.27-1.437-1.31
				c-0.695-0.042-1.165,0.322-1.489,0.917c-0.44,0.806-0.273,1.498,0.508,2.038c0.659,0.455,1.567,0.335,2.095-0.279
				c0.064-0.075,0.114-0.163,0.171-0.247c0.228,0.339,0.225,0.436-0.017,0.712c-0.559,0.64-1.657,0.718-2.441,0.174
				C194.595,89.457,194.286,88.647,194.546,87.788z M197.592,88.544c-0.159,0.59-0.831,0.995-1.398,0.844
				c-0.637-0.168-1.017-0.706-0.885-1.25c0.167-0.689,0.796-1.101,1.427-0.93C197.317,87.365,197.735,88.016,197.592,88.544z
				 M197.828,105.986c-0.872-4.442-1.748-8.882-2.623-13.324c-0.162-0.82-0.329-1.639-0.495-2.458
				c0.057-0.027,0.112-0.056,0.169-0.083c0.112,0.201,0.282,0.388,0.329,0.603c0.405,1.833,0.786,3.671,1.178,5.507
				c0.695,3.261,1.393,6.524,2.087,9.785c0.03,0.144,0.038,0.292,0.056,0.433C197.956,106.753,197.903,106.37,197.828,105.986z
				 M200.655,110.259c-0.431,0.059-0.663-0.277-0.761-0.65c-0.037-0.141,0.031-0.373,0.136-0.475
				c0.286-0.276,0.618-0.505,1.021-0.823c0.062,0.439,0.143,0.799,0.154,1.161C201.219,109.851,201.057,110.205,200.655,110.259z"/>
		</g>
	</g>
</g>
</svg>
