<?xml version="1.0" encoding="utf-8"?>
<!-- Generator: Adobe Illustrator 16.0.0, SVG Export Plug-In . SVG Version: 6.00 Build 0)  -->
<!DOCTYPE svg PUBLIC "-//W3C//DTD SVG 1.1//EN" "http://www.w3.org/Graphics/SVG/1.1/DTD/svg11.dtd">
<svg version="1.1" id="Capa_1" xmlns="http://www.w3.org/2000/svg" xmlns:xlink="http://www.w3.org/1999/xlink" x="0px" y="0px"
	 width="250px" height="250px" viewBox="0 0 250 250" enable-background="new 0 0 250 250" xml:space="preserve">
<g>
	<g opacity="0.3">
		<path opacity="0.5" fill="#83807C" d="M206.202,106.553c10.778,10.779,10.778,28.26,0,39.044L145.194,206.6
			c-10.778,10.784-28.26,10.784-39.044,0l-61.002-61.002c-10.784-10.784-10.784-28.266,0-39.044l61.002-61.007
			c10.784-10.779,28.266-10.779,39.044,0L206.202,106.553z"/>
	</g>
	<g>
		<path fill="#CA3831" d="M204.856,104.402c10.779,10.784,10.779,28.261,0,39.05l-61.008,60.997
			c-10.778,10.784-28.26,10.784-39.044,0l-61.002-60.997c-10.784-10.789-10.784-28.266,0-39.05L104.805,43.4
			c10.784-10.784,28.266-10.784,39.044,0L204.856,104.402z"/>
		<path fill="none" stroke="#FFFFFF" stroke-width="0.4887" stroke-miterlimit="10" d="M199.529,105.693
			c10.069,10.069,10.069,26.395,0,36.458l-56.971,56.971c-10.063,10.069-26.395,10.069-36.458,0l-56.971-56.971
			c-10.069-10.063-10.069-26.39,0-36.458L106.1,48.727c10.064-10.069,26.395-10.069,36.458,0L199.529,105.693z"/>
		<path fill="none" stroke="#FFFFFF" stroke-width="0.5542" stroke-miterlimit="10" d="M83.062,147.233c0,0.415,0,13.89,0,13.89"/>
		<path fill="none" stroke="#FFFFFF" stroke-width="0.5542" stroke-miterlimit="10" d="M84.712,147.233c0,0.415,0,13.89,0,13.89"/>
		<path fill="none" stroke="#FFFFFF" stroke-width="0.5542" stroke-miterlimit="10" d="M96.537,147.233c0,0.415,0,13.89,0,13.89"/>
		<path fill="none" stroke="#FFFFFF" stroke-width="0.5542" stroke-miterlimit="10" d="M98.188,147.233c0,0.415,0,13.89,0,13.89"/>
		<path fill="none" stroke="#FFFFFF" stroke-width="0.5542" stroke-miterlimit="10" d="M103.649,147.233c0,0.415,0,13.89,0,13.89"/>
		<path fill="none" stroke="#FFFFFF" stroke-width="0.5542" stroke-miterlimit="10" d="M105.305,147.233c0,0.415,0,13.89,0,13.89"/>
		<path fill="none" stroke="#FFFFFF" stroke-width="0.5542" stroke-miterlimit="10" d="M129.229,147.233c0,0.415,0,13.89,0,13.89"/>
		<path fill="none" stroke="#FFFFFF" stroke-width="0.5542" stroke-miterlimit="10" d="M130.885,147.233c0,0.415,0,13.89,0,13.89"/>
		<path fill="none" stroke="#FFFFFF" stroke-width="0.4862" stroke-miterlimit="10" d="M103.459,149.639c0.23,0,7.803,0,7.803,0"/>
		<path fill="none" stroke="#FFFFFF" stroke-width="0.4862" stroke-miterlimit="10" d="M103.459,147.988c0.23,0,7.803,0,7.803,0"/>
		<path fill="none" stroke="#FFFFFF" stroke-width="0.4862" stroke-miterlimit="10" d="M103.819,146.733
			c0.225-0.065,7.523-2.081,7.523-2.081"/>
		<path fill="none" stroke="#FFFFFF" stroke-width="0.4862" stroke-miterlimit="10" d="M103.379,145.138
			c0.22-0.061,7.522-2.076,7.522-2.076"/>
		<path fill="none" stroke="#FFFFFF" stroke-width="0.4862" stroke-miterlimit="10" d="M103.459,160.368c0.23,0,7.803,0,7.803,0"/>
		<path fill="none" stroke="#FFFFFF" stroke-width="0.4862" stroke-miterlimit="10" d="M103.459,158.718c0.23,0,7.803,0,7.803,0"/>
		<path fill="none" stroke="#FFFFFF" stroke-width="0.422" stroke-miterlimit="10" d="M103.459,155.456c0.175,0,5.882,0,5.882,0"/>
		<path fill="none" stroke="#FFFFFF" stroke-width="0.422" stroke-miterlimit="10" d="M103.459,153.806c0.175,0,5.882,0,5.882,0"/>
		<path fill="none" stroke="#FFFFFF" stroke-width="0.5542" stroke-miterlimit="10" d="M82.812,148.818
			c0.23,0.346,7.593,11.625,7.593,11.625"/>
		<path fill="none" stroke="#FFFFFF" stroke-width="0.5542" stroke-miterlimit="10" d="M84.192,147.913
			c0.23,0.346,7.598,11.63,7.598,11.63"/>
		<path fill="none" stroke="#FFFFFF" stroke-width="0.5905" stroke-miterlimit="10" d="M114.988,148.898
			c0.235,0.351,7.818,11.965,7.818,11.965"/>
		<path fill="none" stroke="#FFFFFF" stroke-width="0.5905" stroke-miterlimit="10" d="M116.514,147.903
			c0.23,0.355,7.812,11.97,7.812,11.97"/>
		<path fill="none" stroke="#FFFFFF" stroke-width="0.5542" stroke-miterlimit="10" d="M97.452,148.818
			c-0.23,0.346-7.593,11.625-7.593,11.625"/>
		<path fill="none" stroke="#FFFFFF" stroke-width="0.5542" stroke-miterlimit="10" d="M96.066,147.913
			c-0.225,0.346-7.593,11.63-7.593,11.63"/>
		<path fill="none" stroke="#FFFFFF" stroke-width="0.5905" stroke-miterlimit="10" d="M124.692,148.594
			c-0.255,0.37-8.603,12.484-8.603,12.484"/>
		<path fill="none" stroke="#FFFFFF" stroke-width="0.5905" stroke-miterlimit="10" d="M123.227,147.693
			c-0.255,0.37-8.598,12.479-8.598,12.479"/>
		<path fill="none" stroke="#FFFFFF" stroke-width="0.5542" stroke-miterlimit="10" d="M141.873,147.788c0,0-6.417-0.2-6.157,6.843
			c0,0-0.56,6.902,6.107,6.492"/>
		<path fill="none" stroke="#FFFFFF" stroke-width="0.5542" stroke-miterlimit="10" d="M141.918,149.639
			c0,0-4.637-0.145-4.446,4.947c0,0-0.405,4.992,4.412,4.691"/>
		<g>
			<path fill="none" stroke="#FFFFFF" stroke-width="0.5542" stroke-miterlimit="10" d="M150.661,147.873
				c-6.627,1.051-7.202,12.896-0.01,13.255"/>
			<path fill="none" stroke="#FFFFFF" stroke-width="0.5542" stroke-miterlimit="10" d="M150.672,149.764
				c-4.367,0.961-4.792,9.023,0.06,9.499"/>
		</g>
		<path fill="none" stroke="#FFFFFF" stroke-width="0.5542" stroke-miterlimit="10" d="M151.441,147.858
			c3.651,0.53,5.258,3.446,5.212,6.938c-0.04,3.206-1.545,6.152-5.106,6.332"/>
		<path fill="none" stroke="#FFFFFF" stroke-width="0.5542" stroke-miterlimit="10" d="M151.527,149.764
			c4.366,0.961,4.791,9.023-0.065,9.499"/>
		<path fill="none" stroke="#FFFFFF" stroke-width="0.4887" stroke-miterlimit="10" d="M160.73,132.317c0,0,0.455-6.887-0.726-6.512
			c-1.176,0.38-15.186,1.7-15.186,1.7"/>
		<path fill="none" stroke="#FFFFFF" stroke-width="0.4887" stroke-miterlimit="10" d="M84.077,134.309l0.2-5.877
			c0,0,23.193-1.011,23.229-0.65"/>
		<path fill="none" stroke="#FFFFFF" stroke-width="0.4887" stroke-miterlimit="10" d="M88.904,127.301l0.15-4.162
			c0,0,17.592-0.87,20.163-0.795"/>
		<path fill="none" stroke="#FFFFFF" stroke-width="0.4887" stroke-miterlimit="10" d="M91.945,122.814
			c-0.095-0.846-0.25-5.462,0.355-5.532c0.6-0.065,19.187-0.805,19.187-0.805"/>
		<polyline fill="none" stroke="#FFFFFF" stroke-width="0.4887" stroke-miterlimit="10" points="156.869,125.06 156.344,120.358 
			142.604,121.899 		"/>
		<polyline fill="none" stroke="#FFFFFF" stroke-width="0.4887" stroke-miterlimit="10" points="153.147,120.108 152.683,116.012 
			140.548,116.642 		"/>
		<polyline fill="none" stroke="#FFFFFF" stroke-width="0.4887" stroke-miterlimit="10" points="95.691,115.927 96.191,111.72 
			113.293,111.88 		"/>
		<path fill="none" stroke="#FFFFFF" stroke-width="0.4887" stroke-miterlimit="10" d="M150.557,115.517l-0.53-4.702
			c0,0-10.579,1.43-10.964,1.23"/>
		<polyline fill="none" stroke="#FFFFFF" stroke-width="0.4887" stroke-miterlimit="10" points="99.272,110.885 100.338,107.354 
			114.143,107.519 		"/>
		<path fill="none" stroke="#FFFFFF" stroke-width="0.4887" stroke-miterlimit="10" d="M147.62,111.085c0,0-1.186-4.017-1.105-4.392
			c0.08-0.37-9.644-0.015-9.644-0.015"/>
		<polyline fill="none" stroke="#FFFFFF" stroke-width="0.4887" stroke-miterlimit="10" points="102.974,105.838 103.244,102.757 
			115.824,102.872 		"/>
		<path fill="none" stroke="#FFFFFF" stroke-width="0.4887" stroke-miterlimit="10" d="M106.495,102.392l0.175-2.826
			c0,0,7.027-0.42,10.429-0.555"/>
		<polyline fill="none" stroke="#FFFFFF" stroke-width="0.4887" stroke-miterlimit="10" points="143.929,105.883 143.644,103.357 
			135.892,103.372 		"/>
		<polyline fill="none" stroke="#FFFFFF" stroke-width="0.4887" stroke-miterlimit="10" points="141.503,102.251 140.112,99.601 
			134.336,99.271 		"/>
		<path fill="none" stroke="#FFFFFF" stroke-width="0.4887" stroke-miterlimit="10" d="M137.712,98.896
			c-0.095-0.845,0.075-3.671-0.525-3.602c-0.605,0.07-4.302-0.25-4.302-0.25"/>
		<path fill="none" stroke="#FFFFFF" stroke-width="0.4887" stroke-miterlimit="10" d="M109.867,97.62l-0.31-2.771
			c0,0,8.638-0.235,8.278-0.195"/>
		<polyline fill="none" stroke="#FFFFFF" stroke-width="0.4887" stroke-miterlimit="10" points="112.692,94.499 113.323,91.373 
			118.45,91.413 		"/>
		<path fill="none" stroke="#FFFFFF" stroke-width="0.4887" stroke-miterlimit="10" d="M122.406,91.888
			c0,0-13.36,44.142-13.92,44.571c-0.565,0.431-3.311-0.12-3.311-0.12s13.995-42.811,14.02-44.766
			C119.195,91.573,121.536,91.798,122.406,91.888z"/>
		<path fill="none" stroke="#FFFFFF" stroke-width="0.4887" stroke-miterlimit="10" d="M128.599,92.718
			c0,0,13.12,44.167,13.404,44.501c0.28,0.335,5.367-0.596,5.367-0.596l-16.121-44.206L128.599,92.718z"/>
		<path fill="none" stroke="#FFFFFF" stroke-width="0.4887" stroke-miterlimit="10" d="M135.076,94.188l-0.24-2.17l-2.986,0.335
			l-0.726-6.507l1.726,0.17l0.871-2.066l-1.086,0.12l0.375-2.101c-4.812-1.536-17.411-0.73-17.937-1.041
			c-0.52-0.305,0.28,2.496,0.28,2.496s-0.8,0.49-0.84,0.13c-0.04-0.36,0.15,1.936,0.15,1.936l0.911-0.1c0,0-0.655,5.072-0.205,5.757
			"/>
		<path fill="none" stroke="#FFFFFF" stroke-width="0.4887" stroke-miterlimit="10" d="M109.827,137.045
			c0.09,0.234,21.587,0.955,30.116,0.564"/>
		<path fill="none" stroke="#FFFFFF" stroke-width="0.4887" stroke-miterlimit="10" d="M110.597,134.634
			c0.32-0.4,23.389,1.815,27.83,1.175"/>
		<path fill="none" stroke="#FFFFFF" stroke-width="0.4887" stroke-miterlimit="10" d="M111.142,131.893
			c0,0,25.429,1.436,27.48,1.28"/>
		<path fill="none" stroke="#FFFFFF" stroke-width="0.4887" stroke-miterlimit="10" d="M113.003,129.972
			c0,0,23.608,0.53,24.829,0.516"/>
		
			<line fill="none" stroke="#FFFFFF" stroke-width="0.4887" stroke-miterlimit="10" x1="113.223" y1="127.571" x2="136.021" y2="128.486"/>
		
			<line fill="none" stroke="#FFFFFF" stroke-width="0.4887" stroke-miterlimit="10" x1="114.158" y1="125.085" x2="136.301" y2="125.53"/>
		
			<line fill="none" stroke="#FFFFFF" stroke-width="0.4887" stroke-miterlimit="10" x1="114.283" y1="122.874" x2="135.481" y2="123.674"/>
		<path fill="none" stroke="#FFFFFF" stroke-width="0.4887" stroke-miterlimit="10" d="M115.563,120.168
			c0,0,18.712,1.44,19.678,1.34"/>
		<path fill="none" stroke="#FFFFFF" stroke-width="0.4887" stroke-miterlimit="10" d="M116.304,118.013
			c0,0,14.355,1.806,18.127,1.75"/>
		<path fill="none" stroke="#FFFFFF" stroke-width="0.4887" stroke-miterlimit="10" d="M117.274,115.827
			c0.23-0.145,16.836,1.045,16.836,1.045"/>
		
			<line fill="none" stroke="#FFFFFF" stroke-width="0.4887" stroke-miterlimit="10" x1="117.879" y1="113.606" x2="131.995" y2="114.666"/>
		
			<line fill="none" stroke="#FFFFFF" stroke-width="0.4887" stroke-miterlimit="10" x1="118.505" y1="111.54" x2="131.79" y2="112.86"/>
		
			<line fill="none" stroke="#FFFFFF" stroke-width="0.4887" stroke-miterlimit="10" x1="119.515" y1="109.599" x2="131.534" y2="110.57"/>
		<path fill="none" stroke="#FFFFFF" stroke-width="0.4887" stroke-miterlimit="10" d="M119.29,107.549
			c0.71-0.08,11.989,0.73,11.989,0.73"/>
		<path fill="none" stroke="#FFFFFF" stroke-width="0.4887" stroke-miterlimit="10" d="M120.041,105.633
			c0.225-0.145,10.939-0.005,10.939-0.005"/>
		
			<line fill="none" stroke="#FFFFFF" stroke-width="0.4887" stroke-miterlimit="10" x1="120.996" y1="103.817" x2="130.794" y2="103.942"/>
		
			<line fill="none" stroke="#FFFFFF" stroke-width="0.4887" stroke-miterlimit="10" x1="121.491" y1="102.237" x2="129.669" y2="102.237"/>
		<path fill="none" stroke="#FFFFFF" stroke-width="0.4887" stroke-miterlimit="10" d="M122.036,100.041c0,0,6.817,0.455,7.442,0.51
			c0.615,0.055-0.625-0.055-0.625-0.055"/>
		
			<line fill="none" stroke="#FFFFFF" stroke-width="0.4887" stroke-miterlimit="10" x1="122.101" y1="98.45" x2="128.519" y2="98.525"/>
		<path fill="none" stroke="#FFFFFF" stroke-width="0.4887" stroke-miterlimit="10" d="M128.358,97.135c0,0-4.802-0.07-5.312,0.105"
			/>
		<path fill="none" stroke="#FFFFFF" stroke-width="0.4887" stroke-miterlimit="10" d="M120.55,91.703c0,0-0.1-4.207,0.5-3.711
			c0.605,0.495,8.698,0.831,8.698,0.831l-0.226,3.786"/>
		<path fill="none" stroke="#FFFFFF" stroke-width="0.4887" stroke-miterlimit="10" d="M93.355,128.876l-0.96,4.502
			c0,0-5.692-0.7-6.632-0.35"/>
		<polyline fill="none" stroke="#FFFFFF" stroke-width="0.4887" stroke-miterlimit="10" points="101.668,127.946 100.588,132.458 
			95.166,133.068 		"/>
		<path fill="none" stroke="#FFFFFF" stroke-width="0.4887" stroke-miterlimit="10" d="M94.941,123.455
			c0.16,0.345-0.56,2.625-0.56,2.625l-3.852,0.431"/>
		<polyline fill="none" stroke="#FFFFFF" stroke-width="0.4887" stroke-miterlimit="10" points="102.134,123.379 101.028,126.556 
			96.792,125.811 		"/>
		<path fill="none" stroke="#FFFFFF" stroke-width="0.4887" stroke-miterlimit="10" d="M104.259,117.282c0,0-0.56,3.727-1.305,3.566
			c-0.755-0.155-3.861,0.43-3.861,0.43"/>
		<polyline fill="none" stroke="#FFFFFF" stroke-width="0.4887" stroke-miterlimit="10" points="98.202,117.132 97.352,120.988 
			92.53,121.534 		"/>
		<path fill="none" stroke="#FFFFFF" stroke-width="0.4887" stroke-miterlimit="10" d="M101.579,111.77c0,0-1.271,2.906-1.361,3.221
			c-0.085,0.315-3.491,0.396-3.491,0.396"/>
		<polyline fill="none" stroke="#FFFFFF" stroke-width="0.4887" stroke-miterlimit="10" points="106.255,112.245 105.09,114.876 
			101.958,115.227 		"/>
		<polyline fill="none" stroke="#FFFFFF" stroke-width="0.4887" stroke-miterlimit="10" points="100.648,110.125 103.484,110.354 
			105.21,107.289 		"/>
		<polyline fill="none" stroke="#FFFFFF" stroke-width="0.4887" stroke-miterlimit="10" points="105.395,109.995 108.226,110.225 
			109.957,107.153 		"/>
		<path fill="none" stroke="#FFFFFF" stroke-width="0.4887" stroke-miterlimit="10" d="M103.509,105.168c0.615,0.05,2,0.385,2,0.385
			l1.636-1.706"/>
		<path fill="none" stroke="#FFFFFF" stroke-width="0.4887" stroke-miterlimit="10" d="M105.24,126.085
			c0.355-0.165,3.336-0.215,3.336-0.215"/>
		<path fill="none" stroke="#FFFFFF" stroke-width="0.4887" stroke-miterlimit="10" d="M103.024,132.117
			c0.345-0.159,3.332-0.215,3.332-0.215"/>
		<polyline fill="none" stroke="#FFFFFF" stroke-width="0.4887" stroke-miterlimit="10" points="154.773,127.006 155.974,131.232 
			160.806,130.692 		"/>
		<polyline fill="none" stroke="#FFFFFF" stroke-width="0.4887" stroke-miterlimit="10" points="146.39,127.886 147.596,131.588 
			152.362,131.633 		"/>
		<polyline fill="none" stroke="#FFFFFF" stroke-width="0.4887" stroke-miterlimit="10" points="143.689,121.744 144.574,125.335 
			148.876,125.315 		"/>
		<polyline fill="none" stroke="#FFFFFF" stroke-width="0.4887" stroke-miterlimit="10" points="151.182,121.099 152.438,124.46 
			155.714,124.545 		"/>
		<polyline fill="none" stroke="#FFFFFF" stroke-width="0.4887" stroke-miterlimit="10" points="142.009,116.562 142.844,119.678 
			145.89,120.008 		"/>
		<polyline fill="none" stroke="#FFFFFF" stroke-width="0.4887" stroke-miterlimit="10" points="148.226,116.507 149.336,119.928 
			151.867,119.338 		"/>
		<polyline fill="none" stroke="#FFFFFF" stroke-width="0.4887" stroke-miterlimit="10" points="139.982,111.54 141.093,115.231 
			143.574,114.957 		"/>
		<polyline fill="none" stroke="#FFFFFF" stroke-width="0.4887" stroke-miterlimit="10" points="145.689,111.22 146.811,114.921 
			149.286,114.641 		"/>
		<polyline fill="none" stroke="#FFFFFF" stroke-width="0.4887" stroke-miterlimit="10" points="138.492,106.983 139.212,110.625 
			142.398,110.27 		"/>
		<polyline fill="none" stroke="#FFFFFF" stroke-width="0.4887" stroke-miterlimit="10" points="143.489,106.914 144.39,110.044 
			146.62,109.794 		"/>
		<polyline fill="none" stroke="#FFFFFF" stroke-width="0.4887" stroke-miterlimit="10" points="136.762,103.757 136.962,105.568 
			139.338,105.793 		"/>
		<path fill="none" stroke="#FFFFFF" stroke-width="0.4887" stroke-miterlimit="10" d="M112.037,102.837
			c-0.075,0-1.035,2.831-1.035,2.831l-2.776,0.19"/>
		<polyline fill="none" stroke="#FFFFFF" stroke-width="0.4887" stroke-miterlimit="10" points="113.703,99.17 113.003,101.667 
			110.582,101.932 		"/>
		<polyline fill="none" stroke="#FFFFFF" stroke-width="0.4887" stroke-miterlimit="10" points="109.602,99.631 109.081,101.491 
			107.751,101.642 		"/>
		<polyline fill="none" stroke="#FFFFFF" stroke-width="0.4887" stroke-miterlimit="10" points="113.698,94.744 112.998,97.27 
			111.007,96.885 		"/>
		<polyline fill="none" stroke="#FFFFFF" stroke-width="0.4887" stroke-miterlimit="10" points="117.229,94.654 116.069,98.01 
			114.688,98.165 		"/>
		<polyline fill="none" stroke="#FFFFFF" stroke-width="0.4887" stroke-miterlimit="10" points="134.36,95.159 134.65,97.725 
			136.711,97.605 		"/>
		<path fill="none" stroke="#FFFFFF" stroke-width="0.4887" stroke-miterlimit="10" d="M110.287,111.79
			c-0.285,0.06-1.085,2.791-1.085,2.791l2.851,0.49"/>
		
			<line fill="none" stroke="#FFFFFF" stroke-width="0.4887" stroke-miterlimit="10" x1="107.105" y1="120.383" x2="109.901" y2="120.804"/>
		
			<line fill="none" stroke="#FFFFFF" stroke-width="0.4887" stroke-miterlimit="10" x1="115.574" y1="85.391" x2="131.124" y2="85.846"/>
		
			<line fill="none" stroke="#FFFFFF" stroke-width="0.4887" stroke-miterlimit="10" x1="115.354" y1="83.425" x2="132.635" y2="84.07"/>
		
			<line fill="none" stroke="#FFFFFF" stroke-width="0.4887" stroke-miterlimit="10" x1="122.036" y1="93.098" x2="128.868" y2="93.624"/>
		<polyline fill="none" stroke="#FFFFFF" stroke-width="0.4887" stroke-miterlimit="10" points="116.514,91.573 115.954,93.358 
			114.158,93.624 		"/>
	</g>
</g>
</svg>
