<?xml version="1.0" encoding="utf-8"?>
<!-- Generator: Adobe Illustrator 16.0.0, SVG Export Plug-In . SVG Version: 6.00 Build 0)  -->
<!DOCTYPE svg PUBLIC "-//W3C//DTD SVG 1.1//EN" "http://www.w3.org/Graphics/SVG/1.1/DTD/svg11.dtd">
<svg version="1.1" id="Capa_1" xmlns="http://www.w3.org/2000/svg" xmlns:xlink="http://www.w3.org/1999/xlink" x="0px" y="0px"
	 width="250px" height="250px" viewBox="0 0 250 250" enable-background="new 0 0 250 250" xml:space="preserve">
<g>
	<g>
		<path fill="#209255" d="M70.419,144.819c0,30.146,24.439,54.581,54.578,54.581l0,0c30.145,0,54.584-24.436,54.584-54.581v-39.641
			c0-30.144-24.439-54.579-54.584-54.579l0,0c-30.138,0-54.578,24.436-54.578,54.579V144.819z"/>
		
			<path fill="none" stroke="#FFFFFF" stroke-width="0.8194" stroke-linecap="round" stroke-linejoin="round" stroke-miterlimit="10" stroke-dasharray="1.6433" d="
			M72.465,144.075c0,29.015,23.524,52.531,52.531,52.531l0,0c29.014,0,52.535-23.517,52.535-52.531v-38.151
			c0-29.015-23.521-52.531-52.535-52.531l0,0c-29.007,0-52.531,23.517-52.531,52.531V144.075z"/>
		
			<path fill="none" stroke="#FFFFFF" stroke-width="0.8194" stroke-linecap="round" stroke-linejoin="round" stroke-miterlimit="10" d="
			M153.219,123.443c0.309,0.307,3.28,2.869,4.507,2.458c1.23-0.409,2.458-9.32,3.074-11.881c0.61-2.561,3.482-6.646,3.482-7.17
			c0-0.512-2.461,0.204-2.872,1.229c0,0,2.563-3.277,1.337-2.767c-1.23,0.516-2.461,1.742-2.461,1.742s1.024-3.07,0.309-2.559
			c-0.72,0.511-2.152,3.38-2.458,3.38c-0.308,0-2.662-1.334-1.946,0.103c0.717,1.433,2.046,2.664,1.946,3.379
			c-0.103,0.718-0.291,9.468-1.315,9.568c-1.021,0.104-2.475-0.964-3.603-1.578C152.092,118.731,153.219,123.443,153.219,123.443z"
			/>
		
			<path fill="none" stroke="#FFFFFF" stroke-width="0.8194" stroke-linecap="round" stroke-linejoin="round" stroke-miterlimit="10" d="
			M123.42,119.636l5.936-2.236l-0.716,5.429c0,0-6.491,3.146-7.903,3.673"/>
		<path fill="none" d="M107.179,156.958c-0.089,0.974,0.572,1.796,1.58,1.766c-1.08,0.579-0.333,0.963-0.274,1.617
			c0.048,0.534,0.086,2.269,1.052,2.111c-1.429,0.895-0.641,3.753,0.645,4.448c0.007,0.024,0.178-0.354,0.154-0.329
			c-0.648,0.641-0.463,1.484,0.542,1.501c-0.223,0.97-0.607,4.407,1.045,4.092c-0.356,1.237,1.604,2.509,1.33,0.949
			c-0.716,1.652,2.728,2.115,2.228,0.113c-0.74,2.163,1.244,2.824,2.193,0.823c-0.185,0.445-0.408,0.384-0.744,0.641"/>
		
			<path fill="#FFFFFF" stroke="#FFFFFF" stroke-width="0.8194" stroke-linecap="round" stroke-linejoin="round" stroke-miterlimit="10" d="
			M105.435,130.98c-0.785-1.121-2.903-1.217-2.879,0.511c-0.836-0.768-2.821-0.898-2.906,0.586
			c-0.165-3.201-3.715-1.094-4.198,0.809c-1.402-1.837-4.688,0.134-3.78,2.221c-1.864-1.449-6.076,0.747-3.526,2.454
			c-2.204-2.094-2.313,2.581-1.546,3.773c-2.197-0.521-2.481,2.67-1.223,3.79c-2.365-0.391-0.459,2.536,0.51,3.04
			c-0.932,0.874,0.597,1.521,1.364,1.868c-1.847,0.188-0.494,2.861,0.504,3.365c-2.721-0.542-0.429,2.731,0.291,3.438
			c-2.083-0.113-0.497,2.152,0.322,2.684c-2.262-0.302-0.662,2.073-0.62,3.009c0.055,1.131-1.628,3.245,0.524,3.496
			c-1.511,0.411-0.939,2.282,0.196,2.789c-0.898,0.662-0.538,1.81,0.432,2.193c-1.234,0.483-0.675,1.841,0.401,2.125
			c-0.36,0.942,0.771,1.553,1.409,0.788c-0.49,1.491,1.837,2.485,2.474,1.053c0.161,2.344,3.667-0.61,1.648-1.512
			c1.553-0.206,0.473-2.389-0.391-2.79c0.658-0.291,0.843-0.692,0.401-1.106c0.576-0.706,0.253-1.457-0.651-1.673
			c0.74-0.555,0.603-1.237-0.329-1.36c-0.662-1.607,1.799-3.245-1-4.301c1.158-0.202,1.158-1.725,0.109-2.122
			c0.939,0.124,1.357-0.65,0.579-1.024c0.662-0.597,0.333-0.309,0.425-0.98c0.236-0.048,0.288,0.004,0.326-0.26
			c0.349-0.076,0.497-0.397,0-0.971c1.127,0.195,1.275-0.963,0.542-1.579c0.805,0.171,1.233-0.09,1.045-0.881
			c-0.041,0.103-0.041,0.202-0.01,0.309c0.404-0.412,0.442-0.497,0.757-0.96c0.617,0.72,1.604,0.723,2.218-0.004
			c0.202,1.046,1.364,1.159,1.72,0.141c0.298,1.392,2.234,1.546,1.748-0.103c0.497,1.556,2.868,1.326,2.008-0.367
			c1.031,2.39,2.875-1.065,2.79-2.244c-0.185,2.748,1.769,1.943,2.228-0.106c0.36,1.991,2.725,2.454,2.701,0.007
			c0.438,2.05,2.056,0.819,1.984-0.74c0.25,0.411,0.397,0.521,0.658,0.812c-0.874-0.96-1.374,2.7-0.802,3.475
			c-0.771,0.312-0.651,1.351-0.106,1.975c-0.901,0.497-0.85,1.785,0.343,1.939c-0.867,0.792-0.576,1.978,0.017,2.868
			c-0.137,0.052-0.281-0.021-0.425,0.014c-0.329,0.699-0.038,1.148,0.645,1.3c-1.213,0.568-0.662,1.905,0.421,2.244
			c-1.604,0.538-0.292,1.693,0.559,2.149c-1.381,0.105-1.179,2.083-0.336,2.813c-0.809,0.856-0.912,2.594,0.463,1.765
			c-1.069,0.576-0.85,2.488,0.572,2.454c-1.546,1.857,0.888,2.718,1.792,0.792c-0.315,1.819,2.323,1.597,2.56-0.124
			c0.613,1.135,2.046-0.363,2.039-1.336c-0.007-0.923-0.922-1.964-1.361-0.901c1.799,0.527,0.84-2.814-0.312-3.362
			c0.781-0.236,1.189-1.145,0.428-1.556c0.816-0.789,1.59-2.742-0.079-2.79c1.021-0.014,1.33-1.278,0.764-1.981
			c1.46-0.167,1.011-2.344-0.404-2.234c0.843-0.339,1.614-1.971,0.624-2.371c1.035-1.035,0.154-3.732-1.248-2.677
			c0.998-0.322,1.265-2.313,0.576-2.868c0.778-0.782,0.782-2.272-0.332-2.667c1.292,0.418,1.617-1.106,0.617-1.696
			c-0.024-0.014,0.161-0.168,0.124-0.223c-0.418,0.011-0.422-0.154-0.744-0.014c1.028-0.312,0.86-1.916,0.651-2.759
			c-0.288,0.055-0.606-0.059-0.898,0.021c0.504-0.367,0.689-1.024,0.367-1.478c0.35-0.609,0.209-0.977-0.329-1.336
			c0.244-0.494,0.124-1.019,0.165-1.549c-0.099,0.089-0.305,0.182-0.415,0.298c0.058,0.044,0.124,0.048,0.185,0.021
			c-0.021-0.227,0.041-0.901,0.065-1.128c0.168-0.014,0.36-0.01,0.528-0.021c0.202-0.713,0.23-1.419-0.253-1.874
			c-0.083,0.007-0.083,0.01,0.003,0.017c-0.103-0.394,0.195-0.418-0.329-0.781c0.864-0.569,0.956-1.806,0.031-2.365
			c0.188,0.011,0.446-0.027,0.631,0c-0.1-0.719-0.017-0.856-0.668-1.096c-0.082,0-0.082,0,0,0.007
			c0.483-0.538,0.528-1.083-0.11-1.348c0.459-0.298,0.442-0.665,0.274-1.22c0.617-0.579,0.367-1.282-0.453-1.566
			c0.531-0.359,0.682-0.949,0.425-1.553c-0.014,0.027-0.415-0.068-0.257-0.003c1.021-0.35,0.74-1.785-0.343-1.905
			c-0.171,0.037,0.388-0.021,0.384-0.024c-0.024-0.572,0.209-0.918-0.089-1.421c0.973-0.389,0.843-1.925-0.356-1.653
			c0.243,0.509,0.062,0.327,0.638,0.529c0.332-1.061,0.017-2.079-0.884-2.588c0.576-0.622,0.593-0.797-0.209-1.054
			c2.608,1.287,3.993-0.716,5.257-2.354c1.076-1.388,4.394-5.672,0.106-5.048c-0.885-0.749-0.991-1.328-1.241-2.452
			c-0.165-0.747-0.658-3.614-1.683-2.35c0.49-1.169-0.617-1.737-1.422-0.985c-0.017-1.008-0.963-1.268-1.607-0.561
			c-0.668-0.618-2.666-2.464-2.878-0.394c-0.014-0.093-0.031-0.422-0.007-0.504c-0.713-0.193-1.196,0.281-1.344,0.985
			c-0.867-0.924-2.755-0.422-1.902,0.918c-0.072-0.236-0.223-0.389-0.305-0.577c-0.219,0.518-0.497,0.872-0.329,1.561
			c-0.301-0.091-0.74-0.409-0.977-0.643c0.452-0.865-2.409-4.642-3.434-4.311c-2.499,0.804,0.127,6.36,1.518,7.329
			c0.083-0.002,0.083-0.006,0-0.008c-1.254-0.183-3.352,1.262-1.847,2.331c-0.096-0.022-0.569-0.159-0.644-0.202
			c0.044,0.643-0.151,0.731,0.548,1.229c-1.207-0.002-1.207,1.183-0.36,1.849c-1.086-0.315-1.134,0.799-0.723,1.568
			c-0.877,0.43-0.593,1.317,0.096,1.842c0.048,0.115,0.154,0.64,0.202,0.759c-1.182-0.264-1.121,0.71-0.291,1.339
			c-0.754,0.541-0.634,1.479,0.113,1.955c-0.13,0.08-0.284-0.038-0.415,0.045c1.501,1.444-1.81,3.489,0.154,5.433
			C105.277,129.034,104.811,130.089,105.435,130.98z"/>
		
			<path fill="#FFFFFF" stroke="#FFFFFF" stroke-width="0.8194" stroke-linecap="round" stroke-linejoin="round" stroke-miterlimit="10" d="
			M121.957,104.066c0.422-0.486,1.872-0.738,2.536-0.934c-0.895,0.262,1.336,5.098-2.107,4.667
			C122.173,106.655,121.028,105.138,121.957,104.066z"/>
		<path fill="#219154" d="M109.382,126.086c1.083-0.301-0.216,1.087-0.377,1.189c-0.956,0.59-2.454,0.233-3.214-0.477
			c-2.591-2.413,1.607-6.361,4.236-5.168c1.377,0.623,0.367,1.692-0.757,1.778c1.618-0.61,1.528,0.995-0.13,1.232
			C110.777,124.229,110.691,125.727,109.382,126.086z"/>
		
			<path fill="none" stroke="#FFFFFF" stroke-width="0.8194" stroke-linecap="round" stroke-linejoin="round" stroke-miterlimit="10" d="
			M116.354,166.644"/>
		<g>
			
				<path fill="#E52251" stroke="#E52251" stroke-width="0.8194" stroke-linecap="round" stroke-linejoin="round" stroke-miterlimit="10" d="
				M95.965,106.383c4.458-1.34,6.131-7.248,4.236-10.703c-1.898-3.456-3.9-6.467-7.026-6.021c-3.119,0.447-8.808,7.581-8.808,7.581
				s1.008-0.443,2.234-0.334c1.227,0.111,10.141,16.609,10.59,17.948c0.446,1.338-1.004,3.456-1.004,3.456l7.245-4.904l-2.008,0.891
				C99.087,114.406,95.965,106.383,95.965,106.383z M89.275,94.787c0,0,3.568-4.347,6.244-2.452
				c2.673,1.896,4.126,6.464,3.232,9.029c-0.888,2.565-3.791,3.124-3.791,3.124L89.275,94.787z"/>
			
				<path fill="#E52251" stroke="#E52251" stroke-width="0.8194" stroke-linecap="round" stroke-linejoin="round" stroke-miterlimit="10" d="
				M113.241,91.667c0,0-0.332,3.9-2.224,4.346c-1.898,0.447-4.462-0.444-5.799-3.009l6.8-6.466c0,0-3.229-5.576-6.354-5.354
				c-3.122,0.225-5.24,2.677-5.463,5.02c0,0,1.004,9.364,4.791,11.26c3.794,1.896,6.467,1.896,8.03-0.225
				c1.56-2.118,2.118-5.908,2.118-5.908l1.004-0.891l-5.017,0.557L113.241,91.667z M104.773,91.667
				c-0.559-0.113-1.563-6.244-1.563-6.244s-0.668-1.004,1.337-2.452c2.008-1.451,5.799,3.567,5.799,3.567
				S105.328,91.774,104.773,91.667z"/>
			
				<path fill="#E52251" stroke="#E52251" stroke-width="0.8194" stroke-linecap="round" stroke-linejoin="round" stroke-miterlimit="10" d="
				M119.931,75.724c-3.229,2.341-3.341,4.234-3.341,4.234s-1.45-2.003-0.559-2.673l-4.904,3.899c0,0,2.563-1.335,3.235,0.225
				c0.665,1.562,7.468,12.821,5.795,14.826c-1.672,2.008-2.008,2.455-2.008,2.455l6.69-3.903c0,0-1.336,0.444-2.228-0.336
				c-0.895-0.779-5.686-14.046-5.686-14.046s2.45-4.123,5.35-3.901c0,0-2.45,2.34-0.781,3.901c1.672,1.562,4.459-0.111,4.123-1.784
				C125.284,76.951,123.167,73.381,119.931,75.724z"/>
			
				<path fill="#E52251" stroke="#E52251" stroke-width="0.8194" stroke-linecap="round" stroke-linejoin="round" stroke-miterlimit="10" d="
				M143.459,80.519c-0.895-0.447-2.009-5.799-2.458-7.138c-0.441-1.329-0.336-3.654,0.106-3.785
				c-0.343,0.097-4.537,1.23-4.229,1.335c0.332,0.11,1.559-0.113,1.895,1.448c0.336,1.56,1.56,5.354,0.336,6.801
				c-1.227,1.448-3.345,2.452-4.682,1.894c-1.343-0.555-3.567-6.91-3.348-7.579c0.226-0.668,0.226-1.449,0.226-1.449
				c-0.336,0.221-4.571,2.229-4.239,2.786c0.336,0.559,2.009-0.893,2.899,0.781c0.895,1.673,0.781,7.024,3.231,7.47
				c2.454,0.445,6.913-1.784,7.581-3.124c0,0,1.56,1.787,0.559,2.679c-0.743,0.663,2.081-1.14,3.444-1.971
				C144.411,80.767,143.952,80.765,143.459,80.519z"/>
			
				<path fill="#E52251" stroke="#E52251" stroke-width="0.8194" stroke-linecap="round" stroke-linejoin="round" stroke-miterlimit="10" d="
				M144.781,80.666c0.292-0.081,0.531-0.225,0.679-0.372C145.549,80.208,145.248,80.38,144.781,80.666z"/>
			
				<path fill="#E52251" stroke="#E52251" stroke-width="0.8194" stroke-linecap="round" stroke-linejoin="round" stroke-miterlimit="10" d="
				M141.114,69.593l-0.007,0.003C141.139,69.586,141.148,69.584,141.114,69.593z"/>
			
				<path fill="#E52251" stroke="#E52251" stroke-width="0.8194" stroke-linecap="round" stroke-linejoin="round" stroke-miterlimit="10" d="
				M136.991,65.912c0.22-0.11-2.008-1.001-2.008-1.001s-2.786,3.343-2.454,3.23C132.865,68.031,136.766,66.025,136.991,65.912z"/>
		</g>
		<g>
			<path fill="#219154" d="M121.165,111.03c0.017-0.32-0.319-0.238-0.542-0.233c-0.521,0.011-1.2,0.004-1.662,0.283
				c-0.236,0.143-0.185,0.32-0.209,0.568c0.171,0.02,0.343,0.093,0.497,0.024l0.024-0.115c-0.01,0.038-0.014,0.077-0.018,0.113
				c0.011-0.008,0.028-0.008,0.042-0.017c-0.01,0.012-0.031,0.027-0.048,0.034c-0.055,0.322-0.099,0.652-0.024,0.975
				c0.13,0.552,0.672,0.901,1.22,0.677c0.815-0.329,0.435-1.383,0.229-2.012C120.887,111.418,121.155,111.265,121.165,111.03z"/>
			
				<path fill="none" stroke="#FFFFFF" stroke-width="0.8194" stroke-linecap="round" stroke-linejoin="round" stroke-miterlimit="10" d="
				M119.249,111.673l-0.003,0.019c0,0,0.003-0.001,0.003-0.003c0.003-0.005,0.003-0.012,0.007-0.018
				C119.252,111.673,119.249,111.673,119.249,111.673z"/>
		</g>
		<path fill="#219154" d="M124.105,110.979c-0.041-0.161,0-0.336-0.034-0.505c-0.103-0.554-0.415-0.49-0.867-0.34
			c-0.281,0.091-0.843,0.074-1.031,0.331c-0.35,0.466,0.291,0.729,0.658,0.557c-0.075,0.516,0.076,1.078,0.38,1.503
			c0.439,0.608,0.922,0.307,1.049-0.336C124.352,111.719,124.212,111.404,124.105,110.979z"/>
		<path fill="#219154" d="M126.436,114.836c-0.342,0.065-0.768,0.32-1.117,0.27c-0.312-0.045-0.264-0.377-0.126-0.559
			c0.164-0.225,0.448-0.494,0.092-0.72c-0.387-0.247-1.186-0.163-1.604-0.031c-0.377,0.122-0.754,0.535-0.397,0.896
			c0.253,0.254,0.668,0.232,0.987,0.168c-0.199,0.461-0.401,0.658-0.912,0.519c-0.206-0.056-1.127-0.448-1.224-0.062
			c-0.154,0.629,2.266,0.771,2.543,0.09c0.552,0.57,1.696,0.398,2.159-0.231C127.104,114.813,126.724,114.783,126.436,114.836z"/>
		
			<path fill="none" stroke="#FFFFFF" stroke-width="0.8194" stroke-linecap="round" stroke-linejoin="round" stroke-miterlimit="10" d="
			M134.373,109.001c0,0,3.482,5.939,7.684,4.711c4.198-1.227,5.631-3.481,5.631-3.481s1.535-15.671-5.429-15.873
			C135.295,94.149,133.862,106.339,134.373,109.001z"/>
		<path fill="#E52251" d="M155.114,120.474c0,0-3.89,28.27-5.528,27.961c-1.638-0.309-2.968-0.922-8.91-0.616
			c-5.939,0.308-8.503,0.616-9.938,1.333c-1.43,0.72-1.738-0.408-1.535-0.717c0.205-0.309-2.354-29.805-1.228-30.727
			c1.124-0.922,7.787-3.892,7.787-3.892l6.86,13.213l3.479-12.293C146.101,114.736,148.87,112.381,155.114,120.474z"/>
		
			<path fill="none" stroke="#FFFFFF" stroke-width="0.8194" stroke-linecap="round" stroke-linejoin="round" stroke-miterlimit="10" d="
			M155.049,120.667c0,0-3.89,28.269-5.527,27.96c-1.639-0.309-2.968-0.922-8.911-0.613c-5.938,0.305-8.503,0.613-9.938,1.329
			c-1.429,0.72-1.737-0.407-1.535-0.716c0.205-0.309-2.354-29.804-1.228-30.727c1.125-0.921,7.787-3.891,7.787-3.891l6.861,13.211
			l3.479-12.29C146.036,114.931,148.805,112.574,155.049,120.667z"/>
		
			<path fill="none" stroke="#FFFFFF" stroke-width="0.8194" stroke-linecap="round" stroke-linejoin="round" stroke-miterlimit="10" d="
			M139.877,108.576c0.048,0.574,0.306,1.164,0.781,1.507c0.744,0.541,1.978,0.961,2.808,0.413c0.441-0.293,1.007-0.898,1.052-1.46
			c0.045-0.564-0.5-0.619-0.939-0.66c-0.802-0.072-1.604-0.139-2.405-0.221C140.604,108.095,139.815,107.756,139.877,108.576z"/>
		<path fill="#FFFFFF" d="M145.398,105.67c0.024,0.41,0.154,1.145,0.576,0.564c0.271-0.383,0.541-1.647,0.021-1.955
			C145.437,103.937,145.385,105.391,145.398,105.67z"/>
		<path fill="#FFFFFF" d="M138.798,105.358c0.157,0.472,0.445,0.5,0.682,0.08c0.206-0.364,0.336-1.564,0.021-1.878
			C138.814,102.877,138.705,105.081,138.798,105.358z"/>
		<g>
			
				<path fill="none" stroke="#FFFFFF" stroke-width="0.8194" stroke-linecap="round" stroke-linejoin="round" stroke-miterlimit="10" d="
				M144.134,105.999v0.004c0.007-0.016,0.014-0.031,0.021-0.047L144.134,105.999z"/>
			<path fill="#FFFFFF" d="M144.134,106.003c-0.113,0.232-0.13,0.498-0.254,0.716c-0.112,0.202-0.391,0.293-0.421,0.536
				c0.294,0.138,0.586,0.007,0.695-0.293C144.229,106.762,144.298,106.172,144.134,106.003z"/>
		</g>
		
			<path fill="#FFFFFF" stroke="#FFFFFF" stroke-width="0.8194" stroke-linecap="round" stroke-linejoin="round" stroke-miterlimit="10" d="
			M143.181,94.905c-0.952-0.305-2.08-0.132-2.95,0.324c-0.271,0.143-0.778,0.286-0.946,0.559l-0.023-0.149
			c-0.027,0.801,0.616,1.71,1.038,2.331c0.665,0.973,1.549,1.933,2.677,2.354c0.586,0.223,0.353,0.034,0.065-0.293
			c-0.347-0.39-0.665-0.828-0.775-1.346c0.614,0.211,1.025,1.689,1.782,1.628c0.106-0.245-0.309-0.802-0.411-1.021
			c-0.171-0.354-0.312-0.727-0.511-1.065c0.617,0.604,1.265,1.662,2.101,1.989c0.11-0.438-0.51-1.131-0.716-1.54
			c0.277,0.373,0.953,1.586,1.467,1.22c0.154-0.115,0.062-0.395,0.381-0.329c0.195,0.045,0.452,0.538,0.657,0.661
			C146.588,98.172,145.354,95.606,143.181,94.905z"/>
		
			<path fill="none" stroke="#FFFFFF" stroke-width="0.8194" stroke-linecap="round" stroke-linejoin="round" stroke-miterlimit="10" d="
			M133.365,93.492l0.792,0.687l0.706-2.81c0,0,1.546,1.887,1.566,1.823c0.023-0.063,0.86-2.745,0.925-2.745
			c0.065,0,2.211,2.167,2.211,2.167l1.176-2.448c0,0,1.937,2.534,2.042,2.382c0.106-0.149,1.823-2.231,1.823-2.231
			s0.922,3.349,1.008,3.263c0.089-0.087,1.758-1.417,1.758-1.417s0.538,2.384,0.538,2.445c0,0.065,0.47-0.129,0.47-0.129"/>
		
			<path fill="none" stroke="#FFFFFF" stroke-width="0.8194" stroke-linecap="round" stroke-linejoin="round" stroke-miterlimit="10" d="
			M131.796,97.032c0.106-0.065,4.271-3.433,9.74-3.283c5.47,0.15,7.468,2.747,7.468,2.747"/>
		
			<path fill="none" stroke="#FFFFFF" stroke-width="0.8194" stroke-linecap="round" stroke-linejoin="round" stroke-miterlimit="10" d="
			M131.607,98.704c0,0,3.533-1.994,6.217-2.424"/>
		
			<path fill="none" stroke="#FFFFFF" stroke-width="0.8194" stroke-linecap="round" stroke-linejoin="round" stroke-miterlimit="10" d="
			M146.365,96.903c0.13,0,2.786,1.18,2.981,2.211"/>
		
			<path fill="none" stroke="#FFFFFF" stroke-width="0.8194" stroke-linecap="round" stroke-linejoin="round" stroke-miterlimit="10" d="
			M132.143,136.848c-0.117,0.096-0.079-0.654-0.052-0.771c0.062-0.322,0.216-0.881,0.548-1.011c0.408,0.395,0.199,1.244,0.343,1.758
			c-0.096-0.559-0.182-1.418,0.36-1.781c0.315,0.25,0.387,0.997,0.302,1.36c-0.172-0.397-0.124-1.248,0.205-1.553
			c0.333,0.415,0.209,1.142,0.542,1.521c-0.079-0.164-0.161-0.37-0.302-0.493c-0.041,0.034-0.024,0.062-0.041,0.113"/>
		
			<path fill="none" stroke="#FFFFFF" stroke-width="0.8194" stroke-linecap="round" stroke-linejoin="round" stroke-miterlimit="10" d="
			M145.097,135.045c-0.017,0.041,0,0.062-0.041,0.093c0.096-0.473,0.401-1.155,0.86-1.396c0.679-0.353,0.284,1.012,0.161,1.389
			c0.075-0.312,0.281-1.021,0.661-1.069c0.103,0.518-0.232,1.206-0.339,1.696c0.425-0.466,0.37-1.607,1.042-1.857
			c0.25,0.229,0.202,1.233-0.027,1.487"/>
		
			<path fill="none" stroke="#FFFFFF" stroke-width="0.8194" stroke-linecap="round" stroke-linejoin="round" stroke-miterlimit="10" d="
			M135.782,114.924l-0.607,1.817l1.348-0.337c0,0-1.146,1.48-0.942,1.347c0.202-0.136,1.613-0.404,1.613-0.404l-1.141,1.616
			l1.679-0.067l-0.942,1.412l2.022-0.202c0,0-1.415,1.887-1.21,1.819c0.199-0.068,1.95-0.337,1.95-0.337s-1.08,1.683-0.939,1.683
			c0.134,0,1.68-0.605,1.68-0.402c0,0.202-0.874,2.357-0.874,2.357l1.484-0.809c0,0-0.812,2.218-0.61,2.218s1.549-0.401,1.549-0.401
			s-0.877,1.683-0.675,1.816c0.205,0.138,1.617-0.805,1.617-0.606c0,0.206-1.412,2.022-1.141,2.022c0.264,0,1.474,0,1.474,0
			l-1.409,1.885l1.278,0.271l-1.412,1.213l1.21,0.336l-1.21,1.142l1.012,0.542l-0.878,1.141h0.878l-1.214,1.282l1.146,0.134
			l-1.214,1.278l1.214,0.541l-1.012,1.142l0.874,0.336l-1.008,0.606l1.278,0.202l-1.076,0.945l1.076,0.134l-0.942,1.076l1.076,0.202
			l-1.007,1.347l1.141,0.271l-1.21,0.874l1.278,0.336l-1.145,0.606"/>
		
			<path fill="none" stroke="#FFFFFF" stroke-width="0.8194" stroke-linecap="round" stroke-linejoin="round" stroke-miterlimit="10" d="
			M146.016,115.935l0.469,1.479l-1.278-0.202l0.676,1.818l-0.946,0.136l0.542,1.683l-0.874-0.068l0.4,1.886c0,0-1.007-0.269-0.942,0
			c0.068,0.27,0.61,1.954,0.61,1.954l-1.015,0.404l0.473,1.409c0,0-1.347-0.134-1.145-0.065c0.202,0.065,0.874,1.282,0.874,1.282
			l-1.141,0.134"/>
		
			<path fill="none" stroke="#FFFFFF" stroke-width="0.8194" stroke-linecap="round" stroke-linejoin="round" stroke-miterlimit="10" d="
			M133.764,125.226c0,0,4.308,7.406,4.239,7.674c-0.069,0.271,0.404,15.015,0.404,15.015l-0.942,0.068l-0.676-15.148l-3.365-6.669
			L133.764,125.226z"/>
		
			<path fill="none" stroke="#FFFFFF" stroke-width="0.8194" stroke-linecap="round" stroke-linejoin="round" stroke-miterlimit="10" d="
			M144.936,146.903c0.068-0.271,1.08-17.571,1.08-17.571l1.213-0.336l-1.347,18.647h-1.008L144.936,146.903z"/>
		
			<path fill="none" stroke="#FFFFFF" stroke-width="0.8194" stroke-linecap="round" stroke-linejoin="round" stroke-miterlimit="10" d="
			M134.232,117.145c0.134,0.202,6.532,11.649,6.468,11.852c-0.069,0.202,0.202,18.784,0.202,18.784l2.893-0.068l0.267-18.582
			l2.499-9.887"/>
		
			<path fill="none" stroke="#FFFFFF" stroke-width="0.8194" stroke-linecap="round" stroke-linejoin="round" stroke-miterlimit="10" d="
			M130.192,149.258c-0.442-0.004-0.645,0.26-0.847,0.664c-0.483,0.942,0.045,1.056,0.638,1.509c0.888,0.675,1.333,0.936,0.12,1.809
			c0.198,0.145,0.63,0.597,0.562,0.531"/>
		
			<path fill="none" stroke="#FFFFFF" stroke-width="0.8194" stroke-linecap="round" stroke-linejoin="round" stroke-miterlimit="10" d="
			M131.745,148.521c-2.225,0.98,0.325,1.326,0.9,1.912c0.792,0.812,0.049,1.457-0.634,2.066c0.411,0.302,0.432,0.381,0.418,0.785
			c-0.014-0.068,0.014-0.271-0.017-0.318"/>
		
			<path fill="none" stroke="#FFFFFF" stroke-width="0.8194" stroke-linecap="round" stroke-linejoin="round" stroke-miterlimit="10" d="
			M134.5,148.452c-1.721,0.86-0.404,1.076,0.161,1.892c0.521,0.761,0.227,2.135-0.295,2.148"/>
		
			<path fill="none" stroke="#FFFFFF" stroke-width="0.8194" stroke-linecap="round" stroke-linejoin="round" stroke-miterlimit="10" d="
			M135.915,148.25c-0.298,0.15-0.527,0.425-0.603,0.729c1.347,0.613,2.988,1.333,1.158,2.69c-0.034,0.223,0.106,0.065,0.188,0.147"
			/>
		
			<path fill="none" stroke="#FFFFFF" stroke-width="0.8194" stroke-linecap="round" stroke-linejoin="round" stroke-miterlimit="10" d="
			M139.079,147.914c-0.268,0.13-0.614,0.404-0.696,0.716c-0.223,0.84,0.467,0.549,0.744,1.151c0.332,0.713-0.096,1.32-0.71,1.782
			c-0.023,0.192,0.079,0.069,0.195,0.12"/>
		
			<path fill="none" stroke="#FFFFFF" stroke-width="0.8194" stroke-linecap="round" stroke-linejoin="round" stroke-miterlimit="10" d="
			M140.494,148.384c-1.244,1.689,2.91,3.009-0.415,4.653c0.049-0.154,0.131-0.273,0.213-0.411"/>
		
			<path fill="none" stroke="#FFFFFF" stroke-width="0.8194" stroke-linecap="round" stroke-linejoin="round" stroke-miterlimit="10" d="
			M142.985,147.78c-0.404,0.014-0.881,0.363-0.904,0.812c-0.034,0.603,0.363,0.4,0.668,0.812c0.319,0.433,0.665,0.789,0.676,1.412
			c0.01,0.363-0.363,1.775-0.576,1.271"/>
		
			<path fill="none" stroke="#FFFFFF" stroke-width="0.8194" stroke-linecap="round" stroke-linejoin="round" stroke-miterlimit="10" d="
			M144.672,148.182c-1.23,1.045,0.22,1.391,0.425,2.306c0.182,0.803-0.918,1.221-0.562,1.734"/>
		
			<path fill="none" stroke="#FFFFFF" stroke-width="0.8194" stroke-linecap="round" stroke-linejoin="round" stroke-miterlimit="10" d="
			M146.42,148.116c-1.714,0.956-0.182,1.642,0.325,2.652c0.274,0.542,0.391,1.625-0.191,1.793"/>
		
			<path fill="none" stroke="#FFFFFF" stroke-width="0.8194" stroke-linecap="round" stroke-linejoin="round" stroke-miterlimit="10" d="
			M147.9,148.182c-0.223,1.131-0.041,1.062,0.373,1.922c0.384,0.799,0.672,1.543-0.373,2.187"/>
		
			<path fill="none" stroke="#FFFFFF" stroke-width="0.8194" stroke-linecap="round" stroke-linejoin="round" stroke-miterlimit="10" d="
			M148.846,148.521c-0.332,0.946,0.254,0.912,0.724,1.515c0.604,0.785,0.565,1.299,0.216,2.255"/>
		
			<path fill="none" stroke="#FFFFFF" stroke-width="0.8194" stroke-linecap="round" stroke-linejoin="round" stroke-miterlimit="10" d="
			M148.575,118.827c0.942-0.021,1.734-0.737,2.694-0.74"/>
		
			<path fill="none" stroke="#FFFFFF" stroke-width="0.8194" stroke-linecap="round" stroke-linejoin="round" stroke-miterlimit="10" d="
			M148.168,120.578c1.188,0.052,2.607-0.137,3.64-0.74"/>
		
			<path fill="none" stroke="#FFFFFF" stroke-width="0.8194" stroke-linecap="round" stroke-linejoin="round" stroke-miterlimit="10" d="
			M147.63,122.665c1.261,0.042,2.934-0.398,4.044-1.077"/>
		
			<path fill="none" stroke="#FFFFFF" stroke-width="0.8194" stroke-linecap="round" stroke-linejoin="round" stroke-miterlimit="10" d="
			M147.832,124.686c0.15,0.216,3.32-0.716,3.708-0.807"/>
		
			<path fill="none" stroke="#FFFFFF" stroke-width="0.8194" stroke-linecap="round" stroke-linejoin="round" stroke-miterlimit="10" d="
			M148.034,126.635c1.285,0.059,2.718-0.277,3.906-0.74"/>
		
			<path fill="none" stroke="#FFFFFF" stroke-width="0.8194" stroke-linecap="round" stroke-linejoin="round" stroke-miterlimit="10" d="
			M147.564,129.062c1.049,0.555,2.848-0.048,3.705-0.81"/>
		
			<path fill="none" stroke="#FFFFFF" stroke-width="0.8194" stroke-linecap="round" stroke-linejoin="round" stroke-miterlimit="10" d="
			M147.767,131.282c0.788,0.078,3.143,0.014,3.365-0.806"/>
		
			<path fill="none" stroke="#FFFFFF" stroke-width="0.8194" stroke-linecap="round" stroke-linejoin="round" stroke-miterlimit="10" d="
			M148.034,133.372c0.534,0.388,2.228-0.167,2.899-0.606"/>
		
			<path fill="none" stroke="#FFFFFF" stroke-width="0.8194" stroke-linecap="round" stroke-linejoin="round" stroke-miterlimit="10" d="
			M147.294,135.86c0.545,0.299,3.488-0.559,3.838-1.076"/>
		
			<path fill="none" stroke="#FFFFFF" stroke-width="0.8194" stroke-linecap="round" stroke-linejoin="round" stroke-miterlimit="10" d="
			M147.229,138.017c1.206-0.031,2.3-0.676,3.503-0.74"/>
		
			<path fill="none" stroke="#FFFFFF" stroke-width="0.8194" stroke-linecap="round" stroke-linejoin="round" stroke-miterlimit="10" d="
			M146.759,140.035c0.689,0.127,2.506-0.154,2.961-0.538"/>
		
			<path fill="none" stroke="#FFFFFF" stroke-width="0.8194" stroke-linecap="round" stroke-linejoin="round" stroke-miterlimit="10" d="
			M146.69,142.595c0.822,0.007,2.772,0.065,3.163-0.74"/>
		
			<path fill="none" stroke="#FFFFFF" stroke-width="0.8194" stroke-linecap="round" stroke-linejoin="round" stroke-miterlimit="10" d="
			M146.622,144.145c0.641,0.133,2.255,0.103,2.625-0.405"/>
		
			<path fill="none" stroke="#FFFFFF" stroke-width="0.8194" stroke-linecap="round" stroke-linejoin="round" stroke-miterlimit="10" d="
			M146.622,146.296c0.645,0.141,2.351,0.306,2.693-0.4"/>
		
			<path fill="none" stroke="#FFFFFF" stroke-width="0.8194" stroke-linecap="round" stroke-linejoin="round" stroke-miterlimit="10" d="
			M146.554,147.712c0.575,0.116,1.579,0.336,1.614-0.473"/>
		
			<path fill="none" stroke="#FFFFFF" stroke-width="0.8194" stroke-linecap="round" stroke-linejoin="round" stroke-miterlimit="10" d="
			M134.232,131.687c0.281,0.25,1.107,0.041,1.48-0.202"/>
		
			<path fill="none" stroke="#FFFFFF" stroke-width="0.8194" stroke-linecap="round" stroke-linejoin="round" stroke-miterlimit="10" d="
			M133.962,133.304c0.586,0.134,1.964,0.138,2.289-0.404"/>
		
			<path fill="none" stroke="#FFFFFF" stroke-width="0.8194" stroke-linecap="round" stroke-linejoin="round" stroke-miterlimit="10" d="
			M134.03,135.46c0.703-0.086,1.354-0.319,2.022-0.542"/>
		
			<path fill="none" stroke="#FFFFFF" stroke-width="0.8194" stroke-linecap="round" stroke-linejoin="round" stroke-miterlimit="10" d="
			M134.232,136.67c0.565,0.137,1.947,0.384,2.088-0.34"/>
		
			<path fill="none" stroke="#FFFFFF" stroke-width="0.8194" stroke-linecap="round" stroke-linejoin="round" stroke-miterlimit="10" d="
			M133.222,138.757c0.802-0.072,3.063,0.325,3.372-0.538"/>
		
			<path fill="none" stroke="#FFFFFF" stroke-width="0.8194" stroke-linecap="round" stroke-linejoin="round" stroke-miterlimit="10" d="
			M133.222,140.912c0.953-0.007,1.971,0.106,2.903-0.127c0.441-0.113,0.88-0.363,0.866-0.28"/>
		
			<path fill="none" stroke="#FFFFFF" stroke-width="0.8194" stroke-linecap="round" stroke-linejoin="round" stroke-miterlimit="10" d="
			M133.153,142.931c1.021,0,2.042,0.024,3.061,0c0.49-0.014,1.302,0.202,0.979-0.336"/>
		
			<path fill="none" stroke="#FFFFFF" stroke-width="0.8194" stroke-linecap="round" stroke-linejoin="round" stroke-miterlimit="10" d="
			M133.561,145.22c1.069,0.015,2.451,0.188,3.496-0.068"/>
		
			<path fill="none" stroke="#FFFFFF" stroke-width="0.8194" stroke-linecap="round" stroke-linejoin="round" stroke-miterlimit="10" d="
			M133.29,146.567c0.967,0.359,3.023,0.329,3.637-0.606"/>
		
			<path fill="none" stroke="#FFFFFF" stroke-width="0.8194" stroke-linecap="round" stroke-linejoin="round" stroke-miterlimit="10" d="
			M133.832,148.116c0.733,0.161,3.317,0.442,3.434-0.473"/>
		
			<path fill="none" stroke="#FFFFFF" stroke-width="0.8194" stroke-linecap="round" stroke-linejoin="round" stroke-miterlimit="10" d="
			M158.134,112.565c0,0,1.011,1.82,2.896,0.538"/>
		
			<path fill="none" stroke="#FFFFFF" stroke-width="0.8194" stroke-linecap="round" stroke-linejoin="round" stroke-miterlimit="10" d="
			M129.219,148.846c0,0,3.406,20.872,4.421,22.948c1.011,2.077,0.531,1.92,1.598,1.598c1.065-0.319,1.86-0.795,2.021-1.224
			c0.161-0.425,0.322-1.594,0.322-1.594s0.583-12.197,0.85-14.486c0.268-2.293,1.117-2.557,1.117-2.557s-0.586,4.633-0.798,7.454
			c-0.213,2.823-0.696,9.318-0.319,9.959c0.374,0.638,3.835,1.439,4.473,1.011c0.638-0.425,0.479-2.076,0.531-3.354
			c0.055-1.278-0.052-2.77,0.377-4.154c0.422-1.385,1.117-4.473,1.861-6.546c0.743-2.08,0.637-1.655,1.172-3.354
			c0.527-1.707,0.85-3.355,1.172-4.154c0.315-0.802,0.477-1.971,0.586-2.025c0.106-0.055-5.38-0.854-9.904-0.534
			C134.171,148.154,129.219,148.846,129.219,148.846z"/>
		
			<path fill="none" stroke="#FFFFFF" stroke-width="0.8194" stroke-linecap="round" stroke-linejoin="round" stroke-miterlimit="10" d="
			M147.002,151.348c-0.353,1.68-1.124,3.297-1.579,4.956c-0.49,1.748-1.275,3.362-2.04,5c-0.993,2.139-1.892,5.329-1.322,7.704
			c0.229,0.936,0.477,2.457,1.001,3.267"/>
		
			<path fill="none" stroke="#FFFFFF" stroke-width="0.8194" stroke-linecap="round" stroke-linejoin="round" stroke-miterlimit="10" d="
			M129.907,148.952c0.47,1.323,0.59,2.841,0.744,4.229c0.25,2.251,1.097,4.359,1.419,6.597c0.261,1.796,0.815,3.517,1.189,5.281
			c0.322,1.502,1.024,2.979,1.014,4.514c-0.007,0.919-0.037,2.102-0.318,2.968"/>
		
			<path fill="none" stroke="#FFFFFF" stroke-width="0.8194" stroke-linecap="round" stroke-linejoin="round" stroke-miterlimit="10" d="
			M138.054,170.944c-0.188,2.54,0.347,3.962,2.2,5.724c0.408,0.38,2.951,2.755,3.081,0.997c1.187,1.189,2.214-0.933,1.68-1.991
			c-0.641-1.271-1.854-2.337-2.386-3.605c-0.901-0.202-1.792-0.432-2.7-0.634C139.268,171.287,138.582,171.394,138.054,170.944"/>
		
			<path fill="none" stroke="#FFFFFF" stroke-width="0.8194" stroke-linecap="round" stroke-linejoin="round" stroke-miterlimit="10" d="
			M134.435,173.285c-1.165,0.291-2.269,1.687-2.81,2.69c-0.487,0.888-1.748,3.862,0.504,3.231c-0.898,0.936,1.788,0.634,2.128,0.515
			c1.532-0.542,1.861-2.488,2.368-3.849c0.38-1.019,0.754-2.331,0.679-3.421c-0.815,0.658-2.057,1.192-3.122,1.094
			c0.034-0.161-0.062-0.229-0.065-0.261"/>
		
			<path fill="none" stroke="#FFFFFF" stroke-width="0.8194" stroke-linecap="round" stroke-linejoin="round" stroke-miterlimit="10" d="
			M140.614,176.853c1.542-1.926,2.594-0.017,3.036,1.371c-0.062-0.904-0.613-1.909,0-2.756c0.264-0.366,0.74-0.606,0.905-0.425"/>
		
			<path fill="none" stroke="#FFFFFF" stroke-width="0.8194" stroke-linecap="round" stroke-linejoin="round" stroke-miterlimit="10" d="
			M131.083,176.109c1.262,0.682,1.457,2.234,1.217,3.506c-0.038-0.011-0.123,0.037-0.141,0.059c0.106-0.683,1.073-1.248,1.604-1.601
			c0.925-0.621,2.083-0.964,3.063-0.216c-0.137,0.01-0.233,0.082-0.367,0.112"/>
		
			<path fill="none" stroke="#FFFFFF" stroke-width="0.8194" stroke-linecap="round" stroke-linejoin="round" stroke-miterlimit="10" d="
			M137.845,172.116c-0.295,2.06-0.562,4.1,1.433,5.299c1.155,0.692,2.718,1.456,4.096,1.192c0.654-0.123,1.155-0.466,1.546-1.001
			c-2.708,1.148-5.008-0.918-6.334-3.111c-0.394-0.645-0.627-1.316-0.74-2.06"/>
		
			<path fill="none" stroke="#FFFFFF" stroke-width="0.8194" stroke-linecap="round" stroke-linejoin="round" stroke-miterlimit="10" d="
			M135.35,180.609c-1.261,0.616-2.81,0.593-3.663-0.617c1.765-0.045,3.592,0.021,4.387-1.882c0.305-0.727,0.641-2.858,1.463-3.04
			c0.188-0.041-0.103,2.797-0.171,3.02C137.033,179.166,136.385,180.105,135.35,180.609z"/>
		
			<path fill="none" stroke="#FFFFFF" stroke-width="0.8194" stroke-linecap="round" stroke-linejoin="round" stroke-miterlimit="10" d="
			M148.613,113.918c0,0,1.227-8.501,1.021-12.804c-0.206-4.302-2.05-12.494-7.067-12.494s-11.265,2.766-11.265,12.494
			c0,9.731,2.148,12.598,2.148,12.598s-2.046,2.972-0.716,3.892c0,0-0.104,1.061-0.104,2.255c0,0.204-1.227,2.459,0.206,2.869
			c0,0-2.252,1.74-0.411,2.869c0,0-1.46,3.852,0.103,3.07c0.206-0.103-1.741,3.379-0.103,3.688c0,0-1.124,2.354,0.309,2.663
			s1.329-2.05,0.922-2.663c0,0,0.613-3.485-0.306-3.79c0,0,1.228-3.277,0.408-2.968c0,0,0.922-3.384,0.103-3.075
			c0,0,0-2.459-0.411-2.459c0,0,1.23-2.559,0.511-2.559c0,0,1.23-2.152,0.411-3.381c0,0,0.309-2.253,0.206-4.712
			c-0.068-1.592,0.493-13.328,7.077-14.947c6.247-1.536,5.521,18.737,5.62,19.966c0,0-1.33,1.844-0.407,2.663
			c0,0-1.33,1.33-0.309,2.15c0,0-1.228,2.256-0.202,2.766c0,0-0.922,2.459-0.104,2.97c0,0-1.124,1.334-0.103,2.253
			c0,0-0.819,1.946,0.103,2.563c0,0-1.024,1.429,0,1.946c0,0-1.333,1.433-0.205,1.844c1.127,0.408,1.946,0,1.946,0
			s0.1-1.539-0.511-1.844c0,0,0.511-2.053-0.106-2.152c0,0,0.819-2.357,0.106-2.357c0,0,0.819-1.844,0-2.149
			c0,0,1.128-1.945,0.511-2.663c0,0,0.617-2.765,0-3.071c0,0,0.617-2.152,0.309-2.255
			C148.305,117.093,149.635,115.352,148.613,113.918z"/>
	</g>
	
		<polyline fill="none" stroke="#FFFFFF" stroke-width="0.8194" stroke-linecap="round" stroke-linejoin="round" stroke-miterlimit="10" points="
		135.713,122.129 135.312,126.642 138.407,125.946 137.057,129.593 140.079,129.593 138.407,132.06 140.079,133.503 138.407,136.33 
		140.398,137.276 138.911,139.895 140.398,141.854 138.911,143.445 140.48,144.645 138.911,146.156 140.48,146.779 	"/>
</g>
</svg>
