<?xml version="1.0" encoding="utf-8"?>
<!-- Generator: Adobe Illustrator 16.0.0, SVG Export Plug-In . SVG Version: 6.00 Build 0)  -->
<!DOCTYPE svg PUBLIC "-//W3C//DTD SVG 1.1//EN" "http://www.w3.org/Graphics/SVG/1.1/DTD/svg11.dtd">
<svg version="1.1" id="Capa_1" xmlns="http://www.w3.org/2000/svg" xmlns:xlink="http://www.w3.org/1999/xlink" x="0px" y="0px"
	 width="250px" height="250px" viewBox="0 0 250 250" enable-background="new 0 0 250 250" xml:space="preserve">
<g>
	<g>
		<path fill="#FFFFFF" stroke="#E9BB43" stroke-width="1.5352" stroke-miterlimit="10" d="M128.477,62.12
			c0,0-2.993-18.6-21.589-16.673c-18.598,1.922-30.996,8.975-27.149,36.125c0,0-9.831,6.627-8.55,9.619
			c1.282,2.993,4.062,4.49,4.062,4.49s-3.421,9.62,0.426,13.041c0,0,1.712,18.171,0.215,22.657
			c-1.497,4.49-14.323,35.699,5.771,43.393c0,0-7.694,16.463-2.565,20.952c5.132,4.486,24.799,12.184,40.617,7.698
			c15.817-4.494,22.662-16.889,19.881-19.24c-2.78-2.353-7.058-10.477-4.92-18.17c2.14-7.694,5.986-12.614,5.986-12.614
			c0.215,0.646,11.33,6.412,13.039,4.061c1.712-2.349,14.538-19.452,20.735-31.852c6.199-12.396,11.543-37.404,1.284-48.095
			C166.602,68.008,149.64,53.14,128.477,62.12z"/>
	</g>
	<g>
		<path fill="#E7462B" d="M84.061,94.228c-2.617,0.466-5.123,1.559-6.556,3.929c-1.596,2.643-0.746,5.546,2.078,6.838
			c1.483,0.683,4.695,1.315,5.294-0.806c0.386-1.379-0.772-3.487-0.794-4.956c-0.024-1.634,0.332-3.182-0.022-4.81"/>
		<g>
			<path fill="#2A2B20" d="M147.433,83.999c-11.459-3.202-16.703,0.875-21.073,4.565c-4.369,3.691-12.622,13.401-12.138,27.675
				c0,0,1.847,11.265-5.437,10.975c-7.282-0.291-8.157-2.039-8.838-5.824c-0.679-3.787-0.971-16.222-0.679-23.697
				c0.291-7.479-0.195-12.625-2.138-14.858c-0.032-0.038-0.045-0.088-0.075-0.125c-4.417-2.026-9.223-1.214-13.641,0.748
				c-0.276,3.196-0.386,6.536,0.034,9.714c0.261,1.982,0.092,2.478,0.549,6.432c0.004,0.028-0.03,0.03-0.042,0.052
				c0.332,3.481,0.485,8.086,0.163,12.315c-0.585,7.67-0.488,14.857-1.164,17.376c-0.681,2.528-13.404,17.191-3.011,30.784
				c9.417,12.326,13.33,8.179,14.568,9.258c5.447,1.421,10.127,1.811,15.658,0.88c4.49-0.757,8.816-1.931,12.794-4.18
				c1.081-0.613,2.203-1.298,3.325-2.038c0.669-2.249,2.569-6.607,8.613-15.57c0,0,3.499-2.914,2.237-14.178
				c-1.264-11.263-2.719-21.851,1.168-27.288c3.881-5.437,9.322-0.776,12.329,2.526c3.009,3.301-0.288,8.836,1.847,9.031
				c2.136,0.197,4.661-3.883,4.952-9.515C157.726,103.421,158.892,87.207,147.433,83.999z"/>
			<g>
				<path fill="#E7462B" d="M82.759,84.59c0,0,1.119-0.563,0.732-0.308c4.597-2.239,8.86-3.359,13.563-1.572
					c-1.035-2.498-0.685-5.768,1.823-7.439c2.914-1.944,6.9-4.177,12.235-3.789c5.343,0.386,8.257,2.233,8.351,5.539
					c0.098,3.3,0.485,7.28,1.654,7.085c1.166-0.195,2.235-8.058,2.235-8.058s0.289-3.789,0.289-7.286
					c0-3.495-0.681-12.624-2.523-15.245c-1.845-2.625-5.244-4.854-10.486-5.632c-5.248-0.778-12.821-0.292-16.706,2.812
					c-3.885,3.11-9.322,4.76-10.392,14.569c-1.065,9.808-2.038,13.985-0.579,16.606L82.759,84.59z"/>
				<path fill="#F9C955" d="M84.007,94.803c0.002,0.002,0.006,0.01,0.008,0.014c-0.092-0.479-0.173-0.947-0.219-1.387
					c-0.319-2.977-0.545-6.153-0.305-9.148c-1.365,0.646-2.685,1.393-3.94,2.195c-0.85,0.547-1.68,1.119-2.498,1.706
					c-1.413,1.28-2.032,2.56-1.397,3.125C77.404,92.861,83.231,93.637,84.007,94.803z"/>
				<path fill="#15AFE5" d="M125.585,164.979c0.339-0.274,0.255-0.621,0.466-1.636c-1.019,0.669-2.062,1.298-3.13,1.87
					c-4.128,2.222-8.596,3.459-13.227,4.14c-5.276,0.772-10.673,0.84-15.875-0.414c0.921,2.826,0.062,11.348-1.347,13.23
					c-1.459,1.942-6.51,8.255-1.361,9.907c5.145,1.647,12.528,1.453,19.036,1.357c6.502-0.1,16.409-2.038,19.225-4.076
					c2.818-2.042-1.552-5.731-3.399-9.131C124.128,176.828,124.614,165.755,125.585,164.979z"/>
				<path fill="#FFFFFF" d="M90.041,93.822c3.644,0.026,5.993-3.915,4.384-7.18c-1.622-3.306-6.193-3.469-7.755-0.201
					C85.102,89.721,85.583,93.789,90.041,93.822z"/>
				<path fill="#2A2B20" d="M91.259,87.307c-0.985-1.272-3.17,1.333-1.604,2.424C91.054,90.706,92.073,88.354,91.259,87.307z"/>
				<path fill="#F9C955" d="M86.933,95.653c-0.617,1.821-1.867,4.353-1.22,6.285c0.681,2.032,3.347,1.602,3.48-0.521
					C89.321,99.478,86.853,97.952,86.933,95.653z"/>
				<path fill="#E7462B" d="M142.463,89.188c-1.649-0.583-4.687,0.348-5.198,2.225c-2.603-2.668-6.397-0.655-6.774,3.045
					c-0.316,3.085,4.103,4.78,6.262,6.201c2.932,1.933,4.692-1.216,6.117-3.691C144.129,94.773,145.938,90.405,142.463,89.188z"/>
				<path fill="#E7462B" d="M115.708,145.312c-1.556-2.396-4.259-1.504-5.7,0.351c-1.061-2.639-3.807-3.124-6.301-1.19
					c-3.692,2.858-0.396,6.922,2.139,9.207c2.393,2.161,4.064,0.871,6.508-0.796C114.725,151.267,117.704,148.393,115.708,145.312z"
					/>
				<path fill="#F9C955" d="M123.72,125.633c0.388-0.019,0.794-0.166,0.991-0.424c0.4-0.527,0.089-1.803-0.5-2.102
					c-0.45-0.227-0.973,0.048-1.258,0.424c-0.4,0.523-0.557,1.644,0.113,1.989C123.241,125.608,123.479,125.645,123.72,125.633z"/>
				<path fill="#518538" d="M134.181,130.648c-1.204,0.335-4.044-2.412-3.662-3.63c0.396-1.267,2.589-0.979,3.423-0.267
					C134.737,127.44,135.814,130.191,134.181,130.648z"/>
				<path fill="#518538" d="M128.559,132.388c0.135,1.158,1.767,3.181,2.934,3.471C135.918,136.97,128.007,127.611,128.559,132.388z
					"/>
				<path fill="#FFFFFF" d="M123.25,149.551c1.614,0.498,3.823-0.549,2.862-2.483C124.594,143.982,120.076,148.563,123.25,149.551z"
					/>
				<path fill="#FFFFFF" d="M123.989,138.732c-1.962,1.062-0.776,4.613,1.433,4.06C127.953,142.164,126.049,137.622,123.989,138.732
					z"/>
				<path fill="#FFFFFF" d="M118.54,136.556c-2.267-0.757-3.724,3.172-1.511,4.092C119.342,141.61,120.992,137.375,118.54,136.556z"
					/>
				<path fill="#FFFFFF" d="M111.113,140.433c2.072,0.039,2.747-2.811,1.435-4.124C109.803,133.562,105.25,140.329,111.113,140.433z
					"/>
				<path fill="#FFFFFF" d="M102.466,135.492c-2.136,0.53-1.729,4.116,0.308,4.442C105.823,140.433,104.844,134.903,102.466,135.492
					z"/>
				<path fill="#FFFFFF" d="M97.325,135.373c-5.135-1.636-3.979,6.723,0.067,3.777c2.371-1.72-1.044-4.884-1.526-3.973"/>
				<path fill="#FFFFFF" d="M91.008,142.188c2.273-1.433,1.315-4.633-1.421-4.506C86.551,137.829,87.259,144.552,91.008,142.188z"/>
				<path fill="#FFFFFF" d="M93.102,146.108c-2.146-2.197-5.481,1.576-3.686,3.594C91.375,151.915,95.345,148.412,93.102,146.108z"
					/>
				<path fill="#FFFFFF" d="M96.597,155.815c1.931-0.796,1.994-3.765-0.231-4.179C93.411,151.096,93.681,157.018,96.597,155.815z"/>
				<path fill="#FFFFFF" d="M102.838,160.079c1.578-0.41,1.803-2.007,1.134-3.065c-0.364-0.577-0.997-0.999-1.827-0.975
					C99.283,156.114,99.654,160.919,102.838,160.079z"/>
				<path fill="#FFFFFF" d="M111.973,158.396c-2.938-1.294-5.481,3.944-1.729,4.569C112.725,163.374,114.53,159.529,111.973,158.396
					z"/>
				<path fill="#FFFFFF" d="M119.993,161.818c1.827-1.576-0.342-4.362-2.338-4.144c-1.266,0.131-2.087,1.616-1.878,2.83
					C116.052,162.112,118.719,162.917,119.993,161.818z"/>
				<path fill="#FFFFFF" d="M125.052,156.906c1.039-1.763-0.794-4.044-2.732-2.934C120.011,155.286,123.016,160.354,125.052,156.906
					z"/>
				<path fill="#F9C955" d="M105.071,132.129c-0.54,1.274,1.228,2.548,1.554,0.761C106.842,131.707,105.652,130.76,105.071,132.129z
					"/>
				<path fill="#F9C955" d="M111.061,133.944c1.317-0.366,1.242-2.32-0.211-2.341C109.355,131.584,108.782,134.577,111.061,133.944z
					"/>
				<path fill="#F9C955" d="M116.189,134.438c1.3-0.573,0.902-2.261-0.47-2.424C113.603,131.768,114.404,135.229,116.189,134.438z"
					/>
				<path fill="#F9C955" d="M120.431,134.752c1.273,0.426,2.03-1.206,1.339-2.177C120.458,130.729,118.659,134.159,120.431,134.752z
					"/>
				<path fill="#F9C955" d="M99.431,133.992c1.528,0.295,2.269-1.381,1.138-2.424C98.837,129.968,97.359,133.59,99.431,133.992z"/>
				<path fill="#F9C955" d="M92.636,133.614c-0.083-0.211-0.215-0.391-0.4-0.525c-1.359-0.976-2.955,0.971-1.978,2.217
					C91.396,136.759,93.245,135.15,92.636,133.614z"/>
				<path fill="#F9C955" d="M87.173,145.42c0.183-1.039-0.428-1.465-1.198-1.478c-1.103-0.016-2.991,1.115-2.249,2.444
					C84.425,147.648,86.955,146.617,87.173,145.42z"/>
				<path fill="#F9C955" d="M91.673,154.889c1.27-0.832,0.818-2.85-0.842-2.615C88.861,152.556,89.387,156.389,91.673,154.889z"/>
				<path fill="#F9C955" d="M98.623,159.044c0.506-1.827-2.778-2.142-2.929-0.378C95.542,160.317,98.197,160.532,98.623,159.044z"/>
				<path fill="#F9C955" d="M105.847,163.987c1.318-0.652,1.208-2.125-0.37-2.189C103.339,161.711,103.546,165.126,105.847,163.987z
					"/>
				<path fill="#F9C955" d="M114.747,164.95c1.735,0.422,1.568-0.545,0.932-1.277C114.124,161.882,112.95,164.513,114.747,164.95z"
					/>
				<path fill="#F9C955" d="M123.641,161.69c1.025-0.357,1.148-1.5-0.024-1.739C122.044,159.633,121.654,162.388,123.641,161.69z"/>
				<path fill="#F9C955" d="M128.724,151.401c-0.038-0.179-0.134-0.346-0.295-0.478c-1.013-0.819-1.779,0.59-1.293,1.449
					C127.79,153.555,128.979,152.552,128.724,151.401z"/>
				<path fill="#F9C955" d="M129.076,143.935c-0.48-1.158-2.253-0.493-2.03,0.649C127.309,145.937,129.759,145.57,129.076,143.935z"
					/>
				<path fill="#15AFE5" d="M121.058,142.888c-0.279-0.836-1.753-0.573-1.636,0.291
					C119.531,143.959,121.476,144.138,121.058,142.888z"/>
				<path fill="#15AFE5" d="M118.433,148.97c-0.279-0.836-1.755-0.577-1.636,0.287C116.904,150.041,118.849,150.22,118.433,148.97z"
					/>
				<path fill="#15AFE5" d="M120.629,146.542c-0.01-0.021-0.018-0.032-0.028-0.044c-0.561-0.772-1.769-0.179-1.361,0.732
					C119.76,148.385,121.278,147.545,120.629,146.542z"/>
				<path fill="#15AFE5" d="M155.043,139.768c-0.008-0.016-0.02-0.028-0.03-0.04c-0.559-0.772-1.769-0.183-1.358,0.732
					C154.171,141.614,155.693,140.771,155.043,139.768z"/>
				<path fill="#15AFE5" d="M109.935,155.629c-0.012-0.016-0.018-0.032-0.03-0.044c-0.561-0.769-1.769-0.179-1.357,0.736
					C109.063,157.476,110.585,156.628,109.935,155.629z"/>
				<path fill="#15AFE5" d="M120.184,152.103c0.635-0.558,0.205-1.377-0.635-1.206C118.194,151.171,119.153,153.006,120.184,152.103
					z"/>
				<path fill="#15AFE5" d="M117.169,154.339c-0.579-0.771-2,0.406-1.535,1.139C116.176,156.325,117.772,155.14,117.169,154.339z"/>
				<path fill="#15AFE5" d="M99.891,145.973c-0.488-0.601-1.559-0.553-1.093,0.39C99.277,147.33,100.581,146.824,99.891,145.973z"/>
				<path fill="#15AFE5" d="M96.85,145.973c-0.49-0.601-1.561-0.553-1.091,0.39C96.234,147.33,97.538,146.824,96.85,145.973z"/>
				<path fill="#15AFE5" d="M99.319,148.349c-0.641-0.892-2.253-0.664-1.517,0.562C98.344,149.81,100.074,149.399,99.319,148.349z"
					/>
				<path fill="#15AFE5" d="M96.294,143.19c0.707-0.537,0.201-1.341-0.573-1.29C94.262,141.996,95.146,144.055,96.294,143.19z"/>
				<path fill="#15AFE5" d="M100.165,141.388c0.705-0.529,0.199-1.334-0.575-1.282C98.131,140.197,99.019,142.255,100.165,141.388z"
					/>
				<path fill="#15AFE5" d="M147.015,137.793c0.707-0.529,0.203-1.333-0.575-1.281C144.98,136.604,145.868,138.661,147.015,137.793z
					"/>
				<path fill="#15AFE5" d="M101.803,145.443c0.707-0.529,0.199-1.333-0.575-1.286C99.769,144.253,100.657,146.311,101.803,145.443z
					"/>
				<path fill="#15AFE5" d="M118.391,146.001c0.701-0.538,0.197-1.338-0.577-1.29C116.355,144.807,117.24,146.864,118.391,146.001z"
					/>
				<path fill="#F9C955" d="M101.785,161.961c-0.989-0.445-1.97,1.183-0.89,1.692C101.898,164.127,102.87,162.447,101.785,161.961z"
					/>
				<path fill="none" stroke="#E9BB43" stroke-width="1.5352" stroke-miterlimit="10" d="M110.195,164.875
					c-0.746-0.641-1.777,0.183-1.086,0.987C109.792,166.658,111.318,165.842,110.195,164.875z"/>
				<path fill="#F9C955" d="M98.4,161.711c-0.959-0.681-2.466,1.138-1.286,1.715C98.026,163.872,99.367,162.399,98.4,161.711z"/>
				<path fill="#F9C955" d="M92.821,158.598c1.339-0.167,1.003-0.859,0.342-1.301C91.283,156.059,91.032,158.817,92.821,158.598z"/>
				<path fill="#F9C955" d="M88.168,150.932c-0.063-0.039-0.129-0.067-0.189-0.095c-0.921-0.351-1.743,0.736-0.76,1.306
					C88.105,152.655,89.102,151.533,88.168,150.932z"/>
				<path fill="#F9C955" d="M85.675,142.466c0.886-0.426,0.464-1.632-0.426-1.759C83.671,140.492,84.387,143.087,85.675,142.466z"/>
				<path fill="#F9C955" d="M88.077,136.535c0.665-1.022-0.273-1.839-1.306-1.293C85.108,136.117,87.225,137.837,88.077,136.535z"/>
				<path fill="#518538" d="M131.293,114.88c-1.895-1.128-4.598-0.122-6.594,0.143c-1.876,0.251-3.715,0.327-4.901-1.369
					c-0.615-0.872-0.712-3.552-1.594-4.064c-2.032-1.178-2.185,5.159-0.388,6.432c3.391,2.404,8.257-0.83,11.702,2.044
					c0.943,0.786,1.891,3.857,3.212,3.805C135.916,121.754,132.447,115.57,131.293,114.88z"/>
				<path fill="#FFFFFF" d="M127.627,98.018c1.592,0.197,1.829-0.76,1.477-1.692C127.605,92.377,124.297,97.602,127.627,98.018z"/>
				<path fill="#FFFFFF" d="M131.562,102.069c0.977-1.145-0.293-2.5-1.614-2.042C127.652,100.824,130.079,103.817,131.562,102.069z"
					/>
				<path fill="#FFFFFF" d="M128.904,124.624c1.065-1.383-0.32-3.019-1.767-2.464C124.624,123.119,127.278,126.732,128.904,124.624z
					"/>
				<path fill="#FFFFFF" d="M126.141,121.304c1.064-1.379-0.318-3.015-1.768-2.464C121.859,119.801,124.514,123.416,126.141,121.304
					z"/>
				<path fill="#FFFFFF" d="M121.855,122.134c1.065-1.383-0.32-3.015-1.765-2.464C117.573,120.631,120.228,124.246,121.855,122.134z
					"/>
				<path fill="#FFFFFF" d="M120.749,126.278c1.067-1.38-0.318-3.014-1.763-2.461C116.468,124.775,119.123,128.392,120.749,126.278z
					"/>
				<path fill="#FFFFFF" d="M123.79,129.459c1.064-1.382-0.32-3.014-1.766-2.464C119.509,127.954,122.164,131.572,123.79,129.459z"
					/>
				<path fill="#FFFFFF" d="M128.264,128.073c0.125-1.739-1.935-2.333-2.834-1.074C123.868,129.191,128.076,130.732,128.264,128.073
					z"/>
				<path fill="#E7462B" d="M126.266,100.439c-0.239-0.285-0.549-0.485-0.914-0.527c-1.638-0.193-2.257,2.187-0.973,3.005
					C126.051,103.992,127.406,101.829,126.266,100.439z"/>
				<path fill="#15AFE5" d="M125.459,105.18c-1.741-0.661-3.258,2.459-1.025,2.854C126.103,108.326,127.227,105.854,125.459,105.18z
					"/>
				<path fill="#15AFE5" d="M161.119,107.114c-1.744-0.661-3.262,2.46-1.029,2.854C161.762,110.261,162.882,107.789,161.119,107.114
					z"/>
				<path fill="#15AFE5" d="M175.629,97.44c-1.741-0.663-3.258,2.462-1.027,2.852C176.273,100.587,177.393,98.115,175.629,97.44z"/>
				<path fill="#15AFE5" d="M170.517,79.752c-1.744-0.665-3.26,2.46-1.029,2.85C171.163,82.895,172.279,80.425,170.517,79.752z"/>
				<path fill="#15AFE5" d="M138.035,76.158c-1.741-0.665-3.26,2.46-1.026,2.85C138.68,79.304,139.803,76.833,138.035,76.158z"/>
				<path fill="#15AFE5" d="M99.333,142.466c-1.176-0.449-2.201,1.656-0.696,1.919C99.765,144.584,100.523,142.916,99.333,142.466z"
					/>
				<path fill="#15AFE5" d="M140.24,64.38c-1.176-0.448-2.197,1.658-0.694,1.922C140.672,66.498,141.429,64.836,140.24,64.38z"/>
				<path fill="#15AFE5" d="M101.325,149.372c-1.108-0.422-2.076,1.564-0.657,1.814
					C101.733,151.374,102.448,149.802,101.325,149.372z"/>
				<path fill="#15AFE5" d="M100.496,151.999c-1.109-0.422-2.076,1.564-0.653,1.811
					C100.903,154.001,101.618,152.425,100.496,151.999z"/>
				<path fill="#15AFE5" d="M102.424,152.644c-0.959,0.215-0.492,2.182,0.577,1.684
					C103.803,153.961,103.397,152.429,102.424,152.644z"/>
				<path fill="#E7462B" d="M131.623,104.892c-1.409-0.965-3.017,1.757-1.551,2.529
					C131.418,108.131,132.996,105.829,131.623,104.892z"/>
				<path fill="#FFFFFF" d="M136.371,105.116c0.849-1.055,0.019-2.165-1.264-1.724C133.068,104.095,135.281,106.468,136.371,105.116
					z"/>
				<path fill="#FFFFFF" d="M144.975,101.486c1.104-0.555,1.101-1.234,0.665-1.7C143.218,97.195,141.996,102.975,144.975,101.486z"
					/>
				<path fill="#FFFFFF" d="M147.093,98.005c1.427-0.601,0.829-2.36-0.571-2.5C144.278,95.283,145.277,98.77,147.093,98.005z"/>
				<path fill="#FFFFFF" d="M147.584,93.44c1.25,0.758,2.65-0.515,2.044-1.865C148.734,89.585,145.319,92.069,147.584,93.44z"/>
				<path fill="#E7462B" d="M150.824,97.605c1.339-0.241,1.337-2.271,0.173-2.784C148.965,93.924,149.08,97.92,150.824,97.605z"/>
				<path fill="#E7462B" d="M149.313,101.853c1.321-0.142,1.522-1.927,0.201-2.289C147.946,99.134,146.518,102.145,149.313,101.853z
					"/>
				<path fill="#15AFE5" d="M151.133,105.775c1.216-0.34,1.174-1.021,0.688-1.53C149.559,101.858,148.388,106.547,151.133,105.775z"
					/>
				<path fill="#15AFE5" d="M127.03,110.545c1.188,0.575,2.155-0.647,1.521-1.767C127.495,106.911,125.734,109.913,127.03,110.545z"
					/>
				<path fill="#15AFE5" d="M161.996,127.544c1.187,0.577,2.153-0.648,1.522-1.764C162.46,123.909,160.701,126.915,161.996,127.544z
					"/>
				<path fill="#15AFE5" d="M164.484,86.222c1.182,0.575,2.157-0.649,1.519-1.768C164.948,82.586,163.187,85.589,164.484,86.222z"/>
				<path fill="#15AFE5" d="M112.104,156.982c1.188,0.573,2.155-0.649,1.521-1.768C112.569,153.348,110.808,156.35,112.104,156.982z
					"/>
				<path fill="#15AFE5" d="M132.77,110.118c-0.123-0.1-0.293-0.166-0.498-0.185c-1.15-0.125-1.914,1.908-0.633,2.324
					C132.758,112.619,133.742,110.848,132.77,110.118z"/>
				<path fill="#15AFE5" d="M123.384,112.104c1.023-0.08,1.25-0.71,1.067-1.323C123.388,107.277,119.955,112.362,123.384,112.104z"
					/>
				<path fill="#15AFE5" d="M170.649,114.312c1.023-0.08,1.252-0.708,1.064-1.321C170.653,109.489,167.221,114.575,170.649,114.312z
					"/>
				<path fill="#F9C955" d="M126.346,136.687c1.189-0.589,0.907-2.018-0.479-1.998C124.035,134.713,125.076,137.319,126.346,136.687
					z"/>
				<path fill="#F9C955" d="M130.268,138.525c-0.125-1.389-2.197-1.143-1.974,0.299C128.503,140.17,130.381,139.783,130.268,138.525
					z"/>
				<path fill="#F9C955" d="M132.049,142.896c0.868-0.378,0.587-1.795-0.318-1.95C130.17,140.687,130.708,143.478,132.049,142.896z"
					/>
				<path fill="#FFFFFF" d="M128.526,91.054c-1.029-0.703-2.032,1.277-0.685,1.654C128.724,92.953,129.271,91.563,128.526,91.054z"
					/>
				<path fill="#E7462B" d="M123.983,97.343c0.607-0.416,0.479-0.903,0.125-1.2C122.421,94.748,122.094,98.636,123.983,97.343z"/>
				<path fill="#15AFE5" d="M121.169,102.736c-1.323,0.068-0.91,1.942,0.215,1.654C122.313,104.149,122.233,102.685,121.169,102.736
					z"/>
				<path fill="#15AFE5" d="M105.138,155.673c-1.323,0.063-0.911,1.935,0.211,1.647
					C106.283,157.086,106.203,155.617,105.138,155.673z"/>
				<path fill="#FFFFFF" d="M132.162,87.89c-0.445-0.943-2.296-0.217-1.814,0.844C130.847,89.846,132.66,88.946,132.162,87.89z"/>
				<path fill="#FFFFFF" d="M134.766,87.792c0.838,0.195,1.459-0.639,0.778-1.305C134.576,85.537,133.615,87.525,134.766,87.792z"/>
				<path fill="#FFFFFF" d="M138.006,87.834c0.949-0.058,1.504-1.485,0.461-1.891C137.364,85.509,136.344,87.934,138.006,87.834z"/>
				<path fill="#FFFFFF" d="M143.036,85.5c-0.988-0.901-2.959,0.768-1.839,1.748C142.104,88.043,144.048,86.417,143.036,85.5z"/>
				<path fill="#FFFFFF" d="M146.36,88.552c0.591-0.199,0.561-0.599,0.314-0.894C145.498,86.282,144.911,89.018,146.36,88.552z"/>
				<path fill="#FFFFFF" d="M150.872,88.313c-0.502-0.772-1.724,0.034-1.413,0.83C149.875,90.212,151.437,89.177,150.872,88.313z"/>
				<path fill="#E7462B" d="M152.936,92.101c-0.285-0.65-1.363-0.065-1.129,0.532C152.002,93.132,153.22,92.75,152.936,92.101z"/>
				<path fill="#15AFE5" d="M152.73,100.214c1.26,0.49,1.471-0.165,1.238-0.87C153.074,96.626,150.971,99.528,152.73,100.214z"/>
				<path fill="#15AFE5" d="M155.145,102.579c-0.577-0.486-1.423,0.619-1.075,1.1C154.492,104.252,155.877,103.194,155.145,102.579z
					"/>
				<path fill="#15AFE5" d="M146.836,103.112c-0.577-0.486-1.421,0.619-1.075,1.101C146.183,104.79,147.564,103.729,146.836,103.112
					z"/>
				<path fill="#15AFE5" d="M114.494,141.53c-0.577-0.485-1.423,0.621-1.071,1.103C113.843,143.206,115.227,142.147,114.494,141.53z
					"/>
				<path fill="#15AFE5" d="M117.535,142.642c-0.575-0.49-1.425,0.612-1.073,1.099C116.882,144.312,118.265,143.254,117.535,142.642
					z"/>
				<path fill="#15AFE5" d="M106.478,140.428c-0.575-0.489-1.421,0.617-1.072,1.099
					C105.825,142.104,107.208,141.041,106.478,140.428z"/>
				<path fill="#15AFE5" d="M116.568,151.76c-0.575-0.485-1.425,0.621-1.077,1.099C115.913,153.436,117.298,152.377,116.568,151.76z
					"/>
				<path fill="#15AFE5" d="M154.303,106.929c-0.928-0.881-1.898,0.305-1.104,1.083C153.96,108.76,155.379,107.958,154.303,106.929z
					"/>
				<path fill="#15AFE5" d="M111.043,142.311c-0.927-0.884-1.898,0.307-1.104,1.083
					C110.705,144.142,112.124,143.334,111.043,142.311z"/>
				<path fill="#15AFE5" d="M119.875,106.43c-0.066,0.048-0.133,0.109-0.197,0.183c-0.593,0.673-0.129,1.558,0.729,1.095
					C121.41,107.17,120.765,105.757,119.875,106.43z"/>
				<path fill="#15AFE5" d="M102.048,141.53c-0.066,0.052-0.133,0.112-0.197,0.184c-0.593,0.677-0.131,1.561,0.729,1.099
					C103.58,142.275,102.936,140.862,102.048,141.53z"/>
				<path fill="#15AFE5" d="M153.045,95.51c-0.067,0.05-0.136,0.111-0.199,0.185c-0.591,0.675-0.127,1.557,0.73,1.095
					C154.579,96.25,153.933,94.841,153.045,95.51z"/>
				<path fill="#E9BB43" d="M96.667,185.76c-0.828-1.246-2.85-10.767-0.778-16.57c0,0-2.615-0.274-2.752-0.692
					c0,0-0.617,13.668-1.166,14.222c-0.551,0.553-4.146,6.771-2.904,8.291c1.244,1.524,1.244-0.275,2.627-4.147
					c0,0,0.277,5.393,2.349,4.286c1.172-0.625,1.144-1.858,0.903-2.821c0.714,1.782,2.078,4.621,3.244,3.649
					C99.845,190.596,97.496,187.005,96.667,185.76z"/>
				<path fill="#E7462B" d="M152.816,68.339c-1.883-2.591-4.849-1.437-6.353,0.722c-1.344-2.89-4.446-3.274-7.125-0.967
					c-3.962,3.411-0.036,7.77,2.932,10.182c2.806,2.277,4.599,0.734,7.238-1.268C152.071,75.057,155.236,71.674,152.816,68.339z"/>
				<path fill="#F9C955" d="M128.526,78.673c-0.149-0.422-3.238-12.034-1.657-13.103c1.578-1.059,5.086-2.766,7.323-1.684
					c2.232,1.083,5.059,6.265-0.915,9.638c-0.214,0.122,1.059,3.652,0.113,4.353C132.447,78.582,129.161,80.383,128.526,78.673z"/>
				<path fill="#F9C955" d="M163.779,70.934c-2.74-1.596-4.314-2.919-5.202-1.286c-0.892,1.63-6.896,11.443-6.896,11.443
					c-0.784,0.882-1.033,1.065-1.033,1.065s2.532,3.104,3.58,3.473c1.047,0.37,2.811-3.561,2.765-3.234
					c-0.05,0.322,1.654,6.166,1.654,6.166s2.784-0.265,3.584-0.48c0.804-0.217,0.006-5.495,0.006-5.495
					C169.087,80.807,166.522,72.528,163.779,70.934z"/>
				<path fill="#F9C955" d="M161.957,135.858c0,0-6.981-13.026-7.929-12.029c-0.947,0.995-2.013,3.503-2.013,3.503
					s1.639,1.373,1.411,1.863c-0.232,0.497-1.697,2.332-1.697,2.332s-2.364-1.114-2.688-0.426c-0.327,0.688-2.385,4.295-2.385,4.295
					S162.78,137.689,161.957,135.858z"/>
				<path fill="#F9C955" d="M155.053,143.935c0,0-10.096-6.504-10.625-5.747c-0.529,0.756-3.423,6.897-2.972,7.594
					c0.452,0.697,3.686,2.114,3.686,2.114l2.064-3.344l6.901,3.423L155.053,143.935z"/>
				<path fill="#F9C955" d="M172.64,82.893c-0.434,0.016-6.072,1.264-5.803,2.199c0.265,0.933,1.623,2.688,1.623,2.688l-7.168,2.392
					l1.831,5.163l6.309-1.574l2.109,3.178l6.061-2.371C177.602,94.568,173.884,82.858,172.64,82.893z"/>
				<path fill="#F9C955" d="M175.416,101.968c-0.316-0.125-11.154-3.777-12.04-1.095c-0.886,2.681-1.988,5.467,1.07,7.68
					c3.059,2.203,7.804,3.292,7.804,3.292l1.003-2.896c0,0-5.187-2.054-5.043-3.29c0.131-1.104,5.699,0.812,5.699,0.812
					L175.416,101.968z"/>
				<path fill="#F9C955" d="M165.831,125.813c0,0,6.07-4.752,4.803-7.895c-1.271-3.145-6.074-7.149-9.37-6.794
					c-3.785,0.408-5.604,4.281-5.152,8.048c0.454,3.77,2.588,5.841,2.588,5.841l3.359-5.598l-2.299-1.322
					c0,0,0.732-3.208,3.283-2.259c2.548,0.949,4.36,2.317,2.586,4.91c-1.779,2.587-2.47,2.565-2.47,2.565L165.831,125.813z"/>
			</g>
		</g>
	</g>
</g>
</svg>
