<?xml version="1.0" encoding="utf-8"?>
<!-- Generator: Adobe Illustrator 16.0.0, SVG Export Plug-In . SVG Version: 6.00 Build 0)  -->
<!DOCTYPE svg PUBLIC "-//W3C//DTD SVG 1.1//EN" "http://www.w3.org/Graphics/SVG/1.1/DTD/svg11.dtd">
<svg version="1.1" id="Capa_1" xmlns="http://www.w3.org/2000/svg" xmlns:xlink="http://www.w3.org/1999/xlink" x="0px" y="0px"
	 width="250px" height="250px" viewBox="0 0 250 250" enable-background="new 0 0 250 250" xml:space="preserve">
<g>
	<g>
		<g>
			<circle fill="#EFCFAC" cx="125" cy="125.002" r="80.014"/>
		</g>
		<g>
			
				<circle fill="none" stroke="#FFFFFF" stroke-width="0.5636" stroke-linecap="round" stroke-linejoin="round" stroke-miterlimit="10" stroke-dasharray="2.2208" cx="125.002" cy="125.002" r="75.564"/>
		</g>
		<g>
			<g>
				<g>
					<defs>
						<path id="SVGID_1_" d="M198.189,125.002c0,40.421-32.765,73.189-73.189,73.189c-40.421,0-73.19-32.77-73.19-73.189
							c0-40.423,32.77-73.19,73.19-73.19C165.426,51.812,198.189,84.579,198.189,125.002z"/>
					</defs>
					<clipPath id="SVGID_2_">
						<use xlink:href="#SVGID_1_"  overflow="visible"/>
					</clipPath>
					<path clip-path="url(#SVGID_2_)" fill="#B4DFF1" d="M200.639,155.63c4.017-9.721,6.233-20.37,6.233-31.537
						c0-45.645-37.003-82.648-82.652-82.648c-45.645,0-82.648,37.003-82.648,82.648c0,11.167,2.218,21.816,6.234,31.537H200.639z"/>
				</g>
				<g>
					<defs>
						<path id="SVGID_3_" d="M198.189,125.002c0,40.421-32.765,73.189-73.189,73.189c-40.421,0-73.19-32.77-73.19-73.189
							c0-40.423,32.77-73.19,73.19-73.19C165.426,51.812,198.189,84.579,198.189,125.002z"/>
					</defs>
					<clipPath id="SVGID_4_">
						<use xlink:href="#SVGID_3_"  overflow="visible"/>
					</clipPath>
				</g>
				<g>
					<defs>
						<path id="SVGID_5_" d="M198.189,125.002c0,40.421-32.765,73.189-73.189,73.189c-40.421,0-73.19-32.77-73.19-73.189
							c0-40.423,32.77-73.19,73.19-73.19C165.426,51.812,198.189,84.579,198.189,125.002z"/>
					</defs>
					<clipPath id="SVGID_6_">
						<use xlink:href="#SVGID_5_"  overflow="visible"/>
					</clipPath>
					<g clip-path="url(#SVGID_6_)">
						<path fill="#78CBEF" d="M45.596,149.734c12.553,29.654,41.92,50.457,76.144,50.457c34.223,0,63.59-20.803,76.143-50.457
							H45.596z"/>
					</g>
				</g>
				<g>
					<defs>
						<path id="SVGID_7_" d="M198.189,125.002c0,40.421-32.765,73.189-73.189,73.189c-40.421,0-73.19-32.77-73.19-73.189
							c0-40.423,32.77-73.19,73.19-73.19C165.426,51.812,198.189,84.579,198.189,125.002z"/>
					</defs>
					<clipPath id="SVGID_8_">
						<use xlink:href="#SVGID_7_"  overflow="visible"/>
					</clipPath>
					<g opacity="0.5" clip-path="url(#SVGID_8_)">
						
							<linearGradient id="SVGID_9_" gradientUnits="userSpaceOnUse" x1="-187.6597" y1="452.1484" x2="-187.6597" y2="502.6055" gradientTransform="matrix(1 0 0 -1 312.6602 652.3398)">
							<stop  offset="0" style="stop-color:#2580C3;stop-opacity:0"/>
							<stop  offset="1" style="stop-color:#2580C3"/>
						</linearGradient>
						<path fill="url(#SVGID_9_)" d="M48.856,149.734c12.553,29.654,41.92,50.457,76.144,50.457
							c34.225,0,63.591-20.803,76.145-50.457H48.856z"/>
					</g>
				</g>
				<g>
					<defs>
						<path id="SVGID_10_" d="M198.189,125.002c0,40.421-32.765,73.189-73.189,73.189c-40.421,0-73.19-32.77-73.19-73.189
							c0-40.423,32.77-73.19,73.19-73.19C165.426,51.812,198.189,84.579,198.189,125.002z"/>
					</defs>
					<clipPath id="SVGID_11_">
						<use xlink:href="#SVGID_10_"  overflow="visible"/>
					</clipPath>
					<path clip-path="url(#SVGID_11_)" fill="#EFCFAC" d="M147.455,153.416c-10.036-4.456-23.336-13.57-28.37-22.038
						c-2.768-4.659,0.517-10.901-8.444-8.618l-3.652-2.489c12.795,23.17,30.368,38.079,60.173,45.497
						c15.122,3.77,40.252,11.146,53.705,0.399C195.084,161,170.831,163.799,147.455,153.416z"/>
				</g>
				<g>
					<defs>
						<path id="SVGID_12_" d="M198.189,125.002c0,40.421-32.765,73.189-73.189,73.189c-40.421,0-73.19-32.77-73.19-73.189
							c0-40.423,32.77-73.19,73.19-73.19C165.426,51.812,198.189,84.579,198.189,125.002z"/>
					</defs>
					<clipPath id="SVGID_13_">
						<use xlink:href="#SVGID_12_"  overflow="visible"/>
					</clipPath>
					<g clip-path="url(#SVGID_13_)">
						<path fill="#5E9231" stroke="#5E9231" stroke-width="0.083" stroke-miterlimit="10" d="M137.186,126.348
							c-0.028-0.314-0.082-0.621-0.179-0.91C137.061,125.758,137.116,126.053,137.186,126.348z"/>
						<path fill="#5E9231" stroke="#5E9231" stroke-width="0.083" stroke-miterlimit="10" d="M137.186,126.348
							c0.004,0.024,0.004,0.049,0.008,0.068c0.017,0.049,0.033,0.102,0.049,0.148C137.221,126.493,137.201,126.42,137.186,126.348z"
							/>
						<path fill="#5E9231" stroke="#5E9231" stroke-width="0.083" stroke-miterlimit="10" d="M131.352,117.225
							c0.76,0.215,1.516,0.417,2.197,0.675C132.878,117.536,132.091,117.375,131.352,117.225z"/>
						<path fill="#5E9231" stroke="#5E9231" stroke-width="0.083" stroke-miterlimit="10" d="M137.241,126.564
							c0.067,0.275,0.153,0.555,0.259,0.865C137.427,127.141,137.334,126.854,137.241,126.564z"/>
						<path fill="#5E9231" stroke="#5E9231" stroke-width="0.083" stroke-miterlimit="10" d="M83.742,103.107
							c0.372-0.119,0.667-0.247,0.897-0.386C84.353,102.802,84.062,102.915,83.742,103.107z"/>
						<path fill="#5E9231" stroke="#5E9231" stroke-width="0.083" stroke-miterlimit="10" d="M111.223,105.335
							c-0.016-0.006-0.041-0.012-0.061-0.024c-0.133,0.194-0.271,0.384-0.404,0.574L111.223,105.335z"/>
						
							<path fill="#5E9231" stroke="#5E9231" stroke-width="0.3319" stroke-linecap="round" stroke-linejoin="round" stroke-miterlimit="10" d="
							M125.59,92.208c-0.327-0.457-0.731-0.781-1.2-0.925c0.242,0.521,0.589,1.002,1.086,1.418c-0.012,0.079-0.02,0.162-0.024,0.242
							c-1.357-1.624-3.458-2.8-5.39-1.959c-1.923,0.833-4.408,5.232-5.486,6.985c-0.574,0.925-0.982,1.847-1.285,2.779
							c-0.283,0.225-0.558,0.473-0.833,0.808c0.735-0.929,1.245-2.01,1.426-3.167c-0.335,0.279-0.565,0.48-0.869,0.784
							c0.469-1.366,1.406-2.659,1.289-4.052c-0.368,0.271-0.711,0.477-1.03,0.709c0.387-0.59,0.658-1.246,0.743-1.941
							c-0.554,0.701-1.321,1.442-1.814,2.246c0.691-1.111,1.325-2.387,0.965-3.644c-0.287,0.481-0.751,0.99-1.038,1.525
							c0.194-0.596,0.214-1.137,0.327-1.675c-0.141-0.194-0.537,0.517-0.606,0.453c-0.048-0.521,0.089-0.879-0.012-1.414
							c0.048-0.404,0.069-0.804,0.113-1.232c-0.206,0.22-0.469,0.471-0.703,0.739c0.077-0.795-0.247-1.628-0.23-2.331
							c-0.149,0.319-0.501,0.841-0.687,1.265c-0.032-0.824-0.538-1.672-0.691-2.452c-0.154,0.198-0.347,0.485-0.513,0.679
							c-0.416-0.982-1.103-1.77-1.676-2.648c0.008-0.03-0.546,0.261-0.509,0.261c0.162,0.701,0.129,1.256,0.424,1.976
							c-0.44-0.945-1.229-1.665-1.794-2.198c0.182,1.081,0.558,2.153,1.099,3.139c-0.889-0.8-1.677-1.744-2.352-2.739
							c0.243,1.171,0.743,2.325,1.455,3.313c-0.594-0.739-1.358-1.435-1.963-2.164c0.424,1.236,0.949,2.565,1.68,3.65
							c-0.642-0.828-1.361-1.587-2.181-2.193c0.287,0.943,0.723,1.828,1.289,2.63c-0.23-0.133-0.469-0.248-0.711-0.379
							c0.453,1.374,1.018,2.771,1.83,3.991c-0.639-0.812-1.543-1.495-2.299-2.169c0.081,0.432,0.214,0.844,0.384,1.24
							c-0.02-0.016-0.036-0.036-0.057-0.054c0.444,2.648,2.549,5.25,4.509,7.033c-1.131-0.943-2.097-2.11-3.111-3.169
							c0.138,0.626,0.375,1.22,0.683,1.775c-0.073,0.632-0.254,1.505-0.198,2.265c-0.355-1.412-0.63-3.059-1.285-4.416
							c-0.178,0.574-0.266,1.176-0.295,1.778c-0.097-0.729-0.254-1.451-0.509-2.129c-0.052,0.802-0.274,1.669-0.283,2.489
							c-0.097-1.466-0.404-2.921-0.905-4.298c-0.069,0.973-0.243,2.014-0.202,2.983c-0.085-1.085-0.444-2.014-0.929-2.959
							c-0.053,0.417-0.069,0.838-0.061,1.261c-0.223-0.618-0.534-1.228-0.829-1.802c0.037,0.871,0.049,1.593,0.218,2.403
							c-0.186-0.71-0.69-2.175-1.147-2.969c0.104,0.312,0.25,0.889,0.388,1.289c-0.788-1.087-1.665-2.267-2.65-3.065
							c0.198,0.592,0.295,1.206,0.558,1.812c-0.525-1.438-1.43-2.567-2.444-3.711c0.384,0.883,0.82,1.473,1.418,2.119
							c-0.82-0.792-1.984-1.479-2.949-2.007c0.166,0.343,0.283,0.624,0.44,0.88c-0.691-0.493-1.495-0.784-2.327-0.707
							c0.259,0.602,0.659,1.123,1.147,1.547c-0.521-0.202-1.05-0.359-1.56-0.437c0.38,0.663,0.929,1.188,1.572,1.588
							c-0.639-0.164-1.285-0.186-1.943,0.109c0.396,0.768,1.135,1.244,1.979,1.547c-0.283,0.016-0.562,0.054-0.844,0.117
							c0.352,0.535,0.844,0.895,1.414,1.155c-0.209,0.026-0.42,0.077-0.622,0.157c0.553,0.568,1.284,0.867,2.076,1.047
							c0.699,0.683,1.625,1.05,2.582,1.337c-0.339-0.024-0.671-0.018-0.974,0.01c0.432,0.681,1.151,1.121,1.963,1.424
							c0.154,0.271,0.352,0.498,0.59,0.693c0.081,0.568,0.072,1.239,0.226,1.703c-0.529-0.873-1.313-1.668-1.81-2.537
							c-0.157,0.162-0.036,0.457-0.157,0.65c-0.238,0.239-0.586-0.262-0.76-0.182c0.174,0.4,0.4,0.792,0.538,1.204
							c-0.372-0.602-0.845-1.151-1.212-1.771c0.17,0.551,0.267,1.133,0.457,1.674c-0.372-0.473-1.224-1.301-1.607-1.889
							c-0.013,0.104,0.016,0.196,0.084,0.275c-0.885-0.776-1.786-1.536-2.723-2.243c0.55,0.77,0.792,1.626,1.252,2.426
							c-1.083-0.897-2.093-1.959-3.365-2.626c0.658,1.064,1.551,1.996,2.234,3.016c-1.47-0.938-2.868-2.075-4.504-2.713
							c0.865,0.82,1.846,1.517,2.836,2.212c-1.442-0.774-3.361-1.424-4.876-0.911c0.784,0.432,1.374,1.271,1.98,1.713
							c-1.458-0.319-2.844-0.901-4.274-1.226c1.442,1.101,2.493,2.26,1.103,3.092c0.529-0.149,1.03-0.166,1.6-0.254
							c-0.388,0.491-0.748,1.245-1.188,1.697c0.768-0.907,1.762-1.656,2.921-1.978c-0.715,0.895-1.333,1.865-1.81,2.903
							c0.23-0.323,0.424-0.602,0.646-0.856c0.093,0.877,0.457,1.234,0.352,2.259c1.046-1.685,2.209-3.538,3.652-4.873
							c-0.133,1.281-0.598,2.642-0.694,3.998c0.189-0.426,0.392-0.827,0.573-1.238c-0.259,0.873-0.117,1.774,0.448,2.578
							c0.574-0.794,0.994-1.84,1.229-2.909c-0.125,1.422,0.028,2.921,0.925,4.028c0.957-1.431,1.426-3.252,2.497-4.61
							c-0.23,1.743-1.35,3.497-0.562,5.22c0.78-1.038,1.184-2.368,1.895-3.515c-0.344,1.272-0.812,3.139-0.602,4.575
							c0.994-0.949,1.354-2.705,2.036-3.933c-0.226,1.547-0.65,3.032,0.025,4.509c0.679-1.044,0.998-2.46,1.382-3.719
							c-0.206,1.125-0.077,2.292,0.387,3.307c0.485-0.981,0.731-2.287,0.909-3.45c0.044,1.509,0.125,3.434,1.402,4.267
							c0.138-0.56,0.303-0.994,0.287-1.433c0.533,1.091,1.244,1.719,1.765,1.743c-2.307,0.713-4.67,2.091-6.581,3.172
							c-5.01,2.824-9.296,6.165-8.998,12.347c1.277-2.723,0.99-5.144,3.661-7.374c-1.083,1.224-1.818,2.885-1.523,4.529
							c1.256-0.796,2.125-2.283,2.787-3.834c-0.012,0.214-0.02,0.428-0.003,0.638c1.717-1.272,2.614-3.769,3.987-5.478
							c-0.646,1.026-1.224,2.17-1.41,3.269c1.645-0.646,2.477-2.436,3.705-3.685c-0.453,0.849-0.829,1.898-0.982,2.844
							c-3.196,3.183-4.658,7.789-2.303,12.31c0.069-0.359,0.129-0.723,0.186-1.096c0.945,0.354,2.036,0.305,3.054,0.051
							c-1.184,0.59-2.606,0.947-3.709,1.502c0.311-0.008,0.626-0.024,0.938-0.049c-0.311,0.238-0.566,0.524-0.731,0.877
							c0.263-0.021,0.521-0.041,0.784-0.061c-0.909,0.241-1.62,0.689-1.656,1.619c0.533,0.138,1.111,0.279,1.693,0.355
							c-0.849,0.121-1.746,0.452-2.311,0.965c0.335-0.023,0.695-0.039,1.059-0.075c-0.497,0.146-0.97,0.339-1.483,0.517
							c0.606,0.036,1.471,0.404,2.085,0.505c-0.012,0.017-0.024,0.037-0.041,0.054c-1.362,0.233-2.538,0.893-1.903,2.197
							c0.424-0.134,0.804-0.34,1.135-0.594c-0.041,0.201-0.077,0.407-0.085,0.618c1.135-0.586,1.956-1.657,2.412-2.856
							c-0.254,0.764-0.227,1.637-0.368,2.389c1.612-1.277,2.569-4.113,3.442-6.058c-0.542,1.604-1.301,3.216-1.281,4.909
							c1.273-1.451,1.831-3.673,2.449-5.588c-0.134,0.796-0.129,1.729-0.287,2.559c0.998-1.541,1.479-3.508,1.757-5.354
							c-0.056,0.72,0,1.471,0.033,2.137c0.816-1.082,1.252-2.442,1.426-3.833c0.416-0.332,0.715-0.8,0.921-1.325
							c0.751-0.323,1.482-0.824,2.081-1.382c-0.917,0.99-1.911,2.157-2.509,3.271c0.267-0.129,0.525-0.273,0.78-0.437
							c-0.481,0.582-0.909,1.208-1.281,1.818c0.82-0.323,1.793-0.461,2.565-1.115c-0.958,1.584-2.679,2.606-3.442,4.308
							c1.022-0.578,2.044-1.307,3.042-1.992c-1.402,1.572-2.941,3.144-3.406,5.261c0.618-0.448,1.438-0.711,2.02-1.265
							c-2.432,3.781,0.101,5.373,0.84,3.18c-0.065,0.889,0.157,1.773,0.65,2.554c0.626-0.881,0.824-0.815,0.485-2.274
							c0.622,0.885,1.511,1.604,2.46,1.972c0.057-0.649-0.073-1.325-0.343-1.947c0.202,0.242,0.412,0.466,0.638,0.695
							c-0.525-1.382-1.058-2.743-1.822-4c0.521,0.731,1.212,1.346,1.988,1.753c-0.493-2.464-1.907-4.855-2.473-7.215
							c1.07,1.355,2,2.9,3.131,4.181c-0.392-2.022-1.527-3.797-1.749-5.864c0.667,0.742,1.454,1.812,2.182,2.637
							c-0.129-1.418-0.845-3.143-1.54-4.584c0.404,0.529,0.941,0.925,1.305,1.305c0.016-0.538-0.109-1.164-0.332-1.77
							c0.332,0.372,0.764,0.695,1.236,0.958c0.004,0,0.004,0,0.008,0c-0.335,0.553-0.634,1.119-0.808,1.693
							c1.212-0.655,2.287-1.766,3.099-2.873c-0.812,1.414-1.854,2.803-2.311,4.327c0.234-0.104,0.452-0.238,0.658-0.38
							c-0.396,0.604-0.683,1.245-0.735,1.956c1.208-0.913,2-2.243,3.244-3.132c-0.699,1.324-1.866,2.881-2.379,4.303
							c1.034-0.848,1.822-2.048,2.505-3.195c-0.622,1.051-1.075,2.34-1.527,3.413c0.262-0.137,0.509-0.312,0.743-0.513
							c-0.307,0.667-0.505,1.33-0.521,1.927c1.321-0.634,2.242-2.117,3.01-3.389c-0.667,1.368-1.527,2.909-1.499,4.362
							c1.054-0.849,1.753-2.084,2.679-3.082c-1.042,1.211-1.911,2.608-2.198,4.186c0.614-0.34,1.083-0.784,1.442-1.346
							c-0.247,0.707-0.34,1.467-0.247,2.152c0.258-0.238,0.48-0.455,0.675-0.679c-0.17,0.574-0.23,1.2-0.206,1.813
							c0.295-0.545,0.747-1.025,1.022-1.688c-0.101,0.824,0.089,1.785,0.069,2.577c0.198-0.488,0.598-1.056,0.812-1.601
							c-0.149,1.5-0.084,3.111,0.606,4.461c0.064-0.246,0.149-0.484,0.262-0.711c0.122,0.688,0.521,1.506,0.594,2.226
							c0.186-0.604,0.263-1.215,0.295-1.882c0.044,0.021,0.194,0.469,0.182,0.509c-0.064-3.188-2.174-5.879-2.129-9.114
							c0.909,1.811,1.467,3.745,2.21,5.615c-0.303-1.923-1.131-4.508-1.527-6.662c0.307,1.035,0.82,2,1.475,2.796
							c-0.509-1.843-1.382-3.596-2.141-5.364c0.61,1.037,0.978,0.998,1.834,1.641c-0.117-1.2-0.853-2.42-1.6-3.499
							c0.36,0.429,0.711,0.653,1.164,1.038c-0.497-1.115-1.317-2.044-2.129-2.965c0.38,0.348,0.796,0.643,1.253,0.913
							c-0.429-0.961-0.982-1.858-1.604-2.703c0.428,0.327,0.917,0.586,1.45,0.764c-0.271-0.84-0.756-1.588-1.342-2.25
							c0.008-0.048,0.008-0.097,0.017-0.146c0.218,0.117,0.44,0.23,0.667,0.352c-0.133-0.392-0.315-0.784-0.521-1.16
							c0.013-0.064,0.025-0.129,0.037-0.194c0.247,0.23,0.396,0.897,0.497,1.067c0.214-0.271,0.404-0.558,0.582-0.856
							c0.125,0.497,0.238,0.998,0.368,1.482c0.012-0.081,0.028-0.166,0.053-0.246c0.153,0.537,0.315,1.07,0.355,1.511
							c0.315-0.453,0.416-0.719,0.634-1.241c0.012,0.534,0.214,1.156,0.149,1.746c0.158-0.271,0.275-0.82,0.376-1.127
							c0.117,0.513,0.242,1.047,0.331,1.592c0.041-0.069,0.404-0.812,0.433-0.816c0.125,0.723,0.663,1.543,0.784,2.283
							c0.234-0.743,0.618-1.438,0.755-2.218c-0.141,0.715-0.052,1.454-0.109,2.157c0.174-0.303,0.509-0.695,0.684-0.933
							c0.057,0.812,0.576,1.713,0.649,2.525c0.392-0.224,0.63-0.772,0.849-1.192c-0.009-0.012,0.399,0.36,0.473,0.517
							c0-0.186-0.004-0.368-0.008-0.549c0.562-1.927,0.707-4.323,1.867-5.915c0.639,2.092,0.477,5.188,1.789,6.75
							c0.182-0.84,0.559-1.826,0.635-2.65c-0.207,1.386-0.102,2.853,0.067,4.243c0.69-1.451,0.497-3.24,1.245-4.703
							c1.207,2.533-0.336,5.664,0.957,8.229c0.384-0.573,0.684-1.315,0.895-2.071c-0.162,1.162-0.199,2.334,0.317,3.36
							c1.131-1.248,2.024-3.401,1.897-5.208c-0.436-1.26-1.028-2.505-1.555-3.741c0.162,0.339,0.51,0.865,0.598,1.002
							c-0.553-1.85-1.547-3.49-2.848-4.917c0.643,0.295,1.176,0.408,1.68,0.553c-1.394-0.949-3.349-0.893-4.479-2.254
							c0.242,0.061,0.501,0.109,0.764,0.166c-1.32-0.375-2.654-0.788-3.647-1.616c0.768-0.069,1.563-0.501,2.036-0.618
							c-1.084-0.234-2.412-0.477-3.346-1.006c0.223-0.295,0.5-0.707,0.728-0.962c-0.804-0.707-2.012-0.529-3.062,0.17
							c0.332-1.54-0.186-1.826-0.86-1.507c-0.408-0.857-0.465-1.699-0.655-2.543c0.473,0.645,1.111,1.243,1.52,1.974
							c-0.328-0.618-0.614-1.269-0.772-1.903c0.073,0.069,0.146,0.142,0.214,0.218c-0.044-0.489,0.173-0.998,0.339-1.352
							c0.735,0.788,1.312,1.695,1.83,2.673c-0.303-0.545-0.578-1.245-0.784-1.873c0.311,0.378,0.625,0.754,0.897,1.146
							c0.093,0.33,0.223,0.659,0.432,0.992c-0.113-0.309-0.236-0.608-0.376-0.907c0.037,0.048,0.069,0.097,0.103,0.146
							c-0.166-0.638-0.103-1.305-0.108-1.931c0.415,0.218,0.755,0.598,1.029,1.054c-0.081-0.226-0.157-0.457-0.228-0.691
							c0.094,0.117,0.19,0.234,0.283,0.356c0.51,1.196,1.021,2.392,1.535,3.587c-0.094-0.21-0.17-0.424-0.238-0.639
							c-0.008-0.016-0.016-0.032-0.023-0.05c0.004,0,0.004,0,0.009,0c-0.162-0.485-0.287-0.968-0.44-1.449
							c0.416,0.428,0.848,1.03,1.144,1.672c1.516,0.604,2.885,1.915,4.157,2.82c-0.399-1.232-0.957-3.196-1.729-5.054
							c0.626-1.412-0.287-2.99-1.289-4.117c0.004,0.081,0.014,0.377,0.023,0.537c-0.352-1.349-1.021-2.519-2.465-2.735
							c0.139,0.024,0.149-0.541,0.105-0.61c-0.412,0.21-0.909,0.312-1.325,0.513c-0.008-0.021-0.017-0.039-0.028-0.057
							c0.162-0.299,0.345-0.731,0.488-1.03c0.309,0.085,0.61,0.182,0.934,0.275c-0.322-0.525-0.84-1.014-1.481-1.382
							c0.404-0.477,0.792-0.941,1.172-1.323c-0.428,0.414-0.84,0.843-1.249,1.279c-0.755-0.412-1.676-0.659-2.682-0.608
							c0.368-0.293,0.707-0.607,1.014-0.947c-0.764,0.364-1.665,0.6-2.396,0.936c1.689-1.091,3.688-2.204,4.763-3.808
							c-1.64,0.417-3.001,1.568-4.412,2.505c1.648-1.348,4.145-3.006,4.957-4.893c-0.688,0.331-1.535,0.531-2.209,0.969
							c1.042-0.747,1.862-1.818,2.137-3.066c-0.201,0.065-0.392,0.154-0.578,0.247c0.162-0.388,0.26-0.808,0.279-1.252
							C126.261,91.203,125.805,91.586,125.59,92.208z M124.212,93.15c0.032,0.008,0.061,0.02,0.089,0.028
							c-0.004,0.109-0.016,0.218-0.021,0.327C124.261,93.384,124.236,93.267,124.212,93.15z M122.79,93.031
							c0.376-0.062,0.727-0.039,1.067,0.03c-0.158,0.586-0.186,1.261-0.109,1.882c0,0,0,0,0-0.001
							c-0.226-0.54-0.509-1.059-0.784-1.538c-0.105,0.033-0.202,0.073-0.291,0.119c-0.121-0.175-0.234-0.357-0.339-0.547
							c0.166,0.022,0.323,0.053,0.481,0.091C122.81,93.055,122.798,93.041,122.79,93.031z M118.895,95.61
							c-0.04,0.065-0.081,0.133-0.121,0.202c-0.016-0.083-0.032-0.164-0.041-0.246C118.787,95.578,118.843,95.598,118.895,95.61z
							 M116.56,112.096c-0.335-0.394-0.699-0.761-1.026-1.092l0.775,1.301c-0.319,0.267-0.61,0.547-0.881,0.836
							c-0.004-0.008-0.008-0.014-0.016-0.02c0,0,0.008,0.012,0.016,0.024c-0.02,0.022-0.036,0.04-0.056,0.061
							c-0.364-0.396-0.841-0.695-1.366-0.854c0.162-0.396,0.485-0.75,0.901-1.037c0.036,0.006,0.069,0.016,0.105,0.024
							c-0.021-0.02-0.041-0.034-0.061-0.053c1.026-0.688,2.577-0.978,3.591-0.488C117.845,111.171,117.17,111.609,116.56,112.096z
							 M108.662,118.004c-0.057-0.073-0.117-0.068-0.19,0.113c0.012,0.032,0.016,0.064,0.028,0.101
							c-0.016,0.016-0.033,0.032-0.049,0.053l-1.216-0.489c-0.291,0.053-0.614,0.125-0.958,0.21c0.23-0.55,0.428-1.111,0.638-1.632
							c0.129,0.363,0.38,0.735,0.525,1.107c0.347-0.222,1.075-0.667,1.891-1.192C109.179,116.93,108.981,117.536,108.662,118.004z
							 M101.996,121.661c0.024-0.186,0.053-0.368,0.077-0.553c0.23-0.008,0.461-0.012,0.691-0.016
							c0.004,0.061,0.004,0.121,0.004,0.182C102.497,121.374,102.238,121.507,101.996,121.661z M102.278,119.633
							c0.044-0.299,0.097-0.598,0.162-0.889c0.024,0.234,0.061,0.477,0.105,0.727C102.452,119.524,102.363,119.576,102.278,119.633z
							 M114.12,100.333c0.287-0.061,0.57-0.065,0.853-0.021c-0.23,1.008-0.173,2.125-0.097,3.196
							c-0.084-0.808-0.243-1.612-0.464-2.375c-0.117,0.178-0.219,0.368-0.303,0.562c-0.129-0.281-0.218-0.583-0.267-0.899
							C113.938,100.643,114.031,100.487,114.12,100.333z M115.635,99.178c0.19-0.052,0.376-0.081,0.558-0.085
							c-0.121,0.57-0.157,1.154-0.146,1.746C115.95,100.276,115.813,99.723,115.635,99.178z M121.61,105.522
							c-0.343,0.362-0.699,0.693-1.075,0.968c-0.206-0.178-0.457-0.312-0.751-0.38c0.105,0.219,0.239,0.425,0.396,0.618
							c-0.323,0.194-0.663,0.341-1.018,0.42c-0.057-0.044-0.113-0.089-0.174-0.125c0.182-0.317,0.388-0.63,0.614-0.941
							c0.061,0.008,0.126,0.019,0.182,0.028c-0.028-0.057-0.048-0.117-0.073-0.174c0.226-0.303,0.464-0.602,0.703-0.9
							C120.867,105.137,121.275,105.299,121.61,105.522z M115.639,108.228c-0.052,0.037-0.105,0.077-0.158,0.115
							c0-0.022-0.004-0.039-0.004-0.061C115.534,108.26,115.583,108.246,115.639,108.228z M119.526,105.208
							c-0.008-0.093-0.013-0.19-0.008-0.285c0.138,0.004,0.274,0.016,0.404,0.032C119.792,105.04,119.659,105.121,119.526,105.208z
							 M116.613,107.149c0.117-0.133,0.291-0.247,0.497-0.323C116.948,106.935,116.778,107.042,116.613,107.149z M113.769,103.658
							c-0.036-0.149-0.073-0.297-0.113-0.448c0.037,0,0.073,0,0.109-0.002C113.761,103.355,113.756,103.509,113.769,103.658z
							 M114.221,109.264c-0.222,0.151-0.457,0.301-0.691,0.434c0-0.081,0.008-0.16,0.02-0.24
							C113.777,109.369,114.003,109.306,114.221,109.264z M113.562,110.688c0.158,0.061,0.291,0.101,0.416,0.135
							c-0.274-0.269-0.433-0.622-0.448-1.028c0.662-0.194,1.442-0.362,2.247-0.477c0.003,0,0.008,0.004,0.016,0.004
							c0-0.004-0.004-0.004-0.004-0.004c0.404-0.061,0.812-0.101,1.212-0.129c-0.174,0.142-0.343,0.283-0.509,0.429
							c-0.214-0.122-0.449-0.223-0.699-0.295c0.137,0.168,0.332,0.301,0.566,0.404c-0.55,0.481-1.066,0.97-1.535,1.458
							c-0.275-0.202-0.509-0.263-0.845-0.362c0.198,0.2,0.457,0.354,0.768,0.446c-0.332,0.348-0.639,0.691-0.914,1.03
							c-0.222-0.052-0.452-0.087-0.683-0.093l0.064-0.58c0.295-0.042,0.61-0.063,0.966,0.006
							C113.946,111.365,113.805,110.926,113.562,110.688z M108.088,110.66c-0.259-0.038-0.521-0.067-0.784-0.073
							c-0.113-0.842-0.307-1.685-0.444-2.48C107.147,109.007,107.555,109.88,108.088,110.66z M107.632,108.409
							c1.131,0.804,2.016,1.968,3.09,2.829c-0.614-0.111-1.256-0.299-1.919-0.445C108.65,109.971,108.177,109.11,107.632,108.409z
							 M113.211,111.629c-0.041,0.192-0.081,0.388-0.125,0.582c-0.061,0-0.122,0.002-0.182,0.002
							c-0.061-0.099-0.137-0.182-0.234-0.252c0.081-0.085,0.15-0.178,0.214-0.279C112.989,111.664,113.098,111.646,113.211,111.629z
							 M112.177,111.311l-0.198,0.003c-0.355,0.037-0.723,0.006-1.103-0.052c-0.683-1.43-1.329-2.858-2.493-3.697l4.213,2.863
							C112.443,110.72,112.306,111.015,112.177,111.311z M104.052,117.419c0.008,0.412,0.133,0.812,0.295,1.188
							c-0.23,0.089-0.46,0.186-0.687,0.287C103.793,118.405,103.919,117.908,104.052,117.419z M112.488,120.619
							c0.064-0.036,0.125-0.069,0.182-0.109c0.049,0.036,0.093,0.068,0.142,0.101c-0.064,0.089-0.121,0.186-0.182,0.279
							C112.585,120.796,112.536,120.708,112.488,120.619z M112.888,121.467c0.186-0.157,0.364-0.331,0.529-0.517
							c0.041,0.02,0.085,0.04,0.125,0.056c-0.174,0.287-0.339,0.574-0.497,0.86C112.997,121.733,112.944,121.596,112.888,121.467z
							 M119.449,109.298c0.246,0.055,0.468,0.129,0.65,0.226c0.004-0.008,0.004-0.016,0.008-0.022
							c0.133,0.137,0.263,0.276,0.388,0.424c-0.537,0.188-1.086,0.422-1.628,0.701C118.916,109.949,119.21,109.732,119.449,109.298z
							 M120.564,109.9c-0.097-0.388-0.028-0.707-0.037-1.184c0.028-0.036,0.065-0.062,0.093-0.093
							c0.347,0.299,0.67,0.628,0.974,0.982C121.263,109.682,120.916,109.781,120.564,109.9z M123.562,104.475
							c-0.271-0.513-0.748-0.849-1.386-0.905c0.202,0.424,0.562,0.788,1.144,1.046c-0.562,0.319-1.103,0.594-1.584,0.78
							c-0.024,0.024-0.052,0.048-0.073,0.075c-0.287-0.323-0.569-0.648-0.784-1.014c0.037-0.046,0.077-0.095,0.113-0.143
							c-0.048,0.028-0.101,0.061-0.149,0.089c-0.089-0.164-0.166-0.335-0.222-0.521c0.585-0.256,1.107-0.35,1.555-0.311
							c-0.052-0.105-0.101-0.214-0.133-0.331c0.824,0.194,1.608,0.436,2.332,0.739C124.103,104.147,123.833,104.317,123.562,104.475
							z M116.896,97.582c0.121-0.021,0.25-0.026,0.392-0.012c-0.101,0.162-0.182,0.331-0.25,0.509
							C116.997,97.909,116.948,97.748,116.896,97.582z M117.643,97.19c0.218-0.101,0.432-0.162,0.638-0.182
							c-0.129,0.519-0.194,1.07-0.202,1.632C117.958,98.151,117.805,97.671,117.643,97.19z M120.337,98.634
							c0-0.026-0.003-0.054-0.003-0.083c0.008,0.002,0.012,0.008,0.02,0.008C120.346,98.584,120.346,98.612,120.337,98.634z
							 M117.51,97.259c-0.048,0.059-0.093,0.121-0.138,0.182c-0.008-0.028-0.024-0.052-0.032-0.081
							C117.396,97.323,117.453,97.293,117.51,97.259z M116.754,97.622c-0.189,0.323-0.339,0.665-0.444,1.014
							C116.148,98.124,116.362,97.76,116.754,97.622z M112.067,102.911c0,0.006-0.004,0.016-0.004,0.021
							c-0.048,0.032-0.093,0.057-0.137,0.089C111.975,102.988,112.019,102.947,112.067,102.911z M108.848,102.976
							c0.525,1.008,1.475,2.048,2.315,2.335c0.174-0.242,0.352-0.48,0.529-0.721c-0.012,0.079-0.024,0.156-0.037,0.236l-0.432,0.509
							c0.125,0.037,0.25,0.055,0.368,0.057c-0.097,1.022-0.093,2.014-0.024,2.784l0.824,1.107c0.36-0.012,0.659-0.032,0.938-0.093
							c-0.214,0.323-0.412,0.643-0.59,0.963c-0.929-1.064-2.214-2.155-3.366-3.119l0.396,0.158
							c-0.383-0.616-0.618-0.645-0.853-0.539c-0.097-0.083-0.193-0.166-0.291-0.247c0.554-0.804,0.533-1.777,0.262-2.763
							c0.093,0.048,0.19,0.097,0.287,0.137C109.114,103.719,108.852,103.081,108.848,102.976z M106.403,100.798
							c0.149,0.25,0.323,0.48,0.521,0.691c-0.097,0.562-0.085,1.19,0.04,1.773C106.747,102.45,106.605,101.614,106.403,100.798z
							 M102.173,101.882c0.089,0.111,0.182,0.22,0.283,0.328c-0.691-0.192-1.349-0.362-1.983-0.695
							C101.014,101.699,101.604,101.812,102.173,101.882z M104.957,107.904c0.392,0.939,0.751,1.915,1.301,2.763
							c-0.392,0.063-0.788,0.15-1.188,0.263C105.466,110.631,105.563,109.672,104.957,107.904z M105.604,113.807
							c-0.012,0-0.021,0.004-0.028,0.004c0.016-0.012,0.033-0.028,0.052-0.044C105.62,113.779,105.611,113.795,105.604,113.807z
							 M103.026,113.439c-0.327,0.606-0.679,1.256-0.945,1.895c-0.339,0.206-0.667,0.424-0.986,0.654
							C101.749,115.148,102.347,114.231,103.026,113.439z M100.804,120.077c0.012,0.274,0.021,0.566,0.021,0.856
							c-0.069,0.093-0.134,0.19-0.19,0.287c0.065-0.008,0.129-0.012,0.194-0.02c0.008,0.577,0.008,1.167,0.048,1.729
							c-0.343,0.153-0.662,0.331-0.957,0.553C100.142,122.287,100.274,121.063,100.804,120.077z M98.424,125.677
							c0.158,0.005,0.315,0.009,0.477,0.005c-0.21,0.152-0.396,0.322-0.558,0.524C98.372,126.027,98.4,125.852,98.424,125.677z
							 M97.455,125.543c0,0.631,0.105,1.302,0.206,1.956c-0.109,0.077-0.21,0.166-0.307,0.255
							C97.426,127.01,97.463,126.268,97.455,125.543z M98.166,127.176c0.049-0.223,0.089-0.447,0.129-0.675
							c0.473,0.028,0.945,0.049,1.418,0.04C99.164,126.699,98.639,126.905,98.166,127.176z M98.457,125.454
							c0.138-0.953,0.279-1.918,0.566-2.815c0.012,0.61,0.218,1.426,0.323,2.141C99.026,124.97,98.731,125.192,98.457,125.454z
							 M99.669,124.598c0.052-0.178,0.097-0.359,0.137-0.545c0.404,0.021,0.808,0.008,1.212-0.02
							c0.004,0.016,0.004,0.036,0.008,0.056C100.557,124.214,100.097,124.38,99.669,124.598z M101.83,122.586
							c0.016-0.076,0.032-0.157,0.048-0.238c0.566-0.02,1.14-0.069,1.709-0.158C103.001,122.299,102.4,122.42,101.83,122.586z
							 M102.86,121.241c0.024-0.052,0.048-0.105,0.069-0.154c0.169-0.003,0.343-0.003,0.513-0.008
							C103.244,121.12,103.05,121.172,102.86,121.241z M107.826,121.677c0.109-0.226,0.206-0.457,0.295-0.69
							c0.473-0.223,0.941-0.429,1.374-0.784C108.904,120.667,108.347,121.156,107.826,121.677z M108.634,118.869
							c-0.021-0.141-0.049-0.283-0.085-0.436c0.048-0.021,0.097-0.045,0.149-0.065l0.137,0.057c-0.008-0.037-0.02-0.069-0.032-0.105
							c0.23-0.101,0.457-0.214,0.675-0.335C109.163,118.243,108.884,118.542,108.634,118.869z M113.502,123.511
							c-0.044-0.291-0.113-0.578-0.194-0.869c0.416-0.234,0.808-0.473,1.224-0.954C114.266,122.299,113.886,122.905,113.502,123.511
							z M113.752,120.667c0.004-0.04,0.004-0.081,0.004-0.121c0.42-0.537,0.759-1.091,0.974-1.41
							C114.415,119.637,114.08,120.15,113.752,120.667z M113.53,117.77c-0.044-0.198-0.105-0.392-0.17-0.59
							c0.077-0.092,0.154-0.186,0.23-0.279c0.048,0.044,0.097,0.093,0.149,0.15c-0.024-0.081-0.041-0.169-0.057-0.258
							c0.287-0.328,0.586-0.639,0.917-0.925C114.398,116.542,113.986,117.164,113.53,117.77z M119.348,119.689
							c-0.061-0.065-0.117-0.125-0.174-0.186c0.044,0.028,0.097,0.053,0.142,0.081C119.328,119.621,119.335,119.653,119.348,119.689
							z M118.77,117.564c0.024-0.008,0.044-0.02,0.065-0.032c0.004,0.004,0.008,0.004,0.012,0.008
							c0.008,0.052,0.012,0.101,0.02,0.153C118.835,117.649,118.803,117.609,118.77,117.564z M122.091,112.607
							c0.145-0.291,0.283-0.598,0.428-0.939c-1.091,0.831-2.101,1.786-3.079,2.766c-0.105-0.02-0.209-0.04-0.314-0.064
							c0.88-1.451,2.052-2.796,2.945-4.189c0.384,0.493,0.748,1.01,1.107,1.515C122.827,111.868,122.435,112.199,122.091,112.607z
							 M125.416,102.333c0.041-0.042,0.077-0.085,0.117-0.129c0.404,0.021,0.792,0.097,1.176,0.196
							c-0.23,0.162-0.484,0.339-0.752,0.523c-0.398-0.339-1.001-0.525-1.716-0.562c0.262,0.372,0.687,0.689,1.191,0.921
							c-0.174,0.121-0.352,0.238-0.533,0.359c-0.432-0.408-0.861-0.812-1.164-1.281c0.174-0.008,0.344-0.01,0.505,0
							c-0.008-0.01-0.016-0.016-0.024-0.026c0.42-0.105,0.804-0.139,1.167-0.131c-0.065,0.071-0.133,0.142-0.198,0.214
							C125.263,102.394,125.339,102.361,125.416,102.333z M120.362,98.503c-0.008-0.012-0.021-0.022-0.033-0.032
							c-0.037-0.921-0.238-1.838-0.703-2.589c0.19,0.09,0.375,0.195,0.558,0.311c-0.101-0.03-0.203-0.057-0.304-0.073
							c0.154,0.239,0.38,0.497,0.683,0.768C120.516,97.435,120.459,97.98,120.362,98.503z M120.621,96.273
							c-0.404-0.586-0.776-1.184-1.014-1.875c0.517-0.229,1.002-0.254,1.442-0.121c-0.073-0.149-0.138-0.299-0.19-0.457
							c0.375,0.181,0.748,0.375,1.107,0.582c-0.073,0.224-0.113,0.473-0.129,0.735c-0.024-0.02-0.048-0.042-0.073-0.061
							c-0.028-0.142-0.052-0.283-0.081-0.426c-0.081,0.067-0.154,0.144-0.218,0.218c-0.238-0.135-0.473-0.232-0.69-0.275
							c0.016,0.039,0.032,0.071,0.048,0.105C120.726,95.192,120.669,95.723,120.621,96.273z M120.851,94.758
							c0.089,0.196,0.186,0.384,0.303,0.562c-0.044,0.084-0.089,0.171-0.125,0.262C120.976,95.308,120.916,95.032,120.851,94.758z
							 M125.424,93.825c-0.028-0.062-0.061-0.125-0.093-0.19c0.041,0.022,0.085,0.046,0.125,0.067
							c0.004,0.022,0.004,0.046,0.004,0.07C125.448,93.791,125.437,93.809,125.424,93.825z"/>
						<path fill="#5E9231" stroke="#5E9231" stroke-width="0.083" stroke-miterlimit="10" d="M127.529,124.929
							c0,0.024,0.004,0.049,0.004,0.073C127.555,124.99,127.545,124.966,127.529,124.929z"/>
						<path fill="#5E9231" stroke="#5E9231" stroke-width="0.083" stroke-miterlimit="10" d="M127.541,111.011
							c-0.157-0.567-0.383-1.139-0.675-1.632C127.061,109.937,127.286,110.482,127.541,111.011z"/>
						<path fill="#5E9231" stroke="#5E9231" stroke-width="0.083" stroke-miterlimit="10" d="M128.221,111.993
							c0.29,0.705,0.564,1.285,1.043,1.891c0.063-0.542-0.095-1.147-0.356-1.717c-0.229-0.09-0.464-0.167-0.702-0.224
							C128.208,111.96,128.216,111.977,128.221,111.993z"/>
					</g>
				</g>
				<g>
					<defs>
						<path id="SVGID_14_" d="M198.189,125.002c0,40.421-32.765,73.189-73.189,73.189c-40.421,0-73.19-32.77-73.19-73.189
							c0-40.423,32.77-73.19,73.19-73.19C165.426,51.812,198.189,84.579,198.189,125.002z"/>
					</defs>
					<clipPath id="SVGID_15_">
						<use xlink:href="#SVGID_14_"  overflow="visible"/>
					</clipPath>
					<g clip-path="url(#SVGID_15_)">
						<path fill="#38682B" d="M117.542,110.334c-0.133-1.097-0.889-1.691-1.632-1.885
							C116.002,109.238,116.576,109.904,117.542,110.334z"/>
						<path fill="#38682B" d="M117.95,108.369c0.129,0.626,0.464,1.242,0.954,1.75C118.952,109.409,118.633,108.716,117.95,108.369z
							"/>
						<path fill="#38682B" d="M123.198,105.844c0.263,0.678,0.954,1.341,1.802,1.745
							C124.963,106.777,124.249,106.167,123.198,105.844z"/>
						<path fill="#38682B" d="M120.899,106.502c0.109,0.549,0.448,1.075,1.167,1.523
							C122.01,107.312,121.606,106.753,120.899,106.502z"/>
						<path fill="#38682B" d="M120.079,108.515c0.15,0.303,0.287,0.606,0.375,0.925
							C120.415,109.108,120.277,108.797,120.079,108.515z"/>
						<path fill="#38682B" d="M126.54,107.064c-0.526-1.709-2.667-3.521-5.576-3.063c-2.339,0.37-6.493,3.24-8.238,4.374
							c-2.853,1.852-4.072,3.844-5.401,6.232l1.797-1.907c-0.008-0.021-0.02-0.033-0.032-0.039c0.032,0.002,0.109,0.006,0.274-0.01
							c0.069-0.178-0.065-0.517-0.044-0.703c0.505,0.154,1.139,0.037,1.826,0.372c-0.158-0.321-0.189-0.78-0.36-1.071
							c0.134,0.093,0.255,0.169,0.364,0.234c-0.25-0.42-0.291-0.921-0.073-1.43c0.869-0.107,1.616,0.085,2.206,0.428
							c-0.149-0.317-0.166-0.683-0.044-1.084c0.453-0.055,0.853-0.035,1.2,0.046c-0.376-0.843,0.537-1.236,1.47-0.994
							c-0.008-0.057-0.016-0.117-0.02-0.178c0.876-0.234,1.563-0.16,2.061,0.097c-0.085-0.41-0.077-0.824,0.036-1.22
							c0.929,0.274,1.665,0.757,2.093,1.366c-0.339-0.683-0.731-1.346-0.763-2.101c0.63-0.101,1.159-0.061,1.583,0.089
							c-0.024-0.117-0.044-0.234-0.049-0.351c1.374,0.71,2.574,1.553,3.463,2.561c-0.393-1.042-1.261-1.963-1.6-2.994
							c0.169,0.037,0.331,0.079,0.485,0.125c-0.004-0.011-0.008-0.021-0.012-0.03C124.612,105.824,125.481,106.432,126.54,107.064z"
							/>
						<path fill="#38682B" d="M111.15,111.484c0.186,0.307,0.477,0.574,0.877,0.755C111.752,111.821,111.518,111.706,111.15,111.484
							z"/>
						<path fill="#38682B" d="M114.439,109.444c0.157,0.359,0.558,0.802,1.301,1.312
							C115.671,110.098,115.199,109.618,114.439,109.444z"/>
						<path fill="#38682B" d="M113.284,110.482c0.158,0.335,0.468,0.618,0.945,0.845
							C113.995,111.003,113.676,110.708,113.284,110.482z"/>
					</g>
				</g>
				<g>
					<defs>
						<path id="SVGID_16_" d="M198.189,125.002c0,40.421-32.765,73.189-73.189,73.189c-40.421,0-73.19-32.77-73.19-73.189
							c0-40.423,32.77-73.19,73.19-73.19C165.426,51.812,198.189,84.579,198.189,125.002z"/>
					</defs>
					<clipPath id="SVGID_17_">
						<use xlink:href="#SVGID_16_"  overflow="visible"/>
					</clipPath>
					
						<path clip-path="url(#SVGID_17_)" fill="#38682B" stroke="#38682B" stroke-width="0.3319" stroke-linecap="round" stroke-linejoin="round" stroke-miterlimit="10" d="
						M103.139,117.617c1.03-0.121,2.024-0.287,2.961-0.683c-1.681,0.335-3.03,1.571-3.83,3.086c0.743-0.214,1.471-0.226,2.202-0.574
						c-1.749,0.776-3.374,1.746-4.683,3.147c1.062,0.024,2.254-0.348,3.232-0.877c-1.135,0.723-2.388,1.608-3.245,2.538
						c1.281-0.255,2.525-0.845,3.641-1.515c-1.697,0.315-3.24,1.535-4.468,2.729c0.872-0.108,1.85,0,2.759-0.44
						c-1.321,1.293-3.244,1.851-4.408,3.309c1.135-0.303,2.307-0.751,3.446-1.171c-1.75,1.176-3.632,2.312-4.609,4.25
						c0.711-0.278,1.571-0.332,2.271-0.719c-3.693,3.413-0.675,5.731,0.432,2.419c-0.658,1.051-0.8,2.312-0.417,3.499
						c0.829-0.69,0.999-0.582,1.035-2.081c0.38,1.015,1.062,1.932,1.891,2.521c0.36-1.031,0.25-2.264-0.271-3.266
						c0.186,0.934,0.497,1.486,0.869,2.125c-0.186-1.677-0.388-3.341-0.97-4.934c0.287,1.07,0.885,2.072,1.693,2.801
						c0.137-2.51-0.638-5.176-0.598-7.604c0.699,1.584,1.216,3.31,1.992,4.827c0.121-2.061-0.534-4.057-0.234-6.113
						c0.46,0.879,0.957,2.118,1.455,3.095c0.23-1.402-0.033-3.252-0.348-4.824c0.263,0.614,0.683,1.131,0.938,1.592
						c0.267-0.913,0.186-2.186-0.19-3.224c-0.101,0.929,0.465,1.899,1.269,2.663c0.186,0.036,0.36,0.012,0.525-0.077
						c0.267-1.621-0.129-3.583-0.667-5.147c0.121,1.152,0.755,1.766,1.531,2.388c0.521-1.269,0.372-2.634-0.016-4
						c0.052,0.634,0.19,1.475,0.359,2.101c0.489-1.051,0.344-2.493-0.105-3.717c0.174,1.01,0.408,1.014,0.788,1.709
						c-0.016-0.521,0.23-1.317,0.146-2.016c0.113,0.061-0.053,0.46,0.117,0.537c0.093,0.04,0.949-3.301-0.606-3.911
						C105.862,110.823,105.959,117.29,103.139,117.617z"/>
				</g>
				<g>
					<defs>
						<path id="SVGID_18_" d="M198.189,125.002c0,40.421-32.765,73.189-73.189,73.189c-40.421,0-73.19-32.77-73.19-73.189
							c0-40.423,32.77-73.19,73.19-73.19C165.426,51.812,198.189,84.579,198.189,125.002z"/>
					</defs>
					<clipPath id="SVGID_19_">
						<use xlink:href="#SVGID_18_"  overflow="visible"/>
					</clipPath>
					<g clip-path="url(#SVGID_19_)">
						<path fill="#38682B" d="M129.759,132.303c0.054-0.311,0.073-0.623,0.054-0.925
							C129.783,131.701,129.764,131.999,129.759,132.303z"/>
						<path fill="#38682B" d="M129.759,132.303c-0.004,0.023-0.008,0.045-0.012,0.068c0.004,0.053,0.008,0.102,0.012,0.152
							C129.759,132.452,129.759,132.376,129.759,132.303z"/>
						<path fill="#38682B" d="M126.382,122.012c0.683,0.396,1.361,0.78,1.964,1.2C127.783,122.695,127.061,122.34,126.382,122.012z"
							/>
						
							<path fill="#38682B" stroke="#38682B" stroke-width="0.3319" stroke-linecap="round" stroke-linejoin="round" stroke-miterlimit="10" d="
							M127.971,124.008c0.549,0.444,1.037,0.687,1.489,0.954c-1.11-1.265-3.019-1.701-3.776-3.301
							c0.223,0.117,0.455,0.231,0.698,0.352c-1.188-0.694-2.375-1.426-3.131-2.472c0.76,0.121,1.64-0.097,2.129-0.089
							c-0.994-0.501-2.222-1.071-2.994-1.814c0.295-0.226,0.663-0.557,0.945-0.747c-0.602-0.885-1.814-1.01-3.006-0.598
							c1.075-2.154-0.485-1.976-1.762-1.059c0.214-0.247,0.424-0.509,0.651-0.804c-1.616,0.683-3.164,1.596-4.671,2.517
							c1.499-1.749,3.689-3.05,5.212-4.67c-2.981-0.449-8.258,1.034-9.7,3.761c1.455,0.639,2.78,1.753,3.192,3.361
							c0.222-0.032,2.314-0.497,2.282-0.667c0.247,1.24,0.149,2.533,0.149,3.781c0.247-0.574,0.772-1.083,1.035-1.531
							c0.044,0.654,0.299,1.312,0.307,1.976c0.149-1.107,0.63-2.146,1.377-2.901c1.232,1.414,0.554,3.806,0.917,5.705
							c0.226-0.869,0.808-1.79,1.038-2.626c0.145,1.729-0.303,3.604,0.4,5.078c1.095-1.749,1.83-4.181,3.417-5.49
							c0.098,2.189-0.832,5.143,0.049,6.984c0.388-0.767,0.998-1.631,1.277-2.407c-0.546,1.285-0.808,2.735-0.99,4.125
							c1.031-1.232,1.289-3.014,2.375-4.246c0.537,2.76-1.737,5.402-1.123,8.209c0.513-0.455,0.989-1.105,1.382-1.785
							c-0.445,1.088-0.775,2.215-0.529,3.334c1.406-0.926,2.809-2.789,3.136-4.565c-0.104-1.333-0.372-2.683-0.573-4.013
							c0.072,0.369,0.278,0.963,0.331,1.115C129.428,127.552,128.874,125.709,127.971,124.008z"/>
						<path fill="#38682B" d="M129.759,132.523c0,0.283,0.009,0.578,0.033,0.906C129.792,133.131,129.779,132.827,129.759,132.523z"
							/>
					</g>
				</g>
				<g>
					<defs>
						<path id="SVGID_20_" d="M198.189,125.002c0,40.421-32.765,73.189-73.189,73.189c-40.421,0-73.19-32.77-73.19-73.189
							c0-40.423,32.77-73.19,73.19-73.19C165.426,51.812,198.189,84.579,198.189,125.002z"/>
					</defs>
					<clipPath id="SVGID_21_">
						<use xlink:href="#SVGID_20_"  overflow="visible"/>
					</clipPath>
					
						<path clip-path="url(#SVGID_21_)" fill="#38682B" stroke="#38682B" stroke-width="0.3319" stroke-linecap="round" stroke-linejoin="round" stroke-miterlimit="10" d="
						M109.094,111.46c-1.591-0.243-3.115-1.77-5.062-2.021c-2.84-0.368-6.367,0.646-9.066,1.37
						c-5.559,1.491-10.541,3.656-11.793,9.717c1.915-2.319,2.238-4.735,5.381-6.23c-1.354,0.917-2.477,2.343-2.602,4.008
						c1.414-0.457,2.63-1.681,3.656-3.018c-0.068,0.202-0.125,0.408-0.165,0.618c1.979-0.804,3.474-2.998,5.228-4.311
						c-0.88,0.831-1.725,1.794-2.182,2.812c1.758-0.214,3.01-1.741,4.509-2.645c-0.727,0.79-1.426,1.848-1.786,2.814
						c1.717-0.638,3.131-2.202,4.679-3.289c-0.772,0.841-1.648,1.778-2.077,2.711c1.6-0.239,3.038-1.105,4.517-1.742
						c-0.921,0.703-1.2,1.483-1.645,2.368c0.687,0.065,1.43-0.137,2.129-0.497c-0.024,0.049-0.053,0.101-0.081,0.15
						c0.974-0.36,1.988-0.784,2.768-1.576c-0.113,0.109-0.113,0.214,0.008,0.327c0.469-0.366,1.463-0.731,2.041-0.897
						c0.986,0.661,2.024,0.446,2.61-0.424L109.094,111.46z"/>
				</g>
				<g>
					<defs>
						<path id="SVGID_22_" d="M198.189,125.002c0,40.421-32.765,73.189-73.189,73.189c-40.421,0-73.19-32.77-73.19-73.189
							c0-40.423,32.77-73.19,73.19-73.19C165.426,51.812,198.189,84.579,198.189,125.002z"/>
					</defs>
					<clipPath id="SVGID_23_">
						<use xlink:href="#SVGID_22_"  overflow="visible"/>
					</clipPath>
					<g clip-path="url(#SVGID_23_)">
						<path fill="#38682B" d="M83.791,96.471c0.392-0.018,0.711-0.073,0.965-0.146C84.462,96.33,84.151,96.37,83.791,96.471z"/>
						
							<path fill="#38682B" stroke="#38682B" stroke-width="0.3319" stroke-linecap="round" stroke-linejoin="round" stroke-miterlimit="10" d="
							M106.545,106.931l3.987,4.527c-0.687-1.865-2.456-4.156-3.672-5.88c-0.853-1.212-1.951-3.144-2.981-4.093
							c-1.632-1.504-3.406-1.62-4.505-3.698c-0.004,0.64-0.271,1.473-0.234,2.066c-0.295-0.978-0.857-1.943-1.119-2.905
							c-0.194,0.115-0.15,0.432-0.315,0.59c-0.291,0.171-0.505-0.402-0.691-0.368c0.073,0.428,0.19,0.867,0.222,1.301
							c-0.214-0.675-0.529-1.329-0.731-2.016c0.024,0.573-0.028,1.163,0.02,1.735c-0.243-0.551-0.861-1.565-1.087-2.232
							c-0.032,0.1-0.028,0.194,0.012,0.292c-0.658-0.976-1.341-1.934-2.072-2.853c0.339,0.883,0.359,1.771,0.606,2.661
							c-0.824-1.142-1.54-2.418-2.602-3.384c0.372,1.198,1.002,2.323,1.41,3.479c-1.192-1.277-2.262-2.723-3.685-3.75
							c0.63,1.01,1.41,1.932,2.19,2.85c-1.2-1.108-2.896-2.218-4.493-2.097c0.651,0.612,1.014,1.572,1.491,2.152
							c-1.333-0.675-2.529-1.584-3.834-2.254c1.123,1.426,1.85,2.812,0.294,3.272c0.554-0.012,1.042,0.097,1.616,0.152
							c-0.497,0.377-1.034,1.018-1.576,1.347c0.97-0.689,2.121-1.164,3.321-1.188c-0.913,0.687-1.753,1.475-2.473,2.36
							c0.303-0.254,0.562-0.477,0.836-0.671c-0.129,0.877,0.138,1.313-0.222,2.276c1.435-1.371,3.022-2.874,4.755-3.808
							c-0.453,1.208-1.24,2.41-1.673,3.699c0.292-0.362,0.586-0.701,0.869-1.057c-0.469,0.78-0.561,1.688-0.214,2.61
							c0.755-0.628,1.426-1.535,1.915-2.513c-0.473,1.347-0.699,2.836-0.109,4.133c1.289-1.152,2.194-2.796,3.567-3.842
							c-0.654,1.63-2.177,3.05-1.842,4.915c1.014-0.812,1.733-1.998,2.71-2.934c-0.65,1.147-1.567,2.84-1.721,4.281
							c1.196-0.67,1.983-2.281,2.949-3.301c-0.606,1.442-1.386,2.775-1.099,4.371c0.917-0.842,1.576-2.133,2.262-3.254
							c-0.476,1.04-0.642,2.2-0.448,3.298c0.719-0.832,1.281-2.032,1.741-3.119c-0.331,1.477-0.735,3.359,0.295,4.484
							c0.271-0.509,0.542-0.887,0.634-1.315c0.558,2.705,2.614,3.327,2.295-0.845c0.222,1.578,0.36,3.232,1.354,4.538
							c0.335-1.229,0.335-2.62,0.436-3.869c0.073,1.345,0.396,2.694,1.047,3.875c0.372-0.974,0.097-2.299-0.375-3.386
							c0.957,1.131,1.539,2.602,2.464,3.739C107.753,109.694,107.499,108.078,106.545,106.931z"/>
					</g>
				</g>
				<g>
					<defs>
						<path id="SVGID_24_" d="M198.189,125.002c0,40.421-32.765,73.189-73.189,73.189c-40.421,0-73.19-32.77-73.19-73.189
							c0-40.423,32.77-73.19,73.19-73.19C165.426,51.812,198.189,84.579,198.189,125.002z"/>
					</defs>
					<clipPath id="SVGID_25_">
						<use xlink:href="#SVGID_24_"  overflow="visible"/>
					</clipPath>
					<g clip-path="url(#SVGID_25_)">
						<path fill="#38682B" d="M115.732,107.367l-2.311,0.149C114.221,107.545,114.984,107.484,115.732,107.367z"/>
						<path fill="#38682B" d="M114.803,108.355c-0.202,0.014-0.396,0.038-0.566,0.066
							C114.423,108.414,114.613,108.389,114.803,108.355z"/>
						<path fill="#38682B" d="M124.103,106.139c0.077-0.008,0.162-0.019,0.243-0.029c0.905-0.58,1.777-1.274,2.569-1.745
							C125.954,104.919,125.012,105.513,124.103,106.139z"/>
						<path fill="#54822F" d="M126.645,112.288c-0.016,0.081-0.08,0.368-0.112,0.527c-0.005-1.396-0.364-2.696-1.705-3.262
							c0.129,0.053,0.283-0.489,0.254-0.565c-0.477,0.105-1.018,0.064-1.495,0.178c0.307-0.303,0.744-0.929,0.981-1.135
							c-1.535,0.585-4.169,1.583-5.87,1.777c-1.039,0.667-2.125,1.188-3.208,1.042c0.755-0.836,1.822-1.555,2.759-2.274
							c-2.824,0.755-5.345,2.04-8.165,2.485l2.368-0.158c-0.796,0.249-2.068,0.934-3.297,1.147c2.088-0.167,5.77,0.292,6.933,1.35
							c0.974-1.616,2.473-0.836,3.321,0.76c0.113-0.733,0.836-1.356,0.917-1.572c0.311,1.008,0.913,1.979,1.24,2.978
							c0-0.869,0.396-1.701,0.485-2.477c0.542,0.885,1.018,2.25,1.588,3.301c-0.004-0.675,0.327-1.548,0.392-2.117
							c0.352,1.229,0.691,2.464,1.18,3.648c0.072-1.313-0.069-2.84,0.423-3.915c0.143,0.998,0.768,1.967,1.084,2.768
							C127.872,115.561,127.367,113.698,126.645,112.288z"/>
					</g>
				</g>
				<g>
					<defs>
						<path id="SVGID_26_" d="M198.189,125.002c0,40.421-32.765,73.189-73.189,73.189c-40.421,0-73.19-32.77-73.19-73.189
							c0-40.423,32.77-73.19,73.19-73.19C165.426,51.812,198.189,84.579,198.189,125.002z"/>
					</defs>
					<clipPath id="SVGID_27_">
						<use xlink:href="#SVGID_26_"  overflow="visible"/>
					</clipPath>
					<g clip-path="url(#SVGID_27_)">
						<path fill="#38682B" d="M109.854,105.48c-0.017-0.012-0.037-0.024-0.053-0.036c-0.178,0.153-0.359,0.303-0.537,0.453
							L109.854,105.48z"/>
						<path fill="#38682B" d="M111.861,104.058l-2.007,1.422C110.545,105.896,111.296,105.658,111.861,104.058z"/>
						<path fill="#38682B" d="M115.413,95.095c-0.711,0.539-1.64,1.065-2.315,1.723c0.946-0.907,1.879-1.983,1.838-3.289
							c-0.392,0.394-0.969,0.768-1.381,1.216c0.335-0.529,0.489-1.047,0.731-1.54c-0.089-0.222-0.646,0.368-0.699,0.287
							c0.084-0.517,0.303-0.828,0.343-1.37c0.145-0.384,0.267-0.764,0.416-1.171c-0.254,0.164-0.574,0.344-0.864,0.543
							c0.274-0.75,0.166-1.638,0.355-2.315c-0.222,0.272-0.695,0.689-0.978,1.052c0.174-0.804-0.105-1.751-0.061-2.545
							c-0.198,0.154-0.457,0.384-0.663,0.529c-0.162-1.054-0.63-1.988-0.961-2.981c0.012-0.028-0.598,0.117-0.562,0.125
							c-0.021,0.718-0.19,1.249-0.081,2.018c-0.193-1.024-0.776-1.917-1.188-2.576c-0.097,1.093,0.004,2.227,0.279,3.313
							c-0.658-0.996-1.188-2.104-1.591-3.236c-0.061,1.194,0.137,2.436,0.578,3.571c-0.388-0.864-0.954-1.729-1.357-2.585
							c0.101,1.301,0.274,2.721,0.715,3.955c-0.412-0.961-0.921-1.878-1.563-2.668c0.041,0.982,0.243,1.949,0.59,2.866
							c-0.19-0.186-0.392-0.357-0.594-0.545c0.097,1.444,0.299,2.939,0.78,4.323c-0.416-0.945-1.127-1.833-1.685-2.675
							c-0.032,0.44-0.004,0.873,0.061,1.297c-0.016-0.02-0.024-0.044-0.04-0.064c-0.23,2.675,1.16,5.719,2.614,7.935
							c-0.864-1.196-1.507-2.568-2.226-3.849c-0.024,0.723,0.077,1.438,0.279,2.125c-0.073,0.79,0.142,1.578,0.538,2.252
							c0.101,1.014,0.67,1.981,1.539,2.646c-0.044-0.073-0.137-0.76-0.117-0.865c0.254,1.111,0.917,2.355,1.66,2.844
							c1.245-1.046,2.529-2.072,3.932-2.654c-0.921,0.158-1.729,0.307-2.623,0.622c1.019-0.331,2.214-1.422,3.095-2.363
							c-0.796,0.363-1.447,0.521-2.214,1.083c0.941-0.717,1.705-1.638,2.17-2.712c-0.392,0.188-0.667,0.325-1.035,0.543
							c0.792-1.206,2.024-2.222,2.255-3.602c-0.42,0.171-0.804,0.281-1.172,0.428C114.734,96.313,115.159,95.744,115.413,95.095z"/>
					</g>
				</g>
				<g>
					<defs>
						<path id="SVGID_28_" d="M198.189,125.002c0,40.421-32.765,73.189-73.189,73.189c-40.421,0-73.19-32.77-73.19-73.189
							c0-40.423,32.77-73.19,73.19-73.19C165.426,51.812,198.189,84.579,198.189,125.002z"/>
					</defs>
					<clipPath id="SVGID_29_">
						<use xlink:href="#SVGID_28_"  overflow="visible"/>
					</clipPath>
					<g clip-path="url(#SVGID_29_)">
						
							<path fill="#38682B" stroke="#38682B" stroke-width="0.3319" stroke-linecap="round" stroke-linejoin="round" stroke-miterlimit="10" d="
							M95.641,118.231c0.921,0.101,1.854,0.343,2.755,0.558c-0.893-0.049-1.786,0.178-2.517,0.67c0.764,0.214,1.568,0.36,2.375,0.44
							c-1.596-0.101-3.297-0.169-4.569,0.719c0.623,0.218,1.265,0.376,1.911,0.481c-1.192-0.016-2.372,0.169-3.386,0.844
							c0.206,0.064,0.42,0.121,0.639,0.173c-0.352,0.133-0.671,0.328-0.946,0.59c0.501,0.166,1.006,0.323,1.515,0.445
							c-1.265,0.032-2.501,0.319-3.345,1.119c0.868,0.832,2.129,1.131,3.365,1.139c-1.293,0.274-2.76,0.271-3.967,0.53
							c0.307,0.071,0.614,0.138,0.921,0.193c-0.36,0.149-0.679,0.363-0.925,0.662c0.258,0.045,0.513,0.094,0.771,0.139
							c-0.941,0.008-1.741,0.262-2.003,1.158c0.48,0.264,1.002,0.541,1.547,0.764c-0.853-0.092-1.806,0.004-2.477,0.355
							c0.332,0.064,0.679,0.135,1.042,0.194c-0.517,0.016-1.022,0.085-1.563,0.129c0.578,0.187,1.321,0.759,1.891,1.01
							c-0.017,0.013-0.033,0.024-0.049,0.037c-1.377-0.104-2.683,0.233-2.392,1.655c0.444-0.023,0.86-0.129,1.249-0.295
							c-0.093,0.187-0.178,0.38-0.239,0.582c1.244-0.287,2.307-1.118,3.046-2.166c-0.433,0.676-0.626,1.526-0.95,2.224
							c1.879-0.833,3.511-3.347,4.84-5.011c-0.921,1.423-2.061,2.796-2.46,4.437c1.596-1.087,2.687-3.099,3.761-4.8
							c-0.327,0.73-0.553,1.641-0.913,2.404c1.349-1.24,2.303-3.026,3.034-4.748c-0.234,0.683-0.368,1.426-0.501,2.076
							c1.062-0.844,1.822-2.051,2.335-3.356c0.74-0.331,1.285-1.018,1.681-1.81c1.038-0.772,1.83-1.798,2.477-2.921
							c-0.154,0.311-0.352,0.638-0.554,0.945c0.828-0.84,0.945-1.422,0.962-2.44l-1.115-0.815
							C100.82,116.384,97.135,116.679,95.641,118.231z"/>
						<path fill="#38682B" d="M111.861,103c-0.121,0.919-0.109,1.887-0.113,2.812c0.162-0.876,0.594-1.693,1.252-2.287
							c0.02,0.796-0.028,1.612-0.142,2.416c0.283-1.574,0.618-3.246,1.794-4.267c0.061,0.659,0.057,1.317,0.004,1.972
							c0.271-1.164,0.735-2.262,1.628-3.084c0.016,0.216,0.02,0.438,0.016,0.661c0.218-0.307,0.48-0.574,0.804-0.776
							c0.041,0.529,0.069,1.052,0.065,1.578c0.335-1.222,0.909-2.354,1.891-2.978c0.598,1.04,0.585,2.337,0.299,3.537
							c0.577-1.188,0.925-2.614,1.466-3.723c-0.004,0.313-0.016,0.628-0.037,0.939c0.234-0.311,0.521-0.571,0.865-0.743
							c-0.016,0.263-0.032,0.525-0.048,0.786c0.23-0.911,0.674-1.626,1.6-1.67c0.146,0.533,0.291,1.107,0.376,1.685
							c0.113-0.844,0.437-1.747,0.941-2.314c-0.02,0.335-0.036,0.69-0.064,1.054c0.142-0.497,0.328-0.97,0.501-1.483
							c0.041,0.602,0.42,1.462,0.525,2.077c0.016-0.012,0.032-0.028,0.048-0.041c0.227-1.361,0.868-2.549,2.182-1.923
							c-0.129,0.424-0.331,0.804-0.586,1.141c0.202-0.046,0.412-0.083,0.622-0.095c-0.577,1.143-1.641,1.975-2.832,2.44
							c0.76-0.259,1.632-0.238,2.384-0.388c-1.257,1.624-4.092,2.608-6.024,3.5c1.6-0.557,3.208-1.333,4.897-1.327
							c-1.434,1.285-3.652,1.867-5.563,2.501c0.792-0.144,1.725-0.146,2.558-0.311c-1.531,1.014-3.495,1.513-5.337,1.81
							c0.719-0.065,1.471-0.017,2.137,0.012c-1.075,0.827-2.432,1.275-3.817,1.463c-0.501,0.636-1.297,1.006-2.166,1.196
							c-0.994,0.826-2.177,1.348-3.426,1.705c0.339-0.073,0.707-0.186,1.05-0.311c-1.014,0.605-1.608,0.582-2.598,0.347
							l-0.525-1.272C108.828,107.585,109.995,104.081,111.861,103z"/>
						<path fill="#38682B" d="M104.004,117.176c0,0.065,0,0.125,0,0.182l0.274,0.206
							C104.254,117.229,104.242,116.845,104.004,117.176z"/>
					</g>
				</g>
				<g>
					<defs>
						<path id="SVGID_30_" d="M198.189,125.002c0,40.421-32.765,73.189-73.189,73.189c-40.421,0-73.19-32.77-73.19-73.189
							c0-40.423,32.77-73.19,73.19-73.19C165.426,51.812,198.189,84.579,198.189,125.002z"/>
					</defs>
					<clipPath id="SVGID_31_">
						<use xlink:href="#SVGID_30_"  overflow="visible"/>
					</clipPath>
					<g clip-path="url(#SVGID_31_)">
						<path fill="#4C782D" d="M120.762,128.525c-0.008,0.023-0.012,0.043-0.016,0.063
							C120.766,128.59,120.77,128.562,120.762,128.525z"/>
						<path fill="#4C782D" d="M113.538,116.825c0.033-0.04,0.057-0.081,0.085-0.117c-0.141-0.234-0.327-0.444-0.57-0.614
							C113.017,116.061,113.546,116.845,113.538,116.825z"/>
						<path fill="#4C782D" d="M119.421,118.922c-1.382-1.742-4.061-2.444-5.442-3.475c0.016,0.457-0.089,0.885-0.355,1.26
							c0.513,0.865,0.372,2.093-0.057,3.123c0.222-0.4,0.493-0.775,0.691-1.188c-0.157,1.014-0.138,2.133-0.105,3.139
							c0.137-0.44,0.363-0.86,0.554-1.272c0.177,0.282,0.157,0.965,0.214,1.155c0.328-0.25,0.63-0.525,0.917-0.82
							c-0.149,0.877,0.065,2.158-0.077,2.99c0.42-0.359,0.582-0.59,0.925-1.042c-0.117,0.521-0.081,1.176-0.287,1.729
							c0.218-0.222,0.469-0.728,0.643-1.002c-0.016,0.529-0.024,1.075-0.073,1.624c0.053-0.052,0.59-0.682,0.618-0.682
							c-0.057,0.735,0.259,1.66,0.19,2.407c0.416-0.662,0.957-1.24,1.285-1.959c-0.315,0.653-0.412,1.397-0.642,2.061
							c0.242-0.245,0.667-0.546,0.893-0.735c-0.146,0.805,0.133,1.807,0.004,2.61c0.432-0.112,0.799-0.59,1.115-0.94
							c-0.004-0.014,0.299,0.447,0.331,0.621C121.679,124.909,121.675,121.762,119.421,118.922z"/>
						<path fill="#4C782D" d="M112.613,112.045l0.869,2.949c0.133,0.158,0.303,0.307,0.497,0.453
							C113.938,114.32,113.195,113.042,112.613,112.045z"/>
					</g>
				</g>
				<g>
					<defs>
						<path id="SVGID_32_" d="M198.189,125.002c0,40.421-32.765,73.189-73.189,73.189c-40.421,0-73.19-32.77-73.19-73.189
							c0-40.423,32.77-73.19,73.19-73.19C165.426,51.812,198.189,84.579,198.189,125.002z"/>
					</defs>
					<clipPath id="SVGID_33_">
						<use xlink:href="#SVGID_32_"  overflow="visible"/>
					</clipPath>
					<g clip-path="url(#SVGID_33_)">
						<path fill="#38682B" d="M117.954,113.167c-0.02-0.281-0.093-0.523-0.186-0.753
							C117.789,112.621,117.845,112.861,117.954,113.167z"/>
						<path fill="#38682B" d="M124.241,115.047c-0.012-0.589-0.085-1.204-0.247-1.749
							C124.042,113.884,124.127,114.47,124.241,115.047z"/>
						<path fill="#38682B" d="M122.96,114.72c-0.041-0.4-0.101-0.804-0.174-1.2C122.782,113.904,122.822,114.296,122.96,114.72z"/>
						<path fill="#38682B" d="M125.755,109.403c-4.157-2.659-14.346,1.84-16.996,5.208l1.854-1.315
							c0.626-1.578,4.093-1.871,5.228-0.438c0.239-1.146,0.76-1.079,1.22-1.786c0.222,0.48,0.517,0.873,0.707,1.341
							c-0.052-0.558,0.162-0.866,0.291-1.519c0.812,1.133,1.321,2.509,1.826,3.838c-0.218-0.982-0.044-1.843-0.021-2.744
							c0.299,0.744,0.768,1.483,0.982,2.295c-0.312-1.315-0.469-2.703,0.137-3.668c0.764,1.123,1.196,2.38,1.511,3.717
							c-0.247-0.949-0.327-2.23-0.319-3.014c0.275,0.715,0.473,1.452,0.61,2.202c0.004-0.558,0.105-1.103,0.182-1.721
							c0.517,0.299,0.833,0.853,1.026,1.499c-0.048-0.545-0.069-1.095-0.057-1.645c0.243,1.733,0.521,3.458,0.788,5.188
							c-0.037-0.226-0.057-0.448-0.073-0.674c-0.004-0.017-0.008-0.036-0.008-0.057c0,0,0.004,0,0.004,0.004
							c-0.032-0.509-0.037-1.014-0.065-1.511c0.299,0.517,0.566,1.208,0.691,1.903c1.321,0.961,2.319,2.569,3.321,3.765
							C128.422,117.455,128.396,111.092,125.755,109.403z"/>
					</g>
				</g>
				<g>
					<defs>
						<path id="SVGID_34_" d="M198.189,125.002c0,40.421-32.765,73.189-73.189,73.189c-40.421,0-73.19-32.77-73.19-73.189
							c0-40.423,32.77-73.19,73.19-73.19C165.426,51.812,198.189,84.579,198.189,125.002z"/>
					</defs>
					<clipPath id="SVGID_35_">
						<use xlink:href="#SVGID_34_"  overflow="visible"/>
					</clipPath>
					<g clip-path="url(#SVGID_35_)">
						<path fill="#38682B" d="M123.388,100.175c-0.206-1.519-0.925-2.392-1.608-2.712
							C121.921,98.547,122.487,99.509,123.388,100.175z"/>
						<path fill="#38682B" d="M123.606,97.501c0.157,0.877,0.509,1.746,0.986,2.479C124.583,99.01,124.241,98.037,123.606,97.501z"
							/>
						<path fill="#38682B" d="M126.105,95.154c0.143,0.764,0.485,1.513,1.164,2.19C127.165,96.358,126.762,95.554,126.105,95.154z"
							/>
						<path fill="#38682B" d="M125.521,97.861c0.158,0.428,0.308,0.86,0.412,1.305C125.868,98.705,125.723,98.269,125.521,97.861z"
							/>
						<path fill="#38682B" d="M117.74,101.276c0.19,0.438,0.469,0.822,0.845,1.105C118.306,101.784,118.083,101.608,117.74,101.276z
							"/>
						<path fill="#38682B" d="M120.532,98.713c0.173,0.509,0.565,1.151,1.269,1.911C121.691,99.711,121.23,99.016,120.532,98.713z"
							/>
						<path fill="#38682B" d="M119.578,100.059c0.166,0.473,0.464,0.885,0.913,1.232
							C120.253,100.83,119.946,100.402,119.578,100.059z"/>
					</g>
				</g>
				<g>
					<defs>
						<path id="SVGID_36_" d="M198.189,125.002c0,40.421-32.765,73.189-73.189,73.189c-40.421,0-73.19-32.77-73.19-73.189
							c0-40.423,32.77-73.19,73.19-73.19C165.426,51.812,198.189,84.579,198.189,125.002z"/>
					</defs>
					<clipPath id="SVGID_37_">
						<use xlink:href="#SVGID_36_"  overflow="visible"/>
					</clipPath>
					<g clip-path="url(#SVGID_37_)">
						<path fill="#54822F" d="M110.157,105.959c-0.695,0.503-1.16,1.683-1.2,2.796c-0.021-1.424,0.209-2.858-0.057-4.269
							c-0.202,0.606-0.675,1.503-0.82,2.333c0.004-1.452,0.149-3.121-0.146-4.595c-0.315,0.517-0.553,1.07-0.731,1.648
							c0.089-0.729,0.117-1.471,0.04-2.186c-0.25,0.76-0.683,1.543-0.897,2.335c0.271-1.442,0.339-2.929,0.194-4.388
							c-0.307,0.925-0.731,1.891-0.937,2.84c0.19-1.073,0.073-2.061-0.166-3.099c-0.153,0.388-0.271,0.796-0.372,1.208
							c-0.057-0.655-0.206-1.325-0.352-1.952c-0.181,0.853-0.347,1.552-0.383,2.379c-0.004-0.731-0.129-2.278-0.376-3.159
							c0.024,0.327,0.021,0.921,0.057,1.346c-0.493-1.253-1.046-2.61-1.806-3.63c0.044,0.624-0.012,1.24,0.089,1.893
							c-0.149-1.522-0.743-2.844-1.442-4.201c0.15,0.953,0.429,1.628,0.849,2.403c-0.598-0.969-1.556-1.925-2.359-2.68
							c0.077,0.377,0.122,0.677,0.206,0.963c-0.541-0.65-1.252-1.127-2.077-1.265c0.101,0.648,0.36,1.252,0.728,1.786
							c-0.453-0.326-0.925-0.606-1.402-0.812c0.206,0.735,0.606,1.382,1.127,1.929c-0.578-0.317-1.2-0.497-1.907-0.378
							c0.19,0.845,0.788,1.487,1.531,1.992c-0.279-0.055-0.557-0.089-0.848-0.097c0.206,0.606,0.598,1.079,1.083,1.471
							c-0.214-0.026-0.428-0.028-0.646-0.004c0.4,0.691,1.035,1.164,1.754,1.531c0.509,0.84,1.312,1.424,2.169,1.941
							c-0.327-0.107-0.646-0.184-0.945-0.232c0.247,0.766,0.836,1.374,1.543,1.867c0.335,1.265,1.705,2.042,3.002,2.553
							c0.513,1.156,1.479,2.206,2.432,3.055c0.42,1.167,0.667,2.141,1.624,3.054c0.433,0.416,0.772,0.335,1.059,0.25l-0.239-0.174
							C111.502,111.084,110.528,107.973,110.157,105.959z"/>
						<path fill="#38682B" d="M107.062,106.242l0.921,0.674C107.7,106.025,107.421,106.135,107.062,106.242z"/>
					</g>
				</g>
				<g>
					<defs>
						<path id="SVGID_38_" d="M198.189,125.002c0,40.421-32.765,73.189-73.189,73.189c-40.421,0-73.19-32.77-73.19-73.189
							c0-40.423,32.77-73.19,73.19-73.19C165.426,51.812,198.189,84.579,198.189,125.002z"/>
					</defs>
					<clipPath id="SVGID_39_">
						<use xlink:href="#SVGID_38_"  overflow="visible"/>
					</clipPath>
					<path clip-path="url(#SVGID_39_)" fill="#54822F" d="M105.159,112.517c-7.895-1.536-17.126,4.466-15.118,13.096
						c0.602-1.257,1.115-2.644,1.438-3.996c-0.23,0.921-0.267,1.992-0.396,2.925c1.091-1.535,1.583-3.672,2.642-5.345
						c-0.182,0.768-0.137,1.956-0.315,2.743c1.115-1.454,1.502-3.511,2.678-4.779c-0.299,1.442-0.873,3.107-0.78,4.456
						c1.321-1.474,1.81-3.583,2.695-5.341c-0.125,0.844-0.121,1.867-0.351,2.703c0.888-1.083,1.555-2.36,2.242-3.58
						c-0.23,0.986,0.214,2.113,0.352,2.788c1.16-0.78,1.907-2.044,2.691-3.099c0.032,0.38,0.182,0.804,0.23,1.2
						c1.151-0.375,5.935-1.77,6.416-2.679C110.771,111.371,106.937,111.177,105.159,112.517z"/>
				</g>
				<g>
					<defs>
						<path id="SVGID_40_" d="M198.189,125.002c0,40.421-32.765,73.189-73.189,73.189c-40.421,0-73.19-32.77-73.19-73.189
							c0-40.423,32.77-73.19,73.19-73.19C165.426,51.812,198.189,84.579,198.189,125.002z"/>
					</defs>
					<clipPath id="SVGID_41_">
						<use xlink:href="#SVGID_40_"  overflow="visible"/>
					</clipPath>
					<path clip-path="url(#SVGID_41_)" fill="#54822F" d="M114.807,116.437c-0.36-0.869-0.857-1.685-1.479-2.166
						c-0.077-0.214-0.174-0.436-0.291-0.679c0,0,0.057,0.283,0.101,0.44c-0.323-0.907-1.111-1.624-2.068-1.887l0.226-0.594
						c-0.089,0.192-0.19,0.386-0.287,0.578c-0.089-0.022-0.174-0.049-0.267-0.061c-0.133,0.271-0.089,0.46-0.056,0.679
						c-1.152,2.149-2.574,4.27-3.503,6.335c1.543-0.873,2.776-2.247,4.379-3.03c-1.01,1.656-3.438,2.533-4.23,4.303
						c0.715-0.169,1.204-0.234,1.726-0.493c-0.554,0.416-1.051,0.925-1.523,1.458c1.272-0.068,2.719-1.519,3.337-2.072
						c-1.106,1.055-2.399,2.141-3.208,3.317c0.881-0.315,1.519-0.303,2.379-0.893c-0.933,1.196-2.436,2.206-3.22,3.491
						c1.337-0.331,2.654-1.143,3.717-2.008c-1.14,1.164-2.493,2.254-3.317,3.612c0.254-0.045,0.497-0.117,0.731-0.199
						c-0.534,0.481-0.97,1.031-1.2,1.705c1.398-0.582,2.497-1.672,3.923-2.222c-1.006,1.106-2.525,2.319-3.377,3.571
						c1.216-0.562,2.275-1.531,3.224-2.473c-0.865,0.863-1.624,1.996-2.331,2.93c0.287-0.069,0.569-0.178,0.848-0.312
						c-0.46,0.569-0.82,1.159-0.981,1.737c1.434-0.282,2.699-1.495,3.757-2.537c-0.99,1.163-2.206,2.439-2.537,3.854
						c1.232-0.559,2.218-1.579,3.361-2.318c-1.313,0.913-2.5,2.053-3.175,3.507c0.683-0.174,1.249-0.487,1.737-0.94
						c-0.417,0.621-0.699,1.332-0.775,2.02c0.307-0.165,0.577-0.318,0.82-0.488c-0.307,0.518-0.521,1.104-0.65,1.709
						c0.424-0.457,0.981-0.812,1.41-1.381c-0.303,0.771-0.359,1.752-0.574,2.512c0.312-0.424,0.84-0.871,1.184-1.346
						c-0.521,1.415-0.856,2.994-0.525,4.469c0.125-0.222,0.267-0.428,0.433-0.621c-0.057,0.695,0.129,1.588,0.02,2.308
						c0.331-0.542,0.558-1.115,0.755-1.758c0.037,0.03,0.069,0.504,0.049,0.541c0.731-3.103-0.639-6.234,0.21-9.354
						c0.428,1.978,0.485,3.988,0.739,5.988c0.186-1.943,0.028-4.65,0.182-6.836c0.036,1.082,0.295,2.141,0.731,3.078
						c-0.033-1.911-0.445-3.829-0.735-5.732c0.332,1.159,0.699,1.213,1.361,2.053c0.19-1.191-0.218-2.562-0.675-3.793
						c0.243,0.504,0.529,0.815,0.873,1.297c-0.206-1.204-0.768-2.309-1.329-3.406c0.287,0.432,0.614,0.824,0.99,1.199
						c-0.174-1.033-0.489-2.04-0.881-3.013c0.335,0.42,0.743,0.792,1.216,1.103c-0.061-1.03-0.436-2.008-0.945-2.905
						c0.258,0.271,0.533,0.497,0.816,0.759c-0.085-1.014-0.404-2.052-0.829-2.977c0.19,0.254,0.404,0.485,0.667,0.788
						C115.841,118.162,115.51,117.096,114.807,116.437z"/>
				</g>
			</g>
			<g>
				<path fill="none" stroke="#1D1D1B" stroke-width="1.162" stroke-linejoin="round" stroke-miterlimit="10" d="M86.522,178.004
					c-0.509,0.032-0.097-9.599-0.097-9.599s7.017-0.886,7.244,3.709C93.899,176.703,91.205,177.741,86.522,178.004z"/>
				<path fill="none" stroke="#1D1D1B" stroke-width="1.162" stroke-linejoin="round" stroke-miterlimit="10" d="M99.438,178.027
					c3.592,0.582,5.802-3.271,5.059-6.437c-0.743-3.175-5.24-4.286-7.317-1.967C94.756,172.332,95.297,177.357,99.438,178.027z"/>
				<path fill="none" stroke="#1D1D1B" stroke-width="1.162" stroke-linejoin="round" stroke-miterlimit="10" d="M107.24,177.107
					c0,0,1.164-9.316,1.167-8.985c0.004,0.323,3.608,8.937,3.608,8.937l3.515-8.822l1.895,8.767"/>
				
					<line fill="none" stroke="#1D1D1B" stroke-width="1.162" stroke-linejoin="round" stroke-miterlimit="10" x1="119.76" y1="167.997" x2="119.853" y2="176.979"/>
				
					<line fill="none" stroke="#1D1D1B" stroke-width="1.162" stroke-linejoin="round" stroke-miterlimit="10" x1="133.818" y1="167.852" x2="133.908" y2="176.832"/>
				<path fill="none" stroke="#1D1D1B" stroke-width="1.162" stroke-linejoin="round" stroke-miterlimit="10" d="M123.275,176.941
					c0.093,0.271-0.182-9.225-0.089-8.98c0.093,0.238,6.937,8.916,6.937,8.916l-0.089-8.791"/>
				<path fill="none" stroke="#1D1D1B" stroke-width="1.162" stroke-linejoin="round" stroke-miterlimit="10" d="M155.645,176.609
					c0.094,0.268-0.186-9.228-0.093-8.984c0.093,0.242,6.94,8.921,6.94,8.921l-0.094-8.8"/>
				<path fill="none" stroke="#1D1D1B" stroke-width="1.162" stroke-linejoin="round" stroke-miterlimit="10" d="M143.73,167.723
					c-3.067-0.51-7.799,1.32-7.346,5.158c0.227,1.911,2.124,3.418,3.883,3.883c0.953,0.256,1.955,0.264,2.924,0.062"/>
				<polyline fill="none" stroke="#1D1D1B" stroke-width="1.162" stroke-linejoin="round" stroke-miterlimit="10" points="
					145.62,176.711 148.865,167.572 152.65,176.855 				"/>
				
					<line fill="none" stroke="#1D1D1B" stroke-width="1.162" stroke-linejoin="round" stroke-miterlimit="10" x1="146.484" y1="173.281" x2="152.162" y2="173.132"/>
				<polyline fill="none" stroke="#1D1D1B" stroke-width="1.162" stroke-linejoin="round" stroke-miterlimit="10" points="
					165.114,176.514 168.354,167.375 172.145,176.654 				"/>
				
					<line fill="none" stroke="#1D1D1B" stroke-width="1.162" stroke-linejoin="round" stroke-miterlimit="10" x1="165.979" y1="173.079" x2="171.659" y2="172.93"/>
			</g>
			<g>
				<path fill="#FFFFFF" d="M105.627,159.048c-1.902-1.567-3.705,1.867-4.597,4.521c-0.134-1.158-0.214-2.317-0.174-3.489
					c0.061-0.339,0.081-0.666,0.064-0.97c-0.032-0.582-0.836-0.565-0.893,0c-0.04,0.354-0.056,0.711-0.068,1.066
					c-0.38,2.268-2.254,4.694-4.682,4.174c-0.38-0.086-0.675-0.238-0.901-0.437c0.057-0.028,0.117-0.058,0.174-0.086
					c1.345-0.649,2.853-1.777,2.998-3.373c0.097-1.047-1.208-2.238-2.246-1.96c-1.947,0.529-2.869,3.131-2.19,4.979
					c-2.218,0.635-4.408-0.949-5.353-3.022c3.034,1.136,8.363-6.479,4.969-8.933c-2.888-2.084-5.462,1.086-6.323,3.567
					c-1.289,3.704-1.127,7.878-1.119,11.744c0,0.578,0.893,0.578,0.893,0c-0.008-2.474-0.004-4.933,0.254-7.397
					c0.008-0.072,0.016-0.156,0.024-0.238c0.327,1.996,1.487,3.535,3.212,4.635c1.349,0.855,2.573,0.873,3.871,0.425
					c0.108,0.146,0.226,0.278,0.368,0.399c2.294,1.992,4.808,0.102,6.112-2.271c0.097,1.244,0.275,2.484,0.445,3.727
					c0.068,0.521,0.852,0.358,0.876-0.117c0.036-0.788,0.254-1.608,0.562-2.404C104.016,165.912,108.973,161.812,105.627,159.048z
					 M89.984,151.934c3.495-1.172,2.832,2.938,1.899,4.69c-0.695,1.306-3.482,4.872-4.598,2.085
					c-0.121-0.299-0.529-0.384-0.748-0.223C86.849,156.034,87.552,152.746,89.984,151.934z M94.917,159.675
					c0.436-0.417,0.873-0.376,1.341,0.009c0.699,0.572,0.335,1.301-0.085,1.838c-0.578,0.738-1.458,1.228-2.287,1.64
					C93.52,162.037,94.105,160.454,94.917,159.675z M102.315,162.623c0.295-0.614,0.63-1.2,0.958-1.725
					c0.715-1.131,1.632-1.742,2.432-0.304C106.747,162.479,103.381,164.475,102.315,162.623z"/>
				<path fill="#FFFFFF" d="M125.631,160.936c0.035-0.502-0.796-0.619-0.877-0.121c-0.202,1.261-1.022,4.844-2.416,2.363
					c-0.295-0.521-0.48-1.104-0.574-1.71c0.388-1.345,0.461-2.893,0.623-4.067c0.064-0.452-0.586-0.85-0.816-0.344
					c-0.016,0.036-0.032,0.072-0.044,0.104l0,0l0,0c-0.525,1.2-0.784,2.59-0.678,3.928c-0.021,0.072-0.033,0.149-0.053,0.222
					c-0.267,0.965-0.707,1.547-1.256,1.842c0.585-0.617,0.844-1.457,0.384-2.311c-0.55-1.025-2.311-2.299-3.511-1.511
					c-0.194,0.129-0.364,0.274-0.509,0.44c-0.012-1.862-0.359-3.826-0.38-5.02c-0.008-0.573-0.897-0.573-0.893,0
					c0.012,2.202,0.129,4.402,0.108,6.605c-0.012,0.093-0.021,0.182-0.036,0.274c-0.295,1.681-2.513,3.103-2.747,0.675
					c-0.089-0.921,0.041-1.858,0.057-2.779c0.012-0.582-0.857-0.569-0.893,0c-0.085,1.302-0.501,2.966-1.863,3.49
					c-1.737,0.666-0.682-2.961-0.488-3.511c0.193-0.546-0.671-0.78-0.861-0.237c-0.497,1.405-1.285,4.491,1.046,4.693
					c1.022,0.089,1.741-0.594,2.23-1.486c0.214,1.633,0.905,2.926,2.998,1.773c0.166-0.089,0.315-0.198,0.452-0.314
					c-0.003,0.027-0.003,0.057-0.003,0.084c-0.041,0.502,0.808,0.619,0.876,0.121c0.004-0.035,0.012-0.08,0.016-0.121l0,0
					c0-0.009,0-0.013,0-0.02c0.024-0.188,0.044-0.409,0.073-0.655c0.44,0.566,1.066,0.8,1.721,0.792
					c1.143,0.363,2.311,0.375,3.3-0.574c0.231-0.222,0.424-0.479,0.586-0.764c0.21,0.578,0.505,1.133,0.901,1.62
					c1.236,1.535,2.21,0.36,2.816-1.05c0.069,0.314,0.149,0.617,0.255,0.908c0.194,0.537,1.06,0.308,0.865-0.238
					C125.688,163.066,125.562,161.965,125.631,160.936z M117.239,160.025c1.471-0.162,2.404,1.57,1.475,2.625
					c-0.255,0.295-0.634,0.526-1.026,0.623c-0.493-0.121-1.014-0.34-1.543-0.618c-0.153-0.085-0.331-0.058-0.469,0.028
					C115.849,161.484,116.208,160.139,117.239,160.025z"/>
				<path fill="#FFFFFF" d="M125.032,158.4c0.093,0.033,0.19,0.037,0.271,0.014c0.259-0.069,0.347-0.309,0.312-0.55
					c-0.024-0.198-0.198-0.38-0.4-0.416c-0.25-0.046-0.44,0.057-0.626,0.222c-0.182,0.162-0.162,0.469,0,0.631
					C124.713,158.426,124.883,158.45,125.032,158.4z"/>
				<path fill="#FFFFFF" d="M138.627,162.725c-0.438,0.801-1.139,0.873-2.107,0.223c-0.19-0.408-0.291-0.823-0.315-1.248
					c0.075-0.327,0.112-0.68,0.101-1.047c-0.012-0.262-0.25-0.424-0.479-0.433c-1.999-0.885-3.212,0.283-4.533,1.773
					c-1.006,1.135-3.034,2.403-4.229,0.657c-0.477-0.689,0.068-1.623,0.533-2.133c0.723-0.787,1.811-0.738,2.699-0.322
					c0.521,0.242,0.979-0.529,0.452-0.771c-1.45-0.675-2.89-0.513-3.996,0.695c-0.755,0.824-1.099,2.428-0.229,3.309
					c1.09,1.11,2.775,1.176,4.072,0.412c0.412-0.247,0.775-0.605,1.127-0.994c1.232,1.767,3.01,1.41,3.951,0.062
					c0.6,1.526,2.008,2.313,3.592,0.448C139.629,162.918,139.003,162.284,138.627,162.725z M134.297,163.111
					c-1.02,0.256-1.597-0.035-1.722-0.885c0.639-0.809,1.481-1.752,2.8-1.231c-0.009,0.129-0.009,0.263-0.004,0.396
					C135.268,162.082,134.947,162.68,134.297,163.111z"/>
				<path fill="#FFFFFF" d="M109.636,158.721c0.735-0.576,1.511-1.103,2.246-1.685c0.453-0.354-0.186-0.986-0.634-0.63
					c-0.731,0.58-1.511,1.103-2.246,1.685C108.549,158.445,109.187,159.076,109.636,158.721z"/>
			</g>
		</g>
	</g>
	<path opacity="0.6" fill="none" stroke="#6BA03C" stroke-width="0.8953" stroke-miterlimit="10" enable-background="new    " d="
		M110.904,108.969c0.344-0.976,0.812-2.07,0.873-3.104c0,0.703-0.021,1.415,0.016,2.107c0.412-0.929,0.816-1.869,1.208-2.814
		c-0.174,0.699-0.368,1.418-0.432,2.125c0.63-1.026,0.977-2.161,1.479-3.248c-0.279,0.723-0.529,1.541-0.61,2.3
		c0.464-0.933,1.086-2.135,1.902-2.759c-0.428,0.75-0.973,1.52-1.292,2.339c1.014-0.58,1.782-2.119,2.525-3.105
		c-0.42,0.936-1.188,1.719-1.563,2.651c0.982-0.978,1.782-2.259,2.853-3.107c-0.493,1.047-1.543,1.78-2.133,2.8
		c1.301-1.035,2.121-2.792,3.527-3.652c-0.436,1.012-1.208,1.903-1.818,2.828c0.938-0.974,1.781-2.297,2.853-3.099
		c-0.093,0.848-0.978,1.826-1.395,2.585c0.744-0.956,1.669-2.218,2.8-2.679c-0.352,0.654-1.03,1.192-1.552,1.764
		c1.236-0.814,2.283-2.149,3.737-2.56c-0.085,0.23-0.008,0.412-0.254,0.731c0.711-0.541,1.587-1.228,2.489-1.066
		c-0.372,1.164-3.079,0.754-3.915,1.834c0.586,0.355,1.495,0.212,1.947,0.788c-1.236,0.172-2.747-0.041-3.773,0.776
		c0.687,0.43,1.721,0.186,2.339,0.59c-1.273,0.05-2.938-0.261-4.081,0.359c0.687,0.594,1.919,0.283,2.8,0.461
		c-1.495,0.309-4.121-0.319-5.43,0.766c0.679,0.212,1.418,0.19,2.125,0.188c-1.236,0.398-2.643,0.247-3.883,0.923
		c1.03,0.051,2.061-0.281,3.091-0.229c-1.046,0.339-2.182,0.335-3.232,0.687c0.663-0.021,1.879,0.004,2.731-0.182
		c-1.426-0.048-3.18,0.263-4.254,1.297c0.477-0.158,0.954-0.337,1.426-0.505c-2.226,0.861-2.574,1.764-3.18,3.806
		c3.454-0.943,7.079-3.573,10.775-2.327c2.848,0.961,4.824,3.442,5.75,6.189c-0.543-1.354-2.044-2.634-2.894-3.915
		c0.659,0.695,1.356,1.713,1.587,2.646c-0.844-1.503-1.797-4.065-3.648-4.923c0.162,0.974,1.119,1.723,1.467,2.682
		c-1.087-1.089-2.558-2.795-4.242-2.785c0.764,0.509,1.515,1.02,1.802,1.918c-1.212-0.769-3.175-1.838-4.63-1.668
		c0.792,0.501,1.931,0.943,2.279,1.846c-1.059-0.113-1.952-0.675-3.075-0.755c0.751,0.448,1.527,0.86,2.263,1.337
		c-1.43,0.294-2.501-1.297-3.947-1.097c-0.122,0.95,1.123,1.061,1.814,1.194c-1.131,0.081-2.061-0.778-3.191-0.67
		c-0.113,1.579,2.553,1.553,3.458,2.246c-1.693-0.323-6.311-0.784-2.849,1.119c2.073,1.135,4.578,1.87,6.376,3.442
		c2.525,2.198,3.959,6.052,5.446,8.984c1.139,2.246,0.776,4.599,1.64,6.89c0.385-1.774,0.143-3.721,0.489-5.471
		c0.142,1.377-0.037,3.503-0.332,4.864c0.085-2.684-1.167-5.047-1.449-7.656c-0.271,1.091-0.11,2.492-0.11,3.673
		c-0.006-1.879,0.36-4.901-1.396-6.104c-0.311,0.63-0.339,1.636-0.189,2.267c0.242-1.685-0.687-4.699-2.259-5.753
		c-0.19,0.913-0.101,2.154,0.457,2.941c-0.542-1.677-1.45-4.569-2.509-5.878c-0.044,0.917,0.25,1.83,0.525,2.703
		c-0.182-0.234-3.891-5.822-5.074-3.68c-0.332,0.598,3.127,4.674,3.474,5.305c1.067,1.919,1.774,3.923,1.672,6.133
		c-0.513-1.604-1.095-3.301-1.155-4.994c-0.137,0.856-0.089,1.899-0.057,2.816c0.638-1.062,0.469-4.643-0.178-5.523
		c-0.679,1.079-1.05,2.699-1.062,3.963c0.323-1.689,0.355-3.66-0.141-5.313c-0.473,0.824-0.489,2.174-0.283,3.107
		c0.044-0.255,0.008-0.42-0.064-0.772c-0.041,0.206-0.146,0.428-0.202,0.634c-0.044-0.913-0.771-2.663-1.466-3.523
		c-0.122,1.091,0.396,2.246,0.969,3.095c-0.735-1.979-4.687-9.917-7.123-4.396c0.885-0.529,1.628-1.446,2.748-1.377
		c-0.069,0.885-1.019,1.418-1.204,2.25c0.873-0.355,1.778-0.78,2.691-1.035c-0.833,1.071-2.028,1.932-2.505,3.285
		c0.82-0.505,1.697-1.495,2.234-2.299c-0.598,1.111-1.402,2.271-1.822,3.435c0.768-0.529,1.156-1.596,1.746-2.283
		c-0.893,1.668-2.061,3.636-1.988,5.604c0.743-0.945,1.042-2.319,1.556-3.43c-0.162,1.285-0.711,2.542-0.784,3.838
		c0.352-0.703,0.719-1.831,1.305-2.214c-0.133,1.499-1.018,3.018-1.39,4.5c0.65-0.59,0.941-1.628,1.551-2.335
		c-0.388,1.418-1.434,2.743-1.479,4.295c0.368-0.582,0.646-1.208,0.994-1.802c0.069,1.131-0.598,2.412-0.562,3.66
		c0.267-0.729,0.545-1.491,1.034-2.053c0.166,1.401-0.558,2.953-0.675,4.388c0.012-0.341-0.004-0.683,0.004-1.019
		c-0.283,1.244-0.424,2.974,0.084,4.166c1.119-3.531,0.594-7.979,2.529-11.2c-0.186,1.2,0.905,2.65,1.377,3.709
		c0.788,1.762,1.543,3.604,2.396,5.316c0.759,1.53,2.404,2.934,2.569,4.686c-0.133-1.736-1.135-3.34-1.567-5.008
		c-0.295,0.988,0.109,2.226,0.464,3.157c0.453-2.089-0.978-5.446-1.757-7.462c-0.068,1.43,0.375,3.43,1.111,4.646
		c-0.226-1.771-1.272-4.896-2.25-6.336c0.008,1.549,0.788,2.994,1.055,4.506c-0.417-1.762-1.487-3.293-1.968-5.051
		c-0.133,0.795,0.061,1.803,0.238,2.631c0.234-1.196-0.25-2.473-0.574-3.629c-0.25,0.809-0.247,1.879,0.012,2.716
		c-0.206-2.331-1.039-5.422-1.988-7.636c-0.17,0.897-0.056,1.838-0.004,2.759c-0.335-1.798-0.679-3.592-0.998-5.394
		c-0.153-0.873-0.117-2.278-0.521-3.074c-0.449-0.897-0.028-0.63-0.994-0.873c-3.571-0.897-5.911,3.567-7.167,6.036
		c-2.343,4.598-5.967,9.179-5.692,14.552c0.388-1.777,0.84-3.816,0.945-5.645c0.105,1.213-0.097,2.605,0.424,3.71
		c0.78-2.102,0.723-4.93,0.792-7.164c-0.008,1.257-0.052,2.537,0.012,3.794c0.946-1.332,0.97-4.569,1.204-6.266
		c0.02,1.709-0.247,3.426-0.162,5.13c1.042-1.842,0.549-4.686,1.273-6.755c0.109,1.309-0.109,2.646-0.162,3.951
		c0.618-1.462,0.893-3.042,1.232-4.593c0.008,0.856,0.004,1.753-0.259,2.569c0.142-1.269,0.42-2.662,0.691-3.935
		c-0.008,0.719-0.06,1.446,0.077,2.146c0.586-0.744,0.792-2.634,0.877-3.648c-0.004,0.655,0,1.313-0.004,1.972
		c0.02-0.921,0.327-1.846,0.501-2.743c0.016,0.056,0.048,0.097,0.105,0.117c0.299-0.505,0.545-1.026,0.881-1.507
		c-0.021,1.268-1.208,2-2.048,2.775c-1.398,1.289-2.558,3.103-4.048,4.242c0.646-1.726,3.41-3.556,4.889-4.759
		c-0.946,2.254-3.305,3.81-4.452,6.007c2.181-2.169,4.521-5.191,5.038-8.278c-0.796,0.606-1.576,1.398-2.299,2.125
		c-0.893,0.897-2.161,2.965-3.381,3.252c0.117-1.797,2.768-4.476,4.549-4.682c0.012,0.719-0.812,2.048-1.301,2.509
		c-1.479-1.523-6.21,1.535-7.62,2.323c-1.801,1.002-2.48,2.368-3.515,4.093c-0.99,1.637-2.133,1.852-3.471,2.971
		c1.196,0.267,1.806-1.98,2.424-2.735c-0.069,0.981-0.663,1.888-0.865,2.856c0.723-1.147,1.447-2.268,2.275-3.337
		c-0.218,0.844-0.731,1.612-1.046,2.432c1.099-1.397,2.46-2.828,3.317-4.363c-0.921,0.812-1.673,2.327-1.773,3.563
		c0.694-1.476,1.216-3.131,1.672-4.699c0.032,0.962-0.182,1.919-0.376,2.853c0.307-1.438,0.909-3.382,2.275-4.133
		c-0.004,0.853-0.38,1.729-0.719,2.517c0.493-0.808,1.341-2.327,2.214-3.01c-0.173,0.663-0.444,1.297-0.728,1.919
		c0.247-1.006,0.938-2.133,1.834-2.687c-0.153,0.509-0.375,1.059-0.509,1.6c0.667-1.224,2.461-3.208,3.911-3.369
		c-1.972-0.093-4.679,0.343-6.169,1.717c1.135,0.222,2.323,0.064,3.466,0.129c-1.916,0.206-3.79,0.024-5.527,0.925
		c0.86,0.372,1.842,0.464,2.768,0.553c-1.402,0.323-3.62,0.582-4.388,2c0.946,0.202,2.021-0.117,2.958-0.303
		c-1.276,0.303-2.424,0.873-3.394,1.745c1.241-0.622,4.137-1.588,4.743-2.86c-0.986,0.525-2.101,1.006-2.873,1.838
		c3.216-2.23,6.314-4.626,9.542-6.767c1.273-0.841,2.287-2.436,3.034-3.745c-3.486-0.227-8.141,0.493-11.288,2.04
		c-2.525,1.241-4.161,4.024-5.394,6.424c-0.068-2.565,3.18-6.945,5.616-7.458c-1.426,1.03-2.869,2.234-3.539,3.915
		c1.07-1.272,2.238-2.59,3.442-3.749c-0.554,0.873-1.115,1.777-1.806,2.553c1.01-1.862,3.107-3.733,5.05-4.618
		c-1.075,0.956-2.234,1.963-3.095,3.127c1.103-0.965,2.343-1.866,3.733-2.351c-0.254,0.755-0.715,1.604-1.293,2.189
		c0.627-0.707,1.487-1.482,2.412-1.729c-0.226,0.824-0.901,1.467-1.527,2.036c0.953-0.816,1.979-1.737,3.171-2.141
		c-0.142,0.602-0.687,1.131-1.18,1.572c0.562-0.635,1.366-1.342,2.23-1.386c-0.121,0.186-0.214,0.618-0.368,0.82
		c0.727-0.291,4.319-0.206,4.493-0.816c0.259-0.919-5.24-3.066-6.032-3.333c-5.301-1.778-10.642,2.375-15.817,3.062
		c2.82-0.222,5.721-1.107,8.242-2.355c-1.091-0.053-2.162,0.416-3.16,0.797c1.814-0.26,3.588-1.107,5.252-1.832
		c-0.493,0.707-1.673,1.269-2.554,1.56c1.333-0.978,3.471-2.084,5.143-2.43c-0.731,0.62-1.636,1.054-2.399,1.639
		c1.305,0,2.626-0.748,3.891-1.117c0.23,0.717-0.461,1.452-1.038,1.917c0.872-0.157,1.66-0.602,2.488-0.909
		c-0.339,0.303-0.885,0.596-1.341,0.832c2.352-0.824,3.721,0.558,5.898,0.938c-0.146-2.378-3.179-4.137-4.618-5.777
		c-1.83-2.093-3.491-4.84-5.979-6.161c-2.751-1.458-4.779-2.958-6.993-5.056c-0.828-0.784-2.586-1.687-3.289-0.146
		c1.099-0.184,2.08-0.923,3.216-0.935c-0.19,0.501-0.961,0.812-1.285,1.28c0.853,0.069,1.692-0.104,2.537-0.165
		c-0.962,0.537-1.915,1.188-2.731,1.931c1.696-0.371,3.191-1.228,4.977-1.232c-0.545,0.731-1.406,1.269-1.979,1.996
		c1.313,0.206,2.707-1.277,4.141-1.198c-0.028,0.753-0.646,1.352-1.18,1.822c0.861,0.26,1.717-0.19,2.541-0.433
		c-0.804,0.911-1.931,1.493-2.8,2.333c0.914-0.37,1.766-0.865,2.768-0.859c-0.162,0.462-0.565,0.838-0.974,1.133
		c1.588,0.537,2.569,2.695,3.822,3.745c-0.364-0.388-0.74-0.759-1.115-1.135c1.046,1.129,2.699,1.847,3.438,3.208
		c-0.659-1.109-1.705-2.026-2.735-2.775c1.195,0.44,2.424,1.042,3.365,1.923c0.808,0.753,1.317,1.885,2.198,2.501
		c-0.153-0.939-0.646-1.838-1.026-2.705c1.099,1.549,1.915,3.202,2.663,4.941c0.444,1.038,0.594,1.775,1.838,2.042
		c1.596-1.828-1.794-7.231-2.639-9.058c-1.357-2.921-4.278-8.334-7.644-9.22c2.109,1.552,3.196,2.954,4.541,5.111
		c-0.497-1.265-2.428-2.455-3.749-2.941c1.483,1.111,3.43,2.44,4.088,4.254c-1.184-1.03-2.392-2.056-3.802-2.763
		c1.394,0.784,2.812,1.594,3.935,2.747c0.775,0.796,1.346,1.875,2.295,2.469c-0.312-1.289-1.979-2.174-2.974-2.923
		c0.788,1.117,1.875,2.063,2.674,3.206c0.909,1.307,1.507,3.14,2.655,4.234c0.068-1.77-1.625-4.311-2.889-5.499
		c0.526,1.726,1.733,3.344,2.485,4.998c0.339,0.748,0.614,1.623,1.172,2.234c0.089-0.85-0.162-1.745-0.416-2.541
		c0.23,1.016,0.82,1.963,1.131,2.972c0.004-0.663-0.081-1.315-0.189-1.97c0.024,0.679,0.162,1.333,0.626,1.814
		c1.361-2.489,1.046-5.133,1.192-7.886c0.246-4.753-1.063-9.394-1.212-14.136c-0.812,1.034,0.084,3.345,0.266,4.581
		c0.182,1.216,0.013,2.824,0.687,3.907c-0.069-1.753-0.711-3.951-1.717-5.425c0.565,1.721,1.071,3.511,1.721,5.203
		c-0.315-1.408-1.236-3.886-2.504-4.646c0.594,2.392,2.153,4.589,3.3,6.743c-0.504-1.154-0.889-2.344-1.07-3.594
		c-0.348,1.448,0.65,3.186,1.002,4.618c0.509-1.642,0.448-3.504,1.454-4.959c-0.379,1.323-0.981,2.775-1.095,4.129
		c0.44-0.818,0.695-3.012,1.782-3.147c0.198,1.652-1.426,3.624-2.359,4.925c0.788-0.756,1.737-1.41,2.38-2.295
		c-0.388,1.151-1.204,2.287-1.794,3.373c0.622-0.638,1.111-1.438,1.454-2.258c-0.735,1.721-1.519,3.426-2.121,5.202
		c0-0.002-0.222-0.083-0.23-0.083c0.04-1.249,0.44-2.887-0.255-4.006c-0.473,0.831-0.682,2.616,0.065,3.347
		c0.081-1.39-0.759-3.876-1.555-5.001c0.032,1.487,0.812,3.048,1.317,4.424c-0.113-1.59-0.651-3.149-0.703-4.727
		c0.618,1.923,0.897,4.133,1.75,5.963c1.883-2.988,4.149-5.709,6.064-8.662c0.582-0.897,1.131-2.941,2.21-3.313
		c0.897-0.311,2.545,0.499,3.03,1.257c-2.671-3.35-7.276,4.387-7.244,6.67c1.07-1,1.915-2.608,2.654-3.893
		c-1.042,1.578-2.294,3.04-3.175,4.719c0.598-1.064,1.644-2.802,2.8-3.311c-0.125,0.731-0.602,1.382-0.594,2.093
		c1.002-0.299,1.963-1.091,2.933-1.552c-0.186,0.295-0.209,0.764-0.327,1.034c2.161-0.634,1.745-3.939,2.654-5.397
		c0.546,1.665-0.873,3.173-1.289,4.711c1.442-1.144,1.475-3.414,2.529-4.707c-0.053,1.139-0.703,2.117-0.877,3.228
		c0.731-0.8,1.144-2.181,1.135-3.244c-2.008,2.574-3.123,6.02-4.941,8.783c-0.485,0.739-1.455,1.576-1.563,2.449
		c3.176-1.03,5.688-1.451,8.347,1.155c1.673,1.64,2.335,4.92,4.335,6.02c0.896-2.068-0.926-5.353-2.864-6.2
		c0.05,1.505,2.198,4.319,3.722,5.008c-0.166-2.03-2.68-5.259-4.488-6.307c0.808,1.656,2.609,2.62,3.188,4.464
		c-0.496-1.159-1.584-2.67-2.658-3.365c-0.432-0.279-3.17-1.406-3.592-0.935c-1.022,1.153,3.604,3.557,4.076,3.741
		c-1.829-2.111-4.371-2.773-7.11-2.545c-2.222,0.184-1.342,0.623-0.36,2.067c2.557,3.761,5.224,6.723,9.042,9.219
		c2.222,1.451,3.943,3.103,5.676,5.115c1.127,1.313,0.752,2.921,1.107,4.521c0.375-2.614-3.987-3.967-3.019-6.573
		c0.89,0.384,1.587,2.303,1.806,3.309c-0.268-1.33-1.39-4.157-2.625-4.864c-0.215,1.337,0.604,2.371,1.002,3.559
		c-1.888-1.006-2.426-3.551-4.041-4.832c-0.824,1.249,0.558,3.075,1.082,4.246c-0.783-1.179-2.347-4.327-3.604-4.399
		c-0.258,1.066,0.057,2.279,0.521,3.244c-0.328-1.398-0.91-3.026-1.637-4.271c-0.114,1.05,0.396,2.092,0.477,3.018
		c-0.542-0.703-0.869-1.673-1.345-2.299c-0.073,0.748,0.258,1.462,0.525,2.153c-0.598-1.37-2.073-5.289-3.745-5.373
		c-0.117,0.812,0.311,1.523,0.775,2.157c-0.448-0.901-3.911-4.602-3.216-1.661c-1.333-1.123-3.159-2.286-4.803-2.909
		c-1.673-0.63-3.555-0.475-5.297-0.578c-1.685-0.097-3.289-0.661-4.876-1.228c-2.731-0.982-3.579-3.121-5.773-4.903
		c-1.572-1.275-3.539-2.62-5.394-3.432c-0.784-0.344-3.843-1.333-4.315-0.255c0.089-0.121,0.206-0.331,0.339-0.404
		c-0.82,0.303-2.307,1.285-2.569,2.109c1.164-0.359,2.069-1.283,2.986-2.054c-0.392,0.608-1.119,1.125-1.345,1.775
		c0.836-0.473,1.531-1.527,2.5-1.648c-0.085,0.558-0.558,0.982-0.994,1.386c0.416-0.455,0.832-0.917,1.244-1.374
		c-0.238,0.354-0.505,0.291-0.759,0.408"/>
</g>
</svg>
