<?xml version="1.0" encoding="utf-8"?>
<!-- Generator: Adobe Illustrator 16.0.0, SVG Export Plug-In . SVG Version: 6.00 Build 0)  -->
<!DOCTYPE svg PUBLIC "-//W3C//DTD SVG 1.1//EN" "http://www.w3.org/Graphics/SVG/1.1/DTD/svg11.dtd">
<svg version="1.1" id="Capa_1" xmlns="http://www.w3.org/2000/svg" xmlns:xlink="http://www.w3.org/1999/xlink" x="0px" y="0px"
	 width="250px" height="250px" viewBox="0 0 250 250" enable-background="new 0 0 250 250" xml:space="preserve">
<g>
	<path fill="#BE1824" d="M180.729,70.736c-0.097-0.8-0.171-1.388-0.209-1.743c0.062-0.901,0.24-6.416-4.146-8.916
		c-0.784-0.763-1.729-1.341-2.796-1.72c-0.373-0.132-0.788-0.343-1.238-0.631c-2.527-2.141-3.553-5.734-6.336-9.71
		c-2.594-3.704-3.211-5.73-4.193-6.085c-0.761-0.771-1.277-1.112-1.79-1.198c-0.097-0.018-0.202-0.025-0.307-0.025
		c-0.804,0-1.611,0.46-3.075,1.295c-3.502,2.001-12.886,8.264-28.722,10.3c-3.148,0.406-6.208,0.612-9.104,0.612
		c-11.162,0-17.588-3.019-20.674-4.471c-1.23-0.579-1.906-0.897-2.52-0.897l-0.311,0.031c-0.994,0.198-2.71,1.357-5.913,3.562
		c-2.338,1.611-4.985,3.436-7.354,4.766c-4.877,2.743-12.404,3.339-14.004,3.339c-0.524,0-0.994,0.214-1.367,0.622
		c-1.386,1.518-1.083,6.117-0.963,7.386c-0.004,0.504-0.311,50.833,0.314,74.582c0.466,17.654,3.429,26.129,10.859,31.219
		c2.232,1.838,4.923,3.324,8.988,4.975c9.085,3.684,23.722,13.375,30.8,18.607c2.034,1.551,2.954,2.369,3.361,2.781
		c0.819,0.818,1.743,2.236,2.637,3.609c1.487,2.287,2.787,4.283,4.263,4.928c0.594,0.625,1.444,1.34,2.48,1.34
		c2.279,0,3.18-3.293,3.708-6.158c2.14-11.635,10.308-15.51,35.008-24.463C189.55,170.906,185.217,107.713,180.729,70.736z"/>
	<path fill="#2A2B20" d="M68.774,68.09c0,0-0.625-6.853,1.242-6.853c1.872,0,9.346-0.621,14.326-3.424
		c4.981-2.803,11.213-7.784,12.77-8.097c1.557-0.311,10.273,7.474,32.073,4.67s29.503-11.752,31.374-11.441
		c1.867,0.311,7.865,15.491,13.157,17.358c5.296,1.87,4.671,8.407,4.671,8.407c0.625,5.919,13.391,98.095-11.523,107.126
		c-24.909,9.029-33.009,13.08-35.187,24.91c-2.182,11.836-6.231,0.314-9.655-3.115c-3.425-3.424-23.979-17.746-35.501-22.42
		c-11.52-4.672-16.815-9.963-17.437-33.631C68.46,117.914,68.774,68.09,68.774,68.09z"/>
	<path fill="#FFFFFF" d="M76.287,74.283c0,0-4.675,80.654,4.36,89.375c9.03,8.721,43.285,23.043,48.892,33.008
		c0.621,1.557,5.916-10.896,9.651-12.455c3.738-1.557,21.485-5.916,28.648-12.143c7.163-6.232,6.542-2.494,8.099-32.078
		c1.558-29.585-1.867-60.101-1.557-63.527c0.311-3.424-2.182-3.114-5.917-7.161c-3.734-4.049-9.345-11.833-9.655-13.393
		c-0.311-1.557-3.114,1.87-9.963,3.737c-6.853,1.87-26.47,6.853-34.254,5.296c-7.789-1.557-16.198-7.786-18.062-5.606
		c-1.871,2.18-4.675,7.163-11.213,9.966S76.287,71.792,76.287,74.283z"/>
	<g>
		<path fill="#CA3931" d="M116.595,89.337l-1.048-0.008c-0.229-0.097-0.481-0.147-0.746-0.123c-0.159,0.012-0.311,0.057-0.45,0.115
			l-2.182-0.016c-0.862,0.014-1.58,0.693-1.588,1.562s0.69,1.581,1.564,1.59l1.328,0.008c0.435,7.763-1.2,10.479-2.256,11.417
			c-0.936,0.829-1.856,0.67-1.926,0.656c-0.102-0.027-0.21-0.043-0.318-0.047c-1.316-0.064-2.353-0.565-3.18-1.531
			c-2.081-2.435-2.368-7.301-2.264-10.157l0.729,0.004l0.023-3.148l-1.898-0.014c-0.051-0.01-0.097-0.027-0.151-0.033
			c-0.175-0.021-0.342-0.004-0.501,0.029l-1.875-0.014c-0.004,0-0.008,0-0.012,0c-0.865,0-1.568,0.701-1.572,1.566
			c-0.008,0.87,0.695,1.58,1.564,1.584l0.544,0.004c-0.102,2.945,0.112,8.821,3.013,12.22c1.374,1.613,3.156,2.497,5.304,2.628
			c0.186,0.035,0.485,0.076,0.865,0.076c0.916,0,2.291-0.237,3.63-1.367c2.741-2.316,3.879-7.25,3.386-14.664L116.595,89.337z"/>
		<path fill="#CA3931" d="M91.153,91.459c-2.357-2.382-3.844-4.1-3.138-6.218c0.389-1.149,1.725-2.683,2.936-3.015
			c0.287-0.078,0.528-0.068,0.757,0.02v1.933c0,0.87,0.703,1.577,1.572,1.577c0.87,0,1.576-0.707,1.576-1.577v-4.424
			c0-0.872-0.706-1.576-1.576-1.576c-0.617,0-1.148,0.359-1.405,0.879c-0.566-0.07-1.157-0.033-1.755,0.128
			c-2.427,0.664-4.438,3.1-5.09,5.055c-1.378,4.111,1.537,7.062,3.883,9.432c0.621,0.631,1.211,1.223,1.677,1.794
			c0.385,0.47,3.696,4.682,0.955,7.446c-0.861,0.866-1.957,1.266-2.935,1.08c-0.742-0.144-1.324-0.633-1.721-1.39v-1.367
			c0-0.87-0.702-1.574-1.572-1.574c-0.869,0-1.576,0.705-1.576,1.574v1.487c-0.023,0.147-0.023,0.297,0,0.448v2.489
			c0,0.872,0.707,1.576,1.576,1.576c0.521,0,0.979-0.256,1.266-0.646c0.447,0.227,0.925,0.398,1.429,0.497
			c0.357,0.07,0.719,0.103,1.08,0.103c1.677,0,3.369-0.73,4.689-2.058c3.331-3.36,2.022-8.279-0.757-11.665
			C92.465,92.787,91.798,92.113,91.153,91.459z"/>
		<path fill="#CA3931" d="M145.938,100.707c-0.874,0-1.577,0.705-1.577,1.576v1.466c-1.944,0.078-3.886,0.14-5.279,0.163
			c1.498-3.448,4.74-10.65,6.922-15.462c0.226-0.489,0.179-1.062-0.116-1.512c-0.295-0.453-0.808-0.705-1.34-0.714l-11.988,0.161
			c-0.862,0.012-1.558,0.714-1.558,1.576v4.426c0,0.87,0.707,1.575,1.576,1.575c0.874,0,1.577-0.705,1.577-1.575v-2.873l7.955-0.104
			c-7.113,15.685-7.09,15.763-6.841,16.514c0.291,0.858,0.396,1.177,3.125,1.177c1.537,0,3.909-0.101,7.613-0.266
			c0.843-0.037,1.507-0.73,1.507-1.574v-2.976C147.515,101.412,146.808,100.707,145.938,100.707z"/>
		<path fill="#CA3931" d="M128.11,89.095c-0.295-0.305-0.699-0.479-1.126-0.481l-4.422-0.029c-0.004,0-0.008,0-0.012,0
			c-0.866,0-1.569,0.695-1.576,1.561c-0.008,0.87,0.69,1.582,1.561,1.59l2.818,0.019c-0.194,6.934-0.275,10.527-0.268,12.455
			l-2.523-0.016c-0.004,0-0.008,0-0.012,0c-0.866,0-1.569,0.699-1.576,1.565c-0.008,0.872,0.694,1.58,1.564,1.586l3.921,0.025
			c0.078,0.014,0.155,0.029,0.237,0.029c0.058,0,0.116-0.02,0.174-0.025h0.094v-0.014c0.21-0.037,0.415-0.101,0.602-0.225
			c0.54-0.361,0.788-0.996,0.68-1.596c-0.066-1.161,0.151-9.937,0.307-15.307C128.561,89.809,128.401,89.399,128.11,89.095z"/>
		<path fill="#CA3931" d="M126.572,82.04c-1.289,0-2.337,1.05-2.337,2.341c0,1.289,1.048,2.339,2.337,2.339
			c1.293,0,2.341-1.05,2.341-2.339C128.913,83.09,127.865,82.04,126.572,82.04z"/>
		<path fill="#CA3931" d="M168.096,103.031l-0.365,0.198l-0.668-6.051c-0.796-8.287-3.603-12.171-8.825-12.224
			c-2.838-0.008-4.845,1.397-5.78,2.217c-0.28-0.128-0.595-0.208-0.936-0.219c-1.224,0-2.218,0.959-2.26,2.184
			c-0.02,0.604,0.194,1.18,0.609,1.623c0.411,0.442,0.971,0.697,1.572,0.718c0.02,0,0.062,0,0.078,0
			c0.873,0,1.618-0.489,1.995-1.208c0.279-0.083,0.54-0.239,0.745-0.472c0.062-0.07,1.519-1.693,3.895-1.693
			c0.016,0,0.031,0.002,0.051,0.002c1.455,0.014,3.991,0.052,5.237,6.086c-1.053-0.458-2.311-0.691-3.759-0.464
			c-3.354,0.528-6.196,2.566-7.232,5.197c-0.886,2.236-0.416,4.686,1.312,6.901c1.34,1.71,3.246,2.613,5.463,2.613
			c0.438,0,0.89-0.035,1.348-0.105c1.036-0.161,2.097-0.508,3.074-0.953c0.296,0.456,0.788,0.722,1.309,0.722
			c0.257,0,0.513-0.062,0.754-0.194l3.886-2.108L168.096,103.031z M151.563,88.328c-0.008,0.02-0.008,0.037-0.012,0.057v-0.059
			C151.556,88.326,151.56,88.328,151.563,88.328z M159.306,105.29c-1.281,0.037-2.299-0.435-3.056-1.405
			c-1.045-1.335-1.336-2.615-0.866-3.803c0.625-1.586,2.551-2.891,4.791-3.242c2.311-0.363,3.549,1.324,3.891,1.875l0.485,4.424
			C163.798,103.846,161.503,105.248,159.306,105.29z"/>
	</g>
	<path fill="#2A2B20" d="M144.188,58.609c0,0-5.304,5.203-2.602,8.907c2.702,3.702,10.506,5.703,16.508,6.604
		c6.007,0.898,5.404-0.202,8.607,2.3c3.203,2.502,10.207-2.9,10.207-2.9s0.8-1.403-0.101-2.403
		c-0.9-1.001-9.908-9.205-12.105-13.107c-2.201-3.902-3.199-6.204-3.405-5.903C161.099,52.407,148.189,57.509,144.188,58.609z"/>
	<path fill="#2A2B20" d="M119.417,72.553c-1.999,1.301-6.402,5.104-11.104,3.601c-4.706-1.5-7.303-5.402-10.606-5.603
		c-3.305-0.2-10.309,0.701-12.109-0.2c-1.798-0.901-2.299-2.502-2.299-2.502s6.903-3.003,8.806-5.303
		c1.898-2.3,5.102-6.002,5.102-6.002s8.106,2.801,12.21,4.102C113.516,61.946,121.421,71.253,119.417,72.553z"/>
	<path fill="#2A2B20" d="M143.267,139.424c-2.085,1.918-4.55,6.014-3.754,9c0.684,2.562,3.879,3.785,5.233,6.01
		c1.969,3.23,1.397,7.621,3.773,10.607c2.688,3.373,7.971,2.289,11.003-0.008c3.258-2.471,2.854-5.262,3.095-8.857
		c0.206-3.113,2.57-4.234,4.974-5.738c2.034-1.273,3.797-2.74,1.343-4.604c-2.081-1.576-4.554-1.375-6.922-2.082
		c-2.031-0.605-2.893-2.27-4.535-3.463C153.579,137.463,147.188,135.812,143.267,139.424z"/>
	<path fill="#2A2B20" d="M178.942,110.054c-5.73-2.388-11.896,1.437-15.607,5.773c-2.054,2.401-3.723,5.631-2.569,8.819
		c1.009,2.788,3.699,4.5,5.982,6.163c1.973,1.441,3.879,2.904,4.868,5.207c0.851,1.969,0.913,4.17,1.519,6.207
		c0.365,1.219,3.261,6.877,4.966,4.049c0.857-1.424-0.625-4.941-0.299-6.727c0.442-2.393,0.722-3.855,0.112-6.271
		c-0.928-3.672,0.311-7.076,0.466-10.778c0.085-2.147,0.578-4.229,0.555-6.389c-0.022-2.11-0.201-4.15,0.105-6.253"/>
	<path fill="#2A2B20" d="M136.868,188.801c1.825-2.119,4.193-3.377,6.822-4.229c1.176-0.383,2.426-0.791,3.618-1.086
		c1.036-0.256,2.889-0.09,3.63-1.021c0.699-0.885,0.442-3.502,0.664-4.617c0.723-3.621,0.438-7.652-3.987-8.404
		c-4.52-0.766-8.413,2.76-12.986,2.162c-4.694-0.609-11.846-5.242-16.466-2.637c-3.681,2.078-0.357,6.348-1.871,9.225
		c-1.161,2.209-4.981,2.023-4.706,5.176c0.218,2.477,2.497,3.381,4.306,4.348c1.239,0.66,2.24,1.748,3.444,2.559
		c1.809,1.217,3.983,1.693,5.773,2.869c2.205,1.449,3.579,3.922,4.938,6.1C130.909,194.939,134.193,191.914,136.868,188.801z"/>
	<path fill="#2A2B20" d="M111.904,158.867c-1.067-2.291-6.627-2.213-8.669-2.691c-3.18-0.748-4.807-2.127-5.983-5.146
		c-1.207-3.107-2.426-5.715-6.025-6.406c-6.196-1.193-16.749,3.008-17.005,10.246v0.1c0.252,1.914,1.006,3.658,1.425,5.529
		c0.54,2.41,0.711,4.15,2.504,5.908c1.534,1.504,3.207,3.871,5.412,4.326c0.699,0.139,1.359-0.121,2.058,0.115
		c0.951,0.322,1.654,1.266,2.458,1.822c1.13,0.771,1.93,1.043,2.928,1.887c2.919,2.461,4.422,0.807,3.618-2.762
		c-0.393-1.742-1.204-3.105,0.532-4.25c2.787-1.844,7.399-1.918,10.536-3.121C107.417,163.764,113.197,161.643,111.904,158.867z"/>
	<path fill="#2A2B20" d="M73.037,114.587c1.32-7.478,8.817-0.913,12.432,0.753c2.236,1.031,4.17,0.012,6.457,0.404
		c2.679,0.458,4.872,3.232,3.812,5.967c-2.14,5.522-10.126,0.379-11.601,6.049c-0.886,3.398-2.485,3.234-5.219,4.727
		c-1.972,1.074-3.055,3.777-5.563,3.494c-0.559-2.885-0.729-5.979-1.168-8.873c-0.396-2.607,0.372-5.751,0.442-8.399
		c0.051-1.672-0.462-2.66,0.318-4.211c0.151-0.014,0.248,0.099,0.388,0.089"/>
	<path fill="#2A2B20" d="M107.956,137.525c1.293,3.32,1.258,3.49,1.277,6.799c0.016,3.252-0.446,6.572,4.003,7.1
		c9.877,1.174,6.143-14.885,12.948-17.283c2.978-1.049,5.78,0.963,8.537-1.604c2.069-1.934,2.811-6.021,1.774-8.63
		c-2.144-5.4-15.246-4.978-19.68-3.826C108.899,122.134,104.967,129.857,107.956,137.525z"/>
	<g id="oVv5ty_2_">
		<g>
			<path fill-rule="evenodd" clip-rule="evenodd" fill="#CA3931" d="M139.066,47.76c-0.051,3.38-0.245,7.018-1.126,10.59
				c-1.507,6.111-5.066,10.634-10.606,13.565c-2.982,1.577-1.794,1.571-4.771-0.006c-6.367-3.364-9.9-8.745-11.065-15.788
				c-0.629-3.799-0.66-7.625-0.664-11.458c0-0.341,0.098-0.508,0.438-0.617c3.456-1.081,6.97-1.825,10.584-2.106
				c5.653-0.439,11.139,0.355,16.531,2.022c0.505,0.157,0.729,0.348,0.691,0.913C139.02,45.743,139.066,46.613,139.066,47.76z
				 M127.808,53.063c0-2.246,0-4.395,0-6.56c-1.938,0-3.798,0-5.734,0c0,2.194,0,4.345,0,6.575c-2.225,0-4.376,0-6.546,0
				c0,1.941,0,3.799,0,5.738c2.193,0,4.34,0,6.564,0c0,2.227,0,4.374,0,6.528c1.945,0,3.806,0,5.746,0c0-2.182,0-4.331,0-6.556
				c2.229,0,4.38,0,6.589,0c0-1.701-0.023-3.325,0.012-4.948c0.012-0.588-0.121-0.812-0.765-0.796
				C131.756,53.091,129.842,53.063,127.808,53.063z"/>
			<path fill-rule="evenodd" clip-rule="evenodd" fill="#FFFFFF" d="M127.808,53.063c2.034,0,3.948,0.027,5.866-0.018
				c0.644-0.016,0.776,0.208,0.765,0.796c-0.035,1.623-0.012,3.248-0.012,4.948c-2.209,0-4.36,0-6.589,0c0,2.225,0,4.374,0,6.556
				c-1.94,0-3.801,0-5.746,0c0-2.155,0-4.302,0-6.528c-2.225,0-4.371,0-6.564,0c0-1.939,0-3.797,0-5.738c2.17,0,4.321,0,6.546,0
				c0-2.23,0-4.381,0-6.575c1.937,0,3.797,0,5.734,0C127.808,48.668,127.808,50.817,127.808,53.063z"/>
		</g>
	</g>
</g>
</svg>
