<?xml version="1.0" encoding="utf-8"?>
<!-- Generator: Adobe Illustrator 16.0.0, SVG Export Plug-In . SVG Version: 6.00 Build 0)  -->
<!DOCTYPE svg PUBLIC "-//W3C//DTD SVG 1.1//EN" "http://www.w3.org/Graphics/SVG/1.1/DTD/svg11.dtd">
<svg version="1.1" id="Capa_1" xmlns="http://www.w3.org/2000/svg" xmlns:xlink="http://www.w3.org/1999/xlink" x="0px" y="0px"
	 width="250px" height="250px" viewBox="0 0 250 250" enable-background="new 0 0 250 250" xml:space="preserve">
<g>
	<path fill="#FFFFFF" d="M203.743,167.327c-0.255-0.312-0.53-0.616-0.802-0.912l-0.132-0.148c-0.645-0.711-1.108-1.282-1.421-1.936
		c-0.436-0.905-0.697-1.967-0.849-3.431c-0.041-0.392-0.076-0.783-0.114-1.175l-0.019-0.183c-0.016-0.177-0.072-0.351-0.158-0.509
		c-0.05-0.461-0.11-0.921-0.186-1.379c-0.111-0.663-1.023-4.208-2.204-5.789c-0.846-1.449-2.2-2.825-4.112-4.18
		c0.189-3.059-0.222-8.03-3.88-12.368c-3.983-4.721-10.751-7.46-20.123-8.148c-0.581-1.17-1.209-2.41-1.875-3.719
		c1.401-0.41,2.762-0.776,4.04-1.086c0.543-0.131,0.966-0.547,1.108-1.085c0.142-0.537-0.022-1.111-0.426-1.492
		c-0.401-0.374-0.688-0.664-0.935-0.945c-0.78-0.886-1.206-2.006-1.108-2.277c0.013-0.015,0.082-0.063,0.23-0.11
		c0.079-0.023,0.158-0.035,0.253-0.035c1.104,0,2.762,1.446,3.469,2.063c0.562,0.49,1.38,1.242,1.982,2.089
		c0.328,0.461,0.881,0.696,1.445,0.622c2.438-0.339,4.571-0.461,6.49-0.346c0.028,0.002,0.057,0.004,0.085,0.004
		c0.01,0,0.013,0,0.022,0c0.84,0,1.516-0.679,1.516-1.516c0-0.363-0.13-0.697-0.342-0.96c-1.025-1.694-7.944-12.268-20.991-12.268
		c-1.855,0-3.769,0.224-5.7,0.661c-1.944-3.566-4.053-7.395-6.285-11.392c-0.019-0.033-0.047-0.058-0.066-0.09
		c-0.016-0.035-0.024-0.073-0.044-0.107c-4.091-7.331-7.156-12.676-7.185-12.729c-0.057-0.101-0.126-0.195-0.208-0.279l-4.709-5.051
		c-0.059-0.058-0.118-0.113-0.18-0.162l-3.03-2.356c-0.327-0.256-0.747-0.359-1.16-0.297c-0.412,0.063-0.784,0.299-1.021,0.641
		c-0.047,0.066-1.152,1.628-3.605,2.445c-3.221,1.073-6.665,3.476-10.513,6.271c-0.563,0.411-1.803,1.579-6.437,7.022
		c-0.016,0.021-0.022,0.047-0.041,0.069c-0.027,0.03-0.062,0.054-0.09,0.087c-2.358,2.774-5.385,6.409-9.001,10.814
		c-4.798-1.15-9.598-0.898-14.246,0.748c-0.038,0.013-0.079,0.03-0.114,0.046c-1.176,0.53-11.542,5.309-13.87,9.964
		c-0.117,0.229-0.169,0.482-0.159,0.731c-0.044,0-0.093,0-0.139,0c-4.22,0-8.643,0.575-13.144,1.707
		c-0.057,0.014-0.114,0.031-0.167,0.052c-0.622,0.236-15.224,6.025-14.331,28.179c0.022,0.478,0.262,0.916,0.654,1.188
		c0.393,0.269,0.888,0.341,1.343,0.189l7.751-2.582c0.643-0.218,1.067-0.834,1.032-1.516c-0.3-6.101,0.534-11.446,1.49-12.512
		c0.732,1.442,1.04,6.763,0.655,12.048c-0.035,0.492,0.169,0.969,0.554,1.281c0.38,0.312,0.891,0.42,1.364,0.287l3.632-1.01
		c-3.537,3.507-5.685,7.487-7.224,10.344c-0.189,0.348-0.366,0.679-0.535,0.988l-0.371,0.151c-0.248,0.104-0.462,0.275-0.624,0.486
		c-1.487,1.979-6.469,3.097-9.263,3.333c-0.538,0.048-1.013,0.376-1.242,0.862c-1.657,3.51-3.376,8.1-2.156,10.025
		c0.419,0.663,1.125,1.041,1.937,1.041c0.784,0,1.664-0.341,2.765-1.079c1.963-1.307,4.186-1.97,6.606-1.97
		c1.93,0,3.463,0.433,4.102,0.644c0.156,0.189,0.311,0.373,0.464,0.556c0.245,0.291,0.584,0.474,0.95,0.521
		c3.321,3.733,6.478,6.022,11.397,6.022c3.575,0,7.863-1.14,15.019-3.384c8.396-2.63,41.2-2.684,41.449-2.684
		c0.597,0.028,1.311,0.061,2.125,0.099c7.572,0.334,25.309,1.117,39.522,6.319c3.393,1.24,6.329,2.149,8.983,2.774
		c0.069,0.016,0.139,0.028,0.208,0.034c1.206,0.111,2.412,0.168,3.58,0.168c1.025,0,2.045-0.044,3.03-0.13l0.325-0.025
		c0.587-0.047,1.259-0.101,1.925-0.274c0.657-0.174,1.326-0.426,2.109-0.799c0.113-0.05,0.224-0.104,0.334-0.16
		c0.338,0.078,0.694,0.037,1.011-0.12c0.653-0.328,1.351-0.666,2.055-0.906c0.758-0.262,1.376-0.277,2.099-0.054
		c0.205,0.061,0.42,0.143,0.641,0.228l0.196,0.069c0.477,0.177,1.007,0.104,1.417-0.195c0.492-0.357,0.97-0.732,1.418-1.114
		c1.057-0.9,1.751-2.122,2.063-3.631C204.15,168.15,204.034,167.681,203.743,167.327z M186.373,143.731
		c-1.108-0.471-2.292-0.938-3.539-1.396c0.032-1.458,0.42-2.547,1.188-3.305C185.262,139.853,186.038,141.398,186.373,143.731z
		 M177.933,140.676c-0.888-0.277-1.803-0.552-2.743-0.827c-0.161-0.697-0.474-1.701-1.08-3.221c0.205-0.129,0.398-0.195,0.568-0.195
		C175.659,136.433,177.008,138.299,177.933,140.676z M89.344,113.783c-0.205,0.317-0.281,0.697-0.218,1.065
		c-1.002-0.291-2.016-0.543-3.042-0.76c1.664-2.706,4.27-5.971,6.02-6.335C91.996,108.858,90.801,111.507,89.344,113.783z
		 M76.709,125.947c0.047-0.071,0.09-0.119,0.131-0.146c0.54,0.589,1.086,3.542,0.759,8.504c-0.369,0.127-0.734,0.262-1.09,0.402
		C76.014,131.386,75.812,127.26,76.709,125.947z"/>
	<path fill="#FFFFFF" d="M116.707,92.803c0.469,0.553,0.935,1.106,1.401,1.662c0.139,0.162,1.261,1.645,1.411,1.555
		c1.848-1.111,3.128-2.963,5.174-3.773c0.064-0.025,0.128,0.003,0.146,0.07c0.421,1.587,1.479,2.968,1.717,4.601
		c1.032-1.809,1.617-3.84,3.211-5.28c0.051-0.048,0.119-0.022,0.156,0.031c0.666,1.022,1.407,1.995,2.174,2.943
		c0.621,0.766,1.297,1.501,1.877,2.295c0.377,0.518,0.704,1.135,1.17,1.578c0.281,0.266,0.752-0.311,0.938-0.503
		c0.946-0.993,1.735-2.142,2.539-3.248c0.656-0.903,1.275-1.883,2.062-2.681c0.049-0.05,0.126-0.021,0.156,0.03
		c0.737,1.217,1.247,2.574,2.062,3.74c0.574,0.819,1.287,1.62,1.597,2.586c0.823-1.803,1.13-3.812,2.197-5.507
		c0.037-0.059,0.113-0.052,0.157-0.01c1.396,1.309,2.51,2.877,3.842,4.249c0.164-0.422,0.376-0.825,0.597-1.222
		c-4.132-7.41-7.175-12.713-7.175-12.713l-4.714-5.051l-3.03-2.358c0,0-1.348,2.021-4.378,3.031
		c-3.031,1.01-6.396,3.366-10.098,6.061c-0.762,0.554-3.042,3.097-6.174,6.778C116.048,92.049,116.383,92.419,116.707,92.803z"/>
	
		<path fill="#2B4560" stroke="#2B4560" stroke-width="1.6726" stroke-linecap="round" stroke-linejoin="round" stroke-miterlimit="10" d="
		M151.401,96.117c-0.221,0.404-0.426,0.812-0.578,1.242c-0.024,0.074-0.119,0.087-0.17,0.033c-1.352-1.364-2.466-2.94-3.854-4.267
		c-1.048,1.731-1.332,3.777-2.216,5.586c-0.041,0.087-0.167,0.088-0.192-0.016c-0.271-1.175-1.231-2.059-1.851-3.059
		c-0.671-1.077-1.168-2.246-1.811-3.335c-0.889,0.931-1.596,2.073-2.35,3.107c-0.763,1.04-1.523,2.239-2.526,3.068
		c-0.178,0.144-0.516,0.431-0.747,0.238c-0.512-0.422-0.845-1.073-1.229-1.603c-1.305-1.789-2.826-3.393-4.055-5.246
		c-1.582,1.487-2.144,3.593-3.232,5.41c-0.043,0.071-0.177,0.051-0.182-0.037c-0.148-1.716-1.261-3.138-1.729-4.765
		c-2.025,0.852-3.313,2.722-5.197,3.795c-0.037,0.024-0.093,0.01-0.12-0.021c-1.261-1.473-2.511-2.956-3.771-4.426
		c-12.132,14.271-36.787,45.246-36.787,45.246c35.687-1.347,92.916,7.409,94.936,4.379
		C175.129,139.366,160.615,112.633,151.401,96.117z"/>
	
		<path fill="#3AAF73" stroke="#FFFFFF" stroke-width="1.4217" stroke-linecap="round" stroke-linejoin="round" stroke-miterlimit="10" d="
		M145.959,130.318c0,0,3.277-1.604,8.129-3.589c-1.455-1.366-2.98-2.812-3.306-4.842c-0.284-1.768,1.398-3.211,3.101-2.367
		c1.433,0.71,2.376,2.216,3.064,3.61c0.319,0.643,0.669,1.375,0.868,2.125c1.014-0.386,2.405-0.813,3.485-1.195
		c-0.045-0.054-0.095-0.1-0.14-0.154c-0.697-0.86-1.694-1.749-2.229-2.721c-0.782-1.423-2.26-4.82,0.184-5.654
		c3.229-1.1,6.433,3.212,7.979,6.567c1.475-0.437,2.971-0.846,4.457-1.205c-0.359-0.337-0.707-0.683-1.032-1.049
		c-1.063-1.205-2.626-4.063-0.195-4.834c1.789-0.566,3.952,1.268,5.17,2.331c0.776,0.676,1.595,1.463,2.226,2.354
		c2.396-0.335,4.697-0.483,6.783-0.358c0,0-10.119-17.874-30.145-9.475c-20.026,8.398-19.596,20.025-19.596,20.025
		s-18.736-34.669-43.068-26.056c0,0-10.98,4.952-13.136,9.26l5.6,1.293c0,0,4.523-8.184,8.182-8.184c3.66,0-1.723,8.397-1.723,8.397
		l3.662,1.508c0,0,4.738-6.46,7.752-6.244c3.016,0.215-2.369,9.044-2.369,9.044l3.229,1.938c0,0,2.156-5.812,6.463-5.598
		c4.306,0.215-3.016,9.044-3.016,9.044l1.938,2.154c0,0,3.153-4.587,5.167-3.662c6.524,2.994,2.625,16.761,2.625,16.761
		s-15.114-32.48-51.938-23.221c0,0-14.212,5.384-13.349,26.702l7.752-2.585c0,0-0.649-13.136,2.798-14.212
		c3.447-1.076,2.369,13.782,2.369,13.782l11.628-3.231c0,0-2.369-11.842,1.293-12.488c3.66-0.646,2.366,11.627,2.366,11.627
		l8.831,1.292c0,0,0.214-7.967,4.092-8.182c3.876-0.216,0.215,11.197,0.215,11.197s10.123,4.091,9.689,7.32
		c-0.271,2.042,21.987,1.591,40.199,1.36c0.136-2.756,0.846-5.673,3.295-6.294c3.333-0.843,4.47,3.377,5.078,6.212
		c0.442,0,0.891-0.003,1.319-0.007c0.035-2.298,0.562-4.479,2.561-4.646c2.2-0.189,3.689,1.557,4.637,3.353
		c0.218,0.42,0.442,0.884,0.645,1.367c2.298,0.066,4.021,0.186,4.934,0.379c6.799,1.442-11.254-8.555-18.289-10.171
		c-0.316-0.072-0.609-0.13-0.878-0.164c-1.404-0.192-0.779-0.527,1.228-0.745c-1.063-2.065-1.505-5.596,1.26-6.064
		c3.179-0.54,3.409,3.794,4.242,5.847c0.776,0.007,1.595,0.025,2.463,0.063c-0.148-0.731-0.215-1.499-0.148-2.316
		c0.123-1.553,0.638-4.413,2.695-4.54c3.428-0.214,4.331,4.479,4.631,7.472c0.697,0.088,1.401,0.187,2.121,0.3
		c-0.057-0.458-0.104-0.915-0.123-1.38c-0.063-1.296-0.117-4.331,1.818-4.514c2.752-0.263,3.554,4.097,3.788,6.936
		c0.846,0.192,1.694,0.397,2.55,0.625c-0.198-1.73-0.256-3.848,0.988-4.916c3.617-3.11,6.79,3.786,7.465,7.782
		c0.37,0.157,0.739,0.312,1.108,0.477c-0.281-2.438,0.044-4.789,1.894-6.313c0.376-0.307,0.824-0.307,1.234-0.076
		c3.217,1.806,3.624,6.374,3.535,10.004c1.304,0.849,2.561,1.773,3.763,2.771C191.827,150.345,200.01,121.059,145.959,130.318z"/>
	<path fill="#F1C560" d="M60.9,153.826c1.693-0.688,3.444-1.187,5.202-1.673c11.43-3.153,23.31-4.391,35.134-4.688
		c12.088-0.303,24.227,0.199,36.255,1.411c20.75,2.083,41.246,6.212,61.388,11.597c-0.082-0.858-0.167-1.717-0.312-2.572
		c-0.129-0.796-1.051-4.044-1.966-5.189c-6.554-11.54-53.002-18.354-62.866-19.043c-16.148-1.127-43.822-1.983-55.603,2.057
		c-11.564,3.962-15.343,14.717-17.708,18.3C60.584,153.959,60.739,153.893,60.9,153.826z"/>
	<path fill="#EABB44" d="M50.188,165.351c6.058-4.04,12.455-1.345,12.455-1.345c0.241,0.294,0.478,0.578,0.713,0.855
		c5.072-1.373,10.221-2.487,15.407-3.333c11.226-1.828,22.642-2.569,34.015-2.32c11.783,0.262,23.586,0.773,35.293,2.231
		c5.754,0.717,11.486,1.648,17.152,2.898c5.54,1.222,10.906,2.882,16.319,4.552c3.997,1.234,8.037,2.349,11.91,3.939
		c0.016,0.006,0.025,0.013,0.041,0.016c0.729-0.363,1.462-0.717,2.235-0.981c1.032-0.354,1.998-0.392,3.036-0.07
		c0.287,0.089,0.597,0.209,0.919,0.325c0.444-0.325,0.887-0.672,1.325-1.045c0.824-0.697,1.329-1.647,1.562-2.783
		c-0.284-0.348-0.59-0.679-0.887-1.008c-0.647-0.716-1.24-1.42-1.663-2.298c-0.588-1.23-0.85-2.575-0.988-3.927
		c-0.051-0.457-0.092-0.915-0.133-1.376c-24.031-6.414-48.614-11.133-73.472-12.572c-11.997-0.698-24.099-0.862-36.075,0.205
		c-5.952,0.53-11.888,1.354-17.72,2.657c-2.849,0.638-5.691,1.352-8.474,2.229c-1.007,0.319-1.987,0.727-2.964,1.137
		c-2.456,3.271-10.347,3.934-10.347,3.934S44.127,169.392,50.188,165.351z"/>
	<path fill="#D8A73A" d="M192.513,172.191c-3.835-1.475-7.797-2.541-11.705-3.791c-5.688-1.821-11.389-3.46-17.244-4.672
		c-11.585-2.402-23.388-3.593-35.193-4.205c-11.693-0.608-23.425-0.921-35.109,0.028c-10.003,0.814-19.965,2.415-29.658,5.029
		c6.853,8.043,10.732,7.604,25.505,2.977c8.718-2.734,41.987-2.756,41.987-2.756c6.396,0.338,26.174,0.688,42.089,6.512
		c3.271,1.196,6.178,2.1,8.807,2.721c2.109,0.193,4.236,0.218,6.345,0.038c0.654-0.057,1.349-0.088,1.989-0.256
		c0.638-0.17,1.25-0.419,1.85-0.7c0.4-0.189,0.796-0.389,1.19-0.587C193.081,172.415,192.793,172.299,192.513,172.191z"/>
	<g>
		<path fill="#2B4560" stroke="#2B4560" stroke-width="0.8363" stroke-miterlimit="10" d="M92.886,139.915
			c-0.37-2.017-1.754-1.862-3.275-1.625c-0.09,0.016-0.202,0.041-0.352,0.075c-2.347,0.515-11.772,2.715-12.163,4.826
			c-0.44,2.415,1.58,2.245,3,1.762c1.419-0.479,3.96-1.55,3.96-1.55s-2.783,21.26-0.976,21.891c1.803,0.635,2.726-0.256,3.155-1.862
			c0.428-1.609,0.948-20.079,0.948-20.079S93.258,141.938,92.886,139.915z"/>
	</g>
	<path fill="#2B4560" stroke="#2B4560" stroke-width="0.8363" stroke-miterlimit="10" d="M103.268,153.57
		c-1.307-0.224-2.769,2.98-4.79,3.05c0,0-3.733,0.243-3.433-5.906c0.014-0.303,5.949,0.095,7.183-1.298
		c1.232-1.392,0.844-8.753-2.08-8.709c-6.256,0.104-10.083,5.891-8.572,12.371c1.509,6.48,5.418,8.156,8.477,6.089
		C103.113,157.097,104.578,153.791,103.268,153.57z M99.181,144.426c1.08,0.102,1.574,2.346,1.364,2.848
		c-0.207,0.498-4.547,0.53-4.547,0.53C96.545,145.089,97.871,144.303,99.181,144.426z"/>
	<path fill="#2B4560" stroke="#2B4560" stroke-width="0.8363" stroke-miterlimit="10" d="M134.843,152.958
		c-1.31-0.224-2.771,2.983-4.79,3.05c0,0-3.734,0.242-3.436-5.906c0.014-0.303,5.949,0.098,7.182-1.294
		c1.234-1.396-0.041-8.413-2.963-8.365c-6.258,0.101-9.196,5.546-7.685,12.023c1.509,6.48,5.417,8.156,8.474,6.089
		C134.686,156.487,136.149,153.179,134.843,152.958z M130.754,143.813c1.08,0.102,1.573,2.346,1.366,2.848
		c-0.21,0.502-4.547,0.53-4.547,0.53C128.121,144.477,129.443,143.69,130.754,143.813z"/>
	<path fill="#2B4560" stroke="#2B4560" stroke-width="0.8363" stroke-miterlimit="10" d="M181.96,161.62
		c-2.519-0.464-2.771,2.982-4.792,3.049c0,0-3.733,0.243-3.434-5.902c0.013-0.304,7.032-0.13,8.267-1.521
		c1.229-1.393-0.236-8.532-3.166-8.485c-6.256,0.102-10.079,5.891-8.57,12.371c1.513,6.48,5.417,8.156,8.476,6.086
		C181.803,165.148,183.267,161.863,181.96,161.62z M177.869,152.476c1.083,0.101,1.575,2.345,1.367,2.847
		c-0.209,0.502-4.546,0.533-4.546,0.533C175.236,153.142,176.56,152.355,177.869,152.476z"/>
	<path fill="#2B4560" stroke="#2B4560" stroke-width="0.8363" stroke-miterlimit="10" d="M117.107,140.266
		c-2.451-0.12-7.347,3.333-7.347,3.333s-1.067-2.639-2.989-2.165c-1.926,0.474-0.163,16.338-0.163,16.338s0.218,1.149,2.107,0.739
		c2.091-0.451,1.228-7.343,1.78-10.461c0.556-3.119,3.792-4.362,5.005-3.854c1.532,0.645,0.805,12.725,2.002,13.447
		c1.2,0.726,2.519,0.142,2.822-6.104C120.63,145.288,119.604,140.389,117.107,140.266z"/>
	<path fill="#2B4560" stroke="#2B4560" stroke-width="0.8363" stroke-miterlimit="10" d="M147.541,142.443
		c-0.038,0.01-0.069-0.006-0.107,0c-2.434,0.729-5.782,3.15-5.782,3.15s-1.066-2.639-2.991-2.165
		c-1.922,0.474-0.16,16.338-0.16,16.338s0.21,1.193,2.106,0.739c2.08-0.499,1.225-7.343,1.783-10.461
		c0.553-3.119,3.696-3.978,5.003-3.854c0.079,0.006,0.148,0.063,0.215,0.154c0.154,0.054,0.303,0.14,0.436,0.301
		c0.871,1.066,3.036-0.452,2.784-1.654C150.559,143.668,148.961,142.172,147.541,142.443z"/>
	<path fill="#2B4560" stroke="#2B4560" stroke-width="0.8363" stroke-miterlimit="10" d="M150.723,151.639
		c0.379,3.788,0.382,10.148,1.225,10.656c1.199,0.727,2.52,0.143,2.819-6.107c0.106-2.159-0.061-4.208-0.417-5.957
		C154.378,149.019,151.477,147.358,150.723,151.639z"/>
	<path fill="#2B4560" stroke="#2B4560" stroke-width="0.8363" stroke-miterlimit="10" d="M157.216,142.052
		c-2.756-2.117-5.874,3.002-1.635,3.842C157.724,146.316,158.816,143.283,157.216,142.052z"/>
	<path fill="#2B4560" stroke="#2B4560" stroke-width="0.8363" stroke-miterlimit="10" d="M165.729,147.412
		c0.932-1.216,2.715-1.401,4.252-1.363c0.875,0.021,1.954,0.694,2.573-0.304c1.225-1.985-1.565-2.402-2.856-2.557
		c-2.327-0.277-4.849-0.031-6.787,1.398c-2.146,1.585-2.936,3.245-3.33,5.771c-2.791-1.19-4.46,2.323-0.855,3.364
		c-0.433,2.472-1.089,9.482,1.506,11.042c2.437,1.468,2.569-4.35,2.651-5.697c0.104-1.692,0.277-3.365,0.512-5.045
		c1.527,0.256,4.921,0.78,5.931-0.858c1.203-1.95-1.632-2.298-2.941-2.468C163.76,150.348,163.105,150.827,165.729,147.412z"/>
</g>
</svg>
