<?xml version="1.0" encoding="utf-8"?>
<!-- Generator: Adobe Illustrator 16.0.0, SVG Export Plug-In . SVG Version: 6.00 Build 0)  -->
<!DOCTYPE svg PUBLIC "-//W3C//DTD SVG 1.1//EN" "http://www.w3.org/Graphics/SVG/1.1/DTD/svg11.dtd">
<svg version="1.1" id="Capa_1" xmlns="http://www.w3.org/2000/svg" xmlns:xlink="http://www.w3.org/1999/xlink" x="0px" y="0px"
	 width="250px" height="250px" viewBox="0 0 250 250" enable-background="new 0 0 250 250" xml:space="preserve">
<g>
	
		<path fill="#302E2E" stroke="#7D326B" stroke-width="2.1493" stroke-linecap="round" stroke-linejoin="bevel" stroke-miterlimit="10" d="
		M188.452,166.62c0,1.611-1.308,2.918-2.919,2.918H63.929c-1.612,0-2.92-1.307-2.92-2.918V83.381c0-1.611,1.308-2.919,2.92-2.919
		h121.604c1.611,0,2.919,1.308,2.919,2.919V166.62z"/>
	<g>
		
			<path fill="#7D326B" stroke="#302E2E" stroke-width="0.7956" stroke-linecap="round" stroke-linejoin="bevel" stroke-miterlimit="10" d="
			M78.253,127.336c-0.113-0.673-2.467-1.905-1.794-2.354c0.672-0.448,2.579,0.112,2.242-0.672c-0.336-0.785-1.009-6.727-0.448-7.512
			c0.561-0.785,1.906-6.615,2.579-6.615c0.672,0,2.018,5.493,1.793,6.391c-0.224,0.897-0.896,7.848-0.56,7.848
			s1.681,0.449,1.681,0.449s-1.345,1.121-1.345,4.035c0,2.915-0.448,7.849,0,7.849c0.449,0,1.345-1.122,2.018,0
			c0,0,0.673-1.346,1.794,0c0,0,1.232-1.122,1.905,0h1.009v-9.642c0,0-2.242-1.794-1.345-2.131c0.896-0.336,0.336-8.521,0.561-9.305
			c0.224-0.785-3.251-3.252-1.906-3.588c1.346-0.336,1.346-0.336,1.346-0.336s0.785-6.278,0.224-6.503
			c-0.561-0.225-1.121-0.448-0.448-1.569c0.672-1.121,2.578-8.745,3.7-9.193c1.121-0.449,2.915,9.754,2.466,9.979
			c-0.449,0.224-0.897,0.224-0.897,0.224l0.336,7.063c0,0,1.682-0.226,1.346,0.56c-0.336,0.786-1.346,2.115-1.458,3.3
			c-0.112,1.186,0.112,8.921,0.112,8.921s1.546,0.673,1.391,1.009c-0.157,0.337-1.614,1.121-1.278,1.794
			c0.337,0.673,0.112,10.09,0.673,10.314c0.561,0.225,1.345,0,1.345,0s0.449-11.547,7.063-11.995v-1.346l0.785-0.337
			c0,0-0.449-9.081-0.561-9.306c-0.112-0.225-1.794-1.568-1.346-1.568c0.449,0,1.906-0.338,1.906-0.338s-0.112-9.192,0-12.668
			c0,0,1.794-5.858,2.803-5.62s1.57,6.181,1.57,6.181v12.107c0,0,2.018,0.561,1.345,1.01c-0.673,0.448-1.346,7.287-1.121,10.202
			c0,0,1.284-0.112,1.259,0.673c-0.025,0.784,0,1.457,0,1.457s2.44,1.57,3.337,4.598c0.897,3.026-0.896-9.643-0.56-10.203
			s2.354-9.193,2.69-10.09c0.336-0.896,2.243,8.296,2.804,10.314c0.56,2.018,0,10.986,0,10.986s5.269-11.098,11.771-11.322
			c0,0-0.785-2.131,0.561-2.243c1.345-0.112,2.467-0.112,2.467-0.112s0.111-7.623,0.896-7.512c0.785,0.113-0.225,6.391,0,7.512
			c0,0,2.691-0.335,2.803,0.225c0.112,0.561,0,2.242,0,2.242s5.941,0.785,6.951,7.961v3.25l0.672-6.838c0,0-2.354-2.019-1.232-2.019
			s1.232-0.448,1.232-0.448s0.225-10.203,0.674-10.875c0.448-0.673,1.568-5.494,1.793-5.158c0.225,0.338,1.683,5.606,1.906,6.279
			c0.225,0.673,0,10.202,0,10.202s1.233,0.001,0.896,0.561c-0.336,0.561-1.346,1.121-1.121,1.682c0.225,0.562,1.18,8.296,1.18,8.296
			l4.986-0.111c0,0,0.561-3.699,0-4.148c-0.561-0.448-3.026-2.803-2.018-3.139c1.01-0.336,1.794-0.225,1.794-0.225l-0.112-10.763
			c0,0-2.914-3.476-1.569-3.588s1.345-0.112,1.345-0.112s1.458-16.636,3.364-16.838c1.905-0.203,2.13,13.139,2.018,16.614
			c0,0,1.906,0.224,1.233,0.896c-0.672,0.673-1.682,1.569-1.682,3.027c0,1.457,0,11.099,0,11.099s1.633-0.561,1.826-0.111
			c0.191,0.448,0.191,2.242-1.49,3.475v4.148c0,0,4.037,0.337,4.597-0.672c0.562-1.01-0.111-2.803,0-3.027
			c0.112-0.225-1.232-2.467-0.336-2.467c0.897,0,0.897,0,0.897,0s-0.449-11.359,0-11.342c0.447,0.019,2.242-7.605,3.027-7.941
			c0.784-0.337,1.457,7.736,2.018,8.744c0.561,1.01-0.561,10.764,0,10.875c0.561,0.113,1.569-0.111,1.569-0.111
			s-1.122,1.681-1.458,2.129c-0.336,0.449-1.009,3.701-0.448,3.925s3.925,0.337,4.261,0c0.105-0.105,0.353,0.567,0.613,1.571
			c4.873-4.644,7.915-11.191,7.915-18.454c0-14.079-11.413-25.491-25.492-25.491H92.301c-14.078,0-25.492,11.412-25.492,25.491
			c0,7.817,3.523,14.81,9.063,19.485c1.561,0.209,2.83,0.425,2.83,0.425S78.365,128.009,78.253,127.336z"/>
	</g>
	
		<path fill="#EF8044" stroke="#302E2E" stroke-width="0.7956" stroke-linecap="round" stroke-linejoin="bevel" stroke-miterlimit="10" d="
		M158.575,104.825c0.101,2.623,0.103,5.041,0.063,6.255c0,0,1.906,0.224,1.233,0.896s-1.682,1.569-1.682,3.027
		c0,1.457,0,11.099,0,11.099s1.633-0.561,1.825-0.111c0.192,0.448,0.192,2.242-1.489,3.475v4.148c0,0,4.036,0.337,4.597-0.672
		c0.561-1.01-0.111-2.803,0-3.027c0.112-0.225-1.232-2.467-0.336-2.467s0.896,0,0.896,0s-0.448-11.359,0-11.342
		c0.248,0.01,0.908-2.32,1.582-4.461C163.607,108.876,161.31,106.536,158.575,104.825z"/>
	
		<path fill="#EF8044" stroke="#302E2E" stroke-width="0.7956" stroke-linecap="round" stroke-linejoin="bevel" stroke-miterlimit="10" d="
		M129.713,118.143c1.346-0.112,2.467-0.112,2.467-0.112s0.112-7.623,0.896-7.512c0.785,0.113-0.225,6.391,0,7.512
		c0,0,2.691-0.335,2.804,0.225c0.112,0.561,0,2.242,0,2.242s5.941,0.785,6.951,7.961v3.25l0.672-6.838c0,0-2.354-2.019-1.232-2.019
		c1.12,0,1.232-0.448,1.232-0.448s0.224-10.203,0.673-10.875c0.449-0.673,1.569-5.494,1.794-5.158
		c0.225,0.338,1.683,5.606,1.906,6.279s0,10.202,0,10.202s1.233,0.001,0.896,0.561c-0.336,0.561-1.346,1.121-1.121,1.682
		c0.225,0.562,1.179,8.296,1.179,8.296l4.987-0.111c0,0,0.561-3.699,0-4.148c-0.561-0.448-3.026-2.803-2.018-3.139
		s1.794-0.225,1.794-0.225l-0.112-10.763c0,0-2.914-3.476-1.569-3.588s1.345-0.112,1.345-0.112s0.376-4.275,0.993-8.518
		c-2.024-0.676-4.189-1.047-6.441-1.047c-10.757,0-19.558,8.355-20.278,18.93c0.53-0.162,1.071-0.265,1.622-0.283
		C129.152,120.386,128.368,118.255,129.713,118.143z"/>
	<g>
		<path fill="#EF8044" stroke="#EF8044" stroke-width="0.1658" stroke-miterlimit="10" d="M75.506,141.271
			c-0.194,0.002-0.299,0.003-0.299,0.003s-0.225,4.633,0.343,4.677c0.568,0.045,0.655-0.086,1.049-1.005
			c0.394-0.918,0.875-2.884,4.633-2.579c0,0,0.612,13.637-0.35,13.855s-2.317,0.219-2.317,0.875c0,0.655,0.481,0.586,2.404,0.577
			s6.6,0.153,6.862,0.007c0.262-0.147,0.656-0.715-0.48-0.891c-1.137-0.174-1.989-0.567-2.066-1.223c-0.076-0.656,0-13.201,0-13.201
			s2.021-0.175,2.808,0.131c0.787,0.307,1.705,2.23,1.967,2.886s0.876,0.655,1.093,0.48c0.218-0.175,0-4.59,0-4.59
			C91.234,141.152,77.7,141.254,75.506,141.271z"/>
		<path fill="#EF8044" stroke="#EF8044" stroke-width="0.1658" stroke-miterlimit="10" d="M106.846,156.616
			c-0.656-0.132-1.574-0.132-1.574-1.443c0-1.311,0.48-9.191-0.437-9.098s-5.434-0.168-5.514,0.27
			c-0.08,0.437-0.08,0.785,0.619,0.917s1.442,0.612,1.442,2.798s0.263,5.332-0.917,5.812c-1.18,0.481-2.491,0.656-2.841-0.35
			s0.436-9.658-0.307-9.44c-0.173,0.05-5.813,0.132-5.857,0.437c-0.043,0.307-0.218,1.006,0.656,1.006s1.05,0.219,1.181,2.622
			c0.131,2.404-0.394,6.837,2.185,7.527s3.191,0.319,3.89,0.067s1.923-1.869,2.01-1.606s-0.438,1.641,0.787,1.606
			c1.225-0.033,4.939-0.067,4.939-0.067S107.501,156.747,106.846,156.616z"/>
		<path fill="#EF8044" stroke="#EF8044" stroke-width="0.1658" stroke-miterlimit="10" d="M150.251,156.616
			c-0.655-0.132-1.573-0.132-1.573-1.443c0-1.311,0.479-9.191-0.438-9.098c-0.918,0.094-5.434-0.168-5.514,0.27
			c-0.08,0.437-0.08,0.785,0.619,0.917s1.441,0.612,1.441,2.798s0.263,5.332-0.918,5.812c-1.18,0.481-2.491,0.656-2.841-0.35
			s0.437-9.658-0.306-9.44c-0.174,0.05-5.814,0.132-5.857,0.437c-0.043,0.307-0.219,1.006,0.656,1.006
			c0.873,0,1.049,0.219,1.18,2.622c0.131,2.404-0.394,6.837,2.186,7.527s3.19,0.319,3.89,0.067s1.923-1.869,2.011-1.606
			s-0.438,1.641,0.787,1.606c1.224-0.033,4.939-0.067,4.939-0.067S150.907,156.747,150.251,156.616z"/>
		<path fill="#EF8044" stroke="#EF8044" stroke-width="0.1658" stroke-miterlimit="10" d="M116.286,146.075
			c-2.841,0.838-2.277,1.842-2.646,1.842s-0.151-1.842-0.151-1.842s-5.552,0.051-5.682,0.4c-0.131,0.35-0.001,0.438,0.524,0.787
			c0.525,0.35,1.443,0.279,1.399,2.216s0.262,6.831-0.306,7.05s-1.268,0.263-1.355,0.918c-0.087,0.655,7.387,0.455,7.562,0.228
			s0.175-0.796-0.524-0.884c-0.699-0.087-1.574-0.566-1.53-1.18c0.044-0.612-0.132-6.382-0.087-6.6
			c0.044-0.219,1.418-1.181,2.239-1.181c0,0-0.665,1.88,0.996,2.404c1.661,0.524,2.797-0.611,2.797-1.529
			C119.521,147.786,119.127,145.237,116.286,146.075z"/>
		<path fill="#EF8044" stroke="#EF8044" stroke-width="0.1658" stroke-miterlimit="10" d="M134.293,161.511
			c-0.83-0.131-1.005,0.219-1.049-1.311c-0.043-1.53,0.132-14.6,0.132-14.6s-1.942-0.83-2.172,1.197
			c-0.751-0.431-4.063-2.083-7.75-0.156c-4.196,2.193-3.06,8.706-0.35,10.411s4.776,0.962,6.3-0.437c0,0,0.387,4.502-0.225,4.852
			s-1.88,0.306-1.967,1.18c0,0,8.174,0.262,8.261,0S135.123,161.643,134.293,161.511z M129.354,155.479
			c-0.132,0.524-0.962,1.311-2.841,0.83c-1.88-0.48-1.836-3.277-1.836-3.277c-0.306-5.332,1.968-6.105,2.098-6.119
			c2.098-0.219,2.623,1.572,2.579,1.703S129.486,154.955,129.354,155.479z"/>
		<path fill="#EF8044" stroke="#EF8044" stroke-width="0.1658" stroke-miterlimit="10" d="M157.765,156.46
			c-1.181-0.281-0.001-9.635-0.656-10.115s-5.113-0.088-5.726,0c0,0-0.524,0.918,0,1.005s2.229,0.131,2.143,1.748
			c-0.088,1.618,0.087,7.075-0.263,7.362s-1.486,0.112-1.486,0.725c0,0.611,0,0.611,0,0.611l7.124-0.122
			C158.9,157.674,158.945,156.741,157.765,156.46z"/>
		<path fill="#EF8044" stroke="#EF8044" stroke-width="0.1658" stroke-miterlimit="10" d="M158.19,141.536
			c0.405-0.699-1.388-2.272-2.349-1.529c0,0-4.021,4.589-3.322,4.677C153.219,144.771,157.786,142.236,158.19,141.536z"/>
		<path fill="#EF8044" stroke="#EF8044" stroke-width="0.1658" stroke-miterlimit="10" d="M172.232,156.46
			c-1.137-0.156-0.918-1.462-0.918-5.482c0-4.021-1.049-4.083-1.049-4.083c-3.541-1.81-5.727-0.769-7.081-0.507
			c-1.354,0.263-2.491,1.442-2.273,2.71c0.218,1.269,1.924,1.398,3.147,0.831c1.224-0.568,0.393-2.754,0.393-2.754
			c3.541-1.923,3.148,3.146,3.148,3.146s-1.793,0.568-4.983,1.632s-2.099,4.007-2.099,4.007c2.667,4.24,6.95,0.5,6.95,0.5
			s0.175,0.725,1.792,1.336c1.617,0.612,4.109-0.122,4.109-0.122S173.369,156.616,172.232,156.46z M167.468,155.348
			c0,0-0.438,0.7-1.596,0.875s-1.857-1.005-1.595-2.491c0.262-1.486,3.19-2.229,3.19-2.229V155.348z"/>
	</g>
</g>
</svg>
