<?xml version="1.0" encoding="utf-8"?>
<!-- Generator: Adobe Illustrator 16.0.0, SVG Export Plug-In . SVG Version: 6.00 Build 0)  -->
<!DOCTYPE svg PUBLIC "-//W3C//DTD SVG 1.1//EN" "http://www.w3.org/Graphics/SVG/1.1/DTD/svg11.dtd">
<svg version="1.1" id="Capa_1" xmlns="http://www.w3.org/2000/svg" xmlns:xlink="http://www.w3.org/1999/xlink" x="0px" y="0px"
	 width="250px" height="250px" viewBox="0 0 250 250" enable-background="new 0 0 250 250" xml:space="preserve">
<g>
	<g>
		
			<path fill="#3D1515" stroke="#3D1515" stroke-width="0.9315" stroke-linecap="round" stroke-linejoin="round" stroke-miterlimit="10" d="
			M193.91,107.355c9.195,9.191,9.195,24.098,0,33.289l-52.009,52.014c-9.191,9.191-24.1,9.191-33.291,0l-52.013-52.014
			c-9.191-9.191-9.191-24.098,0-33.289l52.013-52.014c9.191-9.193,24.1-9.193,33.291,0L193.91,107.355z"/>
		<path fill="#D3A67F" d="M63.735,141.329l46.133,46.133c8.499,8.499,22.278,8.499,30.772,0l46.142-46.133H63.735z"/>
		<g>
			<g>
				<path fill="#ECC59C" d="M188.723,108.612l-4.68-4.68c-2.755,0.128-5.181,0.096-5.181,0.096
					c-3.814-0.725-6.709-0.817-9.716,2.122c-1.365,1.333-1.837,2.626-2.426,4.372c-0.276,0.825-0.264,1.629-1.257,1.87
					c-1.918,0.464-1.642-1.746-1.865-2.898c-0.509-2.61-2.006-5.236-4.64-5.821c-1.313-0.288-2.454-0.444-3.699,0.104
					c-0.62,0.272-0.933,0.801-1.633,0.965c-0.333-2.738-3.552-6.741-6.518-6.625c-1.141-3.683-2.946-6.389-6.634-7.862
					c-3.763-1.501-8.906,0.136-9.367,4.551c-1.009-0.156-2.086-0.008-3.059-0.08c0.181-2.646-3.15-4.396-5.404-4.784
					c-2.794-0.484-7.294,1.453-9.051,3.651c-0.989,1.237-0.333,1.549-2.074,1.351c-2.126-0.242-2.718-1.555-3.839-2.96
					c-1.749-2.186-5.02-2.218-7.386-0.82c-1.593,0.942-2.27,2.954-3.695,3.827c-0.777,0.473-2.818,1.297-2.93,1.702l-0.128-0.883
					c-0.216-3.509-0.036-3.933-5.396-3.541c-5.36,0.392-8.247,12.514-8.247,12.514s-0.424,1.786-2.458,1.661
					c-2.034-0.124-3.046,1.633-3.046,1.633l-3.251-2.942c-4.996,0.604-6.377,7.357-6.377,7.357s-1.617,1.469-5,1.413
					c-0.352-0.008-0.876-0.228-1.529-0.612c-4.7,8.295-3.519,19.022,3.555,26.096l3.098,3.099H185.62l3.103-3.099
					C197.217,130.889,197.217,117.111,188.723,108.612z"/>
				<path fill="#46C0ED" d="M64.768,112.491c0,0,1.381-6.753,6.377-7.357l3.251,2.942c0,0,1.013-1.757,3.046-1.633
					c2.034,0.125,2.458-1.661,2.458-1.661s2.886-12.122,8.247-12.514c5.36-0.393,5.18,0.032,5.396,3.541l0.128,0.883
					c0.112-0.404,2.153-1.229,2.93-1.702c1.425-0.873,2.102-2.884,3.695-3.827c2.366-1.397,5.637-1.365,7.386,0.82
					c1.121,1.405,1.713,2.718,3.839,2.96c1.741,0.198,1.085-0.114,2.074-1.351c1.757-2.198,6.257-4.135,9.051-3.651
					c2.253,0.388,5.584,2.138,5.404,4.784c0.973,0.072,2.05-0.076,3.059,0.08c0.461-4.416,5.604-6.053,9.367-4.551
					c3.688,1.473,5.493,4.179,6.634,7.862c2.966-0.116,6.185,3.887,6.518,6.625c0.7-0.164,1.013-0.692,1.633-0.965
					c1.245-0.548,2.386-0.392,3.699-0.104c2.634,0.584,4.131,3.21,4.64,5.821c0.224,1.153-0.053,3.362,1.865,2.898
					c0.993-0.24,0.98-1.045,1.257-1.87c0.589-1.746,1.061-3.039,2.426-4.372c3.007-2.938,5.901-2.846,9.716-2.122
					c0,0,2.426,0.032,5.181-0.096L140.64,60.534c-8.494-8.497-22.273-8.497-30.772,0l-48.074,48.078
					c-1.425,1.429-2.606,3.002-3.555,4.68c0.653,0.384,1.177,0.604,1.529,0.612C63.15,113.96,64.768,112.491,64.768,112.491z"/>
			</g>
			
				<path fill="none" stroke="#3D1515" stroke-width="0.9315" stroke-linecap="round" stroke-linejoin="round" stroke-miterlimit="10" d="
				M93.683,96.787l-0.012-0.096C93.659,96.727,93.663,96.759,93.683,96.787z"/>
		</g>
		<g>
			
				<path fill="none" stroke="#3D1515" stroke-width="0.7443" stroke-linecap="round" stroke-linejoin="round" stroke-miterlimit="10" d="
				M61.661,114.109c4.632,0.56,3.587-6.237,6.958-8.463c2.362-1.561,4.772,0.144,5.885,2.43c0.849,1.738,0.044,4.44,1.793,5.637
				c1.894,1.297,3.17-0.04,3.591-1.773c0.532-2.218,0.528-4.452,2.566-5.853c1.553-1.069,1.942-0.861,1.954-2.911
				c0.004-1.573-0.568-4.708,0.553-5.997c1.645-1.888,5.512-1.145,5.7,1.377c0.064,0.913-1.829,8.103,0.997,6.669
				c-0.04,0.604-0.256,1.273-0.373,1.83c0.628,0.028,1.209,0.076,1.822,0.132c0.04,0.961-0.108,1.974-0.393,2.871
				c0.757,0.028,1.433-0.188,2.182-0.284c0.06,0.184,0.164,0.412,0.216,0.592c-0.024,0.02,0.3,0.04,0.272,0.008
				c0.272-2.282,1.277-6.217,4.347-5.66c0.084-2.206-0.616-8.079,0.901-9.812c1.854-2.122,5.144-0.342,5.372,1.981
				c0.196,2.05-0.032,4.191-0.06,6.245c-0.905,0.104-1.693-0.192-2.47-0.497c0.12,0.617,0.216,1.253,0.4,1.833
				c-0.717-0.028-1.429-0.3-2.158-0.268c1.433,0.865,2.846-0.072,3.567,1.689c0.412,1.009,0.232,2.082,0.276,3.163
				c0.104,2.522-0.072,4.952-0.148,7.462c-0.032,1.121,0.196,2.262,0.044,3.387c2.21-1.505,1.169,2.122,0.921,3.098
				c0.572,0.024,1.165,0.008,1.737,0.032c-0.553,2.298-0.717,3.398,1.974,2.994c-0.336,0.736-0.861,1.581-0.805,2.494
				c0.548,0.128,1.169,0.096,1.729-0.005c-0.044,1.87,0.82,2.286,1.413,3.779c0.66,1.657,0.272,4.952-0.1,6.646
				c-0.413,1.913-2.498,3.583-3.835,1.265c-1.165-2.018,0.608-4.615,0-6.765c-0.553-1.954-1.753-4.124-2.542-6.021
				c-0.776-1.864-1.901-3.942-2.994-5.639c-0.532-0.825-0.877-1.265-1.846-1.562c-0.68-0.2-2.085,0.272-2.642-0.14
				c-1.064-0.796,0.3-3.194,0.316-4.483c0.02-1.365-0.725-6.945,2.29-5.849c2.374,0.861,1.641,6.585,1.557,8.491
				c-1.117,0.072-2.178-0.156-3.295-0.084"/>
			
				<path fill="#3D1515" stroke="#3D1515" stroke-width="0.7443" stroke-linecap="round" stroke-linejoin="round" stroke-miterlimit="10" d="
				M65.905,137.603c0.376-2.426,0.833-4.84,1.169-7.27c0.148-1.098-0.032-2.822,0.8-3.659c0.753-0.76,2.246-0.815,2.922-0.016
				c1.041,1.236,0.016,4.131-0.224,5.488c-0.3,1.669-0.504,3.338-0.648,5.027c-0.336,0.076-1.602-0.212-3.711,0.324"/>
			
				<path fill="none" stroke="#3D1515" stroke-width="0.7443" stroke-linecap="round" stroke-linejoin="round" stroke-miterlimit="10" d="
				M82.153,137.19c1.793-2.986,1.209-7.522,1.129-10.945c0.813-0.279,3.191-0.852,2.802,0.284"/>
			
				<path fill="none" stroke="#3D1515" stroke-width="0.7443" stroke-linecap="round" stroke-linejoin="round" stroke-miterlimit="10" d="
				M133.591,140.709c1.08-1.021,0.656-3.823,0.604-5.265c-1.218,0.053-0.429-1.125-0.513-1.969
				c-0.024-0.028-0.261-0.064-0.312-0.108c1.27-2.178,1.413-4.744,2.702-7.025c1.733-3.074,2.67-5.748,6.401-6.657
				c-0.076-2.29-1.197-2.342-3.183-2.346c-1.145-0.004-2.598-0.268-2.302,1.413c-0.425-0.072-0.905,0.188-1.317,0.132
				c-0.104,0.568-0.14,1.165-0.147,1.741c-0.417-0.172-0.885,0.004-1.293-0.084c-0.221,0.729-0.385,1.481-0.345,2.246
				c-0.364-0.028-0.721,0.208-1.113,0.136c0.064,0.488-0.088,1.037-0.027,1.521c-0.244,0.004-0.448,0.124-0.692,0.132
				c-0.08,0.588,0.004,1.205,0.18,1.752c-0.172-0.004-0.469,0.129-0.696,0.116c-0.261,0.717-0.013,1.501,0.08,2.242
				c-0.276-0.084-0.625,0.016-0.905-0.076c0.104,0.393-0.027,0.925,0.108,1.337c-0.28,0.148-0.7,0.221-0.853,0.204"/>
			
				<path fill="none" stroke="#3D1515" stroke-width="0.7443" stroke-linecap="round" stroke-linejoin="round" stroke-miterlimit="10" d="
				M134.419,118.456c0.093-0.136,0.265-1.101,0-1.553c-0.244-0.416-1.068-0.492-1.152-0.648c-0.473-0.865,0.288-2.406-1.417-2.058
				c0.016-0.641,0.012-1.317-0.141-1.934c-2.542,0.548-0.412-2.826-2.654-2.302c-0.012-0.588-0.052-1.161-0.136-1.733
				c-0.521-0.068-1.009-0.196-1.521-0.032c-0.024-0.64-0.008-1.297-0.032-1.938c-0.86-0.14-1.785-0.08-2.666-0.156
				c0.145-0.521,0.128-1.077,0.18-1.618c-0.64-0.236-1.405-0.416-2.142-0.324c0.052-0.156,0.048-0.352,0.044-0.544
				c-0.004-0.208-0.004-0.42,0.068-0.592c-0.708-0.36-1.501-0.333-2.286-0.312c-0.092-1.553,0.577-8.783-1.978-7.874
				c-2.25,0.801-1.441,6.133-1.557,7.89"/>
			
				<path fill="#3D1515" stroke="#3D1515" stroke-width="0.7443" stroke-linecap="round" stroke-linejoin="round" stroke-miterlimit="10" d="
				M118.21,115.646c0.2,1.777,0.933,2.478,2.914,2.282c2.354-0.232,2.282-1.99,2.33-3.995c0.052-2.174-0.825-5.668-3.851-5.128
				C116.461,109.361,117.986,113.636,118.21,115.646z"/>
			
				<path fill="#3D1515" stroke="#3D1515" stroke-width="0.7443" stroke-linecap="round" stroke-linejoin="round" stroke-miterlimit="10" d="
				M136.005,96.146c-0.353,0.905-0.677,4.259-0.4,5.192c0.372,1.241,2.405,1.677,3.694,1.465c4.696-0.776,1.521-1.821,1.421-4.035
				c-0.044-1.065-0.092-2.853-0.84-3.675C138.667,93.761,136.609,94.605,136.005,96.146z"/>
			
				<path fill="#3D1515" stroke="#3D1515" stroke-width="0.7443" stroke-linecap="round" stroke-linejoin="round" stroke-miterlimit="10" d="
				M136.777,113.232c0.067,1.926,0.184,2.85,2.189,3.319c1.589,0.372,2.59,0.196,2.847-1.529c0.244-1.646,0.296-4.572-0.889-5.913
				c-0.729-0.829-2.69-1.005-3.6-0.196C136.337,109.793,136.733,111.999,136.777,113.232z"/>
			
				<path fill="#3D1515" stroke="#3D1515" stroke-width="0.7443" stroke-linecap="round" stroke-linejoin="round" stroke-miterlimit="10" d="
				M123.655,139.776c0.04-1.75-0.196-3.483-0.276-5.229c-0.156-3.314,1.217-9.226-4.271-9.158c-3.002,0.036-2.021,4.238-1.746,6.156
				c0.269,1.841-0.2,4.483,0.333,6.192c0.772,2.494,5.02,2.178,6.958,1.626"/>
			
				<path fill="#3D1515" stroke="#3D1515" stroke-width="0.7443" stroke-linecap="round" stroke-linejoin="round" stroke-miterlimit="10" d="
				M98.09,128.095c-0.409,1.918,0.112,4.071,0.188,6.005c0.036,0.937-0.388,2.166-0.288,3.019c0.168,1.429,2.854,2.558,4.432,1.882
				c1.913-0.821,0.224-4.292,0.3-5.969c0.072-1.586,0.841-4.885,0.088-6.277C101.733,124.757,98.458,126.369,98.09,128.095z"/>
			
				<path fill="#3D1515" stroke="#3D1515" stroke-width="0.7443" stroke-linecap="round" stroke-linejoin="round" stroke-miterlimit="10" d="
				M87.534,119.389c1.498-1.241,0.648-10.236-2.35-9.023c-2.134,0.861-2.786,7.466-1.069,8.799c0.985,0.765,2.522,0.521,3.522-0.084
				"/>
			
				<path fill="none" stroke="#3D1515" stroke-width="0.7443" stroke-linecap="round" stroke-linejoin="round" stroke-miterlimit="10" d="
				M82.153,121.254c0.292,0.232-0.576-0.028-1.053-0.076c0.164,0.5,0.144,1.101,0.212,1.605c-0.256-0.012-0.573,0.164-0.861,0.14
				c0.148,0.456-0.056,0.973,0.032,1.429c-0.389-0.12-0.721,0.02-1.113-0.196c-0.02,0.745-0.004,1.513-0.028,2.256
				c-0.324-0.071-0.772,0.152-1.057,0.108c0.04,0.581,0.1,1.177,0.124,1.75c-0.969-0.057-1.005,0.884-1.625,1.244
				c0.16-0.836,0.084-1.701-0.929-1.657c-0.04-0.933,0.388-2.489-1.037-1.964c0.108-0.329-0.036-0.873,0.072-1.213
				c-0.408,0.012-0.86-0.228-1.313-0.132c0.176-0.22,0.324-0.853,0.593-1.109c-0.445-0.044-0.825-0.3-1.325-0.236
				c0.236-0.48,0.248-1.013,0.284-1.521c-0.353,0.024-0.801-0.228-1.209-0.136c0.084-0.365-0.112-0.845-0.032-1.213
				c-0.829-0.14-1.905-0.444-2.674-0.012"/>
			
				<path fill="none" stroke="#3D1515" stroke-width="0.7443" stroke-linecap="round" stroke-linejoin="round" stroke-miterlimit="10" d="
				M94.675,113.904c0.16,0.385,0.14,0.909,0.096,1.329c-1.793-0.404-1.517,0.929-1.561,2.174c-1.642-0.4-1.393,1.501-1.441,2.646
				c-0.16-0.036-0.488,0.032-0.696-0.032c-0.272,0.961-0.1,2.069-0.14,3.079c-0.296-0.072-0.705,0.1-1.001,0.032
				c-0.028,0.48,0.156,1.269,0,1.706c-0.164,0.468-0.909,0.528-0.973,0.705c-0.288,0.751-0.308,2.049,0.612,2.125
				c-1.365-0.269-1.081,1.789-0.933,2.697c-1.641-0.368-0.993,2.118-1.013,3.187c-1.229,0.093-0.777,1.99-0.648,2.923
				c-1.726-0.152-0.629,2.502-0.997,2.994"/>
			
				<path fill="none" stroke="#3D1515" stroke-width="0.7443" stroke-linecap="round" stroke-linejoin="round" stroke-miterlimit="10" d="
				M142.077,102.828c0.513-0.116,1.089-0.136,1.581-0.276c0.104,0.068,0.173,0.16,0.2,0.28c-0.244,0.489-0.28,1.005-0.316,1.533
				c1.409,0.044,2.391-0.072,1.858,1.658c0.472-0.216,1.04-0.188,1.524-0.28c-0.031,0.532-0.096,1.104-0.176,1.621
				c0.448-0.004,0.944,0.216,1.421,0.136c-0.056,0.272,0.084,0.628,0.024,0.901c0.448-0.072,0.973,0.1,1.421,0.032
				c-0.088,0.373,0.072,0.732-0.092,1.109c0.628-0.016,1.249,0.032,1.854,0.128c-0.021,0.533,0.056,1.097,0.031,1.629
				c1.005,0.112,1.346,0.817,1.138,1.766c0.176,0,0.893-0.088,1.009,0.016c0.107,0.096,0.516-0.1,0.616-0.028
				c0.229,0.168,0.112,0.608,0.225,0.693c0.544,0.42,0.235,1.101,1.433,1c-0.076,0.444,0.108,0.977,0.032,1.417
				c0.532-0.04,1.021,0.128,1.521,0.14c0.02,0.445,0.336,0.937,0.428,1.321c0.417-0.308,0.969-0.408,1.541-0.288
				c0.045,2.482,5.974-1.193,5.517,2.253c0.781-0.412,1.854-0.46,2.759-0.52c0.124,1.225-0.809,2.838,0.195,3.867
				c0.657,0.669,2.154,0.148,2.734,0.933c0.581,0.78-0.228,2.397,0.601,3.265c0.341,0.36,2.006,0.753,2.574,0.861
				c-0.312,1.309-0.3,2.481,0.032,3.795c2.69,0.04,1.865,0.504,1.785,2.569c-0.068,1.81,1.277,2.867,1.005,4.712
				c-0.044-0.016-0.248-0.2-0.32-0.228"/>
			
				<path fill="#3D1515" stroke="#3D1515" stroke-width="0.7443" stroke-linecap="round" stroke-linejoin="round" stroke-miterlimit="10" d="
				M157.506,124.901c-1.75,1.168-1.117,4.658-1.226,6.464c-0.191,3.223-0.224,5.581,0.509,8.707
				c1.886,0.185,6.161,0.977,7.254-0.948c3.53-6.237,0.685-3.207-0.236-9.608c-0.225-1.577-0.4-3.162-0.593-4.73
				C163.158,124.305,157.978,124.581,157.506,124.901z"/>
			
				<path fill="#3D1515" stroke="#3D1515" stroke-width="0.7443" stroke-linecap="round" stroke-linejoin="round" stroke-miterlimit="10" d="
				M139.331,130.236c0.021,2.086-0.765,6.394,0.477,8.247c0.864,1.293,3.851,1.225,5.044,0.38c2.178-1.537,0.729-5.172,0.5-7.438
				c-0.191-1.914-0.308-4.079-0.784-5.936c-0.44-1.717-2.342-1.561-3.848-1.121C138.374,125.053,139.315,128.203,139.331,130.236z"
				/>
			
				<path fill="none" stroke="#3D1515" stroke-width="0.7443" stroke-linecap="round" stroke-linejoin="round" stroke-miterlimit="10" d="
				M179.131,104.277c-3.815-0.729-6.705-0.816-9.716,2.122c-1.365,1.333-1.838,2.626-2.422,4.368
				c-0.28,0.829-0.265,1.633-1.257,1.874c-1.918,0.464-1.642-1.75-1.865-2.898c-0.509-2.61-2.01-5.236-4.645-5.821
				c-1.312-0.288-2.453-0.444-3.698,0.104c-0.621,0.276-0.933,0.8-1.634,0.964c-0.332-2.738-3.551-6.741-6.517-6.625
				c-1.142-3.683-2.947-6.389-6.634-7.86c-3.763-1.503-8.907,0.134-9.367,4.55c-1.009-0.156-2.086-0.008-3.059-0.08
				c0.18-2.646-3.15-4.396-5.4-4.784c-2.798-0.484-7.298,1.453-9.055,3.651c-0.989,1.237-0.333,1.549-2.074,1.351
				c-2.125-0.242-2.718-1.555-3.839-2.96c-1.75-2.186-5.016-2.218-7.382-0.821c-1.598,0.943-2.274,2.957-3.699,3.827
				c-0.84,0.512-2.254,0.334-3.218,0.57c-0.06,0.426,0.04,0.871,0.3,1.227"/>
			
				<path fill="none" stroke="#3D1515" stroke-width="0.7443" stroke-linecap="round" stroke-linejoin="round" stroke-miterlimit="10" d="
				M94.159,95.894c0.696-2.372-2.622-3.761-4.496-3.815c-3.407-0.1-6.461,3.931-7.91,6.629c-0.837,1.557-1.518,3.223-1.733,4.98
				c-0.092,0.729,0.2,2.338-0.437,2.878c-0.708,0.604-1.213-0.14-2.034-0.125c-0.741,0.012-1.445,0.356-2.125,0.629"/>
			
				<path fill="#3D1515" stroke="#3D1515" stroke-width="0.7443" stroke-linecap="round" stroke-linejoin="round" stroke-miterlimit="10" d="
				M69.223,111.311c0.524-1.205,1.301-1.257,2.674-1.121c0.084,1.277-0.164,2.574-0.256,3.843c-0.084,1.213,0.228,3.042-0.064,4.183
				c-0.564,2.19-2.814,0.577-3.039-0.836C68.271,115.714,68.551,112.86,69.223,111.311z"/>
			
				<path fill="#3D1515" stroke="#3D1515" stroke-width="0.7443" stroke-linecap="round" stroke-linejoin="round" stroke-miterlimit="10" d="
				M178.706,115.326c0.141-1.577-0.228-3.299-0.2-4.904c0.017-0.801,0.324-2.05-0.2-2.754c-0.748-1.005-3.142-1.005-4.035-0.156
				c-1.257,1.188-0.588,4.804-0.528,6.317c0.064,1.661,0.004,3.13,1.678,3.927C180.111,119.993,178.639,116.114,178.706,115.326z"/>
			
				<path fill="#3D1515" stroke="#3D1515" stroke-width="0.7443" stroke-linecap="round" stroke-linejoin="round" stroke-miterlimit="10" d="
				M156.877,115.458c0.008-1.946-0.404-4.688-0.188-6.894c1.426,0.348,3.167-0.164,3.92,1.297c0.452,0.877,0.14,2.802,0.224,3.779
				c0.104,1.249,0.44,2.667,0.084,3.887l-1.585,0.433l0.02-0.625l-1.541,0.288L156.877,115.458z"/>
			
				<path fill="none" stroke="#3D1515" stroke-width="0.7443" stroke-linecap="round" stroke-linejoin="round" stroke-miterlimit="10" d="
				M150.876,108.312c0.24-1.077,0.124-2.37,0.088-3.503c-2.71-0.296-1.985,1.874-1.953,3.976c0-0.188,0.004-0.384,0-0.573"/>
		</g>
		<g>
			<path fill="#46C0ED" d="M118.73,147.286c-1.149,1.357-3.575,2.45-7.566,2.858c-3.991,0.416-5.625,0.444-8.395,3.131
				c-2.771,2.693-0.22,4.487,1.701,3.702c1.926-0.788,1.569-1.425,1.569-1.425c-3.074,1.024-2.834,0.128-2.942-1.217
				c-0.112-1.35,5.453-2.202,5.453-2.202s-2.754,11.361-3.431,13.959c-0.672,2.595-3.511,3.844-3.511,3.844s2.214-0.613,4.288-2.11
				c2.078-1.493,4.592-16.064,4.592-16.064s3.162-0.192,5.64-1.145C118.606,149.672,118.73,147.286,118.73,147.286z"/>
			<path fill="#46C0ED" d="M119.231,164.568c-0.228-0.969,0.032-5.417,0.817-6.71c0,0-1.441,0.068-1.657,0.496
				c-0.216,0.429-1.974,5.921-3.627,6.418c-1.662,0.488-2.338-0.129-2.302-1.438c0.032-1.313,0.432-3.659,0.989-4.944
				c0,0-2.891,1.109-2.831,1.39c0.06,0.276,0.925-0.137,0.769,0.477c-0.16,0.612-1.561,6.789,1.177,6.429
				c2.734-0.356,4.387-1.97,4.387-1.97s1.285,2.646,2.466,1.941c1.185-0.704,1.741-1.709,1.741-1.709
				S119.459,165.537,119.231,164.568z"/>
			<path fill="#46C0ED" d="M116.973,155.945c0.568,0.067,3.519-0.673,3.519-0.673l-0.581-1.461
				C119.912,153.812,116.413,155.877,116.973,155.945z"/>
			<path fill="#46C0ED" d="M132.193,160.341c0.593-2.45,0.052-3.915-2.082-3.728c-2.133,0.192-3.887,1.714-3.887,1.714
				s0.084-1.313-1.633-1.045c-1.433,0.22-2.59,0.809-2.87,0.948c0.52-0.336,1.585-0.092,2.358,0.053
				c0.8,0.151-0.229,3.274-0.665,4.836c-0.449,1.557-1.325,2.718-0.953,2.75c0.373,0.032,3.391-0.341,3.391-0.341l-0.629-0.44
				c-0.376-0.08,0.497-3.475,0.856-4.751c0.369-1.273,2.751-2.178,4.292-2.103c1.541,0.068,0.38,2.174-0.192,3.972
				s0.496,2.826,1.81,2.95c1.313,0.128,1.209-1.129,1.209-1.129C131.913,164.412,131.604,162.795,132.193,160.341z"/>
			<path fill="#46C0ED" d="M121.721,158.23c-0.02,0.009-0.052,0.009-0.068,0.024C121.633,158.271,121.665,158.255,121.721,158.23z"
				/>
			<path fill="#46C0ED" d="M148.086,164.151c-1.497-1.104-3.118-0.841-3.118-0.841s2.822-5.725,3.055-5.78
				c0.231-0.06-6.121-0.096-6.121-0.096l-1.249,2.245l5.048-0.881c0,0-3.482,6.598-3.062,7.555c0.412,0.961,2.606-3.146,4.163-1.678
				c0.332,0.309,0.553,0.713,0.697,1.169c-0.381,0.2-0.978,0.608-1.834,1.445c-1.653,1.613-2.906,3.815-1.745,4.744
				c1.156,0.925,2.75,0.948,4.039-0.417S149.583,165.248,148.086,164.151z M146.333,170.713c-1.31,1.085-2.242,0.008-1.053-1.493
				c0.876-1.097,1.901-1.998,2.39-2.402C147.766,168.327,147.169,170.013,146.333,170.713z"/>
			<path fill="#46C0ED" d="M134.139,161.382c-0.084-0.129-0.136-0.232-0.136-0.232S133.763,161.226,134.139,161.382z"/>
			<path fill="#46C0ED" d="M137.782,164.195c-0.921-0.332-1.518-1.185-1.742-2.142c0.857,0.052,1.926-0.06,3.363-1.057
				c1.945-1.345,0.94-4.007-0.816-3.743c-1.578,0.24-4.12,1.722-4.296,4.191c-0.068-0.023-0.108-0.04-0.152-0.063
				c0.036,0.063,0.08,0.115,0.148,0.184c-0.012,0.244-0.016,0.456,0.124,1.381c0,0,1.277,2.506,4.159,2.286
				c0,0,2.038-0.324,2.73-2.643C141.301,162.59,139.724,164.9,137.782,164.195z M136.801,159.063
				c1.521-1.425,3.267-0.008,2.515,0.961c-0.909,1.169-2.034,1.677-3.339,1.697C135.845,160.749,136.084,159.732,136.801,159.063z"
				/>
		</g>
		
			<path fill="#3D1515" stroke="#3D1515" stroke-width="0.9315" stroke-linecap="round" stroke-linejoin="round" stroke-miterlimit="10" d="
			M117.122,102.992c0.196-1.637-0.821-8.012,1.577-8.338c2.734-0.373,2.182,6.281,2.154,7.818c-1.073,0.172-3.002,0.312-3.607,0.52"
			/>
		
			<path fill="#3D1515" stroke="#3D1515" stroke-width="1.0143" stroke-linecap="round" stroke-linejoin="round" stroke-miterlimit="10" d="
			M99.387,103.104c0.22-2.178-0.044-7.898,2.33-9.023c3.194-1.513,5.372,6.085,3.959,7.962c-1.189,1.573-4.468,1.273-6.149,0.929"/>
		
			<path fill="#3D1515" stroke="#3D1515" stroke-width="0.9315" stroke-linecap="round" stroke-linejoin="round" stroke-miterlimit="10" d="
			M84.375,104.741c-0.136-2.402-0.604-8.163,3.222-8.106c3.627,0.052,2.246,5.236,1.762,7.338c-1.537,0.1-3.07,0.3-4.608,0.392"/>
		
			<path fill="#3D1515" stroke="#3D1515" stroke-width="0.9315" stroke-linecap="round" stroke-linejoin="round" stroke-miterlimit="10" d="
			M99.123,117.992c0.244-1.513-1.345-7.174,0.741-7.682c3.098-0.752,2.242,6.537,1.978,7.806c-0.929-0.04-2.05-0.216-2.842-0.252"/>
		
			<path fill="#3D1515" stroke="#3D1515" stroke-width="0.9315" stroke-linecap="round" stroke-linejoin="round" stroke-miterlimit="10" d="
			M150.744,108.368c1.585-0.26,0.437-4.732-1.397-3.15c-1.116,0.96-0.216,4.231,1.693,3.635c0.253-0.881,0.613-2.986-0.172-3.363"/>
		
			<path fill="none" stroke="#3D1515" stroke-width="0.9315" stroke-linecap="round" stroke-linejoin="round" stroke-miterlimit="10" d="
			M184.739,103.993c-1.493,0.28-4.047,0.432-5.372,0.248"/>
		
			<path fill="none" stroke="#3D1515" stroke-width="0.9315" stroke-linecap="round" stroke-linejoin="round" stroke-miterlimit="10" d="
			M61.749,114.117c-1.165-0.412-2.542,0.016-3.623-0.752"/>
	</g>
	<g>
		
			<path fill="none" stroke="#F3EFEC" stroke-width="0.2606" stroke-linecap="round" stroke-linejoin="round" stroke-miterlimit="10" d="
			M125.324,47.063v7.586l4.164-7.036l-1.193,7.036l5.677-5.875l-1.621,7.047l5.744-4.379c0,0-3.795,6.301-3.479,6.197
			c0.316-0.108,7.05-2.97,7.05-2.97l-3.247,5.424l7.406-3.203c0,0-4.592,6.033-4.031,5.552c0.561-0.48,5.904-3.311,5.904-3.311
			l-2.726,5.446l4.796-1.807c0,0-4.208,5.328-3.383,4.689c0.828-0.64,7.13-2.884,7.45-2.67c0,0-5.905,6.727-4.448,6.195
			s7.866-2.456,7.866-2.456s-3.683,7.206-2.99,6.62c0.692-0.584,5.553-3.629,5.553-3.629s-3.823,6.511-3.143,5.98
			c0.685-0.534,5.064-4.273,5.601-3.845c0.532,0.429-3.951,7.366-3.311,7.046c0.641-0.318,6.726-3.095,6.726-3.095l-3.899,3.791
			l5.717-2.722l-3.951,5.444l6.301-3.524c0,0-3.631,5.238-3.875,4.994c-0.24-0.24,6.117-2.858,6.009-2.43
			c-0.104,0.426-4.7,5.286-4.7,5.286l6.409-2.856l-2.99,6.385l6.514-3.529c0,0-4.116,4.268-3.848,4.538s6.518-1.009,6.518-1.009
			l-4.804,2.722l7.474-0.112c0,0-6.621,3.523-5.873,2.991c0.749-0.529,6.986-0.897,6.854-1.029
			c-0.136-0.132-3.223,5.308-3.223,5.308l4.849-3.683l-3.355,5.613l6.518-2.958c0,0-4.167,5.625-3.739,5.568
			c0.429-0.06,6.834-3.507,6.941-3.066c0.108,0.444-5.071,5.3-4.271,4.824c0.8-0.48,6.364-3.395,6.192-2.626
			c-0.168,0.765-4.483,5.176-4.483,5.176l7.13-2.554c0,0-6.277,4.483-5.957,4.164c0.32-0.32,7.714-0.825,7.574-1.017
			c-0.145-0.2-4.048,3.515-4.048,3.515l5.444,0.156l-4.387,2.266l5.36,0.836l0.908,0.144c0,0-7.222,1.281-6.901,0.893l7.854,1.978
			h0.477c0,0-7.795-0.308-7.475,0c0.32,0.309,6.998,3.255,6.998,3.255s-7.062-0.44-6.466-0.364c0.597,0.076,7.582,2.061,7.582,2.061
			l-8.542,0.681l7.902,2.258h-7.795l6.409,2.526h0.425c0,0-8.651,0.18-8.223,0c0.424-0.177,7.153,3.883,7.153,3.883
			s-7.37-2.138-7.153-1.817c0.212,0.324,3.951,4.592,3.951,4.592s-5.769-3.022-4.912-2.562c0.853,0.46,3.819,4.483,3.819,4.483
			s-6.489-3.414-6.169-3.094c0.32,0.319,4.119,5.828,4.119,5.828l-5.08-4.335c0,0,3.755,6.641,3.318,6.097
			c-0.437-0.545-4.388-4.496-4.388-4.496s1.93,6.954,2.198,6.686s-4.868-5.188-4.868-4.868s3.631,7.687,3.631,7.687l-4.912-4.592
			l2.038,5.885l-4.176-4.491l2.778,6.677l-5.02-4.815l2.886,7.005l-5.66-4.812l4.056,7.534l-5.021-4.912l2.202,5.772
			c0,0-4.088-4.516-3.587-4.015c0.5,0.5,1.609,5.988,1.609,5.988l-4.92-3.603l3.05,5.473l-4.011-3.695c0,0,1.108,5.78,1.709,5.593
			c0.597-0.188-4.379-3.995-4.059-3.884c0.32,0.104,2.99,5.641,2.99,5.641l-4.488-3.398c0,0,3.223,5.36,2.734,4.872
			c-0.492-0.492-4.867-4.123-4.867-4.123l3.106,5.88c0,0-4.712-3.25-4.496-3.23c0.212,0.021,1.478,6.249,1.678,6.049
			s-2.959-4.64-2.959-4.64l2.134,6.941l-4.463-3.614l1.537,5.063c0,0-5.261-3.339-4.868-2.729c0.393,0.604,3.951,4.591,3.951,4.591
			s-6.213-3.118-5.66-2.778c0.552,0.337,2.518,4.977,2.518,4.977s-4.976-3.695-4.548-3.591c0.429,0.108,2.67,6.409,2.67,6.409
			l-4.163-4.592c0,0,0.917,6.901,1.129,6.686c0.217-0.213-3.799-3.695-3.799-3.695l1.609,5.885c0,0-5.312-4.14-4.708-3.322
			c0.608,0.82,3.951,5.235,3.951,5.235s-7.117-3.278-6.409-2.67c0.717,0.604,3.207,6.941,3.207,6.621
			c0-0.324-6.073-4.808-6.133-4.487c-0.061,0.32,2.67,6.045,2.834,5.885c0.156-0.16-6.529-3.215-5.993-3.322
			c0.533-0.104,4.16,6.517,4.056,6.409c-0.104-0.108-6.85-5.133-5.873-4.592c0.981,0.54,4.672,8.114,4.312,7.794
			c-0.356-0.316-7.729-7.906-6.881-6.941c0.844,0.969,3.318,8.33,3.214,7.798c-0.107-0.532-6.152-7.689-6.152-7.689
			s2.182,9.155,2.193,8.246c0.012-0.913-5.524-9.1-5.108-8.671c0.417,0.425-0.852,10.136-0.756,9.396"/>
		
			<path fill="none" stroke="#F3EFEC" stroke-width="0.2606" stroke-linecap="round" stroke-linejoin="round" stroke-miterlimit="10" d="
			M125.192,47.063v7.586l-4.167-7.036l1.193,7.036l-5.676-5.875l1.621,7.047l-5.745-4.379c0,0,3.795,6.301,3.479,6.197
			c-0.316-0.108-7.05-2.97-7.05-2.97l3.247,5.424l-7.406-3.203c0,0,4.596,6.033,4.031,5.552c-0.561-0.48-5.901-3.311-5.901-3.311
			l2.722,5.446l-4.796-1.807c0,0,4.208,5.328,3.383,4.689c-0.829-0.64-7.129-2.884-7.45-2.67c0,0,5.905,6.727,4.447,6.195
			c-1.457-0.532-7.866-2.456-7.866-2.456s3.683,7.206,2.99,6.62c-0.692-0.584-5.552-3.629-5.552-3.629s3.823,6.511,3.143,5.98
			c-0.685-0.534-5.064-4.273-5.597-3.845c-0.536,0.429,3.947,7.366,3.307,7.046c-0.64-0.318-6.725-3.095-6.725-3.095l3.899,3.791
			l-5.716-2.722l3.951,5.444l-6.301-3.524c0,0,3.631,5.238,3.875,4.994c0.24-0.24-6.117-2.858-6.009-2.43
			c0.108,0.426,4.7,5.286,4.7,5.286l-6.409-2.856l2.99,6.385l-6.513-3.529c0,0,4.115,4.268,3.847,4.538
			c-0.269,0.27-6.518-1.009-6.518-1.009l4.804,2.722l-7.474-0.112c0,0,6.621,3.523,5.873,2.991
			c-0.749-0.529-6.985-0.897-6.849-1.029c0.132-0.132,3.218,5.308,3.218,5.308l-4.848-3.683l3.354,5.613l-6.513-2.958
			c0,0,4.164,5.625,3.735,5.568c-0.424-0.06-6.833-3.507-6.941-3.066c-0.108,0.444,5.072,5.3,4.271,4.824
			c-0.801-0.48-6.365-3.395-6.193-2.626c0.168,0.765,4.487,5.176,4.487,5.176l-7.133-2.554c0,0,6.277,4.483,5.957,4.164
			c-0.32-0.32-7.714-0.825-7.574-1.017c0.145-0.2,4.051,3.515,4.051,3.515l-5.448,0.156l4.388,2.266l-5.356,0.836l-0.909,0.144
			c0,0,7.218,1.281,6.897,0.893l-7.854,1.978h-0.477c0,0,7.798-0.308,7.478,0c-0.324,0.309-7.001,3.255-7.001,3.255
			s7.062-0.44,6.465-0.364c-0.596,0.076-7.582,2.061-7.582,2.061l8.543,0.681l-7.902,2.258h7.798l-6.413,2.526h-0.424
			c0,0,8.651,0.18,8.227,0c-0.429-0.177-7.158,3.883-7.158,3.883s7.37-2.138,7.158-1.817c-0.216,0.324-3.956,4.592-3.956,4.592
			s5.769-3.022,4.916-2.562s-3.823,4.483-3.823,4.483s6.489-3.414,6.169-3.094c-0.32,0.319-4.12,5.828-4.12,5.828l5.084-4.335
			c0,0-3.759,6.641-3.322,6.097c0.436-0.545,4.387-4.496,4.387-4.496s-1.929,6.954-2.198,6.686
			c-0.268-0.269,4.868-5.188,4.868-4.868s-3.631,7.687-3.631,7.687l4.912-4.592l-2.038,5.885l4.175-4.491l-2.778,6.677l5.02-4.815
			l-2.882,7.005l5.661-4.812l-4.059,7.534l5.02-4.912l-2.202,5.772c0,0,4.087-4.516,3.586-4.015c-0.496,0.5-1.609,5.988-1.609,5.988
			l4.92-3.603l-3.051,5.473l4.015-3.695c0,0-1.113,5.78-1.709,5.593c-0.597-0.188,4.375-3.995,4.055-3.884
			c-0.32,0.104-2.99,5.641-2.99,5.641l4.487-3.398c0,0-3.223,5.36-2.734,4.872c0.493-0.492,4.868-4.123,4.868-4.123l-3.106,5.88
			c0,0,4.711-3.25,4.496-3.23c-0.212,0.021-1.477,6.249-1.677,6.049s2.958-4.64,2.958-4.64l-2.133,6.941l4.467-3.614l-1.541,5.063
			c0,0,5.264-3.339,4.868-2.729c-0.392,0.604-3.951,4.591-3.951,4.591s6.213-3.118,5.661-2.778
			c-0.553,0.337-2.518,4.977-2.518,4.977s4.976-3.695,4.547-3.591c-0.428,0.108-2.67,6.409-2.67,6.409l4.164-4.592
			c0,0-0.917,6.901-1.129,6.686c-0.216-0.213,3.799-3.695,3.799-3.695l-1.609,5.885c0,0,5.316-4.14,4.708-3.322
			c-0.604,0.82-3.951,5.235-3.951,5.235s7.118-3.278,6.405-2.67c-0.708,0.604-3.203,6.941-3.203,6.621
			c0-0.324,6.073-4.808,6.133-4.487c0.064,0.32-2.67,6.045-2.831,5.885s6.525-3.215,5.989-3.322
			c-0.532-0.104-4.159,6.517-4.055,6.409c0.104-0.108,6.85-5.133,5.873-4.592c-0.98,0.54-4.671,8.114-4.311,7.794
			c0.36-0.316,7.73-7.906,6.881-6.941c-0.845,0.969-3.319,8.33-3.215,7.798c0.108-0.532,6.153-7.689,6.153-7.689
			s-2.182,9.155-2.194,8.246c-0.012-0.913,5.524-9.1,5.108-8.671c-0.417,0.425,0.857,10.136,0.761,9.396"/>
	</g>
</g>
</svg>
