<?xml version="1.0" encoding="utf-8"?>
<!-- Generator: Adobe Illustrator 16.0.0, SVG Export Plug-In . SVG Version: 6.00 Build 0)  -->
<!DOCTYPE svg PUBLIC "-//W3C//DTD SVG 1.1//EN" "http://www.w3.org/Graphics/SVG/1.1/DTD/svg11.dtd">
<svg version="1.1" id="Capa_1" xmlns="http://www.w3.org/2000/svg" xmlns:xlink="http://www.w3.org/1999/xlink" x="0px" y="0px"
	 width="85.04px" height="85.04px" viewBox="0 0 85.04 85.04" enable-background="new 0 0 85.04 85.04" xml:space="preserve">
<path fill-rule="evenodd" clip-rule="evenodd" fill="#FFFFFF" d="M66.441,35.419c-1.176-0.703-2.555-1.1-4.023-1.08
	c-0.221,0.003-0.439,0.018-0.656,0.039l-28.23,0.379c0.131-0.582-0.01-0.91-0.684-0.9l-8.002,0.107
	c-4.727,0.063-8.504,3.944-8.441,8.671c0.064,4.726,3.945,8.503,8.672,8.441l8.002-0.107c0.652-0.01,0.775-0.341,0.625-0.919
	l28.258-0.379c0.219,0.017,0.441,0.024,0.664,0.021c1.471-0.02,2.842-0.455,4.002-1.192c2.189-1.372,3.635-3.82,3.598-6.587
	C70.188,39.142,68.672,36.73,66.441,35.419z M22.357,42.231c-3.83-2.32,1.855-8.386,6.43,0
	C24.213,50.615,18.527,44.551,22.357,42.231z M32.838,48.006c-0.697-1.498-1.537-3.447-1.566-5.57
	c-0.027-2.125,0.775-4.096,1.441-5.614l24.482-0.328c-0.014,0.012-0.023,0.024-0.037,0.037c-0.07,0.069-0.141,0.141-0.209,0.212
	c-0.02,0.021-0.041,0.043-0.061,0.064c-0.064,0.071-0.129,0.143-0.191,0.216c-0.021,0.023-0.041,0.048-0.062,0.072
	c-0.061,0.073-0.119,0.146-0.178,0.22c-0.02,0.026-0.041,0.054-0.061,0.081c-0.057,0.073-0.109,0.148-0.162,0.223
	c-0.021,0.029-0.041,0.059-0.061,0.088c-0.051,0.075-0.102,0.15-0.148,0.226c-0.021,0.032-0.041,0.064-0.061,0.097
	c-0.045,0.075-0.09,0.151-0.133,0.228c-0.02,0.035-0.039,0.069-0.059,0.104c-0.041,0.076-0.082,0.153-0.121,0.23
	c-0.018,0.037-0.035,0.074-0.055,0.111c-0.035,0.077-0.072,0.154-0.105,0.232c-0.018,0.039-0.035,0.078-0.051,0.118
	c-0.033,0.078-0.064,0.156-0.096,0.235c-0.014,0.042-0.031,0.082-0.045,0.125c-0.029,0.078-0.055,0.158-0.082,0.238
	c-0.014,0.042-0.027,0.085-0.041,0.128c-0.025,0.08-0.047,0.161-0.068,0.242c-0.012,0.043-0.025,0.087-0.035,0.132
	c-0.021,0.081-0.039,0.164-0.057,0.246c-0.01,0.045-0.02,0.09-0.029,0.135c-0.018,0.083-0.029,0.168-0.045,0.252
	c-0.006,0.045-0.016,0.09-0.021,0.136c-0.012,0.087-0.021,0.175-0.031,0.263c-0.004,0.044-0.012,0.086-0.016,0.13
	c-0.008,0.095-0.014,0.191-0.018,0.288c-0.002,0.037-0.006,0.074-0.008,0.111c-0.004,0.134-0.006,0.269-0.004,0.404
	c0,0.085,0.004,0.171,0.01,0.255c0.096,2.1,1.039,3.976,2.488,5.304L32.838,48.006z M65.537,46.758
	c-0.838,0.525-1.826,0.834-2.885,0.849l-0.639,0.009c-2.832-0.256-5.076-2.619-5.113-5.524c-0.004-0.172,0.002-0.342,0.016-0.51
	c0.002-0.013,0.002-0.026,0.002-0.041c0.014-0.16,0.035-0.318,0.062-0.475c0.004-0.02,0.006-0.04,0.01-0.059
	c0.027-0.152,0.062-0.302,0.102-0.449c0.006-0.023,0.012-0.045,0.02-0.068c0.039-0.145,0.086-0.287,0.139-0.427
	c0.008-0.023,0.018-0.045,0.025-0.067c0.055-0.14,0.113-0.276,0.178-0.41c0.01-0.021,0.02-0.041,0.029-0.06
	c0.066-0.136,0.139-0.268,0.217-0.396c0.008-0.016,0.018-0.031,0.027-0.046c0.08-0.132,0.168-0.261,0.258-0.386
	c0.006-0.007,0.012-0.015,0.018-0.023c0.098-0.13,0.197-0.256,0.305-0.377v0c0.107-0.12,0.219-0.235,0.334-0.346
	c0.01-0.008,0.018-0.017,0.027-0.025c0.109-0.105,0.227-0.205,0.346-0.301c0.016-0.011,0.029-0.023,0.045-0.035
	c0.117-0.092,0.238-0.18,0.365-0.262c0.018-0.013,0.035-0.025,0.055-0.037c0.123-0.08,0.252-0.156,0.383-0.226
	c0.02-0.012,0.041-0.023,0.062-0.033c0.131-0.069,0.266-0.133,0.402-0.191c0.021-0.009,0.043-0.018,0.064-0.027
	c0.139-0.058,0.281-0.109,0.426-0.156c0.02-0.006,0.041-0.012,0.061-0.019c0.148-0.045,0.299-0.085,0.451-0.119
	c0.016-0.003,0.033-0.006,0.049-0.01c0.148-0.031,0.299-0.056,0.451-0.074c0.012-0.002,0.023-0.004,0.037-0.005l0.637-0.009
	c0.959-0.013,1.863,0.217,2.658,0.633c0.084,0.044,0.164,0.088,0.246,0.136c0,0.001,0.004,0.002,0.004,0.003
	c0.074,0.044,0.148,0.091,0.221,0.139c1.49,0.995,2.486,2.682,2.512,4.606C68.17,43.958,67.125,45.745,65.537,46.758z"/>
</svg>
